<?xml version="1.0" encoding="UTF-8"?><svg id="Layer_1" xmlns="http://www.w3.org/2000/svg" xmlns:xlink="http://www.w3.org/1999/xlink" viewBox="0 0 730.05 629.08"><defs><style>.cls-1{stroke:#4d4d4d;}.cls-1,.cls-2,.cls-3,.cls-4{stroke-miterlimit:10;}.cls-1,.cls-2,.cls-5,.cls-4{fill:none;}.cls-1,.cls-4{stroke-linecap:round;}.cls-2,.cls-3,.cls-4{stroke:#000;}.cls-6{fill:#8cc63f;}.cls-7{letter-spacing:-.02em;}.cls-8{fill:#4d4d4d;}.cls-9,.cls-3{fill:#fff;}.cls-10{font-size:16px;}.cls-10,.cls-11{fill:#333;}.cls-10,.cls-11,.cls-12{font-family:FreestyleScript-Regular, 'Freestyle Script';}.cls-13{letter-spacing:0em;}.cls-14{clip-path:url(#clippath-1);}.cls-15{letter-spacing:-.01em;}.cls-16{filter:url(#drop-shadow-1);}.cls-11{font-size:29px;}.cls-17{letter-spacing:0em;}.cls-18{font-family:Bahnschrift-Bold, Bahnschrift;font-variation-settings:'wght' 700, 'wdth' 100;font-weight:700;}.cls-18,.cls-19{font-size:15px;}.cls-12{font-size:22px;}.cls-20{fill:#ccc;}.cls-21{letter-spacing:-.01em;}.cls-22{letter-spacing:-.05em;}.cls-19,.cls-23{font-family:Bahnschrift, Bahnschrift;font-variation-settings:'wght' 400, 'wdth' 100;}.cls-24{letter-spacing:-.01em;}.cls-25{letter-spacing:0em;}.cls-26{clip-path:url(#clippath);}.cls-23{font-size:8px;}</style><clipPath id="clippath-1"><rect class="cls-5" x="24.36" y="2.45" width="133.88" height="19.42"/></clipPath><symbol id="Kernel_Execution" viewBox="0 0 173.22 24.31"><path class="cls-9" d="M158.25,2.5v19.31H24.36V2.5h133.88M160.25.5H22.36v23.31h137.88V.5h0Z"/><rect class="cls-3" x="22.36" y=".5" width="137.88" height="23.31"/><g class="cls-14"><polygon class="cls-6" points="28.66 2.41 19.2 2.41 0 21.85 9.46 21.85 28.66 2.41"/><polygon class="cls-6" points="46.73 2.41 37.27 2.41 18.07 21.85 27.53 21.85 46.73 2.41"/><polygon class="cls-6" points="64.8 2.41 55.34 2.41 36.14 21.85 45.6 21.85 64.8 2.41"/><polygon class="cls-6" points="82.87 2.41 73.41 2.41 54.21 21.85 63.67 21.85 82.87 2.41"/><polygon class="cls-6" points="100.94 2.41 91.48 2.41 72.28 21.85 81.74 21.85 100.94 2.41"/><polygon class="cls-6" points="119.01 2.41 109.55 2.41 90.35 21.85 99.81 21.85 119.01 2.41"/><polygon class="cls-6" points="137.08 2.41 127.62 2.41 108.42 21.85 117.88 21.85 137.08 2.41"/><polygon class="cls-6" points="155.15 2.41 145.69 2.41 126.49 21.85 135.95 21.85 155.15 2.41"/><polygon class="cls-6" points="173.22 2.41 163.76 2.41 144.56 21.85 154.02 21.85 173.22 2.41"/></g></symbol><filter id="drop-shadow-1" filterUnits="userSpaceOnUse"><feOffset dx="7" dy="7"/><feGaussianBlur result="blur" stdDeviation="5"/><feFlood flood-color="#000" flood-opacity=".07"/><feComposite in2="blur" operator="in"/><feComposite in="SourceGraphic"/></filter><clipPath id="clippath"><rect class="cls-5" x="96.1" y="111.42" width="382.23" height="417.74"/></clipPath></defs><path class="cls-20" d="M636.91,126.72c0-.28-.22-.5-.5-.5s-.5.22-.5.5v5c0,.28.22.5.5.5s.5-.22.5-.5v-5M636.91,136.72c0-.28-.22-.5-.5-.5s-.5.22-.5.5v5c0,.28.22.5.5.5s.5-.22.5-.5v-5M636.91,146.72c0-.28-.22-.5-.5-.5s-.5.22-.5.5v5c0,.28.22.5.5.5s.5-.22.5-.5v-5M636.91,156.72c0-.28-.22-.5-.5-.5s-.5.22-.5.5v5c0,.28.22.5.5.5s.5-.22.5-.5v-5M636.91,166.72c0-.28-.22-.5-.5-.5s-.5.22-.5.5v5c0,.28.22.5.5.5s.5-.22.5-.5v-5M636.91,176.72c0-.28-.22-.5-.5-.5s-.5.22-.5.5v5c0,.28.22.5.5.5s.5-.22.5-.5v-5M636.91,186.72c0-.28-.22-.5-.5-.5s-.5.22-.5.5v5c0,.28.22.5.5.5s.5-.22.5-.5v-5M636.91,196.72c0-.28-.22-.5-.5-.5s-.5.22-.5.5v5c0,.28.22.5.5.5s.5-.22.5-.5v-5M636.91,206.72c0-.28-.22-.5-.5-.5s-.5.22-.5.5v5c0,.28.22.5.5.5s.5-.22.5-.5v-5M636.91,216.72c0-.28-.22-.5-.5-.5s-.5.22-.5.5v5c0,.28.22.5.5.5s.5-.22.5-.5v-5M636.91,226.72c0-.28-.22-.5-.5-.5s-.5.22-.5.5v5c0,.28.22.5.5.5s.5-.22.5-.5v-5M636.91,236.72c0-.28-.22-.5-.5-.5s-.5.22-.5.5v5c0,.28.22.5.5.5s.5-.22.5-.5v-5M636.91,246.72c0-.28-.22-.5-.5-.5s-.5.22-.5.5v5c0,.28.22.5.5.5s.5-.22.5-.5v-5M636.91,256.72c0-.28-.22-.5-.5-.5s-.5.22-.5.5v5c0,.28.22.5.5.5s.5-.22.5-.5v-5M636.91,266.72c0-.28-.22-.5-.5-.5s-.5.22-.5.5v5c0,.28.22.5.5.5s.5-.22.5-.5v-5M636.91,276.72c0-.28-.22-.5-.5-.5s-.5.22-.5.5v5c0,.28.22.5.5.5s.5-.22.5-.5v-5M636.91,286.72c0-.28-.22-.5-.5-.5s-.5.22-.5.5v5c0,.28.22.5.5.5s.5-.22.5-.5v-5M636.91,296.72c0-.28-.22-.5-.5-.5s-.5.22-.5.5v5c0,.28.22.5.5.5s.5-.22.5-.5v-5M636.91,306.72c0-.28-.22-.5-.5-.5s-.5.22-.5.5v5c0,.28.22.5.5.5s.5-.22.5-.5v-5M636.91,316.72c0-.28-.22-.5-.5-.5s-.5.22-.5.5v5c0,.28.22.5.5.5s.5-.22.5-.5v-5M636.91,326.72c0-.28-.22-.5-.5-.5s-.5.22-.5.5v5c0,.28.22.5.5.5s.5-.22.5-.5v-5M636.91,336.72c0-.28-.22-.5-.5-.5s-.5.22-.5.5v5c0,.28.22.5.5.5s.5-.22.5-.5v-5M636.91,346.72c0-.28-.22-.5-.5-.5s-.5.22-.5.5v5c0,.28.22.5.5.5s.5-.22.5-.5v-5M636.91,356.72c0-.28-.22-.5-.5-.5s-.5.22-.5.5v5c0,.28.22.5.5.5s.5-.22.5-.5v-5M636.91,366.72c0-.28-.22-.5-.5-.5s-.5.22-.5.5v5c0,.28.22.5.5.5s.5-.22.5-.5v-5M636.91,376.72c0-.28-.22-.5-.5-.5s-.5.22-.5.5v5c0,.28.22.5.5.5s.5-.22.5-.5v-5M636.91,386.72c0-.28-.22-.5-.5-.5s-.5.22-.5.5v5c0,.28.22.5.5.5s.5-.22.5-.5v-5M636.91,396.72c0-.28-.22-.5-.5-.5s-.5.22-.5.5v5c0,.28.22.5.5.5s.5-.22.5-.5v-5M636.91,406.72c0-.28-.22-.5-.5-.5s-.5.22-.5.5v5c0,.28.22.5.5.5s.5-.22.5-.5v-5M636.91,416.72c0-.28-.22-.5-.5-.5s-.5.22-.5.5v5c0,.28.22.5.5.5s.5-.22.5-.5v-5M636.91,426.72c0-.28-.22-.5-.5-.5s-.5.22-.5.5v5c0,.28.22.5.5.5s.5-.22.5-.5v-5M636.91,436.72c0-.28-.22-.5-.5-.5s-.5.22-.5.5v5c0,.28.22.5.5.5s.5-.22.5-.5v-5M636.91,446.72c0-.28-.22-.5-.5-.5s-.5.22-.5.5v5c0,.28.22.5.5.5s.5-.22.5-.5v-5M636.91,456.72c0-.28-.22-.5-.5-.5s-.5.22-.5.5v5c0,.28.22.5.5.5s.5-.22.5-.5v-5M636.91,466.72c0-.28-.22-.5-.5-.5s-.5.22-.5.5v5c0,.28.22.5.5.5s.5-.22.5-.5v-5M636.91,476.72c0-.28-.22-.5-.5-.5s-.5.22-.5.5v5c0,.28.22.5.5.5s.5-.22.5-.5v-5M636.91,486.72c0-.28-.22-.5-.5-.5s-.5.22-.5.5v5c0,.28.22.5.5.5s.5-.22.5-.5v-5"/><path class="cls-20" d="M141.65,126.72c0-.28-.22-.5-.5-.5s-.5.22-.5.5v5c0,.28.22.5.5.5s.5-.22.5-.5v-5M141.65,136.72c0-.28-.22-.5-.5-.5s-.5.22-.5.5v5c0,.28.22.5.5.5s.5-.22.5-.5v-5M141.65,146.72c0-.28-.22-.5-.5-.5s-.5.22-.5.5v5c0,.28.22.5.5.5s.5-.22.5-.5v-5M141.65,156.72c0-.28-.22-.5-.5-.5s-.5.22-.5.5v5c0,.28.22.5.5.5s.5-.22.5-.5v-5M141.65,166.72c0-.28-.22-.5-.5-.5s-.5.22-.5.5v5c0,.28.22.5.5.5s.5-.22.5-.5v-5M141.65,176.72c0-.28-.22-.5-.5-.5s-.5.22-.5.5v5c0,.28.22.5.5.5s.5-.22.5-.5v-5M141.65,186.72c0-.28-.22-.5-.5-.5s-.5.22-.5.5v5c0,.28.22.5.5.5s.5-.22.5-.5v-5M141.65,196.72c0-.28-.22-.5-.5-.5s-.5.22-.5.5v5c0,.28.22.5.5.5s.5-.22.5-.5v-5M141.65,206.72c0-.28-.22-.5-.5-.5s-.5.22-.5.5v5c0,.28.22.5.5.5s.5-.22.5-.5v-5M141.65,216.72c0-.28-.22-.5-.5-.5s-.5.22-.5.5v5c0,.28.22.5.5.5s.5-.22.5-.5v-5M141.65,226.72c0-.28-.22-.5-.5-.5s-.5.22-.5.5v5c0,.28.22.5.5.5s.5-.22.5-.5v-5M141.65,236.72c0-.28-.22-.5-.5-.5s-.5.22-.5.5v5c0,.28.22.5.5.5s.5-.22.5-.5v-5M141.65,246.72c0-.28-.22-.5-.5-.5s-.5.22-.5.5v5c0,.28.22.5.5.5s.5-.22.5-.5v-5M141.65,256.72c0-.28-.22-.5-.5-.5s-.5.22-.5.5v5c0,.28.22.5.5.5s.5-.22.5-.5v-5M141.65,266.72c0-.28-.22-.5-.5-.5s-.5.22-.5.5v5c0,.28.22.5.5.5s.5-.22.5-.5v-5M141.65,276.72c0-.28-.22-.5-.5-.5s-.5.22-.5.5v5c0,.28.22.5.5.5s.5-.22.5-.5v-5M141.65,286.72c0-.28-.22-.5-.5-.5s-.5.22-.5.5v5c0,.28.22.5.5.5s.5-.22.5-.5v-5M141.65,296.72c0-.28-.22-.5-.5-.5s-.5.22-.5.5v5c0,.28.22.5.5.5s.5-.22.5-.5v-5M141.65,306.72c0-.28-.22-.5-.5-.5s-.5.22-.5.5v5c0,.28.22.5.5.5s.5-.22.5-.5v-5M141.65,316.72c0-.28-.22-.5-.5-.5s-.5.22-.5.5v5c0,.28.22.5.5.5s.5-.22.5-.5v-5M141.65,326.72c0-.28-.22-.5-.5-.5s-.5.22-.5.5v5c0,.28.22.5.5.5s.5-.22.5-.5v-5M141.65,336.72c0-.28-.22-.5-.5-.5s-.5.22-.5.5v5c0,.28.22.5.5.5s.5-.22.5-.5v-5M141.65,346.72c0-.28-.22-.5-.5-.5s-.5.22-.5.5v5c0,.28.22.5.5.5s.5-.22.5-.5v-5M141.65,356.72c0-.28-.22-.5-.5-.5s-.5.22-.5.5v5c0,.28.22.5.5.5s.5-.22.5-.5v-5M141.65,366.72c0-.28-.22-.5-.5-.5s-.5.22-.5.5v5c0,.28.22.5.5.5s.5-.22.5-.5v-5M141.65,376.72c0-.28-.22-.5-.5-.5s-.5.22-.5.5v5c0,.28.22.5.5.5s.5-.22.5-.5v-5M141.65,386.72c0-.28-.22-.5-.5-.5s-.5.22-.5.5v5c0,.28.22.5.5.5s.5-.22.5-.5v-5M141.65,396.72c0-.28-.22-.5-.5-.5s-.5.22-.5.5v5c0,.28.22.5.5.5s.5-.22.5-.5v-5M141.65,406.72c0-.28-.22-.5-.5-.5s-.5.22-.5.5v5c0,.28.22.5.5.5s.5-.22.5-.5v-5M141.65,416.72c0-.28-.22-.5-.5-.5s-.5.22-.5.5v5c0,.28.22.5.5.5s.5-.22.5-.5v-5M141.65,426.72c0-.28-.22-.5-.5-.5s-.5.22-.5.5v5c0,.28.22.5.5.5s.5-.22.5-.5v-5M141.65,436.72c0-.28-.22-.5-.5-.5s-.5.22-.5.5v5c0,.28.22.5.5.5s.5-.22.5-.5v-5M141.65,446.72c0-.28-.22-.5-.5-.5s-.5.22-.5.5v5c0,.28.22.5.5.5s.5-.22.5-.5v-5M141.65,456.72c0-.28-.22-.5-.5-.5s-.5.22-.5.5v5c0,.28.22.5.5.5s.5-.22.5-.5v-5M141.65,466.72c0-.28-.22-.5-.5-.5s-.5.22-.5.5v5c0,.28.22.5.5.5s.5-.22.5-.5v-5M141.65,476.72c0-.28-.22-.5-.5-.5s-.5.22-.5.5v5c0,.28.22.5.5.5s.5-.22.5-.5v-5M141.65,486.72c0-.28-.22-.5-.5-.5s-.5.22-.5.5v5c0,.28.22.5.5.5s.5-.22.5-.5v-5"/><path class="cls-20" d="M186.67,126.72c0-.28-.22-.5-.5-.5s-.5.22-.5.5v5c0,.28.22.5.5.5s.5-.22.5-.5v-5M186.67,136.72c0-.28-.22-.5-.5-.5s-.5.22-.5.5v5c0,.28.22.5.5.5s.5-.22.5-.5v-5M186.67,146.72c0-.28-.22-.5-.5-.5s-.5.22-.5.5v5c0,.28.22.5.5.5s.5-.22.5-.5v-5M186.67,156.72c0-.28-.22-.5-.5-.5s-.5.22-.5.5v5c0,.28.22.5.5.5s.5-.22.5-.5v-5M186.67,166.72c0-.28-.22-.5-.5-.5s-.5.22-.5.5v5c0,.28.22.5.5.5s.5-.22.5-.5v-5M186.67,176.72c0-.28-.22-.5-.5-.5s-.5.22-.5.5v5c0,.28.22.5.5.5s.5-.22.5-.5v-5M186.67,186.72c0-.28-.22-.5-.5-.5s-.5.22-.5.5v5c0,.28.22.5.5.5s.5-.22.5-.5v-5M186.67,196.72c0-.28-.22-.5-.5-.5s-.5.22-.5.5v5c0,.28.22.5.5.5s.5-.22.5-.5v-5M186.67,206.72c0-.28-.22-.5-.5-.5s-.5.22-.5.5v5c0,.28.22.5.5.5s.5-.22.5-.5v-5M186.67,216.72c0-.28-.22-.5-.5-.5s-.5.22-.5.5v5c0,.28.22.5.5.5s.5-.22.5-.5v-5M186.67,226.72c0-.28-.22-.5-.5-.5s-.5.22-.5.5v5c0,.28.22.5.5.5s.5-.22.5-.5v-5M186.67,236.72c0-.28-.22-.5-.5-.5s-.5.22-.5.5v5c0,.28.22.5.5.5s.5-.22.5-.5v-5M186.67,246.72c0-.28-.22-.5-.5-.5s-.5.22-.5.5v5c0,.28.22.5.5.5s.5-.22.5-.5v-5M186.67,256.72c0-.28-.22-.5-.5-.5s-.5.22-.5.5v5c0,.28.22.5.5.5s.5-.22.5-.5v-5M186.67,266.72c0-.28-.22-.5-.5-.5s-.5.22-.5.5v5c0,.28.22.5.5.5s.5-.22.5-.5v-5M186.67,276.72c0-.28-.22-.5-.5-.5s-.5.22-.5.5v5c0,.28.22.5.5.5s.5-.22.5-.5v-5M186.67,286.72c0-.28-.22-.5-.5-.5s-.5.22-.5.5v5c0,.28.22.5.5.5s.5-.22.5-.5v-5M186.67,296.72c0-.28-.22-.5-.5-.5s-.5.22-.5.5v5c0,.28.22.5.5.5s.5-.22.5-.5v-5M186.67,306.72c0-.28-.22-.5-.5-.5s-.5.22-.5.5v5c0,.28.22.5.5.5s.5-.22.5-.5v-5M186.67,316.72c0-.28-.22-.5-.5-.5s-.5.22-.5.5v5c0,.28.22.5.5.5s.5-.22.5-.5v-5M186.67,326.72c0-.28-.22-.5-.5-.5s-.5.22-.5.5v5c0,.28.22.5.5.5s.5-.22.5-.5v-5M186.67,336.72c0-.28-.22-.5-.5-.5s-.5.22-.5.5v5c0,.28.22.5.5.5s.5-.22.5-.5v-5M186.67,346.72c0-.28-.22-.5-.5-.5s-.5.22-.5.5v5c0,.28.22.5.5.5s.5-.22.5-.5v-5M186.67,356.72c0-.28-.22-.5-.5-.5s-.5.22-.5.5v5c0,.28.22.5.5.5s.5-.22.5-.5v-5M186.67,366.72c0-.28-.22-.5-.5-.5s-.5.22-.5.5v5c0,.28.22.5.5.5s.5-.22.5-.5v-5M186.67,376.72c0-.28-.22-.5-.5-.5s-.5.22-.5.5v5c0,.28.22.5.5.5s.5-.22.5-.5v-5M186.67,386.72c0-.28-.22-.5-.5-.5s-.5.22-.5.5v5c0,.28.22.5.5.5s.5-.22.5-.5v-5M186.67,396.72c0-.28-.22-.5-.5-.5s-.5.22-.5.5v5c0,.28.22.5.5.5s.5-.22.5-.5v-5M186.67,406.72c0-.28-.22-.5-.5-.5s-.5.22-.5.5v5c0,.28.22.5.5.5s.5-.22.5-.5v-5M186.67,416.72c0-.28-.22-.5-.5-.5s-.5.22-.5.5v5c0,.28.22.5.5.5s.5-.22.5-.5v-5M186.67,426.72c0-.28-.22-.5-.5-.5s-.5.22-.5.5v5c0,.28.22.5.5.5s.5-.22.5-.5v-5M186.67,436.72c0-.28-.22-.5-.5-.5s-.5.22-.5.5v5c0,.28.22.5.5.5s.5-.22.5-.5v-5M186.67,446.72c0-.28-.22-.5-.5-.5s-.5.22-.5.5v5c0,.28.22.5.5.5s.5-.22.5-.5v-5M186.67,456.72c0-.28-.22-.5-.5-.5s-.5.22-.5.5v5c0,.28.22.5.5.5s.5-.22.5-.5v-5M186.67,466.72c0-.28-.22-.5-.5-.5s-.5.22-.5.5v5c0,.28.22.5.5.5s.5-.22.5-.5v-5M186.67,476.72c0-.28-.22-.5-.5-.5s-.5.22-.5.5v5c0,.28.22.5.5.5s.5-.22.5-.5v-5M186.67,486.72c0-.28-.22-.5-.5-.5s-.5.22-.5.5v5c0,.28.22.5.5.5s.5-.22.5-.5v-5"/><path class="cls-20" d="M276.72,126.72c0-.28-.22-.5-.5-.5s-.5.22-.5.5v5c0,.28.22.5.5.5s.5-.22.5-.5v-5M276.72,136.72c0-.28-.22-.5-.5-.5s-.5.22-.5.5v5c0,.28.22.5.5.5s.5-.22.5-.5v-5M276.72,146.72c0-.28-.22-.5-.5-.5s-.5.22-.5.5v5c0,.28.22.5.5.5s.5-.22.5-.5v-5M276.72,156.72c0-.28-.22-.5-.5-.5s-.5.22-.5.5v5c0,.28.22.5.5.5s.5-.22.5-.5v-5M276.72,166.72c0-.28-.22-.5-.5-.5s-.5.22-.5.5v5c0,.28.22.5.5.5s.5-.22.5-.5v-5M276.72,176.72c0-.28-.22-.5-.5-.5s-.5.22-.5.5v5c0,.28.22.5.5.5s.5-.22.5-.5v-5M276.72,186.72c0-.28-.22-.5-.5-.5s-.5.22-.5.5v5c0,.28.22.5.5.5s.5-.22.5-.5v-5M276.72,196.72c0-.28-.22-.5-.5-.5s-.5.22-.5.5v5c0,.28.22.5.5.5s.5-.22.5-.5v-5M276.72,206.72c0-.28-.22-.5-.5-.5s-.5.22-.5.5v5c0,.28.22.5.5.5s.5-.22.5-.5v-5M276.72,216.72c0-.28-.22-.5-.5-.5s-.5.22-.5.5v5c0,.28.22.5.5.5s.5-.22.5-.5v-5M276.72,226.72c0-.28-.22-.5-.5-.5s-.5.22-.5.5v5c0,.28.22.5.5.5s.5-.22.5-.5v-5M276.72,236.72c0-.28-.22-.5-.5-.5s-.5.22-.5.5v5c0,.28.22.5.5.5s.5-.22.5-.5v-5M276.72,246.72c0-.28-.22-.5-.5-.5s-.5.22-.5.5v5c0,.28.22.5.5.5s.5-.22.5-.5v-5M276.72,256.72c0-.28-.22-.5-.5-.5s-.5.22-.5.5v5c0,.28.22.5.5.5s.5-.22.5-.5v-5M276.72,266.72c0-.28-.22-.5-.5-.5s-.5.22-.5.5v5c0,.28.22.5.5.5s.5-.22.5-.5v-5M276.72,276.72c0-.28-.22-.5-.5-.5s-.5.22-.5.5v5c0,.28.22.5.5.5s.5-.22.5-.5v-5M276.72,286.72c0-.28-.22-.5-.5-.5s-.5.22-.5.5v5c0,.28.22.5.5.5s.5-.22.5-.5v-5M276.72,296.72c0-.28-.22-.5-.5-.5s-.5.22-.5.5v5c0,.28.22.5.5.5s.5-.22.5-.5v-5M276.72,306.72c0-.28-.22-.5-.5-.5s-.5.22-.5.5v5c0,.28.22.5.5.5s.5-.22.5-.5v-5M276.72,316.72c0-.28-.22-.5-.5-.5s-.5.22-.5.5v5c0,.28.22.5.5.5s.5-.22.5-.5v-5M276.72,326.72c0-.28-.22-.5-.5-.5s-.5.22-.5.5v5c0,.28.22.5.5.5s.5-.22.5-.5v-5M276.72,336.72c0-.28-.22-.5-.5-.5s-.5.22-.5.5v5c0,.28.22.5.5.5s.5-.22.5-.5v-5M276.72,346.72c0-.28-.22-.5-.5-.5s-.5.22-.5.5v5c0,.28.22.5.5.5s.5-.22.5-.5v-5M276.72,356.72c0-.28-.22-.5-.5-.5s-.5.22-.5.5v5c0,.28.22.5.5.5s.5-.22.5-.5v-5M276.72,366.72c0-.28-.22-.5-.5-.5s-.5.22-.5.5v5c0,.28.22.5.5.5s.5-.22.5-.5v-5M276.72,376.72c0-.28-.22-.5-.5-.5s-.5.22-.5.5v5c0,.28.22.5.5.5s.5-.22.5-.5v-5M276.72,386.72c0-.28-.22-.5-.5-.5s-.5.22-.5.5v5c0,.28.22.5.5.5s.5-.22.5-.5v-5M276.72,396.72c0-.28-.22-.5-.5-.5s-.5.22-.5.5v5c0,.28.22.5.5.5s.5-.22.5-.5v-5M276.72,406.72c0-.28-.22-.5-.5-.5s-.5.22-.5.5v5c0,.28.22.5.5.5s.5-.22.5-.5v-5M276.72,416.72c0-.28-.22-.5-.5-.5s-.5.22-.5.5v5c0,.28.22.5.5.5s.5-.22.5-.5v-5M276.72,426.72c0-.28-.22-.5-.5-.5s-.5.22-.5.5v5c0,.28.22.5.5.5s.5-.22.5-.5v-5M276.72,436.72c0-.28-.22-.5-.5-.5s-.5.22-.5.5v5c0,.28.22.5.5.5s.5-.22.5-.5v-5M276.72,446.72c0-.28-.22-.5-.5-.5s-.5.22-.5.5v5c0,.28.22.5.5.5s.5-.22.5-.5v-5M276.72,456.72c0-.28-.22-.5-.5-.5s-.5.22-.5.5v5c0,.28.22.5.5.5s.5-.22.5-.5v-5M276.72,466.72c0-.28-.22-.5-.5-.5s-.5.22-.5.5v5c0,.28.22.5.5.5s.5-.22.5-.5v-5M276.72,476.72c0-.28-.22-.5-.5-.5s-.5.22-.5.5v5c0,.28.22.5.5.5s.5-.22.5-.5v-5M276.72,486.72c0-.28-.22-.5-.5-.5s-.5.22-.5.5v5c0,.28.22.5.5.5s.5-.22.5-.5v-5"/><path class="cls-20" d="M321.74,126.72c0-.28-.22-.5-.5-.5s-.5.22-.5.5v5c0,.28.22.5.5.5s.5-.22.5-.5v-5M321.74,136.72c0-.28-.22-.5-.5-.5s-.5.22-.5.5v5c0,.28.22.5.5.5s.5-.22.5-.5v-5M321.74,146.72c0-.28-.22-.5-.5-.5s-.5.22-.5.5v5c0,.28.22.5.5.5s.5-.22.5-.5v-5M321.74,156.72c0-.28-.22-.5-.5-.5s-.5.22-.5.5v5c0,.28.22.5.5.5s.5-.22.5-.5v-5M321.74,166.72c0-.28-.22-.5-.5-.5s-.5.22-.5.5v5c0,.28.22.5.5.5s.5-.22.5-.5v-5M321.74,176.72c0-.28-.22-.5-.5-.5s-.5.22-.5.5v5c0,.28.22.5.5.5s.5-.22.5-.5v-5M321.74,186.72c0-.28-.22-.5-.5-.5s-.5.22-.5.5v5c0,.28.22.5.5.5s.5-.22.5-.5v-5M321.74,196.72c0-.28-.22-.5-.5-.5s-.5.22-.5.5v5c0,.28.22.5.5.5s.5-.22.5-.5v-5M321.74,206.72c0-.28-.22-.5-.5-.5s-.5.22-.5.5v5c0,.28.22.5.5.5s.5-.22.5-.5v-5M321.74,216.72c0-.28-.22-.5-.5-.5s-.5.22-.5.5v5c0,.28.22.5.5.5s.5-.22.5-.5v-5M321.74,226.72c0-.28-.22-.5-.5-.5s-.5.22-.5.5v5c0,.28.22.5.5.5s.5-.22.5-.5v-5M321.74,236.72c0-.28-.22-.5-.5-.5s-.5.22-.5.5v5c0,.28.22.5.5.5s.5-.22.5-.5v-5M321.74,246.72c0-.28-.22-.5-.5-.5s-.5.22-.5.5v5c0,.28.22.5.5.5s.5-.22.5-.5v-5M321.74,256.72c0-.28-.22-.5-.5-.5s-.5.22-.5.5v5c0,.28.22.5.5.5s.5-.22.5-.5v-5M321.74,266.72c0-.28-.22-.5-.5-.5s-.5.22-.5.5v5c0,.28.22.5.5.5s.5-.22.5-.5v-5M321.74,276.72c0-.28-.22-.5-.5-.5s-.5.22-.5.5v5c0,.28.22.5.5.5s.5-.22.5-.5v-5M321.74,286.72c0-.28-.22-.5-.5-.5s-.5.22-.5.5v5c0,.28.22.5.5.5s.5-.22.5-.5v-5M321.74,296.72c0-.28-.22-.5-.5-.5s-.5.22-.5.5v5c0,.28.22.5.5.5s.5-.22.5-.5v-5M321.74,306.72c0-.28-.22-.5-.5-.5s-.5.22-.5.5v5c0,.28.22.5.5.5s.5-.22.5-.5v-5M321.74,316.72c0-.28-.22-.5-.5-.5s-.5.22-.5.5v5c0,.28.22.5.5.5s.5-.22.5-.5v-5M321.74,326.72c0-.28-.22-.5-.5-.5s-.5.22-.5.5v5c0,.28.22.5.5.5s.5-.22.5-.5v-5M321.74,336.72c0-.28-.22-.5-.5-.5s-.5.22-.5.5v5c0,.28.22.5.5.5s.5-.22.5-.5v-5M321.74,346.72c0-.28-.22-.5-.5-.5s-.5.22-.5.5v5c0,.28.22.5.5.5s.5-.22.5-.5v-5M321.74,356.72c0-.28-.22-.5-.5-.5s-.5.22-.5.5v5c0,.28.22.5.5.5s.5-.22.5-.5v-5M321.74,366.72c0-.28-.22-.5-.5-.5s-.5.22-.5.5v5c0,.28.22.5.5.5s.5-.22.5-.5v-5M321.74,376.72c0-.28-.22-.5-.5-.5s-.5.22-.5.5v5c0,.28.22.5.5.5s.5-.22.5-.5v-5M321.74,386.72c0-.28-.22-.5-.5-.5s-.5.22-.5.5v5c0,.28.22.5.5.5s.5-.22.5-.5v-5M321.74,396.72c0-.28-.22-.5-.5-.5s-.5.22-.5.5v5c0,.28.22.5.5.5s.5-.22.5-.5v-5M321.74,406.72c0-.28-.22-.5-.5-.5s-.5.22-.5.5v5c0,.28.22.5.5.5s.5-.22.5-.5v-5M321.74,416.72c0-.28-.22-.5-.5-.5s-.5.22-.5.5v5c0,.28.22.5.5.5s.5-.22.5-.5v-5M321.74,426.72c0-.28-.22-.5-.5-.5s-.5.22-.5.5v5c0,.28.22.5.5.5s.5-.22.5-.5v-5M321.74,436.72c0-.28-.22-.5-.5-.5s-.5.22-.5.5v5c0,.28.22.5.5.5s.5-.22.5-.5v-5M321.74,446.72c0-.28-.22-.5-.5-.5s-.5.22-.5.5v5c0,.28.22.5.5.5s.5-.22.5-.5v-5M321.74,456.72c0-.28-.22-.5-.5-.5s-.5.22-.5.5v5c0,.28.22.5.5.5s.5-.22.5-.5v-5M321.74,466.72c0-.28-.22-.5-.5-.5s-.5.22-.5.5v5c0,.28.22.5.5.5s.5-.22.5-.5v-5M321.74,476.72c0-.28-.22-.5-.5-.5s-.5.22-.5.5v5c0,.28.22.5.5.5s.5-.22.5-.5v-5M321.74,486.72c0-.28-.22-.5-.5-.5s-.5.22-.5.5v5c0,.28.22.5.5.5s.5-.22.5-.5v-5"/><path class="cls-20" d="M366.77,126.72c0-.28-.22-.5-.5-.5s-.5.22-.5.5v5c0,.28.22.5.5.5s.5-.22.5-.5v-5M366.77,136.72c0-.28-.22-.5-.5-.5s-.5.22-.5.5v5c0,.28.22.5.5.5s.5-.22.5-.5v-5M366.77,146.72c0-.28-.22-.5-.5-.5s-.5.22-.5.5v5c0,.28.22.5.5.5s.5-.22.5-.5v-5M366.77,156.72c0-.28-.22-.5-.5-.5s-.5.22-.5.5v5c0,.28.22.5.5.5s.5-.22.5-.5v-5M366.77,166.72c0-.28-.22-.5-.5-.5s-.5.22-.5.5v5c0,.28.22.5.5.5s.5-.22.5-.5v-5M366.77,176.72c0-.28-.22-.5-.5-.5s-.5.22-.5.5v5c0,.28.22.5.5.5s.5-.22.5-.5v-5M366.77,186.72c0-.28-.22-.5-.5-.5s-.5.22-.5.5v5c0,.28.22.5.5.5s.5-.22.5-.5v-5M366.77,196.72c0-.28-.22-.5-.5-.5s-.5.22-.5.5v5c0,.28.22.5.5.5s.5-.22.5-.5v-5M366.77,206.72c0-.28-.22-.5-.5-.5s-.5.22-.5.5v5c0,.28.22.5.5.5s.5-.22.5-.5v-5M366.77,216.72c0-.28-.22-.5-.5-.5s-.5.22-.5.5v5c0,.28.22.5.5.5s.5-.22.5-.5v-5M366.77,226.72c0-.28-.22-.5-.5-.5s-.5.22-.5.5v5c0,.28.22.5.5.5s.5-.22.5-.5v-5M366.77,236.72c0-.28-.22-.5-.5-.5s-.5.22-.5.5v5c0,.28.22.5.5.5s.5-.22.5-.5v-5M366.77,246.72c0-.28-.22-.5-.5-.5s-.5.22-.5.5v5c0,.28.22.5.5.5s.5-.22.5-.5v-5M366.77,256.72c0-.28-.22-.5-.5-.5s-.5.22-.5.5v5c0,.28.22.5.5.5s.5-.22.5-.5v-5M366.77,266.72c0-.28-.22-.5-.5-.5s-.5.22-.5.5v5c0,.28.22.5.5.5s.5-.22.5-.5v-5M366.77,276.72c0-.28-.22-.5-.5-.5s-.5.22-.5.5v5c0,.28.22.5.5.5s.5-.22.5-.5v-5M366.77,286.72c0-.28-.22-.5-.5-.5s-.5.22-.5.5v5c0,.28.22.5.5.5s.5-.22.5-.5v-5M366.77,296.72c0-.28-.22-.5-.5-.5s-.5.22-.5.5v5c0,.28.22.5.5.5s.5-.22.5-.5v-5M366.77,306.72c0-.28-.22-.5-.5-.5s-.5.22-.5.5v5c0,.28.22.5.5.5s.5-.22.5-.5v-5M366.77,316.72c0-.28-.22-.5-.5-.5s-.5.22-.5.5v5c0,.28.22.5.5.5s.5-.22.5-.5v-5M366.77,326.72c0-.28-.22-.5-.5-.5s-.5.22-.5.5v5c0,.28.22.5.5.5s.5-.22.5-.5v-5M366.77,336.72c0-.28-.22-.5-.5-.5s-.5.22-.5.5v5c0,.28.22.5.5.5s.5-.22.5-.5v-5M366.77,346.72c0-.28-.22-.5-.5-.5s-.5.22-.5.5v5c0,.28.22.5.5.5s.5-.22.5-.5v-5M366.77,356.72c0-.28-.22-.5-.5-.5s-.5.22-.5.5v5c0,.28.22.5.5.5s.5-.22.5-.5v-5M366.77,366.72c0-.28-.22-.5-.5-.5s-.5.22-.5.5v5c0,.28.22.5.5.5s.5-.22.5-.5v-5M366.77,376.72c0-.28-.22-.5-.5-.5s-.5.22-.5.5v5c0,.28.22.5.5.5s.5-.22.5-.5v-5M366.77,386.72c0-.28-.22-.5-.5-.5s-.5.22-.5.5v5c0,.28.22.5.5.5s.5-.22.5-.5v-5M366.77,396.72c0-.28-.22-.5-.5-.5s-.5.22-.5.5v5c0,.28.22.5.5.5s.5-.22.5-.5v-5M366.77,406.72c0-.28-.22-.5-.5-.5s-.5.22-.5.5v5c0,.28.22.5.5.5s.5-.22.5-.5v-5M366.77,416.72c0-.28-.22-.5-.5-.5s-.5.22-.5.5v5c0,.28.22.5.5.5s.5-.22.5-.5v-5M366.77,426.72c0-.28-.22-.5-.5-.5s-.5.22-.5.5v5c0,.28.22.5.5.5s.5-.22.5-.5v-5M366.77,436.72c0-.28-.22-.5-.5-.5s-.5.22-.5.5v5c0,.28.22.5.5.5s.5-.22.5-.5v-5M366.77,446.72c0-.28-.22-.5-.5-.5s-.5.22-.5.5v5c0,.28.22.5.5.5s.5-.22.5-.5v-5M366.77,456.72c0-.28-.22-.5-.5-.5s-.5.22-.5.5v5c0,.28.22.5.5.5s.5-.22.5-.5v-5M366.77,466.72c0-.28-.22-.5-.5-.5s-.5.22-.5.5v5c0,.28.22.5.5.5s.5-.22.5-.5v-5M366.77,476.72c0-.28-.22-.5-.5-.5s-.5.22-.5.5v5c0,.28.22.5.5.5s.5-.22.5-.5v-5M366.77,486.72c0-.28-.22-.5-.5-.5s-.5.22-.5.5v5c0,.28.22.5.5.5s.5-.22.5-.5v-5"/><path class="cls-20" d="M411.79,126.72c0-.28-.22-.5-.5-.5s-.5.22-.5.5v5c0,.28.22.5.5.5s.5-.22.5-.5v-5M411.79,136.72c0-.28-.22-.5-.5-.5s-.5.22-.5.5v5c0,.28.22.5.5.5s.5-.22.5-.5v-5M411.79,146.72c0-.28-.22-.5-.5-.5s-.5.22-.5.5v5c0,.28.22.5.5.5s.5-.22.5-.5v-5M411.79,156.72c0-.28-.22-.5-.5-.5s-.5.22-.5.5v5c0,.28.22.5.5.5s.5-.22.5-.5v-5M411.79,166.72c0-.28-.22-.5-.5-.5s-.5.22-.5.5v5c0,.28.22.5.5.5s.5-.22.5-.5v-5M411.79,176.72c0-.28-.22-.5-.5-.5s-.5.22-.5.5v5c0,.28.22.5.5.5s.5-.22.5-.5v-5M411.79,186.72c0-.28-.22-.5-.5-.5s-.5.22-.5.5v5c0,.28.22.5.5.5s.5-.22.5-.5v-5M411.79,196.72c0-.28-.22-.5-.5-.5s-.5.22-.5.5v5c0,.28.22.5.5.5s.5-.22.5-.5v-5M411.79,206.72c0-.28-.22-.5-.5-.5s-.5.22-.5.5v5c0,.28.22.5.5.5s.5-.22.5-.5v-5M411.79,216.72c0-.28-.22-.5-.5-.5s-.5.22-.5.5v5c0,.28.22.5.5.5s.5-.22.5-.5v-5M411.79,226.72c0-.28-.22-.5-.5-.5s-.5.22-.5.5v5c0,.28.22.5.5.5s.5-.22.5-.5v-5M411.79,236.72c0-.28-.22-.5-.5-.5s-.5.22-.5.5v5c0,.28.22.5.5.5s.5-.22.5-.5v-5M411.79,246.72c0-.28-.22-.5-.5-.5s-.5.22-.5.5v5c0,.28.22.5.5.5s.5-.22.5-.5v-5M411.79,256.72c0-.28-.22-.5-.5-.5s-.5.22-.5.5v5c0,.28.22.5.5.5s.5-.22.5-.5v-5M411.79,266.72c0-.28-.22-.5-.5-.5s-.5.22-.5.5v5c0,.28.22.5.5.5s.5-.22.5-.5v-5M411.79,276.72c0-.28-.22-.5-.5-.5s-.5.22-.5.5v5c0,.28.22.5.5.5s.5-.22.5-.5v-5M411.79,286.72c0-.28-.22-.5-.5-.5s-.5.22-.5.5v5c0,.28.22.5.5.5s.5-.22.5-.5v-5M411.79,296.72c0-.28-.22-.5-.5-.5s-.5.22-.5.5v5c0,.28.22.5.5.5s.5-.22.5-.5v-5M411.79,306.72c0-.28-.22-.5-.5-.5s-.5.22-.5.5v5c0,.28.22.5.5.5s.5-.22.5-.5v-5M411.79,316.72c0-.28-.22-.5-.5-.5s-.5.22-.5.5v5c0,.28.22.5.5.5s.5-.22.5-.5v-5M411.79,326.72c0-.28-.22-.5-.5-.5s-.5.22-.5.5v5c0,.28.22.5.5.5s.5-.22.5-.5v-5M411.79,336.72c0-.28-.22-.5-.5-.5s-.5.22-.5.5v5c0,.28.22.5.5.5s.5-.22.5-.5v-5M411.79,346.72c0-.28-.22-.5-.5-.5s-.5.22-.5.5v5c0,.28.22.5.5.5s.5-.22.5-.5v-5M411.79,356.72c0-.28-.22-.5-.5-.5s-.5.22-.5.5v5c0,.28.22.5.5.5s.5-.22.5-.5v-5M411.79,366.72c0-.28-.22-.5-.5-.5s-.5.22-.5.5v5c0,.28.22.5.5.5s.5-.22.5-.5v-5M411.79,376.72c0-.28-.22-.5-.5-.5s-.5.22-.5.5v5c0,.28.22.5.5.5s.5-.22.5-.5v-5M411.79,386.72c0-.28-.22-.5-.5-.5s-.5.22-.5.5v5c0,.28.22.5.5.5s.5-.22.5-.5v-5M411.79,396.72c0-.28-.22-.5-.5-.5s-.5.22-.5.5v5c0,.28.22.5.5.5s.5-.22.5-.5v-5M411.79,406.72c0-.28-.22-.5-.5-.5s-.5.22-.5.5v5c0,.28.22.5.5.5s.5-.22.5-.5v-5M411.79,416.72c0-.28-.22-.5-.5-.5s-.5.22-.5.5v5c0,.28.22.5.5.5s.5-.22.5-.5v-5M411.79,426.72c0-.28-.22-.5-.5-.5s-.5.22-.5.5v5c0,.28.22.5.5.5s.5-.22.5-.5v-5M411.79,436.72c0-.28-.22-.5-.5-.5s-.5.22-.5.5v5c0,.28.22.5.5.5s.5-.22.5-.5v-5M411.79,446.72c0-.28-.22-.5-.5-.5s-.5.22-.5.5v5c0,.28.22.5.5.5s.5-.22.5-.5v-5M411.79,456.72c0-.28-.22-.5-.5-.5s-.5.22-.5.5v5c0,.28.22.5.5.5s.5-.22.5-.5v-5M411.79,466.72c0-.28-.22-.5-.5-.5s-.5.22-.5.5v5c0,.28.22.5.5.5s.5-.22.5-.5v-5M411.79,476.72c0-.28-.22-.5-.5-.5s-.5.22-.5.5v5c0,.28.22.5.5.5s.5-.22.5-.5v-5M411.79,486.72c0-.28-.22-.5-.5-.5s-.5.22-.5.5v5c0,.28.22.5.5.5s.5-.22.5-.5v-5"/><path class="cls-20" d="M456.81,126.72c0-.28-.22-.5-.5-.5s-.5.22-.5.5v5c0,.28.22.5.5.5s.5-.22.5-.5v-5M456.81,136.72c0-.28-.22-.5-.5-.5s-.5.22-.5.5v5c0,.28.22.5.5.5s.5-.22.5-.5v-5M456.81,146.72c0-.28-.22-.5-.5-.5s-.5.22-.5.5v5c0,.28.22.5.5.5s.5-.22.5-.5v-5M456.81,156.72c0-.28-.22-.5-.5-.5s-.5.22-.5.5v5c0,.28.22.5.5.5s.5-.22.5-.5v-5M456.81,166.72c0-.28-.22-.5-.5-.5s-.5.22-.5.5v5c0,.28.22.5.5.5s.5-.22.5-.5v-5M456.81,176.72c0-.28-.22-.5-.5-.5s-.5.22-.5.5v5c0,.28.22.5.5.5s.5-.22.5-.5v-5M456.81,186.72c0-.28-.22-.5-.5-.5s-.5.22-.5.5v5c0,.28.22.5.5.5s.5-.22.5-.5v-5M456.81,196.72c0-.28-.22-.5-.5-.5s-.5.22-.5.5v5c0,.28.22.5.5.5s.5-.22.5-.5v-5M456.81,206.72c0-.28-.22-.5-.5-.5s-.5.22-.5.5v5c0,.28.22.5.5.5s.5-.22.5-.5v-5M456.81,216.72c0-.28-.22-.5-.5-.5s-.5.22-.5.5v5c0,.28.22.5.5.5s.5-.22.5-.5v-5M456.81,226.72c0-.28-.22-.5-.5-.5s-.5.22-.5.5v5c0,.28.22.5.5.5s.5-.22.5-.5v-5M456.81,236.72c0-.28-.22-.5-.5-.5s-.5.22-.5.5v5c0,.28.22.5.5.5s.5-.22.5-.5v-5M456.81,246.72c0-.28-.22-.5-.5-.5s-.5.22-.5.5v5c0,.28.22.5.5.5s.5-.22.5-.5v-5M456.81,256.72c0-.28-.22-.5-.5-.5s-.5.22-.5.5v5c0,.28.22.5.5.5s.5-.22.5-.5v-5M456.81,266.72c0-.28-.22-.5-.5-.5s-.5.22-.5.5v5c0,.28.22.5.5.5s.5-.22.5-.5v-5M456.81,276.72c0-.28-.22-.5-.5-.5s-.5.22-.5.5v5c0,.28.22.5.5.5s.5-.22.5-.5v-5M456.81,286.72c0-.28-.22-.5-.5-.5s-.5.22-.5.5v5c0,.28.22.5.5.5s.5-.22.5-.5v-5M456.81,296.72c0-.28-.22-.5-.5-.5s-.5.22-.5.5v5c0,.28.22.5.5.5s.5-.22.5-.5v-5M456.81,306.72c0-.28-.22-.5-.5-.5s-.5.22-.5.5v5c0,.28.22.5.5.5s.5-.22.5-.5v-5M456.81,316.72c0-.28-.22-.5-.5-.5s-.5.22-.5.5v5c0,.28.22.5.5.5s.5-.22.5-.5v-5M456.81,326.72c0-.28-.22-.5-.5-.5s-.5.22-.5.5v5c0,.28.22.5.5.5s.5-.22.5-.5v-5M456.81,336.72c0-.28-.22-.5-.5-.5s-.5.22-.5.5v5c0,.28.22.5.5.5s.5-.22.5-.5v-5M456.81,346.72c0-.28-.22-.5-.5-.5s-.5.22-.5.5v5c0,.28.22.5.5.5s.5-.22.5-.5v-5M456.81,356.72c0-.28-.22-.5-.5-.5s-.5.22-.5.5v5c0,.28.22.5.5.5s.5-.22.5-.5v-5M456.81,366.72c0-.28-.22-.5-.5-.5s-.5.22-.5.5v5c0,.28.22.5.5.5s.5-.22.5-.5v-5M456.81,376.72c0-.28-.22-.5-.5-.5s-.5.22-.5.5v5c0,.28.22.5.5.5s.5-.22.5-.5v-5M456.81,386.72c0-.28-.22-.5-.5-.5s-.5.22-.5.5v5c0,.28.22.5.5.5s.5-.22.5-.5v-5M456.81,396.72c0-.28-.22-.5-.5-.5s-.5.22-.5.5v5c0,.28.22.5.5.5s.5-.22.5-.5v-5M456.81,406.72c0-.28-.22-.5-.5-.5s-.5.22-.5.5v5c0,.28.22.5.5.5s.5-.22.5-.5v-5M456.81,416.72c0-.28-.22-.5-.5-.5s-.5.22-.5.5v5c0,.28.22.5.5.5s.5-.22.5-.5v-5M456.81,426.72c0-.28-.22-.5-.5-.5s-.5.22-.5.5v5c0,.28.22.5.5.5s.5-.22.5-.5v-5M456.81,436.72c0-.28-.22-.5-.5-.5s-.5.22-.5.5v5c0,.28.22.5.5.5s.5-.22.5-.5v-5M456.81,446.72c0-.28-.22-.5-.5-.5s-.5.22-.5.5v5c0,.28.22.5.5.5s.5-.22.5-.5v-5M456.81,456.72c0-.28-.22-.5-.5-.5s-.5.22-.5.5v5c0,.28.22.5.5.5s.5-.22.5-.5v-5M456.81,466.72c0-.28-.22-.5-.5-.5s-.5.22-.5.5v5c0,.28.22.5.5.5s.5-.22.5-.5v-5M456.81,476.72c0-.28-.22-.5-.5-.5s-.5.22-.5.5v5c0,.28.22.5.5.5s.5-.22.5-.5v-5M456.81,486.72c0-.28-.22-.5-.5-.5s-.5.22-.5.5v5c0,.28.22.5.5.5s.5-.22.5-.5v-5"/><path class="cls-20" d="M501.84,126.72c0-.28-.22-.5-.5-.5s-.5.22-.5.5v5c0,.28.22.5.5.5s.5-.22.5-.5v-5M501.84,136.72c0-.28-.22-.5-.5-.5s-.5.22-.5.5v5c0,.28.22.5.5.5s.5-.22.5-.5v-5M501.84,146.72c0-.28-.22-.5-.5-.5s-.5.22-.5.5v5c0,.28.22.5.5.5s.5-.22.5-.5v-5M501.84,156.72c0-.28-.22-.5-.5-.5s-.5.22-.5.5v5c0,.28.22.5.5.5s.5-.22.5-.5v-5M501.84,166.72c0-.28-.22-.5-.5-.5s-.5.22-.5.5v5c0,.28.22.5.5.5s.5-.22.5-.5v-5M501.84,176.72c0-.28-.22-.5-.5-.5s-.5.22-.5.5v5c0,.28.22.5.5.5s.5-.22.5-.5v-5M501.84,186.72c0-.28-.22-.5-.5-.5s-.5.22-.5.5v5c0,.28.22.5.5.5s.5-.22.5-.5v-5M501.84,196.72c0-.28-.22-.5-.5-.5s-.5.22-.5.5v5c0,.28.22.5.5.5s.5-.22.5-.5v-5M501.84,206.72c0-.28-.22-.5-.5-.5s-.5.22-.5.5v5c0,.28.22.5.5.5s.5-.22.5-.5v-5M501.84,216.72c0-.28-.22-.5-.5-.5s-.5.22-.5.5v5c0,.28.22.5.5.5s.5-.22.5-.5v-5M501.84,226.72c0-.28-.22-.5-.5-.5s-.5.22-.5.5v5c0,.28.22.5.5.5s.5-.22.5-.5v-5M501.84,236.72c0-.28-.22-.5-.5-.5s-.5.22-.5.5v5c0,.28.22.5.5.5s.5-.22.5-.5v-5M501.84,246.72c0-.28-.22-.5-.5-.5s-.5.22-.5.5v5c0,.28.22.5.5.5s.5-.22.5-.5v-5M501.84,256.72c0-.28-.22-.5-.5-.5s-.5.22-.5.5v5c0,.28.22.5.5.5s.5-.22.5-.5v-5M501.84,266.72c0-.28-.22-.5-.5-.5s-.5.22-.5.5v5c0,.28.22.5.5.5s.5-.22.5-.5v-5M501.84,276.72c0-.28-.22-.5-.5-.5s-.5.22-.5.5v5c0,.28.22.5.5.5s.5-.22.5-.5v-5M501.84,286.72c0-.28-.22-.5-.5-.5s-.5.22-.5.5v5c0,.28.22.5.5.5s.5-.22.5-.5v-5M501.84,296.72c0-.28-.22-.5-.5-.5s-.5.22-.5.5v5c0,.28.22.5.5.5s.5-.22.5-.5v-5M501.84,306.72c0-.28-.22-.5-.5-.5s-.5.22-.5.5v5c0,.28.22.5.5.5s.5-.22.5-.5v-5M501.84,316.72c0-.28-.22-.5-.5-.5s-.5.22-.5.5v5c0,.28.22.5.5.5s.5-.22.5-.5v-5M501.84,326.72c0-.28-.22-.5-.5-.5s-.5.22-.5.5v5c0,.28.22.5.5.5s.5-.22.5-.5v-5M501.84,336.72c0-.28-.22-.5-.5-.5s-.5.22-.5.5v5c0,.28.22.5.5.5s.5-.22.5-.5v-5M501.84,346.72c0-.28-.22-.5-.5-.5s-.5.22-.5.5v5c0,.28.22.5.5.5s.5-.22.5-.5v-5M501.84,356.72c0-.28-.22-.5-.5-.5s-.5.22-.5.5v5c0,.28.22.5.5.5s.5-.22.5-.5v-5M501.84,366.72c0-.28-.22-.5-.5-.5s-.5.22-.5.5v5c0,.28.22.5.5.5s.5-.22.5-.5v-5M501.84,376.72c0-.28-.22-.5-.5-.5s-.5.22-.5.5v5c0,.28.22.5.5.5s.5-.22.5-.5v-5M501.84,386.72c0-.28-.22-.5-.5-.5s-.5.22-.5.5v5c0,.28.22.5.5.5s.5-.22.5-.5v-5M501.84,396.72c0-.28-.22-.5-.5-.5s-.5.22-.5.5v5c0,.28.22.5.5.5s.5-.22.5-.5v-5M501.84,406.72c0-.28-.22-.5-.5-.5s-.5.22-.5.5v5c0,.28.22.5.5.5s.5-.22.5-.5v-5M501.84,416.72c0-.28-.22-.5-.5-.5s-.5.22-.5.5v5c0,.28.22.5.5.5s.5-.22.5-.5v-5M501.84,426.72c0-.28-.22-.5-.5-.5s-.5.22-.5.5v5c0,.28.22.5.5.5s.5-.22.5-.5v-5M501.84,436.72c0-.28-.22-.5-.5-.5s-.5.22-.5.5v5c0,.28.22.5.5.5s.5-.22.5-.5v-5M501.84,446.72c0-.28-.22-.5-.5-.5s-.5.22-.5.5v5c0,.28.22.5.5.5s.5-.22.5-.5v-5M501.84,456.72c0-.28-.22-.5-.5-.5s-.5.22-.5.5v5c0,.28.22.5.5.5s.5-.22.5-.5v-5M501.84,466.72c0-.28-.22-.5-.5-.5s-.5.22-.5.5v5c0,.28.22.5.5.5s.5-.22.5-.5v-5M501.84,476.72c0-.28-.22-.5-.5-.5s-.5.22-.5.5v5c0,.28.22.5.5.5s.5-.22.5-.5v-5M501.84,486.72c0-.28-.22-.5-.5-.5s-.5.22-.5.5v5c0,.28.22.5.5.5s.5-.22.5-.5v-5"/><path class="cls-20" d="M591.88,126.72c0-.28-.22-.5-.5-.5s-.5.22-.5.5v5c0,.28.22.5.5.5s.5-.22.5-.5v-5M591.88,136.72c0-.28-.22-.5-.5-.5s-.5.22-.5.5v5c0,.28.22.5.5.5s.5-.22.5-.5v-5M591.88,146.72c0-.28-.22-.5-.5-.5s-.5.22-.5.5v5c0,.28.22.5.5.5s.5-.22.5-.5v-5M591.88,156.72c0-.28-.22-.5-.5-.5s-.5.22-.5.5v5c0,.28.22.5.5.5s.5-.22.5-.5v-5M591.88,166.72c0-.28-.22-.5-.5-.5s-.5.22-.5.5v5c0,.28.22.5.5.5s.5-.22.5-.5v-5M591.88,176.72c0-.28-.22-.5-.5-.5s-.5.22-.5.5v5c0,.28.22.5.5.5s.5-.22.5-.5v-5M591.88,186.72c0-.28-.22-.5-.5-.5s-.5.22-.5.5v5c0,.28.22.5.5.5s.5-.22.5-.5v-5M591.88,196.72c0-.28-.22-.5-.5-.5s-.5.22-.5.5v5c0,.28.22.5.5.5s.5-.22.5-.5v-5M591.88,206.72c0-.28-.22-.5-.5-.5s-.5.22-.5.5v5c0,.28.22.5.5.5s.5-.22.5-.5v-5M591.88,216.72c0-.28-.22-.5-.5-.5s-.5.22-.5.5v5c0,.28.22.5.5.5s.5-.22.5-.5v-5M591.88,226.72c0-.28-.22-.5-.5-.5s-.5.22-.5.5v5c0,.28.22.5.5.5s.5-.22.5-.5v-5M591.88,236.72c0-.28-.22-.5-.5-.5s-.5.22-.5.5v5c0,.28.22.5.5.5s.5-.22.5-.5v-5M591.88,246.72c0-.28-.22-.5-.5-.5s-.5.22-.5.5v5c0,.28.22.5.5.5s.5-.22.5-.5v-5M591.88,256.72c0-.28-.22-.5-.5-.5s-.5.22-.5.5v5c0,.28.22.5.5.5s.5-.22.5-.5v-5M591.88,266.72c0-.28-.22-.5-.5-.5s-.5.22-.5.5v5c0,.28.22.5.5.5s.5-.22.5-.5v-5M591.88,276.72c0-.28-.22-.5-.5-.5s-.5.22-.5.5v5c0,.28.22.5.5.5s.5-.22.5-.5v-5M591.88,286.72c0-.28-.22-.5-.5-.5s-.5.22-.5.5v5c0,.28.22.5.5.5s.5-.22.5-.5v-5M591.88,296.72c0-.28-.22-.5-.5-.5s-.5.22-.5.5v5c0,.28.22.5.5.5s.5-.22.5-.5v-5M591.88,306.72c0-.28-.22-.5-.5-.5s-.5.22-.5.5v5c0,.28.22.5.5.5s.5-.22.5-.5v-5M591.88,316.72c0-.28-.22-.5-.5-.5s-.5.22-.5.5v5c0,.28.22.5.5.5s.5-.22.5-.5v-5M591.88,326.72c0-.28-.22-.5-.5-.5s-.5.22-.5.5v5c0,.28.22.5.5.5s.5-.22.5-.5v-5M591.88,336.72c0-.28-.22-.5-.5-.5s-.5.22-.5.5v5c0,.28.22.5.5.5s.5-.22.5-.5v-5M591.88,346.72c0-.28-.22-.5-.5-.5s-.5.22-.5.5v5c0,.28.22.5.5.5s.5-.22.5-.5v-5M591.88,356.72c0-.28-.22-.5-.5-.5s-.5.22-.5.5v5c0,.28.22.5.5.5s.5-.22.5-.5v-5M591.88,366.72c0-.28-.22-.5-.5-.5s-.5.22-.5.5v5c0,.28.22.5.5.5s.5-.22.5-.5v-5M591.88,376.72c0-.28-.22-.5-.5-.5s-.5.22-.5.5v5c0,.28.22.5.5.5s.5-.22.5-.5v-5M591.88,386.72c0-.28-.22-.5-.5-.5s-.5.22-.5.5v5c0,.28.22.5.5.5s.5-.22.5-.5v-5M591.88,396.72c0-.28-.22-.5-.5-.5s-.5.22-.5.5v5c0,.28.22.5.5.5s.5-.22.5-.5v-5M591.88,406.72c0-.28-.22-.5-.5-.5s-.5.22-.5.5v5c0,.28.22.5.5.5s.5-.22.5-.5v-5M591.88,416.72c0-.28-.22-.5-.5-.5s-.5.22-.5.5v5c0,.28.22.5.5.5s.5-.22.5-.5v-5M591.88,426.72c0-.28-.22-.5-.5-.5s-.5.22-.5.5v5c0,.28.22.5.5.5s.5-.22.5-.5v-5M591.88,436.72c0-.28-.22-.5-.5-.5s-.5.22-.5.5v5c0,.28.22.5.5.5s.5-.22.5-.5v-5M591.88,446.72c0-.28-.22-.5-.5-.5s-.5.22-.5.5v5c0,.28.22.5.5.5s.5-.22.5-.5v-5M591.88,456.72c0-.28-.22-.5-.5-.5s-.5.22-.5.5v5c0,.28.22.5.5.5s.5-.22.5-.5v-5M591.88,466.72c0-.28-.22-.5-.5-.5s-.5.22-.5.5v5c0,.28.22.5.5.5s.5-.22.5-.5v-5M591.88,476.72c0-.28-.22-.5-.5-.5s-.5.22-.5.5v5c0,.28.22.5.5.5s.5-.22.5-.5v-5M591.88,486.72c0-.28-.22-.5-.5-.5s-.5.22-.5.5v5c0,.28.22.5.5.5s.5-.22.5-.5v-5"/><path class="cls-8" d="M231.7,126.72c0-.28-.22-.5-.5-.5s-.5.22-.5.5v5c0,.28.22.5.5.5s.5-.22.5-.5v-5M231.7,136.72c0-.28-.22-.5-.5-.5s-.5.22-.5.5v5c0,.28.22.5.5.5s.5-.22.5-.5v-5M231.7,146.72c0-.28-.22-.5-.5-.5s-.5.22-.5.5v5c0,.28.22.5.5.5s.5-.22.5-.5v-5M231.7,156.72c0-.28-.22-.5-.5-.5s-.5.22-.5.5v5c0,.28.22.5.5.5s.5-.22.5-.5v-5M231.7,166.72c0-.28-.22-.5-.5-.5s-.5.22-.5.5v5c0,.28.22.5.5.5s.5-.22.5-.5v-5M231.7,176.72c0-.28-.22-.5-.5-.5s-.5.22-.5.5v5c0,.28.22.5.5.5s.5-.22.5-.5v-5M231.7,186.72c0-.28-.22-.5-.5-.5s-.5.22-.5.5v5c0,.28.22.5.5.5s.5-.22.5-.5v-5M231.7,196.72c0-.28-.22-.5-.5-.5s-.5.22-.5.5v5c0,.28.22.5.5.5s.5-.22.5-.5v-5M231.7,206.72c0-.28-.22-.5-.5-.5s-.5.22-.5.5v5c0,.28.22.5.5.5s.5-.22.5-.5v-5M231.7,216.72c0-.28-.22-.5-.5-.5s-.5.22-.5.5v5c0,.28.22.5.5.5s.5-.22.5-.5v-5M231.7,226.72c0-.28-.22-.5-.5-.5s-.5.22-.5.5v5c0,.28.22.5.5.5s.5-.22.5-.5v-5M231.7,236.72c0-.28-.22-.5-.5-.5s-.5.22-.5.5v5c0,.28.22.5.5.5s.5-.22.5-.5v-5M231.7,246.72c0-.28-.22-.5-.5-.5s-.5.22-.5.5v5c0,.28.22.5.5.5s.5-.22.5-.5v-5M231.7,256.72c0-.28-.22-.5-.5-.5s-.5.22-.5.5v5c0,.28.22.5.5.5s.5-.22.5-.5v-5M231.7,266.72c0-.28-.22-.5-.5-.5s-.5.22-.5.5v5c0,.28.22.5.5.5s.5-.22.5-.5v-5M231.7,276.72c0-.28-.22-.5-.5-.5s-.5.22-.5.5v5c0,.28.22.5.5.5s.5-.22.5-.5v-5M231.7,286.72c0-.28-.22-.5-.5-.5s-.5.22-.5.5v5c0,.28.22.5.5.5s.5-.22.5-.5v-5M231.7,296.72c0-.28-.22-.5-.5-.5s-.5.22-.5.5v5c0,.28.22.5.5.5s.5-.22.5-.5v-5M231.7,306.72c0-.28-.22-.5-.5-.5s-.5.22-.5.5v5c0,.28.22.5.5.5s.5-.22.5-.5v-5M231.7,316.72c0-.28-.22-.5-.5-.5s-.5.22-.5.5v5c0,.28.22.5.5.5s.5-.22.5-.5v-5M231.7,326.72c0-.28-.22-.5-.5-.5s-.5.22-.5.5v5c0,.28.22.5.5.5s.5-.22.5-.5v-5M231.7,336.72c0-.28-.22-.5-.5-.5s-.5.22-.5.5v5c0,.28.22.5.5.5s.5-.22.5-.5v-5M231.7,346.72c0-.28-.22-.5-.5-.5s-.5.22-.5.5v5c0,.28.22.5.5.5s.5-.22.5-.5v-5M231.7,356.72c0-.28-.22-.5-.5-.5s-.5.22-.5.5v5c0,.28.22.5.5.5s.5-.22.5-.5v-5M231.7,366.72c0-.28-.22-.5-.5-.5s-.5.22-.5.5v5c0,.28.22.5.5.5s.5-.22.5-.5v-5M231.7,376.72c0-.28-.22-.5-.5-.5s-.5.22-.5.5v5c0,.28.22.5.5.5s.5-.22.5-.5v-5M231.7,386.72c0-.28-.22-.5-.5-.5s-.5.22-.5.5v5c0,.28.22.5.5.5s.5-.22.5-.5v-5M231.7,396.72c0-.28-.22-.5-.5-.5s-.5.22-.5.5v5c0,.28.22.5.5.5s.5-.22.5-.5v-5M231.7,406.72c0-.28-.22-.5-.5-.5s-.5.22-.5.5v5c0,.28.22.5.5.5s.5-.22.5-.5v-5M231.7,416.72c0-.28-.22-.5-.5-.5s-.5.22-.5.5v5c0,.28.22.5.5.5s.5-.22.5-.5v-5M231.7,426.72c0-.28-.22-.5-.5-.5s-.5.22-.5.5v5c0,.28.22.5.5.5s.5-.22.5-.5v-5M231.7,436.72c0-.28-.22-.5-.5-.5s-.5.22-.5.5v5c0,.28.22.5.5.5s.5-.22.5-.5v-5M231.7,446.72c0-.28-.22-.5-.5-.5s-.5.22-.5.5v5c0,.28.22.5.5.5s.5-.22.5-.5v-5M231.7,456.72c0-.28-.22-.5-.5-.5s-.5.22-.5.5v5c0,.28.22.5.5.5s.5-.22.5-.5v-5M231.7,466.72c0-.28-.22-.5-.5-.5s-.5.22-.5.5v5c0,.28.22.5.5.5s.5-.22.5-.5v-5M231.7,476.72c0-.28-.22-.5-.5-.5s-.5.22-.5.5v5c0,.28.22.5.5.5s.5-.22.5-.5v-5M231.7,486.72c0-.28-.22-.5-.5-.5s-.5.22-.5.5v5c0,.28.22.5.5.5s.5-.22.5-.5v-5M231.7,496.72c0-.28-.22-.5-.5-.5s-.5.22-.5.5v5c0,.28.22.5.5.5s.5-.22.5-.5v-5M231.7,506.72c0-.28-.22-.5-.5-.5s-.5.22-.5.5v5c0,.28.22.5.5.5s.5-.22.5-.5v-5"/><path class="cls-8" d="M546.86,126.72c0-.28-.22-.5-.5-.5s-.5.22-.5.5v5c0,.28.22.5.5.5s.5-.22.5-.5v-5M546.86,136.72c0-.28-.22-.5-.5-.5s-.5.22-.5.5v5c0,.28.22.5.5.5s.5-.22.5-.5v-5M546.86,146.72c0-.28-.22-.5-.5-.5s-.5.22-.5.5v5c0,.28.22.5.5.5s.5-.22.5-.5v-5M546.86,156.72c0-.28-.22-.5-.5-.5s-.5.22-.5.5v5c0,.28.22.5.5.5s.5-.22.5-.5v-5M546.86,166.72c0-.28-.22-.5-.5-.5s-.5.22-.5.5v5c0,.28.22.5.5.5s.5-.22.5-.5v-5M546.86,176.72c0-.28-.22-.5-.5-.5s-.5.22-.5.5v5c0,.28.22.5.5.5s.5-.22.5-.5v-5M546.86,186.72c0-.28-.22-.5-.5-.5s-.5.22-.5.5v5c0,.28.22.5.5.5s.5-.22.5-.5v-5M546.86,196.72c0-.28-.22-.5-.5-.5s-.5.22-.5.5v5c0,.28.22.5.5.5s.5-.22.5-.5v-5M546.86,206.72c0-.28-.22-.5-.5-.5s-.5.22-.5.5v5c0,.28.22.5.5.5s.5-.22.5-.5v-5M546.86,216.72c0-.28-.22-.5-.5-.5s-.5.22-.5.5v5c0,.28.22.5.5.5s.5-.22.5-.5v-5M546.86,226.72c0-.28-.22-.5-.5-.5s-.5.22-.5.5v5c0,.28.22.5.5.5s.5-.22.5-.5v-5M546.86,236.72c0-.28-.22-.5-.5-.5s-.5.22-.5.5v5c0,.28.22.5.5.5s.5-.22.5-.5v-5M546.86,246.72c0-.28-.22-.5-.5-.5s-.5.22-.5.5v5c0,.28.22.5.5.5s.5-.22.5-.5v-5M546.86,256.72c0-.28-.22-.5-.5-.5s-.5.22-.5.5v5c0,.28.22.5.5.5s.5-.22.5-.5v-5M546.86,266.72c0-.28-.22-.5-.5-.5s-.5.22-.5.5v5c0,.28.22.5.5.5s.5-.22.5-.5v-5M546.86,276.72c0-.28-.22-.5-.5-.5s-.5.22-.5.5v5c0,.28.22.5.5.5s.5-.22.5-.5v-5M546.86,286.72c0-.28-.22-.5-.5-.5s-.5.22-.5.5v5c0,.28.22.5.5.5s.5-.22.5-.5v-5M546.86,296.72c0-.28-.22-.5-.5-.5s-.5.22-.5.5v5c0,.28.22.5.5.5s.5-.22.5-.5v-5M546.86,306.72c0-.28-.22-.5-.5-.5s-.5.22-.5.5v5c0,.28.22.5.5.5s.5-.22.5-.5v-5M546.86,316.72c0-.28-.22-.5-.5-.5s-.5.22-.5.5v5c0,.28.22.5.5.5s.5-.22.5-.5v-5M546.86,326.72c0-.28-.22-.5-.5-.5s-.5.22-.5.5v5c0,.28.22.5.5.5s.5-.22.5-.5v-5M546.86,336.72c0-.28-.22-.5-.5-.5s-.5.22-.5.5v5c0,.28.22.5.5.5s.5-.22.5-.5v-5M546.86,346.72c0-.28-.22-.5-.5-.5s-.5.22-.5.5v5c0,.28.22.5.5.5s.5-.22.5-.5v-5M546.86,356.72c0-.28-.22-.5-.5-.5s-.5.22-.5.5v5c0,.28.22.5.5.5s.5-.22.5-.5v-5M546.86,366.72c0-.28-.22-.5-.5-.5s-.5.22-.5.5v5c0,.28.22.5.5.5s.5-.22.5-.5v-5M546.86,376.72c0-.28-.22-.5-.5-.5s-.5.22-.5.5v5c0,.28.22.5.5.5s.5-.22.5-.5v-5M546.86,386.72c0-.28-.22-.5-.5-.5s-.5.22-.5.5v5c0,.28.22.5.5.5s.5-.22.5-.5v-5M546.86,396.72c0-.28-.22-.5-.5-.5s-.5.22-.5.5v5c0,.28.22.5.5.5s.5-.22.5-.5v-5M546.86,406.72c0-.28-.22-.5-.5-.5s-.5.22-.5.5v5c0,.28.22.5.5.5s.5-.22.5-.5v-5M546.86,416.72c0-.28-.22-.5-.5-.5s-.5.22-.5.5v5c0,.28.22.5.5.5s.5-.22.5-.5v-5M546.86,426.72c0-.28-.22-.5-.5-.5s-.5.22-.5.5v5c0,.28.22.5.5.5s.5-.22.5-.5v-5M546.86,436.72c0-.28-.22-.5-.5-.5s-.5.22-.5.5v5c0,.28.22.5.5.5s.5-.22.5-.5v-5M546.86,446.72c0-.28-.22-.5-.5-.5s-.5.22-.5.5v5c0,.28.22.5.5.5s.5-.22.5-.5v-5M546.86,456.72c0-.28-.22-.5-.5-.5s-.5.22-.5.5v5c0,.28.22.5.5.5s.5-.22.5-.5v-5M546.86,466.72c0-.28-.22-.5-.5-.5s-.5.22-.5.5v5c0,.28.22.5.5.5s.5-.22.5-.5v-5M546.86,476.72c0-.28-.22-.5-.5-.5s-.5.22-.5.5v5c0,.28.22.5.5.5s.5-.22.5-.5v-5M546.86,486.72c0-.28-.22-.5-.5-.5s-.5.22-.5.5v5c0,.28.22.5.5.5s.5-.22.5-.5v-5M546.86,496.72c0-.28-.22-.5-.5-.5s-.5.22-.5.5v5c0,.28.22.5.5.5s.5-.22.5-.5v-5M546.86,506.72c0-.28-.22-.5-.5-.5s-.5.22-.5.5v5c0,.28.22.5.5.5s.5-.22.5-.5v-5"/><g class="cls-16"><rect class="cls-3" x="121.78" y="259.94" width="114.72" height="23.31"/><text class="cls-19" transform="translate(127.41 276.3)"><tspan x="0" y="0">42</tspan></text><line class="cls-2" x1="236.5" y1="271.21" x2="149.2" y2="271.21"/><polygon points="151.2 269.51 149.5 271.21 151.2 272.9 149.76 272.9 148.06 271.21 149.76 269.51 151.2 269.51"/><rect class="cls-3" x="111.65" y="392.27" width="114.72" height="23.31"/><text class="cls-19" transform="translate(117.29 408.63)"><tspan x="0" y="0">42</tspan></text><line class="cls-2" x1="226.37" y1="403.54" x2="139.08" y2="403.54"/><polygon points="141.07 401.84 139.37 403.54 141.07 405.23 139.63 405.23 137.93 403.54 139.63 401.84 141.07 401.84"/><rect class="cls-3" x="98.85" y="312.68" width="114.72" height="23.31"/><text class="cls-19" transform="translate(101.59 329.03)"><tspan x="0" y="0">1457</tspan></text><line class="cls-2" x1="213.57" y1="323.95" x2="135.58" y2="323.95"/><polygon points="137.57 322.25 135.88 323.95 137.57 325.64 136.13 325.64 134.44 323.95 136.13 322.25 137.57 322.25"/><rect class="cls-3" x="234.81" y="312.68" width="210.88" height="23.31"/><text class="cls-19" transform="translate(237.55 329.03)"><tspan x="0" y="0">1457</tspan></text><line class="cls-2" x1="445.7" y1="323.95" x2="274.6" y2="323.95"/><polygon points="276.59 322.25 274.9 323.95 276.59 325.64 275.16 325.64 273.46 323.95 275.16 322.25 276.59 322.25"/><rect class="cls-3" x="282.89" y="259.94" width="160.5" height="23.31"/><text class="cls-19" transform="translate(288.49 276.3)"><tspan x="0" y="0">38</tspan></text><line class="cls-2" x1="443.39" y1="271.21" x2="314.04" y2="271.21"/><polygon points="316.03 269.51 314.33 271.21 316.03 272.9 314.59 272.9 312.89 271.21 314.59 269.51 316.03 269.51"/><rect class="cls-3" x="219.07" y="339.21" width="160.5" height="23.31"/><text class="cls-19" transform="translate(224.45 355.56)"><tspan x="0" y="0">40</tspan></text><line class="cls-2" x1="379.57" y1="350.48" x2="250.21" y2="350.48"/><polygon points="252.21 348.78 250.51 350.48 252.21 352.17 250.77 352.17 249.07 350.48 250.77 348.78 252.21 348.78"/><rect class="cls-3" x="145.08" y="365.74" width="160.5" height="23.31"/><text class="cls-19" transform="translate(152.28 382.09)"><tspan class="cls-7" x="0" y="0">4</tspan><tspan x="8.17" y="0">1</tspan></text><line class="cls-2" x1="305.57" y1="377.01" x2="176.22" y2="377.01"/><polygon points="178.21 375.31 176.51 377.01 178.21 378.7 176.77 378.7 175.08 377.01 176.77 375.31 178.21 375.31"/><rect class="cls-3" x="195.47" y="445.33" width="160.5" height="23.31"/><text class="cls-19" transform="translate(200.85 461.69)"><tspan x="0" y="0">40</tspan></text><line class="cls-2" x1="355.97" y1="456.6" x2="226.61" y2="456.6"/><polygon points="228.61 454.91 226.91 456.6 228.61 458.3 227.17 458.3 225.47 456.6 227.17 454.91 228.61 454.91"/><rect class="cls-3" x="279.04" y="418.8" width="114.72" height="23.31"/><text class="cls-19" transform="translate(284.64 435.16)"><tspan x="0" y="0">38</tspan></text><line class="cls-2" x1="393.76" y1="430.07" x2="306.47" y2="430.07"/><polygon points="308.46 428.38 306.76 430.07 308.46 431.77 307.02 431.77 305.33 430.07 307.02 428.38 308.46 428.38"/><rect class="cls-3" x="105.06" y="153.88" width="114.72" height="23.31"/><line class="cls-2" x1="219.78" y1="165.15" x2="132.49" y2="165.15"/><polygon points="134.48 163.45 132.78 165.15 134.48 166.84 133.04 166.84 131.34 165.15 133.04 163.45 134.48 163.45"/><text class="cls-19" transform="translate(110.7 170.23)"><tspan x="0" y="0">42</tspan></text><rect class="cls-3" x="145.91" y="126.96" width="63.79" height="23.31"/><line class="cls-2" x1="209.7" y1="138.23" x2="171.12" y2="138.23"/><polygon points="173.11 136.53 171.42 138.23 173.11 139.92 171.67 139.92 169.98 138.23 171.67 136.53 173.11 136.53"/><text class="cls-19" transform="translate(153.11 143.32)"><tspan class="cls-7" x="0" y="0">4</tspan><tspan x="8.17" y="0">1</tspan></text><rect class="cls-3" x="237.58" y="126.96" width="123.08" height="23.31"/><line class="cls-2" x1="360.66" y1="138.23" x2="267.31" y2="138.23"/><polygon points="269.3 136.53 267.6 138.23 269.3 139.92 267.86 139.92 266.17 138.23 267.86 136.53 269.3 136.53"/><text class="cls-19" transform="translate(243.54 143.32)"><tspan x="0" y="0">39</tspan></text><rect class="cls-3" x="197.86" y="180.29" width="132.68" height="23.31"/><line class="cls-2" x1="330.54" y1="191.56" x2="249.07" y2="191.56"/><polygon points="251.06 189.87 249.37 191.56 251.06 193.26 249.62 193.26 247.93 191.56 249.62 189.87 251.06 189.87"/><text class="cls-19" transform="translate(203.23 196.65)"><tspan x="0" y="0">40</tspan></text><rect class="cls-3" x="190.57" y="206.93" width="114.72" height="23.31"/><line class="cls-2" x1="305.29" y1="218.2" x2="218" y2="218.2"/><polygon points="219.99 216.5 218.29 218.2 219.99 219.89 218.55 219.89 216.85 218.2 218.55 216.5 219.99 216.5"/><text class="cls-19" transform="translate(195.94 223.29)"><tspan x="0" y="0">40</tspan></text><rect class="cls-3" x="236.5" y="233.32" width="114.72" height="23.31"/><line class="cls-2" x1="351.22" y1="244.59" x2="263.92" y2="244.59"/><polygon points="265.92 242.89 264.22 244.59 265.92 246.28 264.48 246.28 262.78 244.59 264.48 242.89 265.92 242.89"/><text class="cls-19" transform="translate(242.46 249.68)"><tspan x="0" y="0">39</tspan></text><rect class="cls-3" x="143.87" y="286.57" width="114.72" height="23.31"/><line class="cls-2" x1="258.58" y1="297.84" x2="171.29" y2="297.84"/><polygon points="173.28 296.15 171.59 297.84 173.28 299.54 171.84 299.54 170.15 297.84 171.84 296.15 173.28 296.15"/><text class="cls-19" transform="translate(151.07 302.93)"><tspan class="cls-7" x="0" y="0">4</tspan><tspan x="8.17" y="0">1</tspan></text><rect class="cls-3" x="96.1" y="180.29" width="65.87" height="23.31"/><line class="cls-2" x1="161.97" y1="191.56" x2="99.99" y2="191.56"/><polygon points="101.98 189.87 100.29 191.56 101.98 193.26 100.54 193.26 98.85 191.56 100.54 189.87 101.98 189.87"/><rect class="cls-3" x="96.1" y="206.93" width="81.69" height="23.31"/><line class="cls-2" x1="177.79" y1="218.2" x2="96.1" y2="218.2"/><rect class="cls-3" x="279.04" y="153.88" width="80.76" height="23.31"/><line class="cls-2" x1="359.8" y1="165.15" x2="306.47" y2="165.15"/><polygon points="308.46 163.45 306.76 165.15 308.46 166.84 307.02 166.84 305.33 165.15 307.02 163.45 308.46 163.45"/><text class="cls-19" transform="translate(284.64 170.23)"><tspan x="0" y="0">38</tspan></text><rect class="cls-3" x="325.95" y="206.93" width="114.72" height="23.31"/><line class="cls-2" x1="440.67" y1="218.2" x2="353.37" y2="218.2"/><polygon points="355.36 216.5 353.67 218.2 355.36 219.89 353.93 219.89 352.23 218.2 353.93 216.5 355.36 216.5"/><text class="cls-19" transform="translate(331.98 223.29)"><tspan x="0" y="0">37</tspan></text><rect class="cls-3" x="373.87" y="233.32" width="99.67" height="23.31"/><line class="cls-2" x1="473.53" y1="244.59" x2="401.38" y2="244.59"/><polygon points="403.37 242.89 401.68 244.59 403.37 246.28 401.93 246.28 400.24 244.59 401.93 242.89 403.37 242.89"/><text class="cls-19" transform="translate(379.83 249.68)"><tspan x="0" y="0">36</tspan></text><rect class="cls-3" x="293.86" y="286.57" width="114.72" height="23.31"/><line class="cls-2" x1="408.58" y1="297.84" x2="321.28" y2="297.84"/><polygon points="323.28 296.15 321.58 297.84 323.28 299.54 321.84 299.54 320.14 297.84 321.84 296.15 323.28 296.15"/><text class="cls-19" transform="translate(299.45 302.93)"><tspan x="0" y="0">38</tspan></text><rect class="cls-3" x="324.07" y="365.74" width="63.79" height="23.31"/><line class="cls-2" x1="387.86" y1="377.01" x2="349.29" y2="377.01"/><polygon points="351.28 375.31 349.58 377.01 351.28 378.7 349.84 378.7 348.14 377.01 349.84 375.31 351.28 375.31"/><text class="cls-19" transform="translate(330.11 382.09)"><tspan x="0" y="0">37</tspan></text><rect class="cls-3" x="189.21" y="471.86" width="63.79" height="23.31"/><line class="cls-2" x1="253" y1="483.13" x2="214.43" y2="483.13"/><polygon points="216.42 481.44 214.72 483.13 216.42 484.83 214.98 484.83 213.28 483.13 214.98 481.44 216.42 481.44"/><text class="cls-19" transform="translate(194.59 488.22)"><tspan x="0" y="0">40</tspan></text><rect class="cls-3" x="296.01" y="471.86" width="63.79" height="23.31"/><line class="cls-2" x1="359.8" y1="483.13" x2="321.23" y2="483.13"/><polygon points="323.22 481.44 321.52 483.13 323.22 484.83 321.78 484.83 320.08 483.13 321.78 481.44 323.22 481.44"/><text class="cls-19" transform="translate(301.6 488.22)"><tspan x="0" y="0">38</tspan></text><rect class="cls-3" x="190.57" y="418.8" width="63.79" height="23.31"/><line class="cls-2" x1="254.36" y1="430.07" x2="215.79" y2="430.07"/><polygon points="217.78 428.38 216.08 430.07 217.78 431.77 216.34 431.77 214.64 430.07 216.34 428.38 217.78 428.38"/><text class="cls-19" transform="translate(195.94 435.16)"><tspan x="0" y="0">40</tspan></text><rect class="cls-3" x="235.46" y="392.27" width="114.72" height="23.31"/><line class="cls-2" x1="350.18" y1="403.54" x2="262.89" y2="403.54"/><polygon points="264.88 401.84 263.18 403.54 264.88 405.23 263.44 405.23 261.74 403.54 263.44 401.84 264.88 401.84"/><text class="cls-19" transform="translate(241.42 408.63)"><tspan x="0" y="0">39</tspan></text><rect class="cls-3" x="397.66" y="392.27" width="63.79" height="23.31"/><line class="cls-2" x1="461.45" y1="403.54" x2="422.88" y2="403.54"/><polygon points="424.87 401.84 423.18 403.54 424.87 405.23 423.43 405.23 421.74 403.54 423.43 401.84 424.87 401.84"/><text class="cls-19" transform="translate(403.63 408.63)"><tspan x="0" y="0">36</tspan></text><g class="cls-26"><rect class="cls-3" x="64.42" y="339.21" width="114.72" height="23.31"/><line class="cls-2" x1="179.14" y1="350.48" x2="91.84" y2="350.48"/><polygon points="93.84 348.78 92.14 350.48 93.84 352.17 92.4 352.17 90.7 350.48 92.4 348.78 93.84 348.78"/><rect class="cls-3" x="19.72" y="365.74" width="114.72" height="23.31"/><line class="cls-2" x1="134.44" y1="377.01" x2="47.15" y2="377.01"/><polygon points="49.14 375.31 47.44 377.01 49.14 378.7 47.7 378.7 46 377.01 47.7 375.31 49.14 375.31"/><rect class="cls-3" x="63.07" y="418.8" width="114.72" height="23.31"/><line class="cls-2" x1="177.79" y1="430.07" x2="90.5" y2="430.07"/><polygon points="92.49 428.38 90.79 430.07 92.49 431.77 91.05 431.77 89.35 430.07 91.05 428.38 92.49 428.38"/><rect class="cls-3" x="36.64" y="471.86" width="114.72" height="23.31"/><line class="cls-2" x1="151.36" y1="483.13" x2="64.06" y2="483.13"/><polygon points="66.06 481.44 64.36 483.13 66.06 484.83 64.62 484.83 62.92 483.13 64.62 481.44 66.06 481.44"/><use width="173.22" height="24.31" transform="translate(346.69 179.79)" xlink:href="#Kernel_Execution"/><use width="173.22" height="24.31" transform="translate(346.02 126.46)" xlink:href="#Kernel_Execution"/><use width="173.22" height="24.31" transform="translate(358.94 153.38)" xlink:href="#Kernel_Execution"/><use width="173.22" height="24.31" transform="translate(443.39 206.43)" xlink:href="#Kernel_Execution"/><use width="173.22" height="24.31" transform="translate(395.08 286.07)" xlink:href="#Kernel_Execution"/><use width="173.22" height="24.31" transform="translate(418.97 338.71)" xlink:href="#Kernel_Execution"/><use width="173.22" height="24.31" transform="translate(394.76 365.24)" xlink:href="#Kernel_Execution"/><use width="173.22" height="24.31" transform="translate(427.48 418.3)" xlink:href="#Kernel_Execution"/><use width="173.22" height="24.31" transform="translate(350.27 444.83)" xlink:href="#Kernel_Execution"/><use width="173.22" height="24.31" transform="translate(356.72 471.36)" xlink:href="#Kernel_Execution"/><rect class="cls-3" x="96.1" y="233.32" width="108.42" height="23.31"/><line class="cls-2" x1="204.52" y1="244.59" x2="105.29" y2="244.59"/><polygon points="107.28 242.89 105.58 244.59 107.28 246.28 105.84 246.28 104.14 244.59 105.84 242.89 107.28 242.89"/><text class="cls-19" transform="translate(87.39 250.38)"><tspan x="0" y="0">43</tspan></text><rect class="cls-3" x="69.9" y="286.57" width="65.87" height="23.31"/><line class="cls-2" x1="135.77" y1="297.84" x2="73.79" y2="297.84"/><polygon points="75.78 296.15 74.09 297.84 75.78 299.54 74.34 299.54 72.65 297.84 74.34 296.15 75.78 296.15"/><rect class="cls-3" x="33.89" y="259.94" width="65.87" height="23.31"/><line class="cls-2" x1="99.76" y1="271.21" x2="37.78" y2="271.21"/><polygon points="39.77 269.51 38.08 271.21 39.77 272.9 38.33 272.9 36.64 271.21 38.33 269.51 39.77 269.51"/><rect class="cls-3" x="84.18" y="445.33" width="63.79" height="23.31"/><line class="cls-2" x1="147.97" y1="456.6" x2="109.4" y2="456.6"/><polygon points="111.39 454.91 109.7 456.6 111.39 458.3 109.95 458.3 108.26 456.6 109.95 454.91 111.39 454.91"/><text class="cls-19" transform="translate(89.73 461.69)"><tspan x="0" y="0">43</tspan></text></g></g><path class="cls-20" d="M673.07,152.84c.28,0,.5-.22.5-.5s-.22-.5-.5-.5H66.82c-.28,0-.5.22-.5.5s.22.5.5.5h606.24"/><path class="cls-20" d="M673.07,179.32c.28,0,.5-.22.5-.5s-.22-.5-.5-.5H66.82c-.28,0-.5.22-.5.5s.22.5.5.5h606.24"/><path class="cls-20" d="M673.07,205.8c.28,0,.5-.22.5-.5s-.22-.5-.5-.5H66.82c-.28,0-.5.22-.5.5s.22.5.5.5h606.24"/><path class="cls-20" d="M673.07,232.28c.28,0,.5-.22.5-.5s-.22-.5-.5-.5H66.82c-.28,0-.5.22-.5.5s.22.5.5.5h606.24"/><path class="cls-20" d="M673.07,258.77c.28,0,.5-.22.5-.5s-.22-.5-.5-.5H66.82c-.28,0-.5.22-.5.5s.22.5.5.5h606.24"/><path class="cls-20" d="M673.07,285.25c.28,0,.5-.22.5-.5s-.22-.5-.5-.5H66.82c-.28,0-.5.22-.5.5s.22.5.5.5h606.24"/><path class="cls-20" d="M673.07,311.73c.28,0,.5-.22.5-.5s-.22-.5-.5-.5H66.82c-.28,0-.5.22-.5.5s.22.5.5.5h606.24"/><path class="cls-20" d="M673.07,338.21c.28,0,.5-.22.5-.5s-.22-.5-.5-.5H66.82c-.28,0-.5.22-.5.5s.22.5.5.5h606.24"/><path class="cls-20" d="M673.07,364.69c.28,0,.5-.22.5-.5s-.22-.5-.5-.5H66.82c-.28,0-.5.22-.5.5s.22.5.5.5h606.24"/><path class="cls-20" d="M673.07,391.17c.28,0,.5-.22.5-.5s-.22-.5-.5-.5H66.82c-.28,0-.5.22-.5.5s.22.5.5.5h606.24"/><path class="cls-20" d="M673.07,417.66c.28,0,.5-.22.5-.5s-.22-.5-.5-.5H66.82c-.28,0-.5.22-.5.5s.22.5.5.5h606.24"/><path class="cls-20" d="M673.07,444.14c.28,0,.5-.22.5-.5s-.22-.5-.5-.5H66.82c-.28,0-.5.22-.5.5s.22.5.5.5h606.24"/><path class="cls-20" d="M673.07,470.62c.28,0,.5-.22.5-.5s-.22-.5-.5-.5H66.82c-.28,0-.5.22-.5.5s.22.5.5.5h606.24"/><text class="cls-23" transform="translate(58.15 142.58)"><tspan x="0" y="0">N</tspan><tspan class="cls-24" x="5.6" y="0">e</tspan><tspan x="9.79" y="0">u</tspan><tspan class="cls-13" x="14.24" y="0">r</tspan><tspan x="17.58" y="0">on 0</tspan></text><text class="cls-23" transform="translate(59.9 169.11)"><tspan x="0" y="0">N</tspan><tspan class="cls-24" x="5.6" y="0">e</tspan><tspan x="9.79" y="0">u</tspan><tspan class="cls-13" x="14.24" y="0">r</tspan><tspan x="17.58" y="0">on 1</tspan></text><text class="cls-23" transform="translate(58.43 195.64)"><tspan x="0" y="0">N</tspan><tspan class="cls-24" x="5.6" y="0">e</tspan><tspan x="9.79" y="0">u</tspan><tspan class="cls-13" x="14.24" y="0">r</tspan><tspan x="17.58" y="0">on 2</tspan></text><text class="cls-23" transform="translate(58.33 222.18)"><tspan x="0" y="0">N</tspan><tspan class="cls-24" x="5.6" y="0">e</tspan><tspan x="9.79" y="0">u</tspan><tspan class="cls-13" x="14.24" y="0">r</tspan><tspan x="17.58" y="0">on 3</tspan></text><text class="cls-23" transform="translate(58.01 248.71)"><tspan x="0" y="0">N</tspan><tspan class="cls-24" x="5.6" y="0">e</tspan><tspan x="9.79" y="0">u</tspan><tspan class="cls-13" x="14.24" y="0">r</tspan><tspan x="17.58" y="0">on 4</tspan></text><text class="cls-23" transform="translate(58.21 275.24)"><tspan x="0" y="0">N</tspan><tspan class="cls-24" x="5.6" y="0">e</tspan><tspan x="9.79" y="0">u</tspan><tspan class="cls-13" x="14.24" y="0">r</tspan><tspan x="17.58" y="0">on 5</tspan></text><text class="cls-23" transform="translate(58.46 301.77)"><tspan x="0" y="0">N</tspan><tspan class="cls-24" x="5.6" y="0">e</tspan><tspan x="9.79" y="0">u</tspan><tspan class="cls-13" x="14.24" y="0">r</tspan><tspan x="17.58" y="0">on 6</tspan></text><text class="cls-23" transform="translate(58.53 328.3)"><tspan x="0" y="0">N</tspan><tspan class="cls-24" x="5.6" y="0">e</tspan><tspan x="9.79" y="0">u</tspan><tspan class="cls-13" x="14.24" y="0">r</tspan><tspan x="17.58" y="0">on 7</tspan></text><text class="cls-23" transform="translate(58.06 354.83)"><tspan x="0" y="0">N</tspan><tspan class="cls-24" x="5.6" y="0">e</tspan><tspan x="9.79" y="0">u</tspan><tspan class="cls-13" x="14.24" y="0">r</tspan><tspan x="17.58" y="0">on 8</tspan></text><text class="cls-23" transform="translate(58.46 381.36)"><tspan x="0" y="0">N</tspan><tspan class="cls-24" x="5.6" y="0">e</tspan><tspan x="9.79" y="0">u</tspan><tspan class="cls-13" x="14.24" y="0">r</tspan><tspan x="17.58" y="0">on 9</tspan></text><text class="cls-23" transform="translate(55.49 407.89)"><tspan x="0" y="0">N</tspan><tspan class="cls-24" x="5.6" y="0">e</tspan><tspan x="9.79" y="0">u</tspan><tspan class="cls-13" x="14.24" y="0">r</tspan><tspan x="17.58" y="0">on 10</tspan></text><text class="cls-23" transform="translate(57.24 434.42)"><tspan x="0" y="0">N</tspan><tspan class="cls-24" x="5.6" y="0">e</tspan><tspan x="9.79" y="0">u</tspan><tspan class="cls-13" x="14.24" y="0">r</tspan><tspan x="17.58" y="0">on 11</tspan></text><text class="cls-23" transform="translate(55.77 460.95)"><tspan x="0" y="0">N</tspan><tspan class="cls-24" x="5.6" y="0">e</tspan><tspan x="9.79" y="0">u</tspan><tspan class="cls-13" x="14.24" y="0">r</tspan><tspan x="17.58" y="0">on 12</tspan></text><text class="cls-23" transform="translate(55.67 487.49)"><tspan x="0" y="0">N</tspan><tspan class="cls-24" x="5.6" y="0">e</tspan><tspan x="9.79" y="0">u</tspan><tspan class="cls-13" x="14.24" y="0">r</tspan><tspan x="17.58" y="0">on 13</tspan></text><text class="cls-18" transform="translate(178.21 38.05)"><tspan class="cls-22" x="0" y="0">T</tspan><tspan x="6.42" y="0">emporal Fragment Shading Th</tspan><tspan class="cls-13" x="208.98" y="0">r</tspan><tspan class="cls-24" x="215.24" y="0">o</tspan><tspan class="cls-17" x="223.23" y="0">ugh Chaotic </tspan><tspan class="cls-13" x="306.04" y="0">K</tspan><tspan x="315.51" y="0">ernel E</tspan><tspan class="cls-21" x="363.71" y="0">x</tspan><tspan x="371.25" y="0">e</tspan><tspan class="cls-15" x="379.29" y="0">c</tspan><tspan class="cls-25" x="386.58" y="0">ution</tspan></text><line class="cls-4" x1="478.32" y1="116.92" x2="478.32" y2="496.1"/><polygon points="467.32 111.42 489.32 111.42 478.32 122.42 467.32 111.42"/><text class="cls-11" transform="translate(467.73 107.18) scale(.94 1)"><tspan x="0" y="0">now</tspan></text><path d="M673.07,496.1H98.63V126.72c0-.83-.67-1.5-1.5-1.5s-1.5.67-1.5,1.5v370.88c0,.55.29,1.02.73,1.28.21.14.46.22.74.22h575.97c.83,0,1.5-.67,1.5-1.5s-.67-1.5-1.5-1.5Z"/><text class="cls-12" transform="translate(337.05 596.66)"><tspan x="0" y="0">time</tspan></text><path class="cls-1" d="M223.6,104.44c3.99,10.35-5.48,14.4-11.32,17.63"/><path class="cls-8" d="M214.49,117.57c.15.08.2.26.12.41l-2.2,4.03,4.58.29c.17.01.29.15.28.32-.01.17-.15.29-.32.28l-5.05-.32c-.1,0-.19-.06-.24-.15s-.05-.2,0-.29l2.42-4.44c.03-.05.07-.09.12-.12.09-.05.2-.05.29,0Z"/><path class="cls-1" d="M231.31,102.75c4.16,15.08,25.86,1.99,38.17,19.08"/><path class="cls-8" d="M264.72,120.25c.06-.15.23-.23.39-.17l4.28,1.65-.31-4.58c-.01-.17.11-.31.28-.32.17-.01.31.12.32.28l.34,5.05c0,.1-.04.2-.12.26-.08.06-.19.08-.29.04l-4.72-1.82c-.06-.02-.1-.06-.13-.1-.06-.08-.08-.19-.04-.29Z"/><path class="cls-1" d="M239.6,98.98c13.4,19.44,110.22-4.03,130.14,22.85"/><path class="cls-8" d="M364.96,120.28c.06-.15.23-.23.39-.17l4.29,1.63-.34-4.58c-.01-.17.11-.31.28-.32.17-.01.31.11.32.28l.38,5.05c0,.1-.04.2-.12.26-.08.06-.19.08-.29.04l-4.73-1.79c-.06-.02-.1-.06-.13-.1-.06-.08-.08-.19-.04-.29Z"/><text class="cls-10" transform="translate(580.25 75.54) rotate(14.95)"><tspan x="0" y="0">beat moments</tspan></text><path class="cls-1" d="M592.14,80.95c-9.16,18.36-75.6,6.18-88.39,40.79"/><path class="cls-8" d="M502.66,116.87c.16-.03.32.08.35.24l.82,4.52,3.74-2.65c.14-.1.32-.06.42.07.1.14.06.32-.07.42l-4.13,2.93c-.08.06-.19.07-.29.03-.09-.04-.16-.12-.18-.22l-.91-4.98c-.01-.06,0-.12.02-.17.04-.09.12-.16.22-.18Z"/><path class="cls-1" d="M598.63,83.68c-9.15,18.33-40.6,12.16-51.77,38.39"/><path class="cls-8" d="M545.91,117.16c.16-.02.32.09.34.25l.68,4.54,3.83-2.53c.14-.09.32-.05.42.08.09.14.05.33-.08.42l-4.22,2.8c-.09.06-.19.07-.29.02-.09-.04-.16-.13-.17-.23l-.75-5.01c0-.06,0-.12.02-.17.04-.09.12-.16.23-.18Z"/><path class="cls-1" d="M605.6,86.21c-4.38,20.1-14.46,16.24-13.5,35.49"/><path class="cls-8" d="M589.11,117.69c.14-.09.32-.06.42.08l2.58,3.8,2.35-3.94c.08-.14.27-.19.41-.1s.19.27.1.41l-2.59,4.35c-.05.09-.15.14-.25.15s-.2-.05-.26-.13l-2.85-4.19s-.05-.1-.05-.16c0-.1.04-.2.13-.26Z"/><path class="cls-1" d="M613.88,87.92c-9.83,18.7,34.63.73,23.28,35.25"/><path class="cls-8" d="M635.59,118.39c.16-.04.32.05.37.21l1.22,4.43,3.5-2.97c.13-.11.32-.09.42.03.11.13.09.32-.03.42l-3.86,3.28c-.08.07-.18.09-.28.06-.1-.03-.17-.11-.2-.21l-1.34-4.88c-.02-.06-.01-.11,0-.17.03-.09.1-.17.21-.2Z"/><text class="cls-10" transform="translate(105.63 88.49) rotate(8.19)"><tspan x="0" y="0">observed value</tspan></text><path class="cls-1" d="M125.69,95.45c-10.61,15.08,3.44,33.65-3.66,53.53"/><path class="cls-8" d="M120.49,144.19c.16-.04.32.05.37.21l1.18,4.44,3.52-2.95c.13-.11.32-.09.42.04.11.13.09.32-.04.42l-3.88,3.25c-.08.07-.19.09-.28.06-.1-.03-.17-.11-.2-.21l-1.3-4.89c-.02-.06-.01-.11,0-.17.03-.09.11-.17.21-.2Z"/><path class="cls-1" d="M130.41,95.94c-4.04,18.14,33.33,5.29,29.85,27.24"/><path class="cls-8" d="M157.96,118.71c.15-.07.33,0,.4.15l1.9,4.18,2.98-3.49c.11-.13.3-.14.42-.03.13.11.14.3.03.42l-3.29,3.85c-.07.08-.17.12-.27.1-.1-.01-.19-.08-.23-.17l-2.09-4.61c-.02-.05-.03-.11-.02-.17.01-.1.08-.19.17-.23Z"/><text class="cls-10" transform="translate(388.65 113.74) rotate(-30.99)"><tspan x="0" y="0">still executing</tspan></text><path class="cls-1" d="M418.65,98.98c4.09,10.59,15.56,5.6,14.7,23.04"/><path class="cls-8" d="M430.55,117.85c.14-.09.33-.04.41.1l2.36,3.93,2.56-3.81c.09-.14.28-.17.42-.08.14.09.17.28.08.42l-2.83,4.2c-.06.08-.15.13-.26.13-.1,0-.2-.06-.25-.15l-2.61-4.34c-.03-.05-.04-.11-.04-.16,0-.1.05-.19.15-.25Z"/><text class="cls-10" transform="translate(208.97 106.5) rotate(-19.46)"><tspan x="0" y="0">activations</tspan></text><text class="cls-10" transform="translate(333.04 519.87) rotate(8.19)"><tspan x="0" y="0">measurement window</tspan></text><path class="cls-1" d="M327.91,516.95c-23.83-6.95-95.34,28.79-96.58,1.76"/><path class="cls-8" d="M234.39,522.69c-.14.09-.32.06-.42-.07l-2.62-3.77-2.3,3.97c-.08.14-.27.19-.41.11-.14-.08-.19-.27-.11-.41l2.54-4.38c.05-.09.14-.14.25-.15s.2.04.26.13l2.89,4.15s.05.1.05.16c0,.1-.04.2-.13.26Z"/><path class="cls-1" d="M416.17,530.38c42.09,20.01,119.8,8.18,127.42-13.6"/><path class="cls-8" d="M545.02,521.58c-.16.04-.32-.06-.36-.22l-1.12-4.45-3.56,2.9c-.13.1-.32.09-.42-.04-.1-.13-.08-.32.04-.42l3.93-3.19c.08-.06.19-.08.28-.05s.17.11.2.21l1.23,4.91c.01.06.01.12,0,.17-.03.09-.11.17-.21.2Z"/><path class="cls-1" d="M364.36,590.43c14.61-3.97,43.42,4.1,71.31.1"/><path class="cls-8" d="M431.95,593.88c-.11-.13-.09-.32.04-.42l3.54-2.92-4.15-1.97c-.15-.07-.21-.25-.14-.4s.25-.21.4-.14l4.57,2.17c.09.04.16.13.17.23.01.1-.03.2-.11.27l-3.9,3.22s-.1.06-.15.07c-.1.01-.2-.02-.27-.11Z"/></svg>