<?xml version="1.0" encoding="UTF-8"?><svg id="Layer_1" xmlns="http://www.w3.org/2000/svg" xmlns:xlink="http://www.w3.org/1999/xlink" viewBox="0 0 795.89 587.72"><defs><style>.cls-1{stroke:#4d4d4d;}.cls-1,.cls-2,.cls-3,.cls-4{stroke-miterlimit:10;}.cls-1,.cls-2,.cls-5,.cls-4{fill:none;}.cls-1,.cls-6,.cls-4{stroke-linecap:round;}.cls-2,.cls-3,.cls-4{stroke:#000;}.cls-7{letter-spacing:-.02em;}.cls-8{fill:#4d4d4d;}.cls-9,.cls-3{fill:#fff;}.cls-10{font-size:16px;}.cls-10,.cls-11{fill:#333;}.cls-10,.cls-11,.cls-12{font-family:FreestyleScript-Regular, 'Freestyle Script';}.cls-11{font-size:12px;}.cls-13{letter-spacing:0em;}.cls-14{clip-path:url(#clippath-1);}.cls-15{letter-spacing:-.01em;}.cls-16{filter:url(#drop-shadow-1);}.cls-17{letter-spacing:0em;}.cls-18{font-family:Bahnschrift-Bold, Bahnschrift;font-variation-settings:'wght' 700, 'wdth' 100;font-weight:700;}.cls-18,.cls-19{font-size:15px;}.cls-12{font-size:22px;}.cls-6{stroke:#e6e6e6;stroke-linejoin:round;}.cls-6,.cls-20{fill:#e6e6e6;}.cls-21{fill:#ccc;}.cls-22{letter-spacing:-.01em;}.cls-23{letter-spacing:-.05em;}.cls-19,.cls-24{font-family:Bahnschrift, Bahnschrift;font-variation-settings:'wght' 400, 'wdth' 100;}.cls-25{letter-spacing:-.01em;}.cls-26{letter-spacing:0em;}.cls-27{clip-path:url(#clippath);}.cls-24{font-size:8px;}</style><clipPath id="clippath-1"><rect class="cls-5" x="24.36" y="2.45" width="133.88" height="19.42"/></clipPath><symbol id="Kernel_Execution" viewBox="0 0 173.22 24.31"><path class="cls-9" d="M158.25,2.5v19.31H24.36V2.5h133.88M160.25.5H22.36v23.31h137.88V.5h0Z"/><rect class="cls-3" x="22.36" y=".5" width="137.88" height="23.31"/><g class="cls-14"><polygon class="cls-20" points="28.66 2.41 19.2 2.41 0 21.85 9.46 21.85 28.66 2.41"/><polygon class="cls-20" points="46.73 2.41 37.27 2.41 18.07 21.85 27.53 21.85 46.73 2.41"/><polygon class="cls-20" points="64.8 2.41 55.34 2.41 36.14 21.85 45.6 21.85 64.8 2.41"/><polygon class="cls-20" points="82.87 2.41 73.41 2.41 54.21 21.85 63.67 21.85 82.87 2.41"/><polygon class="cls-20" points="100.94 2.41 91.48 2.41 72.28 21.85 81.74 21.85 100.94 2.41"/><polygon class="cls-20" points="119.01 2.41 109.55 2.41 90.35 21.85 99.81 21.85 119.01 2.41"/><polygon class="cls-20" points="137.08 2.41 127.62 2.41 108.42 21.85 117.88 21.85 137.08 2.41"/><polygon class="cls-20" points="155.15 2.41 145.69 2.41 126.49 21.85 135.95 21.85 155.15 2.41"/><polygon class="cls-20" points="173.22 2.41 163.76 2.41 144.56 21.85 154.02 21.85 173.22 2.41"/></g></symbol><filter id="drop-shadow-1" filterUnits="userSpaceOnUse"><feOffset dx="7" dy="7"/><feGaussianBlur result="blur" stdDeviation="5"/><feFlood flood-color="#000" flood-opacity=".07"/><feComposite in2="blur" operator="in"/><feComposite in="SourceGraphic"/></filter><clipPath id="clippath"><rect class="cls-5" x="75.61" y="105.25" width="382.23" height="417.74"/></clipPath></defs><polygon class="cls-6" points="125.42 132.37 120.71 123.74 120.62 142.9 125.42 132.37"/><polygon class="cls-6" points="84.58 159.02 76.48 149.49 76.38 169.32 84.58 159.02"/><polygon class="cls-6" points="177.38 185.52 165.56 176.05 165.61 195.75 177.38 185.52"/><polygon class="cls-6" points="170.09 212.1 165.61 202.35 165.61 222.29 170.09 212.1"/><polygon class="cls-6" points="101.3 264.79 76.38 255.55 76.57 275.31 101.3 264.79"/><polygon class="cls-6" points="123.38 291.49 120.62 281.39 120.71 301.25 123.38 291.49"/><polygon class="cls-6" points="91.17 397.47 76.38 387.81 76.48 407.71 91.17 397.47"/><polygon class="cls-6" points="124.6 370.88 120.81 361.29 120.62 380.76 124.6 370.88"/><polygon class="cls-6" points="170.09 423.99 165.7 414.34 165.19 434.17 170.09 423.99"/><polygon class="cls-6" points="174.99 450.49 165.61 460.54 165.19 440.77 174.99 450.49"/><polygon class="cls-6" points="168.73 477.11 165.61 467.26 165.61 487.88 168.73 477.11"/><polygon class="cls-6" points="198.59 344.42 165.68 334.8 165.68 354.72 198.59 344.42"/><polygon class="cls-6" points="210.69 123.74 210.69 142.89 228.39 132.37 210.69 123.74"/><polygon class="cls-6" points="210.69 229.23 210.69 248.38 215.97 237.86 210.69 229.23"/><polygon class="cls-6" points="210.69 308.7 210.69 327.85 214.37 317.34 210.69 308.7"/><polygon class="cls-6" points="210.69 388.18 210.69 407.33 215.03 396.81 210.69 388.18"/><polygon class="cls-6" points="255.76 149.79 255.76 168.93 258.61 158.42 255.76 149.79"/><polygon class="cls-6" points="255.76 255.89 255.76 275.03 262.41 264.52 255.76 255.89"/><polygon class="cls-6" points="255.76 282.48 255.76 301.63 273.38 291.12 255.76 282.48"/><polygon class="cls-6" points="255.76 414.71 255.76 433.86 258.54 423.35 255.76 414.71"/><polygon class="cls-6" points="255.76 467.77 255.76 486.92 275.53 476.41 255.76 467.77"/><polygon class="cls-6" points="300.78 202.84 300.78 221.99 305.46 211.47 300.78 202.84"/><polygon class="cls-6" points="300.78 361.63 300.78 380.77 303.57 370.26 300.78 361.63"/><polygon class="cls-6" points="345.77 123.33 345.77 142.48 347.91 131.97 345.77 123.33"/><polygon class="cls-6" points="345.77 149.77 345.77 168.91 360.82 158.4 345.77 149.77"/><polygon class="cls-6" points="345.77 176.2 345.77 195.35 348.57 184.84 345.77 176.2"/><polygon class="cls-6" points="345.77 229.23 345.77 248.38 353.38 237.86 345.77 229.23"/><polygon class="cls-6" points="345.77 388.18 345.77 407.33 377.18 396.81 345.77 388.18"/><polygon class="cls-6" points="345.77 441.24 345.77 460.39 352.15 449.88 345.77 441.24"/><polygon class="cls-6" points="345.77 467.75 345.77 486.9 358.6 476.38 345.77 467.75"/><polygon class="cls-6" points="390.81 282.22 390.81 301.37 396.97 290.85 390.81 282.22"/><polygon class="cls-6" points="390.81 335.12 390.81 354.27 420.85 343.75 390.81 335.12"/><polygon class="cls-6" points="390.81 361.65 390.81 380.8 396.65 370.28 390.81 361.65"/><polygon class="cls-6" points="390.81 414.71 390.81 433.86 429.37 423.35 390.81 414.71"/><polygon class="cls-6" points="435.81 202.84 435.81 221.99 445.22 211.47 435.81 202.84"/><path class="cls-21" d="M652.58,146.67c.28,0,.5-.22.5-.5s-.22-.5-.5-.5H46.34c-.28,0-.5.22-.5.5s.22.5.5.5h606.24"/><path class="cls-21" d="M652.58,173.15c.28,0,.5-.22.5-.5s-.22-.5-.5-.5H46.34c-.28,0-.5.22-.5.5s.22.5.5.5h606.24"/><path class="cls-21" d="M652.58,199.63c.28,0,.5-.22.5-.5s-.22-.5-.5-.5H46.34c-.28,0-.5.22-.5.5s.22.5.5.5h606.24"/><path class="cls-21" d="M652.58,226.11c.28,0,.5-.22.5-.5s-.22-.5-.5-.5H46.34c-.28,0-.5.22-.5.5s.22.5.5.5h606.24"/><path class="cls-21" d="M652.58,252.6c.28,0,.5-.22.5-.5s-.22-.5-.5-.5H46.34c-.28,0-.5.22-.5.5s.22.5.5.5h606.24"/><path class="cls-21" d="M652.58,279.08c.28,0,.5-.22.5-.5s-.22-.5-.5-.5H46.34c-.28,0-.5.22-.5.5s.22.5.5.5h606.24"/><path class="cls-21" d="M652.58,305.56c.28,0,.5-.22.5-.5s-.22-.5-.5-.5H46.34c-.28,0-.5.22-.5.5s.22.5.5.5h606.24"/><path class="cls-21" d="M652.58,332.04c.28,0,.5-.22.5-.5s-.22-.5-.5-.5H46.34c-.28,0-.5.22-.5.5s.22.5.5.5h606.24"/><path class="cls-21" d="M652.58,358.52c.28,0,.5-.22.5-.5s-.22-.5-.5-.5H46.34c-.28,0-.5.22-.5.5s.22.5.5.5h606.24"/><path class="cls-21" d="M652.58,385c.28,0,.5-.22.5-.5s-.22-.5-.5-.5H46.34c-.28,0-.5.22-.5.5s.22.5.5.5h606.24"/><path class="cls-21" d="M652.58,411.48c.28,0,.5-.22.5-.5s-.22-.5-.5-.5H46.34c-.28,0-.5.22-.5.5s.22.5.5.5h606.24"/><path class="cls-21" d="M652.58,437.97c.28,0,.5-.22.5-.5s-.22-.5-.5-.5H46.34c-.28,0-.5.22-.5.5s.22.5.5.5h606.24"/><path class="cls-21" d="M652.58,464.45c.28,0,.5-.22.5-.5s-.22-.5-.5-.5H46.34c-.28,0-.5.22-.5.5s.22.5.5.5h606.24"/><path class="cls-21" d="M616.42,120.55c0-.28-.22-.5-.5-.5s-.5.22-.5.5v5c0,.28.22.5.5.5s.5-.22.5-.5v-5M616.42,130.55c0-.28-.22-.5-.5-.5s-.5.22-.5.5v5c0,.28.22.5.5.5s.5-.22.5-.5v-5M616.42,140.55c0-.28-.22-.5-.5-.5s-.5.22-.5.5v5c0,.28.22.5.5.5s.5-.22.5-.5v-5M616.42,150.55c0-.28-.22-.5-.5-.5s-.5.22-.5.5v5c0,.28.22.5.5.5s.5-.22.5-.5v-5M616.42,160.55c0-.28-.22-.5-.5-.5s-.5.22-.5.5v5c0,.28.22.5.5.5s.5-.22.5-.5v-5M616.42,170.55c0-.28-.22-.5-.5-.5s-.5.22-.5.5v5c0,.28.22.5.5.5s.5-.22.5-.5v-5M616.42,180.55c0-.28-.22-.5-.5-.5s-.5.22-.5.5v5c0,.28.22.5.5.5s.5-.22.5-.5v-5M616.42,190.55c0-.28-.22-.5-.5-.5s-.5.22-.5.5v5c0,.28.22.5.5.5s.5-.22.5-.5v-5M616.42,200.55c0-.28-.22-.5-.5-.5s-.5.22-.5.5v5c0,.28.22.5.5.5s.5-.22.5-.5v-5M616.42,210.55c0-.28-.22-.5-.5-.5s-.5.22-.5.5v5c0,.28.22.5.5.5s.5-.22.5-.5v-5M616.42,220.55c0-.28-.22-.5-.5-.5s-.5.22-.5.5v5c0,.28.22.5.5.5s.5-.22.5-.5v-5M616.42,230.55c0-.28-.22-.5-.5-.5s-.5.22-.5.5v5c0,.28.22.5.5.5s.5-.22.5-.5v-5M616.42,240.55c0-.28-.22-.5-.5-.5s-.5.22-.5.5v5c0,.28.22.5.5.5s.5-.22.5-.5v-5M616.42,250.55c0-.28-.22-.5-.5-.5s-.5.22-.5.5v5c0,.28.22.5.5.5s.5-.22.5-.5v-5M616.42,260.55c0-.28-.22-.5-.5-.5s-.5.22-.5.5v5c0,.28.22.5.5.5s.5-.22.5-.5v-5M616.42,270.55c0-.28-.22-.5-.5-.5s-.5.22-.5.5v5c0,.28.22.5.5.5s.5-.22.5-.5v-5M616.42,280.55c0-.28-.22-.5-.5-.5s-.5.22-.5.5v5c0,.28.22.5.5.5s.5-.22.5-.5v-5M616.42,290.55c0-.28-.22-.5-.5-.5s-.5.22-.5.5v5c0,.28.22.5.5.5s.5-.22.5-.5v-5M616.42,300.55c0-.28-.22-.5-.5-.5s-.5.22-.5.5v5c0,.28.22.5.5.5s.5-.22.5-.5v-5M616.42,310.55c0-.28-.22-.5-.5-.5s-.5.22-.5.5v5c0,.28.22.5.5.5s.5-.22.5-.5v-5M616.42,320.55c0-.28-.22-.5-.5-.5s-.5.22-.5.5v5c0,.28.22.5.5.5s.5-.22.5-.5v-5M616.42,330.55c0-.28-.22-.5-.5-.5s-.5.22-.5.5v5c0,.28.22.5.5.5s.5-.22.5-.5v-5M616.42,340.55c0-.28-.22-.5-.5-.5s-.5.22-.5.5v5c0,.28.22.5.5.5s.5-.22.5-.5v-5M616.42,350.55c0-.28-.22-.5-.5-.5s-.5.22-.5.5v5c0,.28.22.5.5.5s.5-.22.5-.5v-5M616.42,360.55c0-.28-.22-.5-.5-.5s-.5.22-.5.5v5c0,.28.22.5.5.5s.5-.22.5-.5v-5M616.42,370.55c0-.28-.22-.5-.5-.5s-.5.22-.5.5v5c0,.28.22.5.5.5s.5-.22.5-.5v-5M616.42,380.55c0-.28-.22-.5-.5-.5s-.5.22-.5.5v5c0,.28.22.5.5.5s.5-.22.5-.5v-5M616.42,390.55c0-.28-.22-.5-.5-.5s-.5.22-.5.5v5c0,.28.22.5.5.5s.5-.22.5-.5v-5M616.42,400.55c0-.28-.22-.5-.5-.5s-.5.22-.5.5v5c0,.28.22.5.5.5s.5-.22.5-.5v-5M616.42,410.55c0-.28-.22-.5-.5-.5s-.5.22-.5.5v5c0,.28.22.5.5.5s.5-.22.5-.5v-5M616.42,420.55c0-.28-.22-.5-.5-.5s-.5.22-.5.5v5c0,.28.22.5.5.5s.5-.22.5-.5v-5M616.42,430.55c0-.28-.22-.5-.5-.5s-.5.22-.5.5v5c0,.28.22.5.5.5s.5-.22.5-.5v-5M616.42,440.55c0-.28-.22-.5-.5-.5s-.5.22-.5.5v5c0,.28.22.5.5.5s.5-.22.5-.5v-5M616.42,450.55c0-.28-.22-.5-.5-.5s-.5.22-.5.5v5c0,.28.22.5.5.5s.5-.22.5-.5v-5M616.42,460.55c0-.28-.22-.5-.5-.5s-.5.22-.5.5v5c0,.28.22.5.5.5s.5-.22.5-.5v-5M616.42,470.55c0-.28-.22-.5-.5-.5s-.5.22-.5.5v5c0,.28.22.5.5.5s.5-.22.5-.5v-5M616.42,480.55c0-.28-.22-.5-.5-.5s-.5.22-.5.5v5c0,.28.22.5.5.5s.5-.22.5-.5v-5"/><path class="cls-21" d="M121.17,120.55c0-.28-.22-.5-.5-.5s-.5.22-.5.5v5c0,.28.22.5.5.5s.5-.22.5-.5v-5M121.17,130.55c0-.28-.22-.5-.5-.5s-.5.22-.5.5v5c0,.28.22.5.5.5s.5-.22.5-.5v-5M121.17,140.55c0-.28-.22-.5-.5-.5s-.5.22-.5.5v5c0,.28.22.5.5.5s.5-.22.5-.5v-5M121.17,150.55c0-.28-.22-.5-.5-.5s-.5.22-.5.5v5c0,.28.22.5.5.5s.5-.22.5-.5v-5M121.17,160.55c0-.28-.22-.5-.5-.5s-.5.22-.5.5v5c0,.28.22.5.5.5s.5-.22.5-.5v-5M121.17,170.55c0-.28-.22-.5-.5-.5s-.5.22-.5.5v5c0,.28.22.5.5.5s.5-.22.5-.5v-5M121.17,180.55c0-.28-.22-.5-.5-.5s-.5.22-.5.5v5c0,.28.22.5.5.5s.5-.22.5-.5v-5M121.17,190.55c0-.28-.22-.5-.5-.5s-.5.22-.5.5v5c0,.28.22.5.5.5s.5-.22.5-.5v-5M121.17,200.55c0-.28-.22-.5-.5-.5s-.5.22-.5.5v5c0,.28.22.5.5.5s.5-.22.5-.5v-5M121.17,210.55c0-.28-.22-.5-.5-.5s-.5.22-.5.5v5c0,.28.22.5.5.5s.5-.22.5-.5v-5M121.17,220.55c0-.28-.22-.5-.5-.5s-.5.22-.5.5v5c0,.28.22.5.5.5s.5-.22.5-.5v-5M121.17,230.55c0-.28-.22-.5-.5-.5s-.5.22-.5.5v5c0,.28.22.5.5.5s.5-.22.5-.5v-5M121.17,240.55c0-.28-.22-.5-.5-.5s-.5.22-.5.5v5c0,.28.22.5.5.5s.5-.22.5-.5v-5M121.17,250.55c0-.28-.22-.5-.5-.5s-.5.22-.5.5v5c0,.28.22.5.5.5s.5-.22.5-.5v-5M121.17,260.55c0-.28-.22-.5-.5-.5s-.5.22-.5.5v5c0,.28.22.5.5.5s.5-.22.5-.5v-5M121.17,270.55c0-.28-.22-.5-.5-.5s-.5.22-.5.5v5c0,.28.22.5.5.5s.5-.22.5-.5v-5M121.17,280.55c0-.28-.22-.5-.5-.5s-.5.22-.5.5v5c0,.28.22.5.5.5s.5-.22.5-.5v-5M121.17,290.55c0-.28-.22-.5-.5-.5s-.5.22-.5.5v5c0,.28.22.5.5.5s.5-.22.5-.5v-5M121.17,300.55c0-.28-.22-.5-.5-.5s-.5.22-.5.5v5c0,.28.22.5.5.5s.5-.22.5-.5v-5M121.17,310.55c0-.28-.22-.5-.5-.5s-.5.22-.5.5v5c0,.28.22.5.5.5s.5-.22.5-.5v-5M121.17,320.55c0-.28-.22-.5-.5-.5s-.5.22-.5.5v5c0,.28.22.5.5.5s.5-.22.5-.5v-5M121.17,330.55c0-.28-.22-.5-.5-.5s-.5.22-.5.5v5c0,.28.22.5.5.5s.5-.22.5-.5v-5M121.17,340.55c0-.28-.22-.5-.5-.5s-.5.22-.5.5v5c0,.28.22.5.5.5s.5-.22.5-.5v-5M121.17,350.55c0-.28-.22-.5-.5-.5s-.5.22-.5.5v5c0,.28.22.5.5.5s.5-.22.5-.5v-5M121.17,360.55c0-.28-.22-.5-.5-.5s-.5.22-.5.5v5c0,.28.22.5.5.5s.5-.22.5-.5v-5M121.17,370.55c0-.28-.22-.5-.5-.5s-.5.22-.5.5v5c0,.28.22.5.5.5s.5-.22.5-.5v-5M121.17,380.55c0-.28-.22-.5-.5-.5s-.5.22-.5.5v5c0,.28.22.5.5.5s.5-.22.5-.5v-5M121.17,390.55c0-.28-.22-.5-.5-.5s-.5.22-.5.5v5c0,.28.22.5.5.5s.5-.22.5-.5v-5M121.17,400.55c0-.28-.22-.5-.5-.5s-.5.22-.5.5v5c0,.28.22.5.5.5s.5-.22.5-.5v-5M121.17,410.55c0-.28-.22-.5-.5-.5s-.5.22-.5.5v5c0,.28.22.5.5.5s.5-.22.5-.5v-5M121.17,420.55c0-.28-.22-.5-.5-.5s-.5.22-.5.5v5c0,.28.22.5.5.5s.5-.22.5-.5v-5M121.17,430.55c0-.28-.22-.5-.5-.5s-.5.22-.5.5v5c0,.28.22.5.5.5s.5-.22.5-.5v-5M121.17,440.55c0-.28-.22-.5-.5-.5s-.5.22-.5.5v5c0,.28.22.5.5.5s.5-.22.5-.5v-5M121.17,450.55c0-.28-.22-.5-.5-.5s-.5.22-.5.5v5c0,.28.22.5.5.5s.5-.22.5-.5v-5M121.17,460.55c0-.28-.22-.5-.5-.5s-.5.22-.5.5v5c0,.28.22.5.5.5s.5-.22.5-.5v-5M121.17,470.55c0-.28-.22-.5-.5-.5s-.5.22-.5.5v5c0,.28.22.5.5.5s.5-.22.5-.5v-5M121.17,480.55c0-.28-.22-.5-.5-.5s-.5.22-.5.5v5c0,.28.22.5.5.5s.5-.22.5-.5v-5"/><path class="cls-21" d="M166.19,120.55c0-.28-.22-.5-.5-.5s-.5.22-.5.5v5c0,.28.22.5.5.5s.5-.22.5-.5v-5M166.19,130.55c0-.28-.22-.5-.5-.5s-.5.22-.5.5v5c0,.28.22.5.5.5s.5-.22.5-.5v-5M166.19,140.55c0-.28-.22-.5-.5-.5s-.5.22-.5.5v5c0,.28.22.5.5.5s.5-.22.5-.5v-5M166.19,150.55c0-.28-.22-.5-.5-.5s-.5.22-.5.5v5c0,.28.22.5.5.5s.5-.22.5-.5v-5M166.19,160.55c0-.28-.22-.5-.5-.5s-.5.22-.5.5v5c0,.28.22.5.5.5s.5-.22.5-.5v-5M166.19,170.55c0-.28-.22-.5-.5-.5s-.5.22-.5.5v5c0,.28.22.5.5.5s.5-.22.5-.5v-5M166.19,180.55c0-.28-.22-.5-.5-.5s-.5.22-.5.5v5c0,.28.22.5.5.5s.5-.22.5-.5v-5M166.19,190.55c0-.28-.22-.5-.5-.5s-.5.22-.5.5v5c0,.28.22.5.5.5s.5-.22.5-.5v-5M166.19,200.55c0-.28-.22-.5-.5-.5s-.5.22-.5.5v5c0,.28.22.5.5.5s.5-.22.5-.5v-5M166.19,210.55c0-.28-.22-.5-.5-.5s-.5.22-.5.5v5c0,.28.22.5.5.5s.5-.22.5-.5v-5M166.19,220.55c0-.28-.22-.5-.5-.5s-.5.22-.5.5v5c0,.28.22.5.5.5s.5-.22.5-.5v-5M166.19,230.55c0-.28-.22-.5-.5-.5s-.5.22-.5.5v5c0,.28.22.5.5.5s.5-.22.5-.5v-5M166.19,240.55c0-.28-.22-.5-.5-.5s-.5.22-.5.5v5c0,.28.22.5.5.5s.5-.22.5-.5v-5M166.19,250.55c0-.28-.22-.5-.5-.5s-.5.22-.5.5v5c0,.28.22.5.5.5s.5-.22.5-.5v-5M166.19,260.55c0-.28-.22-.5-.5-.5s-.5.22-.5.5v5c0,.28.22.5.5.5s.5-.22.5-.5v-5M166.19,270.55c0-.28-.22-.5-.5-.5s-.5.22-.5.5v5c0,.28.22.5.5.5s.5-.22.5-.5v-5M166.19,280.55c0-.28-.22-.5-.5-.5s-.5.22-.5.5v5c0,.28.22.5.5.5s.5-.22.5-.5v-5M166.19,290.55c0-.28-.22-.5-.5-.5s-.5.22-.5.5v5c0,.28.22.5.5.5s.5-.22.5-.5v-5M166.19,300.55c0-.28-.22-.5-.5-.5s-.5.22-.5.5v5c0,.28.22.5.5.5s.5-.22.5-.5v-5M166.19,310.55c0-.28-.22-.5-.5-.5s-.5.22-.5.5v5c0,.28.22.5.5.5s.5-.22.5-.5v-5M166.19,320.55c0-.28-.22-.5-.5-.5s-.5.22-.5.5v5c0,.28.22.5.5.5s.5-.22.5-.5v-5M166.19,330.55c0-.28-.22-.5-.5-.5s-.5.22-.5.5v5c0,.28.22.5.5.5s.5-.22.5-.5v-5M166.19,340.55c0-.28-.22-.5-.5-.5s-.5.22-.5.5v5c0,.28.22.5.5.5s.5-.22.5-.5v-5M166.19,350.55c0-.28-.22-.5-.5-.5s-.5.22-.5.5v5c0,.28.22.5.5.5s.5-.22.5-.5v-5M166.19,360.55c0-.28-.22-.5-.5-.5s-.5.22-.5.5v5c0,.28.22.5.5.5s.5-.22.5-.5v-5M166.19,370.55c0-.28-.22-.5-.5-.5s-.5.22-.5.5v5c0,.28.22.5.5.5s.5-.22.5-.5v-5M166.19,380.55c0-.28-.22-.5-.5-.5s-.5.22-.5.5v5c0,.28.22.5.5.5s.5-.22.5-.5v-5M166.19,390.55c0-.28-.22-.5-.5-.5s-.5.22-.5.5v5c0,.28.22.5.5.5s.5-.22.5-.5v-5M166.19,400.55c0-.28-.22-.5-.5-.5s-.5.22-.5.5v5c0,.28.22.5.5.5s.5-.22.5-.5v-5M166.19,410.55c0-.28-.22-.5-.5-.5s-.5.22-.5.5v5c0,.28.22.5.5.5s.5-.22.5-.5v-5M166.19,420.55c0-.28-.22-.5-.5-.5s-.5.22-.5.5v5c0,.28.22.5.5.5s.5-.22.5-.5v-5M166.19,430.55c0-.28-.22-.5-.5-.5s-.5.22-.5.5v5c0,.28.22.5.5.5s.5-.22.5-.5v-5M166.19,440.55c0-.28-.22-.5-.5-.5s-.5.22-.5.5v5c0,.28.22.5.5.5s.5-.22.5-.5v-5M166.19,450.55c0-.28-.22-.5-.5-.5s-.5.22-.5.5v5c0,.28.22.5.5.5s.5-.22.5-.5v-5M166.19,460.55c0-.28-.22-.5-.5-.5s-.5.22-.5.5v5c0,.28.22.5.5.5s.5-.22.5-.5v-5M166.19,470.55c0-.28-.22-.5-.5-.5s-.5.22-.5.5v5c0,.28.22.5.5.5s.5-.22.5-.5v-5M166.19,480.55c0-.28-.22-.5-.5-.5s-.5.22-.5.5v5c0,.28.22.5.5.5s.5-.22.5-.5v-5"/><path class="cls-21" d="M256.24,120.55c0-.28-.22-.5-.5-.5s-.5.22-.5.5v5c0,.28.22.5.5.5s.5-.22.5-.5v-5M256.24,130.55c0-.28-.22-.5-.5-.5s-.5.22-.5.5v5c0,.28.22.5.5.5s.5-.22.5-.5v-5M256.24,140.55c0-.28-.22-.5-.5-.5s-.5.22-.5.5v5c0,.28.22.5.5.5s.5-.22.5-.5v-5M256.24,150.55c0-.28-.22-.5-.5-.5s-.5.22-.5.5v5c0,.28.22.5.5.5s.5-.22.5-.5v-5M256.24,160.55c0-.28-.22-.5-.5-.5s-.5.22-.5.5v5c0,.28.22.5.5.5s.5-.22.5-.5v-5M256.24,170.55c0-.28-.22-.5-.5-.5s-.5.22-.5.5v5c0,.28.22.5.5.5s.5-.22.5-.5v-5M256.24,180.55c0-.28-.22-.5-.5-.5s-.5.22-.5.5v5c0,.28.22.5.5.5s.5-.22.5-.5v-5M256.24,190.55c0-.28-.22-.5-.5-.5s-.5.22-.5.5v5c0,.28.22.5.5.5s.5-.22.5-.5v-5M256.24,200.55c0-.28-.22-.5-.5-.5s-.5.22-.5.5v5c0,.28.22.5.5.5s.5-.22.5-.5v-5M256.24,210.55c0-.28-.22-.5-.5-.5s-.5.22-.5.5v5c0,.28.22.5.5.5s.5-.22.5-.5v-5M256.24,220.55c0-.28-.22-.5-.5-.5s-.5.22-.5.5v5c0,.28.22.5.5.5s.5-.22.5-.5v-5M256.24,230.55c0-.28-.22-.5-.5-.5s-.5.22-.5.5v5c0,.28.22.5.5.5s.5-.22.5-.5v-5M256.24,240.55c0-.28-.22-.5-.5-.5s-.5.22-.5.5v5c0,.28.22.5.5.5s.5-.22.5-.5v-5M256.24,250.55c0-.28-.22-.5-.5-.5s-.5.22-.5.5v5c0,.28.22.5.5.5s.5-.22.5-.5v-5M256.24,260.55c0-.28-.22-.5-.5-.5s-.5.22-.5.5v5c0,.28.22.5.5.5s.5-.22.5-.5v-5M256.24,270.55c0-.28-.22-.5-.5-.5s-.5.22-.5.5v5c0,.28.22.5.5.5s.5-.22.5-.5v-5M256.24,280.55c0-.28-.22-.5-.5-.5s-.5.22-.5.5v5c0,.28.22.5.5.5s.5-.22.5-.5v-5M256.24,290.55c0-.28-.22-.5-.5-.5s-.5.22-.5.5v5c0,.28.22.5.5.5s.5-.22.5-.5v-5M256.24,300.55c0-.28-.22-.5-.5-.5s-.5.22-.5.5v5c0,.28.22.5.5.5s.5-.22.5-.5v-5M256.24,310.55c0-.28-.22-.5-.5-.5s-.5.22-.5.5v5c0,.28.22.5.5.5s.5-.22.5-.5v-5M256.24,320.55c0-.28-.22-.5-.5-.5s-.5.22-.5.5v5c0,.28.22.5.5.5s.5-.22.5-.5v-5M256.24,330.55c0-.28-.22-.5-.5-.5s-.5.22-.5.5v5c0,.28.22.5.5.5s.5-.22.5-.5v-5M256.24,340.55c0-.28-.22-.5-.5-.5s-.5.22-.5.5v5c0,.28.22.5.5.5s.5-.22.5-.5v-5M256.24,350.55c0-.28-.22-.5-.5-.5s-.5.22-.5.5v5c0,.28.22.5.5.5s.5-.22.5-.5v-5M256.24,360.55c0-.28-.22-.5-.5-.5s-.5.22-.5.5v5c0,.28.22.5.5.5s.5-.22.5-.5v-5M256.24,370.55c0-.28-.22-.5-.5-.5s-.5.22-.5.5v5c0,.28.22.5.5.5s.5-.22.5-.5v-5M256.24,380.55c0-.28-.22-.5-.5-.5s-.5.22-.5.5v5c0,.28.22.5.5.5s.5-.22.5-.5v-5M256.24,390.55c0-.28-.22-.5-.5-.5s-.5.22-.5.5v5c0,.28.22.5.5.5s.5-.22.5-.5v-5M256.24,400.55c0-.28-.22-.5-.5-.5s-.5.22-.5.5v5c0,.28.22.5.5.5s.5-.22.5-.5v-5M256.24,410.55c0-.28-.22-.5-.5-.5s-.5.22-.5.5v5c0,.28.22.5.5.5s.5-.22.5-.5v-5M256.24,420.55c0-.28-.22-.5-.5-.5s-.5.22-.5.5v5c0,.28.22.5.5.5s.5-.22.5-.5v-5M256.24,430.55c0-.28-.22-.5-.5-.5s-.5.22-.5.5v5c0,.28.22.5.5.5s.5-.22.5-.5v-5M256.24,440.55c0-.28-.22-.5-.5-.5s-.5.22-.5.5v5c0,.28.22.5.5.5s.5-.22.5-.5v-5M256.24,450.55c0-.28-.22-.5-.5-.5s-.5.22-.5.5v5c0,.28.22.5.5.5s.5-.22.5-.5v-5M256.24,460.55c0-.28-.22-.5-.5-.5s-.5.22-.5.5v5c0,.28.22.5.5.5s.5-.22.5-.5v-5M256.24,470.55c0-.28-.22-.5-.5-.5s-.5.22-.5.5v5c0,.28.22.5.5.5s.5-.22.5-.5v-5M256.24,480.55c0-.28-.22-.5-.5-.5s-.5.22-.5.5v5c0,.28.22.5.5.5s.5-.22.5-.5v-5"/><path class="cls-21" d="M301.26,120.55c0-.28-.22-.5-.5-.5s-.5.22-.5.5v5c0,.28.22.5.5.5s.5-.22.5-.5v-5M301.26,130.55c0-.28-.22-.5-.5-.5s-.5.22-.5.5v5c0,.28.22.5.5.5s.5-.22.5-.5v-5M301.26,140.55c0-.28-.22-.5-.5-.5s-.5.22-.5.5v5c0,.28.22.5.5.5s.5-.22.5-.5v-5M301.26,150.55c0-.28-.22-.5-.5-.5s-.5.22-.5.5v5c0,.28.22.5.5.5s.5-.22.5-.5v-5M301.26,160.55c0-.28-.22-.5-.5-.5s-.5.22-.5.5v5c0,.28.22.5.5.5s.5-.22.5-.5v-5M301.26,170.55c0-.28-.22-.5-.5-.5s-.5.22-.5.5v5c0,.28.22.5.5.5s.5-.22.5-.5v-5M301.26,180.55c0-.28-.22-.5-.5-.5s-.5.22-.5.5v5c0,.28.22.5.5.5s.5-.22.5-.5v-5M301.26,190.55c0-.28-.22-.5-.5-.5s-.5.22-.5.5v5c0,.28.22.5.5.5s.5-.22.5-.5v-5M301.26,200.55c0-.28-.22-.5-.5-.5s-.5.22-.5.5v5c0,.28.22.5.5.5s.5-.22.5-.5v-5M301.26,210.55c0-.28-.22-.5-.5-.5s-.5.22-.5.5v5c0,.28.22.5.5.5s.5-.22.5-.5v-5M301.26,220.55c0-.28-.22-.5-.5-.5s-.5.22-.5.5v5c0,.28.22.5.5.5s.5-.22.5-.5v-5M301.26,230.55c0-.28-.22-.5-.5-.5s-.5.22-.5.5v5c0,.28.22.5.5.5s.5-.22.5-.5v-5M301.26,240.55c0-.28-.22-.5-.5-.5s-.5.22-.5.5v5c0,.28.22.5.5.5s.5-.22.5-.5v-5M301.26,250.55c0-.28-.22-.5-.5-.5s-.5.22-.5.5v5c0,.28.22.5.5.5s.5-.22.5-.5v-5M301.26,260.55c0-.28-.22-.5-.5-.5s-.5.22-.5.5v5c0,.28.22.5.5.5s.5-.22.5-.5v-5M301.26,270.55c0-.28-.22-.5-.5-.5s-.5.22-.5.5v5c0,.28.22.5.5.5s.5-.22.5-.5v-5M301.26,280.55c0-.28-.22-.5-.5-.5s-.5.22-.5.5v5c0,.28.22.5.5.5s.5-.22.5-.5v-5M301.26,290.55c0-.28-.22-.5-.5-.5s-.5.22-.5.5v5c0,.28.22.5.5.5s.5-.22.5-.5v-5M301.26,300.55c0-.28-.22-.5-.5-.5s-.5.22-.5.5v5c0,.28.22.5.5.5s.5-.22.5-.5v-5M301.26,310.55c0-.28-.22-.5-.5-.5s-.5.22-.5.5v5c0,.28.22.5.5.5s.5-.22.5-.5v-5M301.26,320.55c0-.28-.22-.5-.5-.5s-.5.22-.5.5v5c0,.28.22.5.5.5s.5-.22.5-.5v-5M301.26,330.55c0-.28-.22-.5-.5-.5s-.5.22-.5.5v5c0,.28.22.5.5.5s.5-.22.5-.5v-5M301.26,340.55c0-.28-.22-.5-.5-.5s-.5.22-.5.5v5c0,.28.22.5.5.5s.5-.22.5-.5v-5M301.26,350.55c0-.28-.22-.5-.5-.5s-.5.22-.5.5v5c0,.28.22.5.5.5s.5-.22.5-.5v-5M301.26,360.55c0-.28-.22-.5-.5-.5s-.5.22-.5.5v5c0,.28.22.5.5.5s.5-.22.5-.5v-5M301.26,370.55c0-.28-.22-.5-.5-.5s-.5.22-.5.5v5c0,.28.22.5.5.5s.5-.22.5-.5v-5M301.26,380.55c0-.28-.22-.5-.5-.5s-.5.22-.5.5v5c0,.28.22.5.5.5s.5-.22.5-.5v-5M301.26,390.55c0-.28-.22-.5-.5-.5s-.5.22-.5.5v5c0,.28.22.5.5.5s.5-.22.5-.5v-5M301.26,400.55c0-.28-.22-.5-.5-.5s-.5.22-.5.5v5c0,.28.22.5.5.5s.5-.22.5-.5v-5M301.26,410.55c0-.28-.22-.5-.5-.5s-.5.22-.5.5v5c0,.28.22.5.5.5s.5-.22.5-.5v-5M301.26,420.55c0-.28-.22-.5-.5-.5s-.5.22-.5.5v5c0,.28.22.5.5.5s.5-.22.5-.5v-5M301.26,430.55c0-.28-.22-.5-.5-.5s-.5.22-.5.5v5c0,.28.22.5.5.5s.5-.22.5-.5v-5M301.26,440.55c0-.28-.22-.5-.5-.5s-.5.22-.5.5v5c0,.28.22.5.5.5s.5-.22.5-.5v-5M301.26,450.55c0-.28-.22-.5-.5-.5s-.5.22-.5.5v5c0,.28.22.5.5.5s.5-.22.5-.5v-5M301.26,460.55c0-.28-.22-.5-.5-.5s-.5.22-.5.5v5c0,.28.22.5.5.5s.5-.22.5-.5v-5M301.26,470.55c0-.28-.22-.5-.5-.5s-.5.22-.5.5v5c0,.28.22.5.5.5s.5-.22.5-.5v-5M301.26,480.55c0-.28-.22-.5-.5-.5s-.5.22-.5.5v5c0,.28.22.5.5.5s.5-.22.5-.5v-5"/><path class="cls-21" d="M346.29,120.55c0-.28-.22-.5-.5-.5s-.5.22-.5.5v5c0,.28.22.5.5.5s.5-.22.5-.5v-5M346.29,130.55c0-.28-.22-.5-.5-.5s-.5.22-.5.5v5c0,.28.22.5.5.5s.5-.22.5-.5v-5M346.29,140.55c0-.28-.22-.5-.5-.5s-.5.22-.5.5v5c0,.28.22.5.5.5s.5-.22.5-.5v-5M346.29,150.55c0-.28-.22-.5-.5-.5s-.5.22-.5.5v5c0,.28.22.5.5.5s.5-.22.5-.5v-5M346.29,160.55c0-.28-.22-.5-.5-.5s-.5.22-.5.5v5c0,.28.22.5.5.5s.5-.22.5-.5v-5M346.29,170.55c0-.28-.22-.5-.5-.5s-.5.22-.5.5v5c0,.28.22.5.5.5s.5-.22.5-.5v-5M346.29,180.55c0-.28-.22-.5-.5-.5s-.5.22-.5.5v5c0,.28.22.5.5.5s.5-.22.5-.5v-5M346.29,190.55c0-.28-.22-.5-.5-.5s-.5.22-.5.5v5c0,.28.22.5.5.5s.5-.22.5-.5v-5M346.29,200.55c0-.28-.22-.5-.5-.5s-.5.22-.5.5v5c0,.28.22.5.5.5s.5-.22.5-.5v-5M346.29,210.55c0-.28-.22-.5-.5-.5s-.5.22-.5.5v5c0,.28.22.5.5.5s.5-.22.5-.5v-5M346.29,220.55c0-.28-.22-.5-.5-.5s-.5.22-.5.5v5c0,.28.22.5.5.5s.5-.22.5-.5v-5M346.29,230.55c0-.28-.22-.5-.5-.5s-.5.22-.5.5v5c0,.28.22.5.5.5s.5-.22.5-.5v-5M346.29,240.55c0-.28-.22-.5-.5-.5s-.5.22-.5.5v5c0,.28.22.5.5.5s.5-.22.5-.5v-5M346.29,250.55c0-.28-.22-.5-.5-.5s-.5.22-.5.5v5c0,.28.22.5.5.5s.5-.22.5-.5v-5M346.29,260.55c0-.28-.22-.5-.5-.5s-.5.22-.5.5v5c0,.28.22.5.5.5s.5-.22.5-.5v-5M346.29,270.55c0-.28-.22-.5-.5-.5s-.5.22-.5.5v5c0,.28.22.5.5.5s.5-.22.5-.5v-5M346.29,280.55c0-.28-.22-.5-.5-.5s-.5.22-.5.5v5c0,.28.22.5.5.5s.5-.22.5-.5v-5M346.29,290.55c0-.28-.22-.5-.5-.5s-.5.22-.5.5v5c0,.28.22.5.5.5s.5-.22.5-.5v-5M346.29,300.55c0-.28-.22-.5-.5-.5s-.5.22-.5.5v5c0,.28.22.5.5.5s.5-.22.5-.5v-5M346.29,310.55c0-.28-.22-.5-.5-.5s-.5.22-.5.5v5c0,.28.22.5.5.5s.5-.22.5-.5v-5M346.29,320.55c0-.28-.22-.5-.5-.5s-.5.22-.5.5v5c0,.28.22.5.5.5s.5-.22.5-.5v-5M346.29,330.55c0-.28-.22-.5-.5-.5s-.5.22-.5.5v5c0,.28.22.5.5.5s.5-.22.5-.5v-5M346.29,340.55c0-.28-.22-.5-.5-.5s-.5.22-.5.5v5c0,.28.22.5.5.5s.5-.22.5-.5v-5M346.29,350.55c0-.28-.22-.5-.5-.5s-.5.22-.5.5v5c0,.28.22.5.5.5s.5-.22.5-.5v-5M346.29,360.55c0-.28-.22-.5-.5-.5s-.5.22-.5.5v5c0,.28.22.5.5.5s.5-.22.5-.5v-5M346.29,370.55c0-.28-.22-.5-.5-.5s-.5.22-.5.5v5c0,.28.22.5.5.5s.5-.22.5-.5v-5M346.29,380.55c0-.28-.22-.5-.5-.5s-.5.22-.5.5v5c0,.28.22.5.5.5s.5-.22.5-.5v-5M346.29,390.55c0-.28-.22-.5-.5-.5s-.5.22-.5.5v5c0,.28.22.5.5.5s.5-.22.5-.5v-5M346.29,400.55c0-.28-.22-.5-.5-.5s-.5.22-.5.5v5c0,.28.22.5.5.5s.5-.22.5-.5v-5M346.29,410.55c0-.28-.22-.5-.5-.5s-.5.22-.5.5v5c0,.28.22.5.5.5s.5-.22.5-.5v-5M346.29,420.55c0-.28-.22-.5-.5-.5s-.5.22-.5.5v5c0,.28.22.5.5.5s.5-.22.5-.5v-5M346.29,430.55c0-.28-.22-.5-.5-.5s-.5.22-.5.5v5c0,.28.22.5.5.5s.5-.22.5-.5v-5M346.29,440.55c0-.28-.22-.5-.5-.5s-.5.22-.5.5v5c0,.28.22.5.5.5s.5-.22.5-.5v-5M346.29,450.55c0-.28-.22-.5-.5-.5s-.5.22-.5.5v5c0,.28.22.5.5.5s.5-.22.5-.5v-5M346.29,460.55c0-.28-.22-.5-.5-.5s-.5.22-.5.5v5c0,.28.22.5.5.5s.5-.22.5-.5v-5M346.29,470.55c0-.28-.22-.5-.5-.5s-.5.22-.5.5v5c0,.28.22.5.5.5s.5-.22.5-.5v-5M346.29,480.55c0-.28-.22-.5-.5-.5s-.5.22-.5.5v5c0,.28.22.5.5.5s.5-.22.5-.5v-5"/><path class="cls-21" d="M391.31,120.55c0-.28-.22-.5-.5-.5s-.5.22-.5.5v5c0,.28.22.5.5.5s.5-.22.5-.5v-5M391.31,130.55c0-.28-.22-.5-.5-.5s-.5.22-.5.5v5c0,.28.22.5.5.5s.5-.22.5-.5v-5M391.31,140.55c0-.28-.22-.5-.5-.5s-.5.22-.5.5v5c0,.28.22.5.5.5s.5-.22.5-.5v-5M391.31,150.55c0-.28-.22-.5-.5-.5s-.5.22-.5.5v5c0,.28.22.5.5.5s.5-.22.5-.5v-5M391.31,160.55c0-.28-.22-.5-.5-.5s-.5.22-.5.5v5c0,.28.22.5.5.5s.5-.22.5-.5v-5M391.31,170.55c0-.28-.22-.5-.5-.5s-.5.22-.5.5v5c0,.28.22.5.5.5s.5-.22.5-.5v-5M391.31,180.55c0-.28-.22-.5-.5-.5s-.5.22-.5.5v5c0,.28.22.5.5.5s.5-.22.5-.5v-5M391.31,190.55c0-.28-.22-.5-.5-.5s-.5.22-.5.5v5c0,.28.22.5.5.5s.5-.22.5-.5v-5M391.31,200.55c0-.28-.22-.5-.5-.5s-.5.22-.5.5v5c0,.28.22.5.5.5s.5-.22.5-.5v-5M391.31,210.55c0-.28-.22-.5-.5-.5s-.5.22-.5.5v5c0,.28.22.5.5.5s.5-.22.5-.5v-5M391.31,220.55c0-.28-.22-.5-.5-.5s-.5.22-.5.5v5c0,.28.22.5.5.5s.5-.22.5-.5v-5M391.31,230.55c0-.28-.22-.5-.5-.5s-.5.22-.5.5v5c0,.28.22.5.5.5s.5-.22.5-.5v-5M391.31,240.55c0-.28-.22-.5-.5-.5s-.5.22-.5.5v5c0,.28.22.5.5.5s.5-.22.5-.5v-5M391.31,250.55c0-.28-.22-.5-.5-.5s-.5.22-.5.5v5c0,.28.22.5.5.5s.5-.22.5-.5v-5M391.31,260.55c0-.28-.22-.5-.5-.5s-.5.22-.5.5v5c0,.28.22.5.5.5s.5-.22.5-.5v-5M391.31,270.55c0-.28-.22-.5-.5-.5s-.5.22-.5.5v5c0,.28.22.5.5.5s.5-.22.5-.5v-5M391.31,280.55c0-.28-.22-.5-.5-.5s-.5.22-.5.5v5c0,.28.22.5.5.5s.5-.22.5-.5v-5M391.31,290.55c0-.28-.22-.5-.5-.5s-.5.22-.5.5v5c0,.28.22.5.5.5s.5-.22.5-.5v-5M391.31,300.55c0-.28-.22-.5-.5-.5s-.5.22-.5.5v5c0,.28.22.5.5.5s.5-.22.5-.5v-5M391.31,310.55c0-.28-.22-.5-.5-.5s-.5.22-.5.5v5c0,.28.22.5.5.5s.5-.22.5-.5v-5M391.31,320.55c0-.28-.22-.5-.5-.5s-.5.22-.5.5v5c0,.28.22.5.5.5s.5-.22.5-.5v-5M391.31,330.55c0-.28-.22-.5-.5-.5s-.5.22-.5.5v5c0,.28.22.5.5.5s.5-.22.5-.5v-5M391.31,340.55c0-.28-.22-.5-.5-.5s-.5.22-.5.5v5c0,.28.22.5.5.5s.5-.22.5-.5v-5M391.31,350.55c0-.28-.22-.5-.5-.5s-.5.22-.5.5v5c0,.28.22.5.5.5s.5-.22.5-.5v-5M391.31,360.55c0-.28-.22-.5-.5-.5s-.5.22-.5.5v5c0,.28.22.5.5.5s.5-.22.5-.5v-5M391.31,370.55c0-.28-.22-.5-.5-.5s-.5.22-.5.5v5c0,.28.22.5.5.5s.5-.22.5-.5v-5M391.31,380.55c0-.28-.22-.5-.5-.5s-.5.22-.5.5v5c0,.28.22.5.5.5s.5-.22.5-.5v-5M391.31,390.55c0-.28-.22-.5-.5-.5s-.5.22-.5.5v5c0,.28.22.5.5.5s.5-.22.5-.5v-5M391.31,400.55c0-.28-.22-.5-.5-.5s-.5.22-.5.5v5c0,.28.22.5.5.5s.5-.22.5-.5v-5M391.31,410.55c0-.28-.22-.5-.5-.5s-.5.22-.5.5v5c0,.28.22.5.5.5s.5-.22.5-.5v-5M391.31,420.55c0-.28-.22-.5-.5-.5s-.5.22-.5.5v5c0,.28.22.5.5.5s.5-.22.5-.5v-5M391.31,430.55c0-.28-.22-.5-.5-.5s-.5.22-.5.5v5c0,.28.22.5.5.5s.5-.22.5-.5v-5M391.31,440.55c0-.28-.22-.5-.5-.5s-.5.22-.5.5v5c0,.28.22.5.5.5s.5-.22.5-.5v-5M391.31,450.55c0-.28-.22-.5-.5-.5s-.5.22-.5.5v5c0,.28.22.5.5.5s.5-.22.5-.5v-5M391.31,460.55c0-.28-.22-.5-.5-.5s-.5.22-.5.5v5c0,.28.22.5.5.5s.5-.22.5-.5v-5M391.31,470.55c0-.28-.22-.5-.5-.5s-.5.22-.5.5v5c0,.28.22.5.5.5s.5-.22.5-.5v-5M391.31,480.55c0-.28-.22-.5-.5-.5s-.5.22-.5.5v5c0,.28.22.5.5.5s.5-.22.5-.5v-5"/><path class="cls-21" d="M436.33,120.55c0-.28-.22-.5-.5-.5s-.5.22-.5.5v5c0,.28.22.5.5.5s.5-.22.5-.5v-5M436.33,130.55c0-.28-.22-.5-.5-.5s-.5.22-.5.5v5c0,.28.22.5.5.5s.5-.22.5-.5v-5M436.33,140.55c0-.28-.22-.5-.5-.5s-.5.22-.5.5v5c0,.28.22.5.5.5s.5-.22.5-.5v-5M436.33,150.55c0-.28-.22-.5-.5-.5s-.5.22-.5.5v5c0,.28.22.5.5.5s.5-.22.5-.5v-5M436.33,160.55c0-.28-.22-.5-.5-.5s-.5.22-.5.5v5c0,.28.22.5.5.5s.5-.22.5-.5v-5M436.33,170.55c0-.28-.22-.5-.5-.5s-.5.22-.5.5v5c0,.28.22.5.5.5s.5-.22.5-.5v-5M436.33,180.55c0-.28-.22-.5-.5-.5s-.5.22-.5.5v5c0,.28.22.5.5.5s.5-.22.5-.5v-5M436.33,190.55c0-.28-.22-.5-.5-.5s-.5.22-.5.5v5c0,.28.22.5.5.5s.5-.22.5-.5v-5M436.33,200.55c0-.28-.22-.5-.5-.5s-.5.22-.5.5v5c0,.28.22.5.5.5s.5-.22.5-.5v-5M436.33,210.55c0-.28-.22-.5-.5-.5s-.5.22-.5.5v5c0,.28.22.5.5.5s.5-.22.5-.5v-5M436.33,220.55c0-.28-.22-.5-.5-.5s-.5.22-.5.5v5c0,.28.22.5.5.5s.5-.22.5-.5v-5M436.33,230.55c0-.28-.22-.5-.5-.5s-.5.22-.5.5v5c0,.28.22.5.5.5s.5-.22.5-.5v-5M436.33,240.55c0-.28-.22-.5-.5-.5s-.5.22-.5.5v5c0,.28.22.5.5.5s.5-.22.5-.5v-5M436.33,250.55c0-.28-.22-.5-.5-.5s-.5.22-.5.5v5c0,.28.22.5.5.5s.5-.22.5-.5v-5M436.33,260.55c0-.28-.22-.5-.5-.5s-.5.22-.5.5v5c0,.28.22.5.5.5s.5-.22.5-.5v-5M436.33,270.55c0-.28-.22-.5-.5-.5s-.5.22-.5.5v5c0,.28.22.5.5.5s.5-.22.5-.5v-5M436.33,280.55c0-.28-.22-.5-.5-.5s-.5.22-.5.5v5c0,.28.22.5.5.5s.5-.22.5-.5v-5M436.33,290.55c0-.28-.22-.5-.5-.5s-.5.22-.5.5v5c0,.28.22.5.5.5s.5-.22.5-.5v-5M436.33,300.55c0-.28-.22-.5-.5-.5s-.5.22-.5.5v5c0,.28.22.5.5.5s.5-.22.5-.5v-5M436.33,310.55c0-.28-.22-.5-.5-.5s-.5.22-.5.5v5c0,.28.22.5.5.5s.5-.22.5-.5v-5M436.33,320.55c0-.28-.22-.5-.5-.5s-.5.22-.5.5v5c0,.28.22.5.5.5s.5-.22.5-.5v-5M436.33,330.55c0-.28-.22-.5-.5-.5s-.5.22-.5.5v5c0,.28.22.5.5.5s.5-.22.5-.5v-5M436.33,340.55c0-.28-.22-.5-.5-.5s-.5.22-.5.5v5c0,.28.22.5.5.5s.5-.22.5-.5v-5M436.33,350.55c0-.28-.22-.5-.5-.5s-.5.22-.5.5v5c0,.28.22.5.5.5s.5-.22.5-.5v-5M436.33,360.55c0-.28-.22-.5-.5-.5s-.5.22-.5.5v5c0,.28.22.5.5.5s.5-.22.5-.5v-5M436.33,370.55c0-.28-.22-.5-.5-.5s-.5.22-.5.5v5c0,.28.22.5.5.5s.5-.22.5-.5v-5M436.33,380.55c0-.28-.22-.5-.5-.5s-.5.22-.5.5v5c0,.28.22.5.5.5s.5-.22.5-.5v-5M436.33,390.55c0-.28-.22-.5-.5-.5s-.5.22-.5.5v5c0,.28.22.5.5.5s.5-.22.5-.5v-5M436.33,400.55c0-.28-.22-.5-.5-.5s-.5.22-.5.5v5c0,.28.22.5.5.5s.5-.22.5-.5v-5M436.33,410.55c0-.28-.22-.5-.5-.5s-.5.22-.5.5v5c0,.28.22.5.5.5s.5-.22.5-.5v-5M436.33,420.55c0-.28-.22-.5-.5-.5s-.5.22-.5.5v5c0,.28.22.5.5.5s.5-.22.5-.5v-5M436.33,430.55c0-.28-.22-.5-.5-.5s-.5.22-.5.5v5c0,.28.22.5.5.5s.5-.22.5-.5v-5M436.33,440.55c0-.28-.22-.5-.5-.5s-.5.22-.5.5v5c0,.28.22.5.5.5s.5-.22.5-.5v-5M436.33,450.55c0-.28-.22-.5-.5-.5s-.5.22-.5.5v5c0,.28.22.5.5.5s.5-.22.5-.5v-5M436.33,460.55c0-.28-.22-.5-.5-.5s-.5.22-.5.5v5c0,.28.22.5.5.5s.5-.22.5-.5v-5M436.33,470.55c0-.28-.22-.5-.5-.5s-.5.22-.5.5v5c0,.28.22.5.5.5s.5-.22.5-.5v-5M436.33,480.55c0-.28-.22-.5-.5-.5s-.5.22-.5.5v5c0,.28.22.5.5.5s.5-.22.5-.5v-5"/><path class="cls-21" d="M481.35,120.55c0-.28-.22-.5-.5-.5s-.5.22-.5.5v5c0,.28.22.5.5.5s.5-.22.5-.5v-5M481.35,130.55c0-.28-.22-.5-.5-.5s-.5.22-.5.5v5c0,.28.22.5.5.5s.5-.22.5-.5v-5M481.35,140.55c0-.28-.22-.5-.5-.5s-.5.22-.5.5v5c0,.28.22.5.5.5s.5-.22.5-.5v-5M481.35,150.55c0-.28-.22-.5-.5-.5s-.5.22-.5.5v5c0,.28.22.5.5.5s.5-.22.5-.5v-5M481.35,160.55c0-.28-.22-.5-.5-.5s-.5.22-.5.5v5c0,.28.22.5.5.5s.5-.22.5-.5v-5M481.35,170.55c0-.28-.22-.5-.5-.5s-.5.22-.5.5v5c0,.28.22.5.5.5s.5-.22.5-.5v-5M481.35,180.55c0-.28-.22-.5-.5-.5s-.5.22-.5.5v5c0,.28.22.5.5.5s.5-.22.5-.5v-5M481.35,190.55c0-.28-.22-.5-.5-.5s-.5.22-.5.5v5c0,.28.22.5.5.5s.5-.22.5-.5v-5M481.35,200.55c0-.28-.22-.5-.5-.5s-.5.22-.5.5v5c0,.28.22.5.5.5s.5-.22.5-.5v-5M481.35,210.55c0-.28-.22-.5-.5-.5s-.5.22-.5.5v5c0,.28.22.5.5.5s.5-.22.5-.5v-5M481.35,220.55c0-.28-.22-.5-.5-.5s-.5.22-.5.5v5c0,.28.22.5.5.5s.5-.22.5-.5v-5M481.35,230.55c0-.28-.22-.5-.5-.5s-.5.22-.5.5v5c0,.28.22.5.5.5s.5-.22.5-.5v-5M481.35,240.55c0-.28-.22-.5-.5-.5s-.5.22-.5.5v5c0,.28.22.5.5.5s.5-.22.5-.5v-5M481.35,250.55c0-.28-.22-.5-.5-.5s-.5.22-.5.5v5c0,.28.22.5.5.5s.5-.22.5-.5v-5M481.35,260.55c0-.28-.22-.5-.5-.5s-.5.22-.5.5v5c0,.28.22.5.5.5s.5-.22.5-.5v-5M481.35,270.55c0-.28-.22-.5-.5-.5s-.5.22-.5.5v5c0,.28.22.5.5.5s.5-.22.5-.5v-5M481.35,280.55c0-.28-.22-.5-.5-.5s-.5.22-.5.5v5c0,.28.22.5.5.5s.5-.22.5-.5v-5M481.35,290.55c0-.28-.22-.5-.5-.5s-.5.22-.5.5v5c0,.28.22.5.5.5s.5-.22.5-.5v-5M481.35,300.55c0-.28-.22-.5-.5-.5s-.5.22-.5.5v5c0,.28.22.5.5.5s.5-.22.5-.5v-5M481.35,310.55c0-.28-.22-.5-.5-.5s-.5.22-.5.5v5c0,.28.22.5.5.5s.5-.22.5-.5v-5M481.35,320.55c0-.28-.22-.5-.5-.5s-.5.22-.5.5v5c0,.28.22.5.5.5s.5-.22.5-.5v-5M481.35,330.55c0-.28-.22-.5-.5-.5s-.5.22-.5.5v5c0,.28.22.5.5.5s.5-.22.5-.5v-5M481.35,340.55c0-.28-.22-.5-.5-.5s-.5.22-.5.5v5c0,.28.22.5.5.5s.5-.22.5-.5v-5M481.35,350.55c0-.28-.22-.5-.5-.5s-.5.22-.5.5v5c0,.28.22.5.5.5s.5-.22.5-.5v-5M481.35,360.55c0-.28-.22-.5-.5-.5s-.5.22-.5.5v5c0,.28.22.5.5.5s.5-.22.5-.5v-5M481.35,370.55c0-.28-.22-.5-.5-.5s-.5.22-.5.5v5c0,.28.22.5.5.5s.5-.22.5-.5v-5M481.35,380.55c0-.28-.22-.5-.5-.5s-.5.22-.5.5v5c0,.28.22.5.5.5s.5-.22.5-.5v-5M481.35,390.55c0-.28-.22-.5-.5-.5s-.5.22-.5.5v5c0,.28.22.5.5.5s.5-.22.5-.5v-5M481.35,400.55c0-.28-.22-.5-.5-.5s-.5.22-.5.5v5c0,.28.22.5.5.5s.5-.22.5-.5v-5M481.35,410.55c0-.28-.22-.5-.5-.5s-.5.22-.5.5v5c0,.28.22.5.5.5s.5-.22.5-.5v-5M481.35,420.55c0-.28-.22-.5-.5-.5s-.5.22-.5.5v5c0,.28.22.5.5.5s.5-.22.5-.5v-5M481.35,430.55c0-.28-.22-.5-.5-.5s-.5.22-.5.5v5c0,.28.22.5.5.5s.5-.22.5-.5v-5M481.35,440.55c0-.28-.22-.5-.5-.5s-.5.22-.5.5v5c0,.28.22.5.5.5s.5-.22.5-.5v-5M481.35,450.55c0-.28-.22-.5-.5-.5s-.5.22-.5.5v5c0,.28.22.5.5.5s.5-.22.5-.5v-5M481.35,460.55c0-.28-.22-.5-.5-.5s-.5.22-.5.5v5c0,.28.22.5.5.5s.5-.22.5-.5v-5M481.35,470.55c0-.28-.22-.5-.5-.5s-.5.22-.5.5v5c0,.28.22.5.5.5s.5-.22.5-.5v-5M481.35,480.55c0-.28-.22-.5-.5-.5s-.5.22-.5.5v5c0,.28.22.5.5.5s.5-.22.5-.5v-5"/><path class="cls-21" d="M571.4,120.55c0-.28-.22-.5-.5-.5s-.5.22-.5.5v5c0,.28.22.5.5.5s.5-.22.5-.5v-5M571.4,130.55c0-.28-.22-.5-.5-.5s-.5.22-.5.5v5c0,.28.22.5.5.5s.5-.22.5-.5v-5M571.4,140.55c0-.28-.22-.5-.5-.5s-.5.22-.5.5v5c0,.28.22.5.5.5s.5-.22.5-.5v-5M571.4,150.55c0-.28-.22-.5-.5-.5s-.5.22-.5.5v5c0,.28.22.5.5.5s.5-.22.5-.5v-5M571.4,160.55c0-.28-.22-.5-.5-.5s-.5.22-.5.5v5c0,.28.22.5.5.5s.5-.22.5-.5v-5M571.4,170.55c0-.28-.22-.5-.5-.5s-.5.22-.5.5v5c0,.28.22.5.5.5s.5-.22.5-.5v-5M571.4,180.55c0-.28-.22-.5-.5-.5s-.5.22-.5.5v5c0,.28.22.5.5.5s.5-.22.5-.5v-5M571.4,190.55c0-.28-.22-.5-.5-.5s-.5.22-.5.5v5c0,.28.22.5.5.5s.5-.22.5-.5v-5M571.4,200.55c0-.28-.22-.5-.5-.5s-.5.22-.5.5v5c0,.28.22.5.5.5s.5-.22.5-.5v-5M571.4,210.55c0-.28-.22-.5-.5-.5s-.5.22-.5.5v5c0,.28.22.5.5.5s.5-.22.5-.5v-5M571.4,220.55c0-.28-.22-.5-.5-.5s-.5.22-.5.5v5c0,.28.22.5.5.5s.5-.22.5-.5v-5M571.4,230.55c0-.28-.22-.5-.5-.5s-.5.22-.5.5v5c0,.28.22.5.5.5s.5-.22.5-.5v-5M571.4,240.55c0-.28-.22-.5-.5-.5s-.5.22-.5.5v5c0,.28.22.5.5.5s.5-.22.5-.5v-5M571.4,250.55c0-.28-.22-.5-.5-.5s-.5.22-.5.5v5c0,.28.22.5.5.5s.5-.22.5-.5v-5M571.4,260.55c0-.28-.22-.5-.5-.5s-.5.22-.5.5v5c0,.28.22.5.5.5s.5-.22.5-.5v-5M571.4,270.55c0-.28-.22-.5-.5-.5s-.5.22-.5.5v5c0,.28.22.5.5.5s.5-.22.5-.5v-5M571.4,280.55c0-.28-.22-.5-.5-.5s-.5.22-.5.5v5c0,.28.22.5.5.5s.5-.22.5-.5v-5M571.4,290.55c0-.28-.22-.5-.5-.5s-.5.22-.5.5v5c0,.28.22.5.5.5s.5-.22.5-.5v-5M571.4,300.55c0-.28-.22-.5-.5-.5s-.5.22-.5.5v5c0,.28.22.5.5.5s.5-.22.5-.5v-5M571.4,310.55c0-.28-.22-.5-.5-.5s-.5.22-.5.5v5c0,.28.22.5.5.5s.5-.22.5-.5v-5M571.4,320.55c0-.28-.22-.5-.5-.5s-.5.22-.5.5v5c0,.28.22.5.5.5s.5-.22.5-.5v-5M571.4,330.55c0-.28-.22-.5-.5-.5s-.5.22-.5.5v5c0,.28.22.5.5.5s.5-.22.5-.5v-5M571.4,340.55c0-.28-.22-.5-.5-.5s-.5.22-.5.5v5c0,.28.22.5.5.5s.5-.22.5-.5v-5M571.4,350.55c0-.28-.22-.5-.5-.5s-.5.22-.5.5v5c0,.28.22.5.5.5s.5-.22.5-.5v-5M571.4,360.55c0-.28-.22-.5-.5-.5s-.5.22-.5.5v5c0,.28.22.5.5.5s.5-.22.5-.5v-5M571.4,370.55c0-.28-.22-.5-.5-.5s-.5.22-.5.5v5c0,.28.22.5.5.5s.5-.22.5-.5v-5M571.4,380.55c0-.28-.22-.5-.5-.5s-.5.22-.5.5v5c0,.28.22.5.5.5s.5-.22.5-.5v-5M571.4,390.55c0-.28-.22-.5-.5-.5s-.5.22-.5.5v5c0,.28.22.5.5.5s.5-.22.5-.5v-5M571.4,400.55c0-.28-.22-.5-.5-.5s-.5.22-.5.5v5c0,.28.22.5.5.5s.5-.22.5-.5v-5M571.4,410.55c0-.28-.22-.5-.5-.5s-.5.22-.5.5v5c0,.28.22.5.5.5s.5-.22.5-.5v-5M571.4,420.55c0-.28-.22-.5-.5-.5s-.5.22-.5.5v5c0,.28.22.5.5.5s.5-.22.5-.5v-5M571.4,430.55c0-.28-.22-.5-.5-.5s-.5.22-.5.5v5c0,.28.22.5.5.5s.5-.22.5-.5v-5M571.4,440.55c0-.28-.22-.5-.5-.5s-.5.22-.5.5v5c0,.28.22.5.5.5s.5-.22.5-.5v-5M571.4,450.55c0-.28-.22-.5-.5-.5s-.5.22-.5.5v5c0,.28.22.5.5.5s.5-.22.5-.5v-5M571.4,460.55c0-.28-.22-.5-.5-.5s-.5.22-.5.5v5c0,.28.22.5.5.5s.5-.22.5-.5v-5M571.4,470.55c0-.28-.22-.5-.5-.5s-.5.22-.5.5v5c0,.28.22.5.5.5s.5-.22.5-.5v-5M571.4,480.55c0-.28-.22-.5-.5-.5s-.5.22-.5.5v5c0,.28.22.5.5.5s.5-.22.5-.5v-5"/><path class="cls-8" d="M211.22,120.55c0-.28-.22-.5-.5-.5s-.5.22-.5.5v5c0,.28.22.5.5.5s.5-.22.5-.5v-5M211.22,130.55c0-.28-.22-.5-.5-.5s-.5.22-.5.5v5c0,.28.22.5.5.5s.5-.22.5-.5v-5M211.22,140.55c0-.28-.22-.5-.5-.5s-.5.22-.5.5v5c0,.28.22.5.5.5s.5-.22.5-.5v-5M211.22,150.55c0-.28-.22-.5-.5-.5s-.5.22-.5.5v5c0,.28.22.5.5.5s.5-.22.5-.5v-5M211.22,160.55c0-.28-.22-.5-.5-.5s-.5.22-.5.5v5c0,.28.22.5.5.5s.5-.22.5-.5v-5M211.22,170.55c0-.28-.22-.5-.5-.5s-.5.22-.5.5v5c0,.28.22.5.5.5s.5-.22.5-.5v-5M211.22,180.55c0-.28-.22-.5-.5-.5s-.5.22-.5.5v5c0,.28.22.5.5.5s.5-.22.5-.5v-5M211.22,190.55c0-.28-.22-.5-.5-.5s-.5.22-.5.5v5c0,.28.22.5.5.5s.5-.22.5-.5v-5M211.22,200.55c0-.28-.22-.5-.5-.5s-.5.22-.5.5v5c0,.28.22.5.5.5s.5-.22.5-.5v-5M211.22,210.55c0-.28-.22-.5-.5-.5s-.5.22-.5.5v5c0,.28.22.5.5.5s.5-.22.5-.5v-5M211.22,220.55c0-.28-.22-.5-.5-.5s-.5.22-.5.5v5c0,.28.22.5.5.5s.5-.22.5-.5v-5M211.22,230.55c0-.28-.22-.5-.5-.5s-.5.22-.5.5v5c0,.28.22.5.5.5s.5-.22.5-.5v-5M211.22,240.55c0-.28-.22-.5-.5-.5s-.5.22-.5.5v5c0,.28.22.5.5.5s.5-.22.5-.5v-5M211.22,250.55c0-.28-.22-.5-.5-.5s-.5.22-.5.5v5c0,.28.22.5.5.5s.5-.22.5-.5v-5M211.22,260.55c0-.28-.22-.5-.5-.5s-.5.22-.5.5v5c0,.28.22.5.5.5s.5-.22.5-.5v-5M211.22,270.55c0-.28-.22-.5-.5-.5s-.5.22-.5.5v5c0,.28.22.5.5.5s.5-.22.5-.5v-5M211.22,280.55c0-.28-.22-.5-.5-.5s-.5.22-.5.5v5c0,.28.22.5.5.5s.5-.22.5-.5v-5M211.22,290.55c0-.28-.22-.5-.5-.5s-.5.22-.5.5v5c0,.28.22.5.5.5s.5-.22.5-.5v-5M211.22,300.55c0-.28-.22-.5-.5-.5s-.5.22-.5.5v5c0,.28.22.5.5.5s.5-.22.5-.5v-5M211.22,310.55c0-.28-.22-.5-.5-.5s-.5.22-.5.5v5c0,.28.22.5.5.5s.5-.22.5-.5v-5M211.22,320.55c0-.28-.22-.5-.5-.5s-.5.22-.5.5v5c0,.28.22.5.5.5s.5-.22.5-.5v-5M211.22,330.55c0-.28-.22-.5-.5-.5s-.5.22-.5.5v5c0,.28.22.5.5.5s.5-.22.5-.5v-5M211.22,340.55c0-.28-.22-.5-.5-.5s-.5.22-.5.5v5c0,.28.22.5.5.5s.5-.22.5-.5v-5M211.22,350.55c0-.28-.22-.5-.5-.5s-.5.22-.5.5v5c0,.28.22.5.5.5s.5-.22.5-.5v-5M211.22,360.55c0-.28-.22-.5-.5-.5s-.5.22-.5.5v5c0,.28.22.5.5.5s.5-.22.5-.5v-5M211.22,370.55c0-.28-.22-.5-.5-.5s-.5.22-.5.5v5c0,.28.22.5.5.5s.5-.22.5-.5v-5M211.22,380.55c0-.28-.22-.5-.5-.5s-.5.22-.5.5v5c0,.28.22.5.5.5s.5-.22.5-.5v-5M211.22,390.55c0-.28-.22-.5-.5-.5s-.5.22-.5.5v5c0,.28.22.5.5.5s.5-.22.5-.5v-5M211.22,400.55c0-.28-.22-.5-.5-.5s-.5.22-.5.5v5c0,.28.22.5.5.5s.5-.22.5-.5v-5M211.22,410.55c0-.28-.22-.5-.5-.5s-.5.22-.5.5v5c0,.28.22.5.5.5s.5-.22.5-.5v-5M211.22,420.55c0-.28-.22-.5-.5-.5s-.5.22-.5.5v5c0,.28.22.5.5.5s.5-.22.5-.5v-5M211.22,430.55c0-.28-.22-.5-.5-.5s-.5.22-.5.5v5c0,.28.22.5.5.5s.5-.22.5-.5v-5M211.22,440.55c0-.28-.22-.5-.5-.5s-.5.22-.5.5v5c0,.28.22.5.5.5s.5-.22.5-.5v-5M211.22,450.55c0-.28-.22-.5-.5-.5s-.5.22-.5.5v5c0,.28.22.5.5.5s.5-.22.5-.5v-5M211.22,460.55c0-.28-.22-.5-.5-.5s-.5.22-.5.5v5c0,.28.22.5.5.5s.5-.22.5-.5v-5M211.22,470.55c0-.28-.22-.5-.5-.5s-.5.22-.5.5v5c0,.28.22.5.5.5s.5-.22.5-.5v-5M211.22,480.55c0-.28-.22-.5-.5-.5s-.5.22-.5.5v5c0,.28.22.5.5.5s.5-.22.5-.5v-5M211.22,490.55c0-.28-.22-.5-.5-.5s-.5.22-.5.5v5c0,.28.22.5.5.5s.5-.22.5-.5v-5M211.22,500.55c0-.28-.22-.5-.5-.5s-.5.22-.5.5v5c0,.28.22.5.5.5s.5-.22.5-.5v-5"/><path class="cls-8" d="M526.38,120.55c0-.28-.22-.5-.5-.5s-.5.22-.5.5v5c0,.28.22.5.5.5s.5-.22.5-.5v-5M526.38,130.55c0-.28-.22-.5-.5-.5s-.5.22-.5.5v5c0,.28.22.5.5.5s.5-.22.5-.5v-5M526.38,140.55c0-.28-.22-.5-.5-.5s-.5.22-.5.5v5c0,.28.22.5.5.5s.5-.22.5-.5v-5M526.38,150.55c0-.28-.22-.5-.5-.5s-.5.22-.5.5v5c0,.28.22.5.5.5s.5-.22.5-.5v-5M526.38,160.55c0-.28-.22-.5-.5-.5s-.5.22-.5.5v5c0,.28.22.5.5.5s.5-.22.5-.5v-5M526.38,170.55c0-.28-.22-.5-.5-.5s-.5.22-.5.5v5c0,.28.22.5.5.5s.5-.22.5-.5v-5M526.38,180.55c0-.28-.22-.5-.5-.5s-.5.22-.5.5v5c0,.28.22.5.5.5s.5-.22.5-.5v-5M526.38,190.55c0-.28-.22-.5-.5-.5s-.5.22-.5.5v5c0,.28.22.5.5.5s.5-.22.5-.5v-5M526.38,200.55c0-.28-.22-.5-.5-.5s-.5.22-.5.5v5c0,.28.22.5.5.5s.5-.22.5-.5v-5M526.38,210.55c0-.28-.22-.5-.5-.5s-.5.22-.5.5v5c0,.28.22.5.5.5s.5-.22.5-.5v-5M526.38,220.55c0-.28-.22-.5-.5-.5s-.5.22-.5.5v5c0,.28.22.5.5.5s.5-.22.5-.5v-5M526.38,230.55c0-.28-.22-.5-.5-.5s-.5.22-.5.5v5c0,.28.22.5.5.5s.5-.22.5-.5v-5M526.38,240.55c0-.28-.22-.5-.5-.5s-.5.22-.5.5v5c0,.28.22.5.5.5s.5-.22.5-.5v-5M526.38,250.55c0-.28-.22-.5-.5-.5s-.5.22-.5.5v5c0,.28.22.5.5.5s.5-.22.5-.5v-5M526.38,260.55c0-.28-.22-.5-.5-.5s-.5.22-.5.5v5c0,.28.22.5.5.5s.5-.22.5-.5v-5M526.38,270.55c0-.28-.22-.5-.5-.5s-.5.22-.5.5v5c0,.28.22.5.5.5s.5-.22.5-.5v-5M526.38,280.55c0-.28-.22-.5-.5-.5s-.5.22-.5.5v5c0,.28.22.5.5.5s.5-.22.5-.5v-5M526.38,290.55c0-.28-.22-.5-.5-.5s-.5.22-.5.5v5c0,.28.22.5.5.5s.5-.22.5-.5v-5M526.38,300.55c0-.28-.22-.5-.5-.5s-.5.22-.5.5v5c0,.28.22.5.5.5s.5-.22.5-.5v-5M526.38,310.55c0-.28-.22-.5-.5-.5s-.5.22-.5.5v5c0,.28.22.5.5.5s.5-.22.5-.5v-5M526.38,320.55c0-.28-.22-.5-.5-.5s-.5.22-.5.5v5c0,.28.22.5.5.5s.5-.22.5-.5v-5M526.38,330.55c0-.28-.22-.5-.5-.5s-.5.22-.5.5v5c0,.28.22.5.5.5s.5-.22.5-.5v-5M526.38,340.55c0-.28-.22-.5-.5-.5s-.5.22-.5.5v5c0,.28.22.5.5.5s.5-.22.5-.5v-5M526.38,350.55c0-.28-.22-.5-.5-.5s-.5.22-.5.5v5c0,.28.22.5.5.5s.5-.22.5-.5v-5M526.38,360.55c0-.28-.22-.5-.5-.5s-.5.22-.5.5v5c0,.28.22.5.5.5s.5-.22.5-.5v-5M526.38,370.55c0-.28-.22-.5-.5-.5s-.5.22-.5.5v5c0,.28.22.5.5.5s.5-.22.5-.5v-5M526.38,380.55c0-.28-.22-.5-.5-.5s-.5.22-.5.5v5c0,.28.22.5.5.5s.5-.22.5-.5v-5M526.38,390.55c0-.28-.22-.5-.5-.5s-.5.22-.5.5v5c0,.28.22.5.5.5s.5-.22.5-.5v-5M526.38,400.55c0-.28-.22-.5-.5-.5s-.5.22-.5.5v5c0,.28.22.5.5.5s.5-.22.5-.5v-5M526.38,410.55c0-.28-.22-.5-.5-.5s-.5.22-.5.5v5c0,.28.22.5.5.5s.5-.22.5-.5v-5M526.38,420.55c0-.28-.22-.5-.5-.5s-.5.22-.5.5v5c0,.28.22.5.5.5s.5-.22.5-.5v-5M526.38,430.55c0-.28-.22-.5-.5-.5s-.5.22-.5.5v5c0,.28.22.5.5.5s.5-.22.5-.5v-5M526.38,440.55c0-.28-.22-.5-.5-.5s-.5.22-.5.5v5c0,.28.22.5.5.5s.5-.22.5-.5v-5M526.38,450.55c0-.28-.22-.5-.5-.5s-.5.22-.5.5v5c0,.28.22.5.5.5s.5-.22.5-.5v-5M526.38,460.55c0-.28-.22-.5-.5-.5s-.5.22-.5.5v5c0,.28.22.5.5.5s.5-.22.5-.5v-5M526.38,470.55c0-.28-.22-.5-.5-.5s-.5.22-.5.5v5c0,.28.22.5.5.5s.5-.22.5-.5v-5M526.38,480.55c0-.28-.22-.5-.5-.5s-.5.22-.5.5v5c0,.28.22.5.5.5s.5-.22.5-.5v-5M526.38,490.55c0-.28-.22-.5-.5-.5s-.5.22-.5.5v5c0,.28.22.5.5.5s.5-.22.5-.5v-5M526.38,500.55c0-.28-.22-.5-.5-.5s-.5.22-.5.5v5c0,.28.22.5.5.5s.5-.22.5-.5v-5"/><g class="cls-16"><rect class="cls-3" x="101.3" y="253.77" width="114.72" height="23.31"/><text class="cls-19" transform="translate(106.93 270.13)"><tspan x="0" y="0">42</tspan></text><line class="cls-2" x1="216.02" y1="265.04" x2="128.72" y2="265.04"/><polygon points="130.71 263.34 129.02 265.04 130.71 266.73 129.28 266.73 127.58 265.04 129.28 263.34 130.71 263.34"/><rect class="cls-3" x="91.17" y="386.1" width="114.72" height="23.31"/><text class="cls-19" transform="translate(96.81 402.46)"><tspan x="0" y="0">42</tspan></text><line class="cls-2" x1="205.89" y1="397.37" x2="118.59" y2="397.37"/><polygon points="120.59 395.67 118.89 397.37 120.59 399.06 119.15 399.06 117.45 397.37 119.15 395.67 120.59 395.67"/><rect class="cls-3" x="78.37" y="306.51" width="114.72" height="23.31"/><text class="cls-19" transform="translate(81.1 322.86)"><tspan x="0" y="0">1457</tspan></text><line class="cls-2" x1="193.09" y1="317.78" x2="115.1" y2="317.78"/><polygon points="117.09 316.08 115.4 317.78 117.09 319.47 115.65 319.47 113.96 317.78 115.65 316.08 117.09 316.08"/><rect class="cls-3" x="214.33" y="306.51" width="210.88" height="23.31"/><text class="cls-19" transform="translate(217.07 322.86)"><tspan x="0" y="0">1457</tspan></text><line class="cls-2" x1="425.21" y1="317.78" x2="254.12" y2="317.78"/><polygon points="256.11 316.08 254.42 317.78 256.11 319.47 254.67 319.47 252.98 317.78 254.67 316.08 256.11 316.08"/><rect class="cls-3" x="262.41" y="253.77" width="160.5" height="23.31"/><text class="cls-19" transform="translate(268.01 270.13)"><tspan x="0" y="0">38</tspan></text><line class="cls-2" x1="422.91" y1="265.04" x2="293.56" y2="265.04"/><polygon points="295.55 263.34 293.85 265.04 295.55 266.73 294.11 266.73 292.41 265.04 294.11 263.34 295.55 263.34"/><rect class="cls-3" x="198.59" y="333.04" width="160.5" height="23.31"/><text class="cls-19" transform="translate(203.96 349.39)"><tspan x="0" y="0">40</tspan></text><line class="cls-2" x1="359.09" y1="344.31" x2="229.73" y2="344.31"/><polygon points="231.72 342.61 230.03 344.31 231.72 346 230.28 346 228.59 344.31 230.28 342.61 231.72 342.61"/><rect class="cls-3" x="124.6" y="359.57" width="160.5" height="23.31"/><text class="cls-19" transform="translate(131.8 375.92)"><tspan class="cls-7" x="0" y="0">4</tspan><tspan x="8.17" y="0">1</tspan></text><line class="cls-2" x1="285.09" y1="370.84" x2="155.74" y2="370.84"/><polygon points="157.73 369.14 156.03 370.84 157.73 372.53 156.29 372.53 154.6 370.84 156.29 369.14 157.73 369.14"/><rect class="cls-3" x="174.99" y="439.16" width="160.5" height="23.31"/><text class="cls-19" transform="translate(180.37 455.52)"><tspan x="0" y="0">40</tspan></text><line class="cls-2" x1="335.49" y1="450.43" x2="206.13" y2="450.43"/><polygon points="208.13 448.74 206.43 450.43 208.13 452.13 206.69 452.13 204.99 450.43 206.69 448.74 208.13 448.74"/><rect class="cls-3" x="258.56" y="412.63" width="114.72" height="23.31"/><text class="cls-19" transform="translate(264.15 428.99)"><tspan x="0" y="0">38</tspan></text><line class="cls-2" x1="373.28" y1="423.9" x2="285.99" y2="423.9"/><polygon points="287.98 422.2 286.28 423.9 287.98 425.6 286.54 425.6 284.84 423.9 286.54 422.2 287.98 422.2"/><rect class="cls-3" x="84.58" y="147.71" width="130.4" height="23.31"/><line class="cls-2" x1="214.98" y1="158.98" x2="115.1" y2="158.98"/><polygon points="117.09 157.28 115.4 158.98 117.09 160.67 115.65 160.67 113.96 158.98 115.65 157.28 117.09 157.28"/><text class="cls-19" transform="translate(90.22 164.06)"><tspan x="0" y="0">42</tspan></text><rect class="cls-3" x="125.42" y="120.79" width="63.79" height="23.31"/><line class="cls-2" x1="189.21" y1="132.06" x2="150.64" y2="132.06"/><polygon points="152.63 130.36 150.94 132.06 152.63 133.75 151.19 133.75 149.5 132.06 151.19 130.36 152.63 130.36"/><text class="cls-19" transform="translate(132.63 137.15)"><tspan class="cls-7" x="0" y="0">4</tspan><tspan x="8.17" y="0">1</tspan></text><rect class="cls-3" x="228.39" y="120.79" width="103.36" height="23.31"/><line class="cls-2" x1="331.75" y1="132.06" x2="258.12" y2="132.06"/><polygon points="260.11 130.36 258.42 132.06 260.11 133.75 258.67 133.75 256.98 132.06 258.67 130.36 260.11 130.36"/><text class="cls-19" transform="translate(234.35 137.15)"><tspan x="0" y="0">39</tspan></text><rect class="cls-3" x="170.09" y="200.76" width="114.72" height="23.31"/><line class="cls-2" x1="284.81" y1="212.03" x2="197.52" y2="212.03"/><polygon points="199.51 210.33 197.81 212.03 199.51 213.72 198.07 213.72 196.37 212.03 198.07 210.33 199.51 210.33"/><text class="cls-19" transform="translate(175.46 217.12)"><tspan x="0" y="0">40</tspan></text><rect class="cls-3" x="216.02" y="227.15" width="114.72" height="23.31"/><line class="cls-2" x1="330.73" y1="238.42" x2="243.44" y2="238.42"/><polygon points="245.43 236.72 243.74 238.42 245.43 240.11 243.99 240.11 242.3 238.42 243.99 236.72 245.43 236.72"/><text class="cls-19" transform="translate(221.98 243.51)"><tspan x="0" y="0">39</tspan></text><rect class="cls-3" x="123.38" y="280.4" width="114.72" height="23.31"/><line class="cls-2" x1="238.1" y1="291.67" x2="150.81" y2="291.67"/><polygon points="152.8 289.98 151.11 291.67 152.8 293.37 151.36 293.37 149.67 291.67 151.36 289.98 152.8 289.98"/><text class="cls-19" transform="translate(130.59 296.76)"><tspan class="cls-7" x="0" y="0">4</tspan><tspan x="8.17" y="0">1</tspan></text><rect class="cls-3" x="75.61" y="174.12" width="65.87" height="23.31"/><line class="cls-2" x1="141.49" y1="185.39" x2="79.51" y2="185.39"/><polygon points="81.5 183.7 79.8 185.39 81.5 187.09 80.06 187.09 78.37 185.39 80.06 183.7 81.5 183.7"/><rect class="cls-3" x="75.61" y="200.76" width="81.69" height="23.31"/><line class="cls-2" x1="157.31" y1="212.03" x2="75.61" y2="212.03"/><rect class="cls-3" x="258.56" y="147.71" width="80.76" height="23.31"/><line class="cls-2" x1="339.32" y1="158.98" x2="285.99" y2="158.98"/><polygon points="287.98 157.28 286.28 158.98 287.98 160.67 286.54 160.67 284.84 158.98 286.54 157.28 287.98 157.28"/><text class="cls-19" transform="translate(264.15 164.06)"><tspan x="0" y="0">38</tspan></text><rect class="cls-3" x="305.46" y="200.76" width="114.72" height="23.31"/><line class="cls-2" x1="420.18" y1="212.03" x2="332.89" y2="212.03"/><polygon points="334.88 210.33 333.19 212.03 334.88 213.72 333.44 213.72 331.75 212.03 333.44 210.33 334.88 210.33"/><text class="cls-19" transform="translate(311.5 217.12)"><tspan x="0" y="0">37</tspan></text><rect class="cls-3" x="353.38" y="227.15" width="99.67" height="23.31"/><line class="cls-2" x1="453.05" y1="238.42" x2="380.9" y2="238.42"/><polygon points="382.89 236.72 381.19 238.42 382.89 240.11 381.45 240.11 379.76 238.42 381.45 236.72 382.89 236.72"/><text class="cls-19" transform="translate(359.35 243.51)"><tspan x="0" y="0">36</tspan></text><rect class="cls-3" x="273.38" y="280.4" width="114.72" height="23.31"/><line class="cls-2" x1="388.09" y1="291.67" x2="300.8" y2="291.67"/><polygon points="302.79 289.98 301.1 291.67 302.79 293.37 301.35 293.37 299.66 291.67 301.35 289.98 302.79 289.98"/><text class="cls-19" transform="translate(278.97 296.76)"><tspan x="0" y="0">38</tspan></text><rect class="cls-3" x="303.59" y="359.57" width="63.79" height="23.31"/><line class="cls-2" x1="367.38" y1="370.84" x2="328.81" y2="370.84"/><polygon points="330.8 369.14 329.1 370.84 330.8 372.53 329.36 372.53 327.66 370.84 329.36 369.14 330.8 369.14"/><text class="cls-19" transform="translate(309.63 375.92)"><tspan x="0" y="0">37</tspan></text><rect class="cls-3" x="168.73" y="465.69" width="63.79" height="23.31"/><line class="cls-2" x1="232.52" y1="476.96" x2="193.95" y2="476.96"/><polygon points="195.94 475.27 194.24 476.96 195.94 478.66 194.5 478.66 192.8 476.96 194.5 475.27 195.94 475.27"/><text class="cls-19" transform="translate(174.11 482.05)"><tspan x="0" y="0">40</tspan></text><rect class="cls-3" x="275.53" y="465.69" width="63.79" height="23.31"/><line class="cls-2" x1="339.32" y1="476.96" x2="300.75" y2="476.96"/><polygon points="302.74 475.27 301.04 476.96 302.74 478.66 301.3 478.66 299.6 476.96 301.3 475.27 302.74 475.27"/><text class="cls-19" transform="translate(281.12 482.05)"><tspan x="0" y="0">38</tspan></text><rect class="cls-3" x="170.09" y="412.63" width="63.79" height="23.31"/><line class="cls-2" x1="233.88" y1="423.9" x2="195.3" y2="423.9"/><polygon points="197.3 422.2 195.6 423.9 197.3 425.6 195.86 425.6 194.16 423.9 195.86 422.2 197.3 422.2"/><text class="cls-19" transform="translate(175.46 428.99)"><tspan x="0" y="0">40</tspan></text><rect class="cls-3" x="214.98" y="386.1" width="114.72" height="23.31"/><line class="cls-2" x1="329.7" y1="397.37" x2="242.41" y2="397.37"/><polygon points="244.4 395.67 242.7 397.37 244.4 399.06 242.96 399.06 241.26 397.37 242.96 395.67 244.4 395.67"/><text class="cls-19" transform="translate(220.94 402.46)"><tspan x="0" y="0">39</tspan></text><rect class="cls-3" x="377.18" y="386.1" width="63.79" height="23.31"/><line class="cls-2" x1="440.97" y1="397.37" x2="402.4" y2="397.37"/><polygon points="404.39 395.67 402.69 397.37 404.39 399.06 402.95 399.06 401.26 397.37 402.95 395.67 404.39 395.67"/><text class="cls-19" transform="translate(383.15 402.46)"><tspan x="0" y="0">36</tspan></text><g class="cls-27"><rect class="cls-3" x="43.94" y="333.04" width="114.72" height="23.31"/><line class="cls-2" x1="158.66" y1="344.31" x2="71.36" y2="344.31"/><polygon points="73.36 342.61 71.66 344.31 73.36 346 71.92 346 70.22 344.31 71.92 342.61 73.36 342.61"/><rect class="cls-3" x="-.76" y="359.57" width="114.72" height="23.31"/><line class="cls-2" x1="113.96" y1="370.84" x2="26.66" y2="370.84"/><polygon points="28.66 369.14 26.96 370.84 28.66 372.53 27.22 372.53 25.52 370.84 27.22 369.14 28.66 369.14"/><rect class="cls-3" x="42.59" y="412.63" width="114.72" height="23.31"/><line class="cls-2" x1="157.31" y1="423.9" x2="70.02" y2="423.9"/><polygon points="72.01 422.2 70.31 423.9 72.01 425.6 70.57 425.6 68.87 423.9 70.57 422.2 72.01 422.2"/><rect class="cls-3" x="16.16" y="465.69" width="114.72" height="23.31"/><line class="cls-2" x1="130.88" y1="476.96" x2="43.58" y2="476.96"/><polygon points="45.58 475.27 43.88 476.96 45.58 478.66 44.14 478.66 42.44 476.96 44.14 475.27 45.58 475.27"/><use width="173.22" height="24.31" transform="translate(326.21 173.62)" xlink:href="#Kernel_Execution"/><use width="173.22" height="24.31" transform="translate(325.54 120.29)" xlink:href="#Kernel_Execution"/><use width="173.22" height="24.31" transform="translate(338.46 147.21)" xlink:href="#Kernel_Execution"/><use width="173.22" height="24.31" transform="translate(422.91 200.26)" xlink:href="#Kernel_Execution"/><use width="173.22" height="24.31" transform="translate(374.6 279.9)" xlink:href="#Kernel_Execution"/><use width="173.22" height="24.31" transform="translate(398.49 332.54)" xlink:href="#Kernel_Execution"/><use width="173.22" height="24.31" transform="translate(374.28 359.07)" xlink:href="#Kernel_Execution"/><use width="173.22" height="24.31" transform="translate(407 412.13)" xlink:href="#Kernel_Execution"/><use width="173.22" height="24.31" transform="translate(329.79 438.66)" xlink:href="#Kernel_Execution"/><use width="173.22" height="24.31" transform="translate(336.24 465.19)" xlink:href="#Kernel_Execution"/><rect class="cls-3" x="75.61" y="227.15" width="108.42" height="23.31"/><line class="cls-2" x1="184.04" y1="238.42" x2="84.8" y2="238.42"/><polygon points="86.8 236.72 85.1 238.42 86.8 240.11 85.36 240.11 83.66 238.42 85.36 236.72 86.8 236.72"/><text class="cls-19" transform="translate(66.91 244.21)"><tspan x="0" y="0">43</tspan></text><rect class="cls-3" x="49.42" y="280.4" width="65.87" height="23.31"/><line class="cls-2" x1="115.29" y1="291.67" x2="53.31" y2="291.67"/><polygon points="55.3 289.98 53.61 291.67 55.3 293.37 53.86 293.37 52.17 291.67 53.86 289.98 55.3 289.98"/><rect class="cls-3" x="63.7" y="439.16" width="63.79" height="23.31"/><line class="cls-2" x1="127.49" y1="450.43" x2="88.92" y2="450.43"/><polygon points="90.91 448.74 89.21 450.43 90.91 452.13 89.47 452.13 87.78 450.43 89.47 448.74 90.91 448.74"/><text class="cls-19" transform="translate(69.25 455.52)"><tspan x="0" y="0">43</tspan></text></g><rect class="cls-3" x="177.38" y="174.12" width="132.68" height="23.31"/><line class="cls-2" x1="310.06" y1="185.39" x2="205.21" y2="185.39"/><polygon points="207.2 183.7 205.51 185.39 207.2 187.09 205.76 187.09 204.07 185.39 205.76 183.7 207.2 183.7"/><text class="cls-19" transform="translate(182.75 190.48)"><tspan x="0" y="0">40</tspan></text></g><text class="cls-24" transform="translate(37.67 136.41)"><tspan x="0" y="0">N</tspan><tspan class="cls-25" x="5.6" y="0">e</tspan><tspan x="9.79" y="0">u</tspan><tspan class="cls-13" x="14.24" y="0">r</tspan><tspan x="17.58" y="0">on 0</tspan></text><text class="cls-24" transform="translate(39.42 162.94)"><tspan x="0" y="0">N</tspan><tspan class="cls-25" x="5.6" y="0">e</tspan><tspan x="9.79" y="0">u</tspan><tspan class="cls-13" x="14.24" y="0">r</tspan><tspan x="17.58" y="0">on 1</tspan></text><text class="cls-24" transform="translate(37.95 189.47)"><tspan x="0" y="0">N</tspan><tspan class="cls-25" x="5.6" y="0">e</tspan><tspan x="9.79" y="0">u</tspan><tspan class="cls-13" x="14.24" y="0">r</tspan><tspan x="17.58" y="0">on 2</tspan></text><text class="cls-24" transform="translate(37.85 216)"><tspan x="0" y="0">N</tspan><tspan class="cls-25" x="5.6" y="0">e</tspan><tspan x="9.79" y="0">u</tspan><tspan class="cls-13" x="14.24" y="0">r</tspan><tspan x="17.58" y="0">on 3</tspan></text><text class="cls-24" transform="translate(37.53 242.54)"><tspan x="0" y="0">N</tspan><tspan class="cls-25" x="5.6" y="0">e</tspan><tspan x="9.79" y="0">u</tspan><tspan class="cls-13" x="14.24" y="0">r</tspan><tspan x="17.58" y="0">on 4</tspan></text><text class="cls-24" transform="translate(37.72 269.07)"><tspan x="0" y="0">N</tspan><tspan class="cls-25" x="5.6" y="0">e</tspan><tspan x="9.79" y="0">u</tspan><tspan class="cls-13" x="14.24" y="0">r</tspan><tspan x="17.58" y="0">on 5</tspan></text><text class="cls-24" transform="translate(37.97 295.6)"><tspan x="0" y="0">N</tspan><tspan class="cls-25" x="5.6" y="0">e</tspan><tspan x="9.79" y="0">u</tspan><tspan class="cls-13" x="14.24" y="0">r</tspan><tspan x="17.58" y="0">on 6</tspan></text><text class="cls-24" transform="translate(38.05 322.13)"><tspan x="0" y="0">N</tspan><tspan class="cls-25" x="5.6" y="0">e</tspan><tspan x="9.79" y="0">u</tspan><tspan class="cls-13" x="14.24" y="0">r</tspan><tspan x="17.58" y="0">on 7</tspan></text><text class="cls-24" transform="translate(37.58 348.66)"><tspan x="0" y="0">N</tspan><tspan class="cls-25" x="5.6" y="0">e</tspan><tspan x="9.79" y="0">u</tspan><tspan class="cls-13" x="14.24" y="0">r</tspan><tspan x="17.58" y="0">on 8</tspan></text><text class="cls-24" transform="translate(37.97 375.19)"><tspan x="0" y="0">N</tspan><tspan class="cls-25" x="5.6" y="0">e</tspan><tspan x="9.79" y="0">u</tspan><tspan class="cls-13" x="14.24" y="0">r</tspan><tspan x="17.58" y="0">on 9</tspan></text><text class="cls-24" transform="translate(35.01 401.72)"><tspan x="0" y="0">N</tspan><tspan class="cls-25" x="5.6" y="0">e</tspan><tspan x="9.79" y="0">u</tspan><tspan class="cls-13" x="14.24" y="0">r</tspan><tspan x="17.58" y="0">on 10</tspan></text><text class="cls-24" transform="translate(36.76 428.25)"><tspan x="0" y="0">N</tspan><tspan class="cls-25" x="5.6" y="0">e</tspan><tspan x="9.79" y="0">u</tspan><tspan class="cls-13" x="14.24" y="0">r</tspan><tspan x="17.58" y="0">on 11</tspan></text><text class="cls-24" transform="translate(35.29 454.78)"><tspan x="0" y="0">N</tspan><tspan class="cls-25" x="5.6" y="0">e</tspan><tspan x="9.79" y="0">u</tspan><tspan class="cls-13" x="14.24" y="0">r</tspan><tspan x="17.58" y="0">on 12</tspan></text><text class="cls-24" transform="translate(35.19 481.31)"><tspan x="0" y="0">N</tspan><tspan class="cls-25" x="5.6" y="0">e</tspan><tspan x="9.79" y="0">u</tspan><tspan class="cls-13" x="14.24" y="0">r</tspan><tspan x="17.58" y="0">on 13</tspan></text><text class="cls-18" transform="translate(188.02 31.88)"><tspan class="cls-23" x="0" y="0">T</tspan><tspan x="6.42" y="0">emporal Fragment Shading Th</tspan><tspan class="cls-13" x="208.98" y="0">r</tspan><tspan class="cls-25" x="215.24" y="0">o</tspan><tspan class="cls-17" x="223.23" y="0">ugh Chaotic </tspan><tspan class="cls-13" x="306.04" y="0">K</tspan><tspan x="315.51" y="0">ernel E</tspan><tspan class="cls-22" x="363.71" y="0">x</tspan><tspan x="371.25" y="0">e</tspan><tspan class="cls-15" x="379.29" y="0">c</tspan><tspan class="cls-26" x="386.58" y="0">ution</tspan></text><line class="cls-4" x1="457.84" y1="110.75" x2="457.84" y2="489.93"/><polygon points="446.84 105.25 468.84 105.25 457.84 116.25 446.84 105.25"/><path d="M652.59,489.93H78.15V120.55c0-.83-.67-1.5-1.5-1.5s-1.5.67-1.5,1.5v370.88c0,.55.29,1.02.73,1.28.21.14.46.22.74.22h575.97c.83,0,1.5-.67,1.5-1.5s-.67-1.5-1.5-1.5Z"/><text class="cls-12" transform="translate(316.57 561.47)"><tspan x="0" y="0">time</tspan></text><path class="cls-1" d="M197.24,55.34c-20.55,5.72-32.27,48.18-29.58,60.22"/><path class="cls-8" d="M163.93,112.23c.11-.12.31-.12.42,0l3.3,3.19,1.5-4.34c.05-.16.23-.24.38-.19.16.05.24.23.19.38l-1.65,4.78c-.03.1-.11.17-.21.19-.1.02-.2,0-.28-.08l-3.64-3.52s-.07-.09-.08-.15c-.02-.1,0-.2.08-.28Z"/><path class="cls-1" d="M240.96,65.31c3.55,18.47,46.26,24.63,39.65,51.07"/><path class="cls-8" d="M278.69,111.74c.16-.06.33.03.38.18l1.55,4.32,3.26-3.23c.12-.12.31-.12.42,0,.12.12.11.31,0,.42l-3.59,3.56c-.07.07-.18.1-.28.08-.1-.02-.18-.09-.22-.19l-1.71-4.76c-.02-.06-.02-.11-.01-.17.02-.1.09-.18.19-.22Z"/><path class="cls-1" d="M247.08,57.5c16.82-2.62,82.71,30.47,102.18,58.16"/><path class="cls-8" d="M344.5,114.05c.06-.15.23-.23.39-.17l4.27,1.68-.29-4.58c-.01-.17.12-.31.28-.32.17-.01.31.12.32.28l.32,5.05c0,.1-.04.2-.12.26-.08.06-.19.07-.29.04l-4.71-1.85c-.05-.02-.1-.06-.13-.1-.06-.08-.08-.19-.04-.29Z"/><text class="cls-10" transform="translate(559.77 69.37) rotate(14.95)"><tspan x="0" y="0">beat moments</tspan></text><path class="cls-1" d="M571.66,74.78c-9.16,18.36-75.6,6.18-88.39,40.79"/><path class="cls-8" d="M482.18,110.7c.16-.03.32.08.35.24l.82,4.52,3.74-2.65c.14-.1.32-.06.42.07.1.14.06.32-.07.42l-4.13,2.93c-.08.06-.19.07-.29.03-.09-.04-.16-.12-.18-.22l-.91-4.98c-.01-.06,0-.12.02-.17.04-.09.12-.16.22-.18Z"/><path class="cls-1" d="M578.15,77.51c-9.15,18.33-40.6,12.16-51.77,38.39"/><path class="cls-8" d="M525.43,110.99c.16-.02.32.09.34.25l.68,4.54,3.83-2.53c.14-.09.32-.05.42.08.09.14.05.33-.08.42l-4.22,2.8c-.09.06-.19.07-.29.02-.09-.04-.16-.13-.17-.23l-.75-5.01c0-.06,0-.12.02-.17.04-.09.12-.16.23-.18Z"/><path class="cls-1" d="M585.11,80.04c-4.38,20.1-14.46,16.24-13.5,35.49"/><path class="cls-8" d="M568.63,111.52c.14-.09.32-.06.42.08l2.58,3.8,2.35-3.94c.08-.14.27-.19.41-.1.14.08.19.27.1.41l-2.59,4.35c-.05.09-.15.14-.25.15-.1,0-.2-.05-.26-.13l-2.85-4.19s-.05-.1-.05-.16c0-.1.04-.2.13-.26Z"/><path class="cls-1" d="M593.4,81.75c-9.83,18.7,34.63.73,23.28,35.25"/><path class="cls-8" d="M615.11,112.22c.16-.04.32.05.37.21l1.22,4.43,3.5-2.97c.13-.11.32-.09.42.03.11.13.09.32-.03.42l-3.86,3.28c-.08.07-.18.09-.28.06-.1-.03-.17-.11-.2-.21l-1.34-4.88c-.02-.06-.01-.11,0-.17.03-.09.1-.17.21-.2Z"/><text class="cls-10" transform="translate(85.15 82.31) rotate(8.19)"><tspan x="0" y="0">observed value</tspan></text><path class="cls-1" d="M105.21,89.28c-10.61,15.08,3.44,33.65-3.66,53.53"/><path class="cls-8" d="M100.01,138.02c.16-.04.32.05.37.21l1.18,4.44,3.52-2.95c.13-.11.32-.09.42.04.11.13.09.32-.04.42l-3.88,3.25c-.08.07-.19.09-.28.06s-.17-.11-.2-.21l-1.3-4.89c-.02-.06-.01-.11,0-.17.03-.09.11-.17.21-.2Z"/><path class="cls-1" d="M109.93,89.77c-4.04,18.14,33.33,5.29,29.85,27.24"/><path class="cls-8" d="M137.48,112.54c.15-.07.33,0,.4.15l1.9,4.18,2.98-3.49c.11-.13.3-.14.42-.03.13.11.14.3.03.42l-3.29,3.85c-.07.08-.17.12-.27.1s-.19-.08-.23-.17l-2.09-4.61c-.02-.05-.03-.11-.02-.17.01-.1.08-.19.17-.23Z"/><text class="cls-10" transform="translate(368.17 107.57) rotate(-30.99)"><tspan x="0" y="0">still executing</tspan></text><path class="cls-1" d="M398.17,92.81c4.09,10.59,15.56,5.6,14.69,23.04"/><path class="cls-8" d="M410.07,111.68c.14-.09.33-.04.41.1l2.36,3.93,2.56-3.81c.09-.14.28-.17.42-.08s.17.28.08.42l-2.83,4.2c-.06.08-.15.13-.26.13-.1,0-.2-.06-.25-.15l-2.61-4.34c-.03-.05-.04-.11-.04-.16,0-.1.05-.19.15-.25Z"/><text class="cls-10" transform="translate(201.48 55.78) rotate(10.02)"><tspan x="0" y="0">activations</tspan></text><text class="cls-10" transform="translate(312.56 513.7) rotate(8.19)"><tspan x="0" y="0">measurement window</tspan></text><path class="cls-1" d="M307.42,510.78c-23.83-6.95-95.34,28.79-96.58,1.76"/><path class="cls-8" d="M213.91,516.52c-.14.09-.32.06-.42-.07l-2.62-3.77-2.3,3.97c-.08.14-.27.19-.41.11-.14-.08-.19-.27-.11-.41l2.54-4.38c.05-.09.14-.14.25-.15.1,0,.2.04.26.13l2.89,4.15s.05.1.05.16c0,.1-.04.2-.13.26Z"/><path class="cls-1" d="M395.69,524.21c42.09,20.01,119.8,8.18,127.42-13.6"/><path class="cls-8" d="M524.54,515.41c-.16.04-.32-.06-.36-.22l-1.12-4.45-3.56,2.9c-.13.1-.32.09-.42-.04-.1-.13-.08-.32.04-.42l3.93-3.19c.08-.06.19-.08.28-.05.1.03.17.11.2.21l1.23,4.91c.01.06.01.12,0,.17-.03.09-.11.17-.21.2Z"/><path class="cls-1" d="M343.88,555.23c14.61-3.97,43.42,4.1,71.31.1"/><path class="cls-8" d="M411.47,558.68c-.11-.13-.09-.32.04-.42l3.54-2.92-4.15-1.97c-.15-.07-.21-.25-.14-.4s.25-.21.4-.14l4.57,2.17c.09.04.16.13.17.23.01.1-.03.2-.11.27l-3.9,3.22s-.1.06-.15.07c-.1.01-.2-.02-.27-.11Z"/><text class="cls-11" transform="translate(191.74 92.25) rotate(-16.03)"><tspan x="0" y="0">entropy</tspan></text><path class="cls-1" d="M200.49,93.83c2.05,15.67,22.07,3.94,18.92,29.4"/><path class="cls-8" d="M216.88,118.89c.15-.08.33-.02.4.13l2.11,4.08,2.8-3.63c.1-.13.29-.16.42-.05s.15.29.05.42l-3.09,4.01c-.06.08-.16.12-.26.12-.1,0-.19-.07-.24-.16l-2.32-4.5c-.03-.05-.04-.11-.03-.16,0-.1.07-.19.16-.24Z"/><text class="cls-10" transform="translate(466.07 64.95) rotate(20.77) scale(.94 1)"><tspan x="0" y="0">now</tspan></text><path class="cls-1" d="M468.84,69.12c-12.26,10.79-2.05,15.29-10.74,34.02"/><path class="cls-8" d="M457.09,98.22c.16-.03.32.09.34.25l.71,4.54,3.81-2.56c.14-.09.32-.06.42.08.09.14.05.32-.08.42l-4.2,2.82c-.09.06-.19.07-.29.03-.09-.04-.16-.13-.18-.23l-.78-5c0-.06,0-.12.02-.17.04-.09.12-.16.23-.18Z"/><text class="cls-10" transform="translate(725.17 257.96) rotate(-16.03)"><tspan x="0" y="0">timeline</tspan><tspan x="1.54" y="19.2">tracks</tspan></text><path class="cls-1" d="M735.88,282.21c3.75,23.63-36.93,59.1-74.19,59.56"/><path class="cls-8" d="M665.71,338.75c.09.14.06.32-.08.42l-3.8,2.58,3.94,2.35c.14.08.19.27.1.41s-.27.19-.41.1l-4.35-2.59c-.09-.05-.14-.15-.15-.25,0-.1.05-.2.13-.26l4.19-2.84s.1-.05.16-.05c.1,0,.2.04.26.13Z"/><path class="cls-1" d="M730.04,243.81c-17.22-16.56-27.18-88.02-68.36-81.62"/><path class="cls-8" d="M665.41,158.87c.11.13.09.32-.04.42l-3.55,2.91,4.14,1.99c.15.07.21.25.14.4-.07.15-.25.21-.4.14l-4.56-2.19c-.09-.04-.16-.13-.17-.23-.01-.1.03-.2.11-.27l3.91-3.21s.1-.06.15-.07c.1-.01.2.03.27.11Z"/><path class="cls-1" d="M718.37,269.41c-21.88,8.98-22.21-27.75-58.95-28.23"/><path class="cls-8" d="M663.61,238.44c.08.14.04.33-.1.41l-3.95,2.34,3.79,2.59c.14.09.17.28.08.42s-.28.17-.42.08l-4.18-2.85c-.08-.06-.13-.15-.13-.26,0-.1.06-.2.15-.25l4.35-2.58c.05-.03.11-.04.16-.04.1,0,.19.06.25.15Z"/></svg>