<?xml version="1.0" encoding="UTF-8"?><svg id="Layer_1" xmlns="http://www.w3.org/2000/svg" viewBox="0 0 730.05 490.45"><defs><style>.cls-1{letter-spacing:-.01em;}.cls-2{letter-spacing:-.02em;}.cls-3{fill:#4d4d4d;}.cls-4{letter-spacing:0em;}.cls-5{font-family:Bahnschrift-Bold, Bahnschrift;font-variation-settings:'wght' 700, 'wdth' 100;font-weight:700;}.cls-5,.cls-6{font-size:15px;}.cls-7{fill:#ccc;}.cls-8{letter-spacing:-.03em;}.cls-6,.cls-9{font-family:Bahnschrift, Bahnschrift;font-variation-settings:'wght' 400, 'wdth' 100;}.cls-10{letter-spacing:-.01em;}.cls-9{font-size:8px;}</style></defs><text class="cls-6" transform="translate(155.75 92.11)"><tspan class="cls-2" x="0" y="0">4</tspan><tspan x="8.17" y="0">1</tspan></text><text class="cls-6" transform="translate(244.84 92.11)"><tspan x="0" y="0">39</tspan></text><text class="cls-6" transform="translate(380.33 92.11)"><tspan x="0" y="0">36</tspan></text><text class="cls-6" transform="translate(109.02 118.49)"><tspan x="0" y="0">42</tspan></text><text class="cls-6" transform="translate(289.63 118.49)"><tspan x="0" y="0">38</tspan></text><text class="cls-6" transform="translate(380.33 118.49)"><tspan x="0" y="0">36</tspan></text><text class="cls-6" transform="translate(199.08 144.86)"><tspan x="0" y="0">40</tspan></text><text class="cls-6" transform="translate(380.33 144.86)"><tspan x="0" y="0">36</tspan></text><text class="cls-6" transform="translate(199.08 171.24)"><tspan x="0" y="0">40</tspan></text><text class="cls-6" transform="translate(335.24 171.24)"><tspan x="0" y="0">37</tspan></text><text class="cls-6" transform="translate(244.84 197.62)"><tspan x="0" y="0">39</tspan></text><text class="cls-6" transform="translate(380.33 197.62)"><tspan x="0" y="0">36</tspan></text><text class="cls-6" transform="translate(109.02 224)"><tspan x="0" y="0">42</tspan></text><text class="cls-6" transform="translate(289.63 224)"><tspan x="0" y="0">38</tspan></text><text class="cls-6" transform="translate(155.75 250.38)"><tspan class="cls-2" x="0" y="0">4</tspan><tspan x="8.17" y="0">1</tspan></text><text class="cls-6" transform="translate(289.63 250.38)"><tspan x="0" y="0">38</tspan></text><text class="cls-6" transform="translate(425.26 250.38)"><tspan x="0" y="0">35</tspan></text><text class="cls-6" transform="translate(102.54 276.75)"><tspan x="0" y="0">1457</tspan></text><text class="cls-6" transform="translate(240.85 276.75)"><tspan x="0" y="0">256</tspan></text><text class="cls-6" transform="translate(199.08 303.13)"><tspan x="0" y="0">40</tspan></text><text class="cls-6" transform="translate(425.26 303.13)"><tspan x="0" y="0">35</tspan></text><text class="cls-6" transform="translate(155.75 329.51)"><tspan class="cls-2" x="0" y="0">4</tspan><tspan x="8.17" y="0">1</tspan></text><text class="cls-6" transform="translate(335.24 329.51)"><tspan x="0" y="0">37</tspan></text><text class="cls-6" transform="translate(425.26 329.51)"><tspan x="0" y="0">35</tspan></text><text class="cls-6" transform="translate(109.02 355.89)"><tspan x="0" y="0">42</tspan></text><text class="cls-6" transform="translate(244.84 355.89)"><tspan x="0" y="0">39</tspan></text><text class="cls-6" transform="translate(380.33 355.89)"><tspan x="0" y="0">36</tspan></text><text class="cls-6" transform="translate(199.08 382.26)"><tspan x="0" y="0">40</tspan></text><text class="cls-6" transform="translate(289.63 382.26)"><tspan x="0" y="0">38</tspan></text><text class="cls-6" transform="translate(425.26 382.26)"><tspan x="0" y="0">35</tspan></text><text class="cls-6" transform="translate(515.71 382.26)"><tspan x="0" y="0">33</tspan></text><text class="cls-6" transform="translate(199.08 408.64)"><tspan x="0" y="0">40</tspan></text><text class="cls-6" transform="translate(380.33 408.64)"><tspan x="0" y="0">36</tspan></text><text class="cls-6" transform="translate(199.08 435.02)"><tspan x="0" y="0">40</tspan></text><text class="cls-6" transform="translate(289.63 435.02)"><tspan x="0" y="0">38</tspan></text><text class="cls-6" transform="translate(380.33 435.02)"><tspan x="0" y="0">36</tspan></text><text class="cls-6" transform="translate(515.71 435.02)"><tspan x="0" y="0">33</tspan></text><text class="cls-6" transform="translate(470.24 171.24)"><tspan x="0" y="0">34</tspan></text><text class="cls-6" transform="translate(470.24 224)"><tspan x="0" y="0">34</tspan></text><text class="cls-6" transform="translate(462.37 276.75)"><tspan class="cls-8" x="0" y="0">2</tspan><tspan x="7.31" y="0">438</tspan></text><text class="cls-6" transform="translate(515.71 408.64)"><tspan x="0" y="0">33</tspan></text><text class="cls-6" transform="translate(108.25 463.94)"><tspan x="0" y="0">42</tspan></text><text class="cls-6" transform="translate(155.73 463.94)"><tspan class="cls-2" x="0" y="0">4</tspan><tspan x="8.17" y="0">1</tspan></text><text class="cls-6" transform="translate(201.4 463.94)"><tspan x="0" y="0">40</tspan></text><text class="cls-6" transform="translate(244.84 463.94)"><tspan x="0" y="0">39</tspan></text><text class="cls-6" transform="translate(289.63 463.94)"><tspan x="0" y="0">38</tspan></text><text class="cls-6" transform="translate(335.24 463.94)"><tspan x="0" y="0">37</tspan></text><text class="cls-6" transform="translate(380.33 463.94)"><tspan x="0" y="0">36</tspan></text><text class="cls-6" transform="translate(425.26 463.94)"><tspan x="0" y="0">35</tspan></text><text class="cls-6" transform="translate(470.24 463.94)"><tspan x="0" y="0">34</tspan></text><text class="cls-6" transform="translate(515.71 463.94)"><tspan x="0" y="0">33</tspan></text><path class="cls-7" d="M673.07,99.83c.28,0,.5-.22.5-.5s-.22-.5-.5-.5H66.82c-.28,0-.5.22-.5.5s.22.5.5.5h606.24"/><path class="cls-7" d="M673.07,126.31c.28,0,.5-.22.5-.5s-.22-.5-.5-.5H66.82c-.28,0-.5.22-.5.5s.22.5.5.5h606.24"/><path class="cls-7" d="M673.07,152.79c.28,0,.5-.22.5-.5s-.22-.5-.5-.5H66.82c-.28,0-.5.22-.5.5s.22.5.5.5h606.24"/><path class="cls-7" d="M673.07,179.27c.28,0,.5-.22.5-.5s-.22-.5-.5-.5H66.82c-.28,0-.5.22-.5.5s.22.5.5.5h606.24"/><path class="cls-7" d="M673.07,205.75c.28,0,.5-.22.5-.5s-.22-.5-.5-.5H66.82c-.28,0-.5.22-.5.5s.22.5.5.5h606.24"/><path class="cls-7" d="M673.07,232.24c.28,0,.5-.22.5-.5s-.22-.5-.5-.5H66.82c-.28,0-.5.22-.5.5s.22.5.5.5h606.24"/><path class="cls-7" d="M673.07,258.72c.28,0,.5-.22.5-.5s-.22-.5-.5-.5H66.82c-.28,0-.5.22-.5.5s.22.5.5.5h606.24"/><path class="cls-7" d="M673.07,285.2c.28,0,.5-.22.5-.5s-.22-.5-.5-.5H66.82c-.28,0-.5.22-.5.5s.22.5.5.5h606.24"/><path class="cls-7" d="M673.07,311.68c.28,0,.5-.22.5-.5s-.22-.5-.5-.5H66.82c-.28,0-.5.22-.5.5s.22.5.5.5h606.24"/><path class="cls-7" d="M673.07,338.16c.28,0,.5-.22.5-.5s-.22-.5-.5-.5H66.82c-.28,0-.5.22-.5.5s.22.5.5.5h606.24"/><path class="cls-7" d="M673.07,364.64c.28,0,.5-.22.5-.5s-.22-.5-.5-.5H66.82c-.28,0-.5.22-.5.5s.22.5.5.5h606.24"/><path class="cls-7" d="M673.07,391.12c.28,0,.5-.22.5-.5s-.22-.5-.5-.5H66.82c-.28,0-.5.22-.5.5s.22.5.5.5h606.24"/><path class="cls-7" d="M673.07,417.61c.28,0,.5-.22.5-.5s-.22-.5-.5-.5H66.82c-.28,0-.5.22-.5.5s.22.5.5.5h606.24"/><path class="cls-7" d="M636.91,73.71c0-.28-.22-.5-.5-.5s-.5.22-.5.5v5c0,.28.22.5.5.5s.5-.22.5-.5v-5M636.91,83.71c0-.28-.22-.5-.5-.5s-.5.22-.5.5v5c0,.28.22.5.5.5s.5-.22.5-.5v-5M636.91,93.71c0-.28-.22-.5-.5-.5s-.5.22-.5.5v5c0,.28.22.5.5.5s.5-.22.5-.5v-5M636.91,103.71c0-.28-.22-.5-.5-.5s-.5.22-.5.5v5c0,.28.22.5.5.5s.5-.22.5-.5v-5M636.91,113.71c0-.28-.22-.5-.5-.5s-.5.22-.5.5v5c0,.28.22.5.5.5s.5-.22.5-.5v-5M636.91,123.71c0-.28-.22-.5-.5-.5s-.5.22-.5.5v5c0,.28.22.5.5.5s.5-.22.5-.5v-5M636.91,133.71c0-.28-.22-.5-.5-.5s-.5.22-.5.5v5c0,.28.22.5.5.5s.5-.22.5-.5v-5M636.91,143.71c0-.28-.22-.5-.5-.5s-.5.22-.5.5v5c0,.28.22.5.5.5s.5-.22.5-.5v-5M636.91,153.71c0-.28-.22-.5-.5-.5s-.5.22-.5.5v5c0,.28.22.5.5.5s.5-.22.5-.5v-5M636.91,163.71c0-.28-.22-.5-.5-.5s-.5.22-.5.5v5c0,.28.22.5.5.5s.5-.22.5-.5v-5M636.91,173.71c0-.28-.22-.5-.5-.5s-.5.22-.5.5v5c0,.28.22.5.5.5s.5-.22.5-.5v-5M636.91,183.71c0-.28-.22-.5-.5-.5s-.5.22-.5.5v5c0,.28.22.5.5.5s.5-.22.5-.5v-5M636.91,193.71c0-.28-.22-.5-.5-.5s-.5.22-.5.5v5c0,.28.22.5.5.5s.5-.22.5-.5v-5M636.91,203.71c0-.28-.22-.5-.5-.5s-.5.22-.5.5v5c0,.28.22.5.5.5s.5-.22.5-.5v-5M636.91,213.71c0-.28-.22-.5-.5-.5s-.5.22-.5.5v5c0,.28.22.5.5.5s.5-.22.5-.5v-5M636.91,223.71c0-.28-.22-.5-.5-.5s-.5.22-.5.5v5c0,.28.22.5.5.5s.5-.22.5-.5v-5M636.91,233.71c0-.28-.22-.5-.5-.5s-.5.22-.5.5v5c0,.28.22.5.5.5s.5-.22.5-.5v-5M636.91,243.71c0-.28-.22-.5-.5-.5s-.5.22-.5.5v5c0,.28.22.5.5.5s.5-.22.5-.5v-5M636.91,253.71c0-.28-.22-.5-.5-.5s-.5.22-.5.5v5c0,.28.22.5.5.5s.5-.22.5-.5v-5M636.91,263.71c0-.28-.22-.5-.5-.5s-.5.22-.5.5v5c0,.28.22.5.5.5s.5-.22.5-.5v-5M636.91,273.71c0-.28-.22-.5-.5-.5s-.5.22-.5.5v5c0,.28.22.5.5.5s.5-.22.5-.5v-5M636.91,283.71c0-.28-.22-.5-.5-.5s-.5.22-.5.5v5c0,.28.22.5.5.5s.5-.22.5-.5v-5M636.91,293.71c0-.28-.22-.5-.5-.5s-.5.22-.5.5v5c0,.28.22.5.5.5s.5-.22.5-.5v-5M636.91,303.71c0-.28-.22-.5-.5-.5s-.5.22-.5.5v5c0,.28.22.5.5.5s.5-.22.5-.5v-5M636.91,313.71c0-.28-.22-.5-.5-.5s-.5.22-.5.5v5c0,.28.22.5.5.5s.5-.22.5-.5v-5M636.91,323.71c0-.28-.22-.5-.5-.5s-.5.22-.5.5v5c0,.28.22.5.5.5s.5-.22.5-.5v-5M636.91,333.71c0-.28-.22-.5-.5-.5s-.5.22-.5.5v5c0,.28.22.5.5.5s.5-.22.5-.5v-5M636.91,343.71c0-.28-.22-.5-.5-.5s-.5.22-.5.5v5c0,.28.22.5.5.5s.5-.22.5-.5v-5M636.91,353.71c0-.28-.22-.5-.5-.5s-.5.22-.5.5v5c0,.28.22.5.5.5s.5-.22.5-.5v-5M636.91,363.71c0-.28-.22-.5-.5-.5s-.5.22-.5.5v5c0,.28.22.5.5.5s.5-.22.5-.5v-5M636.91,373.71c0-.28-.22-.5-.5-.5s-.5.22-.5.5v5c0,.28.22.5.5.5s.5-.22.5-.5v-5M636.91,383.71c0-.28-.22-.5-.5-.5s-.5.22-.5.5v5c0,.28.22.5.5.5s.5-.22.5-.5v-5M636.91,393.71c0-.28-.22-.5-.5-.5s-.5.22-.5.5v5c0,.28.22.5.5.5s.5-.22.5-.5v-5M636.91,403.71c0-.28-.22-.5-.5-.5s-.5.22-.5.5v5c0,.28.22.5.5.5s.5-.22.5-.5v-5M636.91,413.71c0-.28-.22-.5-.5-.5s-.5.22-.5.5v5c0,.28.22.5.5.5s.5-.22.5-.5v-5M636.91,423.71c0-.28-.22-.5-.5-.5s-.5.22-.5.5v5c0,.28.22.5.5.5s.5-.22.5-.5v-5M636.91,433.71c0-.28-.22-.5-.5-.5s-.5.22-.5.5v5c0,.28.22.5.5.5s.5-.22.5-.5v-5"/><path class="cls-7" d="M141.65,73.71c0-.28-.22-.5-.5-.5s-.5.22-.5.5v5c0,.28.22.5.5.5s.5-.22.5-.5v-5M141.65,83.71c0-.28-.22-.5-.5-.5s-.5.22-.5.5v5c0,.28.22.5.5.5s.5-.22.5-.5v-5M141.65,93.71c0-.28-.22-.5-.5-.5s-.5.22-.5.5v5c0,.28.22.5.5.5s.5-.22.5-.5v-5M141.65,103.71c0-.28-.22-.5-.5-.5s-.5.22-.5.5v5c0,.28.22.5.5.5s.5-.22.5-.5v-5M141.65,113.71c0-.28-.22-.5-.5-.5s-.5.22-.5.5v5c0,.28.22.5.5.5s.5-.22.5-.5v-5M141.65,123.71c0-.28-.22-.5-.5-.5s-.5.22-.5.5v5c0,.28.22.5.5.5s.5-.22.5-.5v-5M141.65,133.71c0-.28-.22-.5-.5-.5s-.5.22-.5.5v5c0,.28.22.5.5.5s.5-.22.5-.5v-5M141.65,143.71c0-.28-.22-.5-.5-.5s-.5.22-.5.5v5c0,.28.22.5.5.5s.5-.22.5-.5v-5M141.65,153.71c0-.28-.22-.5-.5-.5s-.5.22-.5.5v5c0,.28.22.5.5.5s.5-.22.5-.5v-5M141.65,163.71c0-.28-.22-.5-.5-.5s-.5.22-.5.5v5c0,.28.22.5.5.5s.5-.22.5-.5v-5M141.65,173.71c0-.28-.22-.5-.5-.5s-.5.22-.5.5v5c0,.28.22.5.5.5s.5-.22.5-.5v-5M141.65,183.71c0-.28-.22-.5-.5-.5s-.5.22-.5.5v5c0,.28.22.5.5.5s.5-.22.5-.5v-5M141.65,193.71c0-.28-.22-.5-.5-.5s-.5.22-.5.5v5c0,.28.22.5.5.5s.5-.22.5-.5v-5M141.65,203.71c0-.28-.22-.5-.5-.5s-.5.22-.5.5v5c0,.28.22.5.5.5s.5-.22.5-.5v-5M141.65,213.71c0-.28-.22-.5-.5-.5s-.5.22-.5.5v5c0,.28.22.5.5.5s.5-.22.5-.5v-5M141.65,223.71c0-.28-.22-.5-.5-.5s-.5.22-.5.5v5c0,.28.22.5.5.5s.5-.22.5-.5v-5M141.65,233.71c0-.28-.22-.5-.5-.5s-.5.22-.5.5v5c0,.28.22.5.5.5s.5-.22.5-.5v-5M141.65,243.71c0-.28-.22-.5-.5-.5s-.5.22-.5.5v5c0,.28.22.5.5.5s.5-.22.5-.5v-5M141.65,253.71c0-.28-.22-.5-.5-.5s-.5.22-.5.5v5c0,.28.22.5.5.5s.5-.22.5-.5v-5M141.65,263.71c0-.28-.22-.5-.5-.5s-.5.22-.5.5v5c0,.28.22.5.5.5s.5-.22.5-.5v-5M141.65,273.71c0-.28-.22-.5-.5-.5s-.5.22-.5.5v5c0,.28.22.5.5.5s.5-.22.5-.5v-5M141.65,283.71c0-.28-.22-.5-.5-.5s-.5.22-.5.5v5c0,.28.22.5.5.5s.5-.22.5-.5v-5M141.65,293.71c0-.28-.22-.5-.5-.5s-.5.22-.5.5v5c0,.28.22.5.5.5s.5-.22.5-.5v-5M141.65,303.71c0-.28-.22-.5-.5-.5s-.5.22-.5.5v5c0,.28.22.5.5.5s.5-.22.5-.5v-5M141.65,313.71c0-.28-.22-.5-.5-.5s-.5.22-.5.5v5c0,.28.22.5.5.5s.5-.22.5-.5v-5M141.65,323.71c0-.28-.22-.5-.5-.5s-.5.22-.5.5v5c0,.28.22.5.5.5s.5-.22.5-.5v-5M141.65,333.71c0-.28-.22-.5-.5-.5s-.5.22-.5.5v5c0,.28.22.5.5.5s.5-.22.5-.5v-5M141.65,343.71c0-.28-.22-.5-.5-.5s-.5.22-.5.5v5c0,.28.22.5.5.5s.5-.22.5-.5v-5M141.65,353.71c0-.28-.22-.5-.5-.5s-.5.22-.5.5v5c0,.28.22.5.5.5s.5-.22.5-.5v-5M141.65,363.71c0-.28-.22-.5-.5-.5s-.5.22-.5.5v5c0,.28.22.5.5.5s.5-.22.5-.5v-5M141.65,373.71c0-.28-.22-.5-.5-.5s-.5.22-.5.5v5c0,.28.22.5.5.5s.5-.22.5-.5v-5M141.65,383.71c0-.28-.22-.5-.5-.5s-.5.22-.5.5v5c0,.28.22.5.5.5s.5-.22.5-.5v-5M141.65,393.71c0-.28-.22-.5-.5-.5s-.5.22-.5.5v5c0,.28.22.5.5.5s.5-.22.5-.5v-5M141.65,403.71c0-.28-.22-.5-.5-.5s-.5.22-.5.5v5c0,.28.22.5.5.5s.5-.22.5-.5v-5M141.65,413.71c0-.28-.22-.5-.5-.5s-.5.22-.5.5v5c0,.28.22.5.5.5s.5-.22.5-.5v-5M141.65,423.71c0-.28-.22-.5-.5-.5s-.5.22-.5.5v5c0,.28.22.5.5.5s.5-.22.5-.5v-5M141.65,433.71c0-.28-.22-.5-.5-.5s-.5.22-.5.5v5c0,.28.22.5.5.5s.5-.22.5-.5v-5"/><path class="cls-7" d="M186.67,73.71c0-.28-.22-.5-.5-.5s-.5.22-.5.5v5c0,.28.22.5.5.5s.5-.22.5-.5v-5M186.67,83.71c0-.28-.22-.5-.5-.5s-.5.22-.5.5v5c0,.28.22.5.5.5s.5-.22.5-.5v-5M186.67,93.71c0-.28-.22-.5-.5-.5s-.5.22-.5.5v5c0,.28.22.5.5.5s.5-.22.5-.5v-5M186.67,103.71c0-.28-.22-.5-.5-.5s-.5.22-.5.5v5c0,.28.22.5.5.5s.5-.22.5-.5v-5M186.67,113.71c0-.28-.22-.5-.5-.5s-.5.22-.5.5v5c0,.28.22.5.5.5s.5-.22.5-.5v-5M186.67,123.71c0-.28-.22-.5-.5-.5s-.5.22-.5.5v5c0,.28.22.5.5.5s.5-.22.5-.5v-5M186.67,133.71c0-.28-.22-.5-.5-.5s-.5.22-.5.5v5c0,.28.22.5.5.5s.5-.22.5-.5v-5M186.67,143.71c0-.28-.22-.5-.5-.5s-.5.22-.5.5v5c0,.28.22.5.5.5s.5-.22.5-.5v-5M186.67,153.71c0-.28-.22-.5-.5-.5s-.5.22-.5.5v5c0,.28.22.5.5.5s.5-.22.5-.5v-5M186.67,163.71c0-.28-.22-.5-.5-.5s-.5.22-.5.5v5c0,.28.22.5.5.5s.5-.22.5-.5v-5M186.67,173.71c0-.28-.22-.5-.5-.5s-.5.22-.5.5v5c0,.28.22.5.5.5s.5-.22.5-.5v-5M186.67,183.71c0-.28-.22-.5-.5-.5s-.5.22-.5.5v5c0,.28.22.5.5.5s.5-.22.5-.5v-5M186.67,193.71c0-.28-.22-.5-.5-.5s-.5.22-.5.5v5c0,.28.22.5.5.5s.5-.22.5-.5v-5M186.67,203.71c0-.28-.22-.5-.5-.5s-.5.22-.5.5v5c0,.28.22.5.5.5s.5-.22.5-.5v-5M186.67,213.71c0-.28-.22-.5-.5-.5s-.5.22-.5.5v5c0,.28.22.5.5.5s.5-.22.5-.5v-5M186.67,223.71c0-.28-.22-.5-.5-.5s-.5.22-.5.5v5c0,.28.22.5.5.5s.5-.22.5-.5v-5M186.67,233.71c0-.28-.22-.5-.5-.5s-.5.22-.5.5v5c0,.28.22.5.5.5s.5-.22.5-.5v-5M186.67,243.71c0-.28-.22-.5-.5-.5s-.5.22-.5.5v5c0,.28.22.5.5.5s.5-.22.5-.5v-5M186.67,253.71c0-.28-.22-.5-.5-.5s-.5.22-.5.5v5c0,.28.22.5.5.5s.5-.22.5-.5v-5M186.67,263.71c0-.28-.22-.5-.5-.5s-.5.22-.5.5v5c0,.28.22.5.5.5s.5-.22.5-.5v-5M186.67,273.71c0-.28-.22-.5-.5-.5s-.5.22-.5.5v5c0,.28.22.5.5.5s.5-.22.5-.5v-5M186.67,283.71c0-.28-.22-.5-.5-.5s-.5.22-.5.5v5c0,.28.22.5.5.5s.5-.22.5-.5v-5M186.67,293.71c0-.28-.22-.5-.5-.5s-.5.22-.5.5v5c0,.28.22.5.5.5s.5-.22.5-.5v-5M186.67,303.71c0-.28-.22-.5-.5-.5s-.5.22-.5.5v5c0,.28.22.5.5.5s.5-.22.5-.5v-5M186.67,313.71c0-.28-.22-.5-.5-.5s-.5.22-.5.5v5c0,.28.22.5.5.5s.5-.22.5-.5v-5M186.67,323.71c0-.28-.22-.5-.5-.5s-.5.22-.5.5v5c0,.28.22.5.5.5s.5-.22.5-.5v-5M186.67,333.71c0-.28-.22-.5-.5-.5s-.5.22-.5.5v5c0,.28.22.5.5.5s.5-.22.5-.5v-5M186.67,343.71c0-.28-.22-.5-.5-.5s-.5.22-.5.5v5c0,.28.22.5.5.5s.5-.22.5-.5v-5M186.67,353.71c0-.28-.22-.5-.5-.5s-.5.22-.5.5v5c0,.28.22.5.5.5s.5-.22.5-.5v-5M186.67,363.71c0-.28-.22-.5-.5-.5s-.5.22-.5.5v5c0,.28.22.5.5.5s.5-.22.5-.5v-5M186.67,373.71c0-.28-.22-.5-.5-.5s-.5.22-.5.5v5c0,.28.22.5.5.5s.5-.22.5-.5v-5M186.67,383.71c0-.28-.22-.5-.5-.5s-.5.22-.5.5v5c0,.28.22.5.5.5s.5-.22.5-.5v-5M186.67,393.71c0-.28-.22-.5-.5-.5s-.5.22-.5.5v5c0,.28.22.5.5.5s.5-.22.5-.5v-5M186.67,403.71c0-.28-.22-.5-.5-.5s-.5.22-.5.5v5c0,.28.22.5.5.5s.5-.22.5-.5v-5M186.67,413.71c0-.28-.22-.5-.5-.5s-.5.22-.5.5v5c0,.28.22.5.5.5s.5-.22.5-.5v-5M186.67,423.71c0-.28-.22-.5-.5-.5s-.5.22-.5.5v5c0,.28.22.5.5.5s.5-.22.5-.5v-5M186.67,433.71c0-.28-.22-.5-.5-.5s-.5.22-.5.5v5c0,.28.22.5.5.5s.5-.22.5-.5v-5"/><path class="cls-7" d="M276.72,73.71c0-.28-.22-.5-.5-.5s-.5.22-.5.5v5c0,.28.22.5.5.5s.5-.22.5-.5v-5M276.72,83.71c0-.28-.22-.5-.5-.5s-.5.22-.5.5v5c0,.28.22.5.5.5s.5-.22.5-.5v-5M276.72,93.71c0-.28-.22-.5-.5-.5s-.5.22-.5.5v5c0,.28.22.5.5.5s.5-.22.5-.5v-5M276.72,103.71c0-.28-.22-.5-.5-.5s-.5.22-.5.5v5c0,.28.22.5.5.5s.5-.22.5-.5v-5M276.72,113.71c0-.28-.22-.5-.5-.5s-.5.22-.5.5v5c0,.28.22.5.5.5s.5-.22.5-.5v-5M276.72,123.71c0-.28-.22-.5-.5-.5s-.5.22-.5.5v5c0,.28.22.5.5.5s.5-.22.5-.5v-5M276.72,133.71c0-.28-.22-.5-.5-.5s-.5.22-.5.5v5c0,.28.22.5.5.5s.5-.22.5-.5v-5M276.72,143.71c0-.28-.22-.5-.5-.5s-.5.22-.5.5v5c0,.28.22.5.5.5s.5-.22.5-.5v-5M276.72,153.71c0-.28-.22-.5-.5-.5s-.5.22-.5.5v5c0,.28.22.5.5.5s.5-.22.5-.5v-5M276.72,163.71c0-.28-.22-.5-.5-.5s-.5.22-.5.5v5c0,.28.22.5.5.5s.5-.22.5-.5v-5M276.72,173.71c0-.28-.22-.5-.5-.5s-.5.22-.5.5v5c0,.28.22.5.5.5s.5-.22.5-.5v-5M276.72,183.71c0-.28-.22-.5-.5-.5s-.5.22-.5.5v5c0,.28.22.5.5.5s.5-.22.5-.5v-5M276.72,193.71c0-.28-.22-.5-.5-.5s-.5.22-.5.5v5c0,.28.22.5.5.5s.5-.22.5-.5v-5M276.72,203.71c0-.28-.22-.5-.5-.5s-.5.22-.5.5v5c0,.28.22.5.5.5s.5-.22.5-.5v-5M276.72,213.71c0-.28-.22-.5-.5-.5s-.5.22-.5.5v5c0,.28.22.5.5.5s.5-.22.5-.5v-5M276.72,223.71c0-.28-.22-.5-.5-.5s-.5.22-.5.5v5c0,.28.22.5.5.5s.5-.22.5-.5v-5M276.72,233.71c0-.28-.22-.5-.5-.5s-.5.22-.5.5v5c0,.28.22.5.5.5s.5-.22.5-.5v-5M276.72,243.71c0-.28-.22-.5-.5-.5s-.5.22-.5.5v5c0,.28.22.5.5.5s.5-.22.5-.5v-5M276.72,253.71c0-.28-.22-.5-.5-.5s-.5.22-.5.5v5c0,.28.22.5.5.5s.5-.22.5-.5v-5M276.72,263.71c0-.28-.22-.5-.5-.5s-.5.22-.5.5v5c0,.28.22.5.5.5s.5-.22.5-.5v-5M276.72,273.71c0-.28-.22-.5-.5-.5s-.5.22-.5.5v5c0,.28.22.5.5.5s.5-.22.5-.5v-5M276.72,283.71c0-.28-.22-.5-.5-.5s-.5.22-.5.5v5c0,.28.22.5.5.5s.5-.22.5-.5v-5M276.72,293.71c0-.28-.22-.5-.5-.5s-.5.22-.5.5v5c0,.28.22.5.5.5s.5-.22.5-.5v-5M276.72,303.71c0-.28-.22-.5-.5-.5s-.5.22-.5.5v5c0,.28.22.5.5.5s.5-.22.5-.5v-5M276.72,313.71c0-.28-.22-.5-.5-.5s-.5.22-.5.5v5c0,.28.22.5.5.5s.5-.22.5-.5v-5M276.72,323.71c0-.28-.22-.5-.5-.5s-.5.22-.5.5v5c0,.28.22.5.5.5s.5-.22.5-.5v-5M276.72,333.71c0-.28-.22-.5-.5-.5s-.5.22-.5.5v5c0,.28.22.5.5.5s.5-.22.5-.5v-5M276.72,343.71c0-.28-.22-.5-.5-.5s-.5.22-.5.5v5c0,.28.22.5.5.5s.5-.22.5-.5v-5M276.72,353.71c0-.28-.22-.5-.5-.5s-.5.22-.5.5v5c0,.28.22.5.5.5s.5-.22.5-.5v-5M276.72,363.71c0-.28-.22-.5-.5-.5s-.5.22-.5.5v5c0,.28.22.5.5.5s.5-.22.5-.5v-5M276.72,373.71c0-.28-.22-.5-.5-.5s-.5.22-.5.5v5c0,.28.22.5.5.5s.5-.22.5-.5v-5M276.72,383.71c0-.28-.22-.5-.5-.5s-.5.22-.5.5v5c0,.28.22.5.5.5s.5-.22.5-.5v-5M276.72,393.71c0-.28-.22-.5-.5-.5s-.5.22-.5.5v5c0,.28.22.5.5.5s.5-.22.5-.5v-5M276.72,403.71c0-.28-.22-.5-.5-.5s-.5.22-.5.5v5c0,.28.22.5.5.5s.5-.22.5-.5v-5M276.72,413.71c0-.28-.22-.5-.5-.5s-.5.22-.5.5v5c0,.28.22.5.5.5s.5-.22.5-.5v-5M276.72,423.71c0-.28-.22-.5-.5-.5s-.5.22-.5.5v5c0,.28.22.5.5.5s.5-.22.5-.5v-5M276.72,433.71c0-.28-.22-.5-.5-.5s-.5.22-.5.5v5c0,.28.22.5.5.5s.5-.22.5-.5v-5"/><path class="cls-7" d="M321.74,73.71c0-.28-.22-.5-.5-.5s-.5.22-.5.5v5c0,.28.22.5.5.5s.5-.22.5-.5v-5M321.74,83.71c0-.28-.22-.5-.5-.5s-.5.22-.5.5v5c0,.28.22.5.5.5s.5-.22.5-.5v-5M321.74,93.71c0-.28-.22-.5-.5-.5s-.5.22-.5.5v5c0,.28.22.5.5.5s.5-.22.5-.5v-5M321.74,103.71c0-.28-.22-.5-.5-.5s-.5.22-.5.5v5c0,.28.22.5.5.5s.5-.22.5-.5v-5M321.74,113.71c0-.28-.22-.5-.5-.5s-.5.22-.5.5v5c0,.28.22.5.5.5s.5-.22.5-.5v-5M321.74,123.71c0-.28-.22-.5-.5-.5s-.5.22-.5.5v5c0,.28.22.5.5.5s.5-.22.5-.5v-5M321.74,133.71c0-.28-.22-.5-.5-.5s-.5.22-.5.5v5c0,.28.22.5.5.5s.5-.22.5-.5v-5M321.74,143.71c0-.28-.22-.5-.5-.5s-.5.22-.5.5v5c0,.28.22.5.5.5s.5-.22.5-.5v-5M321.74,153.71c0-.28-.22-.5-.5-.5s-.5.22-.5.5v5c0,.28.22.5.5.5s.5-.22.5-.5v-5M321.74,163.71c0-.28-.22-.5-.5-.5s-.5.22-.5.5v5c0,.28.22.5.5.5s.5-.22.5-.5v-5M321.74,173.71c0-.28-.22-.5-.5-.5s-.5.22-.5.5v5c0,.28.22.5.5.5s.5-.22.5-.5v-5M321.74,183.71c0-.28-.22-.5-.5-.5s-.5.22-.5.5v5c0,.28.22.5.5.5s.5-.22.5-.5v-5M321.74,193.71c0-.28-.22-.5-.5-.5s-.5.22-.5.5v5c0,.28.22.5.5.5s.5-.22.5-.5v-5M321.74,203.71c0-.28-.22-.5-.5-.5s-.5.22-.5.5v5c0,.28.22.5.5.5s.5-.22.5-.5v-5M321.74,213.71c0-.28-.22-.5-.5-.5s-.5.22-.5.5v5c0,.28.22.5.5.5s.5-.22.5-.5v-5M321.74,223.71c0-.28-.22-.5-.5-.5s-.5.22-.5.5v5c0,.28.22.5.5.5s.5-.22.5-.5v-5M321.74,233.71c0-.28-.22-.5-.5-.5s-.5.22-.5.5v5c0,.28.22.5.5.5s.5-.22.5-.5v-5M321.74,243.71c0-.28-.22-.5-.5-.5s-.5.22-.5.5v5c0,.28.22.5.5.5s.5-.22.5-.5v-5M321.74,253.71c0-.28-.22-.5-.5-.5s-.5.22-.5.5v5c0,.28.22.5.5.5s.5-.22.5-.5v-5M321.74,263.71c0-.28-.22-.5-.5-.5s-.5.22-.5.5v5c0,.28.22.5.5.5s.5-.22.5-.5v-5M321.74,273.71c0-.28-.22-.5-.5-.5s-.5.22-.5.5v5c0,.28.22.5.5.5s.5-.22.5-.5v-5M321.74,283.71c0-.28-.22-.5-.5-.5s-.5.22-.5.5v5c0,.28.22.5.5.5s.5-.22.5-.5v-5M321.74,293.71c0-.28-.22-.5-.5-.5s-.5.22-.5.5v5c0,.28.22.5.5.5s.5-.22.5-.5v-5M321.74,303.71c0-.28-.22-.5-.5-.5s-.5.22-.5.5v5c0,.28.22.5.5.5s.5-.22.5-.5v-5M321.74,313.71c0-.28-.22-.5-.5-.5s-.5.22-.5.5v5c0,.28.22.5.5.5s.5-.22.5-.5v-5M321.74,323.71c0-.28-.22-.5-.5-.5s-.5.22-.5.5v5c0,.28.22.5.5.5s.5-.22.5-.5v-5M321.74,333.71c0-.28-.22-.5-.5-.5s-.5.22-.5.5v5c0,.28.22.5.5.5s.5-.22.5-.5v-5M321.74,343.71c0-.28-.22-.5-.5-.5s-.5.22-.5.5v5c0,.28.22.5.5.5s.5-.22.5-.5v-5M321.74,353.71c0-.28-.22-.5-.5-.5s-.5.22-.5.5v5c0,.28.22.5.5.5s.5-.22.5-.5v-5M321.74,363.71c0-.28-.22-.5-.5-.5s-.5.22-.5.5v5c0,.28.22.5.5.5s.5-.22.5-.5v-5M321.74,373.71c0-.28-.22-.5-.5-.5s-.5.22-.5.5v5c0,.28.22.5.5.5s.5-.22.5-.5v-5M321.74,383.71c0-.28-.22-.5-.5-.5s-.5.22-.5.5v5c0,.28.22.5.5.5s.5-.22.5-.5v-5M321.74,393.71c0-.28-.22-.5-.5-.5s-.5.22-.5.5v5c0,.28.22.5.5.5s.5-.22.5-.5v-5M321.74,403.71c0-.28-.22-.5-.5-.5s-.5.22-.5.5v5c0,.28.22.5.5.5s.5-.22.5-.5v-5M321.74,413.71c0-.28-.22-.5-.5-.5s-.5.22-.5.5v5c0,.28.22.5.5.5s.5-.22.5-.5v-5M321.74,423.71c0-.28-.22-.5-.5-.5s-.5.22-.5.5v5c0,.28.22.5.5.5s.5-.22.5-.5v-5M321.74,433.71c0-.28-.22-.5-.5-.5s-.5.22-.5.5v5c0,.28.22.5.5.5s.5-.22.5-.5v-5"/><path class="cls-7" d="M366.77,73.71c0-.28-.22-.5-.5-.5s-.5.22-.5.5v5c0,.28.22.5.5.5s.5-.22.5-.5v-5M366.77,83.71c0-.28-.22-.5-.5-.5s-.5.22-.5.5v5c0,.28.22.5.5.5s.5-.22.5-.5v-5M366.77,93.71c0-.28-.22-.5-.5-.5s-.5.22-.5.5v5c0,.28.22.5.5.5s.5-.22.5-.5v-5M366.77,103.71c0-.28-.22-.5-.5-.5s-.5.22-.5.5v5c0,.28.22.5.5.5s.5-.22.5-.5v-5M366.77,113.71c0-.28-.22-.5-.5-.5s-.5.22-.5.5v5c0,.28.22.5.5.5s.5-.22.5-.5v-5M366.77,123.71c0-.28-.22-.5-.5-.5s-.5.22-.5.5v5c0,.28.22.5.5.5s.5-.22.5-.5v-5M366.77,133.71c0-.28-.22-.5-.5-.5s-.5.22-.5.5v5c0,.28.22.5.5.5s.5-.22.5-.5v-5M366.77,143.71c0-.28-.22-.5-.5-.5s-.5.22-.5.5v5c0,.28.22.5.5.5s.5-.22.5-.5v-5M366.77,153.71c0-.28-.22-.5-.5-.5s-.5.22-.5.5v5c0,.28.22.5.5.5s.5-.22.5-.5v-5M366.77,163.71c0-.28-.22-.5-.5-.5s-.5.22-.5.5v5c0,.28.22.5.5.5s.5-.22.5-.5v-5M366.77,173.71c0-.28-.22-.5-.5-.5s-.5.22-.5.5v5c0,.28.22.5.5.5s.5-.22.5-.5v-5M366.77,183.71c0-.28-.22-.5-.5-.5s-.5.22-.5.5v5c0,.28.22.5.5.5s.5-.22.5-.5v-5M366.77,193.71c0-.28-.22-.5-.5-.5s-.5.22-.5.5v5c0,.28.22.5.5.5s.5-.22.5-.5v-5M366.77,203.71c0-.28-.22-.5-.5-.5s-.5.22-.5.5v5c0,.28.22.5.5.5s.5-.22.5-.5v-5M366.77,213.71c0-.28-.22-.5-.5-.5s-.5.22-.5.5v5c0,.28.22.5.5.5s.5-.22.5-.5v-5M366.77,223.71c0-.28-.22-.5-.5-.5s-.5.22-.5.5v5c0,.28.22.5.5.5s.5-.22.5-.5v-5M366.77,233.71c0-.28-.22-.5-.5-.5s-.5.22-.5.5v5c0,.28.22.5.5.5s.5-.22.5-.5v-5M366.77,243.71c0-.28-.22-.5-.5-.5s-.5.22-.5.5v5c0,.28.22.5.5.5s.5-.22.5-.5v-5M366.77,253.71c0-.28-.22-.5-.5-.5s-.5.22-.5.5v5c0,.28.22.5.5.5s.5-.22.5-.5v-5M366.77,263.71c0-.28-.22-.5-.5-.5s-.5.22-.5.5v5c0,.28.22.5.5.5s.5-.22.5-.5v-5M366.77,273.71c0-.28-.22-.5-.5-.5s-.5.22-.5.5v5c0,.28.22.5.5.5s.5-.22.5-.5v-5M366.77,283.71c0-.28-.22-.5-.5-.5s-.5.22-.5.5v5c0,.28.22.5.5.5s.5-.22.5-.5v-5M366.77,293.71c0-.28-.22-.5-.5-.5s-.5.22-.5.5v5c0,.28.22.5.5.5s.5-.22.5-.5v-5M366.77,303.71c0-.28-.22-.5-.5-.5s-.5.22-.5.5v5c0,.28.22.5.5.5s.5-.22.5-.5v-5M366.77,313.71c0-.28-.22-.5-.5-.5s-.5.22-.5.5v5c0,.28.22.5.5.5s.5-.22.5-.5v-5M366.77,323.71c0-.28-.22-.5-.5-.5s-.5.22-.5.5v5c0,.28.22.5.5.5s.5-.22.5-.5v-5M366.77,333.71c0-.28-.22-.5-.5-.5s-.5.22-.5.5v5c0,.28.22.5.5.5s.5-.22.5-.5v-5M366.77,343.71c0-.28-.22-.5-.5-.5s-.5.22-.5.5v5c0,.28.22.5.5.5s.5-.22.5-.5v-5M366.77,353.71c0-.28-.22-.5-.5-.5s-.5.22-.5.5v5c0,.28.22.5.5.5s.5-.22.5-.5v-5M366.77,363.71c0-.28-.22-.5-.5-.5s-.5.22-.5.5v5c0,.28.22.5.5.5s.5-.22.5-.5v-5M366.77,373.71c0-.28-.22-.5-.5-.5s-.5.22-.5.5v5c0,.28.22.5.5.5s.5-.22.5-.5v-5M366.77,383.71c0-.28-.22-.5-.5-.5s-.5.22-.5.5v5c0,.28.22.5.5.5s.5-.22.5-.5v-5M366.77,393.71c0-.28-.22-.5-.5-.5s-.5.22-.5.5v5c0,.28.22.5.5.5s.5-.22.5-.5v-5M366.77,403.71c0-.28-.22-.5-.5-.5s-.5.22-.5.5v5c0,.28.22.5.5.5s.5-.22.5-.5v-5M366.77,413.71c0-.28-.22-.5-.5-.5s-.5.22-.5.5v5c0,.28.22.5.5.5s.5-.22.5-.5v-5M366.77,423.71c0-.28-.22-.5-.5-.5s-.5.22-.5.5v5c0,.28.22.5.5.5s.5-.22.5-.5v-5M366.77,433.71c0-.28-.22-.5-.5-.5s-.5.22-.5.5v5c0,.28.22.5.5.5s.5-.22.5-.5v-5"/><path class="cls-7" d="M411.79,73.71c0-.28-.22-.5-.5-.5s-.5.22-.5.5v5c0,.28.22.5.5.5s.5-.22.5-.5v-5M411.79,83.71c0-.28-.22-.5-.5-.5s-.5.22-.5.5v5c0,.28.22.5.5.5s.5-.22.5-.5v-5M411.79,93.71c0-.28-.22-.5-.5-.5s-.5.22-.5.5v5c0,.28.22.5.5.5s.5-.22.5-.5v-5M411.79,103.71c0-.28-.22-.5-.5-.5s-.5.22-.5.5v5c0,.28.22.5.5.5s.5-.22.5-.5v-5M411.79,113.71c0-.28-.22-.5-.5-.5s-.5.22-.5.5v5c0,.28.22.5.5.5s.5-.22.5-.5v-5M411.79,123.71c0-.28-.22-.5-.5-.5s-.5.22-.5.5v5c0,.28.22.5.5.5s.5-.22.5-.5v-5M411.79,133.71c0-.28-.22-.5-.5-.5s-.5.22-.5.5v5c0,.28.22.5.5.5s.5-.22.5-.5v-5M411.79,143.71c0-.28-.22-.5-.5-.5s-.5.22-.5.5v5c0,.28.22.5.5.5s.5-.22.5-.5v-5M411.79,153.71c0-.28-.22-.5-.5-.5s-.5.22-.5.5v5c0,.28.22.5.5.5s.5-.22.5-.5v-5M411.79,163.71c0-.28-.22-.5-.5-.5s-.5.22-.5.5v5c0,.28.22.5.5.5s.5-.22.5-.5v-5M411.79,173.71c0-.28-.22-.5-.5-.5s-.5.22-.5.5v5c0,.28.22.5.5.5s.5-.22.5-.5v-5M411.79,183.71c0-.28-.22-.5-.5-.5s-.5.22-.5.5v5c0,.28.22.5.5.5s.5-.22.5-.5v-5M411.79,193.71c0-.28-.22-.5-.5-.5s-.5.22-.5.5v5c0,.28.22.5.5.5s.5-.22.5-.5v-5M411.79,203.71c0-.28-.22-.5-.5-.5s-.5.22-.5.5v5c0,.28.22.5.5.5s.5-.22.5-.5v-5M411.79,213.71c0-.28-.22-.5-.5-.5s-.5.22-.5.5v5c0,.28.22.5.5.5s.5-.22.5-.5v-5M411.79,223.71c0-.28-.22-.5-.5-.5s-.5.22-.5.5v5c0,.28.22.5.5.5s.5-.22.5-.5v-5M411.79,233.71c0-.28-.22-.5-.5-.5s-.5.22-.5.5v5c0,.28.22.5.5.5s.5-.22.5-.5v-5M411.79,243.71c0-.28-.22-.5-.5-.5s-.5.22-.5.5v5c0,.28.22.5.5.5s.5-.22.5-.5v-5M411.79,253.71c0-.28-.22-.5-.5-.5s-.5.22-.5.5v5c0,.28.22.5.5.5s.5-.22.5-.5v-5M411.79,263.71c0-.28-.22-.5-.5-.5s-.5.22-.5.5v5c0,.28.22.5.5.5s.5-.22.5-.5v-5M411.79,273.71c0-.28-.22-.5-.5-.5s-.5.22-.5.5v5c0,.28.22.5.5.5s.5-.22.5-.5v-5M411.79,283.71c0-.28-.22-.5-.5-.5s-.5.22-.5.5v5c0,.28.22.5.5.5s.5-.22.5-.5v-5M411.79,293.71c0-.28-.22-.5-.5-.5s-.5.22-.5.5v5c0,.28.22.5.5.5s.5-.22.5-.5v-5M411.79,303.71c0-.28-.22-.5-.5-.5s-.5.22-.5.5v5c0,.28.22.5.5.5s.5-.22.5-.5v-5M411.79,313.71c0-.28-.22-.5-.5-.5s-.5.22-.5.5v5c0,.28.22.5.5.5s.5-.22.5-.5v-5M411.79,323.71c0-.28-.22-.5-.5-.5s-.5.22-.5.5v5c0,.28.22.5.5.5s.5-.22.5-.5v-5M411.79,333.71c0-.28-.22-.5-.5-.5s-.5.22-.5.5v5c0,.28.22.5.5.5s.5-.22.5-.5v-5M411.79,343.71c0-.28-.22-.5-.5-.5s-.5.22-.5.5v5c0,.28.22.5.5.5s.5-.22.5-.5v-5M411.79,353.71c0-.28-.22-.5-.5-.5s-.5.22-.5.5v5c0,.28.22.5.5.5s.5-.22.5-.5v-5M411.79,363.71c0-.28-.22-.5-.5-.5s-.5.22-.5.5v5c0,.28.22.5.5.5s.5-.22.5-.5v-5M411.79,373.71c0-.28-.22-.5-.5-.5s-.5.22-.5.5v5c0,.28.22.5.5.5s.5-.22.5-.5v-5M411.79,383.71c0-.28-.22-.5-.5-.5s-.5.22-.5.5v5c0,.28.22.5.5.5s.5-.22.5-.5v-5M411.79,393.71c0-.28-.22-.5-.5-.5s-.5.22-.5.5v5c0,.28.22.5.5.5s.5-.22.5-.5v-5M411.79,403.71c0-.28-.22-.5-.5-.5s-.5.22-.5.5v5c0,.28.22.5.5.5s.5-.22.5-.5v-5M411.79,413.71c0-.28-.22-.5-.5-.5s-.5.22-.5.5v5c0,.28.22.5.5.5s.5-.22.5-.5v-5M411.79,423.71c0-.28-.22-.5-.5-.5s-.5.22-.5.5v5c0,.28.22.5.5.5s.5-.22.5-.5v-5M411.79,433.71c0-.28-.22-.5-.5-.5s-.5.22-.5.5v5c0,.28.22.5.5.5s.5-.22.5-.5v-5"/><path class="cls-7" d="M456.81,73.71c0-.28-.22-.5-.5-.5s-.5.22-.5.5v5c0,.28.22.5.5.5s.5-.22.5-.5v-5M456.81,83.71c0-.28-.22-.5-.5-.5s-.5.22-.5.5v5c0,.28.22.5.5.5s.5-.22.5-.5v-5M456.81,93.71c0-.28-.22-.5-.5-.5s-.5.22-.5.5v5c0,.28.22.5.5.5s.5-.22.5-.5v-5M456.81,103.71c0-.28-.22-.5-.5-.5s-.5.22-.5.5v5c0,.28.22.5.5.5s.5-.22.5-.5v-5M456.81,113.71c0-.28-.22-.5-.5-.5s-.5.22-.5.5v5c0,.28.22.5.5.5s.5-.22.5-.5v-5M456.81,123.71c0-.28-.22-.5-.5-.5s-.5.22-.5.5v5c0,.28.22.5.5.5s.5-.22.5-.5v-5M456.81,133.71c0-.28-.22-.5-.5-.5s-.5.22-.5.5v5c0,.28.22.5.5.5s.5-.22.5-.5v-5M456.81,143.71c0-.28-.22-.5-.5-.5s-.5.22-.5.5v5c0,.28.22.5.5.5s.5-.22.5-.5v-5M456.81,153.71c0-.28-.22-.5-.5-.5s-.5.22-.5.5v5c0,.28.22.5.5.5s.5-.22.5-.5v-5M456.81,163.71c0-.28-.22-.5-.5-.5s-.5.22-.5.5v5c0,.28.22.5.5.5s.5-.22.5-.5v-5M456.81,173.71c0-.28-.22-.5-.5-.5s-.5.22-.5.5v5c0,.28.22.5.5.5s.5-.22.5-.5v-5M456.81,183.71c0-.28-.22-.5-.5-.5s-.5.22-.5.5v5c0,.28.22.5.5.5s.5-.22.5-.5v-5M456.81,193.71c0-.28-.22-.5-.5-.5s-.5.22-.5.5v5c0,.28.22.5.5.5s.5-.22.5-.5v-5M456.81,203.71c0-.28-.22-.5-.5-.5s-.5.22-.5.5v5c0,.28.22.5.5.5s.5-.22.5-.5v-5M456.81,213.71c0-.28-.22-.5-.5-.5s-.5.22-.5.5v5c0,.28.22.5.5.5s.5-.22.5-.5v-5M456.81,223.71c0-.28-.22-.5-.5-.5s-.5.22-.5.5v5c0,.28.22.5.5.5s.5-.22.5-.5v-5M456.81,233.71c0-.28-.22-.5-.5-.5s-.5.22-.5.5v5c0,.28.22.5.5.5s.5-.22.5-.5v-5M456.81,243.71c0-.28-.22-.5-.5-.5s-.5.22-.5.5v5c0,.28.22.5.5.5s.5-.22.5-.5v-5M456.81,253.71c0-.28-.22-.5-.5-.5s-.5.22-.5.5v5c0,.28.22.5.5.5s.5-.22.5-.5v-5M456.81,263.71c0-.28-.22-.5-.5-.5s-.5.22-.5.5v5c0,.28.22.5.5.5s.5-.22.5-.5v-5M456.81,273.71c0-.28-.22-.5-.5-.5s-.5.22-.5.5v5c0,.28.22.5.5.5s.5-.22.5-.5v-5M456.81,283.71c0-.28-.22-.5-.5-.5s-.5.22-.5.5v5c0,.28.22.5.5.5s.5-.22.5-.5v-5M456.81,293.71c0-.28-.22-.5-.5-.5s-.5.22-.5.5v5c0,.28.22.5.5.5s.5-.22.5-.5v-5M456.81,303.71c0-.28-.22-.5-.5-.5s-.5.22-.5.5v5c0,.28.22.5.5.5s.5-.22.5-.5v-5M456.81,313.71c0-.28-.22-.5-.5-.5s-.5.22-.5.5v5c0,.28.22.5.5.5s.5-.22.5-.5v-5M456.81,323.71c0-.28-.22-.5-.5-.5s-.5.22-.5.5v5c0,.28.22.5.5.5s.5-.22.5-.5v-5M456.81,333.71c0-.28-.22-.5-.5-.5s-.5.22-.5.5v5c0,.28.22.5.5.5s.5-.22.5-.5v-5M456.81,343.71c0-.28-.22-.5-.5-.5s-.5.22-.5.5v5c0,.28.22.5.5.5s.5-.22.5-.5v-5M456.81,353.71c0-.28-.22-.5-.5-.5s-.5.22-.5.5v5c0,.28.22.5.5.5s.5-.22.5-.5v-5M456.81,363.71c0-.28-.22-.5-.5-.5s-.5.22-.5.5v5c0,.28.22.5.5.5s.5-.22.5-.5v-5M456.81,373.71c0-.28-.22-.5-.5-.5s-.5.22-.5.5v5c0,.28.22.5.5.5s.5-.22.5-.5v-5M456.81,383.71c0-.28-.22-.5-.5-.5s-.5.22-.5.5v5c0,.28.22.5.5.5s.5-.22.5-.5v-5M456.81,393.71c0-.28-.22-.5-.5-.5s-.5.22-.5.5v5c0,.28.22.5.5.5s.5-.22.5-.5v-5M456.81,403.71c0-.28-.22-.5-.5-.5s-.5.22-.5.5v5c0,.28.22.5.5.5s.5-.22.5-.5v-5M456.81,413.71c0-.28-.22-.5-.5-.5s-.5.22-.5.5v5c0,.28.22.5.5.5s.5-.22.5-.5v-5M456.81,423.71c0-.28-.22-.5-.5-.5s-.5.22-.5.5v5c0,.28.22.5.5.5s.5-.22.5-.5v-5M456.81,433.71c0-.28-.22-.5-.5-.5s-.5.22-.5.5v5c0,.28.22.5.5.5s.5-.22.5-.5v-5"/><path class="cls-7" d="M501.84,73.71c0-.28-.22-.5-.5-.5s-.5.22-.5.5v5c0,.28.22.5.5.5s.5-.22.5-.5v-5M501.84,83.71c0-.28-.22-.5-.5-.5s-.5.22-.5.5v5c0,.28.22.5.5.5s.5-.22.5-.5v-5M501.84,93.71c0-.28-.22-.5-.5-.5s-.5.22-.5.5v5c0,.28.22.5.5.5s.5-.22.5-.5v-5M501.84,103.71c0-.28-.22-.5-.5-.5s-.5.22-.5.5v5c0,.28.22.5.5.5s.5-.22.5-.5v-5M501.84,113.71c0-.28-.22-.5-.5-.5s-.5.22-.5.5v5c0,.28.22.5.5.5s.5-.22.5-.5v-5M501.84,123.71c0-.28-.22-.5-.5-.5s-.5.22-.5.5v5c0,.28.22.5.5.5s.5-.22.5-.5v-5M501.84,133.71c0-.28-.22-.5-.5-.5s-.5.22-.5.5v5c0,.28.22.5.5.5s.5-.22.5-.5v-5M501.84,143.71c0-.28-.22-.5-.5-.5s-.5.22-.5.5v5c0,.28.22.5.5.5s.5-.22.5-.5v-5M501.84,153.71c0-.28-.22-.5-.5-.5s-.5.22-.5.5v5c0,.28.22.5.5.5s.5-.22.5-.5v-5M501.84,163.71c0-.28-.22-.5-.5-.5s-.5.22-.5.5v5c0,.28.22.5.5.5s.5-.22.5-.5v-5M501.84,173.71c0-.28-.22-.5-.5-.5s-.5.22-.5.5v5c0,.28.22.5.5.5s.5-.22.5-.5v-5M501.84,183.71c0-.28-.22-.5-.5-.5s-.5.22-.5.5v5c0,.28.22.5.5.5s.5-.22.5-.5v-5M501.84,193.71c0-.28-.22-.5-.5-.5s-.5.22-.5.5v5c0,.28.22.5.5.5s.5-.22.5-.5v-5M501.84,203.71c0-.28-.22-.5-.5-.5s-.5.22-.5.5v5c0,.28.22.5.5.5s.5-.22.5-.5v-5M501.84,213.71c0-.28-.22-.5-.5-.5s-.5.22-.5.5v5c0,.28.22.5.5.5s.5-.22.5-.5v-5M501.84,223.71c0-.28-.22-.5-.5-.5s-.5.22-.5.5v5c0,.28.22.5.5.5s.5-.22.5-.5v-5M501.84,233.71c0-.28-.22-.5-.5-.5s-.5.22-.5.5v5c0,.28.22.5.5.5s.5-.22.5-.5v-5M501.84,243.71c0-.28-.22-.5-.5-.5s-.5.22-.5.5v5c0,.28.22.5.5.5s.5-.22.5-.5v-5M501.84,253.71c0-.28-.22-.5-.5-.5s-.5.22-.5.5v5c0,.28.22.5.5.5s.5-.22.5-.5v-5M501.84,263.71c0-.28-.22-.5-.5-.5s-.5.22-.5.5v5c0,.28.22.5.5.5s.5-.22.5-.5v-5M501.84,273.71c0-.28-.22-.5-.5-.5s-.5.22-.5.5v5c0,.28.22.5.5.5s.5-.22.5-.5v-5M501.84,283.71c0-.28-.22-.5-.5-.5s-.5.22-.5.5v5c0,.28.22.5.5.5s.5-.22.5-.5v-5M501.84,293.71c0-.28-.22-.5-.5-.5s-.5.22-.5.5v5c0,.28.22.5.5.5s.5-.22.5-.5v-5M501.84,303.71c0-.28-.22-.5-.5-.5s-.5.22-.5.5v5c0,.28.22.5.5.5s.5-.22.5-.5v-5M501.84,313.71c0-.28-.22-.5-.5-.5s-.5.22-.5.5v5c0,.28.22.5.5.5s.5-.22.5-.5v-5M501.84,323.71c0-.28-.22-.5-.5-.5s-.5.22-.5.5v5c0,.28.22.5.5.5s.5-.22.5-.5v-5M501.84,333.71c0-.28-.22-.5-.5-.5s-.5.22-.5.5v5c0,.28.22.5.5.5s.5-.22.5-.5v-5M501.84,343.71c0-.28-.22-.5-.5-.5s-.5.22-.5.5v5c0,.28.22.5.5.5s.5-.22.5-.5v-5M501.84,353.71c0-.28-.22-.5-.5-.5s-.5.22-.5.5v5c0,.28.22.5.5.5s.5-.22.5-.5v-5M501.84,363.71c0-.28-.22-.5-.5-.5s-.5.22-.5.5v5c0,.28.22.5.5.5s.5-.22.5-.5v-5M501.84,373.71c0-.28-.22-.5-.5-.5s-.5.22-.5.5v5c0,.28.22.5.5.5s.5-.22.5-.5v-5M501.84,383.71c0-.28-.22-.5-.5-.5s-.5.22-.5.5v5c0,.28.22.5.5.5s.5-.22.5-.5v-5M501.84,393.71c0-.28-.22-.5-.5-.5s-.5.22-.5.5v5c0,.28.22.5.5.5s.5-.22.5-.5v-5M501.84,403.71c0-.28-.22-.5-.5-.5s-.5.22-.5.5v5c0,.28.22.5.5.5s.5-.22.5-.5v-5M501.84,413.71c0-.28-.22-.5-.5-.5s-.5.22-.5.5v5c0,.28.22.5.5.5s.5-.22.5-.5v-5M501.84,423.71c0-.28-.22-.5-.5-.5s-.5.22-.5.5v5c0,.28.22.5.5.5s.5-.22.5-.5v-5M501.84,433.71c0-.28-.22-.5-.5-.5s-.5.22-.5.5v5c0,.28.22.5.5.5s.5-.22.5-.5v-5"/><path class="cls-7" d="M591.88,73.71c0-.28-.22-.5-.5-.5s-.5.22-.5.5v5c0,.28.22.5.5.5s.5-.22.5-.5v-5M591.88,83.71c0-.28-.22-.5-.5-.5s-.5.22-.5.5v5c0,.28.22.5.5.5s.5-.22.5-.5v-5M591.88,93.71c0-.28-.22-.5-.5-.5s-.5.22-.5.5v5c0,.28.22.5.5.5s.5-.22.5-.5v-5M591.88,103.71c0-.28-.22-.5-.5-.5s-.5.22-.5.5v5c0,.28.22.5.5.5s.5-.22.5-.5v-5M591.88,113.71c0-.28-.22-.5-.5-.5s-.5.22-.5.5v5c0,.28.22.5.5.5s.5-.22.5-.5v-5M591.88,123.71c0-.28-.22-.5-.5-.5s-.5.22-.5.5v5c0,.28.22.5.5.5s.5-.22.5-.5v-5M591.88,133.71c0-.28-.22-.5-.5-.5s-.5.22-.5.5v5c0,.28.22.5.5.5s.5-.22.5-.5v-5M591.88,143.71c0-.28-.22-.5-.5-.5s-.5.22-.5.5v5c0,.28.22.5.5.5s.5-.22.5-.5v-5M591.88,153.71c0-.28-.22-.5-.5-.5s-.5.22-.5.5v5c0,.28.22.5.5.5s.5-.22.5-.5v-5M591.88,163.71c0-.28-.22-.5-.5-.5s-.5.22-.5.5v5c0,.28.22.5.5.5s.5-.22.5-.5v-5M591.88,173.71c0-.28-.22-.5-.5-.5s-.5.22-.5.5v5c0,.28.22.5.5.5s.5-.22.5-.5v-5M591.88,183.71c0-.28-.22-.5-.5-.5s-.5.22-.5.5v5c0,.28.22.5.5.5s.5-.22.5-.5v-5M591.88,193.71c0-.28-.22-.5-.5-.5s-.5.22-.5.5v5c0,.28.22.5.5.5s.5-.22.5-.5v-5M591.88,203.71c0-.28-.22-.5-.5-.5s-.5.22-.5.5v5c0,.28.22.5.5.5s.5-.22.5-.5v-5M591.88,213.71c0-.28-.22-.5-.5-.5s-.5.22-.5.5v5c0,.28.22.5.5.5s.5-.22.5-.5v-5M591.88,223.71c0-.28-.22-.5-.5-.5s-.5.22-.5.5v5c0,.28.22.5.5.5s.5-.22.5-.5v-5M591.88,233.71c0-.28-.22-.5-.5-.5s-.5.22-.5.5v5c0,.28.22.5.5.5s.5-.22.5-.5v-5M591.88,243.71c0-.28-.22-.5-.5-.5s-.5.22-.5.5v5c0,.28.22.5.5.5s.5-.22.5-.5v-5M591.88,253.71c0-.28-.22-.5-.5-.5s-.5.22-.5.5v5c0,.28.22.5.5.5s.5-.22.5-.5v-5M591.88,263.71c0-.28-.22-.5-.5-.5s-.5.22-.5.5v5c0,.28.22.5.5.5s.5-.22.5-.5v-5M591.88,273.71c0-.28-.22-.5-.5-.5s-.5.22-.5.5v5c0,.28.22.5.5.5s.5-.22.5-.5v-5M591.88,283.71c0-.28-.22-.5-.5-.5s-.5.22-.5.5v5c0,.28.22.5.5.5s.5-.22.5-.5v-5M591.88,293.71c0-.28-.22-.5-.5-.5s-.5.22-.5.5v5c0,.28.22.5.5.5s.5-.22.5-.5v-5M591.88,303.71c0-.28-.22-.5-.5-.5s-.5.22-.5.5v5c0,.28.22.5.5.5s.5-.22.5-.5v-5M591.88,313.71c0-.28-.22-.5-.5-.5s-.5.22-.5.5v5c0,.28.22.5.5.5s.5-.22.5-.5v-5M591.88,323.71c0-.28-.22-.5-.5-.5s-.5.22-.5.5v5c0,.28.22.5.5.5s.5-.22.5-.5v-5M591.88,333.71c0-.28-.22-.5-.5-.5s-.5.22-.5.5v5c0,.28.22.5.5.5s.5-.22.5-.5v-5M591.88,343.71c0-.28-.22-.5-.5-.5s-.5.22-.5.5v5c0,.28.22.5.5.5s.5-.22.5-.5v-5M591.88,353.71c0-.28-.22-.5-.5-.5s-.5.22-.5.5v5c0,.28.22.5.5.5s.5-.22.5-.5v-5M591.88,363.71c0-.28-.22-.5-.5-.5s-.5.22-.5.5v5c0,.28.22.5.5.5s.5-.22.5-.5v-5M591.88,373.71c0-.28-.22-.5-.5-.5s-.5.22-.5.5v5c0,.28.22.5.5.5s.5-.22.5-.5v-5M591.88,383.71c0-.28-.22-.5-.5-.5s-.5.22-.5.5v5c0,.28.22.5.5.5s.5-.22.5-.5v-5M591.88,393.71c0-.28-.22-.5-.5-.5s-.5.22-.5.5v5c0,.28.22.5.5.5s.5-.22.5-.5v-5M591.88,403.71c0-.28-.22-.5-.5-.5s-.5.22-.5.5v5c0,.28.22.5.5.5s.5-.22.5-.5v-5M591.88,413.71c0-.28-.22-.5-.5-.5s-.5.22-.5.5v5c0,.28.22.5.5.5s.5-.22.5-.5v-5M591.88,423.71c0-.28-.22-.5-.5-.5s-.5.22-.5.5v5c0,.28.22.5.5.5s.5-.22.5-.5v-5M591.88,433.71c0-.28-.22-.5-.5-.5s-.5.22-.5.5v5c0,.28.22.5.5.5s.5-.22.5-.5v-5"/><path class="cls-3" d="M231.7,73.71c0-.28-.22-.5-.5-.5s-.5.22-.5.5v5c0,.28.22.5.5.5s.5-.22.5-.5v-5M231.7,83.71c0-.28-.22-.5-.5-.5s-.5.22-.5.5v5c0,.28.22.5.5.5s.5-.22.5-.5v-5M231.7,93.71c0-.28-.22-.5-.5-.5s-.5.22-.5.5v5c0,.28.22.5.5.5s.5-.22.5-.5v-5M231.7,103.71c0-.28-.22-.5-.5-.5s-.5.22-.5.5v5c0,.28.22.5.5.5s.5-.22.5-.5v-5M231.7,113.71c0-.28-.22-.5-.5-.5s-.5.22-.5.5v5c0,.28.22.5.5.5s.5-.22.5-.5v-5M231.7,123.71c0-.28-.22-.5-.5-.5s-.5.22-.5.5v5c0,.28.22.5.5.5s.5-.22.5-.5v-5M231.7,133.71c0-.28-.22-.5-.5-.5s-.5.22-.5.5v5c0,.28.22.5.5.5s.5-.22.5-.5v-5M231.7,143.71c0-.28-.22-.5-.5-.5s-.5.22-.5.5v5c0,.28.22.5.5.5s.5-.22.5-.5v-5M231.7,153.71c0-.28-.22-.5-.5-.5s-.5.22-.5.5v5c0,.28.22.5.5.5s.5-.22.5-.5v-5M231.7,163.71c0-.28-.22-.5-.5-.5s-.5.22-.5.5v5c0,.28.22.5.5.5s.5-.22.5-.5v-5M231.7,173.71c0-.28-.22-.5-.5-.5s-.5.22-.5.5v5c0,.28.22.5.5.5s.5-.22.5-.5v-5M231.7,183.71c0-.28-.22-.5-.5-.5s-.5.22-.5.5v5c0,.28.22.5.5.5s.5-.22.5-.5v-5M231.7,193.71c0-.28-.22-.5-.5-.5s-.5.22-.5.5v5c0,.28.22.5.5.5s.5-.22.5-.5v-5M231.7,203.71c0-.28-.22-.5-.5-.5s-.5.22-.5.5v5c0,.28.22.5.5.5s.5-.22.5-.5v-5M231.7,213.71c0-.28-.22-.5-.5-.5s-.5.22-.5.5v5c0,.28.22.5.5.5s.5-.22.5-.5v-5M231.7,223.71c0-.28-.22-.5-.5-.5s-.5.22-.5.5v5c0,.28.22.5.5.5s.5-.22.5-.5v-5M231.7,233.71c0-.28-.22-.5-.5-.5s-.5.22-.5.5v5c0,.28.22.5.5.5s.5-.22.5-.5v-5M231.7,243.71c0-.28-.22-.5-.5-.5s-.5.22-.5.5v5c0,.28.22.5.5.5s.5-.22.5-.5v-5M231.7,253.71c0-.28-.22-.5-.5-.5s-.5.22-.5.5v5c0,.28.22.5.5.5s.5-.22.5-.5v-5M231.7,263.71c0-.28-.22-.5-.5-.5s-.5.22-.5.5v5c0,.28.22.5.5.5s.5-.22.5-.5v-5M231.7,273.71c0-.28-.22-.5-.5-.5s-.5.22-.5.5v5c0,.28.22.5.5.5s.5-.22.5-.5v-5M231.7,283.71c0-.28-.22-.5-.5-.5s-.5.22-.5.5v5c0,.28.22.5.5.5s.5-.22.5-.5v-5M231.7,293.71c0-.28-.22-.5-.5-.5s-.5.22-.5.5v5c0,.28.22.5.5.5s.5-.22.5-.5v-5M231.7,303.71c0-.28-.22-.5-.5-.5s-.5.22-.5.5v5c0,.28.22.5.5.5s.5-.22.5-.5v-5M231.7,313.71c0-.28-.22-.5-.5-.5s-.5.22-.5.5v5c0,.28.22.5.5.5s.5-.22.5-.5v-5M231.7,323.71c0-.28-.22-.5-.5-.5s-.5.22-.5.5v5c0,.28.22.5.5.5s.5-.22.5-.5v-5M231.7,333.71c0-.28-.22-.5-.5-.5s-.5.22-.5.5v5c0,.28.22.5.5.5s.5-.22.5-.5v-5M231.7,343.71c0-.28-.22-.5-.5-.5s-.5.22-.5.5v5c0,.28.22.5.5.5s.5-.22.5-.5v-5M231.7,353.71c0-.28-.22-.5-.5-.5s-.5.22-.5.5v5c0,.28.22.5.5.5s.5-.22.5-.5v-5M231.7,363.71c0-.28-.22-.5-.5-.5s-.5.22-.5.5v5c0,.28.22.5.5.5s.5-.22.5-.5v-5M231.7,373.71c0-.28-.22-.5-.5-.5s-.5.22-.5.5v5c0,.28.22.5.5.5s.5-.22.5-.5v-5M231.7,383.71c0-.28-.22-.5-.5-.5s-.5.22-.5.5v5c0,.28.22.5.5.5s.5-.22.5-.5v-5M231.7,393.71c0-.28-.22-.5-.5-.5s-.5.22-.5.5v5c0,.28.22.5.5.5s.5-.22.5-.5v-5M231.7,403.71c0-.28-.22-.5-.5-.5s-.5.22-.5.5v5c0,.28.22.5.5.5s.5-.22.5-.5v-5M231.7,413.71c0-.28-.22-.5-.5-.5s-.5.22-.5.5v5c0,.28.22.5.5.5s.5-.22.5-.5v-5M231.7,423.71c0-.28-.22-.5-.5-.5s-.5.22-.5.5v5c0,.28.22.5.5.5s.5-.22.5-.5v-5M231.7,433.71c0-.28-.22-.5-.5-.5s-.5.22-.5.5v5c0,.28.22.5.5.5s.5-.22.5-.5v-5"/><path class="cls-3" d="M546.86,73.71c0-.28-.22-.5-.5-.5s-.5.22-.5.5v5c0,.28.22.5.5.5s.5-.22.5-.5v-5M546.86,83.71c0-.28-.22-.5-.5-.5s-.5.22-.5.5v5c0,.28.22.5.5.5s.5-.22.5-.5v-5M546.86,93.71c0-.28-.22-.5-.5-.5s-.5.22-.5.5v5c0,.28.22.5.5.5s.5-.22.5-.5v-5M546.86,103.71c0-.28-.22-.5-.5-.5s-.5.22-.5.5v5c0,.28.22.5.5.5s.5-.22.5-.5v-5M546.86,113.71c0-.28-.22-.5-.5-.5s-.5.22-.5.5v5c0,.28.22.5.5.5s.5-.22.5-.5v-5M546.86,123.71c0-.28-.22-.5-.5-.5s-.5.22-.5.5v5c0,.28.22.5.5.5s.5-.22.5-.5v-5M546.86,133.71c0-.28-.22-.5-.5-.5s-.5.22-.5.5v5c0,.28.22.5.5.5s.5-.22.5-.5v-5M546.86,143.71c0-.28-.22-.5-.5-.5s-.5.22-.5.5v5c0,.28.22.5.5.5s.5-.22.5-.5v-5M546.86,153.71c0-.28-.22-.5-.5-.5s-.5.22-.5.5v5c0,.28.22.5.5.5s.5-.22.5-.5v-5M546.86,163.71c0-.28-.22-.5-.5-.5s-.5.22-.5.5v5c0,.28.22.5.5.5s.5-.22.5-.5v-5M546.86,173.71c0-.28-.22-.5-.5-.5s-.5.22-.5.5v5c0,.28.22.5.5.5s.5-.22.5-.5v-5M546.86,183.71c0-.28-.22-.5-.5-.5s-.5.22-.5.5v5c0,.28.22.5.5.5s.5-.22.5-.5v-5M546.86,193.71c0-.28-.22-.5-.5-.5s-.5.22-.5.5v5c0,.28.22.5.5.5s.5-.22.5-.5v-5M546.86,203.71c0-.28-.22-.5-.5-.5s-.5.22-.5.5v5c0,.28.22.5.5.5s.5-.22.5-.5v-5M546.86,213.71c0-.28-.22-.5-.5-.5s-.5.22-.5.5v5c0,.28.22.5.5.5s.5-.22.5-.5v-5M546.86,223.71c0-.28-.22-.5-.5-.5s-.5.22-.5.5v5c0,.28.22.5.5.5s.5-.22.5-.5v-5M546.86,233.71c0-.28-.22-.5-.5-.5s-.5.22-.5.5v5c0,.28.22.5.5.5s.5-.22.5-.5v-5M546.86,243.71c0-.28-.22-.5-.5-.5s-.5.22-.5.5v5c0,.28.22.5.5.5s.5-.22.5-.5v-5M546.86,253.71c0-.28-.22-.5-.5-.5s-.5.22-.5.5v5c0,.28.22.5.5.5s.5-.22.5-.5v-5M546.86,263.71c0-.28-.22-.5-.5-.5s-.5.22-.5.5v5c0,.28.22.5.5.5s.5-.22.5-.5v-5M546.86,273.71c0-.28-.22-.5-.5-.5s-.5.22-.5.5v5c0,.28.22.5.5.5s.5-.22.5-.5v-5M546.86,283.71c0-.28-.22-.5-.5-.5s-.5.22-.5.5v5c0,.28.22.5.5.5s.5-.22.5-.5v-5M546.86,293.71c0-.28-.22-.5-.5-.5s-.5.22-.5.5v5c0,.28.22.5.5.5s.5-.22.5-.5v-5M546.86,303.71c0-.28-.22-.5-.5-.5s-.5.22-.5.5v5c0,.28.22.5.5.5s.5-.22.5-.5v-5M546.86,313.71c0-.28-.22-.5-.5-.5s-.5.22-.5.5v5c0,.28.22.5.5.5s.5-.22.5-.5v-5M546.86,323.71c0-.28-.22-.5-.5-.5s-.5.22-.5.5v5c0,.28.22.5.5.5s.5-.22.5-.5v-5M546.86,333.71c0-.28-.22-.5-.5-.5s-.5.22-.5.5v5c0,.28.22.5.5.5s.5-.22.5-.5v-5M546.86,343.71c0-.28-.22-.5-.5-.5s-.5.22-.5.5v5c0,.28.22.5.5.5s.5-.22.5-.5v-5M546.86,353.71c0-.28-.22-.5-.5-.5s-.5.22-.5.5v5c0,.28.22.5.5.5s.5-.22.5-.5v-5M546.86,363.71c0-.28-.22-.5-.5-.5s-.5.22-.5.5v5c0,.28.22.5.5.5s.5-.22.5-.5v-5M546.86,373.71c0-.28-.22-.5-.5-.5s-.5.22-.5.5v5c0,.28.22.5.5.5s.5-.22.5-.5v-5M546.86,383.71c0-.28-.22-.5-.5-.5s-.5.22-.5.5v5c0,.28.22.5.5.5s.5-.22.5-.5v-5M546.86,393.71c0-.28-.22-.5-.5-.5s-.5.22-.5.5v5c0,.28.22.5.5.5s.5-.22.5-.5v-5M546.86,403.71c0-.28-.22-.5-.5-.5s-.5.22-.5.5v5c0,.28.22.5.5.5s.5-.22.5-.5v-5M546.86,413.71c0-.28-.22-.5-.5-.5s-.5.22-.5.5v5c0,.28.22.5.5.5s.5-.22.5-.5v-5M546.86,423.71c0-.28-.22-.5-.5-.5s-.5.22-.5.5v5c0,.28.22.5.5.5s.5-.22.5-.5v-5M546.86,433.71c0-.28-.22-.5-.5-.5s-.5.22-.5.5v5c0,.28.22.5.5.5s.5-.22.5-.5v-5"/><path d="M674.57,444.59s0,0,0,0V73.71c0-.54-.29-1.01-.72-1.27-.21-.14-.46-.23-.75-.23H97.13c-.83,0-1.5.67-1.5,1.5,0,0,0,0,0,0v370.88c0,.54.29,1.01.72,1.27.21.14.46.23.75.23h575.97s0,0,0,0c.1,0,.2-.01.3-.03.68-.14,1.2-.74,1.2-1.47ZM98.63,75.21h572.94s0,367.88,0,367.88H98.63V75.21Z"/><text class="cls-9" transform="translate(58.15 89.89)"><tspan x="0" y="0">N</tspan><tspan class="cls-10" x="5.6" y="0">e</tspan><tspan x="9.79" y="0">u</tspan><tspan class="cls-4" x="14.24" y="0">r</tspan><tspan x="17.58" y="0">on 0</tspan></text><text class="cls-9" transform="translate(59.9 116.42)"><tspan x="0" y="0">N</tspan><tspan class="cls-10" x="5.6" y="0">e</tspan><tspan x="9.79" y="0">u</tspan><tspan class="cls-4" x="14.24" y="0">r</tspan><tspan x="17.58" y="0">on 1</tspan></text><text class="cls-9" transform="translate(58.43 142.95)"><tspan x="0" y="0">N</tspan><tspan class="cls-10" x="5.6" y="0">e</tspan><tspan x="9.79" y="0">u</tspan><tspan class="cls-4" x="14.24" y="0">r</tspan><tspan x="17.58" y="0">on 2</tspan></text><text class="cls-9" transform="translate(58.33 169.48)"><tspan x="0" y="0">N</tspan><tspan class="cls-10" x="5.6" y="0">e</tspan><tspan x="9.79" y="0">u</tspan><tspan class="cls-4" x="14.24" y="0">r</tspan><tspan x="17.58" y="0">on 3</tspan></text><text class="cls-9" transform="translate(58.01 196.01)"><tspan x="0" y="0">N</tspan><tspan class="cls-10" x="5.6" y="0">e</tspan><tspan x="9.79" y="0">u</tspan><tspan class="cls-4" x="14.24" y="0">r</tspan><tspan x="17.58" y="0">on 4</tspan></text><text class="cls-9" transform="translate(58.21 222.54)"><tspan x="0" y="0">N</tspan><tspan class="cls-10" x="5.6" y="0">e</tspan><tspan x="9.79" y="0">u</tspan><tspan class="cls-4" x="14.24" y="0">r</tspan><tspan x="17.58" y="0">on 5</tspan></text><text class="cls-9" transform="translate(58.46 249.08)"><tspan x="0" y="0">N</tspan><tspan class="cls-10" x="5.6" y="0">e</tspan><tspan x="9.79" y="0">u</tspan><tspan class="cls-4" x="14.24" y="0">r</tspan><tspan x="17.58" y="0">on 6</tspan></text><text class="cls-9" transform="translate(58.53 275.61)"><tspan x="0" y="0">N</tspan><tspan class="cls-10" x="5.6" y="0">e</tspan><tspan x="9.79" y="0">u</tspan><tspan class="cls-4" x="14.24" y="0">r</tspan><tspan x="17.58" y="0">on 7</tspan></text><text class="cls-9" transform="translate(58.06 302.14)"><tspan x="0" y="0">N</tspan><tspan class="cls-10" x="5.6" y="0">e</tspan><tspan x="9.79" y="0">u</tspan><tspan class="cls-4" x="14.24" y="0">r</tspan><tspan x="17.58" y="0">on 8</tspan></text><text class="cls-9" transform="translate(58.46 328.67)"><tspan x="0" y="0">N</tspan><tspan class="cls-10" x="5.6" y="0">e</tspan><tspan x="9.79" y="0">u</tspan><tspan class="cls-4" x="14.24" y="0">r</tspan><tspan x="17.58" y="0">on 9</tspan></text><text class="cls-9" transform="translate(55.49 355.2)"><tspan x="0" y="0">N</tspan><tspan class="cls-10" x="5.6" y="0">e</tspan><tspan x="9.79" y="0">u</tspan><tspan class="cls-4" x="14.24" y="0">r</tspan><tspan x="17.58" y="0">on 10</tspan></text><text class="cls-9" transform="translate(57.24 381.73)"><tspan x="0" y="0">N</tspan><tspan class="cls-10" x="5.6" y="0">e</tspan><tspan x="9.79" y="0">u</tspan><tspan class="cls-4" x="14.24" y="0">r</tspan><tspan x="17.58" y="0">on 11</tspan></text><text class="cls-9" transform="translate(55.77 408.26)"><tspan x="0" y="0">N</tspan><tspan class="cls-10" x="5.6" y="0">e</tspan><tspan x="9.79" y="0">u</tspan><tspan class="cls-4" x="14.24" y="0">r</tspan><tspan x="17.58" y="0">on 12</tspan></text><text class="cls-9" transform="translate(55.67 434.79)"><tspan x="0" y="0">N</tspan><tspan class="cls-10" x="5.6" y="0">e</tspan><tspan x="9.79" y="0">u</tspan><tspan class="cls-4" x="14.24" y="0">r</tspan><tspan x="17.58" y="0">on 13</tspan></text><text class="cls-5" transform="translate(319.46 35.28) scale(1.32 1)"><tspan x="0" y="0">Timeline Out</tspan><tspan class="cls-1" x="83.35" y="0">p</tspan><tspan x="91.33" y="0">ut</tspan></text></svg>