<?xml version="1.0" encoding="UTF-8"?><svg id="Layer_1" xmlns="http://www.w3.org/2000/svg" viewBox="0 0 705.88 531.07"><defs><style>.cls-1{fill:none;stroke:#4d4d4d;stroke-linecap:round;stroke-miterlimit:10;}.cls-2{letter-spacing:-.02em;}.cls-3{fill:#4d4d4d;}.cls-4{fill:#333;font-family:FreestyleScript-Regular, 'Freestyle Script';font-size:16px;}.cls-5{letter-spacing:0em;}.cls-6{letter-spacing:0em;}.cls-7{font-family:Bahnschrift-Bold, Bahnschrift;font-variation-settings:'wght' 700, 'wdth' 100;font-weight:700;}.cls-7,.cls-8{font-size:15px;}.cls-9{letter-spacing:-.05em;}.cls-10{letter-spacing:0em;}.cls-11{fill:#ccc;}.cls-12{letter-spacing:-.02em;}.cls-13{letter-spacing:-.03em;}.cls-8,.cls-14{font-family:Bahnschrift, Bahnschrift;font-variation-settings:'wght' 400, 'wdth' 100;}.cls-15{letter-spacing:-.01em;}.cls-14{font-size:8px;}</style></defs><text class="cls-8" transform="translate(155.82 80.45)"><tspan class="cls-2" x="0" y="0">4</tspan><tspan x="8.17" y="0">1</tspan></text><text class="cls-8" transform="translate(244.92 80.45)"><tspan x="0" y="0">39</tspan></text><text class="cls-8" transform="translate(380.41 80.45)"><tspan x="0" y="0">36</tspan></text><text class="cls-8" transform="translate(109.09 106.83)"><tspan x="0" y="0">42</tspan></text><text class="cls-8" transform="translate(289.71 106.83)"><tspan x="0" y="0">38</tspan></text><text class="cls-8" transform="translate(380.18 106.83)"><tspan x="0" y="0">35</tspan></text><text class="cls-8" transform="translate(199.16 133.21)"><tspan x="0" y="0">40</tspan></text><text class="cls-8" transform="translate(380.41 133.21)"><tspan x="0" y="0">36</tspan></text><text class="cls-8" transform="translate(199.75 159.59)"><tspan x="0" y="0">39</tspan></text><text class="cls-8" transform="translate(335.32 159.59) scale(.94 1)"><tspan x="0" y="0">37</tspan></text><text class="cls-8" transform="translate(244.92 185.96)"><tspan x="0" y="0">39</tspan></text><text class="cls-8" transform="translate(380.41 185.96)"><tspan x="0" y="0">36</tspan></text><text class="cls-8" transform="translate(109.09 212.34)"><tspan x="0" y="0">42</tspan></text><text class="cls-8" transform="translate(290.15 212.34)"><tspan x="0" y="0">37</tspan></text><text class="cls-8" transform="translate(155.82 238.72)"><tspan class="cls-2" x="0" y="0">4</tspan><tspan x="8.17" y="0">1</tspan></text><text class="cls-8" transform="translate(289.71 238.72)"><tspan x="0" y="0">38</tspan></text><text class="cls-8" transform="translate(425.34 238.72)"><tspan x="0" y="0">35</tspan></text><text class="cls-8" transform="translate(102.62 265.1)"><tspan x="0" y="0">1457</tspan></text><text class="cls-8" transform="translate(240.92 265.1)"><tspan x="0" y="0">256</tspan></text><text class="cls-8" transform="translate(199.16 291.47)"><tspan x="0" y="0">40</tspan></text><text class="cls-8" transform="translate(425.34 291.47)"><tspan x="0" y="0">35</tspan></text><text class="cls-8" transform="translate(155.82 317.85)"><tspan class="cls-2" x="0" y="0">4</tspan><tspan x="8.17" y="0">1</tspan></text><text class="cls-8" transform="translate(335.32 317.85)"><tspan x="0" y="0">37</tspan></text><text class="cls-8" transform="translate(425.34 317.85)"><tspan x="0" y="0">35</tspan></text><text class="cls-8" transform="translate(109.09 344.23)"><tspan x="0" y="0">42</tspan></text><text class="cls-8" transform="translate(244.92 344.23)"><tspan x="0" y="0">39</tspan></text><text class="cls-8" transform="translate(380.41 344.23)"><tspan x="0" y="0">36</tspan></text><text class="cls-8" transform="translate(199.16 370.61)"><tspan x="0" y="0">40</tspan></text><text class="cls-8" transform="translate(289.71 370.61)"><tspan x="0" y="0">38</tspan></text><text class="cls-8" transform="translate(425.34 370.61)"><tspan x="0" y="0">35</tspan></text><text class="cls-8" transform="translate(515.79 370.61)"><tspan x="0" y="0">33</tspan></text><text class="cls-8" transform="translate(199.75 396.98)"><tspan x="0" y="0">39</tspan></text><text class="cls-8" transform="translate(380.18 396.98)"><tspan x="0" y="0">35</tspan></text><text class="cls-8" transform="translate(199.16 423.36)"><tspan x="0" y="0">40</tspan></text><text class="cls-8" transform="translate(289.71 423.36)"><tspan x="0" y="0">38</tspan></text><text class="cls-8" transform="translate(380.41 423.36)"><tspan x="0" y="0">36</tspan></text><text class="cls-8" transform="translate(515.79 423.36)"><tspan x="0" y="0">33</tspan></text><text class="cls-8" transform="translate(470.32 159.59)"><tspan x="0" y="0">34</tspan></text><text class="cls-8" transform="translate(470.32 212.34)"><tspan x="0" y="0">34</tspan></text><text class="cls-8" transform="translate(462.45 265.1)"><tspan class="cls-13" x="0" y="0">2</tspan><tspan x="7.31" y="0">438</tspan></text><text class="cls-8" transform="translate(515.88 396.98)"><tspan x="0" y="0">32</tspan></text><text class="cls-8" transform="translate(108.33 452.28)"><tspan x="0" y="0">42</tspan></text><text class="cls-8" transform="translate(155.81 452.28)"><tspan class="cls-2" x="0" y="0">4</tspan><tspan x="8.17" y="0">1</tspan></text><text class="cls-8" transform="translate(201.48 452.28)"><tspan x="0" y="0">40</tspan></text><text class="cls-8" transform="translate(244.92 452.28)"><tspan x="0" y="0">39</tspan></text><text class="cls-8" transform="translate(289.71 452.28)"><tspan x="0" y="0">38</tspan></text><text class="cls-8" transform="translate(335.32 452.28)"><tspan x="0" y="0">37</tspan></text><text class="cls-8" transform="translate(380.41 452.28)"><tspan x="0" y="0">36</tspan></text><text class="cls-8" transform="translate(425.34 452.28)"><tspan x="0" y="0">35</tspan></text><text class="cls-8" transform="translate(470.32 452.28)"><tspan x="0" y="0">34</tspan></text><text class="cls-8" transform="translate(515.79 452.28)"><tspan x="0" y="0">33</tspan></text><path class="cls-11" d="M673.14,88.17c.28,0,.5-.22.5-.5s-.22-.5-.5-.5H66.9c-.28,0-.5.22-.5.5s.22.5.5.5h606.24"/><path class="cls-11" d="M673.14,114.65c.28,0,.5-.22.5-.5s-.22-.5-.5-.5H66.9c-.28,0-.5.22-.5.5s.22.5.5.5h606.24"/><path class="cls-11" d="M673.14,141.13c.28,0,.5-.22.5-.5s-.22-.5-.5-.5H66.9c-.28,0-.5.22-.5.5s.22.5.5.5h606.24"/><path class="cls-11" d="M673.14,167.61c.28,0,.5-.22.5-.5s-.22-.5-.5-.5H66.9c-.28,0-.5.22-.5.5s.22.5.5.5h606.24"/><path class="cls-11" d="M673.14,194.1c.28,0,.5-.22.5-.5s-.22-.5-.5-.5H66.9c-.28,0-.5.22-.5.5s.22.5.5.5h606.24"/><path class="cls-11" d="M673.14,220.58c.28,0,.5-.22.5-.5s-.22-.5-.5-.5H66.9c-.28,0-.5.22-.5.5s.22.5.5.5h606.24"/><path class="cls-11" d="M673.14,247.06c.28,0,.5-.22.5-.5s-.22-.5-.5-.5H66.9c-.28,0-.5.22-.5.5s.22.5.5.5h606.24"/><path class="cls-11" d="M673.14,273.54c.28,0,.5-.22.5-.5s-.22-.5-.5-.5H66.9c-.28,0-.5.22-.5.5s.22.5.5.5h606.24"/><path class="cls-11" d="M673.14,300.02c.28,0,.5-.22.5-.5s-.22-.5-.5-.5H66.9c-.28,0-.5.22-.5.5s.22.5.5.5h606.24"/><path class="cls-11" d="M673.14,326.5c.28,0,.5-.22.5-.5s-.22-.5-.5-.5H66.9c-.28,0-.5.22-.5.5s.22.5.5.5h606.24"/><path class="cls-11" d="M673.14,352.99c.28,0,.5-.22.5-.5s-.22-.5-.5-.5H66.9c-.28,0-.5.22-.5.5s.22.5.5.5h606.24"/><path class="cls-11" d="M673.14,379.47c.28,0,.5-.22.5-.5s-.22-.5-.5-.5H66.9c-.28,0-.5.22-.5.5s.22.5.5.5h606.24"/><path class="cls-11" d="M673.14,405.95c.28,0,.5-.22.5-.5s-.22-.5-.5-.5H66.9c-.28,0-.5.22-.5.5s.22.5.5.5h606.24"/><path class="cls-11" d="M636.98,62.05c0-.28-.22-.5-.5-.5s-.5.22-.5.5v5c0,.28.22.5.5.5s.5-.22.5-.5v-5M636.98,72.05c0-.28-.22-.5-.5-.5s-.5.22-.5.5v5c0,.28.22.5.5.5s.5-.22.5-.5v-5M636.98,82.05c0-.28-.22-.5-.5-.5s-.5.22-.5.5v5c0,.28.22.5.5.5s.5-.22.5-.5v-5M636.98,92.05c0-.28-.22-.5-.5-.5s-.5.22-.5.5v5c0,.28.22.5.5.5s.5-.22.5-.5v-5M636.98,102.05c0-.28-.22-.5-.5-.5s-.5.22-.5.5v5c0,.28.22.5.5.5s.5-.22.5-.5v-5M636.98,112.05c0-.28-.22-.5-.5-.5s-.5.22-.5.5v5c0,.28.22.5.5.5s.5-.22.5-.5v-5M636.98,122.05c0-.28-.22-.5-.5-.5s-.5.22-.5.5v5c0,.28.22.5.5.5s.5-.22.5-.5v-5M636.98,132.05c0-.28-.22-.5-.5-.5s-.5.22-.5.5v5c0,.28.22.5.5.5s.5-.22.5-.5v-5M636.98,142.05c0-.28-.22-.5-.5-.5s-.5.22-.5.5v5c0,.28.22.5.5.5s.5-.22.5-.5v-5M636.98,152.05c0-.28-.22-.5-.5-.5s-.5.22-.5.5v5c0,.28.22.5.5.5s.5-.22.5-.5v-5M636.98,162.05c0-.28-.22-.5-.5-.5s-.5.22-.5.5v5c0,.28.22.5.5.5s.5-.22.5-.5v-5M636.98,172.05c0-.28-.22-.5-.5-.5s-.5.22-.5.5v5c0,.28.22.5.5.5s.5-.22.5-.5v-5M636.98,182.05c0-.28-.22-.5-.5-.5s-.5.22-.5.5v5c0,.28.22.5.5.5s.5-.22.5-.5v-5M636.98,192.05c0-.28-.22-.5-.5-.5s-.5.22-.5.5v5c0,.28.22.5.5.5s.5-.22.5-.5v-5M636.98,202.05c0-.28-.22-.5-.5-.5s-.5.22-.5.5v5c0,.28.22.5.5.5s.5-.22.5-.5v-5M636.98,212.05c0-.28-.22-.5-.5-.5s-.5.22-.5.5v5c0,.28.22.5.5.5s.5-.22.5-.5v-5M636.98,222.05c0-.28-.22-.5-.5-.5s-.5.22-.5.5v5c0,.28.22.5.5.5s.5-.22.5-.5v-5M636.98,232.05c0-.28-.22-.5-.5-.5s-.5.22-.5.5v5c0,.28.22.5.5.5s.5-.22.5-.5v-5M636.98,242.05c0-.28-.22-.5-.5-.5s-.5.22-.5.5v5c0,.28.22.5.5.5s.5-.22.5-.5v-5M636.98,252.05c0-.28-.22-.5-.5-.5s-.5.22-.5.5v5c0,.28.22.5.5.5s.5-.22.5-.5v-5M636.98,262.05c0-.28-.22-.5-.5-.5s-.5.22-.5.5v5c0,.28.22.5.5.5s.5-.22.5-.5v-5M636.98,272.05c0-.28-.22-.5-.5-.5s-.5.22-.5.5v5c0,.28.22.5.5.5s.5-.22.5-.5v-5M636.98,282.05c0-.28-.22-.5-.5-.5s-.5.22-.5.5v5c0,.28.22.5.5.5s.5-.22.5-.5v-5M636.98,292.05c0-.28-.22-.5-.5-.5s-.5.22-.5.5v5c0,.28.22.5.5.5s.5-.22.5-.5v-5M636.98,302.05c0-.28-.22-.5-.5-.5s-.5.22-.5.5v5c0,.28.22.5.5.5s.5-.22.5-.5v-5M636.98,312.05c0-.28-.22-.5-.5-.5s-.5.22-.5.5v5c0,.28.22.5.5.5s.5-.22.5-.5v-5M636.98,322.05c0-.28-.22-.5-.5-.5s-.5.22-.5.5v5c0,.28.22.5.5.5s.5-.22.5-.5v-5M636.98,332.05c0-.28-.22-.5-.5-.5s-.5.22-.5.5v5c0,.28.22.5.5.5s.5-.22.5-.5v-5M636.98,342.05c0-.28-.22-.5-.5-.5s-.5.22-.5.5v5c0,.28.22.5.5.5s.5-.22.5-.5v-5M636.98,352.05c0-.28-.22-.5-.5-.5s-.5.22-.5.5v5c0,.28.22.5.5.5s.5-.22.5-.5v-5M636.98,362.05c0-.28-.22-.5-.5-.5s-.5.22-.5.5v5c0,.28.22.5.5.5s.5-.22.5-.5v-5M636.98,372.05c0-.28-.22-.5-.5-.5s-.5.22-.5.5v5c0,.28.22.5.5.5s.5-.22.5-.5v-5M636.98,382.05c0-.28-.22-.5-.5-.5s-.5.22-.5.5v5c0,.28.22.5.5.5s.5-.22.5-.5v-5M636.98,392.05c0-.28-.22-.5-.5-.5s-.5.22-.5.5v5c0,.28.22.5.5.5s.5-.22.5-.5v-5M636.98,402.05c0-.28-.22-.5-.5-.5s-.5.22-.5.5v5c0,.28.22.5.5.5s.5-.22.5-.5v-5M636.98,412.05c0-.28-.22-.5-.5-.5s-.5.22-.5.5v5c0,.28.22.5.5.5s.5-.22.5-.5v-5M636.98,422.05c0-.28-.22-.5-.5-.5s-.5.22-.5.5v5c0,.28.22.5.5.5s.5-.22.5-.5v-5"/><path class="cls-11" d="M141.73,62.05c0-.28-.22-.5-.5-.5s-.5.22-.5.5v5c0,.28.22.5.5.5s.5-.22.5-.5v-5M141.73,72.05c0-.28-.22-.5-.5-.5s-.5.22-.5.5v5c0,.28.22.5.5.5s.5-.22.5-.5v-5M141.73,82.05c0-.28-.22-.5-.5-.5s-.5.22-.5.5v5c0,.28.22.5.5.5s.5-.22.5-.5v-5M141.73,92.05c0-.28-.22-.5-.5-.5s-.5.22-.5.5v5c0,.28.22.5.5.5s.5-.22.5-.5v-5M141.73,102.05c0-.28-.22-.5-.5-.5s-.5.22-.5.5v5c0,.28.22.5.5.5s.5-.22.5-.5v-5M141.73,112.05c0-.28-.22-.5-.5-.5s-.5.22-.5.5v5c0,.28.22.5.5.5s.5-.22.5-.5v-5M141.73,122.05c0-.28-.22-.5-.5-.5s-.5.22-.5.5v5c0,.28.22.5.5.5s.5-.22.5-.5v-5M141.73,132.05c0-.28-.22-.5-.5-.5s-.5.22-.5.5v5c0,.28.22.5.5.5s.5-.22.5-.5v-5M141.73,142.05c0-.28-.22-.5-.5-.5s-.5.22-.5.5v5c0,.28.22.5.5.5s.5-.22.5-.5v-5M141.73,152.05c0-.28-.22-.5-.5-.5s-.5.22-.5.5v5c0,.28.22.5.5.5s.5-.22.5-.5v-5M141.73,162.05c0-.28-.22-.5-.5-.5s-.5.22-.5.5v5c0,.28.22.5.5.5s.5-.22.5-.5v-5M141.73,172.05c0-.28-.22-.5-.5-.5s-.5.22-.5.5v5c0,.28.22.5.5.5s.5-.22.5-.5v-5M141.73,182.05c0-.28-.22-.5-.5-.5s-.5.22-.5.5v5c0,.28.22.5.5.5s.5-.22.5-.5v-5M141.73,192.05c0-.28-.22-.5-.5-.5s-.5.22-.5.5v5c0,.28.22.5.5.5s.5-.22.5-.5v-5M141.73,202.05c0-.28-.22-.5-.5-.5s-.5.22-.5.5v5c0,.28.22.5.5.5s.5-.22.5-.5v-5M141.73,212.05c0-.28-.22-.5-.5-.5s-.5.22-.5.5v5c0,.28.22.5.5.5s.5-.22.5-.5v-5M141.73,222.05c0-.28-.22-.5-.5-.5s-.5.22-.5.5v5c0,.28.22.5.5.5s.5-.22.5-.5v-5M141.73,232.05c0-.28-.22-.5-.5-.5s-.5.22-.5.5v5c0,.28.22.5.5.5s.5-.22.5-.5v-5M141.73,242.05c0-.28-.22-.5-.5-.5s-.5.22-.5.5v5c0,.28.22.5.5.5s.5-.22.5-.5v-5M141.73,252.05c0-.28-.22-.5-.5-.5s-.5.22-.5.5v5c0,.28.22.5.5.5s.5-.22.5-.5v-5M141.73,262.05c0-.28-.22-.5-.5-.5s-.5.22-.5.5v5c0,.28.22.5.5.5s.5-.22.5-.5v-5M141.73,272.05c0-.28-.22-.5-.5-.5s-.5.22-.5.5v5c0,.28.22.5.5.5s.5-.22.5-.5v-5M141.73,282.05c0-.28-.22-.5-.5-.5s-.5.22-.5.5v5c0,.28.22.5.5.5s.5-.22.5-.5v-5M141.73,292.05c0-.28-.22-.5-.5-.5s-.5.22-.5.5v5c0,.28.22.5.5.5s.5-.22.5-.5v-5M141.73,302.05c0-.28-.22-.5-.5-.5s-.5.22-.5.5v5c0,.28.22.5.5.5s.5-.22.5-.5v-5M141.73,312.05c0-.28-.22-.5-.5-.5s-.5.22-.5.5v5c0,.28.22.5.5.5s.5-.22.5-.5v-5M141.73,322.05c0-.28-.22-.5-.5-.5s-.5.22-.5.5v5c0,.28.22.5.5.5s.5-.22.5-.5v-5M141.73,332.05c0-.28-.22-.5-.5-.5s-.5.22-.5.5v5c0,.28.22.5.5.5s.5-.22.5-.5v-5M141.73,342.05c0-.28-.22-.5-.5-.5s-.5.22-.5.5v5c0,.28.22.5.5.5s.5-.22.5-.5v-5M141.73,352.05c0-.28-.22-.5-.5-.5s-.5.22-.5.5v5c0,.28.22.5.5.5s.5-.22.5-.5v-5M141.73,362.05c0-.28-.22-.5-.5-.5s-.5.22-.5.5v5c0,.28.22.5.5.5s.5-.22.5-.5v-5M141.73,372.05c0-.28-.22-.5-.5-.5s-.5.22-.5.5v5c0,.28.22.5.5.5s.5-.22.5-.5v-5M141.73,382.05c0-.28-.22-.5-.5-.5s-.5.22-.5.5v5c0,.28.22.5.5.5s.5-.22.5-.5v-5M141.73,392.05c0-.28-.22-.5-.5-.5s-.5.22-.5.5v5c0,.28.22.5.5.5s.5-.22.5-.5v-5M141.73,402.05c0-.28-.22-.5-.5-.5s-.5.22-.5.5v5c0,.28.22.5.5.5s.5-.22.5-.5v-5M141.73,412.05c0-.28-.22-.5-.5-.5s-.5.22-.5.5v5c0,.28.22.5.5.5s.5-.22.5-.5v-5M141.73,422.05c0-.28-.22-.5-.5-.5s-.5.22-.5.5v5c0,.28.22.5.5.5s.5-.22.5-.5v-5"/><path class="cls-11" d="M186.75,62.05c0-.28-.22-.5-.5-.5s-.5.22-.5.5v5c0,.28.22.5.5.5s.5-.22.5-.5v-5M186.75,72.05c0-.28-.22-.5-.5-.5s-.5.22-.5.5v5c0,.28.22.5.5.5s.5-.22.5-.5v-5M186.75,82.05c0-.28-.22-.5-.5-.5s-.5.22-.5.5v5c0,.28.22.5.5.5s.5-.22.5-.5v-5M186.75,92.05c0-.28-.22-.5-.5-.5s-.5.22-.5.5v5c0,.28.22.5.5.5s.5-.22.5-.5v-5M186.75,102.05c0-.28-.22-.5-.5-.5s-.5.22-.5.5v5c0,.28.22.5.5.5s.5-.22.5-.5v-5M186.75,112.05c0-.28-.22-.5-.5-.5s-.5.22-.5.5v5c0,.28.22.5.5.5s.5-.22.5-.5v-5M186.75,122.05c0-.28-.22-.5-.5-.5s-.5.22-.5.5v5c0,.28.22.5.5.5s.5-.22.5-.5v-5M186.75,132.05c0-.28-.22-.5-.5-.5s-.5.22-.5.5v5c0,.28.22.5.5.5s.5-.22.5-.5v-5M186.75,142.05c0-.28-.22-.5-.5-.5s-.5.22-.5.5v5c0,.28.22.5.5.5s.5-.22.5-.5v-5M186.75,152.05c0-.28-.22-.5-.5-.5s-.5.22-.5.5v5c0,.28.22.5.5.5s.5-.22.5-.5v-5M186.75,162.05c0-.28-.22-.5-.5-.5s-.5.22-.5.5v5c0,.28.22.5.5.5s.5-.22.5-.5v-5M186.75,172.05c0-.28-.22-.5-.5-.5s-.5.22-.5.5v5c0,.28.22.5.5.5s.5-.22.5-.5v-5M186.75,182.05c0-.28-.22-.5-.5-.5s-.5.22-.5.5v5c0,.28.22.5.5.5s.5-.22.5-.5v-5M186.75,192.05c0-.28-.22-.5-.5-.5s-.5.22-.5.5v5c0,.28.22.5.5.5s.5-.22.5-.5v-5M186.75,202.05c0-.28-.22-.5-.5-.5s-.5.22-.5.5v5c0,.28.22.5.5.5s.5-.22.5-.5v-5M186.75,212.05c0-.28-.22-.5-.5-.5s-.5.22-.5.5v5c0,.28.22.5.5.5s.5-.22.5-.5v-5M186.75,222.05c0-.28-.22-.5-.5-.5s-.5.22-.5.5v5c0,.28.22.5.5.5s.5-.22.5-.5v-5M186.75,232.05c0-.28-.22-.5-.5-.5s-.5.22-.5.5v5c0,.28.22.5.5.5s.5-.22.5-.5v-5M186.75,242.05c0-.28-.22-.5-.5-.5s-.5.22-.5.5v5c0,.28.22.5.5.5s.5-.22.5-.5v-5M186.75,252.05c0-.28-.22-.5-.5-.5s-.5.22-.5.5v5c0,.28.22.5.5.5s.5-.22.5-.5v-5M186.75,262.05c0-.28-.22-.5-.5-.5s-.5.22-.5.5v5c0,.28.22.5.5.5s.5-.22.5-.5v-5M186.75,272.05c0-.28-.22-.5-.5-.5s-.5.22-.5.5v5c0,.28.22.5.5.5s.5-.22.5-.5v-5M186.75,282.05c0-.28-.22-.5-.5-.5s-.5.22-.5.5v5c0,.28.22.5.5.5s.5-.22.5-.5v-5M186.75,292.05c0-.28-.22-.5-.5-.5s-.5.22-.5.5v5c0,.28.22.5.5.5s.5-.22.5-.5v-5M186.75,302.05c0-.28-.22-.5-.5-.5s-.5.22-.5.5v5c0,.28.22.5.5.5s.5-.22.5-.5v-5M186.75,312.05c0-.28-.22-.5-.5-.5s-.5.22-.5.5v5c0,.28.22.5.5.5s.5-.22.5-.5v-5M186.75,322.05c0-.28-.22-.5-.5-.5s-.5.22-.5.5v5c0,.28.22.5.5.5s.5-.22.5-.5v-5M186.75,332.05c0-.28-.22-.5-.5-.5s-.5.22-.5.5v5c0,.28.22.5.5.5s.5-.22.5-.5v-5M186.75,342.05c0-.28-.22-.5-.5-.5s-.5.22-.5.5v5c0,.28.22.5.5.5s.5-.22.5-.5v-5M186.75,352.05c0-.28-.22-.5-.5-.5s-.5.22-.5.5v5c0,.28.22.5.5.5s.5-.22.5-.5v-5M186.75,362.05c0-.28-.22-.5-.5-.5s-.5.22-.5.5v5c0,.28.22.5.5.5s.5-.22.5-.5v-5M186.75,372.05c0-.28-.22-.5-.5-.5s-.5.22-.5.5v5c0,.28.22.5.5.5s.5-.22.5-.5v-5M186.75,382.05c0-.28-.22-.5-.5-.5s-.5.22-.5.5v5c0,.28.22.5.5.5s.5-.22.5-.5v-5M186.75,392.05c0-.28-.22-.5-.5-.5s-.5.22-.5.5v5c0,.28.22.5.5.5s.5-.22.5-.5v-5M186.75,402.05c0-.28-.22-.5-.5-.5s-.5.22-.5.5v5c0,.28.22.5.5.5s.5-.22.5-.5v-5M186.75,412.05c0-.28-.22-.5-.5-.5s-.5.22-.5.5v5c0,.28.22.5.5.5s.5-.22.5-.5v-5M186.75,422.05c0-.28-.22-.5-.5-.5s-.5.22-.5.5v5c0,.28.22.5.5.5s.5-.22.5-.5v-5"/><path class="cls-11" d="M276.8,62.05c0-.28-.22-.5-.5-.5s-.5.22-.5.5v5c0,.28.22.5.5.5s.5-.22.5-.5v-5M276.8,72.05c0-.28-.22-.5-.5-.5s-.5.22-.5.5v5c0,.28.22.5.5.5s.5-.22.5-.5v-5M276.8,82.05c0-.28-.22-.5-.5-.5s-.5.22-.5.5v5c0,.28.22.5.5.5s.5-.22.5-.5v-5M276.8,92.05c0-.28-.22-.5-.5-.5s-.5.22-.5.5v5c0,.28.22.5.5.5s.5-.22.5-.5v-5M276.8,102.05c0-.28-.22-.5-.5-.5s-.5.22-.5.5v5c0,.28.22.5.5.5s.5-.22.5-.5v-5M276.8,112.05c0-.28-.22-.5-.5-.5s-.5.22-.5.5v5c0,.28.22.5.5.5s.5-.22.5-.5v-5M276.8,122.05c0-.28-.22-.5-.5-.5s-.5.22-.5.5v5c0,.28.22.5.5.5s.5-.22.5-.5v-5M276.8,132.05c0-.28-.22-.5-.5-.5s-.5.22-.5.5v5c0,.28.22.5.5.5s.5-.22.5-.5v-5M276.8,142.05c0-.28-.22-.5-.5-.5s-.5.22-.5.5v5c0,.28.22.5.5.5s.5-.22.5-.5v-5M276.8,152.05c0-.28-.22-.5-.5-.5s-.5.22-.5.5v5c0,.28.22.5.5.5s.5-.22.5-.5v-5M276.8,162.05c0-.28-.22-.5-.5-.5s-.5.22-.5.5v5c0,.28.22.5.5.5s.5-.22.5-.5v-5M276.8,172.05c0-.28-.22-.5-.5-.5s-.5.22-.5.5v5c0,.28.22.5.5.5s.5-.22.5-.5v-5M276.8,182.05c0-.28-.22-.5-.5-.5s-.5.22-.5.5v5c0,.28.22.5.5.5s.5-.22.5-.5v-5M276.8,192.05c0-.28-.22-.5-.5-.5s-.5.22-.5.5v5c0,.28.22.5.5.5s.5-.22.5-.5v-5M276.8,202.05c0-.28-.22-.5-.5-.5s-.5.22-.5.5v5c0,.28.22.5.5.5s.5-.22.5-.5v-5M276.8,212.05c0-.28-.22-.5-.5-.5s-.5.22-.5.5v5c0,.28.22.5.5.5s.5-.22.5-.5v-5M276.8,222.05c0-.28-.22-.5-.5-.5s-.5.22-.5.5v5c0,.28.22.5.5.5s.5-.22.5-.5v-5M276.8,232.05c0-.28-.22-.5-.5-.5s-.5.22-.5.5v5c0,.28.22.5.5.5s.5-.22.5-.5v-5M276.8,242.05c0-.28-.22-.5-.5-.5s-.5.22-.5.5v5c0,.28.22.5.5.5s.5-.22.5-.5v-5M276.8,252.05c0-.28-.22-.5-.5-.5s-.5.22-.5.5v5c0,.28.22.5.5.5s.5-.22.5-.5v-5M276.8,262.05c0-.28-.22-.5-.5-.5s-.5.22-.5.5v5c0,.28.22.5.5.5s.5-.22.5-.5v-5M276.8,272.05c0-.28-.22-.5-.5-.5s-.5.22-.5.5v5c0,.28.22.5.5.5s.5-.22.5-.5v-5M276.8,282.05c0-.28-.22-.5-.5-.5s-.5.22-.5.5v5c0,.28.22.5.5.5s.5-.22.5-.5v-5M276.8,292.05c0-.28-.22-.5-.5-.5s-.5.22-.5.5v5c0,.28.22.5.5.5s.5-.22.5-.5v-5M276.8,302.05c0-.28-.22-.5-.5-.5s-.5.22-.5.5v5c0,.28.22.5.5.5s.5-.22.5-.5v-5M276.8,312.05c0-.28-.22-.5-.5-.5s-.5.22-.5.5v5c0,.28.22.5.5.5s.5-.22.5-.5v-5M276.8,322.05c0-.28-.22-.5-.5-.5s-.5.22-.5.5v5c0,.28.22.5.5.5s.5-.22.5-.5v-5M276.8,332.05c0-.28-.22-.5-.5-.5s-.5.22-.5.5v5c0,.28.22.5.5.5s.5-.22.5-.5v-5M276.8,342.05c0-.28-.22-.5-.5-.5s-.5.22-.5.5v5c0,.28.22.5.5.5s.5-.22.5-.5v-5M276.8,352.05c0-.28-.22-.5-.5-.5s-.5.22-.5.5v5c0,.28.22.5.5.5s.5-.22.5-.5v-5M276.8,362.05c0-.28-.22-.5-.5-.5s-.5.22-.5.5v5c0,.28.22.5.5.5s.5-.22.5-.5v-5M276.8,372.05c0-.28-.22-.5-.5-.5s-.5.22-.5.5v5c0,.28.22.5.5.5s.5-.22.5-.5v-5M276.8,382.05c0-.28-.22-.5-.5-.5s-.5.22-.5.5v5c0,.28.22.5.5.5s.5-.22.5-.5v-5M276.8,392.05c0-.28-.22-.5-.5-.5s-.5.22-.5.5v5c0,.28.22.5.5.5s.5-.22.5-.5v-5M276.8,402.05c0-.28-.22-.5-.5-.5s-.5.22-.5.5v5c0,.28.22.5.5.5s.5-.22.5-.5v-5M276.8,412.05c0-.28-.22-.5-.5-.5s-.5.22-.5.5v5c0,.28.22.5.5.5s.5-.22.5-.5v-5M276.8,422.05c0-.28-.22-.5-.5-.5s-.5.22-.5.5v5c0,.28.22.5.5.5s.5-.22.5-.5v-5"/><path class="cls-11" d="M321.82,62.05c0-.28-.22-.5-.5-.5s-.5.22-.5.5v5c0,.28.22.5.5.5s.5-.22.5-.5v-5M321.82,72.05c0-.28-.22-.5-.5-.5s-.5.22-.5.5v5c0,.28.22.5.5.5s.5-.22.5-.5v-5M321.82,82.05c0-.28-.22-.5-.5-.5s-.5.22-.5.5v5c0,.28.22.5.5.5s.5-.22.5-.5v-5M321.82,92.05c0-.28-.22-.5-.5-.5s-.5.22-.5.5v5c0,.28.22.5.5.5s.5-.22.5-.5v-5M321.82,102.05c0-.28-.22-.5-.5-.5s-.5.22-.5.5v5c0,.28.22.5.5.5s.5-.22.5-.5v-5M321.82,112.05c0-.28-.22-.5-.5-.5s-.5.22-.5.5v5c0,.28.22.5.5.5s.5-.22.5-.5v-5M321.82,122.05c0-.28-.22-.5-.5-.5s-.5.22-.5.5v5c0,.28.22.5.5.5s.5-.22.5-.5v-5M321.82,132.05c0-.28-.22-.5-.5-.5s-.5.22-.5.5v5c0,.28.22.5.5.5s.5-.22.5-.5v-5M321.82,142.05c0-.28-.22-.5-.5-.5s-.5.22-.5.5v5c0,.28.22.5.5.5s.5-.22.5-.5v-5M321.82,152.05c0-.28-.22-.5-.5-.5s-.5.22-.5.5v5c0,.28.22.5.5.5s.5-.22.5-.5v-5M321.82,162.05c0-.28-.22-.5-.5-.5s-.5.22-.5.5v5c0,.28.22.5.5.5s.5-.22.5-.5v-5M321.82,172.05c0-.28-.22-.5-.5-.5s-.5.22-.5.5v5c0,.28.22.5.5.5s.5-.22.5-.5v-5M321.82,182.05c0-.28-.22-.5-.5-.5s-.5.22-.5.5v5c0,.28.22.5.5.5s.5-.22.5-.5v-5M321.82,192.05c0-.28-.22-.5-.5-.5s-.5.22-.5.5v5c0,.28.22.5.5.5s.5-.22.5-.5v-5M321.82,202.05c0-.28-.22-.5-.5-.5s-.5.22-.5.5v5c0,.28.22.5.5.5s.5-.22.5-.5v-5M321.82,212.05c0-.28-.22-.5-.5-.5s-.5.22-.5.5v5c0,.28.22.5.5.5s.5-.22.5-.5v-5M321.82,222.05c0-.28-.22-.5-.5-.5s-.5.22-.5.5v5c0,.28.22.5.5.5s.5-.22.5-.5v-5M321.82,232.05c0-.28-.22-.5-.5-.5s-.5.22-.5.5v5c0,.28.22.5.5.5s.5-.22.5-.5v-5M321.82,242.05c0-.28-.22-.5-.5-.5s-.5.22-.5.5v5c0,.28.22.5.5.5s.5-.22.5-.5v-5M321.82,252.05c0-.28-.22-.5-.5-.5s-.5.22-.5.5v5c0,.28.22.5.5.5s.5-.22.5-.5v-5M321.82,262.05c0-.28-.22-.5-.5-.5s-.5.22-.5.5v5c0,.28.22.5.5.5s.5-.22.5-.5v-5M321.82,272.05c0-.28-.22-.5-.5-.5s-.5.22-.5.5v5c0,.28.22.5.5.5s.5-.22.5-.5v-5M321.82,282.05c0-.28-.22-.5-.5-.5s-.5.22-.5.5v5c0,.28.22.5.5.5s.5-.22.5-.5v-5M321.82,292.05c0-.28-.22-.5-.5-.5s-.5.22-.5.5v5c0,.28.22.5.5.5s.5-.22.5-.5v-5M321.82,302.05c0-.28-.22-.5-.5-.5s-.5.22-.5.5v5c0,.28.22.5.5.5s.5-.22.5-.5v-5M321.82,312.05c0-.28-.22-.5-.5-.5s-.5.22-.5.5v5c0,.28.22.5.5.5s.5-.22.5-.5v-5M321.82,322.05c0-.28-.22-.5-.5-.5s-.5.22-.5.5v5c0,.28.22.5.5.5s.5-.22.5-.5v-5M321.82,332.05c0-.28-.22-.5-.5-.5s-.5.22-.5.5v5c0,.28.22.5.5.5s.5-.22.5-.5v-5M321.82,342.05c0-.28-.22-.5-.5-.5s-.5.22-.5.5v5c0,.28.22.5.5.5s.5-.22.5-.5v-5M321.82,352.05c0-.28-.22-.5-.5-.5s-.5.22-.5.5v5c0,.28.22.5.5.5s.5-.22.5-.5v-5M321.82,362.05c0-.28-.22-.5-.5-.5s-.5.22-.5.5v5c0,.28.22.5.5.5s.5-.22.5-.5v-5M321.82,372.05c0-.28-.22-.5-.5-.5s-.5.22-.5.5v5c0,.28.22.5.5.5s.5-.22.5-.5v-5M321.82,382.05c0-.28-.22-.5-.5-.5s-.5.22-.5.5v5c0,.28.22.5.5.5s.5-.22.5-.5v-5M321.82,392.05c0-.28-.22-.5-.5-.5s-.5.22-.5.5v5c0,.28.22.5.5.5s.5-.22.5-.5v-5M321.82,402.05c0-.28-.22-.5-.5-.5s-.5.22-.5.5v5c0,.28.22.5.5.5s.5-.22.5-.5v-5M321.82,412.05c0-.28-.22-.5-.5-.5s-.5.22-.5.5v5c0,.28.22.5.5.5s.5-.22.5-.5v-5M321.82,422.05c0-.28-.22-.5-.5-.5s-.5.22-.5.5v5c0,.28.22.5.5.5s.5-.22.5-.5v-5"/><path class="cls-11" d="M366.84,62.05c0-.28-.22-.5-.5-.5s-.5.22-.5.5v5c0,.28.22.5.5.5s.5-.22.5-.5v-5M366.84,72.05c0-.28-.22-.5-.5-.5s-.5.22-.5.5v5c0,.28.22.5.5.5s.5-.22.5-.5v-5M366.84,82.05c0-.28-.22-.5-.5-.5s-.5.22-.5.5v5c0,.28.22.5.5.5s.5-.22.5-.5v-5M366.84,92.05c0-.28-.22-.5-.5-.5s-.5.22-.5.5v5c0,.28.22.5.5.5s.5-.22.5-.5v-5M366.84,102.05c0-.28-.22-.5-.5-.5s-.5.22-.5.5v5c0,.28.22.5.5.5s.5-.22.5-.5v-5M366.84,112.05c0-.28-.22-.5-.5-.5s-.5.22-.5.5v5c0,.28.22.5.5.5s.5-.22.5-.5v-5M366.84,122.05c0-.28-.22-.5-.5-.5s-.5.22-.5.5v5c0,.28.22.5.5.5s.5-.22.5-.5v-5M366.84,132.05c0-.28-.22-.5-.5-.5s-.5.22-.5.5v5c0,.28.22.5.5.5s.5-.22.5-.5v-5M366.84,142.05c0-.28-.22-.5-.5-.5s-.5.22-.5.5v5c0,.28.22.5.5.5s.5-.22.5-.5v-5M366.84,152.05c0-.28-.22-.5-.5-.5s-.5.22-.5.5v5c0,.28.22.5.5.5s.5-.22.5-.5v-5M366.84,162.05c0-.28-.22-.5-.5-.5s-.5.22-.5.5v5c0,.28.22.5.5.5s.5-.22.5-.5v-5M366.84,172.05c0-.28-.22-.5-.5-.5s-.5.22-.5.5v5c0,.28.22.5.5.5s.5-.22.5-.5v-5M366.84,182.05c0-.28-.22-.5-.5-.5s-.5.22-.5.5v5c0,.28.22.5.5.5s.5-.22.5-.5v-5M366.84,192.05c0-.28-.22-.5-.5-.5s-.5.22-.5.5v5c0,.28.22.5.5.5s.5-.22.5-.5v-5M366.84,202.05c0-.28-.22-.5-.5-.5s-.5.22-.5.5v5c0,.28.22.5.5.5s.5-.22.5-.5v-5M366.84,212.05c0-.28-.22-.5-.5-.5s-.5.22-.5.5v5c0,.28.22.5.5.5s.5-.22.5-.5v-5M366.84,222.05c0-.28-.22-.5-.5-.5s-.5.22-.5.5v5c0,.28.22.5.5.5s.5-.22.5-.5v-5M366.84,232.05c0-.28-.22-.5-.5-.5s-.5.22-.5.5v5c0,.28.22.5.5.5s.5-.22.5-.5v-5M366.84,242.05c0-.28-.22-.5-.5-.5s-.5.22-.5.5v5c0,.28.22.5.5.5s.5-.22.5-.5v-5M366.84,252.05c0-.28-.22-.5-.5-.5s-.5.22-.5.5v5c0,.28.22.5.5.5s.5-.22.5-.5v-5M366.84,262.05c0-.28-.22-.5-.5-.5s-.5.22-.5.5v5c0,.28.22.5.5.5s.5-.22.5-.5v-5M366.84,272.05c0-.28-.22-.5-.5-.5s-.5.22-.5.5v5c0,.28.22.5.5.5s.5-.22.5-.5v-5M366.84,282.05c0-.28-.22-.5-.5-.5s-.5.22-.5.5v5c0,.28.22.5.5.5s.5-.22.5-.5v-5M366.84,292.05c0-.28-.22-.5-.5-.5s-.5.22-.5.5v5c0,.28.22.5.5.5s.5-.22.5-.5v-5M366.84,302.05c0-.28-.22-.5-.5-.5s-.5.22-.5.5v5c0,.28.22.5.5.5s.5-.22.5-.5v-5M366.84,312.05c0-.28-.22-.5-.5-.5s-.5.22-.5.5v5c0,.28.22.5.5.5s.5-.22.5-.5v-5M366.84,322.05c0-.28-.22-.5-.5-.5s-.5.22-.5.5v5c0,.28.22.5.5.5s.5-.22.5-.5v-5M366.84,332.05c0-.28-.22-.5-.5-.5s-.5.22-.5.5v5c0,.28.22.5.5.5s.5-.22.5-.5v-5M366.84,342.05c0-.28-.22-.5-.5-.5s-.5.22-.5.5v5c0,.28.22.5.5.5s.5-.22.5-.5v-5M366.84,352.05c0-.28-.22-.5-.5-.5s-.5.22-.5.5v5c0,.28.22.5.5.5s.5-.22.5-.5v-5M366.84,362.05c0-.28-.22-.5-.5-.5s-.5.22-.5.5v5c0,.28.22.5.5.5s.5-.22.5-.5v-5M366.84,372.05c0-.28-.22-.5-.5-.5s-.5.22-.5.5v5c0,.28.22.5.5.5s.5-.22.5-.5v-5M366.84,382.05c0-.28-.22-.5-.5-.5s-.5.22-.5.5v5c0,.28.22.5.5.5s.5-.22.5-.5v-5M366.84,392.05c0-.28-.22-.5-.5-.5s-.5.22-.5.5v5c0,.28.22.5.5.5s.5-.22.5-.5v-5M366.84,402.05c0-.28-.22-.5-.5-.5s-.5.22-.5.5v5c0,.28.22.5.5.5s.5-.22.5-.5v-5M366.84,412.05c0-.28-.22-.5-.5-.5s-.5.22-.5.5v5c0,.28.22.5.5.5s.5-.22.5-.5v-5M366.84,422.05c0-.28-.22-.5-.5-.5s-.5.22-.5.5v5c0,.28.22.5.5.5s.5-.22.5-.5v-5"/><path class="cls-11" d="M411.87,62.05c0-.28-.22-.5-.5-.5s-.5.22-.5.5v5c0,.28.22.5.5.5s.5-.22.5-.5v-5M411.87,72.05c0-.28-.22-.5-.5-.5s-.5.22-.5.5v5c0,.28.22.5.5.5s.5-.22.5-.5v-5M411.87,82.05c0-.28-.22-.5-.5-.5s-.5.22-.5.5v5c0,.28.22.5.5.5s.5-.22.5-.5v-5M411.87,92.05c0-.28-.22-.5-.5-.5s-.5.22-.5.5v5c0,.28.22.5.5.5s.5-.22.5-.5v-5M411.87,102.05c0-.28-.22-.5-.5-.5s-.5.22-.5.5v5c0,.28.22.5.5.5s.5-.22.5-.5v-5M411.87,112.05c0-.28-.22-.5-.5-.5s-.5.22-.5.5v5c0,.28.22.5.5.5s.5-.22.5-.5v-5M411.87,122.05c0-.28-.22-.5-.5-.5s-.5.22-.5.5v5c0,.28.22.5.5.5s.5-.22.5-.5v-5M411.87,132.05c0-.28-.22-.5-.5-.5s-.5.22-.5.5v5c0,.28.22.5.5.5s.5-.22.5-.5v-5M411.87,142.05c0-.28-.22-.5-.5-.5s-.5.22-.5.5v5c0,.28.22.5.5.5s.5-.22.5-.5v-5M411.87,152.05c0-.28-.22-.5-.5-.5s-.5.22-.5.5v5c0,.28.22.5.5.5s.5-.22.5-.5v-5M411.87,162.05c0-.28-.22-.5-.5-.5s-.5.22-.5.5v5c0,.28.22.5.5.5s.5-.22.5-.5v-5M411.87,172.05c0-.28-.22-.5-.5-.5s-.5.22-.5.5v5c0,.28.22.5.5.5s.5-.22.5-.5v-5M411.87,182.05c0-.28-.22-.5-.5-.5s-.5.22-.5.5v5c0,.28.22.5.5.5s.5-.22.5-.5v-5M411.87,192.05c0-.28-.22-.5-.5-.5s-.5.22-.5.5v5c0,.28.22.5.5.5s.5-.22.5-.5v-5M411.87,202.05c0-.28-.22-.5-.5-.5s-.5.22-.5.5v5c0,.28.22.5.5.5s.5-.22.5-.5v-5M411.87,212.05c0-.28-.22-.5-.5-.5s-.5.22-.5.5v5c0,.28.22.5.5.5s.5-.22.5-.5v-5M411.87,222.05c0-.28-.22-.5-.5-.5s-.5.22-.5.5v5c0,.28.22.5.5.5s.5-.22.5-.5v-5M411.87,232.05c0-.28-.22-.5-.5-.5s-.5.22-.5.5v5c0,.28.22.5.5.5s.5-.22.5-.5v-5M411.87,242.05c0-.28-.22-.5-.5-.5s-.5.22-.5.5v5c0,.28.22.5.5.5s.5-.22.5-.5v-5M411.87,252.05c0-.28-.22-.5-.5-.5s-.5.22-.5.5v5c0,.28.22.5.5.5s.5-.22.5-.5v-5M411.87,262.05c0-.28-.22-.5-.5-.5s-.5.22-.5.5v5c0,.28.22.5.5.5s.5-.22.5-.5v-5M411.87,272.05c0-.28-.22-.5-.5-.5s-.5.22-.5.5v5c0,.28.22.5.5.5s.5-.22.5-.5v-5M411.87,282.05c0-.28-.22-.5-.5-.5s-.5.22-.5.5v5c0,.28.22.5.5.5s.5-.22.5-.5v-5M411.87,292.05c0-.28-.22-.5-.5-.5s-.5.22-.5.5v5c0,.28.22.5.5.5s.5-.22.5-.5v-5M411.87,302.05c0-.28-.22-.5-.5-.5s-.5.22-.5.5v5c0,.28.22.5.5.5s.5-.22.5-.5v-5M411.87,312.05c0-.28-.22-.5-.5-.5s-.5.22-.5.5v5c0,.28.22.5.5.5s.5-.22.5-.5v-5M411.87,322.05c0-.28-.22-.5-.5-.5s-.5.22-.5.5v5c0,.28.22.5.5.5s.5-.22.5-.5v-5M411.87,332.05c0-.28-.22-.5-.5-.5s-.5.22-.5.5v5c0,.28.22.5.5.5s.5-.22.5-.5v-5M411.87,342.05c0-.28-.22-.5-.5-.5s-.5.22-.5.5v5c0,.28.22.5.5.5s.5-.22.5-.5v-5M411.87,352.05c0-.28-.22-.5-.5-.5s-.5.22-.5.5v5c0,.28.22.5.5.5s.5-.22.5-.5v-5M411.87,362.05c0-.28-.22-.5-.5-.5s-.5.22-.5.5v5c0,.28.22.5.5.5s.5-.22.5-.5v-5M411.87,372.05c0-.28-.22-.5-.5-.5s-.5.22-.5.5v5c0,.28.22.5.5.5s.5-.22.5-.5v-5M411.87,382.05c0-.28-.22-.5-.5-.5s-.5.22-.5.5v5c0,.28.22.5.5.5s.5-.22.5-.5v-5M411.87,392.05c0-.28-.22-.5-.5-.5s-.5.22-.5.5v5c0,.28.22.5.5.5s.5-.22.5-.5v-5M411.87,402.05c0-.28-.22-.5-.5-.5s-.5.22-.5.5v5c0,.28.22.5.5.5s.5-.22.5-.5v-5M411.87,412.05c0-.28-.22-.5-.5-.5s-.5.22-.5.5v5c0,.28.22.5.5.5s.5-.22.5-.5v-5M411.87,422.05c0-.28-.22-.5-.5-.5s-.5.22-.5.5v5c0,.28.22.5.5.5s.5-.22.5-.5v-5"/><path class="cls-11" d="M456.89,62.05c0-.28-.22-.5-.5-.5s-.5.22-.5.5v5c0,.28.22.5.5.5s.5-.22.5-.5v-5M456.89,72.05c0-.28-.22-.5-.5-.5s-.5.22-.5.5v5c0,.28.22.5.5.5s.5-.22.5-.5v-5M456.89,82.05c0-.28-.22-.5-.5-.5s-.5.22-.5.5v5c0,.28.22.5.5.5s.5-.22.5-.5v-5M456.89,92.05c0-.28-.22-.5-.5-.5s-.5.22-.5.5v5c0,.28.22.5.5.5s.5-.22.5-.5v-5M456.89,102.05c0-.28-.22-.5-.5-.5s-.5.22-.5.5v5c0,.28.22.5.5.5s.5-.22.5-.5v-5M456.89,112.05c0-.28-.22-.5-.5-.5s-.5.22-.5.5v5c0,.28.22.5.5.5s.5-.22.5-.5v-5M456.89,122.05c0-.28-.22-.5-.5-.5s-.5.22-.5.5v5c0,.28.22.5.5.5s.5-.22.5-.5v-5M456.89,132.05c0-.28-.22-.5-.5-.5s-.5.22-.5.5v5c0,.28.22.5.5.5s.5-.22.5-.5v-5M456.89,142.05c0-.28-.22-.5-.5-.5s-.5.22-.5.5v5c0,.28.22.5.5.5s.5-.22.5-.5v-5M456.89,152.05c0-.28-.22-.5-.5-.5s-.5.22-.5.5v5c0,.28.22.5.5.5s.5-.22.5-.5v-5M456.89,162.05c0-.28-.22-.5-.5-.5s-.5.22-.5.5v5c0,.28.22.5.5.5s.5-.22.5-.5v-5M456.89,172.05c0-.28-.22-.5-.5-.5s-.5.22-.5.5v5c0,.28.22.5.5.5s.5-.22.5-.5v-5M456.89,182.05c0-.28-.22-.5-.5-.5s-.5.22-.5.5v5c0,.28.22.5.5.5s.5-.22.5-.5v-5M456.89,192.05c0-.28-.22-.5-.5-.5s-.5.22-.5.5v5c0,.28.22.5.5.5s.5-.22.5-.5v-5M456.89,202.05c0-.28-.22-.5-.5-.5s-.5.22-.5.5v5c0,.28.22.5.5.5s.5-.22.5-.5v-5M456.89,212.05c0-.28-.22-.5-.5-.5s-.5.22-.5.5v5c0,.28.22.5.5.5s.5-.22.5-.5v-5M456.89,222.05c0-.28-.22-.5-.5-.5s-.5.22-.5.5v5c0,.28.22.5.5.5s.5-.22.5-.5v-5M456.89,232.05c0-.28-.22-.5-.5-.5s-.5.22-.5.5v5c0,.28.22.5.5.5s.5-.22.5-.5v-5M456.89,242.05c0-.28-.22-.5-.5-.5s-.5.22-.5.5v5c0,.28.22.5.5.5s.5-.22.5-.5v-5M456.89,252.05c0-.28-.22-.5-.5-.5s-.5.22-.5.5v5c0,.28.22.5.5.5s.5-.22.5-.5v-5M456.89,262.05c0-.28-.22-.5-.5-.5s-.5.22-.5.5v5c0,.28.22.5.5.5s.5-.22.5-.5v-5M456.89,272.05c0-.28-.22-.5-.5-.5s-.5.22-.5.5v5c0,.28.22.5.5.5s.5-.22.5-.5v-5M456.89,282.05c0-.28-.22-.5-.5-.5s-.5.22-.5.5v5c0,.28.22.5.5.5s.5-.22.5-.5v-5M456.89,292.05c0-.28-.22-.5-.5-.5s-.5.22-.5.5v5c0,.28.22.5.5.5s.5-.22.5-.5v-5M456.89,302.05c0-.28-.22-.5-.5-.5s-.5.22-.5.5v5c0,.28.22.5.5.5s.5-.22.5-.5v-5M456.89,312.05c0-.28-.22-.5-.5-.5s-.5.22-.5.5v5c0,.28.22.5.5.5s.5-.22.5-.5v-5M456.89,322.05c0-.28-.22-.5-.5-.5s-.5.22-.5.5v5c0,.28.22.5.5.5s.5-.22.5-.5v-5M456.89,332.05c0-.28-.22-.5-.5-.5s-.5.22-.5.5v5c0,.28.22.5.5.5s.5-.22.5-.5v-5M456.89,342.05c0-.28-.22-.5-.5-.5s-.5.22-.5.5v5c0,.28.22.5.5.5s.5-.22.5-.5v-5M456.89,352.05c0-.28-.22-.5-.5-.5s-.5.22-.5.5v5c0,.28.22.5.5.5s.5-.22.5-.5v-5M456.89,362.05c0-.28-.22-.5-.5-.5s-.5.22-.5.5v5c0,.28.22.5.5.5s.5-.22.5-.5v-5M456.89,372.05c0-.28-.22-.5-.5-.5s-.5.22-.5.5v5c0,.28.22.5.5.5s.5-.22.5-.5v-5M456.89,382.05c0-.28-.22-.5-.5-.5s-.5.22-.5.5v5c0,.28.22.5.5.5s.5-.22.5-.5v-5M456.89,392.05c0-.28-.22-.5-.5-.5s-.5.22-.5.5v5c0,.28.22.5.5.5s.5-.22.5-.5v-5M456.89,402.05c0-.28-.22-.5-.5-.5s-.5.22-.5.5v5c0,.28.22.5.5.5s.5-.22.5-.5v-5M456.89,412.05c0-.28-.22-.5-.5-.5s-.5.22-.5.5v5c0,.28.22.5.5.5s.5-.22.5-.5v-5M456.89,422.05c0-.28-.22-.5-.5-.5s-.5.22-.5.5v5c0,.28.22.5.5.5s.5-.22.5-.5v-5"/><path class="cls-11" d="M501.91,62.05c0-.28-.22-.5-.5-.5s-.5.22-.5.5v5c0,.28.22.5.5.5s.5-.22.5-.5v-5M501.91,72.05c0-.28-.22-.5-.5-.5s-.5.22-.5.5v5c0,.28.22.5.5.5s.5-.22.5-.5v-5M501.91,82.05c0-.28-.22-.5-.5-.5s-.5.22-.5.5v5c0,.28.22.5.5.5s.5-.22.5-.5v-5M501.91,92.05c0-.28-.22-.5-.5-.5s-.5.22-.5.5v5c0,.28.22.5.5.5s.5-.22.5-.5v-5M501.91,102.05c0-.28-.22-.5-.5-.5s-.5.22-.5.5v5c0,.28.22.5.5.5s.5-.22.5-.5v-5M501.91,112.05c0-.28-.22-.5-.5-.5s-.5.22-.5.5v5c0,.28.22.5.5.5s.5-.22.5-.5v-5M501.91,122.05c0-.28-.22-.5-.5-.5s-.5.22-.5.5v5c0,.28.22.5.5.5s.5-.22.5-.5v-5M501.91,132.05c0-.28-.22-.5-.5-.5s-.5.22-.5.5v5c0,.28.22.5.5.5s.5-.22.5-.5v-5M501.91,142.05c0-.28-.22-.5-.5-.5s-.5.22-.5.5v5c0,.28.22.5.5.5s.5-.22.5-.5v-5M501.91,152.05c0-.28-.22-.5-.5-.5s-.5.22-.5.5v5c0,.28.22.5.5.5s.5-.22.5-.5v-5M501.91,162.05c0-.28-.22-.5-.5-.5s-.5.22-.5.5v5c0,.28.22.5.5.5s.5-.22.5-.5v-5M501.91,172.05c0-.28-.22-.5-.5-.5s-.5.22-.5.5v5c0,.28.22.5.5.5s.5-.22.5-.5v-5M501.91,182.05c0-.28-.22-.5-.5-.5s-.5.22-.5.5v5c0,.28.22.5.5.5s.5-.22.5-.5v-5M501.91,192.05c0-.28-.22-.5-.5-.5s-.5.22-.5.5v5c0,.28.22.5.5.5s.5-.22.5-.5v-5M501.91,202.05c0-.28-.22-.5-.5-.5s-.5.22-.5.5v5c0,.28.22.5.5.5s.5-.22.5-.5v-5M501.91,212.05c0-.28-.22-.5-.5-.5s-.5.22-.5.5v5c0,.28.22.5.5.5s.5-.22.5-.5v-5M501.91,222.05c0-.28-.22-.5-.5-.5s-.5.22-.5.5v5c0,.28.22.5.5.5s.5-.22.5-.5v-5M501.91,232.05c0-.28-.22-.5-.5-.5s-.5.22-.5.5v5c0,.28.22.5.5.5s.5-.22.5-.5v-5M501.91,242.05c0-.28-.22-.5-.5-.5s-.5.22-.5.5v5c0,.28.22.5.5.5s.5-.22.5-.5v-5M501.91,252.05c0-.28-.22-.5-.5-.5s-.5.22-.5.5v5c0,.28.22.5.5.5s.5-.22.5-.5v-5M501.91,262.05c0-.28-.22-.5-.5-.5s-.5.22-.5.5v5c0,.28.22.5.5.5s.5-.22.5-.5v-5M501.91,272.05c0-.28-.22-.5-.5-.5s-.5.22-.5.5v5c0,.28.22.5.5.5s.5-.22.5-.5v-5M501.91,282.05c0-.28-.22-.5-.5-.5s-.5.22-.5.5v5c0,.28.22.5.5.5s.5-.22.5-.5v-5M501.91,292.05c0-.28-.22-.5-.5-.5s-.5.22-.5.5v5c0,.28.22.5.5.5s.5-.22.5-.5v-5M501.91,302.05c0-.28-.22-.5-.5-.5s-.5.22-.5.5v5c0,.28.22.5.5.5s.5-.22.5-.5v-5M501.91,312.05c0-.28-.22-.5-.5-.5s-.5.22-.5.5v5c0,.28.22.5.5.5s.5-.22.5-.5v-5M501.91,322.05c0-.28-.22-.5-.5-.5s-.5.22-.5.5v5c0,.28.22.5.5.5s.5-.22.5-.5v-5M501.91,332.05c0-.28-.22-.5-.5-.5s-.5.22-.5.5v5c0,.28.22.5.5.5s.5-.22.5-.5v-5M501.91,342.05c0-.28-.22-.5-.5-.5s-.5.22-.5.5v5c0,.28.22.5.5.5s.5-.22.5-.5v-5M501.91,352.05c0-.28-.22-.5-.5-.5s-.5.22-.5.5v5c0,.28.22.5.5.5s.5-.22.5-.5v-5M501.91,362.05c0-.28-.22-.5-.5-.5s-.5.22-.5.5v5c0,.28.22.5.5.5s.5-.22.5-.5v-5M501.91,372.05c0-.28-.22-.5-.5-.5s-.5.22-.5.5v5c0,.28.22.5.5.5s.5-.22.5-.5v-5M501.91,382.05c0-.28-.22-.5-.5-.5s-.5.22-.5.5v5c0,.28.22.5.5.5s.5-.22.5-.5v-5M501.91,392.05c0-.28-.22-.5-.5-.5s-.5.22-.5.5v5c0,.28.22.5.5.5s.5-.22.5-.5v-5M501.91,402.05c0-.28-.22-.5-.5-.5s-.5.22-.5.5v5c0,.28.22.5.5.5s.5-.22.5-.5v-5M501.91,412.05c0-.28-.22-.5-.5-.5s-.5.22-.5.5v5c0,.28.22.5.5.5s.5-.22.5-.5v-5M501.91,422.05c0-.28-.22-.5-.5-.5s-.5.22-.5.5v5c0,.28.22.5.5.5s.5-.22.5-.5v-5"/><path class="cls-11" d="M591.96,62.05c0-.28-.22-.5-.5-.5s-.5.22-.5.5v5c0,.28.22.5.5.5s.5-.22.5-.5v-5M591.96,72.05c0-.28-.22-.5-.5-.5s-.5.22-.5.5v5c0,.28.22.5.5.5s.5-.22.5-.5v-5M591.96,82.05c0-.28-.22-.5-.5-.5s-.5.22-.5.5v5c0,.28.22.5.5.5s.5-.22.5-.5v-5M591.96,92.05c0-.28-.22-.5-.5-.5s-.5.22-.5.5v5c0,.28.22.5.5.5s.5-.22.5-.5v-5M591.96,102.05c0-.28-.22-.5-.5-.5s-.5.22-.5.5v5c0,.28.22.5.5.5s.5-.22.5-.5v-5M591.96,112.05c0-.28-.22-.5-.5-.5s-.5.22-.5.5v5c0,.28.22.5.5.5s.5-.22.5-.5v-5M591.96,122.05c0-.28-.22-.5-.5-.5s-.5.22-.5.5v5c0,.28.22.5.5.5s.5-.22.5-.5v-5M591.96,132.05c0-.28-.22-.5-.5-.5s-.5.22-.5.5v5c0,.28.22.5.5.5s.5-.22.5-.5v-5M591.96,142.05c0-.28-.22-.5-.5-.5s-.5.22-.5.5v5c0,.28.22.5.5.5s.5-.22.5-.5v-5M591.96,152.05c0-.28-.22-.5-.5-.5s-.5.22-.5.5v5c0,.28.22.5.5.5s.5-.22.5-.5v-5M591.96,162.05c0-.28-.22-.5-.5-.5s-.5.22-.5.5v5c0,.28.22.5.5.5s.5-.22.5-.5v-5M591.96,172.05c0-.28-.22-.5-.5-.5s-.5.22-.5.5v5c0,.28.22.5.5.5s.5-.22.5-.5v-5M591.96,182.05c0-.28-.22-.5-.5-.5s-.5.22-.5.5v5c0,.28.22.5.5.5s.5-.22.5-.5v-5M591.96,192.05c0-.28-.22-.5-.5-.5s-.5.22-.5.5v5c0,.28.22.5.5.5s.5-.22.5-.5v-5M591.96,202.05c0-.28-.22-.5-.5-.5s-.5.22-.5.5v5c0,.28.22.5.5.5s.5-.22.5-.5v-5M591.96,212.05c0-.28-.22-.5-.5-.5s-.5.22-.5.5v5c0,.28.22.5.5.5s.5-.22.5-.5v-5M591.96,222.05c0-.28-.22-.5-.5-.5s-.5.22-.5.5v5c0,.28.22.5.5.5s.5-.22.5-.5v-5M591.96,232.05c0-.28-.22-.5-.5-.5s-.5.22-.5.5v5c0,.28.22.5.5.5s.5-.22.5-.5v-5M591.96,242.05c0-.28-.22-.5-.5-.5s-.5.22-.5.5v5c0,.28.22.5.5.5s.5-.22.5-.5v-5M591.96,252.05c0-.28-.22-.5-.5-.5s-.5.22-.5.5v5c0,.28.22.5.5.5s.5-.22.5-.5v-5M591.96,262.05c0-.28-.22-.5-.5-.5s-.5.22-.5.5v5c0,.28.22.5.5.5s.5-.22.5-.5v-5M591.96,272.05c0-.28-.22-.5-.5-.5s-.5.22-.5.5v5c0,.28.22.5.5.5s.5-.22.5-.5v-5M591.96,282.05c0-.28-.22-.5-.5-.5s-.5.22-.5.5v5c0,.28.22.5.5.5s.5-.22.5-.5v-5M591.96,292.05c0-.28-.22-.5-.5-.5s-.5.22-.5.5v5c0,.28.22.5.5.5s.5-.22.5-.5v-5M591.96,302.05c0-.28-.22-.5-.5-.5s-.5.22-.5.5v5c0,.28.22.5.5.5s.5-.22.5-.5v-5M591.96,312.05c0-.28-.22-.5-.5-.5s-.5.22-.5.5v5c0,.28.22.5.5.5s.5-.22.5-.5v-5M591.96,322.05c0-.28-.22-.5-.5-.5s-.5.22-.5.5v5c0,.28.22.5.5.5s.5-.22.5-.5v-5M591.96,332.05c0-.28-.22-.5-.5-.5s-.5.22-.5.5v5c0,.28.22.5.5.5s.5-.22.5-.5v-5M591.96,342.05c0-.28-.22-.5-.5-.5s-.5.22-.5.5v5c0,.28.22.5.5.5s.5-.22.5-.5v-5M591.96,352.05c0-.28-.22-.5-.5-.5s-.5.22-.5.5v5c0,.28.22.5.5.5s.5-.22.5-.5v-5M591.96,362.05c0-.28-.22-.5-.5-.5s-.5.22-.5.5v5c0,.28.22.5.5.5s.5-.22.5-.5v-5M591.96,372.05c0-.28-.22-.5-.5-.5s-.5.22-.5.5v5c0,.28.22.5.5.5s.5-.22.5-.5v-5M591.96,382.05c0-.28-.22-.5-.5-.5s-.5.22-.5.5v5c0,.28.22.5.5.5s.5-.22.5-.5v-5M591.96,392.05c0-.28-.22-.5-.5-.5s-.5.22-.5.5v5c0,.28.22.5.5.5s.5-.22.5-.5v-5M591.96,402.05c0-.28-.22-.5-.5-.5s-.5.22-.5.5v5c0,.28.22.5.5.5s.5-.22.5-.5v-5M591.96,412.05c0-.28-.22-.5-.5-.5s-.5.22-.5.5v5c0,.28.22.5.5.5s.5-.22.5-.5v-5M591.96,422.05c0-.28-.22-.5-.5-.5s-.5.22-.5.5v5c0,.28.22.5.5.5s.5-.22.5-.5v-5"/><path class="cls-3" d="M231.77,62.05c0-.28-.22-.5-.5-.5s-.5.22-.5.5v5c0,.28.22.5.5.5s.5-.22.5-.5v-5M231.77,72.05c0-.28-.22-.5-.5-.5s-.5.22-.5.5v5c0,.28.22.5.5.5s.5-.22.5-.5v-5M231.77,82.05c0-.28-.22-.5-.5-.5s-.5.22-.5.5v5c0,.28.22.5.5.5s.5-.22.5-.5v-5M231.77,92.05c0-.28-.22-.5-.5-.5s-.5.22-.5.5v5c0,.28.22.5.5.5s.5-.22.5-.5v-5M231.77,102.05c0-.28-.22-.5-.5-.5s-.5.22-.5.5v5c0,.28.22.5.5.5s.5-.22.5-.5v-5M231.77,112.05c0-.28-.22-.5-.5-.5s-.5.22-.5.5v5c0,.28.22.5.5.5s.5-.22.5-.5v-5M231.77,122.05c0-.28-.22-.5-.5-.5s-.5.22-.5.5v5c0,.28.22.5.5.5s.5-.22.5-.5v-5M231.77,132.05c0-.28-.22-.5-.5-.5s-.5.22-.5.5v5c0,.28.22.5.5.5s.5-.22.5-.5v-5M231.77,142.05c0-.28-.22-.5-.5-.5s-.5.22-.5.5v5c0,.28.22.5.5.5s.5-.22.5-.5v-5M231.77,152.05c0-.28-.22-.5-.5-.5s-.5.22-.5.5v5c0,.28.22.5.5.5s.5-.22.5-.5v-5M231.77,162.05c0-.28-.22-.5-.5-.5s-.5.22-.5.5v5c0,.28.22.5.5.5s.5-.22.5-.5v-5M231.77,172.05c0-.28-.22-.5-.5-.5s-.5.22-.5.5v5c0,.28.22.5.5.5s.5-.22.5-.5v-5M231.77,182.05c0-.28-.22-.5-.5-.5s-.5.22-.5.5v5c0,.28.22.5.5.5s.5-.22.5-.5v-5M231.77,192.05c0-.28-.22-.5-.5-.5s-.5.22-.5.5v5c0,.28.22.5.5.5s.5-.22.5-.5v-5M231.77,202.05c0-.28-.22-.5-.5-.5s-.5.22-.5.5v5c0,.28.22.5.5.5s.5-.22.5-.5v-5M231.77,212.05c0-.28-.22-.5-.5-.5s-.5.22-.5.5v5c0,.28.22.5.5.5s.5-.22.5-.5v-5M231.77,222.05c0-.28-.22-.5-.5-.5s-.5.22-.5.5v5c0,.28.22.5.5.5s.5-.22.5-.5v-5M231.77,232.05c0-.28-.22-.5-.5-.5s-.5.22-.5.5v5c0,.28.22.5.5.5s.5-.22.5-.5v-5M231.77,242.05c0-.28-.22-.5-.5-.5s-.5.22-.5.5v5c0,.28.22.5.5.5s.5-.22.5-.5v-5M231.77,252.05c0-.28-.22-.5-.5-.5s-.5.22-.5.5v5c0,.28.22.5.5.5s.5-.22.5-.5v-5M231.77,262.05c0-.28-.22-.5-.5-.5s-.5.22-.5.5v5c0,.28.22.5.5.5s.5-.22.5-.5v-5M231.77,272.05c0-.28-.22-.5-.5-.5s-.5.22-.5.5v5c0,.28.22.5.5.5s.5-.22.5-.5v-5M231.77,282.05c0-.28-.22-.5-.5-.5s-.5.22-.5.5v5c0,.28.22.5.5.5s.5-.22.5-.5v-5M231.77,292.05c0-.28-.22-.5-.5-.5s-.5.22-.5.5v5c0,.28.22.5.5.5s.5-.22.5-.5v-5M231.77,302.05c0-.28-.22-.5-.5-.5s-.5.22-.5.5v5c0,.28.22.5.5.5s.5-.22.5-.5v-5M231.77,312.05c0-.28-.22-.5-.5-.5s-.5.22-.5.5v5c0,.28.22.5.5.5s.5-.22.5-.5v-5M231.77,322.05c0-.28-.22-.5-.5-.5s-.5.22-.5.5v5c0,.28.22.5.5.5s.5-.22.5-.5v-5M231.77,332.05c0-.28-.22-.5-.5-.5s-.5.22-.5.5v5c0,.28.22.5.5.5s.5-.22.5-.5v-5M231.77,342.05c0-.28-.22-.5-.5-.5s-.5.22-.5.5v5c0,.28.22.5.5.5s.5-.22.5-.5v-5M231.77,352.05c0-.28-.22-.5-.5-.5s-.5.22-.5.5v5c0,.28.22.5.5.5s.5-.22.5-.5v-5M231.77,362.05c0-.28-.22-.5-.5-.5s-.5.22-.5.5v5c0,.28.22.5.5.5s.5-.22.5-.5v-5M231.77,372.05c0-.28-.22-.5-.5-.5s-.5.22-.5.5v5c0,.28.22.5.5.5s.5-.22.5-.5v-5M231.77,382.05c0-.28-.22-.5-.5-.5s-.5.22-.5.5v5c0,.28.22.5.5.5s.5-.22.5-.5v-5M231.77,392.05c0-.28-.22-.5-.5-.5s-.5.22-.5.5v5c0,.28.22.5.5.5s.5-.22.5-.5v-5M231.77,402.05c0-.28-.22-.5-.5-.5s-.5.22-.5.5v5c0,.28.22.5.5.5s.5-.22.5-.5v-5M231.77,412.05c0-.28-.22-.5-.5-.5s-.5.22-.5.5v5c0,.28.22.5.5.5s.5-.22.5-.5v-5M231.77,422.05c0-.28-.22-.5-.5-.5s-.5.22-.5.5v5c0,.28.22.5.5.5s.5-.22.5-.5v-5M231.77,432.05c0-.28-.22-.5-.5-.5s-.5.22-.5.5v5c0,.28.22.5.5.5s.5-.22.5-.5v-5M231.77,442.05c0-.28-.22-.5-.5-.5s-.5.22-.5.5v5c0,.28.22.5.5.5s.5-.22.5-.5v-5M231.77,452.05c0-.28-.22-.5-.5-.5s-.5.22-.5.5v5c0,.28.22.5.5.5s.5-.22.5-.5v-5"/><path class="cls-3" d="M546.94,62.05c0-.28-.22-.5-.5-.5s-.5.22-.5.5v5c0,.28.22.5.5.5s.5-.22.5-.5v-5M546.94,72.05c0-.28-.22-.5-.5-.5s-.5.22-.5.5v5c0,.28.22.5.5.5s.5-.22.5-.5v-5M546.94,82.05c0-.28-.22-.5-.5-.5s-.5.22-.5.5v5c0,.28.22.5.5.5s.5-.22.5-.5v-5M546.94,92.05c0-.28-.22-.5-.5-.5s-.5.22-.5.5v5c0,.28.22.5.5.5s.5-.22.5-.5v-5M546.94,102.05c0-.28-.22-.5-.5-.5s-.5.22-.5.5v5c0,.28.22.5.5.5s.5-.22.5-.5v-5M546.94,112.05c0-.28-.22-.5-.5-.5s-.5.22-.5.5v5c0,.28.22.5.5.5s.5-.22.5-.5v-5M546.94,122.05c0-.28-.22-.5-.5-.5s-.5.22-.5.5v5c0,.28.22.5.5.5s.5-.22.5-.5v-5M546.94,132.05c0-.28-.22-.5-.5-.5s-.5.22-.5.5v5c0,.28.22.5.5.5s.5-.22.5-.5v-5M546.94,142.05c0-.28-.22-.5-.5-.5s-.5.22-.5.5v5c0,.28.22.5.5.5s.5-.22.5-.5v-5M546.94,152.05c0-.28-.22-.5-.5-.5s-.5.22-.5.5v5c0,.28.22.5.5.5s.5-.22.5-.5v-5M546.94,162.05c0-.28-.22-.5-.5-.5s-.5.22-.5.5v5c0,.28.22.5.5.5s.5-.22.5-.5v-5M546.94,172.05c0-.28-.22-.5-.5-.5s-.5.22-.5.5v5c0,.28.22.5.5.5s.5-.22.5-.5v-5M546.94,182.05c0-.28-.22-.5-.5-.5s-.5.22-.5.5v5c0,.28.22.5.5.5s.5-.22.5-.5v-5M546.94,192.05c0-.28-.22-.5-.5-.5s-.5.22-.5.5v5c0,.28.22.5.5.5s.5-.22.5-.5v-5M546.94,202.05c0-.28-.22-.5-.5-.5s-.5.22-.5.5v5c0,.28.22.5.5.5s.5-.22.5-.5v-5M546.94,212.05c0-.28-.22-.5-.5-.5s-.5.22-.5.5v5c0,.28.22.5.5.5s.5-.22.5-.5v-5M546.94,222.05c0-.28-.22-.5-.5-.5s-.5.22-.5.5v5c0,.28.22.5.5.5s.5-.22.5-.5v-5M546.94,232.05c0-.28-.22-.5-.5-.5s-.5.22-.5.5v5c0,.28.22.5.5.5s.5-.22.5-.5v-5M546.94,242.05c0-.28-.22-.5-.5-.5s-.5.22-.5.5v5c0,.28.22.5.5.5s.5-.22.5-.5v-5M546.94,252.05c0-.28-.22-.5-.5-.5s-.5.22-.5.5v5c0,.28.22.5.5.5s.5-.22.5-.5v-5M546.94,262.05c0-.28-.22-.5-.5-.5s-.5.22-.5.5v5c0,.28.22.5.5.5s.5-.22.5-.5v-5M546.94,272.05c0-.28-.22-.5-.5-.5s-.5.22-.5.5v5c0,.28.22.5.5.5s.5-.22.5-.5v-5M546.94,282.05c0-.28-.22-.5-.5-.5s-.5.22-.5.5v5c0,.28.22.5.5.5s.5-.22.5-.5v-5M546.94,292.05c0-.28-.22-.5-.5-.5s-.5.22-.5.5v5c0,.28.22.5.5.5s.5-.22.5-.5v-5M546.94,302.05c0-.28-.22-.5-.5-.5s-.5.22-.5.5v5c0,.28.22.5.5.5s.5-.22.5-.5v-5M546.94,312.05c0-.28-.22-.5-.5-.5s-.5.22-.5.5v5c0,.28.22.5.5.5s.5-.22.5-.5v-5M546.94,322.05c0-.28-.22-.5-.5-.5s-.5.22-.5.5v5c0,.28.22.5.5.5s.5-.22.5-.5v-5M546.94,332.05c0-.28-.22-.5-.5-.5s-.5.22-.5.5v5c0,.28.22.5.5.5s.5-.22.5-.5v-5M546.94,342.05c0-.28-.22-.5-.5-.5s-.5.22-.5.5v5c0,.28.22.5.5.5s.5-.22.5-.5v-5M546.94,352.05c0-.28-.22-.5-.5-.5s-.5.22-.5.5v5c0,.28.22.5.5.5s.5-.22.5-.5v-5M546.94,362.05c0-.28-.22-.5-.5-.5s-.5.22-.5.5v5c0,.28.22.5.5.5s.5-.22.5-.5v-5M546.94,372.05c0-.28-.22-.5-.5-.5s-.5.22-.5.5v5c0,.28.22.5.5.5s.5-.22.5-.5v-5M546.94,382.05c0-.28-.22-.5-.5-.5s-.5.22-.5.5v5c0,.28.22.5.5.5s.5-.22.5-.5v-5M546.94,392.05c0-.28-.22-.5-.5-.5s-.5.22-.5.5v5c0,.28.22.5.5.5s.5-.22.5-.5v-5M546.94,402.05c0-.28-.22-.5-.5-.5s-.5.22-.5.5v5c0,.28.22.5.5.5s.5-.22.5-.5v-5M546.94,412.05c0-.28-.22-.5-.5-.5s-.5.22-.5.5v5c0,.28.22.5.5.5s.5-.22.5-.5v-5M546.94,422.05c0-.28-.22-.5-.5-.5s-.5.22-.5.5v5c0,.28.22.5.5.5s.5-.22.5-.5v-5M546.94,432.05c0-.28-.22-.5-.5-.5s-.5.22-.5.5v5c0,.28.22.5.5.5s.5-.22.5-.5v-5M546.94,442.05c0-.28-.22-.5-.5-.5s-.5.22-.5.5v5c0,.28.22.5.5.5s.5-.22.5-.5v-5M546.94,452.05c0-.28-.22-.5-.5-.5s-.5.22-.5.5v5c0,.28.22.5.5.5s.5-.22.5-.5v-5"/><path d="M674.64,432.93s0,0,0,0V62.05c0-.54-.29-1.01-.72-1.27-.21-.14-.46-.23-.75-.23H97.2c-.83,0-1.5.67-1.5,1.5,0,0,0,0,0,0v370.88c0,.54.29,1.01.72,1.27.21.14.46.23.75.23h575.97s0,0,0,0c.1,0,.2-.01.3-.03.68-.14,1.2-.74,1.2-1.47ZM98.7,63.55h572.94s0,367.88,0,367.88H98.7V63.55Z"/><text class="cls-14" transform="translate(58.22 78.23)"><tspan x="0" y="0">N</tspan><tspan class="cls-15" x="5.6" y="0">e</tspan><tspan x="9.79" y="0">u</tspan><tspan class="cls-6" x="14.24" y="0">r</tspan><tspan x="17.58" y="0">on 0</tspan></text><text class="cls-14" transform="translate(59.98 104.76)"><tspan x="0" y="0">N</tspan><tspan class="cls-15" x="5.6" y="0">e</tspan><tspan x="9.79" y="0">u</tspan><tspan class="cls-6" x="14.24" y="0">r</tspan><tspan x="17.58" y="0">on 1</tspan></text><text class="cls-14" transform="translate(58.51 131.29)"><tspan x="0" y="0">N</tspan><tspan class="cls-15" x="5.6" y="0">e</tspan><tspan x="9.79" y="0">u</tspan><tspan class="cls-6" x="14.24" y="0">r</tspan><tspan x="17.58" y="0">on 2</tspan></text><text class="cls-14" transform="translate(58.41 157.83)"><tspan x="0" y="0">N</tspan><tspan class="cls-15" x="5.6" y="0">e</tspan><tspan x="9.79" y="0">u</tspan><tspan class="cls-6" x="14.24" y="0">r</tspan><tspan x="17.58" y="0">on 3</tspan></text><text class="cls-14" transform="translate(58.09 184.36)"><tspan x="0" y="0">N</tspan><tspan class="cls-15" x="5.6" y="0">e</tspan><tspan x="9.79" y="0">u</tspan><tspan class="cls-6" x="14.24" y="0">r</tspan><tspan x="17.58" y="0">on 4</tspan></text><text class="cls-14" transform="translate(58.28 210.89)"><tspan x="0" y="0">N</tspan><tspan class="cls-15" x="5.6" y="0">e</tspan><tspan x="9.79" y="0">u</tspan><tspan class="cls-6" x="14.24" y="0">r</tspan><tspan x="17.58" y="0">on 5</tspan></text><text class="cls-14" transform="translate(58.53 237.42)"><tspan x="0" y="0">N</tspan><tspan class="cls-15" x="5.6" y="0">e</tspan><tspan x="9.79" y="0">u</tspan><tspan class="cls-6" x="14.24" y="0">r</tspan><tspan x="17.58" y="0">on 6</tspan></text><text class="cls-14" transform="translate(58.61 263.95)"><tspan x="0" y="0">N</tspan><tspan class="cls-15" x="5.6" y="0">e</tspan><tspan x="9.79" y="0">u</tspan><tspan class="cls-6" x="14.24" y="0">r</tspan><tspan x="17.58" y="0">on 7</tspan></text><text class="cls-14" transform="translate(58.14 290.48)"><tspan x="0" y="0">N</tspan><tspan class="cls-15" x="5.6" y="0">e</tspan><tspan x="9.79" y="0">u</tspan><tspan class="cls-6" x="14.24" y="0">r</tspan><tspan x="17.58" y="0">on 8</tspan></text><text class="cls-14" transform="translate(58.53 317.01)"><tspan x="0" y="0">N</tspan><tspan class="cls-15" x="5.6" y="0">e</tspan><tspan x="9.79" y="0">u</tspan><tspan class="cls-6" x="14.24" y="0">r</tspan><tspan x="17.58" y="0">on 9</tspan></text><text class="cls-14" transform="translate(55.56 343.54)"><tspan x="0" y="0">N</tspan><tspan class="cls-15" x="5.6" y="0">e</tspan><tspan x="9.79" y="0">u</tspan><tspan class="cls-6" x="14.24" y="0">r</tspan><tspan x="17.58" y="0">on 10</tspan></text><text class="cls-14" transform="translate(57.32 370.07)"><tspan x="0" y="0">N</tspan><tspan class="cls-15" x="5.6" y="0">e</tspan><tspan x="9.79" y="0">u</tspan><tspan class="cls-6" x="14.24" y="0">r</tspan><tspan x="17.58" y="0">on 11</tspan></text><text class="cls-14" transform="translate(55.85 396.6)"><tspan x="0" y="0">N</tspan><tspan class="cls-15" x="5.6" y="0">e</tspan><tspan x="9.79" y="0">u</tspan><tspan class="cls-6" x="14.24" y="0">r</tspan><tspan x="17.58" y="0">on 12</tspan></text><text class="cls-14" transform="translate(55.75 423.14)"><tspan x="0" y="0">N</tspan><tspan class="cls-15" x="5.6" y="0">e</tspan><tspan x="9.79" y="0">u</tspan><tspan class="cls-6" x="14.24" y="0">r</tspan><tspan x="17.58" y="0">on 13</tspan></text><text class="cls-7" transform="translate(232.68 36.65) scale(1.32 1)"><tspan class="cls-12" x="0" y="0">R</tspan><tspan class="cls-5" x="9.48" y="0">eal-Time </tspan><tspan class="cls-9" x="72.95" y="0">T</tspan><tspan x="79.37" y="0">emporal Frame</tspan></text><text class="cls-14" transform="translate(31.23 449.11)"><tspan x="0" y="0">Obser</tspan><tspan class="cls-6" x="21.37" y="0">v</tspan><tspan x="25.29" y="0">ed </tspan><tspan class="cls-2" x="36.04" y="0">V</tspan><tspan x="40.54" y="0">a</tspan><tspan class="cls-10" x="44.8" y="0">l</tspan><tspan x="47.07" y="0">ues</tspan></text><path class="cls-1" d="M328.45,496.76c-26.32,13.58-96.47-5.43-97.66-33.42"/><path class="cls-3" d="M233.84,467.33c-.14.09-.32.06-.42-.08l-2.61-3.77-2.31,3.96c-.08.14-.27.19-.41.11-.14-.08-.19-.27-.11-.41l2.55-4.37c.05-.09.15-.14.25-.15.1,0,.2.04.26.13l2.88,4.16s.05.1.05.16c0,.1-.04.2-.13.26Z"/><path class="cls-1" d="M411.74,478.72c49.72-13.16,100.57,20.6,131.06-15.54"/><path class="cls-3" d="M542.21,468.14c-.16-.03-.27-.18-.25-.34l.74-4.53-4.42,1.25c-.16.05-.33-.05-.37-.21s.05-.33.21-.37l4.87-1.38c.1-.03.2,0,.28.06s.11.17.1.27l-.81,5c0,.06-.04.11-.07.15-.07.07-.17.11-.27.1Z"/><text class="cls-4" transform="translate(334.37 489.81) rotate(-9.04)"><tspan x="0" y="0">coalescable window</tspan></text><text class="cls-4" transform="translate(339.49 501.99) rotate(-9.04)"><tspan x="0" y="0">of temporal data</tspan></text></svg>