<?xml version="1.0" encoding="UTF-8"?><svg id="Layer_1" xmlns="http://www.w3.org/2000/svg" viewBox="0 0 420.49 321.04"><defs><style>.cls-1{stroke:#4d4d4d;}.cls-1,.cls-2{fill:none;stroke-linecap:round;stroke-miterlimit:10;}.cls-3{fill:#4d4d4d;}.cls-4{fill:#fff;}.cls-2{stroke:#ccc;}.cls-5{fill:#ccc;}.cls-6{fill:#b3b3b3;}.cls-7{fill:#e6e6e6;}</style></defs><rect class="cls-6" x="61.95" y="85.51" width="324.21" height="195.7"/><rect class="cls-7" x="61.95" y="182.61" width="324.21" height="98.6"/><path class="cls-5" d="M386.15,183.11c.28,0,.5-.22.5-.5s-.22-.5-.5-.5H61.84c-.28,0-.5.22-.5.5s.22.5.5.5h324.31"/><rect class="cls-4" x="61.95" y="231.91" width="324.21" height="49.3"/><path class="cls-5" d="M386.15,232.66c.28,0,.5-.22.5-.5s-.22-.5-.5-.5H61.84c-.28,0-.5.22-.5.5s.22.5.5.5h324.31"/><line class="cls-2" x1="107.74" y1="83.01" x2="107.74" y2="281.21"/><path class="cls-3" d="M86.23,125.59c.08,0,.15.04.2.1.04.06.06.11.05.16,0,.09-.08.23-.23.43-.53.77-.91,1.41-1.14,1.91-.25.52-.46,1.05-.66,1.59-.08.24-.21.36-.38.35-.1,0-.17-.04-.23-.12-.05-.06-.08-.13-.07-.21,0-.15.18-.63.51-1.45.26-.65.68-1.36,1.25-2.13.18-.25.32-.42.41-.51.09-.09.18-.13.28-.13ZM87.7,122.92c.22,0,.33.12.32.35,0,.21-.12.43-.34.67-.21.23-.41.35-.6.34-.09,0-.17-.04-.22-.11-.06-.07-.08-.14-.08-.24,0-.23.14-.48.41-.73.2-.19.37-.28.52-.28Z"/><path class="cls-3" d="M87.58,127.51c.07-.06.13-.11.19-.17,1.05-.96,1.75-1.44,2.1-1.43.19,0,.28.11.28.32,0,.15-.09.32-.27.51-.97,1.06-1.46,2-1.49,2.83,0,.27.06.53.2.78.06.11.1.2.09.27,0,.06-.03.11-.09.17-.07.07-.14.1-.23.1-.2,0-.37-.14-.49-.4-.12-.24-.18-.54-.17-.88.02-.66.29-1.38.81-2.17-.68.4-1.32,1.14-1.92,2.2-.16.25-.31.38-.48.37-.08,0-.15-.03-.2-.09-.07-.07-.1-.16-.09-.27,0-.26.33-.94.96-2.04.34-.59.61-1.03.8-1.29.19-.26.36-.39.49-.39.06,0,.12.03.18.09.07.07.1.15.09.24,0,.11-.08.26-.23.45-.21.29-.39.56-.52.8Z"/><path class="cls-3" d="M92.8,125.64c.39.01.57.22.56.63-.01.36-.16.71-.45,1.06-.22.27-.42.4-.58.39-.14,0-.2-.08-.2-.24,0-.08.02-.15.06-.2.02-.02.08-.07.18-.16.09-.08.18-.2.28-.36.07-.11.1-.2.1-.27,0-.08-.04-.12-.13-.12-.1,0-.26.07-.48.23-.34.25-.68.64-1.03,1.18-.36.57-.54,1.01-.56,1.35,0,.11.03.2.09.29.09.13.21.2.37.2.31,0,.68-.17,1.11-.54.37-.32.68-.63.93-.95.13-.18.25-.26.34-.26.05,0,.1.03.14.08.04.05.06.1.05.15,0,.18-.25.52-.73,1.03-.76.8-1.44,1.19-2.04,1.17-.36-.01-.63-.15-.82-.41-.13-.19-.19-.42-.18-.68.02-.51.24-1.09.68-1.74.43-.63.91-1.13,1.45-1.5.32-.21.6-.32.83-.31Z"/><path class="cls-3" d="M97.08,125.59c.4.01.59.26.58.75-.02.65-.35,1.46-.98,2.44-.69,1.06-1.34,1.58-1.95,1.56-.28,0-.49-.15-.61-.42-.06-.13-.09-.29-.09-.48.02-.62.26-1.3.71-2.02.42-.67.91-1.18,1.46-1.54.32-.21.62-.31.87-.3ZM96.23,128.34c-.12-.1-.18-.18-.18-.23,0-.04.08-.14.24-.31.46-.48.69-.87.7-1.17,0-.04,0-.08-.03-.12-.04-.07-.1-.11-.18-.12-.16,0-.39.14-.7.43-.4.38-.71.77-.93,1.18-.25.47-.39.85-.4,1.17,0,.08.02.16.06.22.06.09.14.14.24.14.23,0,.49-.16.77-.5.12-.14.22-.29.3-.44s.11-.23.11-.24Z"/><path class="cls-3" d="M98.92,127.94c.42-.42.79-.74,1.11-.98.49-.35.81-.52.97-.52.08,0,.15.03.2.09.05.06.08.11.08.18,0,.09-.09.24-.27.45-.27.32-.47.6-.58.83,1.18-1.11,1.98-1.66,2.4-1.65.09,0,.16.03.22.09.07.06.1.13.1.22,0,.14-.12.31-.33.52-.95.92-1.44,1.69-1.46,2.3,0,.25.03.43.12.54l.18.25s.06.1.05.17c0,.08-.04.15-.1.22-.08.08-.16.11-.25.11-.16,0-.31-.11-.44-.32-.16-.25-.23-.54-.22-.87.01-.44.15-.89.42-1.34.09-.16.25-.37.46-.63-.42.3-.86.72-1.31,1.25-.3.36-.58.77-.83,1.22-.12.22-.25.32-.41.32-.17,0-.25-.1-.24-.29,0-.2.16-.61.45-1.22.17-.35.37-.72.61-1.11-.85.62-1.51,1.47-1.96,2.56-.11.24-.25.36-.42.35-.08,0-.14-.03-.19-.09-.05-.06-.08-.13-.07-.21,0-.29.19-.8.53-1.54.36-.79.76-1.49,1.21-2.11.31-.44.54-.65.7-.65.15,0,.22.08.21.24,0,.07-.1.24-.29.5-.33.5-.55.88-.67,1.12Z"/><path class="cls-3" d="M105.13,126.68c.21-.12.36-.2.46-.25.2-.09.4-.13.59-.13.21,0,.37.07.48.2.1.13.15.32.14.56-.01.34-.14.75-.4,1.22-.39.75-.86,1.33-1.4,1.74-.46.35-.88.52-1.27.51-.21,0-.42-.1-.63-.27-.71,1.33-1.35,2.69-1.92,4.08-.12.33-.26.5-.41.49-.07,0-.14-.05-.21-.15-.05-.07-.08-.15-.07-.23,0-.26.36-1.11,1.05-2.54,1.07-2.2,2.07-4.03,3.01-5.48.2-.31.33-.52.39-.63.18-.31.35-.47.51-.46.17,0,.25.11.24.31,0,.11-.07.26-.19.45-.15.24-.27.43-.36.58ZM103.39,129.67c.1.12.24.18.4.18.45.01.97-.37,1.55-1.16.21-.29.39-.59.52-.9.11-.25.16-.43.16-.56,0-.09-.02-.15-.06-.2-.04-.04-.1-.07-.19-.07-.23,0-.51.14-.86.45-.33.3-.65.72-.96,1.27-.28.5-.47.83-.57.99Z"/><path class="cls-3" d="M108.27,128.26c.49-.5,1.06-.98,1.7-1.45.23-.17.47-.32.73-.47.13-.07.21-.1.25-.1.07,0,.14.06.21.17.04.06.06.11.06.16,0,.09-.1.2-.29.35-.51.38-.77.67-.77.87,0,.11.06.17.18.17.21,0,.58-.16,1.1-.49.09-.06.16-.08.22-.08.04,0,.08.02.12.06.04.05.06.09.06.14,0,.15-.22.36-.64.65-.44.31-.85.46-1.24.44-.16,0-.3-.05-.43-.14-.11-.07-.16-.2-.16-.37,0-.12.06-.26.17-.41-.39.26-.86.72-1.41,1.36-.32.4-.63.9-.95,1.49-.12.22-.26.33-.43.32-.18,0-.27-.09-.26-.26,0-.17.16-.61.47-1.32.45-1.06.92-1.88,1.4-2.46.29-.36.54-.53.73-.53.06,0,.12.02.17.06.06.05.09.11.09.19s-.05.17-.16.3c-.02.02-.15.18-.4.48-.23.28-.41.56-.53.84Z"/><path class="cls-3" d="M112.06,129.38v.13c0,.11.02.2.07.28.12.18.31.28.59.29.61.02,1.33-.43,2.16-1.34.15-.16.27-.23.37-.23.05,0,.1.03.14.08.03.04.04.08.04.11,0,.19-.25.51-.73.94-.38.35-.78.62-1.2.83-.42.21-.81.31-1.17.3-.37-.01-.65-.15-.85-.41-.14-.18-.2-.42-.19-.72.03-.82.44-1.62,1.24-2.39.65-.62,1.21-.93,1.68-.92.13,0,.24.05.34.13.12.11.18.24.18.41,0,.26-.14.57-.39.94-.52.77-1.28,1.28-2.28,1.55ZM112.23,128.81c.35-.11.62-.23.82-.37.35-.25.63-.54.84-.87.08-.11.12-.22.12-.31,0-.1-.04-.15-.13-.15-.13,0-.31.09-.55.27-.43.32-.79.8-1.09,1.43Z"/><path class="cls-3" d="M119.07,126.14c.3,0,.53.07.68.18.15.11.22.28.21.5,0,.29-.12.56-.35.82-.21.25-.53.44-.94.59-.23.08-.42.11-.57.11-.21,0-.3-.1-.3-.28,0-.12.07-.21.18-.27.03-.01.2-.05.5-.11.18-.03.35-.11.5-.24.14-.11.21-.23.21-.36,0-.1-.02-.18-.08-.23-.06-.05-.14-.08-.26-.08-.28,0-.6.1-.95.31-.4.25-.61.55-.62.9,0,.25.11.58.36.96.27.42.41.78.4,1.07-.01.43-.21.76-.6.99-.24.14-.51.21-.8.2-.47-.01-.82-.19-1.05-.54-.16-.24-.24-.53-.23-.86.01-.38.12-.7.32-.95.13-.17.27-.25.4-.24.12,0,.18.05.18.15,0,.04-.03.1-.07.17-.12.21-.18.45-.19.73,0,.24.07.44.24.62.15.15.32.23.51.24.19,0,.34-.05.45-.18.09-.1.14-.24.14-.41,0-.21-.1-.47-.33-.81-.31-.46-.46-.87-.45-1.24.02-.49.29-.91.84-1.27.53-.34,1.08-.51,1.66-.49Z"/><path class="cls-3" d="M122.88,126.26c.3,0,.53.07.68.18.15.11.22.28.21.5,0,.29-.12.56-.35.82-.21.25-.53.44-.94.59-.23.08-.42.11-.57.11-.21,0-.3-.1-.3-.28,0-.12.07-.21.18-.27.03-.01.2-.05.5-.11.18-.03.35-.11.51-.24.13-.11.21-.23.21-.36,0-.1-.02-.18-.08-.23-.06-.05-.14-.08-.26-.08-.28,0-.6.1-.95.32-.4.25-.61.55-.62.9,0,.25.11.57.36.96.27.42.41.78.4,1.07-.01.43-.21.76-.6.99-.24.14-.51.21-.8.2-.47-.01-.82-.19-1.05-.54-.16-.24-.24-.53-.23-.86.01-.38.12-.7.32-.95.13-.17.27-.25.4-.24.12,0,.18.05.18.15,0,.04-.02.1-.07.17-.12.21-.18.45-.19.73,0,.24.07.44.24.62.15.15.32.23.51.24.19,0,.34-.05.45-.18.09-.1.14-.24.14-.41,0-.21-.1-.47-.33-.81-.31-.46-.46-.87-.44-1.24.01-.49.29-.91.84-1.27.53-.34,1.08-.51,1.66-.49Z"/><path class="cls-3" d="M125.37,129.99c-.17.28-.34.51-.5.7-.32.37-.63.55-.93.54-.26,0-.46-.14-.6-.39-.09-.16-.13-.36-.12-.58.02-.54.21-1.13.57-1.78.4-.72.88-1.26,1.43-1.63.36-.24.7-.36,1.03-.35.21,0,.37.08.51.21.11.12.17.24.16.39,0,.11-.05.26-.14.44.07.1.1.2.1.27,0,.1-.08.27-.22.5-.15.23-.3.55-.45.94-.17.42-.25.75-.26,1,0,.21.05.38.17.51.03.04.13.09.3.18.12.06.18.17.17.31,0,.09-.04.17-.11.22-.08.06-.16.09-.26.09-.26,0-.49-.13-.67-.37-.15-.2-.22-.44-.21-.72,0-.1.02-.26.04-.48ZM126.36,127.61c-.06-.11-.12-.19-.18-.24-.07-.05-.14-.08-.22-.08-.37-.01-.78.3-1.24.94-.5.7-.76,1.3-.77,1.8,0,.12.02.22.06.28.04.06.11.1.21.1.23,0,.52-.23.84-.72.18-.27.41-.66.69-1.19.18-.34.31-.57.39-.68.04-.06.11-.13.22-.21Z"/><path class="cls-3" d="M129.28,127.48c.43-.34.8-.5,1.14-.49.21,0,.37.1.5.27.12.16.17.33.17.53-.01.38-.15.84-.42,1.37-.3.59-.72,1.14-1.26,1.64-.45.42-.87.62-1.26.6-.15,0-.28-.04-.4-.09-.12-.06-.22-.14-.31-.25-.04.07-.07.11-.08.13-.09.18-.15.29-.18.32-.03.04-.08.06-.15.05-.09,0-.17-.06-.24-.16-.05-.07-.08-.14-.07-.22,0-.14.31-.82.91-2.05.84-1.71,1.8-3.41,2.89-5.1.44-.69.71-1.09.81-1.21.11-.14.21-.21.29-.21.11,0,.2.06.28.17.05.07.08.15.07.24,0,.1-.05.23-.15.38-.02.03-.18.28-.48.74-.93,1.34-1.61,2.45-2.04,3.32ZM127.95,130.61c.07.05.15.08.24.08.42.01.88-.34,1.38-1.06.23-.33.41-.65.55-.97.12-.29.18-.5.19-.65,0-.1-.02-.17-.06-.22-.04-.05-.11-.07-.2-.08-.22,0-.5.14-.83.44-.33.29-.65.72-.98,1.28-.16.27-.29.52-.41.76l-.1.19c.07.1.14.18.22.23Z"/><path class="cls-3" d="M132.51,128.99c-.16.38-.28.68-.36.91-.08.23-.12.39-.13.49,0,.12.05.19.17.19.18,0,.41-.15.7-.48.14-.16.34-.44.61-.85.11-.16.22-.24.33-.24.13,0,.19.07.18.19,0,.21-.26.63-.76,1.25-.52.65-1,.97-1.43.96-.18,0-.33-.09-.45-.25-.08-.11-.12-.25-.11-.41,0-.27.1-.65.28-1.13s.45-1.06.79-1.74c.89-1.74,1.8-3.16,2.71-4.28.73-.9,1.32-1.34,1.78-1.32.15,0,.26.06.35.18.09.12.14.25.13.39-.02.68-.67,1.8-1.94,3.35-.57.69-1.25,1.38-2.03,2.06-.21.18-.49.42-.84.72ZM133.07,127.84c1.04-.84,1.98-1.91,2.83-3.21.44-.68.66-1.12.66-1.35,0-.11-.04-.16-.13-.17-.27,0-.77.51-1.51,1.56-.61.86-1.23,1.92-1.84,3.17Z"/><path class="cls-3" d="M135.07,130.1v.13c0,.11.02.2.07.28.12.18.31.28.59.29.61.02,1.33-.43,2.16-1.34.15-.16.27-.23.37-.23.05,0,.1.03.14.08.03.04.04.08.04.11,0,.19-.25.51-.73.94-.38.35-.78.62-1.2.83-.42.21-.81.31-1.17.3-.37-.01-.65-.15-.85-.41-.14-.18-.2-.42-.19-.72.03-.82.44-1.62,1.24-2.39.65-.62,1.21-.93,1.68-.92.13,0,.24.05.34.13.12.11.18.24.18.41,0,.26-.14.57-.39.94-.52.77-1.28,1.28-2.28,1.55ZM135.25,129.53c.34-.11.62-.23.82-.37.35-.25.63-.54.84-.87.08-.11.12-.22.12-.31,0-.1-.04-.15-.13-.15-.13,0-.31.09-.55.27-.43.32-.79.8-1.09,1.43Z"/><line class="cls-2" x1="154.14" y1="83.01" x2="154.14" y2="281.21"/><line class="cls-2" x1="200.55" y1="83.01" x2="200.55" y2="281.21"/><line class="cls-2" x1="246.95" y1="83.01" x2="246.95" y2="281.21"/><line class="cls-2" x1="293.35" y1="83.01" x2="293.35" y2="281.21"/><line class="cls-2" x1="339.75" y1="83.01" x2="339.75" y2="281.21"/><path class="cls-3" d="M62.96,288.62c.26.1.46.27.59.49.13.23.19.52.19.87,0,1.09-.42,2.25-1.27,3.47-.92,1.33-1.81,2-2.65,2-.42,0-.73-.22-.94-.65-.14-.28-.21-.62-.21-1.03,0-.97.35-1.99,1.06-3.06.37-.55.86-1.12,1.49-1.71.65-.61,1.12-.91,1.41-.91.22,0,.33.17.33.52ZM62.01,289.15c-.57.47-1.08,1.04-1.52,1.71-.63.97-.94,1.9-.94,2.81,0,.27.04.48.11.63.12.23.29.35.51.35.34,0,.74-.26,1.21-.78.52-.58.93-1.28,1.23-2.11.23-.63.34-1.16.34-1.6,0-.3-.09-.56-.28-.78-.13-.15-.3-.23-.51-.24h-.15Z"/><path class="cls-3" d="M386.65,82.51h0s-324.81,0-324.81,0c-.28,0-.5.22-.5.5v199.2c0,.28.22.5.5.5h0s324.81,0,324.81,0c.28,0,.5-.22.5-.5V83.01c0-.28-.22-.5-.5-.5ZM62.34,279.71V85.51h323.81v194.2H62.34Z"/><path class="cls-3" d="M42.84,85.64c.82-.26,1.58-.39,2.26-.39.27,0,.49.06.65.17.15.1.22.22.22.36,0,.09-.03.18-.1.25s-.15.11-.23.11c-.03,0-.07,0-.13-.02-.25-.07-.48-.1-.69-.1-.18,0-.4.02-.67.05-.09.01-.43.1-1.02.26-.53.14-.84.21-.94.21-.14,0-.26-.07-.36-.2-.09-.12-.14-.25-.14-.38,0-.15.13-.34.38-.59.48-.47.94-.89,1.38-1.27.42-.35.94-.76,1.56-1.22.71-.52,1.2-.9,1.46-1.14.4-.35.6-.7.6-1.05,0-.2-.06-.35-.19-.46-.11-.1-.25-.15-.42-.15-.44,0-.96.25-1.55.74-.27.22-.44.34-.51.34-.05,0-.1-.03-.17-.09-.07-.06-.1-.13-.1-.21,0-.18.21-.42.64-.75.68-.52,1.34-.78,1.96-.78.36,0,.65.11.89.34.23.22.34.49.34.8,0,.55-.28,1.09-.83,1.63-.24.23-.68.59-1.32,1.05-1.54,1.12-2.53,1.95-2.97,2.48Z"/><path class="cls-3" d="M51.25,80.11c-.83.72-1.36,1.33-1.59,1.85.48-.2.9-.29,1.24-.29.4,0,.71.12.93.35.21.22.31.51.31.86,0,.81-.38,1.62-1.15,2.44-.76.82-1.5,1.22-2.23,1.22-.42,0-.75-.2-.98-.59-.15-.26-.23-.56-.23-.89s.07-.61.22-.83c.12-.18.28-.27.47-.27.18,0,.26.07.26.2,0,.03-.01.09-.04.17-.05.14-.07.33-.07.57,0,.21.05.39.15.55.13.22.31.33.53.33.44,0,.9-.28,1.38-.83.53-.61.79-1.21.79-1.81,0-.25-.06-.44-.17-.56-.11-.12-.28-.19-.51-.19s-.5.06-.82.18c-.07.02-.25.11-.54.26-.06.03-.11.05-.16.05-.09,0-.19-.06-.28-.18-.1-.13-.15-.25-.15-.36,0-.21.21-.59.64-1.16.27-.37.6-.74,1-1.11-.11-.15-.16-.26-.16-.34,0-.11.08-.19.23-.24.07-.02.35-.07.83-.13.54-.07.98-.11,1.32-.11s.55.02.7.07c.18.05.26.17.26.35,0,.22-.11.34-.34.34-.05,0-.15,0-.29-.01-.05,0-.1,0-.17,0-.23,0-.46.01-.69.03-.23.02-.45.05-.68.1Z"/><path class="cls-3" d="M56.38,80.11c-.83.72-1.36,1.33-1.59,1.85.48-.2.9-.29,1.24-.29.4,0,.71.12.93.35.21.22.31.51.31.86,0,.81-.38,1.62-1.15,2.44-.76.82-1.5,1.22-2.23,1.22-.42,0-.75-.2-.98-.59-.15-.26-.23-.56-.23-.89s.07-.61.22-.83c.12-.18.28-.27.47-.27.18,0,.26.07.26.2,0,.03-.01.09-.04.17-.05.14-.07.33-.07.57,0,.21.05.39.15.55.13.22.31.33.53.33.44,0,.9-.28,1.38-.83.53-.61.79-1.21.79-1.81,0-.25-.06-.44-.17-.56-.11-.12-.28-.19-.51-.19s-.5.06-.82.18c-.07.02-.25.11-.54.26-.06.03-.11.05-.16.05-.09,0-.19-.06-.28-.18-.1-.13-.15-.25-.15-.36,0-.21.21-.59.64-1.16.27-.37.6-.74,1-1.11-.11-.15-.16-.26-.16-.34,0-.11.08-.19.23-.24.07-.02.35-.07.83-.13.54-.07.98-.11,1.32-.11s.55.02.7.07c.18.05.26.17.26.35,0,.22-.11.34-.34.34-.05,0-.15,0-.29-.01-.05,0-.1,0-.17,0-.23,0-.46.01-.69.03-.23.02-.45.05-.68.1Z"/><path class="cls-3" d="M388.11,289c-1.31.29-2.24.43-2.77.43-.36,0-.53-.12-.53-.35,0-.12.04-.22.12-.3s.17-.12.27-.12c.04,0,.11,0,.21.01.06,0,.14.01.22.01.3,0,.7-.04,1.2-.12.63-.1,1.1-.19,1.4-.27.17-.04.31-.07.42-.07.26,0,.4.14.4.42,0,.19-.11.41-.34.64-1.68,1.8-3,3.57-3.95,5.32-.23.42-.38.67-.44.75-.12.14-.24.21-.37.21-.07,0-.14-.03-.19-.08-.07-.06-.1-.13-.1-.21,0-.25.24-.76.71-1.54.62-1.02,1.38-2.06,2.26-3.11.53-.63,1.02-1.18,1.49-1.63Z"/><path class="cls-3" d="M39.28,35.06c.18-.01.34.06.46.22.08.1.13.22.14.35.01.2-.16.48-.52.85-1.01,1.08-1.57,2.32-1.68,3.71-.03.26-.14.46-.32.6-.17.13-.34.2-.52.21-.4.02-.62-.22-.65-.73-.05-.81.34-1.88,1.15-3.22.33-.55.73-1.05,1.19-1.52.3-.31.55-.47.74-.48ZM42.34,34.88c.17-.01.33.06.46.22.08.1.13.22.14.35.01.2-.16.48-.52.85-1.01,1.08-1.57,2.32-1.68,3.71-.03.26-.14.46-.32.6-.17.13-.34.2-.52.21-.4.02-.62-.22-.65-.73-.05-.81.34-1.88,1.15-3.22.34-.56.74-1.06,1.19-1.52.3-.31.55-.47.74-.48Z"/><path class="cls-3" d="M47.17,50.61c-.78,1.06-1.47,1.62-2.08,1.65-.4.02-.73-.15-.98-.53-.16-.24-.25-.54-.28-.9-.05-.82.18-1.79.68-2.92.67-1.5,1.53-2.71,2.57-3.62.61-.53,1.2-.81,1.76-.84.47-.03.82.13,1.03.47.15.24.24.5.25.78,0,.11,0,.25,0,.44.26.08.39.2.4.36,0,.11-.07.31-.22.62-.52,1.17-1.38,3.33-2.58,6.47-1.05,2.73-1.82,5.13-2.31,7.2-.11.62-.34.94-.67.96-.18.01-.33-.07-.45-.25-.09-.13-.13-.27-.14-.42-.03-.54.39-2.07,1.26-4.61.41-1.2.79-2.26,1.14-3.18.28-.71.48-1.27.62-1.69ZM47.74,48.41c-.04-.12-.06-.21-.07-.27-.01-.2.13-.47.42-.8.55-.63.81-1.32.77-2.06,0-.18-.05-.31-.11-.39-.07-.08-.17-.12-.3-.12-.45.03-1.11.69-2,2-.42.62-.78,1.36-1.08,2.2-.2.58-.3,1.02-.28,1.31,0,.13.05.24.14.34.11.14.25.2.42.19.36-.02.78-.36,1.27-1.02.21-.29.39-.58.55-.85.18-.33.28-.5.27-.52Z"/><path class="cls-3" d="M54.81,49.6c-.35.55-.66.99-.93,1.32-.48.59-.96.9-1.46.93-.43.02-.78-.15-1.03-.52-.18-.26-.28-.58-.31-.96-.06-1.13.34-2.46,1.23-3.98.41-.71.82-1.26,1.24-1.64.33-.31.6-.47.82-.48.12,0,.24.04.35.14.09.09.14.19.15.28,0,.17-.14.45-.44.84-.68.91-1.19,1.74-1.52,2.49-.39.88-.57,1.56-.54,2.04,0,.12.04.22.1.28.06.06.14.09.25.08.45-.03,1.04-.7,1.76-2.03.38-.69.69-1.45.94-2.27.13-.45.32-.85.55-1.21.23-.32.46-.49.7-.5.13,0,.25.04.37.15.12.12.19.25.19.4.02.32-.24,1.04-.79,2.18-.37.79-.54,1.43-.51,1.94.03.54.2,1,.51,1.37.08.1.34.25.75.46.2.1.31.28.32.54,0,.16-.05.3-.18.42-.13.12-.29.19-.48.2-.44.02-.85-.13-1.23-.46-.34-.3-.57-.74-.7-1.33-.02-.08-.06-.3-.1-.68Z"/><path class="cls-3" d="M62,49.03c-.26.53-.52.97-.78,1.34-.51.72-1.04,1.09-1.59,1.12-.47.03-.86-.18-1.14-.61-.18-.28-.29-.62-.31-1.01-.06-.97.19-2.07.74-3.28.61-1.35,1.38-2.4,2.3-3.16.61-.49,1.2-.75,1.79-.79.37-.02.68.08.94.29.22.19.34.41.35.67.01.19-.05.46-.18.82.14.18.22.34.23.48,0,.18-.1.49-.32.93-.23.44-.45,1.03-.67,1.75-.23.77-.33,1.38-.3,1.84.02.37.15.67.38.89.07.06.25.15.56.27.23.09.35.27.36.53,0,.17-.04.31-.16.42-.13.12-.28.19-.45.2-.47.03-.89-.16-1.26-.56-.3-.33-.46-.75-.49-1.27,0-.18,0-.47,0-.87ZM63.4,44.6c-.12-.19-.24-.32-.37-.41-.13-.08-.26-.12-.4-.12-.67.04-1.36.66-2.07,1.87-.79,1.34-1.15,2.46-1.1,3.35.01.22.06.38.15.49.09.11.22.16.38.15.42-.02.89-.5,1.4-1.43.29-.51.64-1.26,1.05-2.24.27-.64.47-1.07.6-1.28.06-.11.18-.24.36-.4Z"/><path class="cls-3" d="M67.38,46.56c.81-.97,1.75-1.93,2.82-2.87.39-.34.8-.66,1.24-.96.22-.14.36-.22.42-.22.13,0,.27.08.41.27.08.1.13.19.13.28,0,.16-.15.38-.46.67-.85.76-1.27,1.32-1.25,1.68.01.2.13.3.36.28.38-.02,1.01-.37,1.89-1.05.15-.11.28-.17.39-.18.07,0,.14.03.22.09.08.07.13.16.13.24.01.26-.33.69-1.04,1.27-.74.62-1.46.95-2.15.99-.28.02-.54-.04-.79-.18-.21-.11-.32-.33-.34-.64-.01-.22.07-.47.23-.77-.67.53-1.43,1.42-2.3,2.67-.5.77-.99,1.71-1.46,2.82-.18.42-.42.63-.72.65-.32.02-.5-.13-.51-.43-.02-.3.19-1.11.63-2.44.64-1.97,1.35-3.51,2.11-4.62.47-.69.88-1.04,1.22-1.06.11,0,.22.02.32.09.12.08.18.19.19.32s-.07.32-.23.57c-.03.05-.25.35-.65.92-.37.54-.64,1.07-.82,1.59Z"/><path class="cls-3" d="M77.8,41.8c-.52.92-.99,1.94-1.41,3.06-.6,1.6-.88,2.79-.84,3.56.01.22.07.38.17.49.1.11.24.16.42.15.44-.02.95-.47,1.52-1.33.37-.53.69-1.06.97-1.59.15-.3.32-.45.51-.47.11,0,.21.03.3.1.08.07.11.15.12.23.02.32-.37,1.07-1.15,2.24-.94,1.41-1.83,2.14-2.67,2.19-.45.03-.83-.16-1.15-.55-.2-.25-.31-.62-.34-1.1-.06-1.06.18-2.32.71-3.76.13-.36.49-1.23,1.09-2.61-.23.07-.41.12-.54.12-.18.01-.35-.02-.49-.1-.2-.11-.3-.26-.32-.44-.01-.22.1-.4.35-.55.07-.04.39-.11.96-.23.21-.05.51-.15.91-.3.28-.57.73-1.35,1.37-2.34.36-.55.6-.91.75-1.07.2-.23.38-.35.53-.36.11,0,.23.05.35.17.11.11.17.22.18.33.01.23-.21.69-.66,1.4-.3.46-.52.83-.66,1.11.96-.32,1.65-.49,2.07-.51.48-.03.74.16.76.56.01.2-.06.36-.22.46-.08.06-.31.11-.68.17-.15,0-.8.2-1.96.61-.32.11-.63.23-.94.36Z"/><path class="cls-3" d="M80.93,47.59v.24c.02.19.08.36.19.49.24.31.61.45,1.11.43,1.1-.06,2.32-.98,3.66-2.74.24-.3.44-.46.62-.47.1,0,.19.04.27.13.06.07.09.13.09.19.02.34-.37.95-1.16,1.81-.62.68-1.29,1.24-2.02,1.69-.72.45-1.41.69-2.05.72-.66.04-1.19-.16-1.59-.6-.27-.3-.42-.72-.46-1.27-.08-1.48.53-2.98,1.84-4.48,1.07-1.22,2.02-1.86,2.86-1.91.23-.01.44.05.63.17.24.17.37.41.38.71.03.46-.16,1.05-.55,1.75-.81,1.45-2.08,2.5-3.84,3.14ZM81.16,46.55c.6-.25,1.07-.51,1.41-.79.59-.51,1.04-1.07,1.37-1.69.12-.22.17-.41.17-.58-.01-.18-.1-.26-.27-.25-.23.01-.54.2-.94.57-.72.65-1.3,1.56-1.73,2.74Z"/><path class="cls-3" d="M89.59,45.29c.81-.97,1.75-1.93,2.82-2.87.39-.34.8-.66,1.24-.96.22-.14.36-.22.42-.22.13,0,.27.08.41.27.08.1.13.19.13.28,0,.16-.14.38-.46.67-.85.76-1.27,1.32-1.25,1.68.01.2.13.3.36.28.38-.02,1.01-.37,1.89-1.05.15-.11.28-.17.39-.18.07,0,.14.03.22.09.08.07.13.16.13.24.01.26-.33.69-1.04,1.27-.74.62-1.46.95-2.15.99-.28.02-.54-.04-.79-.18-.21-.11-.32-.33-.34-.64-.01-.22.06-.47.23-.77-.67.53-1.43,1.42-2.3,2.67-.5.77-.99,1.71-1.46,2.82-.18.42-.42.63-.72.65-.32.02-.5-.13-.51-.43-.02-.3.19-1.11.63-2.44.64-1.97,1.35-3.51,2.11-4.62.47-.69.88-1.04,1.22-1.06.11,0,.22.02.32.09.12.08.18.19.19.32s-.07.32-.23.57c-.03.05-.25.35-.65.92-.36.54-.64,1.07-.82,1.59Z"/><path class="cls-3" d="M98.14,43.72c.27-.02.59-.02.96-.03.76-.02,1.23-.03,1.44-.04.51-.03.85,0,1.02.11.16.1.25.28.27.57.02.26-.05.47-.19.63-.08.08-.19.13-.31.14-.09,0-.23,0-.42,0-.33-.02-1.19.01-2.58.09-.85.05-1.48.13-1.9.25-.2.06-.35.09-.46.09-.24.01-.42-.09-.56-.31-.07-.11-.11-.24-.12-.39-.03-.46.17-.74.58-.86.31-.1,1.06-.18,2.26-.25Z"/><path class="cls-3" d="M107.77,39.83c.54-.03.96.04,1.24.22s.44.46.46.86c.03.52-.14,1.03-.49,1.53-.34.48-.87.88-1.6,1.2-.4.17-.73.27-1,.28-.37.02-.56-.13-.58-.46-.01-.22.08-.39.29-.52.05-.03.35-.12.88-.27.32-.09.61-.26.87-.51.23-.22.33-.44.32-.68-.01-.18-.07-.32-.18-.4s-.27-.12-.48-.1c-.51.03-1.06.27-1.65.71-.68.51-1.01,1.08-.97,1.72.03.46.29,1.01.79,1.67.56.72.85,1.33.88,1.85.04.77-.26,1.4-.92,1.88-.41.3-.88.46-1.41.49-.84.05-1.5-.22-1.97-.8-.33-.41-.51-.91-.55-1.5-.04-.68.1-1.27.43-1.75.21-.32.44-.49.68-.5.22-.01.33.07.34.24,0,.07-.03.18-.1.32-.18.39-.26.84-.23,1.35.02.43.2.79.52,1.07.29.25.61.36.96.34.34-.02.6-.15.78-.39.15-.2.21-.45.2-.75-.02-.37-.26-.83-.71-1.4-.62-.77-.96-1.49-.99-2.15-.05-.88.38-1.68,1.3-2.41.89-.7,1.86-1.08,2.89-1.14Z"/><path class="cls-3" d="M112.48,41.32c.35-.25.61-.42.78-.52.35-.2.7-.3,1.04-.32.39-.02.68.07.89.29.21.21.32.54.35.99.04.61-.14,1.36-.52,2.25-.59,1.4-1.33,2.51-2.24,3.35-.76.7-1.49,1.08-2.2,1.12-.39.02-.78-.11-1.17-.38-1.06,2.5-2,5.04-2.8,7.62-.17.62-.39.93-.66.95-.13,0-.27-.07-.41-.24-.1-.12-.16-.25-.17-.4-.03-.47.46-2.05,1.47-4.72,1.56-4.12,3.07-7.56,4.52-10.31.3-.58.5-.98.61-1.2.27-.59.56-.89.85-.91.3-.02.46.15.48.51.01.2-.08.48-.27.83-.23.45-.41.82-.55,1.09ZM109.83,46.95c.2.19.45.28.74.26.82-.05,1.68-.82,2.59-2.33.34-.56.6-1.12.79-1.7.15-.46.22-.8.21-1.03,0-.16-.05-.27-.13-.35-.08-.07-.2-.11-.36-.1-.41.02-.9.34-1.46.94-.54.58-1.04,1.39-1.51,2.42-.43.95-.72,1.57-.86,1.87Z"/><path class="cls-3" d="M118.1,43.63c-.22.7-.39,1.26-.5,1.69s-.16.73-.15.89c.01.22.12.32.33.31.32-.02.71-.34,1.17-.96.22-.3.54-.84.96-1.63.17-.31.35-.47.55-.48.23-.01.35.09.36.31.02.38-.37,1.17-1.17,2.36-.84,1.25-1.64,1.9-2.41,1.95-.33.02-.61-.11-.84-.38-.16-.19-.25-.43-.27-.72-.03-.49.08-1.18.33-2.07.25-.89.63-1.97,1.15-3.25,1.33-3.25,2.72-5.95,4.17-8.09,1.16-1.72,2.15-2.61,2.98-2.65.26-.02.48.07.66.27.19.19.29.42.3.68.07,1.23-.91,3.34-2.94,6.32-.91,1.33-2.01,2.67-3.31,4.02-.34.35-.81.83-1.4,1.43ZM118.92,41.48c1.74-1.67,3.26-3.73,4.56-6.2.68-1.28,1-2.12.98-2.52-.01-.19-.1-.29-.27-.28-.48.03-1.3,1.04-2.47,3.03-.96,1.64-1.9,3.63-2.8,5.97Z"/><path class="cls-3" d="M124.98,39.71c.15,0,.28.04.38.15.08.09.12.19.12.28,0,.16-.1.43-.34.81-.83,1.46-1.42,2.66-1.75,3.6-.36.96-.67,1.95-.93,2.96-.12.45-.32.68-.62.7-.17,0-.32-.05-.43-.19-.1-.11-.16-.23-.17-.36-.01-.26.22-1.16.69-2.68.37-1.2,1.01-2.54,1.91-4.02.29-.48.51-.81.66-.98.15-.18.31-.27.47-.28ZM127.21,34.69c.4-.02.6.17.63.57.02.37-.15.79-.51,1.26-.34.45-.69.69-1.03.71-.17,0-.31-.04-.42-.16-.11-.11-.17-.25-.18-.41-.02-.42.18-.88.62-1.38.32-.37.62-.56.89-.58Z"/><path class="cls-3" d="M129.87,38.84c-.52.92-.99,1.94-1.41,3.06-.6,1.6-.88,2.79-.84,3.56.01.22.07.38.17.49.1.11.24.16.42.15.44-.02.95-.47,1.52-1.33.37-.53.69-1.06.97-1.59.15-.3.32-.45.51-.47.11,0,.21.03.3.1.07.07.11.15.12.23.02.32-.37,1.07-1.15,2.24-.94,1.41-1.83,2.14-2.68,2.19-.45.03-.83-.16-1.15-.55-.2-.25-.31-.62-.34-1.1-.06-1.06.18-2.32.71-3.76.13-.36.49-1.23,1.09-2.61-.23.07-.41.12-.53.12-.18.01-.35-.02-.49-.1-.2-.11-.31-.26-.32-.44-.01-.22.11-.4.35-.55.07-.04.39-.11.96-.23.21-.05.51-.15.91-.3.28-.57.73-1.35,1.37-2.34.36-.55.6-.91.75-1.07.2-.23.38-.35.53-.36.11,0,.23.05.35.17.11.11.17.22.18.33.01.23-.21.69-.66,1.4-.3.46-.52.83-.66,1.11.96-.32,1.65-.49,2.07-.51.48-.03.74.16.76.56.01.2-.06.36-.22.46-.08.06-.31.11-.68.17-.15,0-.8.2-1.96.61-.32.11-.63.23-.94.36Z"/><path class="cls-3" d="M143.16,38.4c.69-.04,1.06.31,1.1,1.03.04.64-.18,1.3-.64,1.98-.36.51-.68.78-.97.79-.25.01-.38-.12-.39-.4,0-.15.02-.27.08-.36.02-.04.12-.14.3-.32.15-.16.3-.39.45-.7.1-.21.15-.37.14-.5,0-.14-.09-.21-.25-.2-.18.01-.46.17-.82.48-.57.5-1.12,1.26-1.67,2.29-.55,1.07-.82,1.9-.78,2.5.01.19.08.36.2.5.18.22.41.32.69.3.55-.03,1.19-.41,1.9-1.14.61-.62,1.11-1.24,1.52-1.86.21-.34.4-.51.56-.52.1,0,.19.03.27.12.08.08.12.17.12.26.02.32-.36.98-1.14,1.97-1.24,1.55-2.4,2.35-3.48,2.42-.65.04-1.16-.17-1.53-.61-.27-.33-.41-.72-.44-1.19-.05-.91.26-1.99.95-3.24.66-1.19,1.45-2.16,2.37-2.92.54-.44,1.02-.67,1.44-.69Z"/><path class="cls-3" d="M150.83,37.63c.72-.04,1.1.38,1.15,1.25.07,1.17-.39,2.68-1.37,4.53-1.07,2.01-2.15,3.04-3.24,3.1-.51.03-.9-.19-1.16-.65-.14-.23-.21-.51-.23-.85-.06-1.12.25-2.37.95-3.73.65-1.26,1.44-2.26,2.38-2.99.55-.43,1.05-.65,1.52-.68ZM149.74,42.69c-.23-.16-.35-.29-.35-.39,0-.07.12-.27.39-.6.74-.93,1.09-1.67,1.06-2.21,0-.07-.03-.14-.08-.21-.08-.13-.19-.19-.34-.18-.28.02-.68.31-1.19.89-.66.74-1.16,1.5-1.48,2.26-.38.88-.56,1.59-.52,2.16,0,.15.05.28.14.39.12.15.27.22.45.21.42-.02.86-.37,1.3-1.02.2-.28.35-.56.47-.85.12-.29.17-.44.16-.44Z"/><path class="cls-3" d="M154.49,41.54c.69-.81,1.31-1.46,1.84-1.93.81-.71,1.37-1.07,1.66-1.08.14,0,.27.04.38.14.1.09.16.19.16.31,0,.17-.13.45-.42.84-.44.62-.74,1.15-.9,1.58,1.94-2.18,3.28-3.29,4.04-3.33.16,0,.3.03.42.12.13.1.2.23.21.38.01.25-.16.57-.51.98-1.56,1.81-2.31,3.26-2.25,4.35.03.45.12.76.29.95l.37.41c.07.08.12.17.12.3,0,.14-.04.28-.15.4-.12.15-.27.23-.44.24-.29.02-.57-.15-.83-.51-.32-.42-.5-.93-.54-1.53-.05-.8.14-1.62.55-2.46.14-.3.38-.7.72-1.2-.71.6-1.43,1.42-2.15,2.45-.49.7-.92,1.47-1.29,2.32-.18.41-.41.62-.68.63-.3.02-.46-.14-.48-.47-.02-.36.18-1.12.61-2.27.24-.66.55-1.35.92-2.09-1.43,1.24-2.47,2.88-3.12,4.9-.16.45-.39.68-.7.7-.14,0-.26-.04-.35-.14-.1-.1-.16-.22-.17-.37-.03-.52.21-1.47.71-2.85.52-1.46,1.14-2.79,1.83-3.97.48-.83.87-1.25,1.16-1.27.26-.02.4.12.42.4,0,.12-.14.44-.43.95-.52.95-.86,1.66-1.01,2.12Z"/><path class="cls-3" d="M165.44,38.31c.35-.25.61-.42.78-.52.35-.2.7-.3,1.04-.32.39-.02.68.07.89.29.21.21.32.54.35.99.04.61-.14,1.36-.52,2.25-.59,1.4-1.33,2.51-2.24,3.35-.76.7-1.49,1.08-2.19,1.12-.39.02-.78-.11-1.17-.38-1.06,2.5-2,5.04-2.8,7.62-.17.62-.39.93-.66.95-.13,0-.27-.07-.41-.24-.1-.12-.16-.25-.17-.4-.03-.47.46-2.05,1.47-4.72,1.56-4.12,3.07-7.56,4.52-10.31.3-.58.5-.98.6-1.2.27-.59.56-.89.85-.91.3-.02.46.15.48.51.01.2-.08.48-.27.83-.23.45-.41.82-.55,1.09ZM162.79,43.94c.2.19.45.28.74.26.82-.05,1.68-.82,2.59-2.33.34-.56.6-1.12.79-1.7.15-.46.22-.8.21-1.03,0-.16-.05-.27-.13-.35-.08-.07-.2-.11-.36-.1-.41.02-.9.34-1.46.94-.54.59-1.04,1.39-1.51,2.42-.43.95-.72,1.57-.86,1.87Z"/><path class="cls-3" d="M171.31,40.64c.81-.97,1.75-1.93,2.82-2.87.39-.34.8-.66,1.24-.96.22-.14.36-.22.42-.22.13,0,.27.08.41.27.09.1.13.19.14.28,0,.16-.15.38-.46.67-.85.76-1.27,1.32-1.25,1.68.01.2.13.3.36.28.38-.02,1.01-.37,1.89-1.05.15-.11.28-.17.39-.18.07,0,.14.03.22.09.08.07.13.16.13.24.02.26-.33.69-1.04,1.27-.74.62-1.46.95-2.15.99-.28.02-.54-.04-.79-.18-.21-.11-.32-.32-.34-.64-.01-.22.07-.47.23-.77-.67.53-1.43,1.42-2.3,2.67-.5.77-.99,1.71-1.46,2.82-.18.42-.42.63-.72.65-.32.02-.5-.13-.51-.43-.02-.3.19-1.11.63-2.44.64-1.97,1.35-3.51,2.11-4.62.47-.69.88-1.04,1.22-1.06.11,0,.22.02.32.09.12.08.18.19.19.32,0,.13-.07.32-.23.57-.03.05-.25.35-.65.92-.37.54-.64,1.07-.82,1.59Z"/><path class="cls-3" d="M178.28,42.05v.24c.02.19.08.36.19.49.24.31.61.45,1.11.43,1.1-.06,2.32-.98,3.66-2.74.24-.3.45-.46.62-.47.1,0,.19.04.27.13.06.07.09.13.09.19.02.34-.37.95-1.17,1.81-.62.68-1.29,1.24-2.02,1.69s-1.41.69-2.05.72c-.66.04-1.19-.16-1.59-.6-.27-.3-.42-.72-.46-1.27-.08-1.48.53-2.98,1.84-4.48,1.07-1.22,2.02-1.86,2.86-1.91.23-.01.44.05.63.18.24.17.37.41.38.7.03.46-.16,1.05-.55,1.75-.81,1.45-2.08,2.5-3.84,3.14ZM178.51,41.01c.6-.25,1.07-.51,1.41-.79.59-.51,1.04-1.07,1.37-1.69.12-.22.17-.41.17-.58,0-.18-.1-.26-.26-.25-.23.01-.54.2-.95.57-.72.65-1.3,1.56-1.73,2.74Z"/><path class="cls-3" d="M190.34,35.13c.54-.03.96.04,1.24.22.28.18.44.46.46.86.03.52-.14,1.03-.49,1.53-.34.48-.87.88-1.6,1.2-.39.17-.73.27-1,.28-.37.02-.56-.13-.58-.46-.01-.22.08-.39.29-.52.05-.03.35-.12.88-.27.32-.09.61-.26.87-.51.22-.22.33-.44.32-.68-.01-.18-.07-.32-.18-.4-.11-.08-.27-.12-.48-.1-.51.03-1.06.27-1.65.71-.68.51-1.01,1.08-.97,1.72.03.46.29,1.01.8,1.67.56.72.85,1.33.88,1.85.04.77-.26,1.4-.92,1.87-.41.3-.88.46-1.41.49-.84.05-1.5-.22-1.97-.8-.33-.41-.51-.91-.55-1.5-.04-.68.1-1.27.43-1.75.21-.32.44-.49.68-.5.22-.01.33.07.34.24,0,.07-.03.18-.1.32-.18.39-.26.84-.23,1.35.02.43.2.79.52,1.07.29.25.61.36.96.34.34-.02.6-.15.78-.39.15-.2.21-.45.2-.75-.02-.37-.26-.83-.71-1.4-.62-.77-.96-1.49-.99-2.15-.05-.88.38-1.68,1.3-2.41.89-.7,1.86-1.08,2.89-1.14Z"/><path class="cls-3" d="M197.19,34.74c.54-.03.96.04,1.24.22.28.18.44.46.46.86.03.52-.14,1.03-.49,1.53-.34.48-.87.88-1.6,1.2-.39.17-.73.27-1,.28-.37.02-.56-.13-.58-.46-.01-.22.08-.39.29-.52.05-.03.35-.12.88-.27.32-.09.61-.26.87-.51.23-.21.33-.44.32-.68-.01-.18-.07-.32-.18-.4-.11-.08-.27-.12-.48-.1-.51.03-1.06.27-1.65.71-.68.51-1.01,1.08-.97,1.72.03.46.29,1.01.8,1.67.56.72.85,1.33.88,1.85.04.77-.26,1.4-.92,1.88-.41.3-.88.46-1.41.49-.84.05-1.5-.22-1.97-.8-.33-.41-.51-.91-.55-1.5-.04-.68.1-1.27.43-1.75.21-.32.44-.49.68-.5.22-.01.33.07.34.24,0,.07-.03.18-.1.32-.18.39-.26.84-.23,1.35.02.43.2.79.52,1.07.29.25.61.36.96.34.34-.02.6-.15.78-.39.15-.2.21-.45.19-.75-.02-.37-.26-.83-.71-1.4-.62-.77-.96-1.49-.99-2.15-.05-.88.38-1.68,1.3-2.41.89-.7,1.86-1.08,2.89-1.14Z"/><path class="cls-3" d="M201.51,35.36c.15,0,.28.04.38.15.08.09.12.19.12.28,0,.16-.1.43-.34.81-.83,1.46-1.42,2.66-1.75,3.6-.36.96-.67,1.95-.93,2.96-.12.45-.32.68-.62.7-.17,0-.32-.05-.43-.19-.1-.11-.16-.23-.17-.36-.01-.26.22-1.16.69-2.68.37-1.2,1.01-2.54,1.91-4.02.29-.48.51-.81.66-.98.15-.18.31-.27.47-.28ZM203.73,30.33c.39-.02.6.17.63.57.02.37-.15.79-.51,1.26-.34.45-.69.69-1.03.71-.17,0-.31-.04-.42-.16-.11-.11-.17-.25-.18-.41-.02-.42.18-.88.62-1.38.32-.37.62-.56.89-.58Z"/><path class="cls-3" d="M206.66,34.46c.72-.04,1.1.38,1.15,1.25.07,1.17-.39,2.68-1.37,4.53-1.07,2.01-2.15,3.04-3.24,3.1-.51.03-.9-.19-1.16-.65-.14-.23-.21-.51-.23-.85-.06-1.12.25-2.37.95-3.73.65-1.26,1.44-2.26,2.38-2.99.55-.43,1.05-.65,1.52-.68ZM205.57,39.51c-.23-.16-.35-.29-.35-.39,0-.07.12-.27.39-.6.74-.93,1.09-1.67,1.06-2.21,0-.07-.03-.14-.08-.21-.08-.13-.19-.19-.34-.18-.28.02-.68.31-1.19.89-.66.74-1.16,1.5-1.48,2.26-.38.88-.56,1.59-.52,2.16,0,.15.06.28.14.39.12.15.27.22.45.21.42-.02.86-.37,1.3-1.02.2-.28.35-.56.47-.85s.17-.44.16-.44Z"/><path class="cls-3" d="M210.49,38.23c.11-.11.21-.22.31-.33,1.73-1.89,2.91-2.86,3.53-2.89.34-.02.52.16.55.54.01.26-.12.58-.41.96-1.56,2.05-2.3,3.82-2.22,5.32.03.48.18.94.47,1.36.13.19.21.35.21.46,0,.1-.04.21-.14.31-.11.13-.24.2-.4.21-.36.02-.68-.19-.95-.63-.26-.42-.41-.93-.45-1.55-.07-1.18.31-2.52,1.12-4.01-1.15.83-2.18,2.25-3.1,4.24-.24.48-.5.73-.8.75-.15,0-.28-.04-.38-.14-.13-.12-.2-.27-.21-.46-.03-.47.44-1.75,1.41-3.82.52-1.12.93-1.94,1.23-2.45.31-.5.58-.76.81-.77.11,0,.23.04.34.14.13.12.2.25.21.41.01.19-.1.48-.33.85-.34.56-.61,1.06-.81,1.51Z"/><path class="cls-3" d="M222.25,24.64c.41-.02.63.22.66.74.04.8-.34,1.87-1.15,3.21-.33.55-.73,1.05-1.2,1.52-.3.31-.54.47-.74.48-.18.01-.34-.06-.46-.23-.08-.1-.13-.22-.14-.36-.01-.19.16-.47.52-.84,1.01-1.09,1.57-2.33,1.68-3.71.03-.26.14-.46.32-.61.17-.12.34-.19.5-.2ZM225.3,24.47c.41-.02.63.22.66.74.05.8-.34,1.87-1.15,3.21-.33.55-.73,1.05-1.2,1.52-.3.31-.54.47-.74.48-.18.01-.34-.06-.46-.23-.08-.1-.13-.22-.14-.36-.01-.19.16-.47.52-.84,1.02-1.09,1.58-2.33,1.68-3.71.03-.26.14-.46.32-.61.17-.12.34-.19.5-.2Z"/><path class="cls-3" d="M281.12,56.18c-1.33.18-2.26.25-2.79.21-.36-.03-.52-.16-.5-.39,0-.12.06-.21.14-.29.08-.08.18-.11.28-.1.04,0,.11.01.2.03.06.02.13.03.22.03.3.02.7.02,1.21-.02.64-.05,1.11-.1,1.42-.16.17-.03.32-.04.43-.03.26.02.38.17.36.46-.02.19-.15.4-.39.62-1.82,1.66-3.27,3.32-4.36,4.98-.26.4-.43.64-.5.71-.13.13-.26.19-.39.18-.07,0-.13-.04-.18-.1-.06-.07-.09-.14-.08-.22.02-.25.3-.74.83-1.48.71-.97,1.54-1.94,2.51-2.92.58-.59,1.11-1.09,1.61-1.51Z"/><path class="cls-3" d="M281.36,61.79c.84-.19,1.6-.26,2.29-.21.27.02.48.09.64.22.14.11.2.23.19.38,0,.09-.05.17-.12.24-.07.07-.15.1-.24.09-.03,0-.07-.01-.13-.03-.25-.09-.47-.14-.68-.16-.18-.01-.4-.01-.67,0-.09,0-.44.07-1.04.18-.54.1-.85.14-.95.14-.14-.01-.25-.09-.34-.23-.08-.13-.12-.26-.11-.39.01-.15.15-.33.43-.56.51-.43,1.01-.81,1.48-1.15.45-.32,1-.68,1.65-1.09.75-.46,1.26-.8,1.55-1.02.43-.32.65-.65.68-1,.02-.19-.03-.35-.15-.47-.1-.11-.24-.17-.41-.18-.44-.04-.97.17-1.61.61-.29.2-.47.3-.54.29-.05,0-.1-.04-.16-.1-.06-.06-.09-.14-.08-.22.01-.17.25-.41.69-.69.72-.46,1.39-.67,2.01-.62.36.03.64.17.86.42.21.24.3.51.28.82-.04.54-.37,1.06-.96,1.55-.26.21-.72.53-1.4.95-1.62,1-2.68,1.74-3.16,2.24Z"/><path class="cls-3" d="M289.73,60.21c-.06.12-.23.41-.5.88-.46.9-.74,1.49-.85,1.77-.06.16-.12.27-.19.33-.06.06-.15.08-.27.07-.12,0-.21-.06-.28-.15-.06-.08-.09-.18-.08-.28.03-.37.43-1.22,1.19-2.58-.72.02-1.28.1-1.7.24-.14.04-.25.06-.33.05-.2-.02-.28-.18-.26-.48.01-.18.1-.35.25-.51.3-.29.8-.74,1.5-1.33.86-.72,1.63-1.3,2.32-1.74.59-.38,1.01-.56,1.26-.54.11,0,.21.06.3.16.07.08.1.17.09.26,0,.12-.1.29-.26.52-.03.04-.21.29-.54.74-.42.58-.83,1.19-1.21,1.83.34,0,.57.02.68.03.29.02.42.14.4.36-.02.19-.1.32-.27.39-.07.03-.28.03-.62,0-.1,0-.31-.02-.64-.03ZM289.22,59.5c.61-.99,1.19-1.81,1.72-2.47-.53.25-1.19.69-1.97,1.34-.56.47-1.02.89-1.36,1.25.72-.09,1.25-.13,1.61-.12Z"/><path class="cls-3" d="M291.58,62.61c.84-.19,1.6-.26,2.29-.21.27.02.48.09.64.22.14.11.2.23.19.38,0,.09-.05.17-.12.24-.07.07-.16.1-.24.09-.03,0-.07-.01-.13-.03-.25-.09-.47-.14-.68-.16-.18-.01-.4-.02-.67,0-.09,0-.44.07-1.04.18-.54.1-.85.15-.95.14-.14-.01-.25-.09-.34-.23-.08-.13-.12-.26-.11-.39.01-.15.15-.33.43-.56.52-.43,1.01-.81,1.48-1.15.45-.32,1-.68,1.65-1.09.75-.46,1.26-.8,1.55-1.02.43-.32.66-.65.68-1,.02-.19-.04-.35-.15-.47-.1-.11-.24-.17-.41-.18-.44-.04-.97.17-1.61.61-.29.2-.47.3-.54.29-.05,0-.1-.04-.16-.1-.06-.06-.09-.14-.08-.22.01-.17.25-.41.69-.69.72-.46,1.39-.67,2.01-.62.36.03.64.17.86.42.21.24.3.51.28.82-.04.54-.36,1.06-.96,1.55-.26.21-.72.53-1.4.95-1.62,1-2.68,1.74-3.16,2.24Z"/><path class="cls-3" d="M299.95,61.03c-.06.12-.23.41-.5.88-.46.9-.74,1.49-.85,1.77-.06.16-.12.27-.19.33-.06.06-.15.08-.27.07-.12,0-.21-.06-.28-.15-.06-.08-.09-.18-.08-.28.03-.37.43-1.22,1.19-2.58-.72.02-1.28.1-1.7.24-.14.04-.25.06-.33.05-.2-.02-.28-.18-.26-.48.01-.18.1-.35.25-.51.3-.29.8-.74,1.5-1.33.86-.72,1.63-1.3,2.32-1.74.59-.38,1.01-.56,1.26-.54.11,0,.21.06.3.16.07.08.1.17.09.26,0,.12-.1.29-.26.52-.03.04-.21.29-.54.74-.42.58-.83,1.19-1.21,1.83.34,0,.57.02.68.03.29.02.42.14.4.36-.01.19-.1.32-.27.39-.07.03-.28.03-.62,0-.1,0-.31-.02-.64-.03ZM299.44,60.32c.61-.99,1.19-1.81,1.72-2.47-.53.25-1.19.69-1.97,1.34-.56.47-1.02.89-1.36,1.25.72-.09,1.25-.13,1.61-.12Z"/><path class="cls-3" d="M301.8,63.43c.84-.19,1.6-.26,2.29-.21.27.02.48.09.64.22.14.11.2.23.19.38,0,.09-.05.17-.12.24-.07.07-.16.1-.24.09-.03,0-.07-.01-.13-.03-.25-.09-.47-.14-.68-.16-.18-.01-.4-.02-.67,0-.09,0-.44.07-1.04.18-.54.1-.85.14-.95.14-.14-.01-.25-.09-.34-.23-.08-.13-.12-.26-.11-.39.01-.15.15-.33.43-.56.52-.43,1.01-.81,1.48-1.15.45-.32,1-.68,1.65-1.09.75-.46,1.26-.8,1.55-1.02.43-.32.66-.65.68-1,.02-.19-.04-.35-.15-.47-.1-.11-.24-.17-.41-.18-.44-.04-.97.17-1.61.61-.29.2-.47.3-.54.29-.05,0-.1-.04-.16-.1-.06-.06-.09-.14-.08-.22.01-.17.25-.41.69-.69.72-.46,1.39-.67,2.01-.62.36.03.64.17.86.41.21.24.3.51.28.82-.04.54-.36,1.06-.96,1.55-.26.21-.72.53-1.4.95-1.62,1-2.68,1.74-3.16,2.24Z"/><path class="cls-3" d="M310.37,61.69c-.7.28-1.25.4-1.64.37-.38-.03-.67-.22-.86-.55-.14-.24-.2-.52-.18-.84.07-.84.5-1.61,1.31-2.32.73-.65,1.46-.94,2.17-.88.41.03.72.2.95.51.19.27.28.59.24.98-.07.84-.45,1.77-1.13,2.78-.37.55-.94,1.18-1.7,1.89-.85.8-1.39,1.2-1.64,1.18-.07,0-.13-.04-.18-.1-.04-.06-.06-.12-.06-.18,0-.12.12-.25.33-.4.97-.69,1.76-1.49,2.37-2.42ZM310.87,60.86c.4-.67.61-1.24.65-1.7.03-.33-.01-.58-.12-.76-.11-.17-.28-.27-.52-.29-.5-.04-1.01.21-1.54.75-.52.53-.8,1.08-.84,1.64-.02.25.02.45.13.58.11.14.28.21.52.23.32.03.71-.04,1.15-.2.34-.13.53-.22.56-.26Z"/><path class="cls-3" d="M316.59,58.65c.25.12.44.3.55.54.11.24.15.53.12.88-.09,1.08-.6,2.2-1.55,3.36-1.03,1.25-1.96,1.85-2.8,1.78-.42-.03-.71-.28-.89-.73-.11-.29-.15-.64-.12-1.04.08-.96.51-1.95,1.3-2.97.41-.52.95-1.05,1.62-1.58.7-.55,1.19-.82,1.48-.79.22.02.32.2.29.54ZM315.6,59.1c-.61.42-1.16.95-1.65,1.59-.71.91-1.09,1.82-1.17,2.72-.02.27,0,.48.06.64.1.24.26.37.47.39.34.03.76-.2,1.27-.68.57-.53,1.03-1.2,1.4-2,.28-.61.44-1.13.47-1.56.02-.3-.05-.57-.21-.8-.11-.16-.28-.25-.48-.28-.05,0-.1,0-.15-.01Z"/><path class="cls-3" d="M322.01,59.46c-1.33.18-2.26.25-2.79.21-.36-.03-.52-.16-.51-.39,0-.12.06-.21.14-.29s.18-.11.28-.1c.04,0,.11.01.2.03.06.01.13.03.22.03.3.02.7.02,1.21-.02.64-.05,1.11-.1,1.42-.16.17-.03.32-.04.43-.03.26.02.38.17.36.46-.01.19-.14.4-.39.62-1.82,1.66-3.27,3.32-4.36,4.98-.26.4-.43.64-.5.71-.13.13-.26.19-.39.18-.07,0-.13-.04-.18-.09-.06-.07-.09-.14-.08-.22.02-.25.3-.74.83-1.48.71-.97,1.54-1.94,2.51-2.92.58-.59,1.11-1.09,1.61-1.51Z"/><path class="cls-3" d="M325.82,61.76c.24.12.4.25.49.38.14.19.19.45.17.77-.06.79-.46,1.53-1.18,2.21-.73.68-1.44.99-2.15.93-.43-.04-.77-.24-1.02-.63-.17-.27-.25-.57-.22-.88.04-.52.26-.76.66-.73.24.02.35.12.34.3,0,.04-.01.09-.03.15-.02.08-.04.16-.04.25-.02.23.02.41.12.54.12.14.26.22.43.23.41.03.88-.22,1.41-.76.5-.52.77-1.03.81-1.53.02-.25-.03-.46-.13-.61-.12-.17-.29-.26-.53-.28-.09,0-.19,0-.28.02-.11.03-.2.04-.26.03-.14-.01-.2-.11-.19-.3.01-.17.08-.3.2-.4.07-.06.21-.11.42-.14.41-.07.77-.18,1.06-.34.19-.1.34-.25.47-.43.06-.1.1-.2.11-.31.01-.14-.02-.25-.09-.32-.07-.08-.18-.12-.34-.13-.26-.02-.54.03-.83.14-.08.03-.26.11-.54.26-.08.04-.16.06-.25.05-.17-.01-.24-.11-.23-.29.01-.16.15-.32.41-.47.6-.36,1.18-.51,1.72-.47.33.03.59.15.8.37.22.23.32.5.3.79-.03.39-.23.75-.6,1.07-.2.18-.53.36-.99.54Z"/><path class="cls-3" d="M329.15,62.26c.75-.21,1.29-.3,1.62-.27.4.03.69.17.86.42.15.21.22.48.19.8-.07.83-.5,1.61-1.3,2.34-.74.68-1.46.99-2.17.94-.45-.04-.79-.26-1.04-.67-.19-.32-.27-.68-.24-1.08.07-.87.48-1.73,1.22-2.6.64-.75,1.53-1.42,2.66-2.01.34-.18.59-.3.75-.37.15-.06.29-.09.41-.08.18.01.27.1.26.26-.01.15-.12.26-.32.36-1.06.46-2.02,1.11-2.91,1.96ZM328.48,63.11c-.34.47-.53.94-.57,1.42-.03.32.03.59.15.84.13.25.32.38.56.4.34.03.7-.1,1.08-.4.38-.29.71-.7.97-1.23.17-.33.26-.62.28-.87.01-.18-.03-.34-.13-.46-.11-.14-.27-.21-.47-.23-.33-.03-.73.05-1.22.23-.13.04-.28.11-.45.19-.13.06-.2.1-.21.12Z"/><path class="cls-3" d="M336.38,60.93c-.36.23-.72.42-1.07.58-.48.21-.8.31-.94.3-.16-.01-.22-.14-.2-.39,0-.09.03-.16.08-.22.04-.05.14-.1.29-.15.45-.15,1.12-.45,2-.91.4-.21.68-.31.83-.29.1,0,.19.07.27.18.05.07.07.15.06.22,0,.12-.12.32-.33.6-1.59,2.17-2.71,3.88-3.35,5.13-.16.31-.27.5-.33.57-.1.12-.2.18-.29.18-.09,0-.18-.07-.25-.19-.04-.07-.06-.14-.06-.21.02-.26.46-1.1,1.33-2.51.81-1.33,1.47-2.28,1.98-2.88Z"/><path class="cls-3" d="M337.58,66.31c.84-.19,1.6-.26,2.29-.21.27.02.48.09.64.22.14.11.2.23.19.38,0,.09-.05.17-.12.24-.07.07-.16.1-.24.09-.03,0-.07-.01-.13-.03-.25-.09-.47-.14-.68-.16-.18-.01-.4-.02-.67,0-.09,0-.44.07-1.04.18-.54.1-.85.14-.95.14-.14-.01-.25-.09-.34-.23-.08-.13-.12-.26-.11-.39.01-.15.15-.33.43-.56.51-.43,1.01-.81,1.48-1.15.45-.32,1-.68,1.65-1.09.75-.46,1.26-.8,1.55-1.02.43-.32.66-.65.68-1,.02-.19-.04-.35-.15-.48-.1-.11-.24-.17-.41-.18-.44-.04-.97.17-1.61.61-.29.2-.47.3-.54.29-.05,0-.1-.04-.16-.1-.06-.06-.09-.14-.08-.22.01-.17.25-.41.69-.69.72-.46,1.39-.67,2.01-.62.36.03.64.17.86.41.21.24.3.51.28.82-.04.54-.36,1.06-.96,1.55-.26.21-.72.53-1.4.95-1.62,1-2.68,1.74-3.16,2.24Z"/><path class="cls-3" d="M347.25,61.11c.25.12.44.3.55.54.11.24.15.53.12.88-.09,1.09-.6,2.21-1.55,3.36-1.03,1.25-1.96,1.85-2.8,1.78-.42-.03-.71-.28-.89-.73-.11-.29-.15-.64-.12-1.04.08-.96.51-1.95,1.3-2.97.41-.52.95-1.05,1.62-1.58.7-.55,1.2-.81,1.48-.79.22.02.31.2.29.54ZM346.26,61.56c-.61.42-1.16.95-1.65,1.59-.71.91-1.09,1.82-1.17,2.72-.02.27,0,.48.06.64.1.24.26.37.48.39.34.03.76-.2,1.27-.68.57-.53,1.03-1.2,1.4-2,.28-.61.44-1.13.47-1.56.02-.3-.05-.57-.21-.8-.11-.16-.28-.25-.48-.28-.05,0-.1,0-.15-.01Z"/><path class="cls-3" d="M351.51,61.88c-.88.65-1.46,1.22-1.73,1.71.5-.16.92-.22,1.26-.19.39.03.69.17.9.42.19.24.27.53.24.88-.06.8-.51,1.58-1.34,2.34-.82.75-1.59,1.1-2.32,1.04-.42-.03-.73-.25-.93-.66-.13-.28-.18-.58-.15-.91.03-.34.12-.61.29-.81.14-.17.3-.25.49-.23.17.01.26.09.25.22,0,.03-.02.08-.06.17-.06.14-.1.33-.12.56-.02.21.02.4.1.56.11.23.28.35.51.37.44.04.92-.2,1.44-.71.57-.56.89-1.14.93-1.74.02-.25-.02-.44-.12-.57-.1-.13-.27-.21-.5-.23-.22-.02-.5.02-.83.11-.07.02-.26.09-.55.22-.06.03-.12.04-.17.04-.09,0-.18-.07-.26-.2-.09-.14-.12-.26-.12-.37.02-.2.26-.57.73-1.11.3-.34.66-.69,1.08-1.03-.09-.16-.14-.27-.13-.35,0-.11.09-.19.25-.22.08-.02.35-.04.83-.07.55-.03.99-.03,1.32,0,.32.03.55.07.69.12.17.06.25.19.23.37-.02.22-.14.33-.36.31-.05,0-.15-.02-.29-.04-.05,0-.1-.02-.17-.02-.23-.02-.46-.03-.69-.02-.23,0-.46.02-.68.04Z"/><path class="cls-3" d="M356.62,62.29c-.88.65-1.46,1.22-1.73,1.71.5-.16.92-.22,1.26-.19.39.03.69.17.9.42.19.24.27.53.25.88-.06.8-.51,1.58-1.34,2.34-.82.75-1.59,1.1-2.32,1.04-.42-.03-.73-.25-.93-.66-.13-.28-.18-.58-.16-.91.03-.33.12-.6.29-.81.14-.17.3-.25.49-.23.18.01.26.09.25.22,0,.03-.02.08-.06.16-.06.14-.1.33-.12.56-.02.21.02.4.1.56.11.23.28.35.51.37.44.04.92-.2,1.44-.72.58-.56.89-1.14.93-1.74.02-.25-.02-.44-.12-.57-.1-.13-.27-.21-.5-.23-.22-.02-.5.02-.83.11-.08.02-.26.09-.55.22-.06.03-.12.04-.17.04-.09,0-.18-.07-.26-.2-.09-.14-.13-.26-.12-.37.02-.2.26-.57.73-1.11.3-.34.66-.69,1.08-1.03-.09-.15-.14-.27-.13-.35,0-.11.09-.19.25-.22.08-.02.35-.04.84-.06.55-.03.99-.03,1.32,0,.32.03.55.07.69.12.17.06.25.19.24.37-.02.22-.14.33-.36.31-.05,0-.15-.02-.29-.04-.05,0-.1-.02-.17-.02-.23-.02-.46-.03-.69-.02-.23,0-.46.02-.68.04Z"/><path class="cls-3" d="M361.48,65.79c-.7.28-1.25.4-1.64.37-.38-.03-.67-.22-.86-.55-.14-.24-.2-.52-.17-.84.07-.84.5-1.61,1.31-2.32.73-.65,1.46-.94,2.17-.88.41.03.73.2.95.51.19.27.28.59.25.98-.07.84-.45,1.77-1.13,2.78-.37.55-.94,1.18-1.7,1.89-.85.8-1.39,1.2-1.64,1.18-.07,0-.13-.04-.18-.1-.04-.06-.06-.12-.06-.18,0-.12.12-.25.33-.4.97-.69,1.76-1.49,2.37-2.42ZM361.98,64.97c.4-.67.61-1.24.65-1.7.03-.33-.01-.58-.12-.76-.11-.17-.28-.27-.52-.29-.5-.04-1.01.21-1.54.75-.52.53-.8,1.08-.84,1.64-.02.25.02.45.13.58.11.14.28.21.52.23.32.03.71-.04,1.16-.2.34-.13.53-.22.56-.26Z"/><path class="cls-3" d="M366.59,66.21c-.7.28-1.25.4-1.64.37-.38-.03-.67-.22-.86-.55-.14-.24-.2-.52-.17-.84.07-.84.5-1.61,1.31-2.32.73-.65,1.46-.94,2.17-.88.41.03.73.2.95.51.19.26.28.59.25.97-.07.84-.45,1.77-1.13,2.78-.37.55-.94,1.18-1.7,1.89-.85.8-1.39,1.2-1.64,1.18-.07,0-.13-.04-.18-.1-.04-.06-.06-.12-.06-.18,0-.12.12-.25.33-.4.97-.69,1.76-1.49,2.37-2.42ZM367.09,65.38c.4-.67.61-1.24.65-1.7.03-.33-.01-.58-.12-.76-.11-.18-.28-.27-.52-.29-.5-.04-1.01.21-1.54.75-.52.53-.8,1.08-.85,1.64-.02.25.02.45.13.58.11.14.28.21.52.23.32.03.71-.04,1.16-.2.34-.13.53-.22.56-.26Z"/><path class="cls-3" d="M370.78,65.24c-.2-.23-.34-.41-.41-.55-.12-.21-.16-.44-.15-.67.04-.51.33-.91.87-1.22.46-.26.95-.37,1.47-.33.38.03.67.17.87.42.18.22.26.47.23.76-.04.43-.28.82-.72,1.15-.24.18-.57.39-1,.62.23.27.4.54.51.79s.15.5.13.73c-.04.46-.23.9-.57,1.32-.37.46-.82.81-1.36,1.07-.54.26-1.08.37-1.61.33-.46-.04-.82-.23-1.09-.59-.2-.27-.29-.55-.26-.85.06-.79.61-1.52,1.65-2.19.54-.35,1.02-.62,1.44-.8ZM371.24,65.78c-.61.25-1.13.55-1.56.89-.61.48-.93.96-.97,1.45-.02.28.05.49.21.63.17.14.35.21.55.23.27.02.57-.04.88-.18.31-.14.59-.34.82-.6.34-.37.53-.78.57-1.21.02-.3-.05-.59-.21-.86-.04-.06-.1-.14-.18-.24-.06-.07-.1-.11-.1-.11ZM371.52,64.86c.3-.14.57-.3.79-.48.28-.24.43-.47.45-.7.01-.15-.03-.27-.11-.38-.09-.12-.22-.19-.39-.21-.28-.02-.55.06-.81.24-.22.15-.34.34-.36.57-.01.16.06.37.22.63l.21.33Z"/><path class="cls-3" d="M272.54,44.81c-.27.53-.5.92-.7,1.19-.49.64-.9.98-1.25,1-.21.01-.38-.09-.5-.32-.09-.15-.13-.3-.14-.47-.02-.32.09-.8.34-1.42.22-.55.4-.98.56-1.29.11-.23.18-.38.2-.44.05-.13.1-.24.14-.31.06-.11.14-.16.25-.17.06,0,.11.02.16.06.05.06.08.12.08.2.01.22-.16.72-.51,1.5-.35.77-.52,1.28-.51,1.53,0,.16.07.23.2.22.21-.01.49-.3.85-.87.16-.25.32-.57.48-.96-.01-.12-.02-.21-.02-.28-.02-.37.03-.69.15-.96.16-.36.38-.54.68-.56.17,0,.26.09.27.29.02.33-.12.82-.43,1.47.1.01.18.02.24.02.16,0,.36-.12.61-.34.2-.18.33-.27.39-.27.05,0,.11.03.17.09.05.05.07.1.08.16,0,.18-.1.38-.33.61-.27.26-.58.41-.94.43-.14,0-.31-.02-.5-.1Z"/><path class="cls-3" d="M276.18,45.4c-.14.29-.29.54-.43.74-.29.4-.58.61-.88.62-.26.02-.48-.1-.64-.34-.1-.16-.16-.34-.17-.56-.03-.54.11-1.15.41-1.82.34-.75.76-1.33,1.28-1.75.34-.27.67-.42,1-.44.21-.01.38.04.52.16.12.11.19.23.2.37,0,.11-.03.26-.1.45.08.1.12.19.12.26,0,.1-.05.27-.18.52-.13.25-.25.57-.37.97-.13.43-.18.77-.17,1.02.01.21.08.37.21.49.04.03.14.08.31.15.12.05.19.15.2.3,0,.09-.02.17-.09.23-.07.07-.15.1-.25.11-.26.01-.5-.09-.7-.31-.17-.18-.26-.42-.27-.7,0-.1,0-.26,0-.48ZM276.96,42.94c-.06-.1-.13-.18-.2-.23-.07-.05-.15-.07-.22-.06-.37.02-.75.37-1.15,1.04-.44.74-.64,1.36-.61,1.86,0,.12.04.21.08.27s.12.09.21.08c.23-.01.49-.28.78-.79.16-.28.35-.7.58-1.24.15-.36.26-.59.33-.71.04-.06.1-.14.2-.22Z"/><path class="cls-3" d="M279.04,44.01c-.12.39-.22.7-.28.94-.06.24-.09.4-.08.5,0,.12.07.18.19.17.18,0,.39-.19.65-.54.12-.17.3-.47.54-.9.09-.17.2-.26.31-.27.13,0,.19.05.2.17.01.21-.21.65-.65,1.31-.46.7-.91,1.06-1.34,1.08-.19.01-.34-.06-.47-.21-.09-.11-.14-.24-.15-.4-.02-.27.05-.66.18-1.15.14-.49.35-1.09.64-1.8.74-1.81,1.51-3.31,2.32-4.5.64-.96,1.2-1.45,1.65-1.47.15,0,.27.04.37.15.1.11.16.23.17.38.04.68-.51,1.85-1.63,3.51-.51.74-1.12,1.48-1.84,2.23-.19.2-.45.46-.78.79ZM279.49,42.82c.96-.93,1.81-2.07,2.53-3.45.38-.71.56-1.18.54-1.4,0-.11-.06-.16-.15-.15-.27.02-.72.58-1.37,1.68-.54.91-1.05,2.02-1.56,3.32Z"/><path class="cls-3" d="M283.17,45.09c-.19.3-.37.55-.52.73-.27.33-.54.5-.81.52-.24.01-.43-.08-.57-.29-.1-.15-.16-.32-.17-.53-.04-.63.19-1.37.68-2.21.23-.39.46-.7.69-.91.18-.17.33-.26.45-.27.07,0,.13.02.2.08.05.05.08.1.08.16,0,.09-.08.25-.25.47-.38.51-.66.97-.84,1.38-.22.49-.32.86-.3,1.13,0,.07.02.12.06.15.03.03.08.05.14.05.25-.01.57-.39.98-1.13.21-.38.38-.8.52-1.26.07-.25.18-.47.31-.67.13-.18.26-.27.39-.28.07,0,.14.02.2.08.07.06.1.14.11.22,0,.18-.14.58-.44,1.21-.2.44-.3.8-.28,1.08.02.3.11.56.29.76.05.06.19.14.42.25.11.06.17.16.18.3,0,.09-.03.17-.1.23-.07.07-.16.1-.27.11-.24.01-.47-.07-.68-.25-.19-.17-.32-.41-.39-.74-.01-.04-.03-.17-.06-.38Z"/><path class="cls-3" d="M285.58,44.66v.13c.01.11.05.2.1.27.13.17.34.25.62.24.61-.03,1.29-.54,2.03-1.52.13-.17.25-.26.34-.26.05,0,.1.02.15.07.03.04.05.07.05.11.01.19-.2.52-.65,1.01-.35.38-.72.69-1.12.94-.4.25-.78.38-1.14.4-.37.02-.66-.09-.88-.33-.15-.17-.24-.4-.25-.7-.05-.82.29-1.65,1.03-2.49.59-.68,1.12-1.03,1.59-1.06.13,0,.24.03.35.1.13.1.2.23.21.39.01.26-.09.58-.3.97-.45.81-1.16,1.39-2.13,1.74ZM285.71,44.08c.33-.14.59-.28.78-.44.33-.28.58-.6.76-.94.07-.12.1-.23.09-.32,0-.1-.05-.14-.15-.14-.13,0-.3.11-.53.32-.4.36-.72.87-.96,1.52Z"/><path class="cls-3" d="M289.85,45.29c.11,0,.2.04.28.13.05.06.08.14.09.24.01.23-.04.47-.15.73-.12.28-.28.42-.5.43-.22.01-.34-.11-.36-.36-.01-.25.05-.52.19-.79.13-.25.28-.37.45-.38ZM291.09,41.57c.11,0,.2.04.28.13.05.06.08.14.09.24.01.23-.04.47-.15.73-.12.28-.29.43-.5.44-.22.01-.34-.11-.36-.36s.05-.52.19-.79c.12-.25.27-.37.45-.38Z"/><path class="cls-3" d="M46.34,179.48c-.34.26-.68.48-1.03.66-.46.25-.77.37-.92.37-.16,0-.23-.12-.23-.37,0-.09.02-.16.06-.23.04-.06.13-.11.28-.17.44-.19,1.08-.54,1.92-1.07.38-.24.65-.36.81-.36.1,0,.2.05.28.15.05.07.08.14.08.22,0,.12-.09.33-.29.62-1.41,2.29-2.39,4.08-2.93,5.38-.13.32-.23.52-.29.59-.09.13-.19.2-.28.2s-.18-.06-.26-.17c-.05-.06-.07-.13-.07-.21,0-.26.38-1.13,1.13-2.61.7-1.39,1.28-2.4,1.74-3.02Z"/><path class="cls-3" d="M47.97,184.75c.82-.26,1.58-.39,2.26-.39.27,0,.49.06.65.17.15.1.22.22.22.36,0,.09-.03.18-.1.25s-.15.11-.23.11c-.03,0-.07,0-.13-.02-.25-.07-.48-.1-.69-.1-.18,0-.4.02-.67.05-.09.01-.43.1-1.02.26-.53.14-.84.21-.94.21-.14,0-.26-.07-.36-.2-.09-.12-.14-.25-.14-.38,0-.15.13-.34.38-.59.48-.47.94-.89,1.38-1.27.42-.35.94-.76,1.56-1.22.71-.52,1.2-.9,1.46-1.14.4-.35.6-.7.6-1.05,0-.2-.06-.35-.19-.46-.11-.1-.25-.15-.42-.15-.44,0-.96.25-1.55.74-.27.22-.44.34-.51.34-.05,0-.1-.03-.17-.09-.07-.06-.1-.13-.1-.21,0-.18.21-.42.64-.75.68-.52,1.34-.78,1.96-.78.36,0,.65.11.89.34.23.22.34.49.34.8,0,.55-.28,1.09-.83,1.63-.24.23-.68.59-1.32,1.05-1.54,1.12-2.53,1.95-2.97,2.48Z"/><path class="cls-3" d="M57.53,179.18c-1.31.29-2.24.43-2.77.43-.36,0-.53-.12-.53-.35,0-.12.04-.22.12-.3s.17-.12.27-.12c.04,0,.11,0,.21.01.06,0,.14.01.22.01.3,0,.7-.04,1.2-.12.63-.1,1.1-.19,1.4-.27.17-.04.31-.07.42-.07.26,0,.4.14.4.42,0,.19-.11.41-.34.64-1.68,1.8-3,3.57-3.95,5.32-.23.42-.38.67-.44.75-.12.14-.24.21-.37.21-.07,0-.14-.03-.19-.08-.07-.06-.1-.13-.1-.21,0-.25.24-.76.71-1.54.62-1.02,1.38-2.06,2.26-3.11.53-.63,1.02-1.18,1.49-1.63Z"/><path class="cls-3" d="M46.94,230.94c.73-.27,1.26-.4,1.6-.4.4,0,.7.11.89.34.17.2.26.46.26.78,0,.83-.37,1.64-1.11,2.44-.68.74-1.38,1.11-2.09,1.11-.45,0-.81-.2-1.09-.59-.21-.3-.32-.65-.32-1.05,0-.87.34-1.77,1.01-2.69.58-.8,1.41-1.54,2.49-2.21.32-.21.56-.35.72-.42.15-.07.28-.11.4-.11.19,0,.28.08.28.24,0,.15-.1.27-.29.38-1.02.54-1.93,1.27-2.74,2.18ZM46.34,231.84c-.3.49-.45.98-.45,1.46,0,.32.07.59.22.82.15.23.35.35.59.35.34,0,.69-.16,1.05-.48s.65-.76.87-1.3c.14-.34.21-.64.21-.89,0-.19-.06-.33-.17-.45-.12-.13-.28-.19-.48-.19-.33,0-.73.11-1.2.33-.13.05-.27.13-.43.23-.12.07-.19.12-.2.13Z"/><path class="cls-3" d="M53.83,230.71c.24.1.42.22.52.34.15.18.23.43.23.75,0,.8-.33,1.56-1,2.29s-1.36,1.1-2.07,1.1c-.43,0-.79-.18-1.06-.54-.2-.26-.29-.55-.29-.86,0-.52.2-.78.6-.78.24,0,.36.09.36.27,0,.04,0,.09-.01.15-.01.08-.02.17-.02.25,0,.23.06.41.17.53.13.13.28.2.45.2.42,0,.86-.29,1.34-.87.45-.56.68-1.09.68-1.59,0-.25-.06-.45-.18-.6-.13-.16-.32-.23-.55-.23-.09,0-.19.01-.28.04-.11.03-.2.05-.26.05-.14,0-.21-.1-.21-.29,0-.17.06-.3.17-.41.06-.06.2-.12.4-.18.41-.1.75-.24,1.03-.42.18-.12.32-.27.43-.47.05-.1.08-.21.08-.32,0-.14-.04-.25-.11-.31-.08-.07-.19-.1-.35-.1-.26,0-.54.07-.82.21-.07.03-.25.13-.52.3-.07.05-.15.07-.24.07-.17,0-.25-.09-.25-.27,0-.16.12-.33.37-.51.57-.41,1.13-.61,1.68-.61.33,0,.6.1.83.3.24.21.36.47.36.77,0,.4-.17.77-.51,1.11-.19.2-.5.4-.95.62Z"/><polyline class="cls-1" points="61.95 205.29 107.85 193.43 154.25 241.06 200.65 124.16 247.06 149.95 293.46 185.34 339.86 177.62 386.55 162.23"/><path class="cls-3" d="M298.73,256.51c.38-.02.59.17.61.57.02.36-.1.72-.35,1.1-.2.29-.38.43-.54.44-.14,0-.21-.07-.22-.22,0-.08.01-.15.05-.2.01-.02.07-.08.17-.18.08-.09.17-.22.25-.39.06-.12.08-.21.08-.28,0-.08-.05-.11-.14-.11-.1,0-.25.1-.45.27-.32.28-.63.7-.93,1.27-.31.6-.45,1.06-.43,1.39,0,.11.04.2.11.28.1.12.23.18.38.17.31-.02.66-.23,1.06-.63.34-.35.62-.69.84-1.03.12-.19.22-.28.31-.29.05,0,.1.02.15.06.04.05.06.09.07.14.01.18-.2.54-.63,1.09-.69.86-1.33,1.31-1.93,1.34-.36.02-.64-.09-.85-.34-.15-.18-.23-.4-.24-.66-.03-.51.15-1.11.53-1.8.37-.66.81-1.2,1.32-1.62.3-.24.57-.37.8-.38Z"/><path class="cls-3" d="M302.98,256.09c.4-.02.61.21.64.7.04.65-.22,1.49-.76,2.52-.59,1.11-1.19,1.69-1.8,1.72-.28.02-.5-.1-.64-.36-.08-.13-.12-.28-.13-.47-.04-.62.14-1.31.53-2.07.36-.7.8-1.25,1.32-1.66.3-.24.58-.36.84-.38ZM302.38,258.89c-.13-.09-.19-.16-.2-.22,0-.04.07-.15.22-.33.41-.52.61-.93.59-1.23,0-.04-.02-.08-.04-.12-.04-.07-.11-.1-.19-.1-.16,0-.38.17-.66.49-.37.41-.64.83-.82,1.26-.21.49-.31.89-.29,1.2,0,.08.03.16.08.22.07.08.15.12.25.12.23-.01.48-.2.72-.57.11-.15.2-.31.26-.47.06-.16.09-.24.09-.25Z"/><path class="cls-3" d="M305.02,258.26c.38-.45.73-.81,1.03-1.07.45-.39.76-.59.92-.6.08,0,.15.02.21.08.06.05.09.11.09.17,0,.09-.07.25-.23.47-.24.35-.41.64-.5.88,1.08-1.21,1.82-1.83,2.24-1.85.09,0,.16.02.23.07.07.05.11.13.12.21,0,.14-.09.32-.28.54-.87,1-1.28,1.81-1.25,2.42.01.25.07.42.16.53l.2.23s.06.1.07.17c0,.08-.02.15-.08.22-.07.08-.15.13-.24.13-.16,0-.32-.08-.46-.28-.18-.23-.28-.52-.3-.85-.03-.44.08-.9.3-1.37.08-.17.21-.39.4-.67-.4.34-.79.79-1.19,1.36-.27.39-.51.82-.72,1.29-.1.23-.23.34-.38.35-.17,0-.25-.08-.26-.26-.01-.2.1-.62.34-1.26.14-.37.31-.75.51-1.16-.8.69-1.37,1.6-1.73,2.73-.09.25-.22.38-.39.39-.08,0-.14-.02-.2-.08-.06-.06-.09-.12-.09-.21-.02-.29.12-.82.39-1.58.29-.81.63-1.55,1.02-2.21.27-.46.48-.69.64-.7.15,0,.22.07.23.22,0,.07-.08.24-.24.53-.29.53-.48.92-.56,1.18Z"/><path class="cls-3" d="M311.1,256.46c.19-.14.34-.23.43-.29.19-.11.39-.17.58-.18.21-.01.38.04.49.16s.18.3.19.55c.02.34-.08.76-.29,1.25-.33.78-.74,1.4-1.24,1.86-.42.39-.83.6-1.22.62-.21.01-.43-.06-.65-.21-.59,1.39-1.11,2.8-1.56,4.23-.09.34-.22.52-.37.53-.07,0-.15-.04-.23-.13-.06-.07-.09-.14-.09-.22-.02-.26.26-1.14.82-2.62.87-2.29,1.7-4.2,2.51-5.73.17-.32.28-.54.34-.66.15-.33.31-.49.47-.5.17,0,.25.09.27.29,0,.11-.04.27-.15.46-.13.25-.23.45-.3.6ZM309.63,259.59c.11.11.25.15.41.15.45-.03.93-.46,1.44-1.29.19-.31.33-.62.44-.94.08-.25.12-.44.11-.57,0-.09-.03-.15-.07-.19-.04-.04-.11-.06-.2-.05-.23.01-.5.19-.81.52-.3.33-.58.77-.84,1.35-.24.53-.4.87-.48,1.04Z"/><path class="cls-3" d="M314.36,257.76c.45-.54.97-1.07,1.57-1.59.21-.19.44-.37.69-.53.12-.08.2-.12.24-.12.07,0,.15.04.23.15.05.06.07.11.08.16,0,.09-.08.21-.26.37-.47.42-.71.73-.7.93,0,.11.07.17.2.16.21-.01.56-.21,1.05-.58.08-.06.16-.1.21-.1.04,0,.08.02.12.05.05.04.07.09.07.13,0,.15-.18.38-.58.71-.41.35-.81.53-1.19.55-.16,0-.3-.02-.44-.1-.12-.06-.18-.18-.19-.36,0-.12.04-.26.13-.43-.37.29-.8.79-1.28,1.48-.28.43-.55.95-.81,1.56-.1.23-.23.35-.4.36-.18.01-.28-.07-.29-.24,0-.17.11-.62.35-1.35.36-1.1.75-1.95,1.17-2.57.26-.38.49-.58.68-.59.06,0,.12.01.18.05.07.04.1.1.11.18s-.04.18-.13.32c-.02.03-.14.2-.36.51-.2.3-.36.6-.46.88Z"/><path class="cls-3" d="M318.24,258.54v.13c.01.11.05.2.1.27.13.17.34.25.62.24.61-.03,1.29-.54,2.03-1.52.13-.17.25-.26.34-.26.05,0,.1.02.15.07.03.04.05.07.05.11.01.19-.21.52-.65,1.01-.34.38-.72.69-1.12.94s-.78.38-1.14.4c-.37.02-.66-.09-.88-.33-.15-.17-.24-.4-.25-.7-.05-.82.29-1.65,1.02-2.49.59-.68,1.12-1.03,1.59-1.06.13,0,.24.02.35.1.13.1.2.23.21.39.01.26-.09.58-.3.97-.45.81-1.16,1.39-2.13,1.74ZM318.37,257.96c.33-.14.59-.28.78-.44.33-.28.58-.6.76-.94.07-.12.1-.23.09-.32,0-.1-.05-.14-.15-.14-.13,0-.3.11-.52.32-.4.36-.72.87-.96,1.52Z"/><path class="cls-3" d="M324.94,254.7c.3-.02.53.02.69.12.16.1.24.26.25.48.02.29-.07.57-.27.85-.19.27-.49.49-.89.67-.22.1-.41.15-.56.16-.2.01-.31-.07-.32-.25,0-.12.05-.22.16-.29.03-.02.19-.07.49-.15.18-.05.34-.14.48-.28.12-.12.18-.25.18-.38,0-.1-.04-.18-.1-.22-.06-.04-.15-.06-.27-.06-.28.02-.59.15-.92.4-.38.28-.56.6-.54.96.01.25.16.56.44.93.31.4.47.74.49,1.03.02.43-.15.78-.51,1.04-.23.16-.49.26-.78.27-.47.03-.83-.12-1.1-.44-.18-.23-.29-.51-.3-.83-.02-.38.06-.7.24-.97.12-.18.24-.27.38-.28.12,0,.19.04.19.14,0,.04-.02.1-.06.18-.1.22-.14.47-.13.75.01.24.11.44.29.59.16.14.34.2.53.19.19-.01.33-.08.44-.22.08-.11.12-.25.11-.42-.01-.2-.14-.46-.4-.78-.35-.43-.53-.83-.55-1.19-.03-.49.21-.93.72-1.34.5-.39,1.03-.6,1.61-.63Z"/><path class="cls-3" d="M328.75,254.48c.3-.02.53.02.69.12.16.1.24.26.25.48.02.29-.08.57-.27.85-.19.27-.49.49-.89.67-.22.1-.41.15-.56.16-.21.01-.31-.07-.32-.25,0-.12.05-.22.16-.29.03-.02.19-.07.49-.15.18-.05.34-.14.48-.28.12-.12.18-.25.18-.38,0-.1-.04-.18-.1-.22-.06-.04-.15-.06-.27-.06-.28.02-.59.15-.92.4-.38.28-.56.6-.54.96.01.25.16.56.44.93.31.4.48.74.49,1.03.02.43-.15.78-.51,1.04-.23.16-.49.26-.78.27-.47.03-.83-.12-1.1-.44-.18-.23-.29-.51-.3-.83-.02-.38.06-.7.24-.97.12-.18.24-.27.38-.28.12,0,.19.04.19.14,0,.04-.02.1-.06.18-.1.22-.14.47-.13.75.01.24.11.44.29.59.16.14.34.2.53.19.19-.01.34-.08.44-.21.08-.11.12-.25.11-.42-.01-.2-.14-.46-.4-.78-.35-.43-.53-.83-.55-1.19-.03-.49.21-.93.72-1.34.5-.39,1.03-.6,1.61-.63Z"/><path class="cls-3" d="M331.56,257.98c-.14.29-.29.54-.43.74-.29.4-.58.61-.88.62-.26.02-.48-.1-.64-.34-.1-.16-.16-.34-.17-.56-.03-.54.11-1.15.41-1.82.34-.75.77-1.33,1.28-1.75.34-.27.67-.42.99-.44.21-.01.38.04.52.16.12.1.19.23.2.37,0,.11-.03.26-.1.45.08.1.12.19.12.26,0,.1-.05.27-.18.52-.13.25-.25.57-.37.97-.13.43-.18.77-.17,1.02.01.2.08.37.21.49.04.03.14.08.31.15.12.05.19.15.2.3,0,.09-.02.17-.09.23-.07.07-.15.1-.25.11-.26.01-.5-.09-.7-.31-.17-.18-.26-.42-.27-.7,0-.1,0-.26,0-.48ZM332.33,255.52c-.06-.1-.13-.18-.2-.23-.07-.05-.15-.07-.22-.06-.37.02-.75.37-1.15,1.04-.44.74-.64,1.36-.61,1.86,0,.12.04.21.08.27.05.06.12.09.21.08.23-.01.49-.28.78-.79.16-.28.35-.7.58-1.24.15-.36.26-.59.33-.71.04-.06.1-.14.2-.22Z"/><path class="cls-3" d="M335.23,255.13c.39-.37.76-.57,1.09-.59.21-.01.38.06.52.23.13.14.2.32.21.52.02.38-.08.85-.29,1.4-.24.62-.61,1.2-1.11,1.74-.41.45-.81.69-1.21.71-.15,0-.28-.01-.4-.06-.12-.05-.23-.12-.33-.22-.04.07-.06.12-.07.14-.07.18-.12.3-.15.34-.03.04-.08.06-.15.07-.09,0-.17-.04-.26-.14-.06-.07-.09-.14-.09-.21,0-.14.23-.84.72-2.12.69-1.78,1.5-3.56,2.43-5.33.38-.73.61-1.15.7-1.28.09-.15.19-.23.27-.24.11,0,.21.04.29.14.06.07.09.14.09.24,0,.1-.03.23-.12.4-.02.04-.16.29-.42.78-.8,1.42-1.38,2.58-1.74,3.49ZM334.18,258.37c.08.04.16.06.24.06.42-.02.85-.42,1.28-1.18.2-.34.36-.68.46-1.02.1-.3.14-.52.13-.66,0-.1-.03-.17-.08-.21-.05-.04-.12-.06-.21-.06-.22.01-.49.18-.79.51-.3.32-.59.77-.86,1.36-.13.28-.24.54-.34.79l-.08.2c.08.09.16.16.24.21Z"/><path class="cls-3" d="M338.58,256.36c-.12.39-.22.7-.28.94-.06.24-.09.4-.08.5,0,.12.07.18.19.17.18-.01.39-.19.65-.54.12-.17.3-.47.54-.9.09-.17.2-.26.31-.27.13,0,.19.05.2.17.01.21-.21.65-.65,1.31-.46.7-.91,1.06-1.34,1.08-.19.01-.34-.06-.47-.21-.09-.11-.14-.24-.15-.4-.02-.27.05-.66.18-1.15.14-.49.35-1.09.64-1.8.74-1.81,1.51-3.31,2.32-4.5.64-.96,1.2-1.45,1.65-1.47.15,0,.27.04.37.15.1.11.16.23.17.38.04.68-.51,1.85-1.63,3.51-.51.74-1.12,1.48-1.84,2.23-.19.2-.45.46-.78.79ZM339.03,255.16c.96-.93,1.81-2.07,2.53-3.45.38-.71.56-1.18.54-1.4,0-.11-.06-.16-.15-.15-.27.02-.72.58-1.37,1.69-.54.91-1.05,2.02-1.56,3.32Z"/><path class="cls-3" d="M341.23,257.23v.13c.01.11.05.2.1.27.13.17.34.25.62.24.61-.03,1.29-.54,2.03-1.52.13-.17.25-.26.34-.26.05,0,.1.02.15.07.03.04.05.07.05.11.01.19-.21.52-.65,1-.35.38-.72.69-1.12.94-.4.25-.78.38-1.14.4-.37.02-.66-.09-.88-.33-.15-.17-.24-.4-.25-.7-.05-.82.29-1.65,1.03-2.49.59-.68,1.12-1.03,1.59-1.06.13,0,.24.02.35.1.13.1.2.23.21.39.01.26-.09.58-.3.97-.45.81-1.16,1.39-2.13,1.74ZM341.35,256.65c.33-.14.6-.28.78-.44.33-.28.58-.6.76-.94.07-.12.1-.23.09-.32,0-.1-.05-.14-.15-.14-.13,0-.3.11-.52.32-.4.36-.72.87-.96,1.52Z"/><path class="cls-1" d="M115.29,121.98c-1.46-6.41,4.38-18.91.21-33.35"/><path class="cls-3" d="M119.32,91.85c-.11.12-.3.13-.42.02l-3.39-3.1-1.38,4.38c-.05.16-.22.25-.38.2-.16-.05-.25-.22-.2-.38l1.52-4.83c.03-.1.11-.17.21-.2.1-.03.2,0,.28.07l3.73,3.42s.07.09.09.14c.03.1,0,.2-.07.28Z"/><path class="cls-1" d="M113.19,135.08c-1.45,16.36,4.57,30.83,3.88,44.91"/><path class="cls-3" d="M114.32,175.79c.14-.08.33-.04.41.11l2.33,3.96,2.6-3.78c.09-.14.28-.17.42-.08.14.09.17.28.08.42l-2.87,4.17c-.06.08-.16.13-.26.13s-.2-.06-.25-.15l-2.56-4.36c-.03-.05-.04-.11-.04-.16,0-.1.06-.19.15-.25Z"/><path class="cls-3" d="M210.71,205.29c.07-.05.13-.11.2-.16,1.1-.91,1.82-1.35,2.16-1.33.19.02.28.13.26.34-.01.15-.11.31-.3.5-1.02,1.01-1.56,1.93-1.62,2.76-.02.27.03.53.16.78.06.12.09.21.08.27,0,.06-.04.11-.1.16-.07.06-.15.09-.23.08-.2-.02-.36-.16-.47-.42-.11-.25-.15-.54-.13-.88.05-.66.36-1.37.92-2.12-.7.37-1.37,1.07-2.03,2.1-.17.25-.33.36-.5.35-.08,0-.15-.04-.2-.1-.06-.07-.09-.16-.08-.27.02-.26.38-.93,1.06-1.99.37-.58.66-1,.86-1.25.21-.25.38-.37.51-.36.06,0,.12.04.17.1.06.07.09.15.08.24,0,.11-.09.25-.25.44-.23.28-.42.54-.56.77Z"/><path class="cls-3" d="M213.69,206.64v.13c-.02.11,0,.2.05.28.11.19.3.3.58.32.61.05,1.35-.36,2.22-1.23.15-.15.28-.22.38-.21.05,0,.1.04.14.09.03.04.04.08.03.11-.02.19-.27.49-.78.91-.39.33-.81.58-1.24.77-.43.19-.83.27-1.18.24-.37-.03-.64-.18-.83-.45-.13-.19-.18-.43-.15-.73.07-.82.52-1.6,1.36-2.32.68-.59,1.25-.87,1.72-.83.13,0,.24.06.33.14.12.11.17.25.16.42-.02.26-.17.56-.43.92-.55.74-1.34,1.22-2.35,1.44ZM213.9,206.08c.35-.09.63-.2.83-.33.36-.24.66-.51.88-.83.08-.11.13-.21.13-.31,0-.1-.03-.15-.13-.16-.13,0-.31.07-.56.24-.45.3-.83.76-1.16,1.38Z"/><path class="cls-3" d="M219.24,207.37c-.23.27-.44.49-.61.66-.31.29-.6.42-.88.4-.24-.02-.42-.14-.53-.37-.08-.16-.11-.34-.1-.55.05-.63.38-1.33.98-2.1.28-.36.55-.63.81-.81.2-.15.37-.21.49-.2.07,0,.13.04.18.1.04.06.06.11.06.17,0,.09-.11.24-.31.43-.44.45-.78.87-1.03,1.25-.28.45-.43.81-.45,1.08,0,.07,0,.12.03.16.03.04.07.06.13.07.25.02.62-.31,1.12-.98.26-.35.49-.75.69-1.18.11-.24.24-.44.4-.62.15-.16.29-.23.42-.22.07,0,.14.04.19.11.06.07.08.15.08.23-.01.17-.21.56-.6,1.14-.26.41-.41.75-.43,1.03-.02.3.04.57.18.79.04.06.17.17.38.31.1.07.15.18.14.32,0,.09-.05.16-.13.22-.08.06-.17.08-.28.07-.24-.02-.46-.13-.64-.35-.17-.19-.26-.45-.28-.79,0-.04,0-.17,0-.38Z"/><path class="cls-3" d="M224.04,204.15c-.36.47-.69.99-1.01,1.58-.45.84-.7,1.47-.73,1.9,0,.12,0,.22.05.28s.12.11.22.11c.24.02.56-.19.94-.62.24-.26.46-.53.65-.8.11-.15.21-.23.32-.22.06,0,.11.03.16.08.04.05.05.09.05.14-.01.18-.28.56-.8,1.15-.62.7-1.17,1.04-1.64,1-.25-.02-.45-.15-.59-.39-.09-.15-.12-.37-.1-.63.05-.59.27-1.26.68-2.02.1-.19.36-.64.8-1.35-.13.02-.24.03-.3.03-.1,0-.19-.04-.26-.09-.1-.08-.15-.17-.14-.27,0-.12.09-.21.24-.28.04-.02.22-.03.55-.05.12,0,.29-.04.52-.1.2-.29.51-.69.93-1.18.24-.27.4-.45.49-.53.13-.11.23-.17.32-.16.06,0,.12.04.18.12.05.07.08.13.07.2-.01.13-.17.37-.47.72-.2.23-.35.42-.45.56.55-.1.94-.14,1.18-.13.27.02.39.14.37.37,0,.11-.06.19-.16.24-.05.03-.18.04-.38.04-.08-.01-.46.05-1.12.19-.18.04-.37.08-.55.12Z"/><path class="cls-3" d="M226.17,206.64c.52-.47,1.11-.93,1.77-1.36.24-.16.49-.3.75-.43.13-.06.22-.09.25-.09.07,0,.14.07.21.18.04.06.06.12.05.17,0,.09-.11.2-.31.34-.53.35-.8.63-.82.83,0,.11.05.17.18.18.21.02.58-.13,1.12-.43.09-.05.17-.07.23-.07.04,0,.08.03.11.07.04.05.06.1.05.14-.01.15-.23.35-.67.62-.45.29-.87.42-1.26.38-.16-.01-.3-.07-.42-.16-.11-.08-.15-.2-.14-.38,0-.12.07-.26.19-.4-.41.24-.9.67-1.47,1.29-.33.38-.67.86-1.02,1.44-.13.21-.28.32-.44.3-.18-.01-.26-.11-.25-.28.01-.17.19-.6.53-1.29.5-1.04,1.01-1.83,1.51-2.38.31-.34.56-.51.75-.49.06,0,.12.03.17.07.06.05.09.12.08.19s-.06.17-.17.29c-.02.02-.16.18-.43.46-.24.27-.43.54-.57.81Z"/><path class="cls-3" d="M231.46,208.27c-.18.27-.36.5-.53.68-.34.36-.66.52-.96.5-.26-.02-.46-.16-.58-.42-.08-.17-.11-.36-.09-.58.04-.54.26-1.12.66-1.75.44-.69.94-1.21,1.51-1.56.37-.22.72-.32,1.04-.3.21.02.37.09.5.23.11.12.16.25.14.39,0,.11-.06.25-.16.44.07.11.09.2.09.28,0,.1-.09.26-.24.49-.16.23-.33.53-.5.92-.18.41-.29.74-.31.99-.02.21.03.38.14.52.03.04.13.1.29.19.12.07.17.17.16.32,0,.09-.05.17-.12.22-.08.06-.17.08-.26.07-.26-.02-.48-.16-.65-.4-.14-.2-.2-.45-.18-.73,0-.1.03-.26.07-.48ZM232.56,205.94c-.05-.11-.11-.2-.17-.25-.06-.06-.13-.09-.21-.09-.37-.03-.8.26-1.28.87-.53.68-.82,1.26-.86,1.76,0,.12,0,.22.05.28.04.07.11.11.2.11.23.02.53-.21.88-.68.2-.26.45-.64.75-1.15.2-.33.34-.55.43-.66.04-.06.12-.12.23-.2Z"/><path class="cls-3" d="M234.48,207.28c-.18.37-.31.67-.4.89-.09.23-.14.39-.15.48,0,.12.04.19.16.2.17.01.42-.13.72-.44.14-.15.36-.42.65-.82.12-.16.23-.23.34-.22.13,0,.18.08.17.2-.02.21-.29.61-.83,1.21-.55.63-1.05.92-1.47.89-.18-.01-.33-.1-.43-.27-.07-.12-.1-.26-.09-.42.02-.27.14-.64.34-1.11.2-.47.5-1.03.88-1.7.98-1.69,1.95-3.07,2.91-4.14.77-.86,1.38-1.27,1.84-1.23.15.01.26.08.34.2.09.12.13.25.12.4-.05.68-.75,1.77-2.1,3.26-.6.66-1.31,1.32-2.13,1.96-.21.17-.51.4-.88.68ZM235.09,206.16c1.08-.79,2.08-1.81,2.98-3.07.47-.65.71-1.09.73-1.32,0-.11-.03-.17-.13-.17-.27-.02-.8.47-1.59,1.48-.65.83-1.32,1.85-2,3.07Z"/><path class="cls-1" d="M220.67,201.09c-1.45-6.36,1.45-5.65.8-15.33"/><path class="cls-3" d="M224.5,189.73c-.14.1-.32.06-.42-.07l-2.63-3.76-2.29,3.98c-.08.14-.27.19-.41.11-.14-.08-.19-.27-.11-.41l2.53-4.38c.05-.09.14-.15.25-.15s.2.04.26.13l2.9,4.15s.05.1.05.16c0,.1-.04.2-.13.26Z"/><path class="cls-1" d="M219.9,214.2c-1.82,6.36,1.43,8.05,1.52,15.58"/><path class="cls-3" d="M218.35,225.79c.14-.09.32-.06.42.08l2.61,3.77,2.31-3.96c.08-.14.27-.19.41-.11.14.08.19.27.11.41l-2.55,4.37c-.05.09-.15.14-.25.15-.1,0-.2-.04-.26-.13l-2.88-4.16s-.05-.1-.05-.16c0-.1.04-.2.13-.26Z"/><path class="cls-1" d="M319.11,251.96c-1.45-6.36-.07-7.62-.79-17.41"/><path class="cls-3" d="M321.35,238.52c-.14.1-.32.06-.42-.07l-2.63-3.76-2.29,3.98c-.08.14-.27.19-.41.11-.14-.08-.19-.27-.11-.41l2.53-4.38c.05-.09.14-.15.25-.15.1,0,.2.04.26.13l2.9,4.14s.05.1.05.16c0,.1-.04.2-.13.26Z"/><path class="cls-1" d="M319.73,262.99c2.81,6.27.18,8.58,1.39,15.59"/><path class="cls-3" d="M317.7,274.93c.13-.11.31-.09.42.03l3,3.47,1.88-4.19c.07-.15.25-.22.4-.15.15.07.22.25.15.4l-2.07,4.62c-.04.09-.13.16-.23.17s-.2-.02-.27-.1l-3.31-3.83s-.06-.1-.07-.15c-.01-.1.02-.2.1-.27Z"/><path class="cls-3" d="M51.79,277.46c.26.1.46.27.59.49.13.23.19.52.19.87,0,1.09-.42,2.25-1.27,3.47-.92,1.33-1.81,2-2.65,2-.42,0-.74-.22-.95-.65-.14-.28-.21-.62-.21-1.03,0-.97.35-1.99,1.06-3.06.37-.55.86-1.12,1.49-1.71.65-.61,1.13-.91,1.41-.91.22,0,.33.17.33.52ZM50.84,277.99c-.57.47-1.08,1.04-1.52,1.71-.63.97-.95,1.9-.95,2.81,0,.27.04.48.11.63.12.23.29.35.5.35.34,0,.74-.26,1.21-.78.52-.58.93-1.28,1.23-2.11.23-.63.34-1.16.34-1.6,0-.3-.09-.56-.28-.78-.13-.15-.29-.23-.5-.24h-.15Z"/></svg>