<?xml version="1.0" encoding="UTF-8"?><svg id="Layer_1" xmlns="http://www.w3.org/2000/svg" viewBox="0 0 212.05 171.35"><defs><style>.cls-1{fill:#4d4d4d;}.cls-2{fill:none;stroke:#999;stroke-linecap:round;stroke-miterlimit:10;}.cls-3{fill:#999;}.cls-4{fill:#ccc;}</style></defs><path class="cls-4" d="M197.93,126.71c.28,0,.5-.22.5-.5s-.22-.5-.5-.5h-12c-.28,0-.5.22-.5.5s.22.5.5.5h12M173.93,126.71c.28,0,.5-.22.5-.5s-.22-.5-.5-.5h-12c-.28,0-.5.22-.5.5s.22.5.5.5h12M149.93,126.71c.28,0,.5-.22.5-.5s-.22-.5-.5-.5h-12c-.28,0-.5.22-.5.5s.22.5.5.5h12M125.93,126.71c.28,0,.5-.22.5-.5s-.22-.5-.5-.5h-12c-.28,0-.5.22-.5.5s.22.5.5.5h12M101.93,126.71c.28,0,.5-.22.5-.5s-.22-.5-.5-.5h-12c-.28,0-.5.22-.5.5s.22.5.5.5h12M77.93,126.71c.28,0,.5-.22.5-.5s-.22-.5-.5-.5h-12c-.28,0-.5.22-.5.5s.22.5.5.5h12M53.93,126.71c.28,0,.5-.22.5-.5s-.22-.5-.5-.5h-12c-.28,0-.5.22-.5.5s.22.5.5.5h12M29.93,126.71c.28,0,.5-.22.5-.5s-.22-.5-.5-.5h-12c-.28,0-.5.22-.5.5s.22.5.5.5h12"/><path class="cls-4" d="M197.93,90.14c.28,0,.5-.22.5-.5s-.22-.5-.5-.5h-12c-.28,0-.5.22-.5.5s.22.5.5.5h12M173.93,90.14c.28,0,.5-.22.5-.5s-.22-.5-.5-.5h-12c-.28,0-.5.22-.5.5s.22.5.5.5h12M149.93,90.14c.28,0,.5-.22.5-.5s-.22-.5-.5-.5h-12c-.28,0-.5.22-.5.5s.22.5.5.5h12M125.93,90.14c.28,0,.5-.22.5-.5s-.22-.5-.5-.5h-12c-.28,0-.5.22-.5.5s.22.5.5.5h12M101.93,90.14c.28,0,.5-.22.5-.5s-.22-.5-.5-.5h-12c-.28,0-.5.22-.5.5s.22.5.5.5h12M77.93,90.14c.28,0,.5-.22.5-.5s-.22-.5-.5-.5h-12c-.28,0-.5.22-.5.5s.22.5.5.5h12M53.93,90.14c.28,0,.5-.22.5-.5s-.22-.5-.5-.5h-12c-.28,0-.5.22-.5.5s.22.5.5.5h12M29.93,90.14c.28,0,.5-.22.5-.5s-.22-.5-.5-.5h-12c-.28,0-.5.22-.5.5s.22.5.5.5h12"/><path class="cls-1" d="M121.45,72.79c-.1.22-.37.76-.81,1.63-.73,1.66-1.18,2.75-1.34,3.27-.08.29-.19.49-.3.61-.11.11-.27.17-.48.16-.22,0-.39-.09-.52-.25-.12-.14-.18-.31-.17-.49.01-.66.64-2.25,1.87-4.76-1.29.11-2.3.32-3.03.61-.24.09-.43.14-.58.13-.35,0-.52-.29-.51-.84,0-.33.14-.64.4-.94.5-.56,1.35-1.41,2.55-2.54,1.47-1.38,2.8-2.51,3.99-3.37,1.03-.74,1.76-1.11,2.21-1.1.2,0,.39.09.55.26.13.14.19.3.19.47,0,.21-.14.53-.42.97-.04.08-.35.54-.9,1.39-.7,1.08-1.36,2.22-1.97,3.41.62-.02,1.03-.03,1.23-.03.52.01.77.21.77.6,0,.34-.15.59-.44.73-.12.06-.5.08-1.12.07-.18,0-.57,0-1.15.02ZM120.46,71.55c1-1.84,1.94-3.38,2.83-4.62-.93.5-2.06,1.37-3.39,2.62-.96.91-1.73,1.71-2.32,2.39,1.28-.24,2.24-.36,2.88-.39Z"/><path class="cls-1" d="M125.04,76.9c1.49-.43,2.85-.64,4.09-.61.48.01.87.12,1.17.33.26.18.39.4.38.65,0,.17-.07.31-.19.44-.13.13-.27.19-.43.19-.05,0-.13-.02-.24-.04-.45-.13-.87-.2-1.24-.21-.32,0-.73.02-1.2.07-.17.02-.78.17-1.84.43-.96.23-1.52.35-1.7.35-.25,0-.46-.13-.64-.37-.16-.22-.24-.45-.24-.69,0-.26.24-.61.71-1.05.88-.82,1.73-1.57,2.54-2.23.77-.62,1.72-1.33,2.85-2.13,1.29-.91,2.19-1.58,2.68-2,.73-.62,1.11-1.24,1.12-1.88,0-.35-.1-.63-.32-.84-.2-.18-.45-.27-.76-.28-.79-.02-1.73.41-2.82,1.27-.5.39-.81.59-.94.59-.09,0-.19-.06-.3-.16-.12-.11-.18-.24-.18-.39,0-.32.4-.76,1.17-1.32,1.25-.91,2.43-1.35,3.55-1.32.64.01,1.17.23,1.59.65.41.4.6.89.59,1.45-.02.98-.54,1.95-1.57,2.89-.44.41-1.24,1.03-2.41,1.85-2.81,1.96-4.63,3.41-5.45,4.35Z"/><path class="cls-1" d="M113.57,54.6c-.37.5-.63.89-.81,1.16-.17.27-.39.65-.66,1.14-1.17,2.21-2,4-2.48,5.39-.28.78-.45,1.44-.5,1.99.06.01.13.02.19.03.06,0,.12.01.18.01.12,0,.3-.02.53-.05.1-.02.18-.03.25-.03.08,0,.14.02.19.07.05.04.08.1.08.16,0,.09-.06.16-.19.23-.14.07-.45.11-.93.11-.23,0-.42-.02-.58-.07-.1-.03-.17-.07-.2-.12s-.05-.12-.05-.23c0-.43.18-1.16.53-2.19.54-1.56,1.39-3.39,2.54-5.47.66-1.19,1.13-1.95,1.4-2.3.13-.16.27-.26.43-.3.13-.03.35-.05.67-.05.35,0,.58.02.68.06.12.04.18.12.18.23,0,.09-.04.15-.11.19-.06.04-.14.06-.21.06-.05,0-.18,0-.38-.02-.07,0-.15,0-.23,0-.13,0-.3,0-.52.02Z"/><path class="cls-1" d="M116.26,56.73c.19.08.34.2.43.36.1.17.14.38.14.64,0,.8-.31,1.65-.93,2.55-.68.98-1.32,1.47-1.94,1.47-.31,0-.54-.16-.69-.48-.1-.21-.15-.46-.15-.75,0-.71.26-1.46.78-2.25.27-.4.63-.82,1.09-1.25.48-.44.83-.67,1.04-.67.16,0,.24.13.24.38ZM115.56,57.12c-.42.34-.79.76-1.11,1.26-.46.71-.69,1.39-.69,2.06,0,.2.03.35.08.46.09.17.21.26.37.26.25,0,.54-.19.89-.57.38-.42.68-.94.9-1.55.17-.46.25-.85.25-1.17,0-.22-.07-.41-.2-.57-.09-.11-.22-.17-.37-.18h-.11Z"/><path class="cls-1" d="M120.02,56.73c.19.08.34.2.43.36.1.17.14.38.14.64,0,.8-.31,1.65-.93,2.55-.68.98-1.32,1.47-1.94,1.47-.31,0-.54-.16-.69-.48-.1-.21-.15-.46-.15-.75,0-.71.26-1.46.78-2.25.27-.4.63-.82,1.09-1.25.48-.44.83-.67,1.04-.67.16,0,.24.13.24.38ZM119.32,57.12c-.42.34-.79.76-1.11,1.26-.46.71-.69,1.39-.69,2.06,0,.2.03.35.08.46.09.17.21.26.37.26.25,0,.54-.19.89-.57.38-.42.68-.94.9-1.55.17-.46.25-.85.25-1.17,0-.22-.07-.41-.2-.57-.09-.11-.22-.17-.37-.18h-.11Z"/><path class="cls-1" d="M123.34,57.23c-.25.19-.5.35-.75.48-.34.18-.56.27-.67.27-.11,0-.17-.09-.17-.27,0-.06.01-.12.04-.17.03-.04.1-.08.2-.12.32-.14.79-.4,1.41-.78.28-.18.48-.26.59-.26.08,0,.14.04.2.11.04.05.06.1.06.16,0,.09-.07.24-.21.46-1.03,1.68-1.75,2.99-2.15,3.95-.1.23-.17.38-.21.44-.07.1-.14.15-.2.15s-.13-.04-.19-.12c-.04-.05-.05-.1-.05-.15,0-.19.28-.83.83-1.91.52-1.02.94-1.76,1.28-2.22Z"/><path class="cls-1" d="M127.54,56.73c.19.08.34.2.43.36.1.17.14.38.14.64,0,.8-.31,1.65-.93,2.55-.68.98-1.32,1.47-1.94,1.47-.31,0-.54-.16-.69-.48-.1-.21-.15-.46-.15-.75,0-.71.26-1.46.78-2.25.27-.4.63-.82,1.09-1.25.48-.44.83-.67,1.04-.67.16,0,.24.13.24.38ZM126.84,57.12c-.42.34-.79.76-1.11,1.26-.46.71-.69,1.39-.69,2.06,0,.2.03.35.08.46.09.17.21.26.37.26.25,0,.54-.19.89-.57.38-.42.68-.94.9-1.55.17-.46.25-.85.25-1.17,0-.22-.07-.41-.2-.57-.09-.11-.22-.17-.37-.18h-.11Z"/><path class="cls-1" d="M130.86,57.23c-.25.19-.5.35-.75.48-.34.18-.56.27-.67.27-.11,0-.17-.09-.17-.27,0-.06.01-.12.04-.17.03-.04.1-.08.2-.12.32-.14.79-.4,1.41-.78.28-.18.48-.26.59-.26.08,0,.14.04.2.11.04.05.06.1.06.16,0,.09-.07.24-.21.46-1.03,1.68-1.75,2.99-2.15,3.95-.1.23-.17.38-.21.44-.07.1-.14.15-.2.15s-.13-.04-.19-.12c-.04-.05-.05-.1-.05-.15,0-.19.28-.83.83-1.91.52-1.02.94-1.76,1.28-2.22Z"/><path class="cls-1" d="M135.06,56.73c.19.08.34.2.43.36.1.17.14.38.14.64,0,.8-.31,1.65-.93,2.55-.68.98-1.32,1.47-1.94,1.47-.31,0-.54-.16-.69-.48-.1-.21-.15-.46-.15-.75,0-.71.26-1.46.78-2.25.27-.4.63-.82,1.09-1.25.48-.44.83-.67,1.04-.67.16,0,.24.13.24.38ZM134.36,57.12c-.42.34-.79.76-1.11,1.26-.46.71-.69,1.39-.69,2.06,0,.2.03.35.08.46.09.17.21.26.37.26.25,0,.54-.19.89-.57.38-.42.68-.94.9-1.55.17-.46.25-.85.25-1.17,0-.22-.07-.41-.2-.57-.09-.11-.22-.17-.37-.18h-.11Z"/><path class="cls-1" d="M138.38,57.23c-.25.19-.5.35-.75.48-.34.18-.56.27-.67.27-.11,0-.17-.09-.17-.27,0-.06.01-.12.04-.17.03-.04.1-.08.2-.12.32-.14.79-.4,1.41-.78.28-.18.48-.26.59-.26.08,0,.14.04.2.11.04.05.06.1.06.16,0,.09-.07.24-.21.46-1.03,1.68-1.75,2.99-2.15,3.95-.1.23-.17.38-.21.44-.07.1-.14.15-.2.15s-.13-.04-.19-.12c-.04-.05-.05-.1-.05-.15,0-.19.28-.83.83-1.91.52-1.02.94-1.76,1.28-2.22Z"/><path class="cls-1" d="M142.58,56.73c.19.08.34.2.43.36.1.17.14.38.14.64,0,.8-.31,1.65-.93,2.55-.68.98-1.32,1.47-1.94,1.47-.31,0-.54-.16-.69-.48-.1-.21-.15-.46-.15-.75,0-.71.26-1.46.78-2.25.27-.4.63-.82,1.09-1.25.48-.44.83-.67,1.04-.67.16,0,.24.13.24.38ZM141.88,57.12c-.42.34-.79.76-1.11,1.26-.46.71-.69,1.39-.69,2.06,0,.2.03.35.08.46.09.17.21.26.37.26.25,0,.54-.19.89-.57.38-.42.68-.94.9-1.55.17-.46.25-.85.25-1.17,0-.22-.07-.41-.2-.57-.09-.11-.22-.17-.37-.18h-.11Z"/><path class="cls-1" d="M142.52,64.27c.37-.5.63-.89.81-1.17.17-.27.39-.65.65-1.14,1.17-2.2,2-4,2.48-5.39.28-.78.45-1.44.5-1.99-.07-.01-.13-.02-.19-.03-.06,0-.12-.01-.17-.01-.12,0-.3.02-.53.05-.1.02-.19.03-.25.03-.08,0-.14-.02-.19-.07-.05-.04-.08-.1-.08-.16,0-.09.06-.16.19-.23.14-.07.45-.11.93-.11.23,0,.42.02.58.08.1.03.17.07.21.12.03.04.04.12.04.23,0,.43-.18,1.16-.53,2.19-.54,1.57-1.39,3.39-2.55,5.47-.66,1.19-1.12,1.96-1.4,2.3-.13.16-.27.26-.43.3-.13.03-.35.05-.67.05-.36,0-.58-.02-.68-.05-.12-.05-.18-.12-.18-.23,0-.09.04-.15.11-.2.06-.04.14-.06.22-.06.05,0,.18,0,.37.02.06,0,.14,0,.23,0,.12,0,.3,0,.53-.01Z"/><path class="cls-1" d="M92.46,111.24c1.49-.43,2.85-.64,4.09-.61.48.01.87.12,1.17.33.26.18.39.4.38.65,0,.17-.07.31-.19.44-.13.13-.27.19-.43.19-.05,0-.13-.02-.24-.04-.45-.13-.87-.2-1.23-.21-.33,0-.73.02-1.2.07-.17.02-.78.17-1.84.43-.95.23-1.52.35-1.7.35-.25,0-.46-.13-.64-.37-.16-.22-.24-.45-.24-.69,0-.26.24-.61.71-1.05.88-.82,1.73-1.57,2.54-2.23.77-.62,1.72-1.33,2.86-2.13,1.29-.91,2.19-1.58,2.68-2,.73-.62,1.11-1.24,1.12-1.87,0-.35-.1-.63-.33-.84-.2-.18-.45-.27-.76-.28-.79-.02-1.73.41-2.82,1.27-.5.39-.81.59-.94.59-.09,0-.19-.06-.3-.16-.12-.11-.18-.24-.18-.39,0-.32.4-.76,1.18-1.32,1.25-.9,2.43-1.35,3.55-1.32.64.01,1.17.23,1.59.65.4.4.6.89.59,1.45-.02.98-.54,1.95-1.57,2.89-.44.41-1.24,1.03-2.41,1.85-2.81,1.96-4.63,3.41-5.45,4.35Z"/><path class="cls-1" d="M154.49,103.35c-.62.45-1.25.83-1.87,1.15-.84.43-1.4.64-1.66.64-.28,0-.42-.23-.41-.68,0-.16.04-.29.11-.41.07-.1.24-.2.51-.29.8-.32,1.96-.93,3.5-1.85.69-.42,1.18-.62,1.46-.61.18,0,.35.1.49.29.09.12.14.26.14.4,0,.22-.18.59-.54,1.11-2.63,4.06-4.45,7.25-5.48,9.57-.25.57-.43.92-.54,1.06-.17.23-.34.35-.51.35-.17,0-.32-.11-.47-.31-.08-.12-.13-.24-.12-.37.01-.47.72-2.02,2.13-4.65,1.32-2.47,2.4-4.26,3.25-5.38Z"/><path class="cls-1" d="M164.83,102.33c.47.19.82.5,1.04.91.22.41.33.94.32,1.57-.04,1.96-.85,4.03-2.43,6.2-1.71,2.36-3.33,3.53-4.85,3.5-.75-.02-1.31-.42-1.67-1.21-.24-.52-.34-1.13-.33-1.85.04-1.74.71-3.56,2.03-5.47.68-.98,1.59-1.98,2.74-3.01,1.2-1.06,2.06-1.59,2.58-1.58.4,0,.59.32.57.95ZM163.1,103.25c-1.05.82-1.98,1.83-2.79,3.03-1.17,1.72-1.77,3.39-1.81,5.01,0,.48.05.86.17,1.14.21.43.51.64.9.65.61.01,1.34-.44,2.2-1.35.96-1.02,1.73-2.27,2.3-3.75.44-1.12.67-2.08.68-2.86.01-.54-.14-1.01-.47-1.41-.22-.28-.52-.43-.9-.45-.1,0-.19,0-.28,0Z"/><path class="cls-2" d="M131.42,81.89c5.53,8.85,13.92,7.98,20.04,17.09"/><path class="cls-3" d="M146.75,97.26c.06-.15.24-.22.39-.16l4.23,1.78-.18-4.59c0-.17.12-.31.29-.31.17,0,.3.12.31.29l.19,5.06c0,.1-.04.2-.13.26-.08.06-.19.07-.29.03l-4.67-1.96c-.05-.02-.1-.06-.13-.11-.06-.08-.07-.19-.03-.29Z"/><path class="cls-2" d="M119.19,83.41c-7.73,7.22-6.62,3.5-17.2,14.53"/><path class="cls-3" d="M102.82,93c.16.03.27.19.23.36l-.95,4.49,4.47-1.04c.16-.04.32.06.36.22s-.06.32-.22.36l-4.93,1.14c-.1.02-.2,0-.28-.08-.07-.07-.1-.18-.08-.28l1.05-4.95c.01-.06.04-.11.08-.15.07-.07.17-.11.28-.08Z"/><path class="cls-2" d="M95.01,117.47c5.53,8.85,9.03,9.86,14.94,19.04"/><path class="cls-3" d="M105.27,134.72c.07-.15.24-.22.4-.15l4.2,1.84-.11-4.59c0-.17.13-.3.29-.31.17,0,.3.13.31.29l.12,5.06c0,.1-.05.2-.13.26-.09.06-.19.07-.29.03l-4.63-2.03c-.05-.02-.1-.06-.13-.11-.06-.08-.07-.19-.03-.29Z"/><path class="cls-2" d="M91.33,117.47c-4.63,9.26-5.25,7.93-13.52,19.9"/><path class="cls-3" d="M77.87,132.37c.17,0,.29.15.28.32l-.25,4.58,4.26-1.71c.15-.06.33.01.39.17.06.15-.01.33-.17.39l-4.7,1.88c-.1.04-.2.02-.29-.03-.08-.06-.13-.16-.12-.26l.28-5.05c0-.06.02-.11.06-.16.06-.08.15-.13.26-.12Z"/><path class="cls-1" d="M76.37,140.58c.47.19.82.5,1.04.91.22.41.33.94.32,1.57-.04,1.96-.85,4.03-2.43,6.2-1.71,2.36-3.33,3.53-4.85,3.5-.76-.02-1.31-.42-1.68-1.21-.23-.52-.34-1.13-.33-1.85.04-1.74.71-3.56,2.03-5.47.68-.98,1.59-1.98,2.74-3.01,1.2-1.06,2.06-1.59,2.58-1.58.4,0,.59.32.57.95ZM74.63,141.49c-1.05.82-1.98,1.83-2.79,3.03-1.17,1.72-1.77,3.39-1.81,5.01-.01.48.05.86.17,1.14.21.43.51.64.9.65.61.01,1.34-.44,2.2-1.35.96-1.02,1.73-2.27,2.3-3.75.44-1.12.67-2.08.68-2.86.01-.54-.14-1.01-.47-1.41-.22-.28-.52-.43-.9-.45-.1,0-.19,0-.28,0Z"/><path class="cls-1" d="M106.62,151.14c1.49-.43,2.85-.64,4.09-.61.48.01.87.12,1.17.33.26.18.39.4.38.65,0,.17-.07.31-.19.44-.13.13-.27.19-.43.19-.05,0-.13-.02-.24-.04-.46-.13-.87-.2-1.24-.21-.33,0-.73.02-1.2.07-.17.02-.78.17-1.84.43-.95.23-1.52.35-1.7.35-.25,0-.46-.13-.64-.37-.16-.22-.24-.45-.24-.69,0-.26.24-.61.71-1.05.88-.82,1.73-1.57,2.54-2.23.77-.62,1.72-1.33,2.85-2.13,1.29-.91,2.19-1.58,2.68-2,.73-.62,1.11-1.24,1.12-1.87,0-.35-.1-.63-.32-.84-.2-.18-.45-.27-.76-.28-.79-.02-1.73.41-2.82,1.27-.5.39-.81.59-.94.59-.09,0-.19-.06-.3-.16-.12-.11-.18-.24-.18-.39,0-.32.4-.76,1.18-1.32,1.25-.9,2.43-1.35,3.55-1.32.64.01,1.17.23,1.59.65.41.4.6.89.59,1.45-.02.98-.54,1.95-1.57,2.89-.44.41-1.24,1.03-2.41,1.85-2.81,1.96-4.63,3.41-5.45,4.35Z"/><path class="cls-2" d="M159.8,119.54c5.53,8.85,6.25,7.87,12.05,16.97"/><path class="cls-3" d="M167.16,134.72c.07-.15.24-.22.4-.15l4.2,1.84-.11-4.59c0-.17.13-.3.29-.31s.3.13.31.29l.12,5.06c0,.1-.05.2-.13.26-.09.06-.19.07-.29.03l-4.63-2.03c-.05-.02-.1-.06-.13-.11-.06-.08-.07-.19-.03-.29Z"/><path class="cls-2" d="M153.22,118.79c-4.63,9.26-5.25,6.65-13.52,18.58"/><path class="cls-3" d="M139.84,132.37c.17.01.29.15.28.32l-.32,4.58,4.28-1.65c.15-.06.33.02.39.17s-.02.33-.17.39l-4.72,1.82c-.1.04-.2.02-.29-.04-.08-.06-.13-.16-.12-.26l.35-5.05c0-.06.03-.11.06-.16.06-.08.16-.13.26-.12Z"/><path class="cls-1" d="M130.65,151.14c1.49-.43,2.85-.64,4.09-.61.48.01.87.12,1.17.33.26.18.39.4.38.65,0,.17-.07.31-.19.44-.13.13-.27.19-.43.19-.05,0-.13-.02-.24-.04-.46-.13-.87-.2-1.24-.21-.33,0-.73.02-1.2.07-.17.02-.78.17-1.84.43-.95.23-1.52.35-1.7.35-.25,0-.46-.13-.64-.37-.16-.22-.24-.45-.24-.69,0-.26.24-.61.71-1.05.88-.82,1.73-1.57,2.54-2.23.77-.62,1.72-1.33,2.85-2.13,1.29-.91,2.19-1.58,2.68-2,.73-.62,1.11-1.24,1.12-1.87,0-.35-.1-.63-.32-.84-.2-.18-.45-.27-.76-.28-.79-.02-1.73.41-2.82,1.27-.5.39-.81.59-.94.59-.09,0-.19-.06-.3-.16-.12-.11-.18-.24-.18-.39,0-.32.4-.76,1.18-1.32,1.25-.9,2.43-1.35,3.55-1.32.64.01,1.17.23,1.59.65.41.4.6.89.59,1.45-.02.98-.54,1.95-1.57,2.89-.44.41-1.24,1.03-2.41,1.85-2.81,1.96-4.63,3.41-5.45,4.35Z"/><path class="cls-1" d="M168.52,151.14c1.49-.43,2.85-.64,4.09-.61.48.01.87.12,1.17.33.26.18.39.4.38.65,0,.17-.07.31-.19.44-.13.13-.27.19-.43.19-.05,0-.13-.02-.24-.04-.45-.13-.87-.2-1.23-.21-.33,0-.73.02-1.2.07-.17.02-.78.17-1.84.43-.95.23-1.52.35-1.7.35-.25,0-.46-.13-.64-.37-.16-.22-.24-.45-.24-.69,0-.26.24-.61.71-1.05.88-.82,1.73-1.57,2.54-2.23.77-.62,1.72-1.33,2.86-2.13,1.29-.91,2.19-1.58,2.68-2,.73-.62,1.11-1.24,1.12-1.87,0-.35-.1-.63-.33-.84-.2-.18-.45-.27-.76-.28-.79-.02-1.73.41-2.82,1.27-.5.39-.81.59-.94.59-.09,0-.19-.06-.3-.16-.12-.11-.18-.24-.18-.39,0-.32.4-.76,1.18-1.32,1.25-.9,2.43-1.35,3.55-1.32.64.01,1.17.23,1.59.65.4.4.6.89.59,1.45-.02.98-.54,1.95-1.57,2.89-.44.41-1.24,1.03-2.41,1.85-2.81,1.96-4.63,3.41-5.45,4.35Z"/><path class="cls-1" d="M71.86,101.9c-.42.46-.74.81-.94,1.06-.2.25-.47.6-.79,1.05-1.43,2.05-2.46,3.74-3.11,5.06-.37.74-.62,1.38-.73,1.91.06.02.12.04.18.05s.12.02.17.03c.12.01.3.02.53.01.1,0,.19,0,.25,0,.08,0,.14.04.18.09.05.05.07.11.06.17-.01.09-.08.16-.21.2-.15.05-.46.05-.94,0-.22-.03-.41-.07-.57-.14-.1-.04-.16-.09-.19-.14-.03-.05-.04-.13-.02-.24.05-.43.32-1.13.79-2.11.72-1.49,1.79-3.2,3.18-5.13.8-1.1,1.35-1.8,1.67-2.12.14-.15.3-.23.46-.25.13-.02.35,0,.67.03.35.04.57.09.67.14.11.06.16.14.15.25,0,.08-.05.14-.13.18-.07.04-.14.05-.22.04-.05,0-.17-.03-.37-.07-.07-.01-.14-.02-.23-.03-.13-.02-.3-.03-.52-.05Z"/><path class="cls-1" d="M74.27,104.34c.18.1.31.24.38.41.07.18.1.39.07.65-.1.79-.51,1.6-1.23,2.42-.79.89-1.49,1.3-2.11,1.22-.31-.04-.52-.22-.63-.56-.08-.22-.09-.47-.06-.76.08-.7.43-1.42,1.04-2.13.31-.37.73-.74,1.23-1.11.53-.38.9-.56,1.11-.54.16.02.22.16.19.41ZM73.53,104.64c-.46.29-.88.66-1.25,1.11-.54.65-.86,1.3-.93,1.96-.02.2-.02.35.02.47.07.18.18.28.34.3.25.03.56-.12.95-.46.43-.37.79-.85,1.08-1.43.22-.44.35-.82.39-1.13.03-.22-.02-.42-.13-.59-.08-.12-.19-.19-.35-.22-.04,0-.08,0-.11-.01Z"/><path class="cls-1" d="M78,104.79c.18.1.31.24.38.41.08.18.1.39.07.65-.1.79-.51,1.6-1.23,2.42-.79.89-1.49,1.3-2.11,1.22-.31-.04-.52-.22-.63-.56-.08-.22-.09-.47-.06-.76.08-.7.43-1.42,1.04-2.13.32-.37.73-.74,1.23-1.11.53-.38.9-.56,1.11-.54.16.02.22.16.19.41ZM77.26,105.09c-.46.29-.88.66-1.25,1.11-.54.65-.85,1.3-.93,1.96-.02.2-.02.35.02.47.07.18.18.28.34.3.25.03.56-.12.95-.46.43-.37.79-.85,1.08-1.43.22-.44.35-.82.39-1.13.03-.22-.02-.42-.13-.59-.08-.12-.19-.19-.35-.22-.04,0-.08,0-.11-.01Z"/><path class="cls-1" d="M81.23,105.69c-.27.16-.54.29-.8.39-.36.14-.59.2-.7.19-.11-.01-.16-.11-.14-.29,0-.06.03-.12.06-.16.03-.04.11-.07.22-.1.34-.1.83-.3,1.49-.61.3-.14.5-.2.62-.19.07,0,.14.05.19.14.03.05.05.11.04.17-.01.09-.1.23-.26.43-1.23,1.54-2.1,2.76-2.61,3.66-.12.22-.21.36-.26.41-.08.09-.15.13-.22.12s-.13-.06-.18-.15c-.03-.05-.04-.1-.04-.16.02-.19.37-.79,1.05-1.8.63-.95,1.15-1.63,1.54-2.05Z"/><path class="cls-1" d="M85.46,105.69c.18.1.31.24.39.41s.1.39.07.65c-.1.79-.51,1.6-1.23,2.42-.79.89-1.49,1.3-2.11,1.22-.31-.04-.52-.22-.63-.56-.07-.22-.09-.47-.06-.76.08-.7.43-1.42,1.04-2.13.32-.37.73-.74,1.23-1.11.53-.38.9-.56,1.11-.54.16.02.22.16.19.41ZM84.72,105.99c-.46.29-.88.66-1.25,1.11-.54.65-.86,1.3-.93,1.96-.02.2-.02.35.02.47.07.18.18.28.34.3.25.03.56-.12.95-.46.43-.37.79-.85,1.08-1.43.22-.44.35-.82.39-1.13.03-.22-.02-.42-.13-.59-.08-.12-.19-.19-.35-.22-.04,0-.08,0-.11-.01Z"/><path class="cls-1" d="M84.5,113.17c.42-.46.74-.81.94-1.06.21-.25.47-.6.79-1.05,1.43-2.05,2.46-3.73,3.11-5.05.37-.74.62-1.38.74-1.91-.07-.02-.13-.04-.19-.05-.06-.01-.12-.02-.17-.03-.12-.01-.3-.02-.53,0-.11,0-.19,0-.25,0-.08,0-.14-.04-.18-.09-.05-.05-.07-.11-.06-.17.01-.09.08-.16.21-.2.15-.05.46-.05.94,0,.22.03.41.08.57.14.1.04.16.09.19.14.02.05.03.12.02.23-.05.43-.32,1.13-.79,2.11-.73,1.49-1.79,3.2-3.18,5.12-.8,1.1-1.35,1.81-1.66,2.12-.15.14-.3.23-.47.25-.13.02-.35,0-.67-.03-.36-.04-.58-.09-.67-.13-.11-.06-.16-.14-.15-.25.01-.09.05-.15.13-.18.07-.03.14-.04.23-.03.05,0,.17.03.37.06.06.01.13.02.22.03.12.01.29.03.52.05Z"/><path class="cls-1" d="M171.87,101.47c-.3.55-.51.96-.65,1.26-.13.29-.3.7-.5,1.22-.87,2.34-1.46,4.23-1.75,5.67-.17.81-.25,1.49-.24,2.04.07,0,.13,0,.19,0,.06,0,.12,0,.18-.01.12-.02.29-.06.52-.12.1-.03.18-.05.24-.06.07,0,.14,0,.2.04.06.04.09.09.1.15.01.09-.04.17-.16.25-.13.09-.43.17-.91.23-.22.03-.42.03-.58,0-.1-.02-.17-.05-.21-.09s-.07-.12-.08-.22c-.06-.43.02-1.17.24-2.24.33-1.62.93-3.54,1.8-5.76.5-1.26.86-2.08,1.09-2.47.1-.18.23-.29.39-.35.12-.05.34-.09.65-.13.35-.05.58-.06.68-.03.12.03.19.09.21.2.01.08-.02.15-.08.21-.06.05-.13.08-.21.09-.05,0-.17.02-.38.03-.07,0-.14.01-.23.02-.13.02-.3.04-.51.08Z"/><path class="cls-1" d="M174.44,103.8c-.22.22-.45.41-.68.58-.31.23-.52.35-.63.36-.11.02-.18-.07-.21-.25,0-.06,0-.12.02-.17.02-.05.08-.1.19-.15.3-.18.73-.5,1.29-.96.25-.21.44-.32.55-.34.07,0,.15.02.22.08.05.04.07.1.08.15.01.09-.04.25-.15.48-.81,1.8-1.34,3.2-1.61,4.2-.07.24-.12.4-.15.46-.05.1-.12.16-.18.17s-.14-.02-.21-.1c-.04-.04-.07-.09-.07-.14-.03-.19.17-.86.57-2,.38-1.08.7-1.86.98-2.37Z"/><path class="cls-1" d="M178.54,102.75c.2.05.36.15.48.3.12.15.19.36.22.61.1.79-.09,1.67-.59,2.65-.54,1.06-1.12,1.63-1.74,1.71-.31.04-.56-.09-.75-.38-.13-.19-.21-.43-.25-.73-.09-.7.07-1.48.48-2.33.21-.44.52-.9.92-1.38.42-.5.73-.77.94-.8.16-.02.26.09.29.35ZM177.9,103.22c-.37.4-.68.86-.94,1.39-.37.76-.5,1.47-.42,2.13.03.19.07.34.14.45.11.16.25.23.4.21.25-.03.51-.26.8-.68.33-.47.56-1.02.69-1.65.11-.48.14-.88.1-1.19-.03-.22-.12-.4-.28-.54-.11-.1-.24-.14-.39-.13-.04,0-.08,0-.11.01Z"/><path class="cls-1" d="M181.9,102.81c-.22.22-.45.41-.68.58-.31.23-.52.35-.63.36-.11.02-.18-.07-.21-.25,0-.06,0-.12.02-.17.02-.05.08-.1.19-.15.3-.18.73-.5,1.29-.96.25-.21.44-.32.55-.34.07-.01.15.02.22.08.05.04.07.1.08.15.01.09-.04.25-.15.48-.81,1.8-1.34,3.2-1.61,4.2-.06.24-.12.4-.15.46-.05.1-.12.16-.18.17-.07,0-.14-.02-.21-.1-.04-.04-.07-.09-.07-.14-.03-.19.17-.86.57-2,.38-1.08.7-1.86.98-2.37Z"/><path class="cls-1" d="M186,101.76c.2.05.36.15.48.3.12.15.19.36.22.61.1.79-.09,1.67-.59,2.65-.54,1.06-1.12,1.63-1.74,1.71-.31.04-.56-.09-.75-.38-.13-.19-.21-.43-.25-.73-.09-.7.07-1.48.48-2.33.21-.44.52-.9.92-1.38.42-.5.73-.77.94-.8.16-.02.26.09.29.35ZM185.35,102.24c-.37.4-.68.86-.94,1.39-.37.76-.5,1.47-.42,2.13.03.19.07.34.14.45.11.16.25.23.4.21.25-.03.51-.26.8-.68.33-.47.56-1.02.69-1.65.11-.48.14-.88.1-1.19-.03-.22-.12-.4-.28-.54-.11-.1-.24-.14-.39-.13-.04,0-.08.01-.11.01Z"/><path class="cls-1" d="M186.92,109.25c.3-.55.51-.97.65-1.26.14-.29.3-.7.5-1.22.87-2.34,1.46-4.23,1.75-5.67.17-.81.25-1.49.24-2.04-.07,0-.13,0-.2,0-.06,0-.12,0-.17.01-.12.02-.29.06-.51.12-.1.03-.18.05-.24.06-.07.01-.14,0-.2-.04-.06-.04-.09-.09-.1-.15-.01-.09.04-.17.16-.25.13-.09.43-.17.91-.23.22-.03.42-.03.58,0,.11.02.18.04.22.09.03.04.06.11.07.22.06.43-.02,1.18-.24,2.24-.33,1.63-.94,3.54-1.81,5.75-.5,1.26-.86,2.09-1.08,2.47-.11.18-.24.29-.39.35-.12.05-.34.09-.65.14-.35.05-.58.06-.68.04-.12-.03-.19-.1-.21-.2-.01-.09.01-.16.08-.21.06-.05.13-.08.21-.09.05,0,.18-.02.37-.03.06,0,.14-.01.22-.02.12-.02.29-.04.52-.08Z"/><path class="cls-1" d="M56.06,142.64c-.32.53-.55.94-.7,1.23-.15.29-.33.69-.55,1.2-.97,2.3-1.63,4.17-1.99,5.59-.21.8-.32,1.48-.32,2.02.07,0,.13.01.19.02s.12,0,.18,0c.12-.01.29-.04.52-.1.1-.03.18-.04.24-.05.08,0,.14.01.2.05.06.04.09.09.09.15,0,.09-.05.17-.17.24-.14.08-.44.15-.92.19-.22.02-.42.01-.58-.02-.1-.02-.17-.06-.21-.1-.04-.04-.06-.12-.07-.23-.04-.43.07-1.17.33-2.23.4-1.61,1.08-3.5,2.04-5.68.55-1.24.95-2.05,1.19-2.42.11-.17.24-.28.4-.34.13-.04.35-.08.66-.11.35-.03.58-.03.68,0,.12.03.19.1.2.21,0,.09-.02.15-.09.2-.06.05-.13.08-.21.08-.05,0-.17,0-.38.01-.07,0-.14,0-.23.02-.13.01-.3.03-.52.06Z"/><path class="cls-1" d="M58.92,144.52c.2.06.35.17.46.32.11.16.18.36.2.62.07.8-.16,1.67-.7,2.62-.59,1.03-1.19,1.58-1.81,1.63-.31.03-.55-.11-.73-.41-.12-.2-.19-.44-.22-.74-.06-.71.13-1.48.58-2.31.23-.43.56-.88.97-1.34.44-.48.76-.74.97-.76.16-.01.25.1.28.36ZM58.26,144.97c-.39.38-.72.83-1,1.35-.4.75-.57,1.45-.51,2.11.02.2.06.35.12.45.1.16.24.24.39.22.25-.02.52-.24.83-.65.34-.46.6-1,.76-1.62.13-.48.17-.87.15-1.19-.02-.22-.1-.4-.25-.55-.1-.1-.23-.15-.39-.14-.04,0-.08,0-.11,0Z"/><path class="cls-1" d="M62.67,144.19c.2.06.35.17.46.32.11.16.18.36.2.62.07.8-.16,1.67-.7,2.62-.59,1.03-1.19,1.58-1.81,1.63-.31.03-.55-.11-.73-.41-.12-.2-.19-.44-.22-.74-.06-.71.13-1.48.58-2.31.23-.43.56-.88.97-1.34.44-.48.76-.74.97-.76.16-.01.25.1.27.36ZM62.01,144.64c-.39.38-.72.83-1,1.35-.4.75-.57,1.45-.51,2.11.02.2.06.35.12.45.1.16.23.24.39.22.25-.02.52-.24.83-.65.34-.46.6-1,.76-1.62.13-.48.18-.87.15-1.19-.02-.22-.1-.4-.25-.55-.1-.1-.23-.15-.39-.14-.04,0-.08,0-.11.01Z"/><path class="cls-1" d="M63.28,151.7c.32-.54.55-.95.7-1.24.15-.29.33-.69.55-1.19.97-2.3,1.63-4.16,1.99-5.59.21-.8.32-1.48.33-2.02-.07,0-.13-.01-.2-.02-.06,0-.12,0-.17,0-.12.01-.29.04-.52.1-.1.03-.18.04-.24.05-.07,0-.14,0-.2-.05s-.09-.09-.09-.15c0-.09.05-.17.17-.24.14-.08.44-.15.92-.19.22-.02.42-.01.58.02.11.02.18.05.22.1.03.04.05.11.06.22.04.43-.07,1.17-.33,2.23-.4,1.61-1.09,3.5-2.05,5.67-.55,1.24-.95,2.05-1.19,2.42-.11.17-.25.28-.41.34-.13.04-.35.08-.66.11-.36.03-.58.03-.68,0-.12-.04-.19-.1-.2-.21,0-.09.02-.16.09-.21.06-.04.13-.07.21-.08.05,0,.18-.01.37-.02.06,0,.14,0,.23-.01.12-.01.3-.03.52-.06Z"/><path class="cls-1" d="M94.4,142.07c-.4.47-.7.84-.89,1.1-.19.26-.44.62-.74,1.09-1.33,2.12-2.28,3.85-2.86,5.2-.34.76-.55,1.41-.64,1.95.06.02.12.03.19.05s.12.02.18.02c.12,0,.3,0,.53-.02.1-.01.18-.01.25,0,.08,0,.14.03.19.08.05.05.07.1.07.16,0,.09-.07.16-.2.21-.15.06-.46.07-.93.04-.23-.02-.42-.05-.57-.11-.1-.04-.16-.08-.19-.13s-.04-.13-.03-.23c.03-.43.26-1.14.69-2.15.65-1.52,1.63-3.28,2.93-5.27.74-1.13,1.27-1.87,1.57-2.2.14-.15.29-.24.45-.27.13-.02.35-.02.67,0,.35.03.58.06.67.11.11.05.17.13.16.24,0,.08-.05.15-.12.18-.07.04-.14.05-.22.05-.05,0-.17-.02-.37-.05-.07,0-.15-.02-.23-.02-.13,0-.3-.02-.52-.02Z"/><path class="cls-1" d="M96.45,144.86c-.26.17-.53.31-.78.43-.35.16-.58.23-.69.22-.11,0-.17-.1-.15-.29,0-.06.02-.12.05-.16.03-.04.1-.08.21-.11.33-.11.82-.34,1.46-.68.29-.15.49-.23.61-.22.08,0,.14.05.2.13.04.05.05.11.05.16,0,.09-.09.24-.24.44-1.15,1.6-1.96,2.86-2.43,3.78-.11.22-.19.36-.24.42-.08.09-.15.13-.21.13-.07,0-.13-.05-.18-.14-.03-.05-.05-.1-.04-.15.01-.19.34-.81.96-1.85.59-.98,1.07-1.68,1.44-2.12Z"/><path class="cls-1" d="M100.68,144.66c.19.09.32.22.41.39.08.17.11.39.1.65-.06.8-.43,1.62-1.12,2.47-.75.93-1.43,1.37-2.05,1.32-.31-.02-.53-.2-.66-.53-.08-.21-.12-.47-.09-.76.05-.71.36-1.43.94-2.18.3-.38.69-.77,1.18-1.17.51-.41.87-.6,1.08-.59.16.01.23.14.21.4ZM99.95,145c-.44.31-.84.7-1.2,1.17-.51.67-.79,1.34-.84,2-.01.2,0,.35.05.47.08.18.19.27.35.28.25.02.55-.15.92-.5.41-.39.75-.89,1.01-1.48.2-.45.31-.83.34-1.15.02-.22-.04-.42-.16-.58-.08-.12-.2-.18-.36-.2-.04,0-.08,0-.11,0Z"/><path class="cls-1" d="M100.07,152.18c.4-.48.7-.85.89-1.11s.44-.62.73-1.09c1.33-2.11,2.28-3.84,2.86-5.19.34-.76.55-1.41.65-1.95-.07-.02-.13-.03-.19-.05-.06-.01-.12-.02-.17-.02-.12,0-.3,0-.53.02-.11.01-.19.01-.25,0-.08,0-.14-.03-.19-.08-.05-.05-.07-.1-.07-.16,0-.09.07-.16.2-.21.15-.06.46-.07.93-.04.23.02.42.05.57.12.1.04.17.08.2.13.03.04.04.12.03.23-.03.43-.26,1.15-.69,2.15-.66,1.52-1.63,3.28-2.94,5.27-.74,1.14-1.26,1.87-1.56,2.2-.14.15-.29.24-.46.27-.13.02-.35.02-.67,0-.36-.03-.58-.06-.67-.1-.12-.05-.17-.13-.16-.24,0-.09.05-.15.12-.19.07-.03.14-.05.22-.04.05,0,.18.02.37.04.06,0,.14.02.22.02.12,0,.3.02.53.03Z"/><path class="cls-1" d="M146.12,142.09c-.4.47-.7.84-.89,1.1s-.44.62-.74,1.09c-1.33,2.12-2.28,3.85-2.86,5.2-.33.76-.55,1.41-.64,1.95.06.02.12.03.19.05.06.01.12.02.18.02.12,0,.3,0,.53-.02.1-.01.18-.01.25,0,.08,0,.14.03.19.08.05.05.07.1.07.16,0,.09-.07.16-.2.21-.15.06-.46.07-.93.04-.22-.02-.42-.05-.57-.11-.1-.04-.16-.08-.19-.13s-.04-.13-.03-.23c.03-.43.26-1.14.69-2.15.65-1.52,1.63-3.28,2.93-5.27.74-1.13,1.26-1.87,1.56-2.2.14-.15.29-.24.45-.27.13-.02.35-.02.67,0,.35.03.58.06.67.11.12.05.17.13.16.24,0,.09-.05.15-.12.19-.07.04-.14.05-.22.05-.05,0-.17-.02-.37-.05-.07,0-.14-.02-.23-.02-.13,0-.3-.02-.52-.02Z"/><path class="cls-1" d="M148.17,144.88c-.26.17-.53.31-.79.43-.35.16-.58.23-.69.22-.12,0-.17-.1-.15-.29,0-.06.02-.12.05-.16.03-.04.1-.08.21-.11.33-.11.82-.34,1.46-.68.29-.15.49-.23.61-.22.07,0,.14.05.19.13.04.05.05.11.05.17,0,.09-.09.24-.24.44-1.15,1.6-1.96,2.86-2.43,3.78-.11.22-.19.36-.24.42-.08.09-.15.13-.21.13-.07,0-.13-.05-.18-.14-.03-.05-.05-.1-.04-.15.01-.19.34-.81.96-1.85.59-.98,1.07-1.68,1.44-2.12Z"/><path class="cls-1" d="M152.4,144.68c.19.09.32.22.41.39.08.17.11.39.1.65-.06.8-.43,1.62-1.12,2.47-.75.93-1.43,1.37-2.05,1.32-.31-.02-.53-.2-.66-.53-.08-.21-.12-.47-.1-.76.05-.71.37-1.43.94-2.18.3-.38.69-.77,1.18-1.17.51-.41.87-.6,1.08-.59.16.01.23.14.21.4ZM151.67,145.02c-.44.31-.84.7-1.2,1.17-.51.67-.79,1.34-.84,2-.01.2,0,.35.05.47.08.18.19.27.35.28.25.02.55-.15.93-.5.41-.39.75-.89,1.01-1.48.2-.45.31-.83.34-1.15.02-.22-.04-.42-.16-.58-.08-.12-.2-.19-.36-.2-.04,0-.08,0-.11,0Z"/><path class="cls-1" d="M151.79,152.2c.4-.48.7-.85.89-1.11.19-.26.44-.62.73-1.09,1.33-2.11,2.28-3.84,2.86-5.19.33-.76.55-1.41.65-1.95-.07-.02-.13-.04-.19-.05s-.12-.02-.17-.02c-.12,0-.3,0-.53.01-.1.01-.19.01-.25,0-.08,0-.14-.03-.19-.08-.05-.05-.07-.1-.07-.16,0-.09.07-.16.2-.21.15-.06.46-.07.93-.04.23.02.42.05.57.12.1.04.17.08.2.13.03.04.03.12.03.23-.03.43-.26,1.15-.69,2.15-.66,1.52-1.63,3.28-2.93,5.27-.74,1.14-1.26,1.87-1.56,2.2-.14.15-.29.24-.46.27-.13.02-.35.02-.67,0-.36-.03-.58-.06-.67-.1-.12-.05-.17-.13-.16-.24,0-.09.05-.15.12-.19.07-.03.14-.05.22-.04.05,0,.18.02.37.04.06,0,.14.02.22.02.12,0,.3.02.53.03Z"/><path class="cls-1" d="M181.78,143.11c-.25.57-.43,1-.54,1.31-.11.3-.24.72-.4,1.25-.68,2.4-1.11,4.33-1.29,5.79-.11.82-.13,1.5-.07,2.05.07,0,.13,0,.19,0,.06,0,.12-.01.18-.03.12-.03.29-.08.5-.16.09-.04.17-.06.24-.08.07-.02.14,0,.2.02.06.03.1.08.11.14.02.09-.03.17-.14.26-.12.1-.42.2-.89.3-.22.05-.42.06-.58.05-.1-.01-.18-.04-.22-.07-.04-.04-.08-.11-.1-.21-.09-.42-.07-1.17.06-2.25.2-1.64.64-3.6,1.33-5.88.4-1.3.69-2.15.89-2.55.09-.18.21-.31.36-.38.12-.06.33-.12.64-.19.35-.07.57-.1.67-.08.12.02.2.08.22.18.02.08,0,.15-.06.21-.05.06-.12.09-.2.11-.05.01-.17.03-.37.06-.07.01-.14.02-.23.04-.13.03-.29.07-.51.13Z"/><path class="cls-1" d="M184.53,145.22c-.21.24-.42.45-.63.63-.29.25-.49.39-.6.41-.11.02-.19-.05-.23-.23-.01-.06-.01-.12,0-.17.02-.05.08-.1.17-.16.29-.2.69-.56,1.21-1.06.24-.23.41-.36.52-.38.07-.02.15,0,.22.07.05.04.08.09.09.14.02.09-.02.25-.11.49-.66,1.86-1.08,3.29-1.27,4.31-.04.25-.08.4-.11.47-.05.11-.1.17-.17.18s-.14-.01-.21-.08c-.04-.04-.07-.08-.08-.14-.04-.19.1-.87.41-2.04.29-1.1.55-1.92.78-2.44Z"/><path class="cls-1" d="M188.53,143.84c.21.03.37.12.5.26.13.14.22.34.27.59.17.78.04,1.68-.38,2.69-.46,1.1-.99,1.71-1.59,1.84-.3.06-.56-.04-.78-.32-.14-.18-.24-.42-.3-.7-.15-.69-.05-1.48.29-2.36.18-.45.45-.94.8-1.45.38-.54.67-.82.87-.87.16-.03.26.07.32.32ZM187.93,144.37c-.34.42-.61.91-.82,1.46-.3.79-.38,1.51-.25,2.16.04.19.1.34.18.43.12.15.26.21.42.17.24-.05.49-.3.75-.74.29-.49.47-1.06.56-1.7.07-.49.07-.89,0-1.2-.05-.22-.15-.39-.32-.51-.12-.09-.25-.12-.4-.1-.04,0-.08.02-.11.02Z"/><path class="cls-1" d="M190.05,151.23c.25-.57.43-1.01.54-1.31s.25-.72.4-1.25c.68-2.4,1.11-4.33,1.29-5.79.11-.82.13-1.5.08-2.05-.07,0-.13,0-.2,0-.06,0-.12.01-.17.03-.12.03-.29.08-.5.16-.1.04-.18.07-.24.08-.07.02-.14,0-.2-.03-.06-.03-.1-.08-.11-.14-.02-.09.03-.17.14-.26.12-.1.42-.2.89-.3.22-.05.42-.06.58-.05.11,0,.18.03.23.07.04.04.07.11.09.21.09.42.07,1.17-.06,2.25-.2,1.65-.65,3.61-1.34,5.88-.39,1.3-.69,2.15-.88,2.55-.09.18-.21.31-.36.39-.12.06-.33.12-.64.19-.35.08-.57.1-.67.09-.12-.02-.2-.08-.22-.18-.02-.08,0-.16.06-.22.05-.05.12-.09.2-.1.05-.01.17-.03.37-.06.06,0,.13-.02.22-.04.12-.03.29-.07.51-.12Z"/><path class="cls-1" d="M23.52,66.26c.19.08.34.2.43.36.09.17.14.38.14.64,0,.8-.31,1.65-.93,2.55-.68.98-1.33,1.47-1.94,1.47-.31,0-.54-.16-.69-.48-.1-.21-.15-.46-.15-.75,0-.71.26-1.46.78-2.25.27-.4.63-.82,1.09-1.25.48-.44.83-.67,1.04-.67.16,0,.24.13.24.38ZM22.82,66.64c-.42.34-.79.76-1.11,1.26-.46.71-.69,1.39-.69,2.06,0,.2.03.35.08.46.09.17.21.26.37.26.25,0,.54-.19.89-.57.38-.42.68-.94.9-1.55.17-.46.25-.85.25-1.17,0-.22-.07-.41-.2-.57-.09-.11-.22-.17-.37-.18h-.11Z"/><path class="cls-1" d="M25.03,68.84c.11,0,.24,0,.39.01.31.01.5.02.59.02.21,0,.35.02.41.07.06.04.1.12.1.24,0,.11-.03.19-.09.25-.04.03-.08.05-.13.05-.04,0-.09,0-.17-.01-.13-.01-.48-.02-1.05-.02-.35,0-.61.02-.78.06-.08.02-.14.03-.19.03-.1,0-.17-.05-.22-.14-.02-.05-.04-.1-.04-.16,0-.19.09-.3.26-.34.13-.03.44-.05.92-.05Z"/><path class="cls-1" d="M26.94,70.62c.6-.19,1.15-.28,1.66-.28.2,0,.36.04.48.12.11.07.16.16.16.26,0,.07-.03.13-.08.18-.05.05-.11.08-.17.08-.02,0-.05,0-.1-.02-.19-.05-.35-.08-.5-.08-.13,0-.3.01-.49.04-.07.01-.32.08-.75.19-.39.1-.62.16-.69.16-.1,0-.19-.05-.26-.15-.07-.09-.1-.18-.1-.28,0-.11.09-.25.28-.44.35-.34.69-.65,1.01-.93.31-.26.69-.56,1.14-.89.52-.38.88-.66,1.07-.84.29-.26.44-.52.44-.77,0-.14-.05-.26-.14-.34-.08-.07-.19-.11-.31-.11-.32,0-.7.18-1.14.54-.2.16-.33.25-.38.25-.04,0-.08-.02-.12-.06-.05-.04-.08-.09-.08-.16,0-.13.16-.31.47-.55.5-.38.98-.57,1.43-.57.26,0,.48.08.66.25.17.16.25.36.25.59,0,.4-.2.8-.61,1.19-.18.17-.5.43-.97.77-1.13.82-1.86,1.43-2.18,1.82Z"/><path class="cls-1" d="M33.11,66.57c-.61.53-1,.98-1.17,1.35.35-.14.66-.21.91-.21.29,0,.52.09.68.26.15.16.23.37.23.63,0,.59-.28,1.19-.84,1.79-.55.6-1.1.9-1.64.9-.31,0-.55-.14-.72-.43-.11-.19-.17-.41-.17-.66s.05-.45.16-.61c.09-.13.2-.2.34-.2.13,0,.19.05.19.15,0,.02-.01.06-.03.12-.04.1-.05.24-.05.42,0,.15.04.29.11.4.1.16.23.24.39.24.32,0,.66-.2,1.01-.61.39-.44.58-.89.58-1.33,0-.18-.04-.32-.12-.41-.08-.09-.21-.14-.38-.14s-.37.04-.6.13c-.05.02-.18.08-.39.19-.04.02-.08.04-.12.04-.07,0-.14-.04-.2-.13-.07-.1-.11-.18-.11-.26,0-.15.16-.44.47-.85.2-.27.44-.54.73-.82-.08-.11-.12-.19-.12-.25,0-.08.06-.14.17-.18.05-.02.26-.05.61-.1.4-.05.72-.08.97-.08s.41.02.51.05c.13.04.19.12.19.26,0,.16-.08.25-.25.25-.04,0-.11,0-.21-.01-.04,0-.08,0-.12,0-.17,0-.34,0-.51.02-.17.02-.33.04-.5.07Z"/><path class="cls-1" d="M36.87,66.57c-.61.53-1,.98-1.17,1.35.35-.14.66-.21.91-.21.29,0,.52.09.68.26.15.16.23.37.23.63,0,.59-.28,1.19-.84,1.79-.55.6-1.1.9-1.64.9-.31,0-.55-.14-.72-.43-.11-.19-.17-.41-.17-.66s.05-.45.16-.61c.09-.13.2-.2.34-.2.13,0,.19.05.19.15,0,.02-.01.06-.03.12-.04.1-.05.24-.05.42,0,.15.04.29.11.4.1.16.23.24.39.24.32,0,.66-.2,1.01-.61.39-.44.58-.89.58-1.33,0-.18-.04-.32-.12-.41-.08-.09-.21-.14-.38-.14s-.37.04-.6.13c-.05.02-.18.08-.39.19-.04.02-.08.04-.12.04-.07,0-.14-.04-.2-.13-.07-.1-.11-.18-.11-.26,0-.15.16-.44.47-.85.2-.27.44-.54.73-.82-.08-.11-.12-.19-.12-.25,0-.08.06-.14.17-.18.05-.02.26-.05.61-.1.4-.05.72-.08.97-.08s.41.02.51.05c.13.04.19.12.19.26,0,.16-.08.25-.25.25-.04,0-.11,0-.21-.01-.04,0-.08,0-.12,0-.17,0-.34,0-.51.02-.17.02-.33.04-.5.07Z"/><path class="cls-1" d="M23.52,104.2c.19.08.34.2.43.36.09.17.14.38.14.64,0,.8-.31,1.65-.93,2.55-.68.98-1.33,1.47-1.94,1.47-.31,0-.54-.16-.69-.48-.1-.21-.15-.46-.15-.75,0-.71.26-1.46.78-2.25.27-.4.63-.82,1.09-1.25.48-.44.83-.67,1.04-.67.16,0,.24.13.24.38ZM22.82,104.59c-.42.34-.79.76-1.11,1.26-.46.71-.69,1.39-.69,2.06,0,.2.03.35.08.46.09.17.21.26.37.26.25,0,.54-.19.89-.57.38-.42.68-.94.9-1.55.17-.46.25-.85.25-1.17,0-.22-.07-.41-.2-.57-.09-.11-.22-.17-.37-.18h-.11Z"/><path class="cls-1" d="M25.03,106.79c.11,0,.24,0,.39.01.31.01.5.02.59.02.21,0,.35.02.41.07.06.04.1.12.1.24,0,.11-.03.19-.09.25-.04.03-.08.05-.13.05-.04,0-.09,0-.17-.01-.13-.01-.48-.02-1.05-.02-.35,0-.61.02-.78.06-.08.02-.14.03-.19.03-.1,0-.17-.05-.22-.14-.02-.05-.04-.1-.04-.16,0-.19.09-.3.26-.34.13-.03.44-.05.92-.05Z"/><path class="cls-1" d="M29.51,104.71c-.25.19-.5.35-.75.48-.34.18-.56.27-.67.27-.11,0-.17-.09-.17-.27,0-.06.01-.12.04-.17.03-.04.1-.08.2-.12.32-.14.79-.4,1.41-.78.28-.18.48-.26.59-.26.08,0,.14.04.2.11.04.05.06.1.06.16,0,.09-.07.24-.21.46-1.03,1.68-1.75,2.99-2.15,3.95-.1.23-.17.38-.21.44-.07.1-.14.15-.2.15s-.13-.04-.19-.12c-.04-.05-.05-.1-.05-.15,0-.19.28-.83.83-1.91.52-1.02.94-1.76,1.28-2.22Z"/><path class="cls-1" d="M33.11,104.52c-.61.53-1,.98-1.17,1.35.35-.14.66-.21.91-.21.29,0,.52.09.68.26.15.16.23.37.23.63,0,.59-.28,1.19-.84,1.79-.55.6-1.1.9-1.64.9-.31,0-.55-.14-.72-.43-.11-.19-.17-.41-.17-.66s.05-.45.16-.61c.09-.13.2-.2.34-.2.13,0,.19.05.19.15,0,.02-.01.06-.03.12-.04.1-.05.24-.05.42,0,.15.04.29.11.4.1.16.23.24.39.24.32,0,.66-.2,1.01-.61.39-.44.58-.89.58-1.33,0-.18-.04-.32-.12-.41-.08-.09-.21-.14-.38-.14s-.37.04-.6.13c-.05.02-.18.08-.39.19-.04.02-.08.04-.12.04-.07,0-.14-.04-.2-.13-.07-.1-.11-.18-.11-.26,0-.15.16-.44.47-.85.2-.27.44-.54.73-.82-.08-.11-.12-.19-.12-.25,0-.08.06-.14.17-.18.05-.02.26-.05.61-.1.4-.05.72-.08.97-.08s.41.02.51.05c.13.04.19.12.19.26,0,.16-.08.25-.25.25-.04,0-.11,0-.21-.01-.04,0-.08,0-.12,0-.17,0-.34,0-.51.02-.17.02-.33.04-.5.07Z"/><path class="cls-1" d="M23.52,141.2c.19.08.34.2.43.36.09.17.14.38.14.64,0,.8-.31,1.65-.93,2.55-.68.98-1.33,1.47-1.94,1.47-.31,0-.54-.16-.69-.48-.1-.21-.15-.46-.15-.75,0-.71.26-1.46.78-2.25.27-.4.63-.82,1.09-1.25.48-.44.83-.67,1.04-.67.16,0,.24.13.24.38ZM22.82,141.59c-.42.34-.79.76-1.11,1.26-.46.71-.69,1.39-.69,2.06,0,.2.03.35.08.46.09.17.21.26.37.26.25,0,.54-.19.89-.57.38-.42.68-.94.9-1.55.17-.46.25-.85.25-1.17,0-.22-.07-.41-.2-.57-.09-.11-.22-.17-.37-.18h-.11Z"/><path class="cls-1" d="M25.03,143.79c.11,0,.24,0,.39.01.31.01.5.02.59.02.21,0,.35.02.41.07.06.04.1.12.1.24,0,.11-.03.19-.09.25-.04.03-.08.05-.13.05-.04,0-.09,0-.17-.01-.13-.01-.48-.02-1.05-.02-.35,0-.61.02-.78.06-.08.02-.14.03-.19.03-.1,0-.17-.05-.22-.14-.02-.05-.04-.1-.04-.16,0-.19.09-.3.26-.34.13-.03.44-.05.92-.05Z"/><path class="cls-1" d="M29.36,142.94c.18.08.31.16.38.25.11.13.17.32.17.55,0,.58-.25,1.14-.74,1.68-.49.54-1,.81-1.51.81-.32,0-.58-.13-.78-.4-.14-.19-.21-.4-.21-.63,0-.38.15-.57.44-.57.17,0,.26.07.26.2,0,.03,0,.07-.01.11-.01.06-.02.12-.02.18,0,.17.04.3.12.39.09.1.2.15.33.15.3,0,.63-.21.98-.64.33-.41.5-.8.5-1.17,0-.19-.04-.33-.13-.44-.1-.11-.23-.17-.4-.17-.07,0-.14.01-.2.03-.08.02-.15.04-.19.04-.1,0-.16-.07-.16-.21,0-.12.04-.22.12-.3.05-.05.15-.09.3-.13.3-.08.55-.18.76-.31.13-.09.24-.2.32-.34.04-.08.06-.15.06-.24,0-.1-.03-.18-.08-.23s-.14-.08-.25-.08c-.19,0-.39.05-.6.15-.05.02-.18.1-.38.22-.05.04-.11.05-.18.05-.12,0-.18-.07-.18-.2,0-.12.09-.24.27-.37.42-.3.83-.45,1.23-.45.24,0,.44.07.61.22.17.16.26.35.26.56,0,.29-.12.56-.38.82-.14.14-.37.3-.69.46Z"/><path class="cls-1" d="M28.28,32.71c.18-.02.34.04.48.19.09.09.15.21.16.34.03.2-.12.5-.46.88-.93,1.15-1.4,2.43-1.4,3.83,0,.26-.1.47-.28.62-.16.15-.32.23-.5.25-.4.05-.63-.17-.7-.68-.11-.8.2-1.9.91-3.3.29-.57.65-1.1,1.08-1.6.28-.33.51-.51.7-.53ZM31.31,32.31c.17-.02.33.04.48.19.09.09.15.21.16.34.03.2-.12.5-.46.88-.93,1.15-1.4,2.43-1.4,3.83-.01.26-.1.47-.28.62-.16.15-.33.23-.5.25-.4.05-.63-.17-.7-.68-.11-.8.2-1.9.91-3.3.3-.58.66-1.11,1.08-1.61.28-.33.51-.51.7-.53Z"/><path class="cls-1" d="M37.51,42.08c.66-.73,1.28-1.13,1.88-1.2.37-.05.69.06.96.34.25.24.4.54.45.9.09.68-.02,1.53-.34,2.56-.36,1.14-.94,2.23-1.76,3.28-.67.87-1.36,1.35-2.07,1.44-.26.03-.51.02-.73-.05-.23-.07-.43-.19-.62-.36-.05.13-.09.22-.1.25-.11.34-.18.55-.23.63-.05.08-.13.12-.25.14-.16.02-.32-.05-.48-.22-.11-.11-.18-.23-.2-.37-.03-.24.31-1.54,1.01-3.9.99-3.29,2.21-6.59,3.65-9.9.58-1.35.94-2.15,1.08-2.39.15-.29.3-.44.46-.46.19-.03.37.05.55.22.11.11.18.25.2.41.02.18-.03.42-.16.73-.03.07-.24.55-.65,1.46-1.25,2.65-2.14,4.81-2.65,6.49ZM36.05,48.03c.15.07.29.09.44.08.76-.1,1.47-.86,2.14-2.29.31-.64.55-1.27.7-1.89.13-.55.18-.95.15-1.2-.02-.17-.08-.3-.17-.37-.09-.07-.22-.1-.38-.08-.4.05-.85.39-1.34,1.01-.5.62-.95,1.47-1.36,2.56-.2.52-.36,1.01-.5,1.46l-.12.38c.15.16.3.27.45.34Z"/><path class="cls-1" d="M44.5,40.17c.15-.02.28.02.39.12.08.09.13.18.14.27.02.16-.07.44-.28.83-.72,1.52-1.21,2.76-1.48,3.72-.29.99-.52,1.99-.71,3.02-.08.45-.27.7-.57.74-.17.02-.32-.03-.45-.15-.11-.1-.17-.22-.19-.35-.04-.26.13-1.17.49-2.72.28-1.23.82-2.61,1.61-4.15.25-.5.45-.84.58-1.02.13-.19.29-.29.45-.31ZM46.35,34.99c.39-.05.62.12.67.52.05.37-.09.8-.42,1.29-.31.48-.63.74-.97.78-.17.02-.31-.02-.43-.13-.12-.1-.19-.23-.21-.4-.06-.42.12-.89.52-1.42.29-.39.58-.61.85-.64Z"/><path class="cls-1" d="M47.47,43.18c.1-.12.2-.24.29-.36,1.59-2.02,2.69-3.07,3.31-3.15.34-.04.53.12.58.49.03.26-.08.59-.33.99-1.41,2.16-2.01,3.98-1.82,5.47.06.48.25.92.57,1.32.15.18.23.33.25.45.01.1-.03.21-.12.32-.1.14-.22.22-.38.24-.36.05-.69-.14-.99-.56-.29-.4-.48-.9-.56-1.51-.16-1.18.12-2.54.82-4.08-1.08.92-2.01,2.4-2.78,4.46-.2.5-.45.76-.75.8-.15.02-.28-.02-.39-.11-.14-.11-.22-.25-.24-.45-.06-.47.31-1.77,1.12-3.91.43-1.16.78-2,1.05-2.53.27-.52.52-.8.75-.83.11-.02.23.02.35.11.14.11.22.24.24.39.02.19-.07.48-.27.87-.3.58-.53,1.1-.7,1.57Z"/><path class="cls-1" d="M56.09,44.41c-.22.54-.45,1.01-.68,1.39-.46.75-.96,1.16-1.5,1.24-.47.06-.87-.11-1.19-.52-.2-.27-.33-.59-.38-.99-.13-.97.04-2.08.49-3.32.51-1.39,1.2-2.49,2.06-3.32.57-.54,1.14-.84,1.73-.92.37-.05.69.02.96.22.24.17.37.39.4.64.03.19-.01.47-.12.83.16.17.24.32.26.46.02.18-.06.5-.25.95-.2.46-.37,1.06-.53,1.8-.17.79-.23,1.4-.17,1.86.05.37.2.65.45.86.07.05.26.13.58.23.23.08.36.24.4.51.02.17-.02.31-.13.43-.12.13-.26.21-.44.23-.47.06-.9-.09-1.3-.47-.32-.3-.52-.71-.59-1.23-.02-.17-.04-.46-.06-.87ZM57.15,39.9c-.13-.18-.26-.3-.4-.38-.13-.08-.27-.1-.41-.09-.66.09-1.3.76-1.93,2.02-.68,1.39-.97,2.53-.85,3.42.03.22.09.38.19.48.1.1.23.14.4.12.42-.05.85-.56,1.29-1.53.25-.53.54-1.3.88-2.31.22-.66.39-1.1.5-1.32.06-.11.17-.26.33-.43Z"/><path class="cls-1" d="M61.27,41.55c.73-1.03,1.6-2.05,2.6-3.07.36-.37.75-.71,1.17-1.04.21-.16.34-.25.41-.25.13-.02.27.06.43.24.09.09.14.19.16.27.02.16-.12.39-.41.71-.8.82-1.17,1.41-1.12,1.77.03.2.15.29.38.26.38-.05.98-.44,1.81-1.18.14-.13.27-.2.37-.21.07,0,.14.02.22.08.09.07.14.15.15.23.03.26-.28.71-.94,1.35-.69.68-1.38,1.06-2.07,1.15-.28.04-.55,0-.8-.12-.22-.1-.35-.3-.39-.61-.03-.22.03-.48.18-.78-.62.58-1.32,1.52-2.1,2.83-.44.8-.86,1.78-1.25,2.92-.15.43-.37.66-.67.7-.32.04-.5-.09-.54-.39-.04-.3.11-1.12.44-2.48.5-2.02,1.08-3.6,1.76-4.77.42-.72.8-1.1,1.14-1.15.11-.01.22,0,.33.06.12.07.2.17.21.3.02.13-.04.33-.19.58-.03.05-.22.37-.58.97-.32.57-.56,1.12-.7,1.65Z"/><path class="cls-1" d="M71.85,40.8c-.66,1.02-1.18,1.78-1.59,2.28-.8.99-1.5,1.53-2.12,1.61-.3.04-.55-.04-.75-.23-.15-.16-.25-.37-.28-.63-.12-.94.27-2.27,1.18-3.97.92-1.74,1.64-2.64,2.14-2.7.14-.02.27.03.39.13.11.08.17.19.19.32.03.19,0,.37-.08.52-.08.16-.33.51-.73,1.07-.43.58-.81,1.2-1.15,1.85-.39.74-.56,1.27-.52,1.58.02.18.12.26.3.24.35-.05.94-.61,1.77-1.68.52-.68.93-1.25,1.21-1.7.06-.1.31-.55.75-1.36.4-.72.65-1.15.75-1.28.22-.34.45-.52.67-.55.14-.02.27.03.4.13.12.1.19.22.21.37.03.25-.09.7-.36,1.34-.32.78-.62,1.5-.88,2.18-.42,1.05-.73,1.98-.92,2.78.52-.4.97-.86,1.37-1.39.68-.89,1.08-1.54,1.21-1.94.12-.37.27-.57.44-.59.24-.03.38.07.42.32.06.46-.24,1.2-.9,2.22-.8,1.22-1.83,2.31-3.11,3.26-.5,1.86-1,3.41-1.5,4.65-.94,2.3-2.06,3.53-3.35,3.7-.53.07-.99-.08-1.36-.44-.29-.28-.47-.66-.54-1.14-.18-1.36.59-2.88,2.31-4.55.5-.49,1.26-1.12,2.28-1.9.41-.31.73-.56.96-.75.1-.42.27-.98.51-1.69.26-.76.49-1.45.69-2.06ZM70.12,46.26c-.86.59-1.72,1.39-2.57,2.39-.86,1.03-1.24,1.93-1.13,2.7.02.17.09.3.2.4.15.14.33.2.54.17.65-.09,1.29-.87,1.9-2.34.1-.24.36-1.04.77-2.4.09-.28.18-.58.29-.92Z"/><path class="cls-1" d="M87.62,34.68c.63-1.94,1.25-3.63,1.84-5.08.58-1.41.98-2.3,1.2-2.67.25-.41.5-.64.76-.67.14-.02.27.02.4.12.12.1.19.21.21.35.03.2-.08.56-.31,1.06-1,2.21-1.88,4.43-2.66,6.67-.9,2.61-1.26,4.52-1.1,5.74.07.5.21.88.44,1.14.04.06.22.18.53.36.06.04.1.12.11.25.02.17-.02.34-.14.5-.12.16-.26.25-.42.27-.2.03-.44-.07-.71-.28-.39-.3-.66-.68-.79-1.12-.05-.19-.13-.54-.23-1.06-.7,1.77-1.46,2.71-2.29,2.81-.48.06-.9-.16-1.26-.66-.24-.33-.39-.72-.45-1.18-.18-1.36.14-2.79.95-4.3.8-1.49,1.77-2.31,2.91-2.46.31-.04.65.03,1.01.2ZM87.32,35.81c-.26-.13-.47-.18-.65-.15-.73.1-1.37.64-1.9,1.62-.71,1.28-.99,2.47-.85,3.56.02.13.06.25.13.36.13.2.3.29.51.26.3-.04.64-.39.99-1.04.48-.86.9-1.86,1.25-3,.13-.39.25-.78.37-1.17l.08-.26.06-.18Z"/><path class="cls-1" d="M91.04,39.44l.03.24c.03.19.09.35.21.48.26.29.64.41,1.14.34,1.09-.14,2.24-1.15,3.45-3.01.21-.32.41-.49.58-.52.1-.01.19.02.28.11.06.06.1.12.1.19.04.34-.3.97-1.03,1.89-.57.72-1.2,1.33-1.89,1.83s-1.35.79-1.99.87c-.65.09-1.2-.07-1.63-.48-.29-.28-.48-.69-.55-1.23-.19-1.47.31-3.01,1.51-4.6.97-1.3,1.88-2,2.71-2.11.23-.03.44.01.64.13.25.15.4.38.43.67.06.46-.08,1.06-.42,1.78-.7,1.51-1.89,2.65-3.59,3.41ZM91.2,38.38c.58-.29,1.03-.59,1.34-.9.55-.55.96-1.15,1.24-1.79.1-.23.14-.42.12-.59-.02-.17-.12-.25-.28-.23-.23.03-.53.24-.9.64-.67.7-1.18,1.65-1.52,2.86Z"/><path class="cls-1" d="M101.36,32.39c.69-.09,1.08.23,1.18.95.08.64-.08,1.31-.49,2.02-.32.54-.62.83-.91.86-.24.03-.38-.09-.42-.37-.02-.15,0-.27.06-.37.02-.04.11-.15.27-.34.14-.17.27-.41.4-.73.09-.22.12-.38.11-.51-.02-.14-.11-.2-.26-.18-.18.02-.44.2-.78.54-.53.54-1.03,1.34-1.49,2.4-.47,1.11-.67,1.96-.59,2.55.03.19.1.35.24.49.2.21.43.29.71.25.55-.07,1.15-.5,1.81-1.28.56-.67,1.02-1.32,1.38-1.96.18-.35.36-.54.52-.56.1-.01.19.02.28.1.08.08.13.16.14.25.04.32-.29,1-.99,2.05-1.12,1.64-2.22,2.53-3.29,2.67-.64.08-1.17-.08-1.57-.5-.29-.31-.46-.69-.52-1.15-.12-.91.12-2.01.71-3.3.57-1.24,1.29-2.27,2.15-3.09.5-.47.97-.74,1.38-.79Z"/><path class="cls-1" d="M108.95,31.05c.71-.09,1.13.29,1.24,1.17.15,1.16-.19,2.7-1.03,4.62-.91,2.08-1.92,3.19-3,3.34-.5.07-.91-.12-1.2-.56-.15-.22-.25-.49-.29-.83-.15-1.12.08-2.38.67-3.79.56-1.31,1.27-2.36,2.15-3.16.51-.47,1-.73,1.46-.79ZM108.25,36.17c-.24-.15-.37-.27-.38-.36,0-.07.11-.28.34-.63.67-.98.97-1.75.9-2.29,0-.07-.04-.14-.09-.2-.09-.12-.2-.17-.35-.15-.28.04-.65.36-1.12.97-.6.79-1.04,1.58-1.31,2.37-.32.9-.44,1.63-.36,2.19.02.15.08.27.17.38.13.14.29.2.46.18.42-.05.83-.43,1.22-1.12.17-.29.31-.58.4-.88.09-.3.14-.45.13-.46Z"/><path class="cls-1" d="M112.9,34.68c.63-.86,1.2-1.55,1.7-2.06.76-.77,1.28-1.17,1.57-1.2.14-.02.27.02.39.11.11.08.17.18.18.29.02.17-.09.46-.35.87-.39.66-.65,1.2-.78,1.65,1.77-2.32,3.03-3.52,3.78-3.62.16-.02.3,0,.42.09.14.09.21.21.23.37.03.24-.11.58-.44,1.02-1.42,1.92-2.06,3.42-1.92,4.51.06.44.18.75.36.92l.4.39c.08.07.13.17.14.29.02.14-.02.28-.12.41-.11.16-.25.25-.42.27-.29.04-.58-.11-.87-.44-.35-.4-.57-.89-.65-1.48-.1-.79.02-1.62.36-2.49.12-.31.33-.73.63-1.25-.67.66-1.32,1.52-1.96,2.6-.44.73-.81,1.53-1.12,2.41-.15.42-.36.65-.63.68-.3.04-.47-.11-.51-.44-.05-.36.1-1.13.44-2.31.2-.67.45-1.39.77-2.15-1.34,1.35-2.25,3.05-2.74,5.12-.12.46-.34.71-.65.75-.14.02-.26-.02-.36-.11-.11-.09-.17-.21-.19-.36-.07-.51.1-1.48.5-2.9.41-1.5.92-2.87,1.53-4.1.42-.86.77-1.31,1.06-1.35.26-.03.41.09.45.37.02.12-.1.45-.36.98-.45.99-.73,1.72-.86,2.19Z"/><path class="cls-1" d="M123.58,30.64c.33-.27.57-.47.74-.58.33-.22.67-.35,1.01-.4.38-.05.69.02.91.22.22.2.36.52.42.96.08.61-.04,1.37-.35,2.28-.48,1.44-1.15,2.61-1.98,3.51-.71.76-1.41,1.18-2.11,1.28-.38.05-.78-.05-1.2-.29-.88,2.57-1.62,5.17-2.23,7.81-.12.63-.32.96-.59,1-.13.02-.27-.05-.43-.21-.11-.11-.18-.24-.2-.39-.06-.47.31-2.08,1.12-4.82,1.25-4.23,2.5-7.76,3.75-10.61.26-.6.43-1.01.51-1.24.23-.61.49-.93.78-.97.3-.04.47.12.52.48.03.2-.04.48-.21.85-.2.47-.35.84-.46,1.12ZM121.35,36.45c.22.18.47.24.76.21.81-.11,1.61-.94,2.41-2.51.3-.58.52-1.16.66-1.75.12-.47.16-.81.13-1.04-.02-.16-.07-.27-.16-.34-.08-.07-.21-.09-.36-.07-.41.05-.87.4-1.39,1.05-.49.62-.94,1.47-1.33,2.53-.36.98-.6,1.62-.72,1.93Z"/><path class="cls-1" d="M131.72,28.05c.71-.09,1.13.29,1.24,1.17.15,1.16-.19,2.7-1.03,4.62-.91,2.08-1.92,3.19-3,3.33-.51.07-.91-.12-1.2-.56-.15-.22-.25-.49-.29-.83-.15-1.12.08-2.38.67-3.79.55-1.31,1.27-2.36,2.15-3.16.51-.47,1-.73,1.46-.79ZM131.01,33.17c-.24-.15-.37-.27-.38-.36,0-.07.1-.28.34-.63.67-.98.97-1.75.9-2.29,0-.07-.04-.14-.09-.2-.09-.12-.21-.17-.35-.15-.28.04-.65.36-1.12.97-.61.79-1.04,1.58-1.31,2.37-.32.9-.44,1.63-.36,2.19.02.15.08.27.17.38.13.14.29.2.46.18.42-.06.83-.43,1.22-1.12.17-.29.31-.58.4-.88.09-.3.14-.45.13-.46Z"/><path class="cls-1" d="M138.85,26.86c.54-.07.96-.03,1.25.13.3.16.47.43.52.82.07.51-.06,1.04-.38,1.57-.31.5-.81.94-1.5,1.32-.38.2-.71.32-.98.35-.37.05-.57-.09-.61-.41-.03-.22.05-.4.25-.54.05-.03.33-.15.86-.34.31-.11.59-.3.83-.57.21-.23.3-.46.27-.7-.02-.18-.09-.31-.21-.38-.12-.07-.28-.1-.49-.07-.51.07-1.04.35-1.59.83-.65.55-.93,1.15-.84,1.79.06.45.37.99.92,1.61.61.67.95,1.27,1.02,1.78.1.77-.16,1.41-.78,1.94-.38.33-.84.52-1.37.59-.84.11-1.51-.11-2.03-.65-.36-.39-.58-.87-.66-1.46-.09-.68,0-1.27.3-1.78.19-.33.4-.52.64-.55.22-.03.34.04.36.22,0,.07-.02.18-.08.33-.15.4-.19.85-.13,1.36.06.43.26.77.6,1.02.31.23.63.32.98.27.34-.04.59-.19.75-.44.13-.21.18-.47.14-.76-.05-.37-.32-.81-.82-1.34-.68-.73-1.07-1.42-1.15-2.07-.12-.87.26-1.71,1.12-2.5.84-.77,1.77-1.22,2.8-1.35Z"/><path class="cls-1" d="M143.2,27.15c.15-.02.28.02.39.12.08.09.13.18.14.27.02.16-.07.44-.28.83-.72,1.52-1.21,2.76-1.48,3.72-.29.99-.52,1.99-.71,3.02-.08.45-.27.7-.57.74-.17.02-.32-.03-.45-.15-.11-.1-.17-.22-.19-.35-.03-.26.13-1.17.49-2.72.28-1.23.82-2.61,1.61-4.15.25-.5.45-.84.58-1.02.14-.19.29-.29.45-.31ZM145.04,21.97c.39-.05.61.12.67.52.05.37-.09.8-.41,1.29-.31.48-.63.74-.97.78-.17.02-.31-.02-.43-.13-.12-.1-.19-.23-.21-.4-.05-.42.12-.89.52-1.42.29-.39.58-.61.85-.64Z"/><path class="cls-1" d="M148.01,25.91c-.45.95-.84,2.01-1.18,3.16-.48,1.64-.67,2.85-.57,3.61.03.22.1.38.2.48.11.1.25.14.43.12.44-.06.91-.54,1.42-1.44.33-.56.61-1.11.85-1.65.13-.31.29-.48.48-.5.11-.02.21.01.3.08.08.07.12.14.14.22.04.32-.29,1.1-.98,2.32-.83,1.48-1.67,2.27-2.5,2.38-.44.06-.84-.1-1.19-.47-.22-.24-.36-.6-.42-1.07-.14-1.05,0-2.32.43-3.81.1-.37.4-1.26.9-2.68-.23.09-.4.15-.52.16-.18.02-.35,0-.5-.07-.21-.1-.32-.24-.35-.42-.03-.22.07-.41.31-.57.07-.04.38-.14.95-.3.2-.06.5-.19.88-.37.23-.59.63-1.4,1.19-2.43.31-.57.54-.95.66-1.12.18-.25.35-.38.51-.4.11-.01.23.03.36.14.12.1.19.21.2.32.03.23-.15.71-.55,1.44-.27.48-.46.86-.58,1.15.93-.39,1.61-.61,2.03-.67.48-.06.75.11.8.51.03.2-.04.36-.19.48-.08.06-.3.14-.66.22-.15.01-.79.26-1.91.76-.31.14-.62.28-.92.43Z"/><path class="cls-1" d="M153.26,25.82c.15-.02.28.02.39.12.08.09.13.18.14.27.02.16-.07.44-.28.83-.72,1.52-1.21,2.76-1.48,3.72-.29.99-.52,1.99-.71,3.02-.08.45-.27.7-.57.74-.17.02-.32-.03-.45-.15-.11-.1-.17-.22-.19-.35-.03-.26.13-1.17.49-2.72.28-1.23.82-2.61,1.61-4.15.25-.5.45-.84.58-1.02.13-.19.29-.29.45-.31ZM155.11,20.64c.39-.05.61.12.67.52.05.37-.09.8-.41,1.29-.31.48-.63.74-.97.78-.17.02-.31-.02-.43-.13-.12-.1-.19-.23-.21-.4-.05-.42.12-.89.52-1.42.29-.39.58-.61.85-.64Z"/><path class="cls-1" d="M158.33,24.54c.71-.09,1.13.29,1.24,1.17.15,1.16-.19,2.7-1.03,4.62-.91,2.08-1.92,3.19-3,3.34-.51.07-.91-.12-1.2-.56-.15-.22-.25-.49-.3-.83-.15-1.12.08-2.38.67-3.78.55-1.31,1.27-2.36,2.15-3.16.51-.47,1-.73,1.46-.79ZM157.63,29.66c-.24-.15-.37-.27-.38-.36,0-.07.1-.28.34-.63.67-.98.97-1.75.89-2.29,0-.07-.04-.14-.09-.2-.09-.12-.21-.17-.35-.15-.28.04-.65.36-1.12.97-.61.79-1.04,1.58-1.31,2.37-.32.9-.44,1.63-.36,2.19.02.15.08.27.17.38.13.14.29.2.46.18.42-.06.83-.43,1.22-1.12.17-.29.31-.58.4-.88.09-.3.14-.45.13-.46Z"/><path class="cls-1" d="M162.43,28.01c.1-.12.2-.24.29-.36,1.59-2.02,2.69-3.07,3.31-3.15.34-.04.53.12.58.5.03.26-.08.59-.33.99-1.41,2.16-2.01,3.98-1.82,5.47.06.48.25.92.57,1.32.15.18.23.33.25.45.01.1-.03.21-.12.32-.1.14-.22.22-.38.24-.36.05-.69-.14-.99-.56-.29-.4-.48-.9-.56-1.51-.16-1.18.12-2.54.82-4.08-1.08.91-2.01,2.4-2.78,4.46-.2.5-.45.76-.75.8-.15.02-.28-.02-.39-.11-.14-.11-.22-.25-.24-.45-.06-.47.31-1.77,1.12-3.91.43-1.16.78-2,1.05-2.53.27-.52.52-.8.75-.83.11-.01.23.02.35.11.14.11.22.24.24.39.02.19-.07.48-.27.87-.29.58-.53,1.1-.7,1.57Z"/><path class="cls-1" d="M173.15,13.59c.41-.05.65.18.72.69.1.79-.2,1.89-.91,3.28-.29.57-.65,1.1-1.08,1.61-.28.33-.51.51-.7.53-.18.02-.34-.04-.48-.19-.09-.09-.15-.21-.17-.35-.03-.19.13-.48.46-.87.93-1.16,1.39-2.44,1.4-3.83.01-.26.1-.47.28-.63.16-.14.32-.22.49-.24ZM176.18,13.19c.41-.05.65.18.72.69.1.79-.2,1.89-.91,3.28-.29.57-.65,1.1-1.08,1.61-.28.33-.51.51-.7.53-.18.02-.34-.04-.48-.19-.09-.09-.15-.21-.17-.35-.03-.19.13-.48.46-.87.94-1.16,1.4-2.44,1.4-3.83.01-.26.1-.47.28-.63.16-.14.32-.22.49-.24Z"/></svg>