<?xml version="1.0" encoding="UTF-8"?><svg id="Layer_1" xmlns="http://www.w3.org/2000/svg" viewBox="0 0 376.53 213.78"><defs><style>.cls-1{stroke:#4d4d4d;}.cls-1,.cls-2{fill:none;stroke-linecap:round;stroke-miterlimit:10;}.cls-3{fill:#4d4d4d;}.cls-2{stroke:#ccc;}</style></defs><line class="cls-2" x1="43.53" y1="72.5" x2="43.53" y2="175.61"/><line class="cls-2" x1="48.54" y1="72.5" x2="48.54" y2="175.61"/><line class="cls-2" x1="53.68" y1="72.5" x2="53.68" y2="175.61"/><line class="cls-2" x1="58.8" y1="72.5" x2="58.8" y2="175.61"/><line class="cls-2" x1="68.92" y1="72.5" x2="68.92" y2="175.61"/><line class="cls-2" x1="63.77" y1="72.5" x2="63.77" y2="175.61"/><line class="cls-2" x1="38.39" y1="72.5" x2="38.39" y2="175.61"/><line class="cls-2" x1="99.36" y1="72.5" x2="99.36" y2="175.61"/><line class="cls-2" x1="89.14" y1="72.5" x2="89.14" y2="175.61"/><line class="cls-2" x1="109.44" y1="72.5" x2="109.44" y2="175.61"/><line class="cls-2" x1="84.07" y1="72.5" x2="84.07" y2="175.61"/><line class="cls-2" x1="104.43" y1="72.5" x2="104.43" y2="175.61"/><line class="cls-2" x1="78.99" y1="72.5" x2="78.99" y2="175.61"/><line class="cls-2" x1="73.99" y1="72.5" x2="73.99" y2="175.61"/><line class="cls-2" x1="114.57" y1="72.5" x2="114.57" y2="175.61"/><line class="cls-2" x1="134.89" y1="72.5" x2="134.89" y2="175.61"/><line class="cls-2" x1="129.74" y1="72.5" x2="129.74" y2="175.61"/><line class="cls-2" x1="119.75" y1="72.5" x2="119.75" y2="175.61"/><line class="cls-2" x1="145.01" y1="72.5" x2="145.01" y2="175.61"/><line class="cls-2" x1="124.67" y1="72.5" x2="124.67" y2="175.61"/><line class="cls-2" x1="94.22" y1="72.5" x2="94.22" y2="175.61"/><line class="cls-2" x1="139.89" y1="72.5" x2="139.89" y2="175.61"/><line class="cls-2" x1="155.12" y1="72.5" x2="155.12" y2="175.61"/><line class="cls-2" x1="170.35" y1="72.5" x2="170.35" y2="175.61"/><line class="cls-2" x1="185.64" y1="72.5" x2="185.64" y2="175.61"/><line class="cls-2" x1="180.5" y1="72.5" x2="180.5" y2="175.61"/><line class="cls-2" x1="175.42" y1="72.5" x2="175.42" y2="175.61"/><line class="cls-2" x1="150.14" y1="72.5" x2="150.14" y2="175.61"/><line class="cls-2" x1="165.32" y1="72.5" x2="165.32" y2="175.61"/><line class="cls-2" x1="160.27" y1="72.5" x2="160.27" y2="175.61"/><line class="cls-2" x1="195.72" y1="72.5" x2="195.72" y2="175.61"/><line class="cls-2" x1="200.86" y1="72.5" x2="200.86" y2="175.61"/><line class="cls-2" x1="205.94" y1="72.5" x2="205.94" y2="175.61"/><line class="cls-2" x1="211" y1="72.5" x2="211" y2="175.61"/><line class="cls-2" x1="221.16" y1="72.5" x2="221.16" y2="175.61"/><line class="cls-2" x1="216.02" y1="72.5" x2="216.02" y2="175.61"/><line class="cls-2" x1="190.76" y1="72.5" x2="190.76" y2="175.61"/><line class="cls-2" x1="251.55" y1="72.5" x2="251.55" y2="175.61"/><line class="cls-2" x1="241.4" y1="72.5" x2="241.4" y2="175.61"/><line class="cls-2" x1="261.76" y1="72.5" x2="261.76" y2="175.61"/><line class="cls-2" x1="236.39" y1="72.44" x2="236.39" y2="175.54"/><line class="cls-2" x1="256.69" y1="72.5" x2="256.69" y2="175.61"/><line class="cls-2" x1="231.25" y1="72.5" x2="231.25" y2="175.61"/><line class="cls-2" x1="226.17" y1="72.5" x2="226.17" y2="175.61"/><line class="cls-2" x1="266.77" y1="72.5" x2="266.77" y2="175.61"/><line class="cls-2" x1="287.13" y1="72.44" x2="287.13" y2="175.55"/><line class="cls-2" x1="282.23" y1="72.5" x2="282.23" y2="175.61"/><line class="cls-2" x1="271.85" y1="72.5" x2="271.85" y2="175.61"/><line class="cls-2" x1="297.3" y1="72.5" x2="297.3" y2="175.61"/><line class="cls-2" x1="276.99" y1="72.5" x2="276.99" y2="175.61"/><line class="cls-2" x1="246.54" y1="72.5" x2="246.54" y2="175.61"/><line class="cls-2" x1="292.15" y1="72.5" x2="292.15" y2="175.61"/><line class="cls-2" x1="307.44" y1="72.5" x2="307.44" y2="175.61"/><line class="cls-2" x1="322.66" y1="72.44" x2="322.66" y2="175.55"/><line class="cls-2" x1="337.83" y1="72.5" x2="337.83" y2="175.61"/><line class="cls-2" x1="332.75" y1="72.5" x2="332.75" y2="175.61"/><line class="cls-2" x1="327.68" y1="72.5" x2="327.68" y2="175.61"/><line class="cls-2" x1="302.37" y1="72.43" x2="302.37" y2="175.53"/><line class="cls-2" x1="317.58" y1="72.5" x2="317.58" y2="175.61"/><line class="cls-2" x1="312.45" y1="72.5" x2="312.45" y2="175.61"/><line class="cls-2" x1="342.9" y1="72.5" x2="342.9" y2="175.61"/><line class="cls-2" x1="347.98" y1="72.5" x2="347.98" y2="175.61"/><line class="cls-2" x1="33.38" y1="72.5" x2="33.38" y2="175.61"/><path class="cls-3" d="M255.69,40.43c-1.33.18-2.26.25-2.79.21-.36-.03-.52-.16-.5-.39,0-.12.06-.21.14-.29.08-.08.18-.11.28-.1.04,0,.11.01.2.03.06.02.13.03.22.03.3.02.7.02,1.21-.02.64-.05,1.11-.1,1.42-.16.17-.03.32-.04.43-.03.26.02.38.17.36.46-.02.19-.15.4-.39.62-1.82,1.66-3.27,3.32-4.36,4.98-.26.4-.43.64-.5.71-.13.13-.26.19-.39.18-.07,0-.13-.04-.18-.1-.06-.07-.09-.14-.08-.22.02-.25.3-.74.83-1.48.7-.97,1.54-1.94,2.51-2.92.58-.59,1.11-1.09,1.61-1.51Z"/><path class="cls-3" d="M255.93,46.04c.84-.19,1.6-.26,2.29-.21.27.02.48.09.64.22.14.11.2.23.19.38,0,.09-.05.17-.12.24-.07.07-.15.1-.24.09-.03,0-.07-.01-.13-.03-.25-.09-.47-.14-.68-.16-.18-.01-.4-.01-.67,0-.09,0-.44.07-1.04.18-.54.1-.85.14-.95.14-.14-.01-.25-.09-.34-.23-.08-.13-.12-.26-.11-.39.01-.15.15-.33.43-.56.51-.43,1.01-.81,1.48-1.15.45-.32,1-.68,1.65-1.09.75-.46,1.26-.8,1.55-1.02.43-.32.66-.65.68-1,.02-.19-.03-.35-.15-.47-.1-.11-.24-.17-.41-.18-.44-.04-.97.17-1.61.61-.29.2-.47.3-.54.29-.05,0-.1-.04-.16-.1-.06-.06-.09-.14-.08-.22.01-.17.25-.41.69-.69.72-.46,1.39-.67,2.01-.62.35.03.64.17.86.42.21.24.3.51.28.82-.04.54-.36,1.06-.96,1.55-.26.21-.72.53-1.4.95-1.62,1-2.68,1.74-3.16,2.24Z"/><path class="cls-3" d="M264.29,44.47c-.06.12-.23.41-.5.88-.46.9-.74,1.49-.85,1.77-.06.16-.12.27-.19.33-.06.06-.15.08-.27.07-.12,0-.22-.06-.28-.15-.06-.08-.09-.18-.08-.28.03-.37.43-1.22,1.19-2.58-.72.02-1.28.1-1.7.24-.14.04-.25.06-.33.05-.19-.02-.28-.18-.25-.48.01-.18.1-.35.25-.51.3-.29.8-.74,1.5-1.33.86-.72,1.64-1.3,2.32-1.74.59-.38,1.01-.56,1.26-.54.11,0,.21.06.3.16.07.08.1.17.09.26,0,.12-.1.29-.26.52-.03.04-.21.29-.54.74-.42.58-.83,1.19-1.21,1.83.34,0,.57.02.68.03.29.02.42.14.4.36-.02.19-.1.32-.27.39-.07.03-.28.03-.62,0-.1,0-.31-.02-.64-.03ZM263.79,43.75c.61-.99,1.19-1.81,1.72-2.47-.53.25-1.19.69-1.97,1.34-.56.47-1.02.89-1.36,1.25.72-.09,1.25-.13,1.61-.12Z"/><path class="cls-3" d="M266.15,46.86c.84-.19,1.6-.26,2.29-.21.27.02.48.09.64.22.14.11.2.23.19.38,0,.09-.05.17-.12.24-.07.07-.15.1-.24.09-.03,0-.07-.01-.13-.03-.25-.09-.47-.14-.68-.16-.18-.01-.4-.02-.67,0-.09,0-.44.07-1.04.18-.54.1-.85.15-.95.14-.14-.01-.25-.09-.34-.23-.08-.13-.12-.26-.11-.39.01-.15.15-.33.43-.56.51-.43,1.01-.81,1.48-1.15.45-.32,1-.68,1.65-1.09.75-.46,1.26-.8,1.55-1.02.43-.32.66-.65.68-1,.02-.19-.04-.35-.15-.47-.1-.11-.24-.17-.41-.18-.44-.04-.97.17-1.61.61-.29.2-.47.3-.54.29-.05,0-.1-.04-.16-.1-.06-.06-.09-.14-.09-.22.01-.17.25-.41.69-.69.72-.46,1.39-.67,2.01-.62.36.03.64.17.86.42.21.24.3.51.28.82-.04.54-.36,1.06-.96,1.55-.26.21-.72.53-1.4.95-1.62,1-2.68,1.74-3.16,2.24Z"/><path class="cls-3" d="M274.52,45.29c-.06.12-.23.41-.5.88-.46.9-.74,1.49-.85,1.77-.06.16-.12.27-.19.33-.06.06-.15.08-.27.07-.12,0-.21-.06-.28-.15-.06-.08-.09-.18-.08-.28.03-.37.43-1.22,1.19-2.58-.72.02-1.28.1-1.7.24-.14.04-.24.06-.33.05-.19-.02-.28-.18-.25-.48.01-.18.1-.35.25-.51.3-.29.8-.74,1.5-1.33.86-.72,1.64-1.3,2.32-1.74.59-.38,1.01-.56,1.26-.54.11,0,.21.06.3.16.07.08.1.17.09.26,0,.12-.1.29-.26.52-.03.04-.21.29-.54.74-.42.58-.83,1.19-1.21,1.83.34,0,.57.02.68.03.29.02.42.14.4.36-.02.19-.1.32-.27.39-.07.03-.28.03-.62,0-.1,0-.31-.02-.64-.03ZM274.01,44.57c.61-.99,1.19-1.81,1.72-2.47-.53.25-1.19.69-1.97,1.34-.56.47-1.02.89-1.36,1.25.72-.09,1.25-.13,1.61-.12Z"/><path class="cls-3" d="M276.37,47.69c.84-.19,1.6-.26,2.29-.21.27.02.48.09.64.22.14.11.2.23.19.38,0,.09-.05.17-.12.24-.07.07-.15.1-.24.09-.03,0-.07-.01-.13-.03-.25-.09-.47-.14-.68-.16-.18-.01-.4-.02-.67,0-.09,0-.44.07-1.04.18-.54.1-.85.14-.95.14-.14-.01-.25-.09-.34-.23-.08-.13-.12-.26-.11-.39.01-.15.15-.33.43-.56.51-.43,1.01-.81,1.48-1.15.45-.32,1-.68,1.65-1.09.75-.46,1.26-.8,1.55-1.02.43-.32.66-.65.68-1,.02-.19-.04-.35-.15-.47-.1-.11-.24-.17-.41-.18-.44-.04-.97.17-1.61.61-.29.2-.47.3-.54.29-.05,0-.1-.04-.16-.1-.06-.06-.09-.14-.08-.22.01-.17.25-.41.69-.69.72-.46,1.39-.67,2.01-.62.36.03.64.17.86.41.21.24.3.51.28.82-.04.54-.36,1.06-.96,1.55-.26.21-.72.53-1.4.95-1.62,1-2.68,1.74-3.16,2.24Z"/><path class="cls-3" d="M284.94,45.94c-.7.28-1.25.4-1.64.37-.38-.03-.67-.22-.86-.55-.14-.24-.2-.52-.18-.84.07-.84.5-1.61,1.31-2.32.73-.65,1.46-.94,2.17-.88.41.03.73.2.95.51.19.27.28.59.25.98-.07.84-.45,1.77-1.13,2.78-.37.55-.94,1.18-1.7,1.89-.85.8-1.39,1.2-1.64,1.18-.07,0-.13-.04-.18-.1-.04-.06-.06-.12-.06-.18,0-.12.12-.25.33-.4.97-.69,1.76-1.49,2.37-2.42ZM285.44,45.11c.4-.67.61-1.24.65-1.7.03-.33-.01-.58-.12-.76-.11-.17-.28-.27-.52-.29-.5-.04-1.01.21-1.54.75-.52.53-.8,1.08-.84,1.64-.02.25.02.45.13.58.11.14.28.21.52.23.32.03.71-.04,1.16-.2.34-.13.53-.22.56-.26Z"/><path class="cls-3" d="M291.16,42.9c.25.12.44.3.55.54.11.24.15.53.12.88-.09,1.08-.6,2.2-1.55,3.36-1.03,1.25-1.96,1.85-2.8,1.78-.42-.03-.71-.28-.89-.73-.11-.29-.15-.64-.12-1.04.08-.96.51-1.95,1.3-2.97.41-.52.95-1.05,1.62-1.58.7-.55,1.19-.82,1.48-.79.22.02.31.2.29.54ZM290.17,43.35c-.61.42-1.16.95-1.65,1.59-.71.91-1.09,1.82-1.17,2.72-.02.27,0,.48.06.64.1.24.26.37.48.39.34.03.76-.2,1.27-.68.57-.53,1.03-1.2,1.4-2,.28-.61.44-1.13.47-1.56.02-.3-.05-.57-.21-.8-.11-.16-.28-.25-.48-.28-.05,0-.1,0-.15-.01Z"/><path class="cls-3" d="M296.58,43.72c-1.33.18-2.26.25-2.79.21-.35-.03-.52-.16-.5-.39,0-.12.06-.21.14-.29s.18-.11.28-.1c.04,0,.11.01.2.03.06.01.13.03.22.03.3.02.7.02,1.21-.02.64-.05,1.11-.1,1.42-.16.17-.03.32-.04.43-.03.26.02.38.17.36.46-.02.19-.14.4-.39.62-1.82,1.66-3.27,3.32-4.36,4.98-.26.4-.43.64-.5.71-.13.13-.26.19-.39.18-.07,0-.13-.04-.18-.09-.06-.07-.09-.14-.08-.22.02-.25.3-.74.83-1.48.71-.97,1.54-1.94,2.51-2.92.58-.59,1.11-1.09,1.61-1.51Z"/><path class="cls-3" d="M300.39,46.01c.23.12.4.25.49.38.14.19.19.45.17.77-.06.79-.46,1.53-1.18,2.21-.73.68-1.44.99-2.15.93-.43-.04-.77-.24-1.02-.63-.17-.27-.25-.57-.22-.88.04-.52.26-.76.66-.73.24.02.35.12.34.3,0,.04-.01.09-.03.15-.02.08-.04.16-.04.25-.02.23.02.41.13.54.12.14.26.22.43.23.41.03.88-.22,1.41-.76.5-.52.77-1.03.81-1.53.02-.25-.02-.46-.13-.61-.12-.17-.29-.26-.53-.28-.09,0-.19,0-.28.02-.11.03-.2.04-.26.03-.14-.01-.2-.11-.19-.3.01-.17.08-.3.2-.4.07-.06.21-.11.42-.14.41-.07.77-.18,1.06-.34.19-.1.35-.25.47-.43.06-.1.1-.2.11-.31.01-.14-.02-.25-.09-.32-.07-.08-.18-.12-.34-.13-.26-.02-.54.03-.83.14-.08.03-.26.11-.54.26-.08.04-.16.06-.25.05-.17-.01-.24-.11-.23-.29.01-.16.15-.32.41-.47.6-.36,1.18-.51,1.72-.47.33.03.59.15.8.37.22.23.32.5.3.79-.03.39-.23.75-.6,1.07-.2.18-.53.36-.99.54Z"/><path class="cls-3" d="M303.72,46.51c.75-.21,1.29-.3,1.62-.27.4.03.69.17.86.42.15.21.22.48.19.8-.07.83-.5,1.61-1.31,2.34-.74.68-1.46.99-2.17.94-.45-.04-.79-.26-1.04-.67-.19-.32-.27-.68-.24-1.08.07-.87.48-1.73,1.22-2.6.64-.75,1.53-1.42,2.66-2.01.34-.18.59-.3.75-.37.15-.06.29-.09.41-.08.19.01.27.1.26.26-.01.15-.12.26-.32.36-1.06.46-2.02,1.11-2.91,1.96ZM303.05,47.36c-.34.47-.53.94-.57,1.42-.03.32.03.59.15.84.13.25.32.38.56.4.34.03.7-.1,1.08-.4.38-.29.71-.7.97-1.23.17-.33.26-.62.28-.87.02-.18-.03-.34-.13-.46-.11-.14-.27-.21-.47-.23-.33-.03-.73.05-1.22.23-.13.04-.28.11-.45.19-.13.06-.2.1-.21.12Z"/><path class="cls-3" d="M310.95,45.18c-.36.23-.72.42-1.07.58-.48.21-.8.31-.94.3-.16-.01-.22-.14-.2-.39,0-.09.03-.16.08-.22.04-.05.14-.1.29-.15.45-.15,1.12-.45,2-.91.4-.21.68-.31.83-.29.1,0,.19.07.27.18.05.07.07.15.06.22,0,.12-.12.32-.33.6-1.59,2.17-2.71,3.88-3.35,5.13-.16.31-.27.5-.33.57-.1.12-.2.18-.29.18-.09,0-.18-.07-.25-.19-.04-.07-.06-.14-.06-.21.02-.26.47-1.1,1.33-2.51.81-1.33,1.47-2.28,1.98-2.88Z"/><path class="cls-3" d="M312.15,50.56c.84-.19,1.6-.26,2.29-.21.27.02.48.09.64.22.14.11.2.23.19.38,0,.09-.05.17-.12.24-.07.07-.15.1-.24.09-.03,0-.07-.01-.13-.03-.25-.09-.47-.14-.68-.16-.18-.01-.4-.02-.67,0-.09,0-.44.07-1.04.18-.54.1-.85.14-.95.14-.14-.01-.25-.09-.34-.23-.08-.13-.12-.26-.11-.39.01-.15.15-.33.43-.56.51-.43,1.01-.81,1.48-1.15.45-.32,1-.68,1.65-1.09.75-.46,1.26-.8,1.55-1.02.43-.32.66-.65.68-1,.02-.19-.04-.35-.15-.48-.1-.11-.24-.17-.41-.18-.44-.04-.97.17-1.61.61-.29.2-.47.3-.54.29-.05,0-.1-.04-.16-.1-.06-.06-.09-.14-.08-.22.01-.17.25-.41.69-.69.72-.46,1.39-.67,2.01-.62.36.03.64.17.86.41.21.24.3.51.28.82-.04.54-.36,1.06-.96,1.55-.26.21-.72.53-1.4.95-1.62,1-2.68,1.74-3.16,2.24Z"/><path class="cls-3" d="M321.82,45.36c.25.12.44.3.55.54.11.24.15.53.12.88-.09,1.09-.6,2.21-1.55,3.36-1.03,1.25-1.96,1.85-2.8,1.78-.42-.03-.72-.28-.89-.73-.11-.29-.15-.64-.12-1.04.08-.96.51-1.95,1.3-2.97.41-.52.95-1.05,1.62-1.58.7-.55,1.19-.81,1.48-.79.22.02.31.2.29.54ZM320.83,45.81c-.61.42-1.16.95-1.65,1.59-.71.91-1.09,1.82-1.17,2.72-.02.27,0,.48.06.64.1.24.26.37.48.39.34.03.76-.2,1.27-.68.57-.53,1.03-1.2,1.4-2,.28-.61.44-1.13.47-1.56.02-.3-.05-.57-.21-.8-.11-.16-.28-.25-.48-.28-.05,0-.1,0-.15-.01Z"/><path class="cls-3" d="M326.08,46.13c-.88.65-1.46,1.22-1.73,1.71.5-.16.92-.22,1.26-.19.39.03.69.17.9.42.19.24.27.53.25.88-.06.8-.51,1.58-1.34,2.34-.82.75-1.59,1.1-2.32,1.04-.42-.03-.73-.25-.93-.66-.13-.28-.18-.58-.15-.91.03-.34.12-.61.29-.81.14-.17.3-.25.49-.23.18.01.26.09.25.22,0,.03-.02.08-.06.17-.06.14-.1.33-.12.56-.02.21.02.4.1.56.11.23.28.35.51.37.44.04.92-.2,1.44-.71.57-.56.89-1.14.93-1.74.02-.25-.02-.44-.12-.57-.1-.13-.27-.21-.5-.23-.22-.02-.5.02-.83.11-.08.02-.26.09-.55.22-.06.03-.12.04-.17.04-.09,0-.18-.07-.26-.2-.09-.14-.13-.26-.12-.37.02-.2.26-.57.73-1.11.3-.34.66-.69,1.08-1.03-.09-.16-.14-.27-.13-.35,0-.11.09-.19.25-.22.07-.02.35-.04.84-.07.55-.03.99-.03,1.32,0,.32.03.55.07.69.12.17.06.25.19.23.37-.02.22-.14.33-.36.31-.05,0-.15-.02-.29-.04-.05,0-.1-.02-.17-.02-.23-.02-.46-.03-.69-.02-.23,0-.46.02-.68.04Z"/><path class="cls-3" d="M331.19,46.54c-.88.65-1.46,1.22-1.73,1.71.5-.16.92-.22,1.26-.19.39.03.69.17.9.42.19.24.27.53.25.88-.06.8-.51,1.58-1.34,2.34-.82.75-1.59,1.1-2.32,1.04-.42-.03-.73-.25-.93-.66-.13-.28-.18-.58-.16-.91.03-.33.12-.6.29-.81.14-.17.3-.25.49-.23.17.01.26.09.25.22,0,.03-.02.08-.06.16-.06.14-.1.33-.12.56-.02.21.02.4.1.56.11.23.28.35.51.37.44.04.92-.2,1.44-.72.57-.56.89-1.14.93-1.74.02-.25-.02-.44-.12-.57-.1-.13-.27-.21-.5-.23-.22-.02-.5.02-.83.11-.08.02-.26.09-.55.22-.06.03-.12.04-.17.04-.09,0-.18-.07-.26-.2-.09-.14-.13-.26-.12-.37.02-.2.26-.57.73-1.11.3-.34.66-.69,1.08-1.03-.09-.15-.14-.27-.13-.35,0-.11.09-.19.25-.22.08-.02.35-.04.84-.06.55-.03.99-.03,1.32,0,.32.03.55.07.69.12.17.06.25.19.24.37-.02.22-.14.33-.36.31-.05,0-.15-.02-.29-.04-.05,0-.1-.02-.17-.02-.23-.02-.46-.03-.69-.02-.23,0-.46.02-.68.04Z"/><path class="cls-3" d="M336.05,50.05c-.7.28-1.25.4-1.64.37-.38-.03-.67-.22-.86-.55-.14-.24-.2-.52-.17-.84.07-.84.5-1.61,1.31-2.32.73-.65,1.46-.94,2.17-.88.41.03.73.2.95.51.19.27.28.59.24.98-.07.84-.45,1.77-1.13,2.78-.37.55-.94,1.18-1.69,1.89-.85.8-1.39,1.2-1.64,1.18-.07,0-.13-.04-.18-.1-.04-.06-.06-.12-.06-.18,0-.12.12-.25.33-.4.97-.69,1.76-1.49,2.37-2.42ZM336.55,49.22c.4-.67.61-1.24.65-1.7.03-.33-.01-.58-.12-.76-.11-.17-.28-.27-.52-.29-.5-.04-1.01.21-1.54.75-.52.53-.8,1.08-.84,1.64-.02.25.02.45.13.58.11.14.28.21.52.23.32.03.71-.04,1.16-.2.34-.13.53-.22.56-.26Z"/><path class="cls-3" d="M341.16,50.46c-.7.28-1.25.4-1.64.37-.38-.03-.67-.22-.86-.55-.14-.24-.2-.52-.17-.84.07-.84.5-1.61,1.31-2.32.73-.65,1.46-.94,2.17-.88.41.03.73.2.95.51.19.26.28.59.25.97-.07.84-.45,1.77-1.13,2.78-.37.55-.94,1.18-1.7,1.89-.85.8-1.39,1.2-1.64,1.18-.07,0-.13-.04-.18-.1-.04-.06-.06-.12-.06-.18,0-.12.12-.25.33-.4.97-.69,1.76-1.49,2.37-2.42ZM341.66,49.63c.4-.67.61-1.24.65-1.7.03-.33-.01-.58-.12-.76-.11-.18-.28-.27-.52-.29-.5-.04-1.01.21-1.54.75-.52.53-.8,1.08-.85,1.64-.02.25.02.45.13.58.11.14.28.21.52.23.32.03.71-.04,1.15-.2.34-.13.53-.22.56-.26Z"/><path class="cls-3" d="M345.35,49.49c-.2-.23-.33-.41-.41-.55-.12-.21-.16-.44-.15-.67.04-.51.33-.91.87-1.22.46-.26.95-.37,1.47-.33.38.03.67.17.87.42.18.22.26.47.23.76-.03.43-.28.82-.72,1.15-.24.18-.57.39-1,.62.23.27.4.54.51.79.11.26.15.5.13.73-.04.46-.23.9-.57,1.32-.37.46-.82.81-1.36,1.07-.54.26-1.08.37-1.61.33-.46-.04-.82-.23-1.09-.59-.2-.27-.29-.55-.26-.85.06-.79.61-1.52,1.65-2.19.54-.35,1.02-.62,1.44-.8ZM345.81,50.03c-.61.25-1.13.55-1.56.89-.61.48-.93.96-.97,1.45-.02.28.05.49.21.63.17.14.35.21.55.23.27.02.57-.04.88-.18.31-.14.58-.34.82-.6.34-.37.53-.78.57-1.21.02-.3-.05-.59-.21-.86-.04-.06-.1-.14-.18-.24-.06-.07-.1-.11-.1-.11ZM346.08,49.11c.3-.14.57-.3.79-.48.28-.24.43-.47.45-.7.01-.15-.02-.27-.11-.38-.09-.12-.22-.19-.39-.21-.28-.02-.55.06-.81.24-.22.15-.34.34-.36.57-.01.16.06.37.22.63l.21.33Z"/><path class="cls-3" d="M29.47,184.14c.26.1.46.27.59.49.13.23.19.52.19.87,0,1.09-.42,2.25-1.27,3.47-.92,1.33-1.81,2-2.65,2-.42,0-.73-.22-.94-.65-.14-.28-.21-.62-.21-1.03,0-.97.35-1.99,1.06-3.06.37-.55.86-1.12,1.49-1.71.65-.61,1.13-.91,1.41-.91.22,0,.33.17.33.52ZM28.52,184.66c-.57.47-1.08,1.04-1.52,1.71-.63.97-.94,1.9-.94,2.81,0,.27.04.48.11.63.12.23.29.35.51.35.34,0,.74-.26,1.21-.78.52-.58.93-1.28,1.23-2.11.23-.63.34-1.16.34-1.6,0-.3-.09-.56-.28-.78-.13-.15-.3-.23-.51-.24h-.15Z"/><path class="cls-3" d="M353.17,69.72h0s-324.81,0-324.81,0c-.28,0-.5.22-.5.5v107.85c0,.28.22.5.5.5h0s324.81,0,324.81,0c.28,0,.5-.22.5-.5v-107.85c0-.28-.22-.5-.5-.5ZM28.85,175.57v-102.86h323.81v102.86H28.85Z"/><path class="cls-3" d="M349.15,186.73c.73-.27,1.26-.4,1.6-.4.4,0,.7.12.89.34.17.2.26.46.26.78,0,.83-.37,1.64-1.11,2.44-.68.74-1.38,1.11-2.09,1.11-.45,0-.81-.2-1.09-.59-.21-.3-.32-.65-.32-1.05,0-.87.34-1.77,1.01-2.69.58-.8,1.41-1.54,2.49-2.21.32-.21.56-.35.72-.42.15-.07.28-.11.4-.11.19,0,.28.08.28.24,0,.15-.1.27-.29.38-1.02.54-1.93,1.27-2.74,2.18ZM348.55,187.63c-.3.49-.45.98-.45,1.46,0,.32.07.59.22.82.15.23.35.35.59.35.34,0,.69-.16,1.05-.48s.65-.76.87-1.3c.14-.34.21-.64.21-.89,0-.19-.06-.33-.17-.45-.12-.13-.28-.19-.48-.19-.33,0-.73.11-1.2.33-.13.05-.27.13-.43.23-.12.07-.19.12-.2.13Z"/><path class="cls-3" d="M356.04,186.5c.24.1.42.22.52.34.15.18.23.43.23.75,0,.79-.33,1.56-1,2.29s-1.36,1.1-2.07,1.1c-.43,0-.79-.18-1.06-.54-.2-.26-.29-.55-.29-.86,0-.52.2-.78.6-.78.24,0,.36.09.36.27,0,.04,0,.09-.01.15-.01.08-.02.17-.02.25,0,.23.06.41.17.53.13.13.28.2.45.2.42,0,.86-.29,1.34-.87.45-.56.68-1.09.68-1.59,0-.25-.06-.46-.18-.6-.13-.16-.31-.23-.55-.23-.09,0-.19.02-.28.04-.11.03-.2.05-.26.05-.14,0-.21-.1-.21-.29,0-.17.06-.3.17-.41.06-.06.2-.12.4-.18.41-.1.75-.24,1.03-.43.18-.12.32-.27.43-.47.05-.1.08-.21.08-.32,0-.14-.04-.25-.11-.31-.08-.07-.19-.1-.35-.1-.26,0-.54.07-.82.21-.07.03-.25.13-.52.3-.07.05-.15.07-.24.07-.17,0-.25-.09-.25-.27,0-.16.12-.33.37-.51.57-.4,1.13-.61,1.68-.61.33,0,.6.1.83.3.24.21.36.47.36.77,0,.4-.17.77-.51,1.11-.19.2-.5.4-.94.62Z"/><path class="cls-3" d="M39.36,16.94c.18.01.33.11.43.29.07.11.1.23.09.36-.02.2-.23.46-.63.77-1.15.93-1.87,2.08-2.17,3.45-.06.25-.2.43-.4.55-.19.11-.36.16-.54.14-.4-.03-.58-.3-.54-.81.06-.81.59-1.82,1.58-3.03.4-.5.87-.94,1.39-1.34.34-.26.6-.39.8-.37ZM42.41,17.18c.18.01.32.11.43.29.07.11.1.23.09.36-.02.2-.23.46-.63.77-1.15.93-1.87,2.08-2.17,3.45-.06.25-.2.43-.4.55-.19.11-.37.16-.54.14-.4-.03-.58-.3-.54-.81.06-.81.59-1.82,1.58-3.03.41-.5.88-.95,1.39-1.34.34-.26.6-.39.8-.37Z"/><path class="cls-3" d="M45.92,32.91c-.42.5-.79.89-1.1,1.18-.55.52-1.08.76-1.58.72-.43-.03-.75-.25-.95-.66-.14-.28-.2-.62-.17-.99.09-1.13.68-2.39,1.76-3.77.5-.65.99-1.13,1.45-1.46.36-.26.66-.38.88-.37.12,0,.23.07.33.18.08.1.12.2.11.3-.01.17-.2.42-.55.78-.8.81-1.41,1.56-1.85,2.26-.51.82-.78,1.46-.82,1.95,0,.12.01.22.06.29.05.07.13.11.24.12.45.04,1.12-.55,2.02-1.77.47-.63.88-1.34,1.24-2.12.19-.43.43-.8.71-1.12.27-.29.52-.42.76-.4.13.01.24.08.34.2.1.13.15.27.14.42-.03.32-.38,1-1.08,2.06-.47.73-.73,1.35-.77,1.86-.04.54.06,1.02.32,1.43.07.11.3.3.68.56.18.13.27.32.25.57-.01.16-.09.29-.24.39-.14.1-.31.15-.51.13-.44-.04-.82-.24-1.15-.62-.3-.34-.47-.81-.51-1.42-.01-.08-.02-.31-.01-.69Z"/><path class="cls-3" d="M53.16,27.6c.15.01.27.08.35.2.06.1.09.2.08.3-.01.16-.16.41-.44.76-1.02,1.34-1.77,2.45-2.22,3.33-.49.9-.93,1.84-1.32,2.8-.18.43-.41.63-.71.6-.18-.01-.31-.09-.4-.24-.09-.12-.13-.25-.11-.38.02-.26.37-1.12,1.05-2.56.53-1.14,1.35-2.38,2.44-3.72.35-.44.61-.73.79-.88.17-.15.34-.22.51-.21ZM56.05,22.92c.39.03.58.25.54.65-.03.37-.25.76-.68,1.18-.4.4-.77.59-1.12.56-.17-.01-.3-.09-.39-.22-.1-.12-.14-.27-.12-.43.03-.42.3-.85.8-1.29.37-.32.69-.47.96-.45Z"/><path class="cls-3" d="M55.43,31.16c.12-.1.24-.19.35-.29,1.97-1.64,3.27-2.44,3.89-2.39.34.03.5.23.47.61-.02.26-.2.56-.53.9-1.83,1.82-2.81,3.47-2.92,4.96-.04.48.06.95.28,1.41.11.21.16.37.15.49,0,.11-.07.2-.18.29-.12.11-.26.16-.42.15-.36-.03-.64-.28-.85-.76-.2-.45-.28-.98-.23-1.59.09-1.18.65-2.46,1.66-3.82-1.25.67-2.47,1.93-3.65,3.78-.3.44-.6.65-.9.63-.15-.01-.27-.07-.35-.19-.11-.13-.16-.29-.15-.49.04-.47.68-1.67,1.92-3.59.67-1.04,1.19-1.79,1.56-2.25.37-.46.68-.67.91-.66.11,0,.22.07.32.18.11.13.16.28.15.44-.02.19-.16.46-.45.8-.41.51-.75.97-1.01,1.39Z"/><path class="cls-3" d="M65.05,27.96c-.64.84-1.25,1.79-1.82,2.84-.82,1.5-1.26,2.64-1.32,3.41-.02.22.02.39.1.51.08.12.22.19.4.2.44.04,1-.33,1.69-1.11.44-.48.83-.96,1.17-1.44.19-.28.38-.41.57-.39.11,0,.21.06.28.14.06.08.09.17.09.25-.03.32-.51,1.01-1.45,2.07-1.12,1.27-2.11,1.87-2.95,1.8-.45-.04-.8-.27-1.07-.71-.16-.28-.23-.66-.19-1.14.09-1.06.49-2.27,1.22-3.63.18-.34.66-1.15,1.44-2.44-.24.04-.42.06-.55.05-.18-.01-.34-.07-.48-.17-.18-.14-.27-.3-.25-.48.02-.22.16-.38.42-.5.07-.03.4-.06.99-.09.21-.02.53-.08.94-.18.35-.53.91-1.24,1.68-2.13.43-.49.72-.81.88-.96.23-.2.42-.3.58-.28.11,0,.22.08.33.21.1.12.14.24.13.35-.02.23-.3.66-.84,1.29-.36.41-.63.75-.81,1.01.99-.18,1.7-.26,2.12-.23.48.04.71.26.67.66-.02.2-.11.34-.29.43-.09.04-.32.07-.69.08-.15-.02-.82.09-2.02.34-.33.07-.66.15-.98.23Z"/><path class="cls-3" d="M70.35,29.78c1.35-.38,2.33-.54,2.92-.49.72.06,1.24.31,1.55.75.28.38.39.87.35,1.44-.12,1.49-.9,2.89-2.35,4.22-1.33,1.22-2.63,1.79-3.9,1.68-.81-.07-1.43-.47-1.87-1.21-.34-.57-.48-1.22-.43-1.94.13-1.56.86-3.12,2.2-4.68,1.16-1.35,2.75-2.56,4.79-3.61.61-.32,1.06-.54,1.35-.66.27-.11.52-.16.74-.14.33.03.49.18.46.47-.02.26-.21.48-.58.64-1.9.83-3.64,2-5.23,3.52ZM69.15,31.31c-.61.84-.96,1.69-1.02,2.55-.05.57.05,1.07.28,1.5.24.44.57.68,1,.72.61.05,1.26-.19,1.95-.72.69-.53,1.27-1.26,1.75-2.21.3-.59.47-1.12.51-1.57.03-.33-.05-.61-.24-.83-.2-.25-.48-.38-.84-.41-.59-.05-1.32.09-2.2.42-.24.08-.5.19-.81.35-.23.11-.35.18-.37.21Z"/><path class="cls-3" d="M82.18,32.76c-.11.21-.42.74-.91,1.58-.83,1.62-1.34,2.68-1.53,3.18-.1.28-.21.48-.34.59-.11.11-.28.15-.49.13-.22-.02-.39-.11-.51-.28-.11-.15-.16-.32-.15-.5.05-.66.77-2.2,2.15-4.64-1.29.04-2.31.18-3.06.43-.24.08-.44.11-.59.1-.35-.03-.5-.32-.46-.87.03-.32.18-.63.46-.92.54-.53,1.43-1.33,2.69-2.39,1.55-1.3,2.94-2.34,4.18-3.13,1.07-.68,1.83-1,2.27-.97.2.02.38.11.53.29.12.15.17.31.16.48-.02.21-.17.52-.47.94-.05.08-.38.52-.98,1.34-.76,1.04-1.49,2.14-2.17,3.29.62.01,1.02.03,1.23.05.52.04.76.25.73.64-.03.34-.19.58-.48.7-.13.05-.5.05-1.12,0-.18-.01-.57-.03-1.15-.05ZM81.26,31.47c1.1-1.78,2.14-3.26,3.09-4.45-.96.44-2.14,1.25-3.54,2.41-1.01.85-1.83,1.6-2.46,2.25,1.29-.16,2.26-.23,2.9-.22Z"/><path class="cls-3" d="M95.58,31.98c.79-.57,1.49-.83,2.09-.78.37.03.66.21.87.53.2.29.28.61.25.97-.05.68-.35,1.49-.87,2.43-.59,1.04-1.39,1.98-2.41,2.83-.84.71-1.62,1.03-2.33.98-.26-.02-.5-.09-.7-.2-.21-.11-.39-.27-.54-.48-.08.12-.13.19-.15.23-.17.31-.29.5-.36.57-.06.07-.16.09-.28.08-.16-.01-.3-.12-.42-.31-.09-.13-.12-.27-.11-.41.02-.25.62-1.44,1.81-3.6,1.66-3.01,3.54-5.98,5.65-8.91.85-1.2,1.37-1.9,1.56-2.11.21-.25.39-.37.54-.35.19.02.36.12.49.33.09.13.12.28.11.45-.01.18-.12.41-.31.68-.04.06-.35.49-.94,1.29-1.78,2.33-3.1,4.26-3.96,5.79ZM92.91,37.49c.13.1.27.15.42.17.76.06,1.62-.54,2.58-1.79.44-.56.8-1.13,1.08-1.7.24-.51.38-.89.4-1.15.01-.17-.01-.31-.09-.4s-.19-.14-.36-.15c-.4-.03-.91.2-1.52.71-.61.5-1.24,1.24-1.87,2.22-.3.47-.57.91-.79,1.33l-.2.34c.12.19.24.33.37.43Z"/><path class="cls-3" d="M102.82,31.59c.15.01.27.08.35.2.06.1.09.2.08.3-.01.16-.16.41-.44.76-1.02,1.34-1.77,2.45-2.22,3.33-.49.9-.93,1.84-1.32,2.8-.18.43-.41.63-.71.6-.18-.01-.31-.1-.4-.24-.09-.12-.13-.25-.12-.38.02-.26.37-1.12,1.05-2.56.53-1.14,1.35-2.38,2.44-3.72.35-.44.61-.73.78-.88.17-.15.34-.22.51-.21ZM105.71,26.91c.39.03.58.25.54.65-.03.37-.25.76-.68,1.18-.4.4-.77.59-1.12.56-.17-.01-.3-.09-.39-.22-.1-.12-.14-.27-.12-.43.03-.42.3-.85.8-1.28.37-.32.69-.47.96-.45Z"/><path class="cls-3" d="M107.79,31.39c-.64.84-1.25,1.79-1.82,2.84-.82,1.5-1.26,2.64-1.32,3.41-.02.22.02.39.1.51.08.12.22.19.4.2.44.04,1-.33,1.69-1.11.44-.48.83-.96,1.17-1.44.19-.28.38-.41.57-.39.11,0,.21.06.28.14.06.08.09.17.09.25-.03.32-.51,1.01-1.45,2.07-1.12,1.27-2.11,1.87-2.95,1.8-.45-.04-.8-.27-1.07-.71-.16-.28-.23-.66-.19-1.14.08-1.06.49-2.27,1.22-3.63.18-.34.66-1.15,1.44-2.44-.24.04-.42.06-.55.05-.18-.01-.34-.07-.48-.17-.18-.14-.27-.3-.25-.48.02-.22.16-.38.42-.5.07-.03.4-.06.99-.09.21-.02.53-.08.94-.18.35-.53.91-1.24,1.68-2.13.43-.5.72-.82.88-.96.23-.2.42-.3.58-.28.11,0,.22.08.33.21.1.12.14.24.13.35-.02.23-.3.66-.84,1.29-.36.41-.63.75-.81,1.01.99-.18,1.7-.26,2.12-.23.48.04.71.26.67.66-.02.2-.11.34-.29.43-.09.05-.32.07-.69.08-.15-.02-.82.09-2.02.34-.33.07-.66.14-.98.22Z"/><path class="cls-3" d="M120.46,37.23c-.84.96-1.45,1.61-1.84,1.97-.49.45-.9.78-1.25,1.01-.39.24-.74.35-1.06.32-.31-.02-.53-.2-.67-.52-.11-.25-.16-.52-.13-.8.08-.95.75-2.22,2.02-3.8,1.16-1.43,1.98-2.13,2.48-2.09.12,0,.24.08.34.2.1.11.14.24.13.38-.02.19-.21.45-.58.76-.79.66-1.48,1.42-2.09,2.28-.52.73-.79,1.22-.81,1.46-.01.17.06.27.22.28.53.04,1.76-1,3.69-3.14.63-.69,1.01-1.09,1.14-1.19.24-.19.48-.28.72-.26.16.01.29.07.4.16.09.1.13.19.12.29,0,.1-.25.53-.74,1.28-1.09,1.61-1.66,2.7-1.71,3.29-.02.23.06.35.25.36.32.03.78-.3,1.39-.99.58-.64,1.14-1.47,1.67-2.48.23-.44.45-1.03.66-1.76.24-.84.63-1.23,1.15-1.19.3.02.43.2.41.54-.09,1.15-.86,2.67-2.3,4.58-1.5,1.99-2.71,2.94-3.62,2.87-.67-.05-.98-.5-.91-1.33.05-.68.35-1.51.9-2.47Z"/><path class="cls-3" d="M129.8,39.49c-.33.49-.65.89-.96,1.22-.61.64-1.18.94-1.73.89-.47-.04-.82-.29-1.05-.76-.14-.3-.2-.65-.17-1.04.08-.97.47-2.02,1.18-3.15.79-1.25,1.69-2.19,2.71-2.81.67-.41,1.29-.58,1.88-.54.37.03.67.17.89.42.19.22.28.46.26.71-.02.19-.11.45-.29.78.12.19.17.36.16.5-.01.18-.16.48-.44.88-.29.41-.59.96-.9,1.65-.33.73-.52,1.33-.55,1.78-.03.37.06.68.26.93.06.07.23.18.51.35.21.12.31.32.28.58-.01.17-.09.3-.22.39-.14.1-.3.15-.47.13-.47-.04-.86-.28-1.17-.73-.25-.36-.36-.8-.32-1.32.01-.17.05-.46.12-.86ZM131.79,35.3c-.09-.2-.19-.35-.31-.46-.12-.1-.24-.16-.38-.17-.67-.05-1.44.47-2.31,1.57-.96,1.22-1.48,2.28-1.55,3.17-.02.22.01.39.08.51.07.12.19.19.36.2.42.03.95-.37,1.58-1.22.35-.47.8-1.16,1.34-2.07.36-.6.61-.99.77-1.18.08-.1.22-.22.41-.35Z"/><path class="cls-3" d="M137.87,38.71c-.61.88-1.12,1.52-1.54,1.94-1.03,1.03-1.85,1.52-2.47,1.47-.38-.03-.65-.26-.82-.69-.12-.28-.17-.57-.14-.87.05-.58.36-1.4.95-2.45.52-.92.96-1.64,1.31-2.17.26-.38.42-.62.47-.74.12-.23.23-.4.32-.52.13-.17.29-.25.5-.24.1,0,.19.06.27.15.08.11.11.24.1.38-.03.39-.46,1.25-1.28,2.56-.82,1.29-1.24,2.16-1.28,2.59-.02.28.08.43.29.45.38.03.95-.42,1.72-1.34.34-.41.71-.94,1.09-1.59,0-.22.02-.39.03-.5.05-.66.22-1.22.5-1.68.37-.6.81-.87,1.35-.83.31.03.45.22.42.59-.05.59-.42,1.43-1.13,2.52.17.05.31.08.42.09.29.02.68-.13,1.17-.46.39-.27.64-.4.76-.39.1,0,.19.07.29.19.07.1.1.2.09.3-.03.32-.27.65-.74,1.01-.54.41-1.14.58-1.79.53-.25-.02-.54-.12-.86-.29Z"/><path class="cls-3" d="M141.41,40.07l-.02.24c-.02.19.02.36.1.51.19.34.54.53,1.04.57,1.09.09,2.43-.65,4-2.22.28-.27.5-.4.68-.38.1,0,.18.06.25.17.05.07.07.14.06.2-.03.34-.49.89-1.4,1.63-.71.59-1.45,1.05-2.23,1.4-.78.34-1.48.49-2.12.44-.66-.05-1.16-.32-1.5-.81-.23-.34-.32-.78-.28-1.32.12-1.48.93-2.87,2.44-4.18,1.22-1.07,2.25-1.56,3.1-1.5.23.02.43.11.6.26.21.2.31.45.28.75-.04.46-.3,1.02-.78,1.66-1,1.33-2.41,2.19-4.23,2.58ZM141.78,39.07c.63-.16,1.13-.36,1.5-.59.65-.42,1.18-.92,1.59-1.49.15-.2.23-.38.24-.55.01-.17-.06-.27-.23-.28-.23-.02-.57.13-1.01.43-.8.54-1.5,1.37-2.09,2.48Z"/><path class="cls-3" d="M156.94,26.38c.41.03.6.31.56.83-.06.8-.59,1.8-1.58,3.02-.4.5-.87.94-1.39,1.34-.34.26-.6.39-.8.37-.18-.01-.33-.11-.43-.29-.07-.11-.1-.24-.09-.38.02-.19.23-.45.63-.76,1.15-.94,1.87-2.09,2.17-3.45.06-.25.2-.44.4-.56.18-.1.36-.14.53-.13ZM159.99,26.63c.41.03.6.31.56.82-.06.8-.59,1.8-1.58,3.02-.4.5-.87.94-1.39,1.34-.34.26-.6.39-.8.37-.18-.01-.33-.11-.43-.29-.07-.11-.1-.24-.09-.38.02-.19.23-.45.63-.76,1.16-.94,1.88-2.09,2.17-3.45.06-.25.2-.44.4-.56.18-.1.36-.14.53-.13Z"/><path class="cls-3" d="M248.64,30.56c-.27.53-.5.92-.7,1.18-.49.64-.9.98-1.25,1-.21.01-.38-.09-.5-.32-.09-.15-.13-.3-.14-.47-.02-.32.09-.79.34-1.42.22-.55.4-.98.56-1.29.11-.23.18-.38.2-.44.05-.13.1-.24.14-.31.06-.11.14-.16.25-.17.06,0,.11.02.16.06.05.05.08.12.08.2.01.22-.16.72-.51,1.5-.35.77-.52,1.28-.51,1.53,0,.16.07.23.2.22.21-.01.49-.3.85-.87.16-.25.32-.57.48-.96-.01-.12-.02-.21-.02-.28-.02-.37.03-.69.15-.96.16-.36.38-.54.68-.56.17,0,.26.09.27.29.02.33-.12.82-.43,1.47.1.01.18.02.24.02.16,0,.36-.12.61-.34.2-.18.33-.27.39-.27.05,0,.11.03.17.09.05.05.07.1.07.16,0,.18-.1.38-.33.61-.27.26-.58.41-.94.43-.14,0-.31-.02-.5-.1Z"/><path class="cls-3" d="M252.28,31.15c-.14.29-.29.54-.43.74-.29.4-.58.61-.88.62-.26.01-.47-.1-.63-.34-.1-.16-.16-.34-.17-.56-.03-.54.11-1.15.41-1.82.34-.75.76-1.33,1.28-1.75.34-.27.67-.42,1-.44.2-.01.38.04.52.16.12.11.19.23.2.37,0,.11-.03.26-.1.45.08.1.12.19.13.26,0,.1-.05.27-.18.52-.13.25-.25.57-.37.97-.13.43-.18.77-.17,1.02.01.2.08.37.21.49.04.03.14.08.31.15.13.05.19.15.2.3,0,.09-.02.17-.09.23-.07.07-.15.1-.25.11-.26.02-.5-.09-.7-.31-.17-.18-.26-.42-.28-.7,0-.1,0-.26,0-.48ZM253.06,28.69c-.06-.1-.13-.18-.2-.23-.07-.05-.15-.07-.22-.06-.37.02-.75.37-1.15,1.04-.44.74-.64,1.36-.61,1.86,0,.12.04.21.09.27.05.06.12.09.21.08.23-.01.49-.28.78-.79.16-.28.35-.7.58-1.24.15-.36.26-.59.33-.71.04-.06.1-.14.2-.22Z"/><path class="cls-3" d="M255.13,29.76c-.12.39-.22.7-.28.94-.06.24-.09.4-.08.5,0,.12.07.18.19.17.18-.01.39-.19.65-.54.12-.17.3-.47.54-.9.09-.17.2-.26.31-.27.13,0,.19.05.2.17.01.21-.21.65-.65,1.31-.46.7-.91,1.06-1.34,1.08-.19.01-.34-.06-.47-.21-.09-.11-.14-.24-.15-.4-.01-.27.05-.66.18-1.15.14-.49.35-1.09.64-1.8.74-1.81,1.51-3.31,2.32-4.5.65-.96,1.2-1.45,1.65-1.47.15,0,.27.04.37.15.1.11.16.23.17.38.04.68-.51,1.85-1.63,3.51-.51.74-1.12,1.48-1.84,2.23-.19.2-.45.46-.78.79ZM255.59,28.57c.96-.92,1.81-2.07,2.53-3.45.38-.71.56-1.18.54-1.4,0-.11-.06-.16-.15-.15-.27.01-.72.58-1.37,1.68-.54.91-1.05,2.02-1.56,3.32Z"/><path class="cls-3" d="M259.27,30.84c-.19.3-.36.55-.52.73-.27.33-.54.5-.81.52-.24.01-.43-.08-.57-.29-.1-.15-.16-.32-.17-.53-.04-.63.19-1.37.68-2.21.23-.39.46-.7.69-.91.18-.17.33-.26.46-.27.07,0,.13.02.19.08.05.05.08.1.08.16,0,.09-.08.25-.25.47-.38.51-.66.97-.85,1.38-.22.49-.32.86-.3,1.13,0,.07.02.12.06.15.03.03.08.05.14.05.25-.01.57-.39.98-1.13.21-.38.38-.8.52-1.26.07-.25.18-.47.31-.67.13-.18.26-.27.39-.28.07,0,.14.02.2.08.07.06.1.14.11.22,0,.17-.14.58-.44,1.21-.21.44-.3.8-.28,1.08.02.3.11.56.29.76.05.06.19.14.42.25.11.06.17.16.18.3,0,.09-.03.17-.1.23-.07.07-.16.11-.27.11-.24.01-.47-.07-.68-.25-.19-.17-.32-.41-.39-.74-.01-.04-.03-.17-.06-.38Z"/><path class="cls-3" d="M261.67,30.41v.13c.01.11.05.2.1.27.13.17.34.25.62.24.61-.03,1.29-.54,2.03-1.52.13-.17.25-.26.34-.26.05,0,.1.02.15.07.03.04.05.07.05.11.01.19-.21.52-.65,1-.34.38-.72.69-1.12.94s-.78.38-1.14.4c-.37.02-.66-.09-.88-.33-.15-.17-.24-.4-.25-.7-.05-.82.29-1.65,1.02-2.49.59-.68,1.12-1.03,1.59-1.06.13,0,.24.02.35.1.13.1.2.23.21.39.01.26-.09.58-.3.97-.45.81-1.16,1.39-2.13,1.74ZM261.8,29.83c.33-.14.6-.28.78-.44.33-.28.58-.6.76-.94.07-.12.1-.23.09-.32,0-.1-.05-.14-.15-.14-.13,0-.3.11-.52.32-.4.36-.72.87-.96,1.52Z"/><path class="cls-3" d="M265.95,31.04c.11,0,.2.04.28.13.05.06.08.14.09.24.01.23-.04.47-.15.73-.12.28-.28.42-.5.43-.22.01-.34-.11-.36-.36-.01-.25.05-.52.19-.79.13-.25.28-.38.45-.38ZM267.19,27.32c.11,0,.2.04.28.13.05.06.08.14.09.24.01.23-.04.47-.15.73-.12.28-.29.43-.5.44-.22.01-.34-.11-.36-.36s.05-.52.19-.79c.12-.25.27-.38.45-.38Z"/><path class="cls-3" d="M19.7,89.58c-.34.26-.68.48-1.03.66-.46.25-.77.37-.92.37-.16,0-.23-.12-.23-.37,0-.09.02-.16.06-.23.04-.06.13-.12.28-.17.44-.19,1.08-.54,1.92-1.07.38-.24.65-.36.81-.36.1,0,.2.05.28.15.05.07.08.14.08.22,0,.12-.1.33-.29.62-1.41,2.29-2.39,4.08-2.93,5.38-.13.32-.23.51-.29.59-.09.13-.19.2-.28.2s-.18-.06-.26-.17c-.05-.06-.07-.13-.07-.21,0-.26.38-1.13,1.13-2.61.7-1.39,1.28-2.4,1.74-3.02Z"/><path class="cls-3" d="M20.23,154.87c.26.1.46.27.59.49.13.23.19.52.19.87,0,1.09-.42,2.25-1.27,3.47-.92,1.33-1.81,2-2.65,2-.42,0-.73-.22-.94-.65-.14-.28-.21-.62-.21-1.03,0-.97.35-1.99,1.06-3.06.37-.55.86-1.12,1.49-1.71.65-.61,1.13-.91,1.41-.91.22,0,.33.17.33.52ZM19.28,155.4c-.57.47-1.08,1.04-1.52,1.71-.63.97-.94,1.9-.94,2.81,0,.27.04.48.11.63.12.23.29.35.51.35.34,0,.74-.26,1.21-.78.52-.58.93-1.28,1.23-2.11.23-.63.34-1.16.34-1.6,0-.3-.09-.56-.28-.78-.13-.15-.3-.23-.51-.24h-.15Z"/><polyline class="cls-1" points="28.55 157.76 33.38 157.76 33.38 91.69 43.53 91.69 43.53 157.76 53.61 157.76 53.68 91.69 58.81 91.69 58.81 157.76 68.91 157.76 68.91 91.69 73.98 91.69 73.98 157.76 99.36 157.76 99.36 91.69 104.43 91.69 104.43 157.76 114.58 157.76 114.58 91.69 119.76 91.69 119.76 157.76 134.88 157.76 134.88 91.69 145.03 91.69 145.03 157.76 150.13 157.76 150.13 91.69 160.26 91.69 160.26 157.76 165.33 157.76 165.33 91.69 185.63 91.69 185.63 157.76 190.76 157.76 190.76 91.69 200.86 91.69 200.86 157.76 205.94 157.76 205.94 91.69 211.01 91.69 211.01 157.76 221.16 157.76 221.16 91.69 236.39 91.69 236.39 157.76 246.54 157.76 246.54 91.69 256.69 91.69 256.69 157.76 261.76 157.76 261.76 91.69 276.99 91.69 276.99 157.76 282.22 157.76 282.22 91.69 287.14 91.69 287.14 157.76 297.29 157.76 297.29 91.69 302.36 91.69 302.36 157.76 307.44 157.76 307.44 91.69 317.59 91.69 317.59 157.76 322.66 157.76 322.66 91.69 348.04 91.69 348.04 157.76 353.22 157.76"/></svg>