<?xml version="1.0" encoding="UTF-8"?><svg id="Layer_1" xmlns="http://www.w3.org/2000/svg" viewBox="0 0 292.89 284.53"><defs><style>.cls-1{stroke:#4d4d4d;}.cls-1,.cls-2{fill:none;stroke-linecap:round;stroke-miterlimit:10;}.cls-3{fill:#4d4d4d;}.cls-4{fill:#fff;}.cls-2{stroke:#ccc;}.cls-5{fill:#ccc;}.cls-6{fill:#b3b3b3;}.cls-7{fill:#e6e6e6;}</style></defs><rect class="cls-6" x="38.24" y="62.09" width="230.9" height="195.7"/><rect class="cls-7" x="38.24" y="159.19" width="230.9" height="98.6"/><path class="cls-5" d="M269.14,159.69c.28,0,.5-.22.5-.5s-.22-.5-.5-.5H38.13c-.28,0-.5.22-.5.5s.22.5.5.5h231.01"/><rect class="cls-4" x="38.24" y="208.49" width="230.9" height="49.3"/><path class="cls-5" d="M269.14,209.23c.28,0,.5-.22.5-.5s-.22-.5-.5-.5H38.13c-.28,0-.5.22-.5.5s.22.5.5.5h231.01"/><line class="cls-2" x1="84.04" y1="59.59" x2="84.04" y2="257.78"/><path class="cls-3" d="M100.68,100.77c-.35.25-.7.46-1.04.63-.47.23-.78.35-.93.34-.16,0-.23-.13-.22-.38,0-.09.02-.16.07-.23.04-.06.14-.11.28-.16.45-.17,1.1-.51,1.95-1.01.39-.23.66-.34.82-.33.1,0,.19.06.27.16.05.07.08.14.07.22,0,.12-.11.33-.3.61-1.48,2.24-2.51,4-3.1,5.29-.14.31-.24.51-.3.58-.1.13-.19.19-.28.19-.09,0-.18-.06-.26-.18-.05-.06-.07-.13-.07-.21,0-.26.41-1.12,1.21-2.57.75-1.36,1.36-2.35,1.84-2.97Z"/><path class="cls-3" d="M103.25,103.69c.15,0,.33.02.53.03.42.03.68.04.8.05.28,0,.47.05.56.11.09.06.13.17.12.33,0,.15-.05.26-.14.34-.05.04-.11.06-.18.06-.05,0-.13,0-.23-.02-.18-.02-.66-.05-1.43-.07-.47-.02-.83,0-1.06.05-.11.02-.2.03-.26.03-.13,0-.23-.07-.29-.2-.03-.06-.05-.14-.04-.22,0-.25.13-.4.37-.45.18-.04.6-.05,1.26-.03Z"/><path class="cls-3" d="M107.48,102.99c.43-.34.8-.5,1.14-.49.21,0,.37.1.5.27.12.16.17.33.17.53-.01.38-.15.84-.42,1.37-.3.59-.72,1.14-1.26,1.64-.45.42-.87.62-1.26.6-.15,0-.28-.04-.4-.09-.12-.06-.22-.14-.31-.25-.04.07-.07.11-.08.13-.09.18-.15.29-.18.32-.03.04-.08.06-.15.05-.09,0-.17-.06-.24-.16-.05-.07-.08-.14-.07-.22,0-.14.31-.82.91-2.05.84-1.71,1.8-3.41,2.89-5.1.44-.69.71-1.09.81-1.21.11-.14.21-.21.29-.21.11,0,.2.06.28.17.05.07.08.15.07.24,0,.1-.05.23-.15.38-.02.03-.18.28-.48.74-.93,1.34-1.61,2.45-2.04,3.32ZM106.14,106.12c.07.05.15.08.24.08.42.01.88-.34,1.38-1.06.23-.33.41-.65.55-.97.12-.29.18-.51.19-.65,0-.1-.02-.17-.06-.22-.04-.05-.11-.07-.2-.08-.22,0-.5.14-.83.44-.33.29-.65.72-.98,1.28-.16.27-.29.52-.41.76l-.1.19c.07.1.14.18.22.23Z"/><path class="cls-3" d="M111.48,102.57c.08,0,.15.04.2.1.04.05.06.11.05.16,0,.09-.08.23-.23.43-.53.77-.91,1.4-1.14,1.91-.25.51-.46,1.05-.66,1.59-.09.24-.21.36-.38.35-.1,0-.17-.04-.23-.12-.05-.07-.08-.13-.07-.21,0-.15.18-.63.51-1.45.26-.65.68-1.36,1.25-2.13.18-.25.32-.42.41-.51.09-.09.18-.13.28-.13ZM112.96,99.9c.22,0,.33.12.32.35,0,.21-.12.43-.34.67-.21.23-.41.35-.6.34-.09,0-.17-.04-.22-.11-.06-.07-.08-.14-.08-.24,0-.23.14-.48.41-.73.2-.19.37-.28.52-.28Z"/><path class="cls-3" d="M114.23,102.33c-.33.48-.64,1.03-.93,1.63-.41.86-.62,1.5-.64,1.93,0,.12.02.22.07.28.05.07.12.1.23.1.24,0,.55-.21.91-.66.23-.28.43-.55.61-.83.1-.16.2-.24.31-.23.06,0,.12.03.16.07.04.05.06.09.05.13,0,.18-.25.58-.75,1.19-.59.73-1.12,1.09-1.59,1.08-.25,0-.45-.13-.61-.36-.1-.15-.14-.36-.13-.63.02-.59.21-1.27.58-2.05.09-.19.33-.66.73-1.39-.13.03-.23.04-.3.04-.1,0-.19-.03-.27-.08-.11-.07-.16-.16-.15-.26,0-.12.08-.22.22-.29.04-.02.22-.04.54-.08.12-.02.29-.06.52-.12.18-.3.47-.71.87-1.23.22-.29.38-.47.46-.56.12-.12.22-.18.31-.17.06,0,.13.04.19.11.06.07.08.13.08.19,0,.13-.15.37-.43.74-.19.24-.33.43-.42.58.55-.13.94-.19,1.17-.18.27,0,.4.12.39.35,0,.11-.05.19-.15.24-.05.03-.18.05-.38.06-.08,0-.45.07-1.11.24-.18.05-.36.1-.54.15Z"/><line class="cls-2" x1="130.44" y1="59.59" x2="130.44" y2="257.78"/><line class="cls-2" x1="176.84" y1="59.59" x2="176.84" y2="257.78"/><line class="cls-2" x1="223.24" y1="59.59" x2="223.24" y2="257.78"/><path class="cls-3" d="M39.25,265.19c.26.1.46.27.59.49.13.23.19.52.19.87,0,1.09-.42,2.25-1.27,3.47-.92,1.33-1.81,2-2.65,2-.42,0-.73-.22-.94-.65-.14-.28-.21-.62-.21-1.03,0-.97.35-1.99,1.06-3.06.37-.55.86-1.12,1.49-1.71.65-.61,1.12-.91,1.41-.91.22,0,.33.17.33.52ZM38.3,265.72c-.57.47-1.08,1.04-1.52,1.71-.63.97-.94,1.9-.94,2.81,0,.27.04.48.11.63.12.23.29.35.51.35.34,0,.74-.26,1.21-.78.52-.58.93-1.28,1.23-2.11.23-.63.34-1.16.34-1.6,0-.3-.09-.56-.28-.78-.13-.15-.3-.23-.51-.24h-.15Z"/><path class="cls-3" d="M269.65,59.09h0s-231.51,0-231.51,0c-.28,0-.5.22-.5.5v199.2c0,.28.22.5.5.5h0s231.51,0,231.51,0c.28,0,.5-.22.5-.5V59.59c0-.28-.22-.5-.5-.5ZM38.63,256.28V62.09h230.51v194.2H38.63Z"/><path class="cls-3" d="M23.23,58.86c.73-.27,1.26-.4,1.6-.4.4,0,.7.11.89.34.17.2.26.46.26.78,0,.83-.37,1.64-1.11,2.44-.68.74-1.38,1.11-2.09,1.11-.45,0-.81-.2-1.09-.59-.21-.3-.32-.65-.32-1.05,0-.87.34-1.77,1.01-2.69.58-.8,1.41-1.54,2.49-2.21.32-.21.56-.35.72-.42.15-.07.28-.11.4-.11.19,0,.28.08.28.24,0,.15-.1.27-.29.38-1.02.54-1.93,1.27-2.74,2.18ZM22.63,59.76c-.3.49-.45.98-.45,1.46,0,.32.07.59.22.82.15.23.35.35.59.35.34,0,.69-.16,1.05-.48s.65-.76.87-1.3c.14-.34.21-.64.21-.89,0-.19-.06-.33-.17-.45-.12-.13-.28-.19-.48-.19-.33,0-.73.11-1.2.33-.13.05-.27.13-.43.23-.12.07-.19.12-.2.13Z"/><path class="cls-3" d="M30.12,58.63c.24.1.42.22.52.34.15.18.23.43.23.75,0,.8-.33,1.56-1,2.29-.67.73-1.36,1.1-2.06,1.1-.44,0-.79-.18-1.06-.54-.2-.26-.29-.55-.29-.86,0-.52.2-.78.6-.78.24,0,.36.09.36.27,0,.04,0,.09-.01.15-.02.08-.02.17-.02.25,0,.23.06.41.17.53.13.13.28.2.45.2.42,0,.86-.29,1.34-.87.45-.56.68-1.09.68-1.59,0-.25-.06-.45-.18-.6-.13-.16-.32-.23-.55-.23-.09,0-.19.01-.28.04-.11.03-.2.05-.26.05-.14,0-.21-.1-.21-.29,0-.17.06-.3.17-.41.06-.06.2-.12.4-.18.41-.1.75-.24,1.03-.42.18-.12.33-.27.43-.47.05-.1.08-.21.08-.32,0-.14-.04-.25-.11-.31-.08-.07-.19-.1-.35-.1-.26,0-.54.07-.82.21-.07.03-.25.13-.52.3-.07.05-.15.07-.24.07-.17,0-.25-.09-.25-.27,0-.16.12-.33.37-.51.57-.41,1.13-.61,1.68-.61.33,0,.6.1.83.3.24.21.36.47.36.77,0,.4-.17.77-.51,1.11-.19.2-.5.4-.94.62Z"/><path class="cls-3" d="M268.65,269.48c.06-.06.12-.12.18-.18,1.02-1,1.71-1.49,2.05-1.49.19,0,.29.1.29.31,0,.15-.08.32-.26.52-.93,1.09-1.4,2.05-1.4,2.88,0,.27.07.52.22.77.07.11.1.2.1.26,0,.06-.03.11-.09.17-.06.07-.14.1-.23.1-.2,0-.37-.13-.51-.38-.13-.24-.2-.53-.2-.87,0-.66.25-1.39.75-2.19-.66.42-1.28,1.18-1.85,2.26-.15.26-.3.39-.47.39-.08,0-.15-.03-.21-.09-.07-.07-.1-.16-.1-.26,0-.26.3-.95.9-2.07.32-.61.58-1.04.76-1.32.19-.27.34-.4.48-.4.06,0,.12.03.18.09.07.07.1.15.1.23,0,.11-.07.26-.21.46-.21.3-.37.57-.5.81Z"/><path class="cls-3" d="M58.16,22.26c.18-.01.34.06.46.22.08.1.13.22.14.35.01.2-.16.48-.52.85-1.01,1.08-1.57,2.32-1.68,3.71-.03.26-.14.46-.32.6-.17.13-.34.2-.52.21-.4.02-.62-.22-.65-.73-.05-.81.34-1.88,1.15-3.22.33-.55.73-1.05,1.19-1.52.3-.31.55-.47.74-.48ZM61.21,22.09c.17-.01.33.06.46.22.08.1.13.22.14.35.01.2-.16.48-.52.85-1.01,1.08-1.57,2.32-1.68,3.71-.03.26-.14.46-.32.6-.17.13-.34.2-.52.21-.4.02-.62-.22-.65-.73-.05-.81.34-1.88,1.15-3.22.34-.56.74-1.06,1.19-1.52.3-.31.55-.47.74-.48Z"/><path class="cls-3" d="M67.58,30.98c.69-.04,1.06.3,1.1,1.03.04.64-.18,1.3-.64,1.98-.36.51-.68.78-.97.79-.25.01-.38-.12-.39-.4,0-.15.02-.27.08-.36.02-.04.12-.14.3-.32.15-.16.3-.39.45-.7.1-.21.15-.37.14-.5,0-.14-.09-.21-.25-.2-.18.01-.46.17-.82.48-.57.5-1.12,1.26-1.67,2.29-.55,1.07-.82,1.9-.78,2.5.01.19.08.36.2.5.18.22.41.32.69.3.55-.03,1.19-.41,1.9-1.14.61-.62,1.11-1.24,1.52-1.86.21-.34.4-.51.56-.52.1,0,.19.03.27.12.08.08.12.17.12.26.02.32-.36.98-1.14,1.97-1.24,1.55-2.4,2.36-3.48,2.42-.65.04-1.16-.17-1.53-.61-.26-.33-.41-.72-.44-1.19-.05-.91.27-1.99.95-3.24.66-1.19,1.45-2.16,2.37-2.92.54-.44,1.02-.67,1.44-.69Z"/><path class="cls-3" d="M75.25,30.21c.72-.04,1.1.38,1.15,1.26.07,1.17-.39,2.68-1.37,4.53-1.07,2.01-2.15,3.04-3.24,3.1-.51.03-.9-.19-1.16-.65-.14-.23-.21-.51-.23-.84-.06-1.12.25-2.37.95-3.73.65-1.26,1.44-2.26,2.38-2.99.55-.43,1.05-.65,1.52-.68ZM74.16,35.27c-.23-.16-.35-.29-.35-.39,0-.07.13-.27.39-.6.74-.93,1.09-1.67,1.06-2.21,0-.07-.03-.14-.08-.21-.08-.13-.19-.19-.34-.18-.28.02-.68.31-1.19.89-.66.74-1.16,1.5-1.48,2.26-.38.88-.56,1.59-.52,2.16,0,.15.05.28.14.39.12.15.27.22.45.21.42-.02.86-.36,1.3-1.02.2-.28.35-.56.47-.85.12-.29.17-.44.16-.44Z"/><path class="cls-3" d="M79.08,33.98c.11-.11.21-.22.31-.33,1.73-1.89,2.91-2.86,3.53-2.9.34-.02.52.16.54.54.01.26-.12.58-.41.96-1.56,2.05-2.3,3.82-2.22,5.32.03.48.19.94.47,1.36.13.2.21.35.21.46,0,.11-.04.21-.14.31-.11.13-.24.2-.4.21-.36.02-.68-.19-.95-.63-.26-.42-.41-.93-.44-1.55-.07-1.18.3-2.52,1.12-4.01-1.15.83-2.18,2.25-3.1,4.24-.24.48-.5.73-.8.75-.15,0-.27-.04-.38-.14-.13-.12-.2-.27-.21-.46-.03-.47.44-1.75,1.41-3.82.52-1.12.93-1.94,1.23-2.45.31-.5.58-.76.81-.77.11,0,.23.04.34.14.13.12.2.25.21.41.01.19-.1.48-.33.85-.34.56-.61,1.06-.81,1.51Z"/><path class="cls-3" d="M89.38,29.16c.54-.03.96.04,1.24.22.28.18.44.46.46.86.03.52-.14,1.03-.49,1.53-.34.48-.87.88-1.6,1.2-.39.17-.73.27-1,.28-.37.02-.56-.13-.58-.46-.01-.22.08-.39.29-.52.05-.03.35-.12.88-.27.32-.09.61-.26.87-.51.22-.22.33-.44.32-.68-.01-.18-.07-.32-.18-.4-.11-.08-.27-.12-.48-.1-.51.03-1.06.27-1.65.71-.68.51-1.01,1.08-.97,1.72.03.46.29,1.01.8,1.67.56.72.85,1.33.88,1.85.04.77-.26,1.4-.92,1.87-.41.3-.88.46-1.41.49-.84.05-1.5-.22-1.97-.8-.33-.41-.51-.91-.55-1.5-.04-.68.1-1.27.43-1.75.21-.32.44-.49.68-.5.22-.01.33.07.34.24,0,.07-.03.18-.1.32-.18.39-.26.84-.23,1.35.02.43.2.79.52,1.07.29.25.61.36.96.34.34-.02.6-.15.78-.39.15-.2.21-.45.2-.75-.02-.37-.26-.83-.71-1.4-.62-.77-.96-1.49-.99-2.15-.05-.88.38-1.68,1.3-2.41.89-.7,1.86-1.08,2.89-1.14Z"/><path class="cls-3" d="M95.03,29.1c-.52.92-.99,1.94-1.41,3.06-.6,1.6-.88,2.79-.84,3.56.01.22.07.38.17.49.1.11.24.16.42.15.44-.02.95-.47,1.52-1.33.37-.53.69-1.06.97-1.59.15-.3.32-.45.51-.47.11,0,.21.03.3.1.08.07.11.15.12.23.02.32-.37,1.07-1.15,2.24-.94,1.41-1.83,2.14-2.67,2.19-.45.03-.83-.16-1.15-.56-.2-.25-.31-.62-.34-1.1-.06-1.06.18-2.32.71-3.76.13-.36.49-1.23,1.09-2.61-.23.07-.41.12-.53.12-.18.01-.35-.02-.5-.1-.2-.11-.3-.26-.32-.44-.01-.22.1-.4.35-.55.07-.04.39-.11.96-.23.21-.05.51-.15.91-.3.28-.57.73-1.35,1.37-2.34.36-.55.6-.91.74-1.07.2-.23.38-.35.53-.36.11,0,.23.05.35.17.11.11.17.22.18.33.01.23-.21.69-.66,1.4-.3.46-.52.83-.66,1.11.96-.32,1.65-.49,2.07-.51.48-.03.74.16.76.56.01.2-.06.36-.22.46-.08.06-.31.11-.68.17-.15,0-.8.2-1.96.61-.32.12-.63.23-.94.36Z"/><path class="cls-3" d="M101.02,35.08c-.26.53-.52.97-.78,1.34-.51.72-1.04,1.09-1.59,1.12-.47.03-.86-.18-1.14-.61-.18-.28-.29-.62-.31-1.01-.06-.97.19-2.07.74-3.28.61-1.35,1.38-2.4,2.3-3.16.61-.49,1.2-.75,1.79-.79.37-.02.68.08.94.29.22.19.34.41.35.67.01.19-.05.46-.18.82.14.18.22.34.23.48,0,.18-.1.49-.32.93-.23.44-.45,1.03-.67,1.75-.23.77-.33,1.38-.3,1.84.02.37.15.67.38.89.07.06.25.15.56.27.23.09.35.27.36.53,0,.17-.04.31-.16.42-.13.12-.28.19-.45.2-.47.03-.89-.16-1.26-.56-.3-.33-.46-.75-.49-1.27,0-.18,0-.47,0-.87ZM102.42,30.66c-.12-.19-.24-.32-.37-.41-.13-.08-.26-.12-.4-.12-.67.04-1.36.66-2.07,1.87-.79,1.34-1.15,2.46-1.1,3.35.01.22.06.38.15.49s.22.16.38.15c.42-.02.89-.5,1.4-1.43.29-.51.64-1.26,1.05-2.24.27-.64.47-1.07.6-1.28.06-.11.18-.24.36-.4Z"/><path class="cls-3" d="M106.43,32.43c.11-.11.21-.22.31-.33,1.73-1.89,2.91-2.86,3.53-2.89.34-.02.52.16.55.54.01.26-.12.58-.41.96-1.57,2.05-2.3,3.82-2.22,5.32.03.48.18.94.47,1.36.13.19.2.35.21.46,0,.1-.04.21-.14.31-.11.13-.24.2-.4.21-.36.02-.68-.19-.95-.63-.26-.42-.41-.93-.45-1.55-.07-1.18.31-2.52,1.12-4.01-1.15.83-2.18,2.25-3.1,4.24-.24.48-.5.73-.8.75-.15,0-.28-.04-.38-.14-.13-.12-.2-.27-.21-.46-.03-.47.44-1.75,1.41-3.82.52-1.12.93-1.94,1.23-2.45.31-.5.58-.76.81-.77.11,0,.23.04.34.14.13.12.2.25.21.41.01.19-.1.48-.33.85-.34.56-.61,1.06-.81,1.51Z"/><path class="cls-3" d="M115.52,27.93c-.52.92-.99,1.94-1.41,3.06-.6,1.6-.88,2.79-.84,3.56.01.22.07.38.17.49.1.11.24.16.42.15.44-.02.95-.47,1.52-1.33.37-.53.69-1.06.97-1.59.15-.3.32-.45.51-.47.11,0,.21.03.3.1.07.07.11.15.12.23.02.32-.37,1.07-1.15,2.24-.94,1.41-1.83,2.14-2.67,2.19-.45.03-.83-.16-1.15-.56-.2-.25-.31-.62-.34-1.1-.06-1.06.18-2.32.71-3.76.13-.36.49-1.23,1.09-2.61-.23.07-.41.12-.54.12-.18.01-.35-.02-.49-.1-.2-.11-.31-.26-.32-.44-.01-.22.11-.4.35-.55.07-.04.39-.11.96-.23.21-.05.51-.15.91-.3.28-.57.73-1.35,1.37-2.34.36-.55.6-.91.75-1.07.2-.23.38-.35.53-.36.11,0,.23.05.35.17.11.11.17.22.18.33.01.23-.21.69-.66,1.4-.3.46-.52.83-.66,1.11.96-.32,1.65-.49,2.07-.51.48-.03.73.16.76.56.01.2-.06.36-.22.46-.08.06-.31.11-.68.17-.15,0-.8.2-1.96.61-.32.12-.63.23-.94.36Z"/><path class="cls-3" d="M128.81,27.5c.69-.04,1.06.3,1.1,1.03.04.64-.18,1.3-.64,1.98-.36.51-.68.78-.97.79-.25.01-.38-.12-.39-.4,0-.15.02-.27.08-.36.02-.04.12-.14.3-.32.15-.16.3-.39.45-.7.1-.21.15-.37.14-.5,0-.14-.09-.21-.25-.2-.18.01-.46.17-.82.48-.57.5-1.13,1.26-1.67,2.29-.56,1.07-.82,1.9-.78,2.5.01.19.08.36.2.5.18.22.41.32.69.3.55-.03,1.19-.41,1.9-1.14.61-.62,1.11-1.24,1.52-1.86.21-.34.4-.51.56-.52.1,0,.19.03.27.12.08.08.12.17.12.26.02.32-.36.98-1.14,1.97-1.24,1.55-2.4,2.36-3.48,2.42-.65.04-1.16-.17-1.53-.61-.27-.33-.41-.72-.44-1.19-.05-.91.26-1.99.95-3.24.66-1.19,1.45-2.16,2.37-2.92.54-.44,1.02-.67,1.44-.69Z"/><path class="cls-3" d="M136.48,26.73c.72-.04,1.1.38,1.15,1.25.07,1.17-.39,2.68-1.37,4.53-1.07,2.01-2.15,3.04-3.24,3.1-.51.03-.9-.19-1.16-.65-.14-.23-.21-.51-.23-.84-.06-1.12.25-2.37.95-3.73.65-1.26,1.44-2.26,2.38-2.99.55-.43,1.05-.65,1.52-.68ZM135.39,31.78c-.23-.16-.35-.29-.35-.39,0-.07.12-.27.39-.6.74-.93,1.09-1.67,1.06-2.21,0-.07-.03-.14-.08-.21-.08-.13-.19-.19-.34-.18-.28.02-.68.31-1.19.89-.66.74-1.16,1.5-1.48,2.26-.38.88-.56,1.59-.52,2.16,0,.15.06.28.14.39.12.15.27.22.45.21.42-.02.86-.36,1.3-1.02.2-.28.35-.56.47-.85.12-.29.17-.44.16-.44Z"/><path class="cls-3" d="M140.15,30.64c.69-.81,1.31-1.46,1.84-1.93.81-.71,1.37-1.07,1.66-1.08.14,0,.27.04.38.14.1.09.16.19.16.31,0,.17-.13.45-.41.84-.44.62-.74,1.15-.9,1.58,1.94-2.18,3.28-3.29,4.04-3.33.16,0,.3.03.42.12.13.1.2.23.21.38.01.25-.16.57-.51.98-1.56,1.81-2.31,3.26-2.25,4.35.03.45.12.76.29.95l.37.41c.07.08.12.17.12.3,0,.14-.04.27-.15.4-.12.15-.27.23-.44.24-.29.02-.57-.15-.83-.51-.32-.42-.5-.93-.54-1.53-.05-.8.14-1.62.55-2.46.14-.3.38-.7.72-1.2-.71.6-1.43,1.42-2.15,2.45-.49.7-.92,1.47-1.29,2.32-.18.41-.41.62-.68.63-.3.02-.46-.14-.48-.47-.02-.36.18-1.12.61-2.27.25-.66.55-1.35.92-2.09-1.43,1.24-2.47,2.88-3.11,4.9-.16.45-.39.68-.7.7-.14,0-.26-.04-.35-.14-.1-.1-.16-.22-.17-.37-.03-.52.21-1.47.71-2.85.52-1.46,1.14-2.79,1.83-3.97.48-.83.87-1.25,1.16-1.27.26-.01.4.12.42.4,0,.12-.14.44-.43.95-.52.95-.86,1.66-1.02,2.12Z"/><path class="cls-3" d="M151.09,27.4c.35-.25.61-.42.78-.52.35-.2.7-.3,1.04-.32.39-.02.68.07.89.29.21.21.32.54.35.99.04.61-.14,1.36-.52,2.25-.59,1.4-1.33,2.51-2.24,3.35-.76.7-1.49,1.08-2.19,1.12-.39.02-.78-.11-1.17-.38-1.06,2.5-2,5.04-2.8,7.62-.17.62-.39.93-.66.95-.13,0-.27-.07-.41-.24-.1-.12-.16-.25-.17-.4-.03-.47.46-2.05,1.47-4.72,1.56-4.12,3.07-7.56,4.52-10.31.3-.58.5-.98.61-1.2.27-.59.56-.89.85-.91.3-.02.46.15.48.51.01.2-.08.48-.27.83-.23.45-.41.82-.55,1.09ZM148.44,33.03c.2.19.45.28.74.26.82-.05,1.68-.82,2.59-2.33.34-.56.6-1.12.79-1.69.15-.46.22-.8.21-1.03,0-.16-.05-.27-.13-.35-.08-.07-.2-.11-.36-.1-.41.02-.9.34-1.46.94-.54.59-1.04,1.39-1.51,2.42-.43.95-.72,1.57-.86,1.87Z"/><path class="cls-3" d="M156.96,29.74c.81-.97,1.75-1.93,2.82-2.87.39-.34.8-.66,1.24-.96.22-.14.36-.22.42-.22.13,0,.27.08.41.27.09.1.13.19.14.28,0,.16-.15.38-.46.67-.85.76-1.27,1.32-1.25,1.68.01.2.13.3.36.28.38-.02,1.01-.37,1.89-1.05.15-.11.28-.17.39-.18.07,0,.14.03.22.09.08.07.13.16.13.24.02.26-.33.69-1.04,1.27-.74.62-1.46.95-2.15.99-.28.02-.54-.04-.79-.18-.21-.11-.32-.32-.34-.64-.01-.22.07-.47.23-.77-.67.53-1.43,1.42-2.3,2.67-.5.77-.99,1.71-1.46,2.82-.18.42-.42.63-.71.65-.33.02-.5-.13-.51-.43-.02-.3.19-1.11.63-2.44.64-1.97,1.35-3.51,2.11-4.62.47-.69.88-1.04,1.22-1.06.11,0,.22.02.32.09.12.08.18.19.19.32,0,.13-.07.32-.23.57-.03.05-.25.35-.65.92-.37.54-.64,1.07-.82,1.59Z"/><path class="cls-3" d="M163.93,31.15v.24c.02.19.08.36.19.49.24.31.61.45,1.11.43,1.1-.06,2.32-.98,3.66-2.74.24-.3.45-.46.62-.47.1,0,.19.04.27.13.06.07.09.13.09.19.02.34-.37.95-1.17,1.81-.62.68-1.29,1.24-2.02,1.69s-1.41.69-2.04.72c-.66.04-1.19-.16-1.59-.6-.27-.3-.42-.72-.46-1.27-.08-1.48.53-2.98,1.84-4.48,1.07-1.22,2.02-1.86,2.86-1.91.23-.01.44.05.63.18.24.17.37.41.38.7.03.46-.16,1.05-.55,1.75-.81,1.45-2.08,2.5-3.84,3.14ZM164.16,30.1c.6-.25,1.07-.51,1.41-.79.59-.51,1.04-1.07,1.37-1.69.12-.22.17-.41.17-.58,0-.18-.1-.26-.26-.25-.23.01-.54.2-.95.57-.72.65-1.3,1.56-1.73,2.74Z"/><path class="cls-3" d="M175.99,24.23c.54-.03.96.04,1.24.22.28.18.44.46.46.86.03.52-.14,1.03-.49,1.53-.34.48-.87.88-1.6,1.2-.39.17-.73.27-1,.28-.37.02-.56-.13-.58-.46-.01-.22.08-.39.29-.52.05-.03.35-.12.88-.27.32-.09.61-.26.87-.51.23-.22.33-.44.32-.68-.01-.18-.07-.32-.18-.4-.11-.08-.27-.12-.48-.1-.51.03-1.06.27-1.65.71-.68.51-1.01,1.08-.97,1.72.03.46.29,1.01.79,1.67.56.72.85,1.33.88,1.85.04.77-.26,1.4-.92,1.87-.41.3-.88.46-1.41.49-.84.05-1.5-.22-1.97-.8-.33-.41-.51-.91-.55-1.5-.04-.68.1-1.27.43-1.75.21-.32.44-.49.68-.5.22-.01.33.07.34.24,0,.07-.03.18-.1.32-.18.39-.26.84-.23,1.35.02.43.2.79.52,1.07.29.25.61.36.96.34.34-.02.6-.15.78-.39.15-.2.21-.45.2-.75-.02-.37-.26-.83-.71-1.4-.62-.77-.96-1.49-.99-2.15-.05-.88.38-1.68,1.3-2.41.89-.7,1.86-1.08,2.89-1.14Z"/><path class="cls-3" d="M182.85,23.84c.54-.03.96.04,1.24.22s.44.46.46.86c.03.52-.13,1.03-.49,1.53-.34.48-.87.88-1.6,1.2-.39.17-.73.27-1,.28-.37.02-.56-.13-.58-.46-.01-.22.08-.39.29-.52.05-.03.34-.12.88-.27.32-.09.61-.26.87-.51.23-.21.33-.44.32-.68-.01-.18-.07-.32-.18-.4s-.27-.12-.48-.1c-.51.03-1.06.27-1.65.71-.68.51-1.01,1.08-.97,1.72.03.46.29,1.01.79,1.67.56.72.85,1.33.88,1.85.04.77-.26,1.4-.92,1.88-.41.3-.88.46-1.41.49-.84.05-1.5-.22-1.97-.8-.33-.41-.51-.91-.55-1.5-.04-.68.1-1.27.43-1.75.21-.32.44-.49.68-.5.22-.01.33.07.34.24,0,.07-.03.18-.1.32-.18.39-.26.84-.23,1.35.02.43.2.79.52,1.07.29.25.61.36.96.34.34-.02.6-.15.78-.39.15-.2.21-.45.2-.75-.02-.37-.26-.83-.71-1.4-.62-.77-.96-1.49-.99-2.15-.05-.88.38-1.68,1.3-2.41.89-.7,1.86-1.08,2.89-1.14Z"/><path class="cls-3" d="M187.16,24.45c.15,0,.28.04.38.15.08.09.12.19.12.28,0,.16-.1.43-.34.81-.83,1.46-1.42,2.66-1.75,3.6-.36.96-.67,1.95-.93,2.96-.12.45-.32.68-.62.7-.17,0-.32-.05-.43-.19-.1-.11-.16-.23-.17-.36-.01-.26.22-1.16.69-2.68.37-1.2,1.01-2.54,1.91-4.02.29-.48.51-.81.66-.98.15-.18.31-.27.47-.28ZM189.38,19.43c.4-.02.6.17.63.57.02.37-.15.79-.51,1.26-.34.45-.69.69-1.03.71-.17,0-.31-.04-.42-.16-.11-.11-.17-.25-.18-.41-.02-.42.18-.88.62-1.38.32-.37.62-.56.89-.58Z"/><path class="cls-3" d="M192.31,23.55c.72-.04,1.1.38,1.16,1.25.07,1.17-.39,2.68-1.37,4.53-1.07,2.01-2.15,3.04-3.24,3.1-.51.03-.9-.19-1.16-.65-.14-.23-.21-.51-.23-.84-.06-1.12.25-2.37.95-3.73.65-1.26,1.44-2.26,2.38-2.99.55-.43,1.05-.65,1.52-.68ZM191.23,28.6c-.23-.16-.35-.29-.35-.39,0-.07.12-.27.39-.6.74-.93,1.09-1.67,1.06-2.21,0-.07-.03-.14-.08-.21-.08-.13-.19-.19-.34-.18-.28.02-.68.31-1.19.89-.66.74-1.16,1.5-1.48,2.26-.38.88-.56,1.59-.52,2.16,0,.15.06.28.14.39.12.15.27.22.45.21.42-.02.86-.37,1.3-1.02.2-.28.35-.56.47-.85.12-.29.17-.44.16-.44Z"/><path class="cls-3" d="M196.14,27.32c.11-.11.21-.22.31-.33,1.73-1.89,2.91-2.86,3.53-2.9.34-.02.52.16.55.54.01.26-.12.58-.41.96-1.57,2.05-2.3,3.82-2.22,5.32.03.48.19.94.47,1.36.13.2.2.35.21.46,0,.1-.04.21-.14.31-.11.13-.24.2-.4.21-.36.02-.68-.19-.95-.63-.26-.42-.41-.93-.45-1.55-.07-1.18.31-2.52,1.12-4.01-1.15.83-2.18,2.25-3.1,4.24-.24.48-.5.73-.8.75-.15,0-.28-.04-.38-.14-.13-.12-.2-.27-.21-.46-.03-.47.44-1.75,1.41-3.82.52-1.12.93-1.94,1.23-2.45.31-.5.58-.76.82-.77.11,0,.23.04.34.14.13.12.2.25.21.41.01.19-.1.48-.33.85-.34.56-.61,1.06-.81,1.51Z"/><path class="cls-3" d="M209.79,26.73c.81-.97,1.75-1.93,2.82-2.87.39-.34.8-.66,1.24-.96.22-.14.36-.22.42-.22.13,0,.27.08.41.27.08.1.13.19.13.28,0,.16-.15.38-.46.67-.85.76-1.27,1.32-1.25,1.68.01.2.13.3.36.28.38-.02,1.01-.37,1.89-1.05.15-.11.28-.17.39-.18.07,0,.14.03.22.09.08.07.13.16.13.24.01.26-.33.69-1.04,1.27-.74.62-1.46.95-2.15.99-.28.02-.54-.04-.79-.18-.21-.11-.32-.32-.34-.64-.01-.22.07-.47.23-.77-.67.53-1.43,1.42-2.3,2.67-.5.77-.99,1.71-1.46,2.82-.18.42-.42.63-.72.65-.33.02-.5-.13-.51-.43-.02-.3.19-1.11.63-2.44.65-1.97,1.35-3.51,2.11-4.62.47-.69.88-1.04,1.22-1.06.11,0,.22.02.32.09.12.08.18.19.19.32,0,.13-.07.32-.23.57-.03.05-.25.35-.65.92-.37.54-.64,1.07-.82,1.59Z"/><path class="cls-3" d="M219.63,28.33c-.26.53-.52.97-.78,1.34-.51.72-1.04,1.09-1.59,1.12-.47.03-.85-.18-1.14-.61-.18-.28-.29-.62-.31-1.01-.06-.97.19-2.07.74-3.28.61-1.35,1.38-2.4,2.3-3.16.61-.49,1.2-.76,1.79-.79.37-.02.68.08.94.29.22.19.34.41.35.67.01.19-.05.46-.18.82.14.18.22.34.22.48.01.18-.1.49-.32.93-.23.44-.45,1.03-.67,1.75-.23.77-.33,1.38-.3,1.84.02.37.15.67.38.89.06.06.25.15.56.27.23.09.35.27.36.53,0,.17-.04.31-.16.42-.12.12-.28.19-.45.2-.47.03-.89-.16-1.26-.56-.3-.33-.46-.75-.49-1.27-.01-.18,0-.47,0-.87ZM221.03,23.91c-.12-.19-.24-.32-.37-.41-.13-.08-.26-.12-.4-.12-.67.04-1.36.66-2.07,1.87-.79,1.34-1.15,2.46-1.1,3.35.01.22.06.38.15.49s.22.16.38.15c.42-.02.89-.5,1.4-1.43.29-.51.64-1.26,1.05-2.24.27-.64.47-1.07.6-1.28.06-.11.18-.24.36-.4Z"/><path class="cls-3" d="M227.19,21.58c-.52.92-.99,1.94-1.41,3.06-.6,1.6-.88,2.79-.84,3.56.01.22.07.38.17.49.1.11.24.16.42.15.44-.03.95-.47,1.52-1.33.37-.53.69-1.06.97-1.59.15-.3.32-.45.51-.47.11,0,.21.03.3.1.07.07.11.15.12.23.02.32-.37,1.07-1.15,2.24-.94,1.41-1.83,2.14-2.68,2.19-.45.03-.83-.16-1.15-.55-.2-.25-.31-.62-.34-1.1-.06-1.06.18-2.32.71-3.76.13-.36.49-1.23,1.09-2.61-.23.07-.41.12-.53.12-.18.01-.35-.02-.49-.1-.2-.11-.31-.26-.32-.44-.01-.22.1-.4.35-.55.07-.04.39-.11.96-.23.21-.05.51-.15.91-.3.28-.57.73-1.35,1.37-2.34.36-.55.6-.91.74-1.07.2-.23.38-.35.53-.36.11,0,.23.05.35.17.11.11.17.22.18.33.01.23-.21.69-.66,1.4-.3.46-.52.83-.66,1.11.96-.32,1.65-.49,2.07-.51.48-.03.74.16.76.56.01.2-.06.36-.22.46-.08.06-.31.11-.68.17-.15,0-.8.2-1.96.61-.32.12-.63.23-.94.36Z"/><path class="cls-3" d="M230.32,27.37v.24c.02.19.08.36.19.49.24.31.61.45,1.11.43,1.1-.06,2.32-.98,3.66-2.74.24-.3.45-.46.62-.47.1,0,.19.04.27.13.06.07.09.13.09.19.02.34-.37.95-1.17,1.81-.62.68-1.29,1.24-2.02,1.69s-1.41.69-2.05.72c-.66.04-1.19-.16-1.59-.6-.27-.3-.42-.72-.46-1.27-.08-1.48.53-2.98,1.84-4.48,1.07-1.22,2.02-1.86,2.86-1.91.23-.01.44.05.63.18.24.17.37.41.38.7.03.46-.16,1.05-.55,1.75-.81,1.45-2.08,2.5-3.84,3.14ZM230.55,26.33c.6-.25,1.07-.51,1.41-.79.59-.51,1.04-1.07,1.37-1.69.12-.22.18-.41.17-.58,0-.18-.1-.26-.26-.25-.23.01-.54.2-.95.57-.72.65-1.3,1.56-1.73,2.74Z"/><path class="cls-3" d="M242.38,20.45c.54-.03.96.04,1.24.22.28.18.44.46.46.86.03.52-.14,1.03-.49,1.53-.34.48-.87.88-1.6,1.2-.39.17-.73.27-1,.28-.37.02-.56-.13-.58-.46-.01-.22.08-.39.29-.52.05-.03.35-.12.88-.27.32-.09.61-.26.87-.51.22-.21.33-.44.32-.68-.01-.18-.07-.32-.18-.4-.11-.08-.27-.12-.48-.1-.51.03-1.06.27-1.65.71-.68.51-1.01,1.08-.97,1.72.03.46.29,1.01.8,1.67.56.72.85,1.33.88,1.85.04.77-.26,1.4-.92,1.88-.41.3-.88.46-1.41.49-.84.05-1.5-.22-1.97-.8-.33-.41-.51-.91-.55-1.5-.04-.68.1-1.27.43-1.75.21-.32.44-.49.68-.5.22-.01.33.07.34.24,0,.07-.03.18-.1.32-.18.39-.26.84-.23,1.35.02.43.2.79.52,1.07.29.25.61.36.96.34.34-.02.6-.15.78-.39.15-.2.21-.45.2-.75-.02-.37-.26-.83-.71-1.4-.62-.77-.96-1.49-.99-2.15-.05-.88.38-1.68,1.3-2.41.89-.7,1.86-1.08,2.89-1.14Z"/><path class="cls-3" d="M250.69,11.3c.41-.02.63.22.66.74.05.8-.34,1.87-1.15,3.21-.33.55-.73,1.05-1.19,1.52-.3.31-.55.47-.74.48-.18.01-.34-.06-.46-.23-.08-.1-.13-.22-.14-.36-.01-.19.16-.47.52-.84,1.01-1.09,1.57-2.33,1.68-3.71.03-.26.14-.46.32-.61.17-.12.34-.19.5-.2ZM253.75,11.13c.41-.02.63.22.66.74.05.8-.34,1.87-1.15,3.21-.33.55-.73,1.05-1.19,1.52-.3.31-.55.47-.74.48-.18.01-.34-.06-.46-.23-.08-.1-.13-.22-.14-.36-.01-.19.16-.47.52-.84,1.02-1.09,1.58-2.33,1.68-3.71.03-.26.14-.46.32-.61.17-.12.34-.19.5-.2Z"/><path class="cls-3" d="M25,157.74c.24.1.42.22.52.34.15.18.23.43.23.75,0,.8-.33,1.56-1,2.29-.67.73-1.36,1.1-2.06,1.1-.44,0-.79-.18-1.06-.54-.2-.26-.29-.55-.29-.86,0-.52.2-.78.6-.78.24,0,.36.09.36.27,0,.04,0,.09-.01.15-.02.08-.02.17-.02.25,0,.23.06.41.17.53.13.13.28.2.45.2.42,0,.86-.29,1.34-.87.45-.56.68-1.09.68-1.59,0-.25-.06-.45-.18-.6-.13-.16-.32-.23-.55-.23-.09,0-.19.01-.28.04-.11.03-.2.05-.26.05-.14,0-.21-.1-.21-.29,0-.17.06-.3.17-.41.06-.06.2-.12.4-.18.41-.1.75-.24,1.03-.42.18-.12.33-.27.43-.47.05-.1.08-.21.08-.32,0-.14-.04-.25-.11-.31-.08-.07-.19-.1-.35-.1-.26,0-.54.07-.82.21-.07.03-.25.13-.52.3-.07.05-.15.07-.24.07-.17,0-.25-.09-.25-.27,0-.16.12-.33.37-.51.57-.41,1.13-.61,1.68-.61.33,0,.6.1.83.3.24.21.36.47.36.77,0,.4-.17.77-.51,1.11-.19.2-.5.4-.94.62Z"/><path class="cls-3" d="M30.33,156.06c-.34.26-.68.48-1.03.66-.46.25-.77.37-.92.37-.16,0-.23-.12-.23-.37,0-.09.02-.16.06-.23.04-.06.13-.11.28-.17.44-.19,1.08-.54,1.92-1.07.38-.24.65-.36.8-.36.1,0,.2.05.28.15.05.07.08.14.08.22,0,.12-.1.33-.29.62-1.41,2.29-2.39,4.08-2.93,5.38-.13.32-.23.52-.29.59-.09.13-.19.2-.28.2s-.18-.06-.26-.17c-.05-.06-.07-.13-.07-.21,0-.26.38-1.13,1.13-2.61.7-1.39,1.28-2.4,1.74-3.02Z"/><path class="cls-3" d="M25.2,205.61c-.34.26-.68.48-1.03.66-.46.25-.77.37-.92.37-.16,0-.23-.12-.23-.37,0-.09.02-.16.06-.23.04-.06.13-.11.28-.17.44-.19,1.08-.54,1.92-1.07.38-.24.65-.36.8-.36.1,0,.2.05.28.15.05.07.08.14.08.22,0,.12-.1.33-.29.62-1.41,2.29-2.39,4.08-2.93,5.38-.13.32-.23.52-.29.59-.09.13-.19.2-.28.2s-.18-.06-.26-.17c-.05-.06-.07-.13-.07-.21,0-.26.38-1.13,1.13-2.61.7-1.39,1.28-2.4,1.74-3.02Z"/><path class="cls-3" d="M30.11,205.35c-.83.72-1.36,1.33-1.59,1.85.48-.2.9-.29,1.24-.29.4,0,.71.12.93.35.21.22.32.51.32.86,0,.81-.38,1.62-1.15,2.44-.76.82-1.5,1.22-2.23,1.22-.42,0-.75-.2-.98-.59-.15-.26-.23-.56-.23-.89s.07-.61.22-.83c.12-.18.28-.27.47-.27.18,0,.26.07.26.2,0,.03-.02.09-.04.17-.05.14-.07.33-.07.57,0,.21.05.39.15.55.13.22.31.33.53.33.44,0,.9-.28,1.38-.83.53-.61.79-1.21.79-1.81,0-.25-.06-.44-.17-.56-.11-.12-.28-.19-.51-.19s-.5.06-.82.18c-.07.02-.25.11-.54.26-.06.03-.11.05-.16.05-.09,0-.19-.06-.28-.18-.1-.13-.15-.25-.15-.36,0-.21.21-.59.64-1.16.27-.37.6-.74,1-1.11-.11-.15-.16-.26-.16-.34,0-.11.08-.19.23-.24.07-.02.35-.07.83-.13.54-.07.98-.11,1.32-.11s.55.02.7.07c.18.05.26.17.26.35,0,.22-.11.34-.34.34-.05,0-.15,0-.29-.01-.05,0-.1,0-.17,0-.23,0-.46.01-.69.03-.23.02-.45.05-.68.1Z"/><path class="cls-3" d="M196.71,233.39c.25.09.43.19.54.31.16.17.25.42.27.74.04.79-.25,1.58-.87,2.35-.63.77-1.29,1.17-2,1.21-.43.02-.8-.14-1.09-.48-.21-.25-.32-.53-.34-.85-.03-.52.16-.79.56-.81.24-.01.36.07.37.25,0,.04,0,.09,0,.15,0,.08-.01.17,0,.25.01.23.08.4.2.52.13.12.29.18.46.17.42-.02.84-.34,1.29-.95.42-.58.62-1.12.59-1.63-.01-.25-.09-.45-.22-.59-.14-.15-.33-.22-.56-.2-.09,0-.18.02-.28.06-.11.04-.19.06-.25.07-.14,0-.22-.08-.23-.27,0-.17.04-.31.14-.42.06-.07.19-.13.39-.2.4-.13.73-.29,1.01-.48.17-.13.31-.29.41-.49.05-.11.07-.21.06-.33,0-.14-.05-.24-.13-.31-.08-.06-.2-.09-.35-.08-.26.02-.53.1-.81.25-.07.04-.24.15-.5.33-.07.05-.15.08-.24.09-.17,0-.25-.08-.26-.26,0-.16.1-.34.34-.52.55-.44,1.09-.67,1.64-.7.33-.02.61.07.84.25.25.2.38.45.4.75.02.4-.13.78-.45,1.14-.17.21-.48.43-.91.68Z"/><path class="cls-3" d="M199.63,234.39c.15,0,.33-.01.54-.02.42,0,.69-.02.8-.02.28-.02.47,0,.57.06.09.05.14.16.15.31,0,.15-.03.26-.1.35-.05.05-.1.07-.17.08-.05,0-.13,0-.23,0-.18,0-.66,0-1.43.05-.47.03-.83.07-1.06.14-.11.03-.2.05-.25.05-.13,0-.24-.05-.31-.17-.04-.06-.06-.13-.06-.22-.01-.25.09-.41.33-.48.17-.05.59-.1,1.25-.14Z"/><path class="cls-3" d="M203.79,233.31c.39-.37.76-.57,1.09-.59.21-.01.38.06.52.23.13.14.2.32.21.52.02.38-.08.85-.29,1.4-.24.62-.61,1.2-1.11,1.74-.41.45-.81.69-1.21.71-.15,0-.28-.01-.4-.06-.12-.05-.23-.12-.33-.22-.04.07-.06.12-.07.14-.07.18-.12.3-.15.34-.03.04-.08.06-.15.07-.09,0-.17-.04-.26-.14-.06-.07-.09-.14-.09-.21,0-.14.23-.84.72-2.12.69-1.78,1.5-3.56,2.43-5.33.38-.73.61-1.15.7-1.28.09-.15.18-.23.27-.24.11,0,.21.04.29.14.06.06.09.14.09.24,0,.1-.03.23-.12.4-.02.04-.16.3-.42.78-.8,1.42-1.38,2.58-1.74,3.49ZM202.73,236.55c.08.04.16.06.24.06.42-.02.85-.42,1.28-1.18.2-.34.35-.68.46-1.02.09-.3.14-.52.13-.66,0-.1-.03-.17-.08-.21-.05-.04-.12-.06-.21-.06-.22.01-.49.18-.79.51-.3.32-.59.77-.86,1.36-.13.28-.24.54-.34.79l-.08.2c.08.09.16.16.24.21Z"/><path class="cls-3" d="M207.74,232.55c.08,0,.15.02.21.08.04.05.06.1.07.16,0,.09-.06.24-.19.45-.46.81-.79,1.48-.97,2-.2.53-.37,1.08-.51,1.64-.06.25-.18.38-.34.39-.1,0-.18-.03-.24-.1-.06-.06-.09-.13-.09-.2,0-.15.12-.64.38-1.49.21-.67.56-1.41,1.06-2.23.16-.27.28-.45.37-.54.08-.1.17-.15.26-.15ZM208.97,229.75c.22-.01.34.09.35.32.01.2-.08.44-.28.7-.19.25-.38.38-.57.39-.09,0-.17-.02-.23-.09-.06-.06-.1-.14-.1-.23-.01-.23.1-.49.34-.77.18-.21.34-.31.5-.32Z"/><path class="cls-3" d="M210.46,232.06c-.29.51-.55,1.08-.78,1.7-.34.89-.49,1.55-.47,1.98,0,.12.04.21.09.27.06.06.13.09.24.08.24-.01.53-.26.85-.74.2-.29.38-.59.54-.88.08-.17.18-.25.29-.26.06,0,.12.02.16.06.04.04.06.08.07.13,0,.18-.2.6-.64,1.25-.52.78-1.02,1.19-1.49,1.21-.25.01-.46-.09-.64-.31-.11-.14-.17-.35-.19-.61-.03-.59.1-1.29.39-2.09.07-.2.27-.68.61-1.45-.13.04-.23.06-.3.07-.1,0-.19-.01-.27-.06-.11-.06-.17-.14-.18-.25,0-.12.06-.22.2-.3.04-.02.22-.06.54-.13.12-.03.28-.08.5-.17.15-.32.41-.75.76-1.3.2-.3.34-.5.41-.6.11-.13.21-.19.3-.2.06,0,.13.03.2.09.06.06.09.12.1.19,0,.13-.12.39-.37.78-.17.25-.29.46-.37.62.53-.18.92-.27,1.15-.29.27-.02.41.09.42.31,0,.11-.04.2-.12.26-.05.03-.17.06-.38.1-.08,0-.45.11-1.09.34-.18.06-.35.13-.52.2Z"/><path class="cls-1" d="M105.06,98.55c-1.46-6.41,4.38-18.91.21-33.35"/><path class="cls-3" d="M109.1,68.42c-.11.12-.3.13-.42.02l-3.39-3.1-1.38,4.38c-.05.16-.22.25-.38.2-.16-.05-.25-.22-.2-.38l1.52-4.83c.03-.1.11-.17.21-.2s.2,0,.28.07l3.73,3.42s.07.09.09.14c.03.1,0,.2-.07.28Z"/><path class="cls-1" d="M102.97,111.66c-1.45,16.36,4.57,30.83,3.88,44.91"/><path class="cls-3" d="M104.09,152.36c.14-.08.33-.04.41.11l2.33,3.96,2.6-3.78c.09-.14.28-.17.42-.08.14.09.17.28.08.42l-2.87,4.17c-.06.08-.16.13-.26.13-.1,0-.2-.06-.25-.15l-2.56-4.36c-.03-.05-.04-.11-.04-.16,0-.1.06-.19.15-.25Z"/><path class="cls-3" d="M140.23,186.1c.82-.26,1.57-.39,2.26-.39.27,0,.49.06.65.17.15.1.22.22.22.36,0,.09-.03.18-.1.25s-.15.11-.23.11c-.03,0-.07,0-.13-.02-.25-.07-.48-.1-.69-.1-.18,0-.4.02-.67.05-.09.01-.43.1-1.02.26-.53.14-.84.21-.94.21-.14,0-.26-.07-.36-.2-.09-.12-.14-.25-.14-.38,0-.15.13-.34.38-.59.48-.47.94-.89,1.38-1.27.42-.35.94-.76,1.56-1.22.71-.52,1.2-.9,1.46-1.14.4-.35.6-.7.6-1.05,0-.2-.06-.35-.19-.46-.11-.1-.25-.15-.42-.15-.44,0-.96.25-1.55.74-.27.22-.44.34-.51.34-.05,0-.11-.03-.17-.09-.07-.06-.1-.13-.1-.21,0-.18.21-.42.64-.75.68-.52,1.33-.78,1.96-.78.36,0,.65.11.89.34.23.22.34.49.34.8,0,.55-.28,1.09-.83,1.63-.24.23-.68.59-1.32,1.05-1.54,1.12-2.53,1.95-2.97,2.48Z"/><path class="cls-3" d="M146.39,183.67c.15,0,.33,0,.54.01.42.01.69.02.8.02.28,0,.47.03.56.1.09.06.13.17.13.32,0,.15-.04.26-.12.34-.05.04-.11.07-.18.07-.05,0-.13,0-.23-.01-.18-.02-.66-.03-1.44-.03-.47,0-.83.03-1.06.08-.11.02-.2.04-.26.04-.13,0-.23-.06-.3-.19-.03-.06-.05-.14-.05-.22,0-.25.12-.41.35-.46.18-.04.6-.07,1.26-.07Z"/><path class="cls-3" d="M150.6,182.83c.42-.35.79-.53,1.12-.53.21,0,.37.09.5.26.12.15.18.33.18.53,0,.38-.12.84-.37,1.38-.28.6-.68,1.16-1.21,1.68-.43.43-.85.64-1.25.64-.15,0-.28-.03-.4-.08-.12-.05-.23-.13-.32-.24-.04.07-.06.11-.07.13-.08.18-.14.29-.17.33-.03.04-.08.06-.15.06-.09,0-.17-.05-.25-.15-.05-.07-.08-.14-.08-.22,0-.14.28-.83.84-2.07.79-1.74,1.7-3.47,2.73-5.19.42-.7.68-1.12.77-1.24.1-.15.2-.22.29-.22.11,0,.2.05.29.16.05.07.08.15.08.24,0,.1-.05.23-.14.39-.02.03-.17.29-.46.75-.88,1.37-1.53,2.5-1.93,3.38ZM149.36,186.01c.08.05.15.07.24.07.42,0,.87-.37,1.35-1.11.22-.33.39-.66.52-.99.11-.29.17-.51.17-.65,0-.1-.02-.17-.07-.22-.04-.05-.11-.07-.21-.07-.22,0-.5.15-.81.46-.32.3-.63.74-.94,1.31-.15.27-.27.53-.38.77l-.09.2c.07.1.15.17.22.22Z"/><path class="cls-3" d="M154.59,182.29c.08,0,.15.03.21.1.04.05.06.11.06.16,0,.09-.07.23-.21.44-.51.79-.87,1.43-1.08,1.94-.23.52-.43,1.06-.61,1.61-.08.24-.2.37-.37.37-.1,0-.18-.04-.23-.12-.05-.06-.08-.13-.08-.21,0-.15.16-.63.47-1.46.24-.65.64-1.38,1.19-2.17.18-.26.31-.43.4-.52.09-.09.18-.14.27-.14ZM155.98,179.58c.22,0,.33.11.33.34,0,.21-.11.43-.32.68-.21.24-.4.36-.59.36-.09,0-.17-.03-.23-.1-.06-.06-.09-.14-.09-.23,0-.23.13-.48.39-.75.19-.2.36-.29.51-.29Z"/><path class="cls-3" d="M157.33,181.96c-.32.49-.61,1.04-.88,1.66-.39.87-.58,1.52-.58,1.95,0,.12.03.21.08.28.05.06.13.1.23.1.24,0,.54-.23.89-.69.22-.28.42-.57.59-.85.09-.16.19-.24.3-.24.06,0,.12.02.16.07.04.04.06.09.06.13,0,.18-.24.58-.71,1.21-.57.75-1.08,1.13-1.55,1.13-.25,0-.46-.11-.62-.34-.1-.15-.15-.35-.15-.62,0-.59.17-1.28.51-2.07.08-.2.31-.67.69-1.41-.13.03-.23.05-.3.05-.1,0-.19-.02-.27-.07-.11-.07-.16-.15-.16-.26,0-.12.07-.22.21-.29.04-.02.22-.05.54-.1.12-.02.29-.07.51-.14.17-.31.45-.73.83-1.25.21-.29.36-.48.45-.57.12-.12.22-.18.31-.18.06,0,.13.03.19.1.06.06.09.13.09.19,0,.13-.14.38-.41.75-.18.24-.32.44-.4.59.54-.15.93-.22,1.17-.22.27,0,.4.11.4.34,0,.11-.05.2-.14.25-.05.03-.18.05-.38.07-.08,0-.45.09-1.11.28-.18.05-.36.11-.53.17Z"/><path class="cls-1" d="M148.51,177.67c-1.45-6.36,1.45-5.65.8-15.33"/><path class="cls-3" d="M152.34,166.31c-.14.1-.32.06-.42-.07l-2.63-3.76-2.29,3.98c-.08.14-.27.19-.41.11-.14-.08-.19-.27-.11-.41l2.53-4.38c.05-.09.14-.15.25-.15.1,0,.2.04.26.13l2.9,4.15s.05.1.05.16c0,.1-.04.2-.13.26Z"/><path class="cls-1" d="M147.74,190.77c-1.82,6.36,1.43,8.05,1.52,15.58"/><path class="cls-3" d="M146.19,202.37c.14-.09.32-.06.42.08l2.61,3.77,2.31-3.96c.08-.14.27-.19.41-.11.14.08.19.27.11.41l-2.55,4.37c-.05.09-.15.14-.25.15-.1,0-.2-.04-.26-.13l-2.88-4.16s-.05-.1-.05-.16c0-.1.04-.2.13-.26Z"/><path class="cls-1" d="M200.59,228.53c-1.45-6.36-.07-7.62-.79-17.41"/><path class="cls-3" d="M202.83,215.1c-.14.1-.32.06-.42-.07l-2.63-3.76-2.29,3.98c-.08.14-.27.19-.41.11-.14-.08-.19-.27-.11-.41l2.53-4.38c.05-.09.14-.15.25-.15.1,0,.2.04.26.13l2.9,4.14s.05.1.05.16c0,.1-.04.2-.13.26Z"/><path class="cls-1" d="M201.22,239.56c2.81,6.27.18,8.58,1.39,15.59"/><path class="cls-3" d="M199.18,251.51c.13-.11.31-.09.42.03l3,3.47,1.88-4.19c.07-.15.25-.22.4-.15.15.07.22.25.15.4l-2.07,4.62c-.04.09-.13.16-.23.17-.1.01-.2-.02-.27-.1l-3.31-3.83s-.06-.1-.07-.15c-.01-.1.02-.2.1-.27Z"/><path class="cls-3" d="M28.09,254.04c.26.1.46.27.59.49.13.23.19.52.19.87,0,1.09-.42,2.25-1.27,3.47-.92,1.33-1.81,2-2.65,2-.42,0-.74-.22-.95-.65-.14-.28-.21-.62-.21-1.03,0-.97.35-1.99,1.06-3.06.37-.55.86-1.12,1.49-1.71.65-.61,1.13-.91,1.41-.91.22,0,.33.17.33.52ZM27.14,254.57c-.57.47-1.08,1.04-1.52,1.71-.63.97-.95,1.9-.95,2.81,0,.27.04.48.11.63.12.23.29.35.5.35.34,0,.74-.26,1.21-.78.52-.58.93-1.28,1.23-2.11.23-.63.34-1.16.34-1.6,0-.3-.09-.56-.28-.78-.13-.15-.29-.23-.5-.24h-.15Z"/></svg>