<?xml version="1.0" encoding="UTF-8"?><svg id="Layer_1" xmlns="http://www.w3.org/2000/svg" viewBox="0 0 722.11 321.04"><defs><style>.cls-1,.cls-2{stroke-miterlimit:10;}.cls-1,.cls-2,.cls-3{fill:none;stroke-linecap:round;}.cls-1,.cls-3{stroke:#4d4d4d;}.cls-4{fill:#4d4d4d;}.cls-5{fill:#fff;}.cls-2{stroke:#ccc;}.cls-6{fill:#ccc;}.cls-7{fill:#b3b3b3;}.cls-3{stroke-linejoin:round;}.cls-8{fill:#e6e6e6;}</style></defs><rect class="cls-7" x="61.95" y="85.51" width="324.21" height="195.7"/><rect class="cls-8" x="61.95" y="182.61" width="324.21" height="98.6"/><path class="cls-6" d="M386.15,183.11c.28,0,.5-.22.5-.5s-.22-.5-.5-.5H61.84c-.28,0-.5.22-.5.5s.22.5.5.5h324.31"/><rect class="cls-5" x="61.95" y="231.91" width="324.21" height="49.3"/><path class="cls-6" d="M386.15,232.66c.28,0,.5-.22.5-.5s-.22-.5-.5-.5H61.84c-.28,0-.5.22-.5.5s.22.5.5.5h324.31"/><line class="cls-2" x1="107.74" y1="83.01" x2="107.74" y2="281.21"/><path class="cls-4" d="M119.99,129.4c.53-.36.93-.7,1.2-1,.39-.44.67-.8.83-1.08.08-.12.17-.19.25-.18.12,0,.17.06.17.17,0,.13-.1.35-.3.65-.6.92-1.49,1.71-2.67,2.37-.57,1.11-.99,1.85-1.26,2.25-.71,1.03-1.36,1.54-1.95,1.52-.31,0-.53-.14-.66-.39-.07-.14-.11-.31-.1-.49.02-.77.54-1.49,1.55-2.16.16-.11.8-.46,1.93-1.04.23-.45.41-.8.53-1.05-.53.52-.96.78-1.3.77-.21,0-.37-.12-.48-.34-.07-.14-.1-.29-.1-.44.01-.35.17-.8.47-1.34.44-.78.95-1.4,1.54-1.84.5-.37.93-.55,1.3-.54.19,0,.35.08.48.23.09.1.13.23.13.41,0,.22-.09.5-.25.83.11.11.16.19.16.25,0,.03-.03.08-.08.14-.14.18-.36.51-.67,1-.27.43-.51.86-.72,1.3ZM118.5,130.86c-.65.25-1.23.65-1.74,1.19-.24.25-.41.52-.52.8-.03.09-.05.16-.05.22,0,.06.01.12.04.17.05.09.12.14.22.14.3,0,.67-.3,1.09-.94.37-.55.69-1.08.96-1.58ZM119.99,127.71c-.07-.08-.1-.13-.1-.16,0-.04.04-.1.12-.17.25-.23.46-.46.62-.71.13-.2.19-.35.2-.46,0-.13-.05-.2-.18-.2-.21,0-.52.18-.92.57-.48.46-.86.98-1.13,1.55-.13.29-.21.51-.21.67,0,.09.01.15.05.2.04.05.09.07.17.07.17,0,.42-.16.73-.5.2-.22.37-.43.52-.64.1-.14.14-.21.14-.22Z"/><path class="cls-4" d="M123.76,127.74c.49-.5,1.06-.98,1.7-1.45.23-.17.47-.32.73-.47.13-.07.21-.1.25-.1.07,0,.14.06.21.17.04.06.06.11.06.16,0,.09-.1.2-.29.35-.51.38-.77.67-.77.87,0,.11.06.17.18.17.21,0,.58-.16,1.1-.49.09-.06.16-.08.22-.08.04,0,.08.02.12.06.04.05.06.09.06.14,0,.15-.22.36-.64.65-.44.31-.85.46-1.24.44-.16,0-.3-.05-.43-.14-.11-.07-.16-.2-.16-.37,0-.12.06-.26.17-.41-.39.26-.86.72-1.41,1.36-.32.4-.63.9-.95,1.49-.12.22-.26.33-.43.32-.18,0-.27-.09-.26-.27,0-.17.16-.61.47-1.32.45-1.06.92-1.88,1.4-2.46.29-.36.54-.53.73-.53.06,0,.12.02.17.06.06.05.09.11.09.19s-.05.17-.16.3c-.02.02-.15.18-.4.48-.23.28-.41.56-.53.84Z"/><path class="cls-4" d="M129.91,125.61c.4.01.59.26.58.75-.02.65-.35,1.46-.98,2.44-.69,1.06-1.34,1.58-1.95,1.56-.28,0-.49-.15-.61-.41-.06-.13-.09-.29-.09-.48.02-.62.25-1.3.71-2.02.42-.67.91-1.18,1.46-1.54.32-.21.62-.31.87-.3ZM129.06,128.36c-.12-.1-.18-.18-.18-.23,0-.04.08-.14.25-.31.45-.48.69-.87.7-1.17,0-.04,0-.08-.03-.12-.04-.07-.1-.11-.18-.12-.16,0-.39.14-.7.43-.4.38-.71.77-.93,1.18-.25.47-.38.86-.39,1.17,0,.08.02.16.06.22.06.09.14.14.24.14.23,0,.49-.16.77-.5.12-.14.22-.29.3-.44.08-.15.11-.23.11-.24Z"/><path class="cls-4" d="M133.02,128.39c-.44.55-.76.93-.97,1.14-.26.26-.48.46-.66.59-.21.14-.4.21-.58.21-.17,0-.3-.09-.39-.27-.07-.13-.1-.28-.1-.44.02-.53.36-1.25,1.02-2.17.6-.83,1.04-1.24,1.32-1.23.07,0,.13.04.19.1.06.06.08.13.08.21,0,.11-.1.25-.3.44-.42.39-.78.83-1.1,1.32-.27.42-.4.7-.41.83,0,.1.04.15.13.15.29,0,.95-.61,1.96-1.84.33-.4.53-.63.6-.69.13-.11.26-.17.39-.16.09,0,.16.03.22.08.05.05.08.1.08.16,0,.06-.13.3-.38.73-.56.92-.85,1.54-.86,1.87,0,.13.05.19.15.2.18,0,.42-.19.74-.58.3-.37.59-.85.86-1.42.12-.25.22-.58.32-.99.11-.47.32-.7.61-.69.17,0,.25.1.24.29-.02.64-.4,1.51-1.15,2.6-.78,1.14-1.42,1.71-1.93,1.69-.38-.01-.56-.25-.54-.71.01-.38.16-.85.43-1.39Z"/><path class="cls-4" d="M139.59,125.78c.3,0,.53.07.68.18.15.11.22.28.21.5,0,.29-.12.56-.35.83-.21.25-.53.44-.94.59-.23.08-.42.11-.57.11-.21,0-.3-.1-.3-.28,0-.12.07-.21.18-.27.03-.01.2-.05.5-.11.18-.03.35-.11.51-.24.13-.11.21-.23.21-.36,0-.1-.02-.18-.08-.23s-.14-.08-.26-.08c-.28,0-.6.1-.95.31-.4.25-.61.55-.62.9,0,.25.11.58.36.96.28.42.41.78.4,1.07-.01.43-.21.76-.6.99-.24.14-.51.21-.81.2-.47-.01-.82-.19-1.05-.54-.16-.24-.24-.53-.23-.86.01-.38.12-.7.32-.95.13-.17.27-.25.4-.24.12,0,.18.05.18.15,0,.04-.02.1-.07.17-.12.21-.18.45-.19.73,0,.24.07.44.24.62.15.15.32.23.51.24.19,0,.34-.05.45-.18.09-.1.14-.24.14-.41,0-.21-.1-.47-.33-.81-.31-.46-.46-.87-.45-1.24.02-.49.29-.91.84-1.27.53-.35,1.08-.51,1.66-.49Z"/><line class="cls-2" x1="154.14" y1="83.01" x2="154.14" y2="281.21"/><line class="cls-2" x1="200.55" y1="83.01" x2="200.55" y2="281.21"/><line class="cls-2" x1="246.95" y1="83.01" x2="246.95" y2="281.21"/><line class="cls-2" x1="293.35" y1="83.01" x2="293.35" y2="281.21"/><line class="cls-2" x1="339.75" y1="83.01" x2="339.75" y2="281.21"/><path class="cls-4" d="M62.96,288.62c.26.1.46.27.59.49.13.23.19.52.19.87,0,1.09-.42,2.25-1.27,3.47-.92,1.33-1.81,2-2.65,2-.42,0-.73-.22-.94-.65-.14-.28-.21-.62-.21-1.03,0-.97.35-1.99,1.06-3.06.37-.55.86-1.12,1.49-1.71.65-.61,1.12-.91,1.41-.91.22,0,.33.17.33.52ZM62.01,289.15c-.57.47-1.08,1.04-1.52,1.71-.63.97-.94,1.9-.94,2.81,0,.27.04.48.11.63.12.23.29.35.51.35.34,0,.74-.26,1.21-.78.52-.58.93-1.28,1.23-2.11.23-.63.34-1.16.34-1.6,0-.3-.09-.56-.28-.78-.13-.15-.3-.23-.51-.24h-.15Z"/><path class="cls-4" d="M386.65,82.51h0s-324.81,0-324.81,0c-.28,0-.5.22-.5.5v199.2c0,.28.22.5.5.5h0s324.81,0,324.81,0c.28,0,.5-.22.5-.5V83.01c0-.28-.22-.5-.5-.5ZM62.34,279.71V85.51h323.81v194.2H62.34Z"/><path class="cls-4" d="M42.84,85.64c.82-.26,1.58-.39,2.26-.39.27,0,.49.06.65.17.15.1.22.22.22.36,0,.09-.03.18-.1.25s-.15.11-.23.11c-.03,0-.07,0-.13-.02-.25-.07-.48-.1-.69-.1-.18,0-.4.02-.67.05-.09.01-.43.1-1.02.26-.53.14-.84.21-.94.21-.14,0-.26-.07-.36-.2-.09-.12-.14-.25-.14-.38,0-.15.13-.34.38-.59.48-.47.94-.89,1.38-1.27.42-.35.94-.76,1.56-1.22.71-.52,1.2-.9,1.46-1.14.4-.35.6-.7.6-1.05,0-.2-.06-.35-.19-.46-.11-.1-.25-.15-.42-.15-.44,0-.96.25-1.55.74-.27.22-.44.34-.51.34-.05,0-.1-.03-.17-.09-.07-.06-.1-.13-.1-.21,0-.18.21-.42.64-.75.68-.52,1.34-.78,1.96-.78.36,0,.65.11.89.34.23.22.34.49.34.8,0,.55-.28,1.09-.83,1.63-.24.23-.68.59-1.32,1.05-1.54,1.12-2.53,1.95-2.97,2.48Z"/><path class="cls-4" d="M51.25,80.11c-.83.72-1.36,1.33-1.59,1.85.48-.2.9-.29,1.24-.29.4,0,.71.12.93.35.21.22.31.51.31.86,0,.81-.38,1.62-1.15,2.44-.76.82-1.5,1.22-2.23,1.22-.42,0-.75-.2-.98-.59-.15-.26-.23-.56-.23-.89s.07-.61.22-.83c.12-.18.28-.27.47-.27.18,0,.26.07.26.2,0,.03-.01.09-.04.17-.05.14-.07.33-.07.57,0,.21.05.39.15.55.13.22.31.33.53.33.44,0,.9-.28,1.38-.83.53-.61.79-1.21.79-1.81,0-.25-.06-.44-.17-.56-.11-.12-.28-.19-.51-.19s-.5.06-.82.18c-.07.02-.25.11-.54.26-.06.03-.11.05-.16.05-.09,0-.19-.06-.28-.18-.1-.13-.15-.25-.15-.36,0-.21.21-.59.64-1.16.27-.37.6-.74,1-1.11-.11-.15-.16-.26-.16-.34,0-.11.08-.19.23-.24.07-.02.35-.07.83-.13.54-.07.98-.11,1.32-.11s.55.02.7.07c.18.05.26.17.26.35,0,.22-.11.34-.34.34-.05,0-.15,0-.29-.01-.05,0-.1,0-.17,0-.23,0-.46.01-.69.03-.23.02-.45.05-.68.1Z"/><path class="cls-4" d="M56.38,80.11c-.83.72-1.36,1.33-1.59,1.85.48-.2.9-.29,1.24-.29.4,0,.71.12.93.35.21.22.31.51.31.86,0,.81-.38,1.62-1.15,2.44-.76.82-1.5,1.22-2.23,1.22-.42,0-.75-.2-.98-.59-.15-.26-.23-.56-.23-.89s.07-.61.22-.83c.12-.18.28-.27.47-.27.18,0,.26.07.26.2,0,.03-.01.09-.04.17-.05.14-.07.33-.07.57,0,.21.05.39.15.55.13.22.31.33.53.33.44,0,.9-.28,1.38-.83.53-.61.79-1.21.79-1.81,0-.25-.06-.44-.17-.56-.11-.12-.28-.19-.51-.19s-.5.06-.82.18c-.07.02-.25.11-.54.26-.06.03-.11.05-.16.05-.09,0-.19-.06-.28-.18-.1-.13-.15-.25-.15-.36,0-.21.21-.59.64-1.16.27-.37.6-.74,1-1.11-.11-.15-.16-.26-.16-.34,0-.11.08-.19.23-.24.07-.02.35-.07.83-.13.54-.07.98-.11,1.32-.11s.55.02.7.07c.18.05.26.17.26.35,0,.22-.11.34-.34.34-.05,0-.15,0-.29-.01-.05,0-.1,0-.17,0-.23,0-.46.01-.69.03-.23.02-.45.05-.68.1Z"/><path class="cls-4" d="M388.11,289c-1.31.29-2.24.43-2.77.43-.36,0-.53-.12-.53-.35,0-.12.04-.22.12-.3s.17-.12.27-.12c.04,0,.11,0,.21.01.06,0,.14.01.22.01.3,0,.7-.04,1.2-.12.63-.1,1.1-.19,1.4-.27.17-.04.31-.07.42-.07.26,0,.4.14.4.42,0,.19-.11.41-.34.64-1.68,1.8-3,3.57-3.95,5.32-.23.42-.38.67-.44.75-.12.14-.24.21-.37.21-.07,0-.14-.03-.19-.08-.07-.06-.1-.13-.1-.21,0-.25.24-.76.71-1.54.62-1.02,1.38-2.06,2.26-3.11.53-.63,1.02-1.18,1.49-1.63Z"/><path class="cls-4" d="M39.28,35.04c.18-.01.34.06.46.22.08.1.13.22.14.35.01.2-.16.48-.52.85-1.01,1.08-1.57,2.32-1.68,3.71-.03.26-.14.46-.32.6-.17.13-.34.2-.52.21-.4.02-.62-.22-.65-.73-.05-.81.34-1.88,1.15-3.22.33-.55.73-1.05,1.19-1.52.3-.31.55-.47.74-.48ZM42.34,34.86c.17,0,.33.06.46.22.09.1.13.22.14.35.01.2-.16.48-.52.85-1.01,1.08-1.57,2.32-1.68,3.71-.03.26-.14.46-.32.6-.17.13-.34.2-.52.21-.4.02-.62-.22-.65-.73-.05-.81.34-1.88,1.15-3.22.34-.56.74-1.06,1.19-1.52.3-.31.55-.47.74-.48Z"/><path class="cls-4" d="M47.17,50.59c-.78,1.07-1.47,1.62-2.08,1.65-.4.02-.73-.15-.98-.53-.16-.24-.25-.54-.28-.9-.05-.82.18-1.79.68-2.92.67-1.5,1.53-2.71,2.57-3.62.61-.53,1.2-.81,1.76-.84.47-.03.82.13,1.03.47.15.24.24.5.26.78,0,.11,0,.25,0,.44.26.08.39.2.4.36,0,.11-.07.31-.21.62-.52,1.17-1.38,3.33-2.58,6.47-1.05,2.73-1.82,5.13-2.31,7.2-.11.62-.34.94-.67.96-.18.01-.33-.07-.45-.25-.09-.13-.13-.27-.14-.41-.03-.54.39-2.07,1.26-4.61.41-1.2.79-2.26,1.14-3.18.28-.71.48-1.27.62-1.69ZM47.74,48.39c-.04-.12-.06-.21-.07-.27-.01-.2.13-.47.42-.8.55-.63.81-1.32.77-2.06-.01-.18-.05-.31-.12-.39s-.17-.12-.3-.12c-.45.03-1.11.69-2,2-.42.62-.78,1.36-1.08,2.2-.2.58-.3,1.02-.28,1.31,0,.13.05.24.14.33.11.14.25.2.42.19.36-.02.78-.36,1.28-1.02.21-.29.39-.58.54-.85.18-.33.28-.5.27-.52Z"/><path class="cls-4" d="M54.81,49.57c-.35.55-.66.99-.93,1.32-.48.59-.96.9-1.47.93-.43.02-.77-.15-1.03-.52-.18-.26-.28-.58-.3-.96-.06-1.13.34-2.46,1.23-3.98.41-.71.82-1.26,1.24-1.64.33-.31.6-.47.82-.48.12,0,.24.04.35.14.09.09.14.19.15.28,0,.17-.14.45-.44.84-.68.91-1.19,1.74-1.52,2.49-.39.88-.57,1.56-.54,2.04,0,.12.04.21.1.28.06.06.14.09.25.08.45-.03,1.03-.7,1.76-2.03.37-.69.69-1.45.94-2.27.13-.45.32-.85.55-1.21.23-.32.46-.49.7-.5.13,0,.25.04.37.15.12.12.19.25.19.4.02.32-.24,1.04-.79,2.18-.37.79-.54,1.43-.51,1.94.03.54.2,1,.51,1.37.08.1.34.25.75.46.2.1.31.28.32.54,0,.16-.05.3-.18.42s-.29.19-.48.2c-.44.02-.85-.13-1.23-.46-.34-.3-.58-.74-.7-1.33-.02-.08-.06-.31-.1-.68Z"/><path class="cls-4" d="M62,49.01c-.26.53-.52.97-.78,1.34-.51.72-1.04,1.09-1.59,1.12-.47.03-.85-.18-1.14-.61-.18-.28-.29-.62-.31-1.01-.06-.97.19-2.07.74-3.28.61-1.35,1.38-2.4,2.3-3.15.61-.49,1.2-.75,1.79-.79.37-.02.68.08.94.29.22.19.34.41.35.67.01.19-.05.47-.18.82.14.18.22.34.23.48,0,.18-.1.49-.32.93-.23.44-.45,1.03-.67,1.75-.23.77-.33,1.38-.3,1.84.02.37.15.67.38.89.06.06.25.15.56.27.23.09.35.27.36.53,0,.17-.04.31-.16.42-.12.12-.28.19-.45.2-.47.03-.89-.16-1.26-.56-.3-.33-.46-.75-.49-1.27,0-.18,0-.47,0-.87ZM63.4,44.58c-.12-.19-.24-.32-.37-.41-.13-.08-.26-.12-.4-.12-.67.04-1.36.66-2.07,1.87-.79,1.34-1.15,2.46-1.1,3.35.01.22.06.38.15.49.09.11.22.16.38.15.42-.02.89-.5,1.4-1.43.29-.51.64-1.26,1.05-2.24.27-.64.47-1.07.6-1.28.06-.11.18-.24.36-.4Z"/><path class="cls-4" d="M67.38,46.54c.81-.97,1.75-1.93,2.82-2.87.39-.34.8-.66,1.24-.96.22-.14.36-.22.42-.22.13,0,.27.08.41.27.08.1.13.2.13.28,0,.16-.15.38-.46.67-.86.76-1.27,1.32-1.25,1.68.01.2.13.3.36.28.38-.02,1.01-.37,1.89-1.05.15-.11.28-.17.39-.18.07,0,.14.03.22.09.08.07.13.16.13.24.01.26-.33.69-1.04,1.27-.74.62-1.46.95-2.15.99-.28.02-.54-.04-.79-.18-.21-.11-.32-.33-.34-.64-.01-.22.07-.47.23-.77-.66.53-1.43,1.42-2.3,2.67-.5.77-.99,1.71-1.46,2.82-.18.42-.42.63-.72.65-.33.02-.5-.13-.51-.43-.02-.3.19-1.11.63-2.44.65-1.97,1.35-3.51,2.11-4.62.47-.69.88-1.04,1.22-1.06.11,0,.22.02.32.09.12.08.18.19.19.32,0,.13-.07.32-.23.57-.03.05-.25.35-.65.92-.37.54-.64,1.07-.82,1.59Z"/><path class="cls-4" d="M77.8,41.78c-.52.92-.99,1.94-1.41,3.06-.6,1.6-.88,2.79-.84,3.56.01.22.07.38.17.49.1.11.24.16.42.15.44-.03.95-.47,1.52-1.33.37-.53.69-1.06.97-1.59.15-.3.32-.45.52-.47.11,0,.21.03.3.1.07.08.11.15.12.23.02.32-.37,1.07-1.15,2.24-.94,1.41-1.83,2.14-2.67,2.19-.45.03-.83-.16-1.15-.55-.2-.25-.31-.62-.34-1.1-.06-1.06.18-2.32.71-3.76.13-.36.49-1.23,1.09-2.61-.23.08-.41.12-.54.12-.18.01-.35-.02-.49-.1-.2-.11-.3-.26-.32-.44-.01-.22.1-.4.35-.55.07-.04.39-.11.96-.23.21-.05.51-.15.91-.3.28-.57.73-1.35,1.37-2.34.36-.55.6-.91.74-1.07.2-.23.38-.35.53-.36.11,0,.23.05.35.16.11.11.17.22.18.33.01.23-.21.69-.66,1.4-.3.46-.52.83-.66,1.11.96-.32,1.65-.49,2.07-.51.48-.03.74.16.76.56.01.2-.06.36-.23.46-.08.06-.31.11-.68.17-.15,0-.8.2-1.96.61-.32.11-.63.23-.94.36Z"/><path class="cls-4" d="M80.93,47.57v.24c.02.19.08.36.19.49.24.31.61.45,1.11.43,1.1-.06,2.32-.98,3.66-2.74.24-.3.44-.46.62-.47.1,0,.19.04.27.13.06.07.09.13.09.19.02.34-.37.95-1.17,1.81-.62.68-1.29,1.24-2.02,1.69-.72.45-1.4.69-2.04.72-.66.04-1.19-.16-1.59-.6-.27-.3-.42-.72-.46-1.27-.08-1.48.53-2.97,1.84-4.48,1.07-1.22,2.02-1.86,2.86-1.91.23-.01.44.05.63.18.24.17.37.41.38.7.03.47-.16,1.05-.55,1.75-.81,1.45-2.08,2.5-3.84,3.14ZM81.16,46.53c.6-.25,1.07-.51,1.41-.79.59-.51,1.04-1.07,1.37-1.69.12-.22.17-.41.17-.58-.01-.18-.1-.26-.27-.25-.23.01-.54.2-.94.57-.72.65-1.3,1.56-1.73,2.74Z"/><path class="cls-4" d="M89.6,45.27c.81-.97,1.75-1.93,2.82-2.87.39-.34.8-.66,1.24-.96.22-.14.36-.22.42-.22.13,0,.27.08.41.27.08.1.13.2.13.28,0,.16-.15.38-.46.67-.85.76-1.27,1.32-1.25,1.68.01.2.13.3.36.28.38-.02,1.01-.37,1.89-1.05.15-.11.28-.17.39-.18.07,0,.14.03.22.09.08.07.13.16.13.24.01.26-.33.69-1.04,1.27-.74.62-1.46.95-2.15.99-.28.02-.54-.04-.79-.18-.21-.11-.32-.33-.34-.64-.01-.22.07-.47.23-.77-.66.53-1.43,1.42-2.3,2.67-.5.77-.99,1.71-1.46,2.82-.18.42-.42.63-.72.65-.32.02-.5-.13-.51-.43-.02-.3.19-1.11.63-2.44.64-1.97,1.35-3.51,2.11-4.62.47-.69.88-1.04,1.22-1.06.11,0,.22.02.32.09.12.08.18.19.19.32,0,.13-.07.32-.23.57-.03.05-.25.35-.65.92-.37.54-.64,1.07-.82,1.59Z"/><path class="cls-4" d="M98.14,43.7c.27-.02.59-.02.96-.03.76-.02,1.24-.03,1.44-.04.51-.03.85,0,1.02.11.16.1.25.28.27.57.01.26-.05.47-.19.63-.08.08-.19.13-.31.14-.09,0-.23,0-.42,0-.33-.02-1.19.01-2.58.09-.85.05-1.48.13-1.9.25-.2.06-.35.09-.46.09-.24.01-.42-.09-.56-.31-.07-.11-.11-.24-.12-.39-.03-.46.17-.74.58-.87.31-.1,1.06-.18,2.26-.25Z"/><path class="cls-4" d="M107.77,39.81c.54-.03.96.04,1.24.22s.44.46.46.86c.03.52-.13,1.03-.49,1.53-.34.48-.88.88-1.6,1.2-.4.17-.73.27-1,.28-.37.02-.56-.13-.58-.46-.01-.22.08-.39.29-.52.05-.03.35-.12.88-.27.32-.09.61-.26.87-.51.23-.22.33-.44.32-.68-.01-.18-.07-.32-.18-.4-.11-.08-.27-.12-.48-.1-.51.03-1.06.27-1.65.71-.68.5-1.01,1.08-.97,1.72.03.46.29,1.01.79,1.67.56.72.86,1.33.88,1.85.04.77-.26,1.4-.92,1.88-.41.3-.88.46-1.41.49-.84.05-1.5-.22-1.97-.8-.33-.41-.51-.91-.55-1.5-.04-.68.1-1.27.43-1.75.21-.32.44-.49.68-.5.22-.01.33.07.34.24,0,.07-.03.18-.1.32-.18.39-.26.84-.23,1.35.02.43.2.79.52,1.07.29.25.61.36.96.34.34-.02.6-.15.78-.39.15-.2.21-.45.19-.75-.02-.37-.26-.83-.71-1.4-.63-.77-.96-1.49-.99-2.15-.05-.88.38-1.68,1.3-2.41.89-.7,1.86-1.08,2.89-1.14Z"/><path class="cls-4" d="M112.48,41.3c.35-.25.61-.42.78-.52.35-.2.7-.3,1.04-.32.39-.02.68.07.89.29.21.21.32.54.35.99.03.61-.14,1.36-.52,2.25-.59,1.4-1.34,2.51-2.24,3.35-.76.7-1.49,1.08-2.2,1.12-.39.02-.78-.11-1.17-.38-1.06,2.5-2,5.04-2.8,7.62-.17.62-.39.93-.66.95-.13,0-.27-.07-.41-.24-.1-.12-.16-.25-.17-.4-.03-.47.46-2.05,1.47-4.72,1.56-4.12,3.07-7.56,4.52-10.31.3-.58.5-.98.61-1.2.28-.59.56-.89.85-.91.3-.02.46.15.48.51.01.2-.08.48-.27.83-.23.45-.41.82-.54,1.09ZM109.83,46.93c.21.19.45.28.74.26.82-.05,1.68-.82,2.59-2.33.34-.56.6-1.12.79-1.7.15-.46.22-.8.21-1.03,0-.16-.05-.27-.13-.35-.08-.08-.2-.11-.36-.1-.41.02-.9.34-1.46.94-.54.58-1.04,1.39-1.51,2.42-.43.95-.72,1.57-.86,1.87Z"/><path class="cls-4" d="M118.1,43.61c-.22.7-.39,1.26-.5,1.69-.11.43-.16.73-.15.89.01.22.12.32.33.31.32-.02.71-.34,1.17-.96.22-.3.54-.84.96-1.63.17-.31.35-.47.55-.48.23-.01.35.09.36.31.02.38-.37,1.17-1.17,2.36-.84,1.25-1.64,1.9-2.41,1.95-.33.02-.61-.11-.84-.37-.16-.19-.25-.44-.27-.72-.03-.49.08-1.18.33-2.07.25-.89.63-1.97,1.15-3.25,1.33-3.25,2.72-5.95,4.17-8.09,1.16-1.72,2.15-2.61,2.98-2.65.26-.02.48.07.66.27.19.19.29.42.3.68.07,1.23-.91,3.34-2.94,6.32-.91,1.33-2.01,2.67-3.31,4.02-.34.35-.81.83-1.4,1.43ZM118.92,41.46c1.74-1.67,3.26-3.73,4.56-6.2.68-1.28,1-2.12.98-2.52-.01-.19-.1-.29-.27-.28-.48.03-1.3,1.04-2.47,3.03-.96,1.64-1.9,3.63-2.8,5.97Z"/><path class="cls-4" d="M124.98,39.69c.15,0,.28.04.38.15.08.09.12.19.12.28,0,.16-.1.43-.34.81-.83,1.46-1.42,2.66-1.75,3.6-.36.96-.67,1.95-.93,2.96-.12.45-.32.68-.62.7-.18,0-.32-.05-.43-.19-.1-.11-.16-.23-.17-.36-.01-.26.22-1.16.69-2.68.37-1.2,1.01-2.54,1.91-4.02.29-.48.51-.81.66-.98.15-.18.31-.27.47-.28ZM127.21,34.67c.4-.02.6.17.63.57.02.37-.15.79-.51,1.26-.34.45-.69.69-1.03.71-.17,0-.31-.04-.42-.16-.11-.11-.17-.25-.18-.41-.02-.42.18-.88.62-1.38.32-.37.62-.56.89-.58Z"/><path class="cls-4" d="M129.87,38.82c-.52.92-.99,1.94-1.41,3.06-.6,1.6-.88,2.79-.84,3.56.01.22.07.38.17.49.1.11.24.16.42.15.44-.02.95-.47,1.52-1.33.37-.53.69-1.06.97-1.59.15-.3.32-.45.51-.47.11,0,.21.03.3.1.07.08.11.15.12.23.02.32-.37,1.07-1.15,2.24-.94,1.41-1.83,2.14-2.68,2.19-.45.03-.83-.16-1.15-.55-.2-.25-.31-.62-.34-1.1-.06-1.06.18-2.32.71-3.76.13-.36.49-1.23,1.09-2.61-.23.08-.41.12-.53.12-.18.01-.35-.02-.49-.1-.2-.11-.31-.26-.32-.44-.01-.22.1-.4.35-.55.07-.04.39-.11.96-.23.21-.05.51-.15.91-.3.28-.57.73-1.35,1.37-2.34.36-.55.6-.91.74-1.07.2-.23.38-.35.54-.36.11,0,.23.05.35.16.11.11.17.22.18.33.01.23-.21.69-.66,1.4-.3.46-.52.83-.66,1.11.96-.32,1.65-.49,2.07-.51.48-.03.74.16.76.56.01.2-.06.36-.22.46-.08.06-.31.11-.68.17-.15,0-.8.2-1.96.61-.32.11-.63.23-.94.36Z"/><path class="cls-4" d="M143.16,38.38c.69-.04,1.06.31,1.1,1.03.04.64-.18,1.3-.64,1.98-.36.51-.68.78-.97.79-.25.01-.38-.12-.39-.4,0-.15.02-.27.08-.36.02-.04.12-.14.3-.32.15-.16.3-.39.45-.7.1-.21.15-.37.14-.5,0-.14-.09-.21-.25-.2-.18.01-.46.17-.82.48-.57.5-1.12,1.26-1.67,2.29-.55,1.07-.82,1.9-.78,2.5.01.19.08.36.2.5.18.22.41.32.69.3.55-.03,1.19-.41,1.9-1.14.61-.62,1.11-1.24,1.52-1.86.21-.34.4-.51.57-.52.1,0,.19.03.27.12.08.08.12.17.12.26.02.32-.36.98-1.14,1.97-1.24,1.55-2.4,2.35-3.48,2.42-.65.04-1.16-.17-1.53-.61-.26-.33-.41-.73-.44-1.19-.05-.91.27-1.99.95-3.24.66-1.19,1.45-2.16,2.37-2.92.54-.44,1.02-.67,1.44-.69Z"/><path class="cls-4" d="M150.83,37.61c.72-.04,1.1.38,1.15,1.25.07,1.17-.39,2.68-1.37,4.53-1.07,2.01-2.15,3.04-3.24,3.1-.51.03-.9-.19-1.16-.65-.14-.23-.21-.51-.23-.85-.06-1.12.25-2.36.95-3.73.65-1.26,1.44-2.26,2.38-2.99.55-.43,1.05-.65,1.52-.68ZM149.74,42.67c-.23-.16-.35-.29-.35-.39,0-.07.13-.27.39-.6.74-.93,1.09-1.67,1.06-2.21,0-.07-.03-.14-.08-.21-.08-.13-.19-.19-.34-.18-.28.02-.68.31-1.19.89-.66.74-1.16,1.5-1.48,2.26-.38.88-.56,1.59-.52,2.16,0,.15.06.28.14.39.12.15.27.22.45.21.42-.02.85-.37,1.3-1.02.2-.28.35-.56.47-.85.12-.29.17-.44.16-.45Z"/><path class="cls-4" d="M154.5,41.52c.69-.81,1.31-1.46,1.84-1.93.81-.71,1.37-1.07,1.65-1.08.14,0,.27.04.38.14.1.09.16.19.16.31,0,.17-.13.45-.41.84-.44.62-.74,1.15-.9,1.58,1.94-2.18,3.28-3.29,4.04-3.33.16,0,.3.03.42.12.13.1.2.23.21.38.01.25-.16.57-.51.98-1.56,1.81-2.31,3.26-2.25,4.35.03.45.12.76.29.95l.37.42c.07.07.12.17.12.3,0,.14-.04.27-.15.4-.12.15-.27.23-.44.24-.29.02-.57-.15-.83-.51-.32-.42-.5-.93-.54-1.53-.04-.8.14-1.62.55-2.46.14-.3.38-.7.72-1.2-.71.6-1.43,1.42-2.14,2.45-.49.7-.92,1.47-1.29,2.32-.18.41-.41.62-.68.63-.3.02-.46-.14-.48-.47-.02-.36.18-1.12.61-2.27.24-.66.55-1.35.92-2.09-1.43,1.24-2.47,2.88-3.12,4.9-.16.45-.39.68-.7.7-.14,0-.26-.04-.35-.14-.1-.1-.16-.22-.17-.37-.03-.52.21-1.47.71-2.85.52-1.46,1.14-2.79,1.83-3.97.48-.83.87-1.25,1.16-1.27.26-.02.4.12.42.4,0,.12-.14.44-.43.95-.52.95-.86,1.66-1.02,2.12Z"/><path class="cls-4" d="M165.44,38.29c.35-.25.61-.42.78-.52.35-.2.7-.3,1.04-.32.39-.02.68.07.89.29.21.21.32.54.35.99.03.61-.14,1.36-.52,2.25-.59,1.4-1.34,2.51-2.24,3.35-.76.7-1.49,1.07-2.2,1.11-.39.02-.78-.1-1.17-.38-1.06,2.5-2,5.04-2.8,7.62-.17.62-.39.93-.66.95-.13,0-.27-.07-.41-.24-.1-.12-.16-.25-.17-.4-.03-.47.46-2.05,1.47-4.72,1.56-4.12,3.07-7.56,4.52-10.31.3-.58.5-.98.61-1.2.28-.59.56-.89.85-.91.3-.02.46.15.48.51.01.2-.08.48-.27.83-.23.45-.41.82-.54,1.09ZM162.79,43.92c.21.19.45.28.74.26.82-.05,1.68-.82,2.59-2.33.34-.56.6-1.12.79-1.7.15-.46.22-.8.21-1.03,0-.16-.05-.27-.13-.35-.08-.07-.2-.11-.36-.1-.41.02-.9.34-1.46.94-.54.59-1.04,1.39-1.51,2.42-.43.95-.72,1.57-.86,1.87Z"/><path class="cls-4" d="M171.31,40.62c.81-.97,1.75-1.93,2.82-2.87.38-.34.8-.66,1.24-.96.22-.15.36-.22.42-.22.13,0,.27.08.41.27.08.1.13.2.13.28,0,.16-.14.38-.46.67-.85.76-1.27,1.32-1.25,1.68.01.2.13.3.36.28.38-.02,1.01-.37,1.89-1.05.15-.11.28-.17.39-.18.07,0,.14.03.22.09.08.07.13.16.13.24.01.26-.33.69-1.04,1.27-.74.62-1.46.95-2.15.99-.28.02-.54-.04-.79-.18-.21-.11-.32-.32-.34-.64-.01-.22.07-.47.23-.77-.67.53-1.43,1.42-2.3,2.67-.5.77-.99,1.71-1.46,2.82-.18.42-.42.63-.72.65-.32.02-.5-.13-.51-.43-.02-.3.19-1.11.63-2.44.64-1.97,1.35-3.51,2.11-4.62.47-.69.88-1.04,1.22-1.06.11,0,.22.02.32.09.12.08.18.19.19.32,0,.13-.07.32-.23.57-.03.05-.25.35-.65.92-.37.54-.64,1.07-.82,1.59Z"/><path class="cls-4" d="M178.28,42.03v.24c.03.19.08.36.19.49.24.31.61.45,1.11.43,1.1-.06,2.32-.98,3.66-2.74.24-.3.44-.46.62-.47.1,0,.19.04.27.13.06.07.09.13.09.19.02.34-.37.95-1.17,1.81-.62.68-1.29,1.24-2.02,1.69-.72.45-1.4.69-2.04.72-.66.04-1.19-.16-1.59-.6-.27-.3-.42-.72-.46-1.27-.08-1.48.53-2.97,1.84-4.48,1.07-1.22,2.02-1.86,2.86-1.91.23-.01.44.05.63.18.24.17.37.41.38.7.03.47-.16,1.05-.55,1.75-.81,1.46-2.08,2.5-3.84,3.14ZM178.51,40.99c.6-.25,1.07-.51,1.41-.79.59-.51,1.04-1.07,1.37-1.69.12-.22.17-.41.17-.58-.01-.18-.1-.26-.27-.25-.23.01-.54.2-.94.57-.72.65-1.3,1.56-1.73,2.74Z"/><path class="cls-4" d="M190.34,35.11c.54-.03.96.04,1.24.22.28.18.44.46.46.86.03.52-.14,1.03-.49,1.53-.34.48-.87.88-1.6,1.2-.39.17-.73.27-1,.28-.37.02-.56-.13-.58-.46-.01-.22.08-.39.29-.52.05-.03.34-.12.88-.27.32-.09.61-.26.87-.51.22-.22.33-.44.32-.68-.01-.18-.07-.32-.18-.4-.11-.08-.27-.12-.48-.1-.51.03-1.06.27-1.65.71-.68.51-1.01,1.08-.97,1.72.03.46.29,1.01.79,1.67.56.72.86,1.33.88,1.85.04.77-.26,1.4-.92,1.87-.41.3-.88.46-1.41.49-.84.05-1.5-.22-1.97-.8-.33-.41-.51-.91-.55-1.5-.04-.68.1-1.27.43-1.75.21-.32.44-.49.69-.5.22-.01.33.07.34.24,0,.07-.03.18-.1.32-.18.39-.26.84-.23,1.35.02.43.2.79.52,1.07.29.25.61.36.96.34.34-.02.6-.15.78-.39.15-.2.21-.45.2-.75-.02-.37-.26-.83-.71-1.4-.62-.77-.96-1.49-.99-2.15-.05-.88.38-1.68,1.3-2.41.89-.7,1.86-1.08,2.89-1.14Z"/><path class="cls-4" d="M197.2,34.72c.54-.03.96.04,1.24.22.28.18.44.46.46.86.03.52-.14,1.03-.49,1.53-.34.48-.87.88-1.59,1.2-.4.17-.73.27-1,.28-.37.02-.56-.13-.58-.46-.01-.22.08-.39.29-.52.05-.03.34-.12.88-.27.32-.09.61-.26.87-.51.22-.22.33-.44.32-.68,0-.18-.07-.32-.18-.4-.11-.08-.27-.12-.48-.1-.51.03-1.06.27-1.65.71-.68.51-1.01,1.08-.97,1.72.03.46.29,1.01.79,1.67.56.72.85,1.33.88,1.85.04.77-.26,1.4-.92,1.88-.41.3-.88.46-1.41.49-.84.05-1.5-.22-1.97-.8-.33-.41-.51-.91-.55-1.5-.04-.68.1-1.27.43-1.75.21-.32.44-.49.69-.5.22-.01.33.07.34.24,0,.07-.03.18-.1.32-.18.39-.26.84-.23,1.35.02.43.2.79.52,1.07.29.25.61.36.96.34.34-.02.6-.15.78-.39.15-.2.21-.45.2-.75-.02-.37-.26-.83-.71-1.4-.62-.77-.96-1.49-.99-2.15-.05-.88.38-1.68,1.3-2.41.89-.7,1.86-1.08,2.89-1.14Z"/><path class="cls-4" d="M201.51,35.33c.15,0,.28.04.38.15.08.09.12.19.12.28,0,.16-.1.43-.34.81-.83,1.46-1.42,2.66-1.75,3.6-.36.96-.67,1.95-.93,2.96-.12.45-.32.68-.62.7-.17,0-.32-.05-.43-.19-.1-.11-.16-.23-.17-.36-.02-.26.22-1.16.69-2.68.37-1.2,1.01-2.54,1.91-4.02.29-.48.51-.81.66-.98.15-.18.31-.27.47-.28ZM203.73,30.31c.4-.02.6.17.63.57.02.37-.15.79-.51,1.26-.34.45-.69.69-1.03.71-.17,0-.31-.04-.42-.16-.11-.11-.17-.25-.18-.41-.02-.42.18-.88.62-1.38.32-.37.62-.56.89-.58Z"/><path class="cls-4" d="M206.66,34.43c.72-.04,1.1.38,1.15,1.25.07,1.17-.39,2.68-1.37,4.53-1.07,2.01-2.15,3.04-3.24,3.1-.51.03-.9-.19-1.16-.65-.14-.23-.21-.51-.23-.85-.06-1.12.25-2.36.95-3.73.65-1.26,1.44-2.26,2.38-2.99.55-.43,1.05-.65,1.52-.68ZM205.57,39.49c-.23-.16-.35-.29-.35-.39,0-.07.12-.27.39-.6.74-.93,1.09-1.67,1.06-2.21,0-.07-.03-.14-.08-.21-.08-.13-.19-.19-.34-.18-.28.02-.68.31-1.19.89-.66.74-1.16,1.5-1.48,2.26-.38.88-.56,1.59-.52,2.16,0,.15.06.28.14.39.12.15.27.22.45.21.42-.02.86-.37,1.3-1.02.2-.28.35-.56.47-.85.12-.29.17-.44.16-.45Z"/><path class="cls-4" d="M210.49,38.2c.11-.11.21-.22.31-.33,1.73-1.89,2.91-2.86,3.53-2.9.34-.02.52.16.54.54.02.26-.12.58-.41.96-1.56,2.05-2.3,3.82-2.22,5.32.03.48.19.94.47,1.36.13.19.21.35.21.46,0,.11-.04.21-.14.31-.11.13-.24.2-.4.21-.36.02-.68-.19-.95-.63-.26-.42-.41-.93-.44-1.55-.07-1.18.31-2.52,1.12-4.01-1.15.83-2.18,2.25-3.1,4.24-.24.48-.5.73-.8.75-.15,0-.27-.04-.38-.14-.13-.12-.2-.27-.21-.46-.03-.47.44-1.75,1.41-3.82.52-1.12.93-1.94,1.23-2.45.3-.5.58-.76.81-.77.11,0,.23.04.34.14.13.12.2.25.21.41.01.19-.1.48-.33.85-.34.56-.61,1.06-.81,1.51Z"/><path class="cls-4" d="M222.25,24.62c.41-.02.63.22.66.74.05.8-.34,1.87-1.15,3.21-.33.55-.73,1.05-1.19,1.52-.3.31-.55.47-.74.48-.18.01-.34-.06-.46-.22-.08-.1-.13-.22-.14-.36-.01-.19.16-.47.52-.83,1.01-1.09,1.57-2.33,1.68-3.71.03-.26.14-.46.32-.61.17-.12.34-.19.5-.2ZM225.31,24.45c.41-.02.63.22.66.74.05.8-.34,1.87-1.15,3.21-.33.55-.73,1.05-1.19,1.52-.3.31-.55.47-.74.48-.18.01-.34-.06-.46-.22-.08-.1-.13-.22-.14-.36-.01-.19.16-.47.52-.83,1.02-1.09,1.58-2.33,1.68-3.71.03-.26.14-.46.32-.61.17-.12.34-.19.5-.2Z"/><path class="cls-4" d="M281.12,56.18c-1.33.18-2.26.25-2.79.21-.36-.03-.52-.16-.5-.39,0-.12.06-.21.14-.29.08-.08.18-.11.28-.1.04,0,.11.01.2.03.06.02.13.03.22.03.3.02.7.02,1.21-.02.64-.05,1.11-.1,1.42-.16.17-.03.32-.04.43-.03.26.02.38.17.36.46-.02.19-.15.4-.39.62-1.82,1.66-3.27,3.32-4.36,4.98-.26.4-.43.64-.5.71-.13.13-.26.19-.39.18-.07,0-.13-.04-.18-.1-.06-.07-.09-.14-.08-.22.02-.25.3-.74.83-1.48.71-.97,1.54-1.94,2.51-2.92.58-.59,1.11-1.09,1.61-1.51Z"/><path class="cls-4" d="M281.36,61.79c.84-.19,1.6-.26,2.29-.21.27.02.48.09.64.22.14.11.2.23.19.38,0,.09-.05.17-.12.24-.07.07-.15.1-.24.09-.03,0-.07-.01-.13-.03-.25-.09-.47-.14-.68-.16-.18-.01-.4-.01-.67,0-.09,0-.44.07-1.04.18-.54.1-.85.14-.95.14-.14-.01-.25-.09-.34-.23-.08-.13-.12-.26-.11-.39.01-.15.15-.33.43-.56.51-.43,1.01-.81,1.48-1.15.45-.32,1-.68,1.65-1.09.75-.46,1.26-.8,1.55-1.02.43-.32.65-.65.68-1,.02-.19-.03-.35-.15-.47-.1-.11-.24-.17-.41-.18-.44-.04-.97.17-1.61.61-.29.2-.47.3-.54.29-.05,0-.1-.04-.16-.1-.06-.06-.09-.14-.08-.22.01-.17.25-.41.69-.69.72-.46,1.39-.67,2.01-.62.36.03.64.17.86.42.21.24.3.51.28.82-.04.54-.37,1.06-.96,1.55-.26.21-.72.53-1.4.95-1.62,1-2.68,1.74-3.16,2.24Z"/><path class="cls-4" d="M289.73,60.21c-.06.12-.23.41-.5.88-.46.9-.74,1.49-.85,1.77-.06.16-.12.27-.19.33-.06.06-.15.08-.27.07-.12,0-.21-.06-.28-.15-.06-.08-.09-.18-.08-.28.03-.37.43-1.22,1.19-2.58-.72.02-1.28.1-1.7.24-.14.04-.25.06-.33.05-.2-.02-.28-.18-.26-.48.01-.18.1-.35.25-.51.3-.29.8-.74,1.5-1.33.86-.72,1.63-1.3,2.32-1.74.59-.38,1.01-.56,1.26-.54.11,0,.21.06.3.16.07.08.1.17.09.26,0,.12-.1.29-.26.52-.03.04-.21.29-.54.74-.42.58-.83,1.19-1.21,1.83.34,0,.57.02.68.03.29.02.42.14.4.36-.02.19-.1.32-.27.39-.07.03-.28.03-.62,0-.1,0-.31-.02-.64-.03ZM289.22,59.5c.61-.99,1.19-1.81,1.72-2.47-.53.25-1.19.69-1.97,1.34-.56.47-1.02.89-1.36,1.25.72-.09,1.25-.13,1.61-.12Z"/><path class="cls-4" d="M291.58,62.61c.84-.19,1.6-.26,2.29-.21.27.02.48.09.64.22.14.11.2.23.19.38,0,.09-.05.17-.12.24-.07.07-.16.1-.24.09-.03,0-.07-.01-.13-.03-.25-.09-.47-.14-.68-.16-.18-.01-.4-.02-.67,0-.09,0-.44.07-1.04.18-.54.1-.85.15-.95.14-.14-.01-.25-.09-.34-.23-.08-.13-.12-.26-.11-.39.01-.15.15-.33.43-.56.52-.43,1.01-.81,1.48-1.15.45-.32,1-.68,1.65-1.09.75-.46,1.26-.8,1.55-1.02.43-.32.66-.65.68-1,.02-.19-.04-.35-.15-.47-.1-.11-.24-.17-.41-.18-.44-.04-.97.17-1.61.61-.29.2-.47.3-.54.29-.05,0-.1-.04-.16-.1-.06-.06-.09-.14-.08-.22.01-.17.25-.41.69-.69.72-.46,1.39-.67,2.01-.62.36.03.64.17.86.42.21.24.3.51.28.82-.04.54-.36,1.06-.96,1.55-.26.21-.72.53-1.4.95-1.62,1-2.68,1.74-3.16,2.24Z"/><path class="cls-4" d="M299.95,61.03c-.06.12-.23.41-.5.88-.46.9-.74,1.49-.85,1.77-.06.16-.12.27-.19.33-.06.06-.15.08-.27.07-.12,0-.21-.06-.28-.15-.06-.08-.09-.18-.08-.28.03-.37.43-1.22,1.19-2.58-.72.02-1.28.1-1.7.24-.14.04-.25.06-.33.05-.2-.02-.28-.18-.26-.48.01-.18.1-.35.25-.51.3-.29.8-.74,1.5-1.33.86-.72,1.63-1.3,2.32-1.74.59-.38,1.01-.56,1.26-.54.11,0,.21.06.3.16.07.08.1.17.09.26,0,.12-.1.29-.26.52-.03.04-.21.29-.54.74-.42.58-.83,1.19-1.21,1.83.34,0,.57.02.68.03.29.02.42.14.4.36-.01.19-.1.32-.27.39-.07.03-.28.03-.62,0-.1,0-.31-.02-.64-.03ZM299.44,60.32c.61-.99,1.19-1.81,1.72-2.47-.53.25-1.19.69-1.97,1.34-.56.47-1.02.89-1.36,1.25.72-.09,1.25-.13,1.61-.12Z"/><path class="cls-4" d="M301.8,63.43c.84-.19,1.6-.26,2.29-.21.27.02.48.09.64.22.14.11.2.23.19.38,0,.09-.05.17-.12.24-.07.07-.16.1-.24.09-.03,0-.07-.01-.13-.03-.25-.09-.47-.14-.68-.16-.18-.01-.4-.02-.67,0-.09,0-.44.07-1.04.18-.54.1-.85.14-.95.14-.14-.01-.25-.09-.34-.23-.08-.13-.12-.26-.11-.39.01-.15.15-.33.43-.56.52-.43,1.01-.81,1.48-1.15.45-.32,1-.68,1.65-1.09.75-.46,1.26-.8,1.55-1.02.43-.32.66-.65.68-1,.02-.19-.04-.35-.15-.47-.1-.11-.24-.17-.41-.18-.44-.04-.97.17-1.61.61-.29.2-.47.3-.54.29-.05,0-.1-.04-.16-.1-.06-.06-.09-.14-.08-.22.01-.17.25-.41.69-.69.72-.46,1.39-.67,2.01-.62.36.03.64.17.86.41.21.24.3.51.28.82-.04.54-.36,1.06-.96,1.55-.26.21-.72.53-1.4.95-1.62,1-2.68,1.74-3.16,2.24Z"/><path class="cls-4" d="M310.37,61.69c-.7.28-1.25.4-1.64.37-.38-.03-.67-.22-.86-.55-.14-.24-.2-.52-.18-.84.07-.84.5-1.61,1.31-2.32.73-.65,1.46-.94,2.17-.88.41.03.72.2.95.51.19.27.28.59.24.98-.07.84-.45,1.77-1.13,2.78-.37.55-.94,1.18-1.7,1.89-.85.8-1.39,1.2-1.64,1.18-.07,0-.13-.04-.18-.1-.04-.06-.06-.12-.06-.18,0-.12.12-.25.33-.4.97-.69,1.76-1.49,2.37-2.42ZM310.87,60.86c.4-.67.61-1.24.65-1.7.03-.33-.01-.58-.12-.76-.11-.17-.28-.27-.52-.29-.5-.04-1.01.21-1.54.75-.52.53-.8,1.08-.84,1.64-.02.25.02.45.13.58.11.14.28.21.52.23.32.03.71-.04,1.15-.2.34-.13.53-.22.56-.26Z"/><path class="cls-4" d="M316.59,58.65c.25.12.44.3.55.54.11.24.15.53.12.88-.09,1.08-.6,2.2-1.55,3.36-1.03,1.25-1.96,1.85-2.8,1.78-.42-.03-.71-.28-.89-.73-.11-.29-.15-.64-.12-1.04.08-.96.51-1.95,1.3-2.97.41-.52.95-1.05,1.62-1.58.7-.55,1.19-.82,1.48-.79.22.02.32.2.29.54ZM315.6,59.1c-.61.42-1.16.95-1.65,1.59-.71.91-1.09,1.82-1.17,2.72-.02.27,0,.48.06.64.1.24.26.37.47.39.34.03.76-.2,1.27-.68.57-.53,1.03-1.2,1.4-2,.28-.61.44-1.13.47-1.56.02-.3-.05-.57-.21-.8-.11-.16-.28-.25-.48-.28-.05,0-.1,0-.15-.01Z"/><path class="cls-4" d="M322.01,59.46c-1.33.18-2.26.25-2.79.21-.36-.03-.52-.16-.51-.39,0-.12.06-.21.14-.29s.18-.11.28-.1c.04,0,.11.01.2.03.06.01.13.03.22.03.3.02.7.02,1.21-.02.64-.05,1.11-.1,1.42-.16.17-.03.32-.04.43-.03.26.02.38.17.36.46-.01.19-.14.4-.39.62-1.82,1.66-3.27,3.32-4.36,4.98-.26.4-.43.64-.5.71-.13.13-.26.19-.39.18-.07,0-.13-.04-.18-.09-.06-.07-.09-.14-.08-.22.02-.25.3-.74.83-1.48.71-.97,1.54-1.94,2.51-2.92.58-.59,1.11-1.09,1.61-1.51Z"/><path class="cls-4" d="M325.82,61.76c.24.12.4.25.49.38.14.19.19.45.17.77-.06.79-.46,1.53-1.18,2.21-.73.68-1.44.99-2.15.93-.43-.04-.77-.24-1.02-.63-.17-.27-.25-.57-.22-.88.04-.52.26-.76.66-.73.24.02.35.12.34.3,0,.04-.01.09-.03.15-.02.08-.04.16-.04.25-.02.23.02.41.12.54.12.14.26.22.43.23.41.03.88-.22,1.41-.76.5-.52.77-1.03.81-1.53.02-.25-.03-.46-.13-.61-.12-.17-.29-.26-.53-.28-.09,0-.19,0-.28.02-.11.03-.2.04-.26.03-.14-.01-.2-.11-.19-.3.01-.17.08-.3.2-.4.07-.06.21-.11.42-.14.41-.07.77-.18,1.06-.34.19-.1.34-.25.47-.43.06-.1.1-.2.11-.31.01-.14-.02-.25-.09-.32-.07-.08-.18-.12-.34-.13-.26-.02-.54.03-.83.14-.08.03-.26.11-.54.26-.08.04-.16.06-.25.05-.17-.01-.24-.11-.23-.29.01-.16.15-.32.41-.47.6-.36,1.18-.51,1.72-.47.33.03.59.15.8.37.22.23.32.5.3.79-.03.39-.23.75-.6,1.07-.2.18-.53.36-.99.54Z"/><path class="cls-4" d="M329.15,62.26c.75-.21,1.29-.3,1.62-.27.4.03.69.17.86.42.15.21.22.48.19.8-.07.83-.5,1.61-1.3,2.34-.74.68-1.46.99-2.17.94-.45-.04-.79-.26-1.04-.67-.19-.32-.27-.68-.24-1.08.07-.87.48-1.73,1.22-2.6.64-.75,1.53-1.42,2.66-2.01.34-.18.59-.3.75-.37.15-.06.29-.09.41-.08.18.01.27.1.26.26-.01.15-.12.26-.32.36-1.06.46-2.02,1.11-2.91,1.96ZM328.48,63.11c-.34.47-.53.94-.57,1.42-.03.32.03.59.15.84.13.25.32.38.56.4.34.03.7-.1,1.08-.4.38-.29.71-.7.97-1.23.17-.33.26-.62.28-.87.01-.18-.03-.34-.13-.46-.11-.14-.27-.21-.47-.23-.33-.03-.73.05-1.22.23-.13.04-.28.11-.45.19-.13.06-.2.1-.21.12Z"/><path class="cls-4" d="M336.38,60.93c-.36.23-.72.42-1.07.58-.48.21-.8.31-.94.3-.16-.01-.22-.14-.2-.39,0-.09.03-.16.08-.22.04-.05.14-.1.29-.15.45-.15,1.12-.45,2-.91.4-.21.68-.31.83-.29.1,0,.19.07.27.18.05.07.07.15.06.22,0,.12-.12.32-.33.6-1.59,2.17-2.71,3.88-3.35,5.13-.16.31-.27.5-.33.57-.1.12-.2.18-.29.18-.09,0-.18-.07-.25-.19-.04-.07-.06-.14-.06-.21.02-.26.46-1.1,1.33-2.51.81-1.33,1.47-2.28,1.98-2.88Z"/><path class="cls-4" d="M337.58,66.31c.84-.19,1.6-.26,2.29-.21.27.02.48.09.64.22.14.11.2.23.19.38,0,.09-.05.17-.12.24-.07.07-.16.1-.24.09-.03,0-.07-.01-.13-.03-.25-.09-.47-.14-.68-.16-.18-.01-.4-.02-.67,0-.09,0-.44.07-1.04.18-.54.1-.85.14-.95.14-.14-.01-.25-.09-.34-.23-.08-.13-.12-.26-.11-.39.01-.15.15-.33.43-.56.51-.43,1.01-.81,1.48-1.15.45-.32,1-.68,1.65-1.09.75-.46,1.26-.8,1.55-1.02.43-.32.66-.65.68-1,.02-.19-.04-.35-.15-.48-.1-.11-.24-.17-.41-.18-.44-.04-.97.17-1.61.61-.29.2-.47.3-.54.29-.05,0-.1-.04-.16-.1-.06-.06-.09-.14-.08-.22.01-.17.25-.41.69-.69.72-.46,1.39-.67,2.01-.62.36.03.64.17.86.41.21.24.3.51.28.82-.04.54-.36,1.06-.96,1.55-.26.21-.72.53-1.4.95-1.62,1-2.68,1.74-3.16,2.24Z"/><path class="cls-4" d="M347.25,61.11c.25.12.44.3.55.54.11.24.15.53.12.88-.09,1.09-.6,2.21-1.55,3.36-1.03,1.25-1.96,1.85-2.8,1.78-.42-.03-.71-.28-.89-.73-.11-.29-.15-.64-.12-1.04.08-.96.51-1.95,1.3-2.97.41-.52.95-1.05,1.62-1.58.7-.55,1.2-.81,1.48-.79.22.02.31.2.29.54ZM346.26,61.56c-.61.42-1.16.95-1.65,1.59-.71.91-1.09,1.82-1.17,2.72-.02.27,0,.48.06.64.1.24.26.37.48.39.34.03.76-.2,1.27-.68.57-.53,1.03-1.2,1.4-2,.28-.61.44-1.13.47-1.56.02-.3-.05-.57-.21-.8-.11-.16-.28-.25-.48-.28-.05,0-.1,0-.15-.01Z"/><path class="cls-4" d="M351.51,61.88c-.88.65-1.46,1.22-1.73,1.71.5-.16.92-.22,1.26-.19.39.03.69.17.9.42.19.24.27.53.24.88-.06.8-.51,1.58-1.34,2.34-.82.75-1.59,1.1-2.32,1.04-.42-.03-.73-.25-.93-.66-.13-.28-.18-.58-.15-.91.03-.34.12-.61.29-.81.14-.17.3-.25.49-.23.17.01.26.09.25.22,0,.03-.02.08-.06.17-.06.14-.1.33-.12.56-.02.21.02.4.1.56.11.23.28.35.51.37.44.04.92-.2,1.44-.71.57-.56.89-1.14.93-1.74.02-.25-.02-.44-.12-.57-.1-.13-.27-.21-.5-.23-.22-.02-.5.02-.83.11-.07.02-.26.09-.55.22-.06.03-.12.04-.17.04-.09,0-.18-.07-.26-.2-.09-.14-.12-.26-.12-.37.02-.2.26-.57.73-1.11.3-.34.66-.69,1.08-1.03-.09-.16-.14-.27-.13-.35,0-.11.09-.19.25-.22.08-.02.35-.04.83-.07.55-.03.99-.03,1.32,0,.32.03.55.07.69.12.17.06.25.19.23.37-.02.22-.14.33-.36.31-.05,0-.15-.02-.29-.04-.05,0-.1-.02-.17-.02-.23-.02-.46-.03-.69-.02-.23,0-.46.02-.68.04Z"/><path class="cls-4" d="M356.62,62.29c-.88.65-1.46,1.22-1.73,1.71.5-.16.92-.22,1.26-.19.39.03.69.17.9.42.19.24.27.53.25.88-.06.8-.51,1.58-1.34,2.34-.82.75-1.59,1.1-2.32,1.04-.42-.03-.73-.25-.93-.66-.13-.28-.18-.58-.16-.91.03-.33.12-.6.29-.81.14-.17.3-.25.49-.23.18.01.26.09.25.22,0,.03-.02.08-.06.16-.06.14-.1.33-.12.56-.02.21.02.4.1.56.11.23.28.35.51.37.44.04.92-.2,1.44-.72.58-.56.89-1.14.93-1.74.02-.25-.02-.44-.12-.57-.1-.13-.27-.21-.5-.23-.22-.02-.5.02-.83.11-.08.02-.26.09-.55.22-.06.03-.12.04-.17.04-.09,0-.18-.07-.26-.2-.09-.14-.13-.26-.12-.37.02-.2.26-.57.73-1.11.3-.34.66-.69,1.08-1.03-.09-.15-.14-.27-.13-.35,0-.11.09-.19.25-.22.08-.02.35-.04.84-.06.55-.03.99-.03,1.32,0,.32.03.55.07.69.12.17.06.25.19.24.37-.02.22-.14.33-.36.31-.05,0-.15-.02-.29-.04-.05,0-.1-.02-.17-.02-.23-.02-.46-.03-.69-.02-.23,0-.46.02-.68.04Z"/><path class="cls-4" d="M361.48,65.79c-.7.28-1.25.4-1.64.37-.38-.03-.67-.22-.86-.55-.14-.24-.2-.52-.17-.84.07-.84.5-1.61,1.31-2.32.73-.65,1.46-.94,2.17-.88.41.03.73.2.95.51.19.27.28.59.25.98-.07.84-.45,1.77-1.13,2.78-.37.55-.94,1.18-1.7,1.89-.85.8-1.39,1.2-1.64,1.18-.07,0-.13-.04-.18-.1-.04-.06-.06-.12-.06-.18,0-.12.12-.25.33-.4.97-.69,1.76-1.49,2.37-2.42ZM361.98,64.97c.4-.67.61-1.24.65-1.7.03-.33-.01-.58-.12-.76-.11-.17-.28-.27-.52-.29-.5-.04-1.01.21-1.54.75-.52.53-.8,1.08-.84,1.64-.02.25.02.45.13.58.11.14.28.21.52.23.32.03.71-.04,1.16-.2.34-.13.53-.22.56-.26Z"/><path class="cls-4" d="M366.59,66.21c-.7.28-1.25.4-1.64.37-.38-.03-.67-.22-.86-.55-.14-.24-.2-.52-.17-.84.07-.84.5-1.61,1.31-2.32.73-.65,1.46-.94,2.17-.88.41.03.73.2.95.51.19.26.28.59.25.97-.07.84-.45,1.77-1.13,2.78-.37.55-.94,1.18-1.7,1.89-.85.8-1.39,1.2-1.64,1.18-.07,0-.13-.04-.18-.1-.04-.06-.06-.12-.06-.18,0-.12.12-.25.33-.4.97-.69,1.76-1.49,2.37-2.42ZM367.09,65.38c.4-.67.61-1.24.65-1.7.03-.33-.01-.58-.12-.76-.11-.18-.28-.27-.52-.29-.5-.04-1.01.21-1.54.75-.52.53-.8,1.08-.85,1.64-.02.25.02.45.13.58.11.14.28.21.52.23.32.03.71-.04,1.16-.2.34-.13.53-.22.56-.26Z"/><path class="cls-4" d="M370.78,65.24c-.2-.23-.34-.41-.41-.55-.12-.21-.16-.44-.15-.67.04-.51.33-.91.87-1.22.46-.26.95-.37,1.47-.33.38.03.67.17.87.42.18.22.26.47.23.76-.04.43-.28.82-.72,1.15-.24.18-.57.39-1,.62.23.27.4.54.51.79s.15.5.13.73c-.04.46-.23.9-.57,1.32-.37.46-.82.81-1.36,1.07-.54.26-1.08.37-1.61.33-.46-.04-.82-.23-1.09-.59-.2-.27-.29-.55-.26-.85.06-.79.61-1.52,1.65-2.19.54-.35,1.02-.62,1.44-.8ZM371.24,65.78c-.61.25-1.13.55-1.56.89-.61.48-.93.96-.97,1.45-.02.28.05.49.21.63.17.14.35.21.55.23.27.02.57-.04.88-.18.31-.14.59-.34.82-.6.34-.37.53-.78.57-1.21.02-.3-.05-.59-.21-.86-.04-.06-.1-.14-.18-.24-.06-.07-.1-.11-.1-.11ZM371.52,64.86c.3-.14.57-.3.79-.48.28-.24.43-.47.45-.7.01-.15-.03-.27-.11-.38-.09-.12-.22-.19-.39-.21-.28-.02-.55.06-.81.24-.22.15-.34.34-.36.57-.01.16.06.37.22.63l.21.33Z"/><path class="cls-4" d="M272.51,44.76c-.27.53-.5.92-.7,1.19-.49.64-.9.98-1.25,1-.21.01-.38-.09-.5-.32-.09-.15-.13-.3-.14-.47-.02-.32.09-.79.34-1.42.22-.55.4-.98.56-1.29.11-.23.18-.38.2-.44.05-.14.1-.24.14-.31.06-.11.14-.16.25-.17.06,0,.11.02.16.06.05.06.08.12.08.2.01.22-.16.72-.51,1.5-.35.77-.52,1.28-.51,1.53,0,.16.07.23.2.22.21-.01.49-.3.85-.87.16-.25.32-.57.48-.96-.01-.12-.02-.21-.02-.28-.02-.37.03-.69.15-.96.16-.36.38-.54.68-.56.17,0,.26.09.27.29.02.33-.12.82-.43,1.47.1.01.18.02.24.02.16,0,.36-.12.61-.34.2-.18.33-.27.39-.27.05,0,.11.03.17.09.05.05.07.1.07.16,0,.18-.1.38-.33.61-.27.26-.58.41-.94.43-.14,0-.31-.02-.5-.1Z"/><path class="cls-4" d="M276.16,45.35c-.14.29-.29.54-.43.74-.29.4-.58.61-.88.62-.26.01-.47-.1-.63-.34-.1-.16-.16-.34-.17-.56-.03-.54.11-1.15.41-1.82.34-.75.76-1.33,1.28-1.75.34-.27.67-.42,1-.44.2-.01.38.04.52.16.12.11.19.23.2.37,0,.11-.03.26-.1.45.08.1.12.19.13.26,0,.1-.05.27-.18.52-.13.25-.25.57-.37.97-.13.43-.18.77-.17,1.02.01.2.08.37.21.49.04.03.14.08.31.15.13.05.19.15.2.3,0,.09-.02.17-.09.23-.07.07-.15.1-.25.11-.26.01-.5-.09-.7-.31-.17-.18-.26-.42-.28-.7,0-.1,0-.26,0-.48ZM276.93,42.89c-.06-.1-.13-.18-.2-.23-.07-.05-.15-.07-.22-.06-.37.02-.75.37-1.15,1.04-.44.74-.64,1.36-.61,1.86,0,.12.04.21.09.27.05.06.12.09.21.08.23-.01.49-.28.78-.79.16-.28.35-.7.58-1.24.15-.36.26-.59.33-.71.04-.06.1-.14.2-.22Z"/><path class="cls-4" d="M279.01,43.96c-.12.39-.22.7-.28.94-.06.24-.09.4-.08.5,0,.12.07.18.19.17.18-.01.39-.19.65-.54.12-.17.3-.47.54-.9.09-.17.2-.26.31-.27.13,0,.19.05.2.17.01.21-.21.65-.65,1.31-.46.7-.91,1.06-1.34,1.08-.19.01-.34-.06-.47-.21-.09-.11-.14-.24-.15-.4-.01-.27.05-.66.18-1.15.14-.49.35-1.09.64-1.8.74-1.81,1.51-3.31,2.32-4.5.65-.96,1.2-1.45,1.65-1.47.15,0,.27.04.37.15.1.11.16.23.17.38.04.68-.51,1.85-1.63,3.51-.51.74-1.12,1.48-1.84,2.23-.19.2-.45.46-.78.79ZM279.47,42.77c.96-.93,1.81-2.07,2.53-3.45.38-.71.56-1.18.54-1.4,0-.11-.06-.16-.15-.15-.27.02-.72.58-1.37,1.68-.54.91-1.05,2.02-1.56,3.32Z"/><path class="cls-4" d="M283.14,45.04c-.19.3-.36.55-.52.73-.27.33-.54.5-.81.52-.24.01-.43-.08-.57-.29-.1-.15-.16-.32-.17-.53-.04-.63.19-1.37.68-2.21.23-.39.46-.7.69-.91.18-.17.33-.26.46-.27.07,0,.13.02.19.08.05.05.08.1.08.16,0,.09-.08.25-.25.47-.38.51-.66.97-.85,1.38-.22.49-.32.86-.3,1.13,0,.07.02.12.06.15.03.03.08.05.14.05.25-.01.57-.39.98-1.13.21-.38.38-.8.52-1.26.07-.25.18-.47.31-.67.13-.18.26-.27.39-.28.07,0,.14.02.2.08.07.06.1.14.11.22,0,.18-.14.58-.44,1.21-.21.44-.3.8-.28,1.08.02.3.11.56.29.76.05.06.19.14.42.25.11.06.17.16.18.3,0,.09-.03.17-.1.23-.07.07-.16.1-.27.11-.24.01-.47-.07-.68-.25-.19-.17-.32-.41-.39-.74-.01-.04-.03-.17-.06-.38Z"/><path class="cls-4" d="M285.55,44.61v.13c.01.11.05.2.1.27.13.17.34.25.62.24.61-.03,1.29-.54,2.03-1.52.13-.17.25-.26.34-.26.05,0,.1.02.15.07.03.04.05.07.05.11.01.19-.21.52-.65,1.01-.34.38-.72.69-1.12.94s-.78.38-1.14.4c-.37.02-.66-.09-.88-.33-.15-.17-.24-.4-.25-.7-.05-.82.29-1.65,1.02-2.49.59-.68,1.12-1.03,1.59-1.06.13,0,.24.02.35.1.13.1.2.23.21.39.01.26-.09.58-.3.97-.45.81-1.16,1.39-2.13,1.74ZM285.68,44.03c.33-.14.6-.28.78-.44.33-.28.58-.6.76-.94.07-.12.1-.23.09-.32,0-.1-.05-.14-.15-.14-.13,0-.3.11-.52.32-.4.36-.72.87-.96,1.52Z"/><path class="cls-4" d="M289.82,45.24c.11,0,.2.04.28.13.05.06.08.14.09.24.01.23-.04.47-.15.73-.12.28-.28.42-.5.43-.22.01-.34-.11-.36-.36-.01-.25.05-.52.19-.79.13-.25.28-.38.45-.38ZM291.07,41.52c.11,0,.2.04.28.13.05.06.08.14.09.24.01.23-.04.47-.15.73-.12.28-.29.43-.5.44-.22.01-.34-.11-.36-.36s.05-.52.19-.79c.12-.25.27-.38.45-.38Z"/><path class="cls-4" d="M46.34,179.48c-.34.26-.68.48-1.03.66-.46.25-.77.37-.92.37-.16,0-.23-.12-.23-.37,0-.09.02-.16.06-.23.04-.06.13-.11.28-.17.44-.19,1.08-.54,1.92-1.07.38-.24.65-.36.81-.36.1,0,.2.05.28.15.05.07.08.14.08.22,0,.12-.09.33-.29.62-1.41,2.29-2.39,4.08-2.93,5.38-.13.32-.23.52-.29.59-.09.13-.19.2-.28.2s-.18-.06-.26-.17c-.05-.06-.07-.13-.07-.21,0-.26.38-1.13,1.13-2.61.7-1.39,1.28-2.4,1.74-3.02Z"/><path class="cls-4" d="M47.97,184.75c.82-.26,1.58-.39,2.26-.39.27,0,.49.06.65.17.15.1.22.22.22.36,0,.09-.03.18-.1.25s-.15.11-.23.11c-.03,0-.07,0-.13-.02-.25-.07-.48-.1-.69-.1-.18,0-.4.02-.67.05-.09.01-.43.1-1.02.26-.53.14-.84.21-.94.21-.14,0-.26-.07-.36-.2-.09-.12-.14-.25-.14-.38,0-.15.13-.34.38-.59.48-.47.94-.89,1.38-1.27.42-.35.94-.76,1.56-1.22.71-.52,1.2-.9,1.46-1.14.4-.35.6-.7.6-1.05,0-.2-.06-.35-.19-.46-.11-.1-.25-.15-.42-.15-.44,0-.96.25-1.55.74-.27.22-.44.34-.51.34-.05,0-.1-.03-.17-.09-.07-.06-.1-.13-.1-.21,0-.18.21-.42.64-.75.68-.52,1.34-.78,1.96-.78.36,0,.65.11.89.34.23.22.34.49.34.8,0,.55-.28,1.09-.83,1.63-.24.23-.68.59-1.32,1.05-1.54,1.12-2.53,1.95-2.97,2.48Z"/><path class="cls-4" d="M57.53,179.18c-1.31.29-2.24.43-2.77.43-.36,0-.53-.12-.53-.35,0-.12.04-.22.12-.3s.17-.12.27-.12c.04,0,.11,0,.21.01.06,0,.14.01.22.01.3,0,.7-.04,1.2-.12.63-.1,1.1-.19,1.4-.27.17-.04.31-.07.42-.07.26,0,.4.14.4.42,0,.19-.11.41-.34.64-1.68,1.8-3,3.57-3.95,5.32-.23.42-.38.67-.44.75-.12.14-.24.21-.37.21-.07,0-.14-.03-.19-.08-.07-.06-.1-.13-.1-.21,0-.25.24-.76.71-1.54.62-1.02,1.38-2.06,2.26-3.11.53-.63,1.02-1.18,1.49-1.63Z"/><path class="cls-4" d="M46.94,230.94c.73-.27,1.26-.4,1.6-.4.4,0,.7.11.89.34.17.2.26.46.26.78,0,.83-.37,1.64-1.11,2.44-.68.74-1.38,1.11-2.09,1.11-.45,0-.81-.2-1.09-.59-.21-.3-.32-.65-.32-1.05,0-.87.34-1.77,1.01-2.69.58-.8,1.41-1.54,2.49-2.21.32-.21.56-.35.72-.42.15-.07.28-.11.4-.11.19,0,.28.08.28.24,0,.15-.1.27-.29.38-1.02.54-1.93,1.27-2.74,2.18ZM46.34,231.84c-.3.49-.45.98-.45,1.46,0,.32.07.59.22.82.15.23.35.35.59.35.34,0,.69-.16,1.05-.48s.65-.76.87-1.3c.14-.34.21-.64.21-.89,0-.19-.06-.33-.17-.45-.12-.13-.28-.19-.48-.19-.33,0-.73.11-1.2.33-.13.05-.27.13-.43.23-.12.07-.19.12-.2.13Z"/><path class="cls-4" d="M53.83,230.71c.24.1.42.22.52.34.15.18.23.43.23.75,0,.8-.33,1.56-1,2.29s-1.36,1.1-2.07,1.1c-.43,0-.79-.18-1.06-.54-.2-.26-.29-.55-.29-.86,0-.52.2-.78.6-.78.24,0,.36.09.36.27,0,.04,0,.09-.01.15-.01.08-.02.17-.02.25,0,.23.06.41.17.53.13.13.28.2.45.2.42,0,.86-.29,1.34-.87.45-.56.68-1.09.68-1.59,0-.25-.06-.45-.18-.6-.13-.16-.32-.23-.55-.23-.09,0-.19.01-.28.04-.11.03-.2.05-.26.05-.14,0-.21-.1-.21-.29,0-.17.06-.3.17-.41.06-.06.2-.12.4-.18.41-.1.75-.24,1.03-.42.18-.12.32-.27.43-.47.05-.1.08-.21.08-.32,0-.14-.04-.25-.11-.31-.08-.07-.19-.1-.35-.1-.26,0-.54.07-.82.21-.07.03-.25.13-.52.3-.07.05-.15.07-.24.07-.17,0-.25-.09-.25-.27,0-.16.12-.33.37-.51.57-.41,1.13-.61,1.68-.61.33,0,.6.1.83.3.24.21.36.47.36.77,0,.4-.17.77-.51,1.11-.19.2-.5.4-.95.62Z"/><polyline class="cls-1" points="61.95 205.29 107.85 193.43 154.25 241.06 200.65 124.16 247.06 149.95 293.46 185.34 339.86 177.62 386.55 162.23"/><path class="cls-4" d="M303.79,256.16c.3-.02.53.02.69.12.16.1.24.26.25.48.02.29-.08.57-.27.85-.19.27-.49.49-.89.67-.22.1-.41.15-.56.16-.2.01-.31-.07-.32-.25,0-.12.05-.22.16-.29.03-.02.19-.07.49-.15.18-.05.34-.14.48-.28.12-.12.18-.25.18-.38,0-.1-.04-.18-.1-.22-.06-.05-.15-.06-.27-.06-.28.02-.59.15-.92.4-.38.28-.56.6-.54.96.01.25.16.56.44.93.31.4.47.74.49,1.03.02.43-.15.78-.51,1.04-.23.16-.49.26-.78.27-.47.03-.83-.12-1.1-.44-.18-.23-.29-.51-.3-.83-.02-.38.06-.71.24-.97.12-.18.24-.27.38-.28.12,0,.19.04.19.14,0,.04-.02.1-.06.18-.1.22-.14.47-.13.75.01.24.11.44.29.59.16.14.34.2.53.19.19-.01.33-.08.44-.22.08-.11.12-.25.11-.42-.01-.2-.14-.46-.4-.78-.35-.43-.53-.83-.55-1.19-.03-.49.21-.93.72-1.34.5-.39,1.03-.6,1.61-.63Z"/><path class="cls-4" d="M306.13,257.9c.34-.4.68-.73,1.03-1,.44-.35.77-.53.97-.54.08,0,.17.02.25.09.09.07.14.16.15.26,0,.13-.09.34-.28.63-.37.56-.65,1.06-.84,1.51-.16.39-.24.65-.23.79,0,.13.07.19.2.19.26-.01.68-.51,1.25-1.48.12-.2.22-.3.33-.3s.16.05.16.17c.01.19-.15.56-.49,1.12-.29.49-.61.86-.95,1.13-.24.18-.46.28-.66.29-.21.01-.37-.07-.47-.24-.06-.11-.1-.23-.11-.37-.02-.43.1-.94.38-1.51.07-.14.26-.52.59-1.16-.97.56-1.75,1.69-2.34,3.4-.05.19-.14.29-.28.3-.09,0-.17-.02-.23-.08-.06-.06-.1-.15-.1-.24,0-.16.12-.63.39-1.39.5-1.43.97-2.64,1.42-3.63.45-1,.95-2.05,1.5-3.13.13-.26.24-.44.31-.53.08-.09.16-.14.26-.15.09,0,.17.04.23.13.05.07.08.14.09.23,0,.14-.06.32-.2.56-.48.84-.95,1.77-1.42,2.77-.5,1.08-.8,1.81-.91,2.19Z"/><path class="cls-4" d="M310.4,258.25c.45-.54.97-1.07,1.57-1.59.21-.19.44-.36.69-.53.12-.08.2-.12.23-.12.07,0,.15.04.23.15.05.06.07.11.08.16,0,.09-.08.21-.26.37-.47.42-.71.73-.7.93,0,.11.07.16.2.16.21-.01.56-.21,1.05-.58.08-.06.16-.1.21-.1.04,0,.08.02.12.05.05.04.07.09.07.14,0,.15-.18.38-.58.71-.41.35-.81.53-1.19.55-.16,0-.3-.02-.44-.1-.12-.06-.18-.18-.19-.36,0-.12.04-.26.13-.43-.37.29-.8.79-1.28,1.48-.28.43-.55.95-.81,1.56-.1.23-.23.35-.4.36-.18.01-.28-.07-.29-.24,0-.17.11-.62.35-1.35.36-1.1.75-1.95,1.17-2.57.26-.38.49-.58.68-.59.06,0,.12.01.18.05.07.04.1.1.11.18s-.04.18-.13.32c-.02.03-.14.2-.36.51-.2.3-.35.59-.46.88Z"/><path class="cls-4" d="M315.45,255.98c.08,0,.15.02.21.08.04.05.07.1.07.16,0,.09-.06.24-.19.45-.46.81-.79,1.48-.97,2-.2.54-.37,1.08-.52,1.64-.06.25-.18.38-.34.39-.1,0-.18-.03-.24-.1-.06-.06-.09-.13-.09-.2,0-.15.12-.64.38-1.49.21-.67.56-1.41,1.06-2.23.16-.27.28-.45.37-.54.08-.1.17-.15.26-.15ZM316.68,253.19c.22-.01.33.09.35.32.01.2-.08.44-.28.7-.19.25-.38.38-.57.39-.09,0-.17-.02-.23-.09-.06-.06-.1-.14-.1-.23-.01-.23.1-.49.35-.77.18-.21.34-.31.5-.32Z"/><path class="cls-4" d="M316.96,257.77c.06-.06.12-.12.17-.19.96-1.05,1.62-1.59,1.96-1.61.19-.01.29.09.3.3,0,.15-.07.32-.23.53-.87,1.14-1.28,2.12-1.23,2.95.02.27.1.52.26.76.07.11.11.19.12.26,0,.06-.02.12-.08.17-.06.07-.13.11-.22.12-.2.01-.38-.11-.53-.35-.15-.23-.23-.52-.25-.86-.04-.66.17-1.4.62-2.23-.64.46-1.21,1.25-1.72,2.36-.13.27-.28.4-.45.41-.08,0-.15-.02-.21-.08-.07-.06-.11-.15-.12-.26-.01-.26.25-.97.78-2.12.29-.62.52-1.08.69-1.36.17-.28.32-.42.45-.43.06,0,.13.02.19.08.07.06.11.14.12.23,0,.11-.06.26-.19.47-.19.31-.34.59-.45.84Z"/><path class="cls-4" d="M322.43,256.83c-.27.8-.4,1.41-.37,1.82.01.2.06.36.15.49.11.16.24.24.4.23.33-.02.7-.26,1.11-.73.27-.3.5-.6.67-.9.12-.2.23-.31.34-.31.11,0,.17.05.18.16.01.19-.19.58-.61,1.18-.61.89-1.23,1.35-1.86,1.39-.38.02-.65-.15-.83-.5-.13-.26-.21-.54-.22-.84-.01-.25.02-.62.11-1.11-.3.28-.75.95-1.33,2.01-.16.29-.3.44-.44.44-.07,0-.14-.02-.2-.08-.06-.06-.09-.13-.09-.2-.01-.19.21-.86.66-2,.79-1.99,1.66-3.67,2.62-5.05.51-.75.98-1.31,1.41-1.67.38-.33.69-.49.93-.51.11,0,.21.03.29.12.11.1.17.23.18.39.02.41-.16.96-.56,1.63-.42.69-1.14,1.54-2.17,2.55-.58.56-1.1,1.01-1.58,1.34-.06.13-.21.51-.47,1.14.57-.69,1.03-1.17,1.37-1.44.22-.17.52-.35.9-.54.26-.13.44-.19.56-.2.06,0,.12.02.17.06.06.04.09.1.09.17,0,.16-.09.28-.31.35-.36.13-.73.34-1.11.62ZM321.73,255.61c.77-.57,1.48-1.29,2.12-2.14.32-.42.58-.83.77-1.22.13-.27.19-.46.19-.58,0-.11-.06-.17-.16-.16-.27.02-.72.46-1.34,1.34-.51.73-1.04,1.65-1.58,2.75Z"/><path class="cls-4" d="M328.01,254.79c.3-.02.53.02.69.12.16.1.24.26.25.48.02.29-.08.57-.27.85-.19.26-.49.49-.89.67-.22.1-.41.15-.56.16-.2.01-.31-.07-.32-.25,0-.12.05-.22.16-.29.03-.02.19-.07.49-.15.18-.05.34-.14.48-.28.12-.12.18-.25.18-.38,0-.1-.04-.18-.1-.22-.06-.05-.15-.06-.27-.06-.28.02-.59.15-.92.4-.38.28-.56.6-.54.96.01.25.16.56.44.93.31.4.47.74.49,1.03.02.43-.15.78-.51,1.04-.23.16-.49.26-.78.27-.47.03-.83-.12-1.1-.44-.18-.23-.29-.51-.3-.83-.02-.38.06-.71.24-.97.12-.18.24-.27.38-.28.12,0,.19.04.19.14,0,.04-.02.1-.06.18-.1.22-.14.47-.13.75.01.24.11.44.29.59.16.14.34.2.53.19.19-.01.33-.08.44-.22.08-.11.12-.25.11-.42-.01-.2-.14-.46-.4-.78-.35-.43-.53-.83-.55-1.19-.03-.49.21-.93.72-1.34.5-.39,1.03-.6,1.61-.63Z"/><path class="cls-1" d="M128.77,121.98c-1.46-6.41,4.38-18.91.21-33.35"/><path class="cls-4" d="M132.8,91.85c-.11.12-.3.13-.42.02l-3.39-3.1-1.38,4.38c-.05.16-.22.25-.38.2-.16-.05-.25-.22-.2-.38l1.52-4.83c.03-.1.11-.17.21-.2.1-.03.2,0,.28.07l3.73,3.42s.07.09.09.14c.03.1,0,.2-.07.28Z"/><path class="cls-1" d="M126.67,135.08c-1.45,16.36,4.57,30.83,3.88,44.91"/><path class="cls-4" d="M127.8,175.79c.14-.08.33-.04.41.11l2.33,3.96,2.6-3.78c.09-.14.28-.17.42-.08.14.09.17.28.08.42l-2.87,4.17c-.06.08-.16.13-.26.13s-.2-.06-.25-.15l-2.56-4.36c-.03-.05-.04-.11-.04-.16,0-.1.06-.19.15-.25Z"/><path class="cls-4" d="M205.89,207.59c.06-.06.12-.12.18-.18,1.02-1,1.7-1.49,2.05-1.49.19,0,.29.1.29.31,0,.15-.08.32-.26.52-.93,1.09-1.4,2.05-1.4,2.88,0,.27.07.52.22.77.07.11.1.2.1.26,0,.06-.03.11-.09.17-.06.07-.14.1-.23.1-.2,0-.37-.13-.51-.38-.13-.24-.2-.53-.2-.87,0-.66.25-1.39.75-2.19-.66.42-1.28,1.18-1.85,2.26-.15.26-.3.39-.47.39-.08,0-.15-.03-.21-.09-.07-.07-.1-.16-.1-.26,0-.26.3-.95.9-2.07.32-.61.58-1.04.76-1.32.19-.27.34-.4.48-.4.06,0,.12.03.18.09.07.07.1.15.1.23,0,.11-.07.26-.21.46-.21.3-.37.57-.5.81Z"/><path class="cls-4" d="M211.22,205.38c.4,0,.6.24.6.73,0,.65-.3,1.47-.9,2.47-.65,1.08-1.29,1.62-1.9,1.62-.28,0-.49-.13-.62-.4-.07-.13-.1-.29-.1-.48,0-.62.21-1.3.64-2.04.4-.68.87-1.21,1.41-1.58.32-.22.61-.33.86-.33ZM210.46,208.15c-.12-.1-.18-.17-.18-.23,0-.04.08-.15.23-.32.44-.49.66-.89.66-1.19,0-.04-.01-.08-.04-.12-.04-.07-.1-.11-.18-.11-.16,0-.39.15-.69.45-.39.39-.69.79-.89,1.21-.24.47-.36.87-.36,1.18,0,.08.02.16.07.22.06.09.14.13.24.13.23,0,.49-.18.75-.53.12-.15.21-.3.29-.45s.11-.24.1-.24Z"/><path class="cls-4" d="M218.28,205.56c.39,0,.58.2.58.61,0,.36-.14.72-.42,1.08-.21.27-.4.41-.56.41-.14,0-.21-.08-.21-.23,0-.08.02-.15.06-.2.01-.02.07-.08.18-.17.09-.08.18-.21.27-.37.06-.11.09-.2.09-.27,0-.08-.04-.12-.13-.12-.1,0-.26.08-.47.24-.33.26-.66.66-1,1.22-.34.58-.51,1.03-.51,1.36,0,.11.03.2.1.29.09.13.22.19.37.19.31,0,.67-.19,1.09-.57.36-.33.66-.65.9-.98.13-.18.24-.27.33-.27.05,0,.1.02.15.07.04.05.06.1.06.15,0,.18-.23.53-.7,1.05-.74.82-1.41,1.23-2.01,1.23-.36,0-.64-.13-.83-.39-.14-.19-.21-.42-.21-.67,0-.51.21-1.1.63-1.77.41-.64.87-1.15,1.41-1.55.31-.22.59-.34.82-.34Z"/><path class="cls-4" d="M221.51,207.11c.36-.38.72-.69,1.08-.94.46-.32.8-.48,1-.48.08,0,.16.03.24.1.09.08.13.17.13.27,0,.13-.11.34-.32.62-.41.54-.71,1.03-.92,1.46-.19.38-.28.64-.28.78s.06.2.19.2c.26,0,.71-.47,1.33-1.41.13-.19.24-.29.34-.29s.15.06.15.18c0,.19-.19.55-.56,1.09-.32.47-.66.83-1.01,1.08-.25.17-.47.26-.67.26s-.36-.09-.45-.27c-.06-.11-.09-.24-.09-.37,0-.43.15-.93.46-1.49.07-.13.29-.51.66-1.13-1,.5-1.84,1.59-2.53,3.26-.06.19-.16.29-.29.29-.09,0-.17-.03-.23-.1-.06-.07-.09-.15-.09-.25,0-.16.16-.62.47-1.37.58-1.4,1.12-2.58,1.63-3.54.5-.98,1.06-1.99,1.68-3.04.15-.25.26-.42.34-.51s.17-.13.26-.13c.09,0,.16.05.23.14.05.07.07.15.07.23,0,.14-.08.32-.23.55-.53.82-1.05,1.71-1.57,2.69-.56,1.04-.91,1.76-1.03,2.14Z"/><path class="cls-4" d="M226.57,208.9c-.16.28-.32.52-.48.72-.31.38-.61.57-.92.57-.26,0-.47-.12-.62-.37-.09-.16-.14-.35-.14-.57,0-.54.17-1.14.51-1.79.38-.73.84-1.29,1.38-1.68.35-.25.69-.38,1.02-.38.21,0,.38.06.51.19.12.11.18.24.18.38,0,.11-.04.26-.12.45.07.1.11.19.11.27,0,.1-.07.27-.21.51-.14.24-.28.56-.42.95-.15.42-.23.76-.23,1.01,0,.21.06.37.18.51.03.03.13.09.3.17.12.06.18.16.18.31,0,.09-.03.17-.1.23-.07.06-.16.1-.26.1-.26,0-.49-.12-.68-.35-.16-.19-.23-.43-.23-.72,0-.1,0-.26.03-.48ZM227.48,206.49c-.06-.11-.12-.19-.19-.24-.07-.05-.14-.08-.22-.08-.37,0-.77.32-1.21.97-.48.72-.72,1.33-.72,1.82,0,.12.02.21.07.28.05.06.12.1.21.1.23,0,.51-.25.82-.75.18-.27.39-.68.65-1.21.17-.35.3-.58.37-.69.04-.06.11-.13.21-.21Z"/><path class="cls-4" d="M229.65,207.59c.06-.06.12-.12.18-.18,1.02-1,1.7-1.49,2.05-1.49.19,0,.29.1.29.31,0,.15-.08.32-.26.52-.93,1.09-1.4,2.05-1.4,2.88,0,.27.07.52.22.77.07.11.1.2.1.26,0,.06-.03.11-.09.17-.06.07-.14.1-.23.1-.2,0-.37-.13-.51-.38-.13-.24-.2-.53-.2-.87,0-.66.25-1.39.75-2.19-.66.42-1.28,1.18-1.85,2.26-.15.26-.3.39-.47.39-.08,0-.15-.03-.21-.09-.07-.07-.1-.16-.1-.26,0-.26.3-.95.9-2.07.32-.61.58-1.04.76-1.32.19-.27.34-.4.48-.4.06,0,.12.03.18.09.07.07.1.15.1.23,0,.11-.07.26-.21.46-.21.3-.37.57-.5.81Z"/><path class="cls-4" d="M234.35,209.47c.52-.38.91-.73,1.16-1.04.38-.45.64-.82.8-1.11.08-.13.16-.19.24-.19.12,0,.18.06.18.17,0,.13-.09.35-.28.66-.58.94-1.44,1.76-2.59,2.45-.54,1.12-.93,1.88-1.19,2.29-.67,1.05-1.31,1.58-1.9,1.58-.31,0-.54-.12-.67-.37-.08-.14-.12-.3-.12-.48,0-.77.49-1.5,1.48-2.2.16-.12.79-.48,1.9-1.1.21-.45.38-.81.5-1.07-.51.54-.94.81-1.27.81-.21,0-.37-.11-.49-.32-.07-.14-.11-.29-.11-.44,0-.35.14-.8.43-1.35.41-.8.9-1.43,1.48-1.89.48-.39.91-.58,1.28-.58.19,0,.35.07.49.21.09.09.14.23.14.41,0,.22-.08.5-.23.83.11.11.17.19.17.24,0,.03-.02.08-.07.15-.13.18-.34.52-.64,1.02-.26.43-.49.88-.68,1.33ZM232.91,210.98c-.64.27-1.21.69-1.71,1.25-.23.26-.39.53-.49.82-.03.09-.04.16-.04.22,0,.06.01.12.04.17.05.09.13.13.23.13.3,0,.66-.32,1.06-.97.35-.56.65-1.1.91-1.61ZM234.29,207.78c-.07-.07-.1-.12-.1-.15,0-.04.04-.1.11-.17.24-.23.44-.48.59-.73.12-.2.18-.36.18-.47,0-.13-.06-.2-.18-.2-.21,0-.51.2-.9.6-.46.47-.83,1-1.08,1.59-.13.29-.19.52-.19.67,0,.09.02.15.06.2s.09.07.17.07c.17,0,.41-.18.72-.53.2-.22.36-.44.5-.66.09-.14.14-.21.13-.22Z"/><path class="cls-4" d="M237.31,208.7v.13c0,.11.03.2.08.28.12.18.32.27.6.27.61,0,1.32-.47,2.12-1.41.14-.16.26-.24.36-.24.05,0,.1.03.15.08.03.04.04.08.04.11,0,.19-.23.51-.7.97-.37.36-.76.65-1.17.87s-.8.34-1.16.34-.65-.13-.86-.38c-.14-.18-.21-.42-.21-.72,0-.83.39-1.63,1.16-2.42.63-.64,1.18-.97,1.65-.97.13,0,.24.04.34.12.13.1.19.24.19.4,0,.26-.12.58-.36.95-.49.78-1.24,1.32-2.23,1.62ZM237.47,208.13c.34-.12.61-.25.81-.4.34-.26.61-.56.81-.89.07-.12.11-.22.11-.31,0-.1-.05-.15-.14-.15-.13,0-.31.1-.54.29-.42.34-.77.83-1.05,1.46Z"/><path class="cls-1" d="M220.67,201.09c-1.45-6.36,1.45-5.65.8-15.33"/><path class="cls-4" d="M224.5,189.73c-.14.1-.32.06-.42-.07l-2.63-3.76-2.29,3.98c-.08.14-.27.19-.41.11-.14-.08-.19-.27-.11-.41l2.53-4.38c.05-.09.14-.15.25-.15s.2.04.26.13l2.9,4.15s.05.1.05.16c0,.1-.04.2-.13.26Z"/><path class="cls-1" d="M219.9,214.2c-1.82,6.36,1.43,8.05,1.52,15.58"/><path class="cls-4" d="M218.35,225.79c.14-.09.32-.06.42.08l2.61,3.77,2.31-3.96c.08-.14.27-.19.41-.11.14.08.19.27.11.41l-2.55,4.37c-.05.09-.15.14-.25.15-.1,0-.2-.04-.26-.13l-2.88-4.16s-.05-.1-.05-.16c0-.1.04-.2.13-.26Z"/><path class="cls-1" d="M319.11,251.96c-1.45-6.36-.07-7.62-.79-17.41"/><path class="cls-4" d="M321.35,238.52c-.14.1-.32.06-.42-.07l-2.63-3.76-2.29,3.98c-.08.14-.27.19-.41.11-.14-.08-.19-.27-.11-.41l2.53-4.38c.05-.09.14-.15.25-.15.1,0,.2.04.26.13l2.9,4.14s.05.1.05.16c0,.1-.04.2-.13.26Z"/><path class="cls-1" d="M319.73,262.99c2.81,6.27.18,8.58,1.39,15.59"/><path class="cls-4" d="M317.7,274.93c.13-.11.31-.09.42.03l3,3.47,1.88-4.19c.07-.15.25-.22.4-.15.15.07.22.25.15.4l-2.07,4.62c-.04.09-.13.16-.23.17s-.2-.02-.27-.1l-3.31-3.83s-.06-.1-.07-.15c-.01-.1.02-.2.1-.27Z"/><path class="cls-4" d="M51.79,277.46c.26.1.46.27.59.49.13.23.19.52.19.87,0,1.09-.42,2.25-1.27,3.47-.92,1.33-1.81,2-2.65,2-.42,0-.74-.22-.95-.65-.14-.28-.21-.62-.21-1.03,0-.97.35-1.99,1.06-3.06.37-.55.86-1.12,1.49-1.71.65-.61,1.13-.91,1.41-.91.22,0,.33.17.33.52ZM50.84,277.99c-.57.47-1.08,1.04-1.52,1.71-.63.97-.95,1.9-.95,2.81,0,.27.04.48.11.63.12.23.29.35.5.35.34,0,.74-.26,1.21-.78.52-.58.93-1.28,1.23-2.11.23-.63.34-1.16.34-1.6,0-.3-.09-.56-.28-.78-.13-.15-.29-.23-.5-.24h-.15Z"/><path class="cls-3" d="M430.62,85.38c-46.14,30.9-21.83,133.06-32.35,163.2-1.92,5.5-9.24,6.91-9.24,6.91,0,0,6.32,2.78,10.2,9.94,7.4,13.66,19.37,15.37,33.9,15.75"/><path class="cls-4" d="M425.62,85.35c0,.17.14.29.31.29l4.59-.16-1.79,4.23c-.06.15,0,.33.16.39.15.06.33,0,.39-.16l1.98-4.66c.04-.09.03-.2-.03-.29-.06-.08-.16-.13-.26-.13l-5.06.18c-.06,0-.11.02-.16.05-.08.06-.13.15-.13.26Z"/><path class="cls-4" d="M428.93,283.9c-.08-.14-.04-.33.11-.41l3.96-2.32-3.78-2.61c-.14-.09-.17-.28-.08-.42s.28-.17.42-.08l4.16,2.88c.08.06.13.16.13.26,0,.1-.06.2-.15.25l-4.37,2.56c-.05.03-.11.04-.16.04-.1,0-.19-.06-.25-.15Z"/><rect class="cls-7" x="454.29" y="85.5" width="230.9" height="195.7"/><rect class="cls-8" x="454.29" y="182.6" width="230.9" height="98.6"/><path class="cls-6" d="M685.2,183.1c.28,0,.5-.22.5-.5s-.22-.5-.5-.5h-231.01c-.28,0-.5.22-.5.5s.22.5.5.5h231.01"/><rect class="cls-5" x="454.29" y="231.9" width="230.9" height="49.3"/><path class="cls-6" d="M685.2,232.65c.28,0,.5-.22.5-.5s-.22-.5-.5-.5h-231.01c-.28,0-.5.22-.5.5s.22.5.5.5h231.01"/><line class="cls-2" x1="500.09" y1="83" x2="500.09" y2="281.2"/><path class="cls-4" d="M516.74,124.24c-.35.25-.7.46-1.05.63-.47.23-.78.35-.93.35-.16,0-.23-.13-.22-.38,0-.09.02-.16.07-.23.04-.06.14-.11.28-.16.45-.17,1.1-.51,1.95-1.01.39-.23.66-.34.82-.33.1,0,.19.06.27.16.05.07.08.14.07.22,0,.12-.11.33-.3.61-1.48,2.24-2.51,4-3.1,5.29-.14.31-.24.51-.3.58-.1.13-.19.19-.28.19s-.18-.06-.26-.18c-.05-.06-.07-.13-.07-.21,0-.26.41-1.12,1.21-2.57.75-1.36,1.36-2.35,1.84-2.97Z"/><path class="cls-4" d="M519.31,127.15c.15,0,.33.02.53.03.42.03.69.04.8.05.28,0,.47.05.56.11.09.06.13.17.12.33,0,.15-.05.26-.14.34-.05.04-.11.06-.18.06-.05,0-.13,0-.23-.02-.18-.02-.66-.05-1.43-.07-.47-.01-.83,0-1.06.05-.11.02-.2.03-.26.03-.13,0-.23-.07-.29-.2-.03-.06-.05-.14-.04-.22,0-.25.13-.4.37-.45.18-.04.6-.05,1.26-.03Z"/><path class="cls-4" d="M523.54,126.45c.43-.34.8-.5,1.14-.49.21,0,.37.1.5.27.12.16.17.33.17.53-.01.38-.15.84-.42,1.37-.3.59-.72,1.14-1.26,1.64-.45.42-.87.62-1.26.6-.15,0-.28-.04-.4-.09-.12-.06-.22-.14-.31-.25-.04.07-.07.11-.08.13-.09.18-.15.29-.18.32-.03.04-.08.06-.15.05-.09,0-.17-.06-.24-.16-.05-.07-.08-.14-.07-.22,0-.14.31-.82.91-2.05.84-1.71,1.8-3.41,2.89-5.1.44-.69.71-1.09.81-1.21.11-.14.2-.21.29-.21.11,0,.2.06.28.17.05.07.08.15.07.24,0,.1-.05.23-.15.38-.02.03-.18.28-.48.74-.93,1.34-1.61,2.45-2.04,3.32ZM522.21,129.58c.07.05.15.08.24.08.42.01.89-.34,1.38-1.06.23-.33.41-.65.55-.97.12-.29.18-.5.19-.65,0-.1-.02-.17-.06-.22-.04-.05-.11-.07-.2-.08-.22,0-.5.14-.83.44-.33.29-.65.72-.98,1.28-.15.27-.29.52-.4.76l-.1.19c.07.1.14.18.22.23Z"/><path class="cls-4" d="M527.55,126.03c.08,0,.15.04.2.1.04.05.05.11.05.16,0,.09-.08.23-.23.43-.53.77-.91,1.41-1.14,1.91-.25.52-.46,1.05-.66,1.59-.09.24-.21.36-.38.35-.1,0-.17-.04-.23-.12-.05-.07-.08-.13-.07-.21,0-.15.18-.63.51-1.45.26-.65.68-1.36,1.25-2.13.18-.25.32-.42.41-.51.09-.09.18-.13.28-.13ZM529.02,123.36c.22,0,.33.12.32.35,0,.21-.12.43-.34.67-.21.23-.41.35-.6.34-.09,0-.17-.04-.22-.11-.06-.07-.08-.14-.08-.24,0-.23.14-.48.41-.73.2-.19.37-.28.52-.28Z"/><path class="cls-4" d="M530.3,125.79c-.33.48-.64,1.03-.93,1.63-.41.86-.63,1.5-.64,1.93,0,.12.02.22.07.28.05.07.12.1.23.1.24,0,.55-.21.91-.66.23-.28.43-.55.61-.83.1-.16.2-.24.31-.23.06,0,.12.03.16.07.04.04.06.09.05.13,0,.18-.25.58-.75,1.19-.59.73-1.12,1.09-1.59,1.08-.25,0-.45-.13-.61-.36-.1-.15-.14-.36-.13-.63.02-.59.21-1.27.58-2.05.09-.19.33-.66.73-1.39-.13.03-.23.04-.3.04-.1,0-.19-.03-.27-.08-.1-.07-.16-.16-.15-.26,0-.12.08-.22.22-.29.04-.02.22-.04.54-.08.12-.02.29-.06.52-.12.18-.3.47-.71.87-1.23.22-.29.38-.47.46-.56.12-.12.23-.18.31-.17.06,0,.13.04.19.11.06.06.08.13.08.19,0,.13-.15.37-.43.74-.19.24-.33.43-.42.58.55-.13.94-.19,1.17-.18.27,0,.4.12.39.35,0,.11-.05.19-.15.24-.05.03-.18.05-.38.06-.08,0-.45.07-1.11.24-.18.05-.36.1-.54.15Z"/><line class="cls-2" x1="546.49" y1="83" x2="546.49" y2="281.2"/><line class="cls-2" x1="592.89" y1="83" x2="592.89" y2="281.2"/><line class="cls-2" x1="639.3" y1="83" x2="639.3" y2="281.2"/><path class="cls-4" d="M455.31,288.61c.26.1.46.27.59.49.13.23.19.52.19.87,0,1.09-.42,2.25-1.27,3.47-.92,1.33-1.81,2-2.65,2-.42,0-.73-.22-.94-.65-.14-.28-.21-.62-.21-1.03,0-.97.35-1.99,1.06-3.06.37-.55.86-1.12,1.49-1.71.65-.61,1.12-.91,1.41-.91.22,0,.33.17.33.52ZM454.35,289.14c-.57.47-1.08,1.04-1.52,1.71-.63.97-.94,1.9-.94,2.81,0,.27.04.48.11.63.12.23.29.35.51.35.34,0,.74-.26,1.21-.78.52-.58.93-1.28,1.23-2.11.23-.63.34-1.16.34-1.6,0-.3-.09-.56-.28-.78-.13-.15-.3-.23-.51-.24h-.15Z"/><path class="cls-4" d="M685.7,82.5h0s-231.51,0-231.51,0c-.28,0-.5.22-.5.5v199.2c0,.28.22.5.5.5h0s231.51,0,231.51,0c.28,0,.5-.22.5-.5V83c0-.28-.22-.5-.5-.5ZM454.69,279.7V85.5h230.51v194.2h-230.51Z"/><path class="cls-4" d="M439.28,82.27c.73-.27,1.26-.4,1.6-.4.4,0,.7.11.89.34.17.2.26.46.26.78,0,.83-.37,1.64-1.11,2.44-.68.74-1.38,1.11-2.09,1.11-.45,0-.81-.2-1.09-.59-.21-.3-.32-.65-.32-1.05,0-.87.34-1.77,1.01-2.69.58-.8,1.41-1.54,2.49-2.21.32-.21.56-.35.72-.42.15-.07.28-.11.4-.11.19,0,.28.08.28.24,0,.15-.1.27-.29.38-1.02.54-1.93,1.27-2.74,2.18ZM438.68,83.17c-.3.49-.45.98-.45,1.46,0,.32.07.59.22.82.15.23.35.35.59.35.34,0,.69-.16,1.05-.48s.65-.76.87-1.3c.14-.34.21-.64.21-.89,0-.19-.06-.33-.17-.45-.12-.13-.28-.19-.48-.19-.33,0-.73.11-1.2.33-.13.05-.27.13-.43.23-.12.07-.19.12-.2.13Z"/><path class="cls-4" d="M446.17,82.05c.24.1.42.22.52.34.15.18.23.43.23.75,0,.8-.33,1.56-1,2.29s-1.36,1.1-2.07,1.1c-.43,0-.79-.18-1.06-.54-.2-.26-.29-.55-.29-.86,0-.52.2-.78.6-.78.24,0,.36.09.36.27,0,.04,0,.09-.01.15-.01.08-.02.17-.02.25,0,.23.06.41.17.53.13.13.28.2.45.2.42,0,.86-.29,1.34-.87.45-.56.68-1.09.68-1.59,0-.25-.06-.45-.18-.6-.13-.16-.32-.23-.55-.23-.09,0-.19.01-.28.04-.11.03-.2.05-.26.05-.14,0-.21-.1-.21-.29,0-.17.06-.3.17-.41.06-.06.2-.12.4-.18.41-.1.75-.24,1.03-.42.18-.12.32-.27.43-.47.05-.1.08-.21.08-.32,0-.14-.04-.25-.11-.31-.08-.07-.19-.1-.35-.1-.26,0-.54.07-.82.21-.07.03-.25.13-.52.3-.07.05-.15.07-.24.07-.17,0-.25-.09-.25-.27,0-.16.12-.33.37-.51.57-.41,1.13-.61,1.68-.61.33,0,.6.1.83.3.24.21.36.47.36.77,0,.4-.17.77-.51,1.11-.19.2-.5.4-.95.62Z"/><path class="cls-4" d="M684.7,292.89c.06-.06.12-.12.18-.18,1.02-1,1.7-1.49,2.05-1.49.19,0,.29.1.29.31,0,.15-.08.32-.26.52-.93,1.09-1.4,2.05-1.4,2.88,0,.27.07.52.22.77.07.11.1.2.1.26,0,.06-.03.11-.09.17-.06.07-.14.1-.23.1-.2,0-.37-.13-.51-.38-.13-.24-.2-.53-.2-.87,0-.66.25-1.39.75-2.19-.66.42-1.28,1.18-1.85,2.26-.15.26-.3.39-.47.39-.08,0-.15-.03-.21-.09-.07-.07-.1-.16-.1-.26,0-.26.3-.95.9-2.07.32-.61.58-1.04.76-1.32.19-.27.34-.4.48-.4.06,0,.12.03.18.09.07.07.1.15.1.23,0,.11-.07.26-.21.46-.21.3-.37.57-.5.81Z"/><path class="cls-4" d="M497.64,31.63c.44.04.64.28.6.74-.03.4-.22.8-.57,1.18-.27.29-.49.43-.67.41-.15-.01-.22-.11-.21-.28,0-.09.04-.17.08-.22.02-.02.09-.08.21-.17.11-.09.22-.22.34-.4.08-.12.13-.22.13-.3,0-.09-.04-.14-.14-.14-.12,0-.3.07-.55.23-.4.26-.81.69-1.24,1.28-.44.62-.67,1.12-.7,1.49,0,.12.02.23.08.33.09.15.23.23.4.25.35.03.78-.15,1.29-.55.43-.34.8-.68,1.11-1.03.16-.19.29-.29.4-.28.06,0,.11.04.16.1.04.06.06.12.05.17-.02.2-.31.58-.88,1.13-.91.86-1.7,1.26-2.38,1.21-.41-.03-.71-.2-.9-.51-.14-.23-.19-.49-.17-.78.04-.57.34-1.22.87-1.94.52-.69,1.09-1.22,1.73-1.62.37-.23.69-.33.96-.31Z"/><path class="cls-4" d="M502.48,31.82c.45.04.66.33.61.88-.06.73-.47,1.64-1.24,2.71-.84,1.16-1.6,1.71-2.29,1.66-.32-.03-.54-.19-.67-.5-.07-.16-.09-.34-.07-.55.06-.71.36-1.45.91-2.24.51-.73,1.09-1.28,1.74-1.66.38-.22.71-.32,1.01-.29ZM501.37,34.88c-.13-.12-.19-.21-.19-.27,0-.04.1-.16.29-.34.54-.52.83-.95.85-1.29,0-.04,0-.09-.03-.14-.04-.09-.1-.13-.2-.14-.18-.01-.45.14-.82.45-.48.41-.85.83-1.12,1.28-.31.51-.48.95-.51,1.3,0,.09.01.18.05.25.06.11.15.16.26.17.27.02.57-.15.9-.53.15-.16.27-.32.36-.49.1-.17.14-.26.14-.26Z"/><path class="cls-4" d="M504.55,34.5c.08-.06.15-.12.22-.18,1.24-1.03,2.06-1.53,2.45-1.5.22.02.31.14.29.38-.01.17-.12.35-.34.56-1.15,1.15-1.77,2.19-1.84,3.12-.02.3.04.6.18.89.07.13.1.24.09.31,0,.07-.04.13-.11.18-.08.07-.17.1-.27.09-.23-.02-.41-.18-.54-.48-.13-.28-.18-.62-.14-1,.06-.74.41-1.55,1.04-2.41-.79.42-1.55,1.21-2.3,2.38-.19.28-.38.41-.56.4-.09,0-.17-.05-.22-.12-.07-.08-.1-.19-.09-.31.02-.3.43-1.05,1.21-2.26.42-.65.75-1.13.98-1.42.23-.29.43-.42.57-.41.07,0,.14.04.2.12.07.08.1.17.09.27,0,.12-.1.29-.28.5-.26.32-.47.61-.64.87Z"/><path class="cls-4" d="M511.39,32.37c.34.03.59.11.75.24.16.14.23.33.21.58-.03.33-.17.63-.44.91-.25.27-.62.47-1.1.61-.26.07-.48.1-.65.09-.23-.02-.34-.13-.32-.33.01-.14.09-.24.22-.3.04-.01.23-.05.57-.1.21-.03.4-.11.59-.24.16-.12.24-.25.26-.4,0-.12-.02-.21-.08-.26-.06-.06-.16-.1-.29-.11-.32-.03-.68.08-1.09.3-.47.26-.72.59-.75.99-.02.29.09.66.35,1.11.29.49.42.91.39,1.23-.04.49-.29.85-.74,1.09-.28.15-.59.21-.92.18-.53-.04-.92-.26-1.16-.67-.17-.29-.24-.61-.21-.98.03-.43.17-.78.42-1.06.16-.18.32-.27.47-.25.14.01.2.07.19.18,0,.04-.03.11-.09.19-.15.23-.23.5-.26.82-.02.27.06.51.23.71.16.18.35.28.57.3.21.02.39-.04.52-.17.11-.11.17-.26.19-.45.02-.23-.09-.54-.32-.93-.32-.54-.47-1.01-.43-1.42.04-.55.38-1.02,1.02-1.39.62-.36,1.25-.52,1.9-.46Z"/><path class="cls-4" d="M514.92,32.82c-.4.53-.79,1.12-1.14,1.79-.51.95-.79,1.66-.83,2.15-.01.14,0,.25.06.32.05.08.14.12.25.13.28.02.63-.21,1.06-.7.27-.3.52-.6.74-.91.12-.17.24-.26.36-.25.07,0,.13.04.18.09.04.05.06.1.05.15-.02.2-.32.64-.91,1.3-.71.8-1.33,1.18-1.86,1.13-.28-.02-.51-.17-.67-.44-.1-.17-.14-.41-.12-.72.05-.67.31-1.43.77-2.29.11-.21.41-.72.91-1.53-.15.03-.27.04-.34.03-.12,0-.22-.05-.3-.11-.12-.09-.17-.19-.16-.3.01-.14.1-.24.27-.31.05-.02.25-.04.62-.06.13-.01.33-.05.59-.11.22-.33.57-.78,1.06-1.34.27-.31.46-.51.56-.61.14-.13.27-.19.36-.18.07,0,.14.05.21.13.06.08.09.15.08.22-.01.14-.19.42-.53.82-.23.26-.4.47-.51.63.63-.12,1.07-.16,1.34-.14.3.02.45.16.42.42-.01.13-.07.22-.18.27-.06.03-.2.04-.44.05-.09-.01-.52.06-1.28.21-.21.04-.42.09-.62.14Z"/><path class="cls-4" d="M518.14,37.07c-.21.3-.41.56-.6.77-.38.4-.74.59-1.09.56-.3-.02-.52-.18-.66-.48-.09-.19-.12-.41-.1-.66.05-.61.3-1.27.74-1.98.5-.79,1.06-1.38,1.71-1.77.42-.25.82-.37,1.19-.34.23.02.42.11.56.26.12.14.18.29.16.45,0,.12-.07.29-.18.49.07.12.11.23.1.32,0,.12-.1.3-.28.55-.18.26-.37.6-.57,1.04-.21.46-.32.83-.35,1.12-.02.23.04.43.16.59.04.04.14.11.32.22.13.08.19.2.18.36,0,.11-.05.19-.14.25-.09.06-.19.09-.3.08-.3-.02-.54-.18-.74-.46-.16-.23-.23-.51-.2-.83,0-.11.03-.29.08-.54ZM519.4,34.43c-.06-.13-.12-.22-.19-.29-.07-.06-.15-.1-.24-.11-.42-.03-.9.3-1.45.99-.61.77-.93,1.43-.98,2-.01.14,0,.25.05.32.05.08.12.12.23.13.27.02.6-.24,1-.77.22-.29.5-.73.85-1.31.22-.38.39-.62.48-.74.05-.06.13-.14.26-.22Z"/><path class="cls-4" d="M521.74,35.88c.08-.06.15-.12.22-.18,1.24-1.03,2.06-1.53,2.45-1.5.21.02.31.14.29.38-.01.17-.13.35-.34.56-1.15,1.15-1.77,2.19-1.84,3.12-.02.3.04.6.18.89.07.13.1.24.09.31,0,.07-.04.13-.11.18-.08.07-.17.1-.27.1-.23-.02-.41-.18-.54-.48-.13-.28-.18-.62-.14-1,.06-.75.41-1.55,1.04-2.41-.79.42-1.55,1.21-2.3,2.38-.19.28-.38.41-.56.4-.09,0-.17-.05-.22-.12-.07-.08-.1-.19-.09-.31.02-.3.43-1.05,1.21-2.26.42-.65.75-1.13.98-1.42.23-.29.43-.42.57-.41.07,0,.14.04.2.12.07.08.1.17.09.27,0,.12-.1.29-.28.5-.26.32-.47.61-.64.87Z"/><path class="cls-4" d="M527.8,33.86c-.4.53-.79,1.12-1.14,1.79-.51.95-.79,1.66-.83,2.15-.01.14,0,.24.06.32.05.08.14.12.25.13.28.02.63-.21,1.06-.7.27-.3.52-.6.74-.91.12-.17.24-.25.36-.25.07,0,.13.04.18.09.04.05.06.1.05.15-.02.2-.32.64-.91,1.3-.71.8-1.33,1.18-1.86,1.13-.28-.02-.51-.17-.67-.44-.1-.17-.14-.41-.12-.72.05-.67.31-1.43.77-2.29.11-.21.41-.72.91-1.53-.15.03-.27.04-.34.03-.12,0-.21-.04-.3-.11-.12-.09-.17-.19-.16-.3.01-.14.1-.24.27-.31.05-.02.25-.04.62-.06.13-.01.33-.05.59-.11.22-.33.57-.78,1.06-1.34.27-.31.46-.51.56-.61.14-.13.27-.19.36-.18.07,0,.14.05.21.13.06.08.09.15.08.22-.01.14-.19.42-.53.82-.23.26-.4.47-.51.63.63-.12,1.07-.16,1.34-.14.3.02.45.16.42.42-.01.13-.07.22-.18.27-.06.03-.2.04-.44.05-.09-.01-.52.06-1.28.21-.21.04-.42.09-.62.14Z"/><path class="cls-4" d="M536.13,34.73c.44.03.63.28.6.74-.03.4-.22.8-.57,1.18-.27.29-.49.43-.67.41-.15-.01-.23-.11-.21-.28,0-.09.04-.17.08-.22.02-.02.09-.08.21-.17.11-.08.22-.22.34-.4.08-.12.13-.22.13-.3,0-.09-.04-.14-.14-.14-.12,0-.3.07-.55.23-.4.26-.81.69-1.24,1.28-.44.62-.67,1.12-.7,1.49,0,.12.02.23.08.33.09.15.23.23.4.25.35.03.78-.15,1.28-.55.43-.34.8-.68,1.11-1.03.16-.19.29-.29.4-.28.06,0,.11.04.16.1.04.06.06.12.05.17-.02.2-.31.58-.88,1.13-.91.86-1.7,1.26-2.38,1.21-.41-.03-.71-.2-.9-.51-.14-.23-.19-.49-.17-.78.05-.57.34-1.22.87-1.94.52-.69,1.09-1.22,1.73-1.62.37-.22.69-.33.96-.31Z"/><path class="cls-4" d="M540.98,34.91c.45.04.66.33.61.88-.06.73-.47,1.64-1.24,2.71-.84,1.16-1.6,1.71-2.29,1.66-.32-.03-.54-.19-.67-.5-.07-.16-.09-.34-.07-.55.06-.71.36-1.45.91-2.24.51-.73,1.09-1.28,1.74-1.66.38-.22.71-.32,1.01-.29ZM539.86,37.97c-.13-.12-.19-.21-.19-.27,0-.04.1-.16.29-.34.54-.52.83-.95.85-1.29,0-.04,0-.09-.03-.14-.04-.09-.1-.13-.2-.14-.18-.01-.45.14-.82.45-.48.41-.85.83-1.12,1.28-.31.51-.49.95-.51,1.3,0,.09,0,.18.05.25.06.11.15.16.26.17.26.02.57-.15.9-.53.15-.15.27-.32.37-.49.1-.17.14-.26.14-.26Z"/><path class="cls-4" d="M542.93,37.66c.5-.45.94-.8,1.32-1.04.57-.37.94-.55,1.12-.53.09,0,.16.05.22.12.05.07.08.13.07.21,0,.1-.12.27-.33.49-.33.35-.56.65-.7.91,1.4-1.19,2.33-1.77,2.8-1.73.1,0,.18.04.25.11.07.07.1.16.1.26-.01.15-.15.34-.4.57-1.13.99-1.72,1.83-1.78,2.52-.02.28.01.49.1.62l.19.29c.04.05.06.12.05.2,0,.09-.05.17-.13.24-.09.08-.19.12-.29.11-.18-.01-.34-.14-.48-.39-.17-.29-.23-.62-.2-1,.04-.5.22-1,.55-1.49.11-.17.3-.4.55-.69-.5.32-1.01.76-1.55,1.34-.36.39-.7.84-1.01,1.33-.15.24-.31.35-.48.34-.19-.01-.27-.13-.26-.34.02-.23.21-.68.58-1.36.21-.39.46-.8.75-1.22-1,.65-1.79,1.58-2.36,2.79-.14.27-.3.39-.5.38-.09,0-.16-.05-.21-.12-.06-.07-.08-.15-.07-.25.03-.33.26-.9.69-1.72.45-.87.95-1.64,1.49-2.32.37-.48.65-.71.83-.69.16.01.24.11.23.29,0,.08-.12.26-.35.55-.41.55-.68.96-.82,1.23Z"/><path class="cls-4" d="M550.03,36.59c.24-.13.41-.21.53-.26.24-.09.46-.13.68-.11.24.02.42.1.53.25.11.15.15.37.13.65-.03.39-.2.84-.52,1.36-.49.82-1.05,1.45-1.68,1.9-.54.37-1.02.54-1.46.51-.24-.02-.48-.13-.7-.34-.88,1.47-1.68,2.97-2.4,4.51-.16.37-.32.55-.49.54-.08,0-.16-.07-.23-.19-.05-.08-.08-.17-.07-.26.02-.3.47-1.24,1.33-2.82,1.33-2.44,2.56-4.45,3.71-6.04.24-.34.4-.57.48-.69.22-.34.42-.51.61-.49.19.02.27.14.25.36-.01.13-.09.29-.24.5-.18.26-.33.47-.43.63ZM547.9,39.87c.11.14.26.21.44.23.51.04,1.12-.37,1.81-1.23.26-.32.47-.65.64-.99.13-.27.21-.48.22-.62,0-.1,0-.18-.05-.23-.04-.05-.11-.08-.21-.09-.26-.02-.59.13-1,.46-.39.32-.77.78-1.15,1.38-.35.56-.58.92-.7,1.09Z"/><path class="cls-4" d="M553.49,38.55c.59-.54,1.25-1.05,2.01-1.55.27-.18.56-.34.86-.49.15-.07.25-.11.28-.1.08,0,.16.07.23.2.04.07.06.13.06.19,0,.1-.12.23-.35.38-.6.4-.91.72-.92.94-.01.13.06.2.2.21.24.02.66-.14,1.27-.49.1-.06.19-.08.26-.08.04,0,.09.03.13.08.04.05.07.11.06.16-.01.17-.27.4-.76.71-.52.33-.99.47-1.43.44-.18-.01-.34-.07-.48-.18-.12-.09-.17-.23-.16-.43.01-.14.08-.29.21-.46-.46.27-1.02.76-1.67,1.46-.38.44-.76.98-1.16,1.63-.15.24-.31.36-.5.34-.2-.02-.3-.12-.28-.31.01-.19.22-.68.6-1.47.57-1.17,1.14-2.08,1.72-2.7.35-.39.64-.57.85-.56.07,0,.14.03.19.08.07.06.1.13.09.22,0,.08-.07.19-.19.33-.02.03-.19.2-.48.52-.27.31-.49.61-.65.92Z"/><path class="cls-4" d="M557.72,40.03v.15c-.02.12,0,.23.05.32.12.21.34.33.65.36.69.06,1.53-.41,2.52-1.4.17-.17.32-.25.43-.24.06,0,.11.04.16.1.03.05.04.09.04.13-.02.21-.31.56-.88,1.03-.45.37-.91.66-1.4.88-.49.22-.94.31-1.34.28-.41-.03-.73-.2-.94-.51-.14-.21-.2-.49-.17-.83.07-.93.59-1.81,1.54-2.63.77-.67,1.42-.99,1.95-.94.14.01.27.07.38.16.13.13.19.28.18.47-.02.29-.19.64-.49,1.04-.63.84-1.51,1.38-2.66,1.63ZM557.95,39.4c.4-.1.71-.23.95-.37.41-.27.74-.58,1-.94.09-.12.14-.24.15-.35,0-.11-.04-.17-.14-.18-.14-.01-.36.08-.64.27-.51.34-.94.86-1.32,1.56Z"/><path class="cls-4" d="M565.84,36.75c.34.03.59.11.75.24.16.13.23.33.21.57-.03.33-.17.63-.44.91-.25.27-.62.47-1.1.61-.26.07-.48.1-.65.09-.23-.02-.34-.13-.32-.33.01-.14.08-.24.22-.3.04-.01.23-.04.57-.1.21-.03.4-.11.59-.24.16-.12.24-.25.26-.4,0-.12-.02-.2-.08-.26-.06-.06-.16-.1-.29-.11-.32-.03-.68.08-1.09.3-.47.26-.72.59-.75.99-.02.29.09.66.35,1.11.29.49.42.91.39,1.23-.04.49-.28.85-.74,1.09-.28.15-.59.21-.92.18-.53-.04-.92-.26-1.16-.67-.17-.29-.24-.61-.21-.98.03-.43.17-.78.42-1.06.16-.18.32-.27.47-.25.14.01.2.07.19.18,0,.04-.03.11-.09.19-.15.23-.23.5-.26.82-.02.27.06.51.23.71.16.18.35.28.57.3.21.02.39-.04.52-.17.11-.11.17-.26.19-.45.02-.23-.09-.54-.33-.93-.32-.54-.47-1.01-.43-1.43.04-.55.38-1.02,1.02-1.39.62-.36,1.25-.52,1.9-.46Z"/><path class="cls-4" d="M570.15,37.09c.34.03.59.11.75.24.16.14.23.33.21.58-.03.33-.17.63-.44.91-.26.27-.62.47-1.1.61-.26.07-.48.1-.65.09-.23-.02-.34-.13-.32-.33.01-.14.09-.24.22-.3.03-.01.23-.05.57-.1.21-.03.4-.11.59-.24.16-.12.25-.25.26-.4,0-.12-.02-.21-.08-.26-.06-.06-.16-.1-.29-.11-.32-.03-.68.08-1.09.3-.47.26-.72.59-.75.99-.02.29.09.66.35,1.11.29.49.42.9.39,1.23-.04.48-.28.85-.74,1.09-.28.15-.59.21-.92.18-.53-.04-.92-.26-1.16-.67-.17-.29-.24-.61-.21-.98.03-.43.17-.78.42-1.06.16-.18.32-.27.47-.25.14.01.2.07.19.18,0,.04-.03.11-.09.19-.15.23-.23.5-.26.82-.02.27.06.51.23.71.16.18.35.28.57.3.21.02.39-.04.52-.17.11-.11.17-.26.19-.45.02-.23-.09-.54-.32-.93-.32-.54-.47-1.01-.44-1.43.04-.55.38-1.01,1.02-1.39.62-.36,1.25-.52,1.9-.46Z"/><path class="cls-4" d="M572.78,37.85c.09,0,.17.05.22.13.04.06.06.13.05.19,0,.1-.1.26-.28.48-.65.84-1.11,1.54-1.4,2.09-.31.57-.58,1.16-.83,1.77-.11.27-.26.4-.45.38-.11,0-.2-.06-.25-.15-.06-.08-.08-.16-.07-.24.01-.17.23-.7.66-1.61.34-.72.85-1.5,1.54-2.34.22-.28.39-.46.49-.55.11-.1.21-.14.32-.13ZM574.6,34.9c.25.02.36.16.34.41-.02.23-.16.48-.43.74-.25.25-.49.37-.7.35-.1,0-.19-.05-.25-.14-.06-.08-.09-.17-.08-.27.02-.26.19-.53.51-.81.23-.2.44-.3.61-.28Z"/><path class="cls-4" d="M576.07,37.73c.45.04.66.33.61.88-.06.73-.47,1.64-1.24,2.71-.84,1.16-1.6,1.71-2.29,1.66-.32-.03-.54-.19-.67-.5-.07-.16-.09-.34-.07-.55.06-.71.36-1.45.91-2.24.51-.73,1.09-1.28,1.74-1.66.38-.22.71-.32,1.01-.29ZM574.96,40.79c-.13-.12-.19-.21-.19-.27,0-.04.1-.16.29-.34.54-.52.83-.95.85-1.29,0-.04,0-.09-.03-.14-.04-.09-.1-.13-.2-.14-.18-.01-.45.14-.82.45-.48.41-.85.83-1.12,1.28-.31.51-.48.95-.51,1.3,0,.09.01.18.05.25.06.1.15.16.26.17.26.02.56-.15.9-.53.15-.16.27-.32.36-.49.1-.17.14-.26.14-.26Z"/><path class="cls-4" d="M578.14,40.41c.08-.06.15-.12.22-.18,1.24-1.03,2.06-1.53,2.45-1.5.22.02.31.14.29.38-.01.17-.12.35-.34.56-1.15,1.15-1.77,2.19-1.84,3.12-.03.3.04.6.18.89.07.13.1.24.09.31,0,.07-.04.13-.11.18-.08.07-.17.1-.27.09-.23-.02-.41-.18-.54-.48-.13-.28-.18-.62-.14-1,.06-.75.41-1.55,1.04-2.41-.79.42-1.55,1.21-2.3,2.38-.19.28-.38.41-.56.4-.09,0-.17-.05-.22-.12-.07-.08-.1-.19-.09-.31.02-.3.43-1.05,1.21-2.26.42-.65.75-1.13.98-1.42.23-.29.43-.42.57-.41.07,0,.14.04.2.12.07.08.1.17.09.27,0,.12-.1.29-.28.5-.26.32-.47.61-.64.87Z"/><path class="cls-4" d="M586.7,41.21c.59-.54,1.26-1.05,2.01-1.54.27-.18.55-.34.86-.49.15-.07.25-.1.28-.1.08,0,.16.07.23.2.04.07.06.13.06.19,0,.1-.12.23-.35.38-.6.4-.91.72-.93.94,0,.13.06.2.2.21.24.02.66-.14,1.27-.49.1-.06.19-.08.26-.08.04,0,.09.03.13.08.04.05.07.11.06.16-.01.17-.27.4-.76.71-.51.33-.99.47-1.43.44-.18-.01-.33-.07-.48-.18-.12-.09-.17-.23-.16-.43,0-.14.08-.29.21-.46-.46.27-1.02.76-1.67,1.46-.38.44-.77.98-1.16,1.63-.15.24-.31.36-.5.34-.2-.02-.3-.12-.28-.31.02-.19.22-.68.6-1.47.57-1.18,1.14-2.08,1.72-2.7.35-.39.64-.57.85-.56.07,0,.14.03.19.08.07.06.1.13.09.21,0,.08-.07.19-.19.33-.02.03-.19.2-.48.52-.27.31-.49.61-.65.92Z"/><path class="cls-4" d="M592.7,43.06c-.21.3-.41.56-.6.77-.38.4-.74.59-1.09.56-.3-.02-.52-.18-.66-.48-.09-.19-.12-.41-.11-.66.05-.61.3-1.27.74-1.98.5-.79,1.07-1.38,1.71-1.77.42-.25.81-.37,1.18-.34.23.02.42.11.56.26.12.14.18.29.16.45,0,.12-.07.29-.18.49.07.12.11.23.1.32,0,.12-.1.3-.28.55-.18.26-.37.6-.57,1.04-.21.46-.33.83-.35,1.12-.02.23.04.43.16.59.04.04.14.11.32.22.13.08.19.2.18.36,0,.11-.05.19-.14.25-.09.06-.19.09-.3.08-.3-.02-.54-.18-.74-.46-.16-.23-.22-.51-.2-.83,0-.11.04-.29.08-.54ZM593.95,40.42c-.06-.13-.12-.22-.19-.29-.07-.06-.15-.1-.24-.11-.42-.03-.9.3-1.45.99-.61.77-.93,1.43-.98,2-.01.14,0,.25.05.32.05.08.12.12.23.13.27.02.6-.24.99-.77.22-.29.51-.73.85-1.31.22-.38.39-.62.49-.74.05-.06.14-.14.26-.22Z"/><path class="cls-4" d="M598,39.5c-.4.53-.79,1.12-1.14,1.79-.51.95-.79,1.66-.83,2.15-.01.14,0,.25.06.32.05.08.14.12.25.13.28.02.63-.21,1.06-.7.27-.3.52-.6.74-.91.12-.17.24-.26.36-.25.07,0,.13.04.18.09.04.05.06.1.05.15-.02.2-.32.64-.91,1.3-.71.8-1.33,1.17-1.86,1.13-.28-.02-.51-.17-.67-.45-.1-.17-.14-.41-.12-.72.05-.67.31-1.43.77-2.29.11-.21.41-.72.91-1.53-.15.03-.27.04-.34.03-.12,0-.22-.04-.3-.11-.12-.09-.17-.19-.16-.3.01-.14.1-.24.27-.31.05-.02.25-.04.62-.06.13-.01.33-.05.59-.11.22-.33.57-.78,1.06-1.34.27-.31.46-.51.56-.6.14-.13.27-.19.37-.18.07,0,.14.05.21.13.06.08.09.15.08.22-.01.14-.19.42-.53.82-.23.26-.4.47-.51.63.63-.12,1.07-.16,1.34-.14.3.02.45.16.42.42-.01.13-.07.22-.18.27-.06.03-.2.04-.44.05-.09-.01-.52.06-1.28.21-.21.04-.42.09-.62.14Z"/><path class="cls-4" d="M599.45,43.38v.15c-.02.12,0,.23.05.32.12.21.34.33.65.36.69.06,1.53-.41,2.52-1.4.17-.17.32-.25.43-.24.06,0,.11.04.16.1.03.05.04.09.04.13-.02.21-.31.56-.88,1.03-.45.37-.91.66-1.4.88-.49.22-.94.31-1.34.28-.41-.03-.73-.2-.94-.51-.14-.21-.2-.49-.17-.83.07-.93.59-1.81,1.54-2.63.77-.67,1.42-.99,1.95-.94.14.01.27.07.38.16.13.13.19.29.18.47-.02.29-.19.64-.49,1.04-.63.84-1.51,1.38-2.66,1.63ZM599.69,42.75c.4-.1.71-.23.95-.37.41-.27.74-.58,1-.94.09-.12.14-.24.15-.35,0-.11-.04-.17-.14-.18-.14-.01-.36.08-.64.27-.51.34-.94.86-1.32,1.56Z"/><path class="cls-4" d="M607.57,40.1c.34.03.59.11.75.24.16.13.23.33.21.57-.03.33-.17.63-.44.91-.25.27-.62.47-1.1.61-.26.07-.48.1-.65.09-.23-.02-.34-.13-.32-.33.01-.14.08-.24.22-.3.03-.01.23-.05.57-.1.21-.03.4-.11.59-.24.16-.12.25-.25.26-.4,0-.12-.02-.21-.08-.26-.06-.06-.16-.1-.29-.11-.32-.03-.68.08-1.09.3-.47.26-.72.59-.75.99-.02.29.09.66.35,1.11.29.49.42.9.39,1.23-.04.48-.28.85-.74,1.09-.28.15-.59.21-.92.18-.53-.04-.92-.26-1.16-.67-.17-.29-.24-.61-.21-.98.03-.43.17-.78.42-1.06.16-.18.32-.27.47-.25.14.01.2.07.19.18,0,.04-.03.11-.09.19-.15.23-.23.5-.26.82-.02.27.06.51.23.71.16.18.35.28.57.3.21.02.39-.04.52-.17.11-.11.17-.26.19-.45.02-.23-.09-.54-.33-.93-.32-.54-.47-1.01-.43-1.42.04-.55.38-1.02,1.02-1.39.62-.36,1.25-.52,1.9-.46Z"/><path class="cls-4" d="M441.05,181.15c.24.1.42.22.52.34.15.18.23.43.23.75,0,.8-.33,1.56-1,2.29s-1.36,1.1-2.07,1.1c-.43,0-.79-.18-1.06-.54-.2-.26-.29-.55-.29-.86,0-.52.2-.78.6-.78.24,0,.36.09.36.27,0,.04,0,.09-.01.15-.01.08-.02.17-.02.25,0,.23.06.41.17.53.13.13.28.2.45.2.42,0,.86-.29,1.34-.87.45-.56.68-1.09.68-1.59,0-.25-.06-.45-.18-.6-.13-.16-.32-.23-.55-.23-.09,0-.19.01-.28.04-.11.03-.2.05-.26.05-.14,0-.21-.1-.21-.29,0-.17.06-.3.17-.41.06-.06.2-.12.4-.18.41-.1.75-.24,1.03-.42.18-.12.32-.27.43-.47.05-.1.08-.21.08-.32,0-.14-.04-.25-.11-.31-.08-.07-.19-.1-.35-.1-.26,0-.54.07-.82.21-.07.03-.25.13-.52.3-.07.05-.15.07-.24.07-.17,0-.25-.09-.25-.27,0-.16.12-.33.37-.51.57-.41,1.13-.61,1.68-.61.33,0,.6.1.83.3.24.21.36.47.36.77,0,.4-.17.77-.51,1.11-.19.2-.5.4-.95.62Z"/><path class="cls-4" d="M446.38,179.47c-.34.26-.68.48-1.03.66-.46.25-.77.37-.92.37-.16,0-.23-.12-.23-.37,0-.09.02-.16.06-.23.04-.06.13-.11.28-.17.44-.19,1.08-.54,1.92-1.07.38-.24.65-.36.81-.36.1,0,.2.05.28.15.05.07.08.14.08.22,0,.12-.09.33-.29.62-1.41,2.29-2.39,4.08-2.93,5.38-.13.32-.23.52-.29.59-.09.13-.19.2-.28.2s-.18-.06-.26-.17c-.05-.06-.07-.13-.07-.21,0-.26.38-1.13,1.13-2.61.7-1.39,1.28-2.4,1.74-3.02Z"/><path class="cls-4" d="M441.25,229.02c-.34.26-.68.48-1.03.66-.46.25-.77.37-.92.37-.16,0-.23-.12-.23-.37,0-.09.02-.16.06-.23.04-.06.13-.11.28-.17.44-.19,1.08-.54,1.92-1.07.38-.24.65-.36.81-.36.1,0,.2.05.28.15.05.07.08.14.08.22,0,.12-.09.33-.29.62-1.41,2.29-2.39,4.08-2.93,5.38-.13.32-.23.52-.29.59-.09.13-.19.2-.28.2s-.18-.06-.26-.17c-.05-.06-.07-.13-.07-.21,0-.26.38-1.13,1.13-2.61.7-1.39,1.28-2.4,1.74-3.02Z"/><path class="cls-4" d="M446.16,228.76c-.83.72-1.36,1.33-1.59,1.85.48-.2.9-.29,1.24-.29.4,0,.71.12.93.35.21.22.31.51.31.86,0,.81-.38,1.62-1.15,2.44-.76.82-1.5,1.22-2.23,1.22-.42,0-.75-.2-.98-.59-.15-.26-.23-.56-.23-.89s.07-.61.22-.83c.12-.18.28-.27.47-.27.18,0,.26.07.26.2,0,.03-.01.09-.04.17-.05.14-.07.33-.07.57,0,.21.05.39.15.55.13.22.31.33.53.33.44,0,.9-.28,1.38-.83.53-.61.79-1.21.79-1.81,0-.25-.06-.44-.17-.56-.11-.12-.28-.19-.51-.19s-.5.06-.82.18c-.07.02-.25.11-.54.26-.06.03-.11.05-.16.05-.09,0-.19-.06-.28-.18-.1-.13-.15-.25-.15-.36,0-.21.21-.59.64-1.16.27-.37.6-.74,1-1.11-.11-.15-.16-.26-.16-.34,0-.11.08-.19.23-.24.07-.02.35-.07.83-.13.54-.07.98-.11,1.32-.11s.55.02.7.07c.18.05.26.17.26.35,0,.22-.11.34-.34.34-.05,0-.15,0-.29-.01-.05,0-.1,0-.17,0-.23,0-.46.01-.69.03-.23.02-.45.05-.68.1Z"/><path class="cls-4" d="M612.82,256.82c.25.09.43.19.54.31.16.17.25.42.27.74.05.79-.25,1.58-.87,2.35-.63.77-1.29,1.17-2,1.21-.43.02-.8-.14-1.09-.48-.21-.25-.32-.53-.34-.85-.03-.52.16-.79.56-.81.24-.01.36.07.37.25,0,.04,0,.09,0,.15-.01.08-.01.17,0,.25.01.23.08.4.2.52.13.12.29.18.46.17.41-.02.84-.34,1.29-.95.42-.58.62-1.12.59-1.63-.01-.25-.09-.45-.22-.59-.14-.15-.33-.22-.56-.2-.09,0-.18.03-.28.06-.11.04-.2.06-.25.07-.14,0-.22-.08-.23-.27,0-.17.04-.31.14-.42.06-.07.19-.13.39-.2.4-.12.73-.29,1.01-.48.17-.13.31-.29.41-.49.05-.1.07-.21.06-.33,0-.14-.05-.24-.13-.31-.08-.06-.2-.09-.35-.08-.26.01-.53.1-.81.25-.07.04-.24.15-.5.33-.07.05-.15.08-.24.09-.17,0-.25-.08-.26-.26,0-.16.1-.34.34-.53.55-.44,1.09-.67,1.64-.7.33-.02.61.07.84.25.25.2.38.45.4.75.02.4-.13.77-.45,1.14-.17.21-.48.43-.91.68Z"/><path class="cls-4" d="M615.75,257.82c.15,0,.33-.01.53-.02.42,0,.69-.02.8-.02.28-.02.47,0,.57.06.09.05.14.16.15.31,0,.15-.03.26-.1.35-.05.05-.1.07-.17.08-.05,0-.13,0-.23,0-.18,0-.66,0-1.44.05-.47.03-.82.07-1.06.14-.11.03-.2.05-.25.05-.13,0-.24-.05-.31-.17-.04-.06-.06-.13-.06-.22-.01-.25.09-.41.33-.48.17-.05.59-.1,1.25-.14Z"/><path class="cls-4" d="M619.9,256.74c.39-.38.76-.57,1.09-.59.21-.01.38.06.52.23.13.14.2.32.21.52.02.38-.08.85-.29,1.4-.24.62-.61,1.2-1.11,1.74-.41.45-.81.69-1.21.71-.15,0-.28-.01-.4-.06-.12-.05-.23-.12-.33-.22-.03.07-.06.12-.07.14-.07.19-.12.3-.15.34-.03.04-.08.06-.15.07-.09,0-.17-.04-.26-.14-.06-.07-.09-.14-.09-.21,0-.14.23-.84.72-2.12.69-1.78,1.5-3.56,2.43-5.33.38-.73.61-1.15.7-1.28.09-.15.18-.23.27-.24.11,0,.21.04.29.15.06.07.09.14.09.24,0,.1-.03.23-.12.4-.02.04-.16.29-.42.78-.8,1.42-1.38,2.58-1.74,3.49ZM618.85,259.98c.08.04.16.06.24.06.42-.02.85-.42,1.28-1.18.2-.34.35-.68.46-1.02.1-.3.14-.52.13-.66,0-.1-.03-.17-.08-.21-.05-.04-.12-.06-.21-.06-.22.01-.49.18-.79.51-.3.32-.59.77-.86,1.36-.13.28-.24.54-.34.79l-.08.2c.08.09.16.16.24.21Z"/><path class="cls-4" d="M623.85,255.98c.08,0,.15.02.21.08.04.05.06.1.07.16,0,.09-.06.24-.19.45-.46.81-.79,1.48-.97,2-.2.54-.37,1.08-.52,1.64-.06.25-.18.38-.34.39-.1,0-.18-.03-.24-.1-.06-.06-.09-.13-.09-.2,0-.15.12-.64.38-1.49.21-.67.56-1.41,1.06-2.23.16-.27.28-.45.36-.54.08-.1.17-.15.26-.15ZM625.09,253.18c.22-.01.34.09.35.32.01.2-.08.44-.28.7-.19.25-.38.38-.57.39-.09,0-.17-.02-.23-.09-.06-.06-.1-.14-.1-.23-.01-.23.1-.49.34-.77.18-.21.34-.31.5-.32Z"/><path class="cls-4" d="M626.57,255.49c-.29.51-.55,1.08-.78,1.7-.33.89-.49,1.55-.47,1.98,0,.12.04.21.09.27.06.06.13.09.24.08.24-.01.53-.26.84-.74.2-.3.38-.59.54-.88.08-.17.18-.25.29-.26.06,0,.12.02.17.06.04.04.06.08.07.13.01.18-.2.6-.64,1.25-.52.78-1.02,1.19-1.49,1.21-.25.01-.46-.09-.64-.31-.11-.14-.17-.34-.19-.61-.03-.59.1-1.29.39-2.09.07-.2.27-.68.61-1.45-.13.04-.23.06-.3.07-.1,0-.19-.01-.27-.06-.11-.06-.17-.14-.18-.25,0-.12.06-.22.2-.3.04-.02.22-.06.54-.13.12-.03.28-.08.5-.17.15-.32.41-.75.76-1.3.2-.3.34-.5.41-.6.11-.13.21-.2.3-.2.06,0,.13.03.2.09.06.06.1.12.1.18,0,.13-.12.39-.37.78-.17.25-.29.46-.37.62.53-.18.92-.27,1.15-.29.27-.02.41.09.42.31,0,.11-.04.2-.12.26-.05.03-.17.06-.38.09-.08,0-.45.11-1.09.34-.18.06-.35.13-.52.2Z"/><path class="cls-1" d="M521.12,121.97c-1.46-6.41,4.38-18.91.21-33.35"/><path class="cls-4" d="M525.15,91.84c-.11.12-.3.13-.42.02l-3.39-3.1-1.38,4.38c-.05.16-.22.25-.38.2s-.25-.22-.2-.38l1.52-4.83c.03-.1.11-.17.21-.2.1-.03.2,0,.28.07l3.73,3.42s.07.09.09.14c.03.1,0,.2-.07.28Z"/><path class="cls-1" d="M519.02,135.07c-1.45,16.36,4.57,30.83,3.88,44.91"/><path class="cls-4" d="M520.15,175.78c.14-.08.33-.04.41.11l2.33,3.96,2.6-3.78c.09-.14.28-.17.42-.08s.17.28.08.42l-2.87,4.17c-.06.08-.16.13-.26.13-.1,0-.2-.06-.25-.15l-2.56-4.36c-.03-.05-.04-.11-.04-.16,0-.1.06-.19.15-.25Z"/><path class="cls-4" d="M556.29,209.52c.82-.26,1.57-.39,2.26-.39.27,0,.49.06.65.17.15.1.22.22.22.36,0,.09-.03.18-.1.25s-.15.11-.23.11c-.03,0-.07,0-.13-.02-.25-.07-.48-.1-.69-.1-.18,0-.4.02-.67.05-.09.01-.43.1-1.02.26-.53.14-.84.21-.94.21-.14,0-.26-.07-.36-.2-.09-.12-.14-.25-.14-.38,0-.15.13-.34.38-.59.48-.47.94-.89,1.38-1.27.42-.35.94-.76,1.56-1.22.71-.52,1.2-.9,1.46-1.14.4-.35.6-.7.6-1.05,0-.2-.06-.35-.19-.46-.11-.1-.25-.15-.42-.15-.44,0-.96.25-1.55.74-.27.22-.44.34-.51.34-.05,0-.1-.03-.17-.09-.07-.06-.1-.13-.1-.21,0-.18.21-.42.64-.75.68-.52,1.34-.78,1.96-.78.36,0,.65.11.89.34.23.22.34.49.34.8,0,.55-.28,1.09-.83,1.63-.24.23-.68.59-1.32,1.05-1.54,1.12-2.53,1.95-2.97,2.48Z"/><path class="cls-4" d="M562.45,207.08c.15,0,.33,0,.53.01.42.01.69.02.8.02.28,0,.47.03.56.1.09.06.13.17.13.32,0,.15-.04.26-.12.34-.05.04-.11.07-.18.07-.05,0-.13,0-.23-.01-.18-.02-.66-.03-1.44-.03-.47,0-.83.03-1.06.08-.11.02-.2.04-.26.04-.13,0-.23-.06-.3-.19-.03-.06-.05-.14-.05-.22,0-.25.12-.41.35-.46.18-.04.6-.07,1.26-.07Z"/><path class="cls-4" d="M566.65,206.25c.42-.35.79-.53,1.12-.53.21,0,.37.09.51.26.12.15.18.33.18.53,0,.38-.12.84-.37,1.38-.28.6-.68,1.16-1.21,1.68-.43.43-.85.64-1.25.64-.15,0-.28-.03-.4-.08s-.23-.13-.32-.24c-.04.07-.06.11-.07.13-.08.18-.14.29-.17.33s-.08.06-.15.06c-.09,0-.17-.05-.25-.15-.05-.07-.08-.14-.08-.22,0-.14.28-.83.84-2.07.79-1.74,1.7-3.47,2.73-5.19.42-.7.68-1.12.77-1.24.1-.15.2-.22.29-.22.11,0,.2.05.29.16.05.07.08.15.08.24,0,.1-.05.23-.14.39-.02.03-.17.29-.46.75-.88,1.37-1.53,2.5-1.93,3.38ZM565.42,209.42c.08.05.16.07.24.07.43,0,.88-.37,1.35-1.11.22-.33.39-.66.52-.99.11-.29.17-.51.17-.65,0-.1-.02-.17-.07-.22-.04-.05-.11-.07-.21-.07-.22,0-.5.15-.81.46-.32.3-.63.74-.94,1.31-.15.27-.27.53-.38.77l-.1.2c.07.1.15.17.22.22Z"/><path class="cls-4" d="M570.64,205.71c.08,0,.15.03.21.1.04.05.06.11.06.16,0,.09-.07.23-.21.44-.51.79-.87,1.43-1.08,1.94-.23.52-.43,1.06-.61,1.61-.08.24-.2.37-.37.37-.1,0-.18-.04-.23-.12-.05-.06-.08-.13-.08-.21,0-.15.16-.63.47-1.46.24-.65.64-1.38,1.19-2.17.18-.26.31-.43.39-.52.09-.09.18-.14.27-.14ZM572.03,202.99c.22,0,.33.11.33.34,0,.21-.11.43-.32.68-.21.24-.4.36-.59.36-.09,0-.17-.03-.23-.1-.06-.06-.09-.14-.09-.23,0-.23.13-.48.39-.75.19-.2.36-.29.51-.29Z"/><path class="cls-4" d="M573.38,205.38c-.32.49-.61,1.04-.88,1.66-.39.87-.58,1.52-.58,1.95,0,.12.03.21.08.28.05.06.13.1.23.1.24,0,.54-.23.89-.69.22-.28.42-.57.59-.85.09-.16.19-.24.3-.24.06,0,.12.02.16.07.04.04.06.09.06.13,0,.18-.24.58-.71,1.21-.57.75-1.08,1.13-1.55,1.13-.25,0-.46-.11-.62-.34-.1-.15-.15-.35-.15-.62,0-.59.17-1.28.51-2.07.08-.2.31-.67.69-1.41-.13.03-.23.05-.3.05-.1,0-.19-.02-.27-.07-.11-.07-.16-.15-.16-.26,0-.12.07-.22.21-.29.04-.02.22-.05.54-.1.12-.02.29-.07.51-.14.17-.31.45-.73.84-1.25.21-.29.36-.48.45-.57.12-.12.22-.18.31-.18.06,0,.13.03.19.1.06.06.09.13.09.19,0,.13-.14.38-.41.75-.18.24-.32.44-.4.59.54-.15.93-.22,1.17-.22.27,0,.4.11.4.34,0,.11-.05.2-.14.25-.05.03-.18.05-.38.07-.08,0-.45.09-1.11.28-.18.05-.36.11-.53.17Z"/><path class="cls-1" d="M564.56,201.08c-1.45-6.36,1.45-5.65.8-15.33"/><path class="cls-4" d="M568.39,189.72c-.14.1-.32.06-.42-.07l-2.63-3.76-2.29,3.98c-.08.14-.27.19-.41.11-.14-.08-.19-.27-.11-.41l2.53-4.38c.05-.09.14-.15.25-.15.1,0,.2.04.26.13l2.9,4.15s.05.1.05.16c0,.1-.04.2-.13.26Z"/><path class="cls-1" d="M563.79,214.19c-1.82,6.36,1.43,8.05,1.52,15.58"/><path class="cls-4" d="M562.24,225.78c.14-.09.32-.06.42.08l2.61,3.77,2.31-3.96c.08-.14.27-.19.41-.11.14.08.19.27.11.41l-2.55,4.37c-.05.09-.15.14-.25.15-.1,0-.2-.04-.26-.13l-2.88-4.16s-.05-.1-.05-.16c0-.1.04-.2.13-.26Z"/><path class="cls-1" d="M616.64,251.95c-1.45-6.36-.07-7.62-.79-17.41"/><path class="cls-4" d="M618.89,238.51c-.14.1-.32.06-.42-.07l-2.63-3.76-2.29,3.98c-.08.14-.27.19-.41.11-.14-.08-.19-.27-.11-.41l2.53-4.38c.05-.09.14-.15.25-.15s.2.04.26.13l2.9,4.14s.05.1.05.16c0,.1-.04.2-.13.26Z"/><path class="cls-1" d="M617.27,262.98c2.81,6.27.18,8.58,1.39,15.59"/><path class="cls-4" d="M615.24,274.93c.12-.11.31-.09.42.03l3,3.47,1.88-4.19c.07-.15.25-.22.4-.15.15.07.22.25.15.4l-2.07,4.62c-.04.09-.13.16-.23.17-.1.01-.2-.02-.27-.1l-3.31-3.83s-.06-.1-.07-.15c-.01-.1.02-.2.1-.27Z"/><path class="cls-4" d="M444.14,277.45c.26.1.46.27.59.49.13.23.19.52.19.87,0,1.09-.42,2.25-1.27,3.47-.92,1.33-1.81,2-2.65,2-.42,0-.74-.22-.95-.65-.14-.28-.21-.62-.21-1.03,0-.97.35-1.99,1.06-3.06.37-.55.86-1.12,1.49-1.71.65-.61,1.13-.91,1.41-.91.22,0,.33.17.33.52ZM443.19,277.98c-.57.47-1.08,1.04-1.52,1.71-.63.97-.95,1.9-.95,2.81,0,.27.04.48.11.63.12.23.29.35.5.35.34,0,.74-.26,1.21-.78.52-.58.93-1.28,1.23-2.11.23-.63.34-1.16.34-1.6,0-.3-.09-.56-.28-.78-.13-.15-.29-.23-.5-.24h-.15Z"/><path class="cls-1" d="M540.6,45.28c-9.76,14.11,11.99,19.35,11.84,33.11"/><path class="cls-4" d="M549.61,74.25c.14-.09.33-.04.41.1l2.4,3.91,2.53-3.83c.09-.14.28-.18.42-.09.14.09.18.28.09.42l-2.79,4.23c-.06.09-.15.14-.26.13-.1,0-.2-.06-.25-.14l-2.65-4.31c-.03-.05-.05-.11-.04-.16,0-.1.05-.2.14-.25Z"/></svg>