<?xml version="1.0" encoding="UTF-8"?><svg id="Layer_1" xmlns="http://www.w3.org/2000/svg" viewBox="0 0 376.53 213.78"><defs><style>.cls-1{stroke:#4d4d4d;}.cls-1,.cls-2{fill:none;stroke-linecap:round;stroke-miterlimit:10;}.cls-3{fill:#4d4d4d;}.cls-2{stroke:#ccc;}</style></defs><line class="cls-2" x1="43.53" y1="72.5" x2="43.53" y2="175.61"/><line class="cls-2" x1="48.54" y1="72.5" x2="48.54" y2="175.61"/><line class="cls-2" x1="53.68" y1="72.5" x2="53.68" y2="175.61"/><line class="cls-2" x1="58.8" y1="72.5" x2="58.8" y2="175.61"/><line class="cls-2" x1="68.92" y1="72.5" x2="68.92" y2="175.61"/><line class="cls-2" x1="63.77" y1="72.5" x2="63.77" y2="175.61"/><line class="cls-2" x1="38.39" y1="72.5" x2="38.39" y2="175.61"/><line class="cls-2" x1="99.36" y1="72.5" x2="99.36" y2="175.61"/><line class="cls-2" x1="89.14" y1="72.5" x2="89.14" y2="175.61"/><line class="cls-2" x1="109.44" y1="72.5" x2="109.44" y2="175.61"/><line class="cls-2" x1="84.07" y1="72.5" x2="84.07" y2="175.61"/><line class="cls-2" x1="104.43" y1="72.5" x2="104.43" y2="175.61"/><line class="cls-2" x1="78.99" y1="72.5" x2="78.99" y2="175.61"/><line class="cls-2" x1="73.99" y1="72.5" x2="73.99" y2="175.61"/><line class="cls-2" x1="114.57" y1="72.5" x2="114.57" y2="175.61"/><line class="cls-2" x1="134.89" y1="72.5" x2="134.89" y2="175.61"/><line class="cls-2" x1="129.74" y1="72.5" x2="129.74" y2="175.61"/><line class="cls-2" x1="119.75" y1="72.5" x2="119.75" y2="175.61"/><line class="cls-2" x1="145.01" y1="72.5" x2="145.01" y2="175.61"/><line class="cls-2" x1="124.67" y1="72.5" x2="124.67" y2="175.61"/><line class="cls-2" x1="94.22" y1="72.5" x2="94.22" y2="175.61"/><line class="cls-2" x1="139.89" y1="72.5" x2="139.89" y2="175.61"/><line class="cls-2" x1="155.12" y1="72.5" x2="155.12" y2="175.61"/><line class="cls-2" x1="170.35" y1="72.5" x2="170.35" y2="175.61"/><line class="cls-2" x1="185.64" y1="72.5" x2="185.64" y2="175.61"/><line class="cls-2" x1="180.5" y1="72.5" x2="180.5" y2="175.61"/><line class="cls-2" x1="175.42" y1="72.5" x2="175.42" y2="175.61"/><line class="cls-2" x1="150.14" y1="72.5" x2="150.14" y2="175.61"/><line class="cls-2" x1="165.32" y1="72.5" x2="165.32" y2="175.61"/><line class="cls-2" x1="160.27" y1="72.5" x2="160.27" y2="175.61"/><line class="cls-2" x1="195.72" y1="72.5" x2="195.72" y2="175.61"/><line class="cls-2" x1="200.86" y1="72.5" x2="200.86" y2="175.61"/><line class="cls-2" x1="205.94" y1="72.5" x2="205.94" y2="175.61"/><line class="cls-2" x1="211" y1="72.5" x2="211" y2="175.61"/><line class="cls-2" x1="221.16" y1="72.5" x2="221.16" y2="175.61"/><line class="cls-2" x1="216.02" y1="72.5" x2="216.02" y2="175.61"/><line class="cls-2" x1="190.76" y1="72.5" x2="190.76" y2="175.61"/><line class="cls-2" x1="251.55" y1="72.5" x2="251.55" y2="175.61"/><line class="cls-2" x1="241.4" y1="72.5" x2="241.4" y2="175.61"/><line class="cls-2" x1="261.76" y1="72.5" x2="261.76" y2="175.61"/><line class="cls-2" x1="236.39" y1="72.44" x2="236.39" y2="175.54"/><line class="cls-2" x1="256.69" y1="72.5" x2="256.69" y2="175.61"/><line class="cls-2" x1="231.25" y1="72.5" x2="231.25" y2="175.61"/><line class="cls-2" x1="226.17" y1="72.5" x2="226.17" y2="175.61"/><line class="cls-2" x1="266.77" y1="72.5" x2="266.77" y2="175.61"/><line class="cls-2" x1="287.13" y1="72.44" x2="287.13" y2="175.55"/><line class="cls-2" x1="282.23" y1="72.5" x2="282.23" y2="175.61"/><line class="cls-2" x1="271.85" y1="72.5" x2="271.85" y2="175.61"/><line class="cls-2" x1="297.3" y1="72.5" x2="297.3" y2="175.61"/><line class="cls-2" x1="276.99" y1="72.5" x2="276.99" y2="175.61"/><line class="cls-2" x1="246.54" y1="72.5" x2="246.54" y2="175.61"/><line class="cls-2" x1="292.15" y1="72.5" x2="292.15" y2="175.61"/><line class="cls-2" x1="307.44" y1="72.5" x2="307.44" y2="175.61"/><line class="cls-2" x1="322.66" y1="72.44" x2="322.66" y2="175.55"/><line class="cls-2" x1="337.83" y1="72.5" x2="337.83" y2="175.61"/><line class="cls-2" x1="332.75" y1="72.5" x2="332.75" y2="175.61"/><line class="cls-2" x1="327.68" y1="72.5" x2="327.68" y2="175.61"/><line class="cls-2" x1="302.37" y1="72.43" x2="302.37" y2="175.53"/><line class="cls-2" x1="317.58" y1="72.5" x2="317.58" y2="175.61"/><line class="cls-2" x1="312.45" y1="72.5" x2="312.45" y2="175.61"/><line class="cls-2" x1="342.9" y1="72.5" x2="342.9" y2="175.61"/><line class="cls-2" x1="347.98" y1="72.5" x2="347.98" y2="175.61"/><line class="cls-2" x1="33.38" y1="72.5" x2="33.38" y2="175.61"/><path class="cls-3" d="M255.69,40.43c-1.33.18-2.26.25-2.79.21-.36-.03-.52-.16-.5-.39,0-.12.06-.21.14-.29.08-.08.18-.11.28-.1.04,0,.11.01.2.03.06.02.13.03.22.03.3.02.7.02,1.21-.02.64-.05,1.11-.1,1.42-.16.17-.03.32-.04.43-.03.26.02.38.17.36.46-.02.19-.15.4-.39.62-1.82,1.66-3.27,3.32-4.36,4.98-.26.4-.43.64-.5.71-.13.13-.26.19-.39.18-.07,0-.13-.04-.18-.1-.06-.07-.09-.14-.08-.22.02-.25.3-.74.83-1.48.7-.97,1.54-1.94,2.51-2.92.58-.59,1.11-1.09,1.61-1.51Z"/><path class="cls-3" d="M255.93,46.04c.84-.19,1.6-.26,2.29-.21.27.02.48.09.64.22.14.11.2.23.19.38,0,.09-.05.17-.12.24-.07.07-.15.1-.24.09-.03,0-.07-.01-.13-.03-.25-.09-.47-.14-.68-.16-.18-.01-.4-.01-.67,0-.09,0-.44.07-1.04.18-.54.1-.85.14-.95.14-.14-.01-.25-.09-.34-.23-.08-.13-.12-.26-.11-.39.01-.15.15-.33.43-.56.51-.43,1.01-.81,1.48-1.15.45-.32,1-.68,1.65-1.09.75-.46,1.26-.8,1.55-1.02.43-.32.66-.65.68-1,.02-.19-.03-.35-.15-.47-.1-.11-.24-.17-.41-.18-.44-.04-.97.17-1.61.61-.29.2-.47.3-.54.29-.05,0-.1-.04-.16-.1-.06-.06-.09-.14-.08-.22.01-.17.25-.41.69-.69.72-.46,1.39-.67,2.01-.62.35.03.64.17.86.42.21.24.3.51.28.82-.04.54-.36,1.06-.96,1.55-.26.21-.72.53-1.4.95-1.62,1-2.68,1.74-3.16,2.24Z"/><path class="cls-3" d="M264.29,44.47c-.06.12-.23.41-.5.88-.46.9-.74,1.49-.85,1.77-.06.16-.12.27-.19.33-.06.06-.15.08-.27.07-.12,0-.22-.06-.28-.15-.06-.08-.09-.18-.08-.28.03-.37.43-1.22,1.19-2.58-.72.02-1.28.1-1.7.24-.14.04-.25.06-.33.05-.19-.02-.28-.18-.25-.48.01-.18.1-.35.25-.51.3-.29.8-.74,1.5-1.33.86-.72,1.64-1.3,2.32-1.74.59-.38,1.01-.56,1.26-.54.11,0,.21.06.3.16.07.08.1.17.09.26,0,.12-.1.29-.26.52-.03.04-.21.29-.54.74-.42.58-.83,1.19-1.21,1.83.34,0,.57.02.68.03.29.02.42.14.4.36-.02.19-.1.32-.27.39-.07.03-.28.03-.62,0-.1,0-.31-.02-.64-.03ZM263.79,43.75c.61-.99,1.19-1.81,1.72-2.47-.53.25-1.19.69-1.97,1.34-.56.47-1.02.89-1.36,1.25.72-.09,1.25-.13,1.61-.12Z"/><path class="cls-3" d="M266.15,46.86c.84-.19,1.6-.26,2.29-.21.27.02.48.09.64.22.14.11.2.23.19.38,0,.09-.05.17-.12.24-.07.07-.15.1-.24.09-.03,0-.07-.01-.13-.03-.25-.09-.47-.14-.68-.16-.18-.01-.4-.02-.67,0-.09,0-.44.07-1.04.18-.54.1-.85.15-.95.14-.14-.01-.25-.09-.34-.23-.08-.13-.12-.26-.11-.39.01-.15.15-.33.43-.56.51-.43,1.01-.81,1.48-1.15.45-.32,1-.68,1.65-1.09.75-.46,1.26-.8,1.55-1.02.43-.32.66-.65.68-1,.02-.19-.04-.35-.15-.47-.1-.11-.24-.17-.41-.18-.44-.04-.97.17-1.61.61-.29.2-.47.3-.54.29-.05,0-.1-.04-.16-.1-.06-.06-.09-.14-.09-.22.01-.17.25-.41.69-.69.72-.46,1.39-.67,2.01-.62.36.03.64.17.86.42.21.24.3.51.28.82-.04.54-.36,1.06-.96,1.55-.26.21-.72.53-1.4.95-1.62,1-2.68,1.74-3.16,2.24Z"/><path class="cls-3" d="M274.52,45.29c-.06.12-.23.41-.5.88-.46.9-.74,1.49-.85,1.77-.06.16-.12.27-.19.33-.06.06-.15.08-.27.07-.12,0-.21-.06-.28-.15-.06-.08-.09-.18-.08-.28.03-.37.43-1.22,1.19-2.58-.72.02-1.28.1-1.7.24-.14.04-.24.06-.33.05-.19-.02-.28-.18-.25-.48.01-.18.1-.35.25-.51.3-.29.8-.74,1.5-1.33.86-.72,1.64-1.3,2.32-1.74.59-.38,1.01-.56,1.26-.54.11,0,.21.06.3.16.07.08.1.17.09.26,0,.12-.1.29-.26.52-.03.04-.21.29-.54.74-.42.58-.83,1.19-1.21,1.83.34,0,.57.02.68.03.29.02.42.14.4.36-.02.19-.1.32-.27.39-.07.03-.28.03-.62,0-.1,0-.31-.02-.64-.03ZM274.01,44.57c.61-.99,1.19-1.81,1.72-2.47-.53.25-1.19.69-1.97,1.34-.56.47-1.02.89-1.36,1.25.72-.09,1.25-.13,1.61-.12Z"/><path class="cls-3" d="M276.37,47.69c.84-.19,1.6-.26,2.29-.21.27.02.48.09.64.22.14.11.2.23.19.38,0,.09-.05.17-.12.24-.07.07-.15.1-.24.09-.03,0-.07-.01-.13-.03-.25-.09-.47-.14-.68-.16-.18-.01-.4-.02-.67,0-.09,0-.44.07-1.04.18-.54.1-.85.14-.95.14-.14-.01-.25-.09-.34-.23-.08-.13-.12-.26-.11-.39.01-.15.15-.33.43-.56.51-.43,1.01-.81,1.48-1.15.45-.32,1-.68,1.65-1.09.75-.46,1.26-.8,1.55-1.02.43-.32.66-.65.68-1,.02-.19-.04-.35-.15-.47-.1-.11-.24-.17-.41-.18-.44-.04-.97.17-1.61.61-.29.2-.47.3-.54.29-.05,0-.1-.04-.16-.1-.06-.06-.09-.14-.08-.22.01-.17.25-.41.69-.69.72-.46,1.39-.67,2.01-.62.36.03.64.17.86.41.21.24.3.51.28.82-.04.54-.36,1.06-.96,1.55-.26.21-.72.53-1.4.95-1.62,1-2.68,1.74-3.16,2.24Z"/><path class="cls-3" d="M284.94,45.94c-.7.28-1.25.4-1.64.37-.38-.03-.67-.22-.86-.55-.14-.24-.2-.52-.18-.84.07-.84.5-1.61,1.31-2.32.73-.65,1.46-.94,2.17-.88.41.03.73.2.95.51.19.27.28.59.25.98-.07.84-.45,1.77-1.13,2.78-.37.55-.94,1.18-1.7,1.89-.85.8-1.39,1.2-1.64,1.18-.07,0-.13-.04-.18-.1-.04-.06-.06-.12-.06-.18,0-.12.12-.25.33-.4.97-.69,1.76-1.49,2.37-2.42ZM285.44,45.11c.4-.67.61-1.24.65-1.7.03-.33-.01-.58-.12-.76-.11-.17-.28-.27-.52-.29-.5-.04-1.01.21-1.54.75-.52.53-.8,1.08-.84,1.64-.02.25.02.45.13.58.11.14.28.21.52.23.32.03.71-.04,1.16-.2.34-.13.53-.22.56-.26Z"/><path class="cls-3" d="M291.16,42.9c.25.12.44.3.55.54.11.24.15.53.12.88-.09,1.08-.6,2.2-1.55,3.36-1.03,1.25-1.96,1.85-2.8,1.78-.42-.03-.71-.28-.89-.73-.11-.29-.15-.64-.12-1.04.08-.96.51-1.95,1.3-2.97.41-.52.95-1.05,1.62-1.58.7-.55,1.19-.82,1.48-.79.22.02.31.2.29.54ZM290.17,43.35c-.61.42-1.16.95-1.65,1.59-.71.91-1.09,1.82-1.17,2.72-.02.27,0,.48.06.64.1.24.26.37.48.39.34.03.76-.2,1.27-.68.57-.53,1.03-1.2,1.4-2,.28-.61.44-1.13.47-1.56.02-.3-.05-.57-.21-.8-.11-.16-.28-.25-.48-.28-.05,0-.1,0-.15-.01Z"/><path class="cls-3" d="M296.58,43.72c-1.33.18-2.26.25-2.79.21-.35-.03-.52-.16-.5-.39,0-.12.06-.21.14-.29s.18-.11.28-.1c.04,0,.11.01.2.03.06.01.13.03.22.03.3.02.7.02,1.21-.02.64-.05,1.11-.1,1.42-.16.17-.03.32-.04.43-.03.26.02.38.17.36.46-.02.19-.14.4-.39.62-1.82,1.66-3.27,3.32-4.36,4.98-.26.4-.43.64-.5.71-.13.13-.26.19-.39.18-.07,0-.13-.04-.18-.09-.06-.07-.09-.14-.08-.22.02-.25.3-.74.83-1.48.71-.97,1.54-1.94,2.51-2.92.58-.59,1.11-1.09,1.61-1.51Z"/><path class="cls-3" d="M300.39,46.01c.23.12.4.25.49.38.14.19.19.45.17.77-.06.79-.46,1.53-1.18,2.21-.73.68-1.44.99-2.15.93-.43-.04-.77-.24-1.02-.63-.17-.27-.25-.57-.22-.88.04-.52.26-.76.66-.73.24.02.35.12.34.3,0,.04-.01.09-.03.15-.02.08-.04.16-.04.25-.02.23.02.41.13.54.12.14.26.22.43.23.41.03.88-.22,1.41-.76.5-.52.77-1.03.81-1.53.02-.25-.02-.46-.13-.61-.12-.17-.29-.26-.53-.28-.09,0-.19,0-.28.02-.11.03-.2.04-.26.03-.14-.01-.2-.11-.19-.3.01-.17.08-.3.2-.4.07-.06.21-.11.42-.14.41-.07.77-.18,1.06-.34.19-.1.35-.25.47-.43.06-.1.1-.2.11-.31.01-.14-.02-.25-.09-.32-.07-.08-.18-.12-.34-.13-.26-.02-.54.03-.83.14-.08.03-.26.11-.54.26-.08.04-.16.06-.25.05-.17-.01-.24-.11-.23-.29.01-.16.15-.32.41-.47.6-.36,1.18-.51,1.72-.47.33.03.59.15.8.37.22.23.32.5.3.79-.03.39-.23.75-.6,1.07-.2.18-.53.36-.99.54Z"/><path class="cls-3" d="M303.72,46.51c.75-.21,1.29-.3,1.62-.27.4.03.69.17.86.42.15.21.22.48.19.8-.07.83-.5,1.61-1.31,2.34-.74.68-1.46.99-2.17.94-.45-.04-.79-.26-1.04-.67-.19-.32-.27-.68-.24-1.08.07-.87.48-1.73,1.22-2.6.64-.75,1.53-1.42,2.66-2.01.34-.18.59-.3.75-.37.15-.06.29-.09.41-.08.19.01.27.1.26.26-.01.15-.12.26-.32.36-1.06.46-2.02,1.11-2.91,1.96ZM303.05,47.36c-.34.47-.53.94-.57,1.42-.03.32.03.59.15.84.13.25.32.38.56.4.34.03.7-.1,1.08-.4.38-.29.71-.7.97-1.23.17-.33.26-.62.28-.87.02-.18-.03-.34-.13-.46-.11-.14-.27-.21-.47-.23-.33-.03-.73.05-1.22.23-.13.04-.28.11-.45.19-.13.06-.2.1-.21.12Z"/><path class="cls-3" d="M310.95,45.18c-.36.23-.72.42-1.07.58-.48.21-.8.31-.94.3-.16-.01-.22-.14-.2-.39,0-.09.03-.16.08-.22.04-.05.14-.1.29-.15.45-.15,1.12-.45,2-.91.4-.21.68-.31.83-.29.1,0,.19.07.27.18.05.07.07.15.06.22,0,.12-.12.32-.33.6-1.59,2.17-2.71,3.88-3.35,5.13-.16.31-.27.5-.33.57-.1.12-.2.18-.29.18-.09,0-.18-.07-.25-.19-.04-.07-.06-.14-.06-.21.02-.26.47-1.1,1.33-2.51.81-1.33,1.47-2.28,1.98-2.88Z"/><path class="cls-3" d="M312.15,50.56c.84-.19,1.6-.26,2.29-.21.27.02.48.09.64.22.14.11.2.23.19.38,0,.09-.05.17-.12.24-.07.07-.15.1-.24.09-.03,0-.07-.01-.13-.03-.25-.09-.47-.14-.68-.16-.18-.01-.4-.02-.67,0-.09,0-.44.07-1.04.18-.54.1-.85.14-.95.14-.14-.01-.25-.09-.34-.23-.08-.13-.12-.26-.11-.39.01-.15.15-.33.43-.56.51-.43,1.01-.81,1.48-1.15.45-.32,1-.68,1.65-1.09.75-.46,1.26-.8,1.55-1.02.43-.32.66-.65.68-1,.02-.19-.04-.35-.15-.48-.1-.11-.24-.17-.41-.18-.44-.04-.97.17-1.61.61-.29.2-.47.3-.54.29-.05,0-.1-.04-.16-.1-.06-.06-.09-.14-.08-.22.01-.17.25-.41.69-.69.72-.46,1.39-.67,2.01-.62.36.03.64.17.86.41.21.24.3.51.28.82-.04.54-.36,1.06-.96,1.55-.26.21-.72.53-1.4.95-1.62,1-2.68,1.74-3.16,2.24Z"/><path class="cls-3" d="M321.82,45.36c.25.12.44.3.55.54.11.24.15.53.12.88-.09,1.09-.6,2.21-1.55,3.36-1.03,1.25-1.96,1.85-2.8,1.78-.42-.03-.72-.28-.89-.73-.11-.29-.15-.64-.12-1.04.08-.96.51-1.95,1.3-2.97.41-.52.95-1.05,1.62-1.58.7-.55,1.19-.81,1.48-.79.22.02.31.2.29.54ZM320.83,45.81c-.61.42-1.16.95-1.65,1.59-.71.91-1.09,1.82-1.17,2.72-.02.27,0,.48.06.64.1.24.26.37.48.39.34.03.76-.2,1.27-.68.57-.53,1.03-1.2,1.4-2,.28-.61.44-1.13.47-1.56.02-.3-.05-.57-.21-.8-.11-.16-.28-.25-.48-.28-.05,0-.1,0-.15-.01Z"/><path class="cls-3" d="M326.08,46.13c-.88.65-1.46,1.22-1.73,1.71.5-.16.92-.22,1.26-.19.39.03.69.17.9.42.19.24.27.53.25.88-.06.8-.51,1.58-1.34,2.34-.82.75-1.59,1.1-2.32,1.04-.42-.03-.73-.25-.93-.66-.13-.28-.18-.58-.15-.91.03-.34.12-.61.29-.81.14-.17.3-.25.49-.23.18.01.26.09.25.22,0,.03-.02.08-.06.17-.06.14-.1.33-.12.56-.02.21.02.4.1.56.11.23.28.35.51.37.44.04.92-.2,1.44-.71.57-.56.89-1.14.93-1.74.02-.25-.02-.44-.12-.57-.1-.13-.27-.21-.5-.23-.22-.02-.5.02-.83.11-.08.02-.26.09-.55.22-.06.03-.12.04-.17.04-.09,0-.18-.07-.26-.2-.09-.14-.13-.26-.12-.37.02-.2.26-.57.73-1.11.3-.34.66-.69,1.08-1.03-.09-.16-.14-.27-.13-.35,0-.11.09-.19.25-.22.07-.02.35-.04.84-.07.55-.03.99-.03,1.32,0,.32.03.55.07.69.12.17.06.25.19.23.37-.02.22-.14.33-.36.31-.05,0-.15-.02-.29-.04-.05,0-.1-.02-.17-.02-.23-.02-.46-.03-.69-.02-.23,0-.46.02-.68.04Z"/><path class="cls-3" d="M331.19,46.54c-.88.65-1.46,1.22-1.73,1.71.5-.16.92-.22,1.26-.19.39.03.69.17.9.42.19.24.27.53.25.88-.06.8-.51,1.58-1.34,2.34-.82.75-1.59,1.1-2.32,1.04-.42-.03-.73-.25-.93-.66-.13-.28-.18-.58-.16-.91.03-.33.12-.6.29-.81.14-.17.3-.25.49-.23.17.01.26.09.25.22,0,.03-.02.08-.06.16-.06.14-.1.33-.12.56-.02.21.02.4.1.56.11.23.28.35.51.37.44.04.92-.2,1.44-.72.57-.56.89-1.14.93-1.74.02-.25-.02-.44-.12-.57-.1-.13-.27-.21-.5-.23-.22-.02-.5.02-.83.11-.08.02-.26.09-.55.22-.06.03-.12.04-.17.04-.09,0-.18-.07-.26-.2-.09-.14-.13-.26-.12-.37.02-.2.26-.57.73-1.11.3-.34.66-.69,1.08-1.03-.09-.15-.14-.27-.13-.35,0-.11.09-.19.25-.22.08-.02.35-.04.84-.06.55-.03.99-.03,1.32,0,.32.03.55.07.69.12.17.06.25.19.24.37-.02.22-.14.33-.36.31-.05,0-.15-.02-.29-.04-.05,0-.1-.02-.17-.02-.23-.02-.46-.03-.69-.02-.23,0-.46.02-.68.04Z"/><path class="cls-3" d="M336.05,50.05c-.7.28-1.25.4-1.64.37-.38-.03-.67-.22-.86-.55-.14-.24-.2-.52-.17-.84.07-.84.5-1.61,1.31-2.32.73-.65,1.46-.94,2.17-.88.41.03.73.2.95.51.19.27.28.59.24.98-.07.84-.45,1.77-1.13,2.78-.37.55-.94,1.18-1.69,1.89-.85.8-1.39,1.2-1.64,1.18-.07,0-.13-.04-.18-.1-.04-.06-.06-.12-.06-.18,0-.12.12-.25.33-.4.97-.69,1.76-1.49,2.37-2.42ZM336.55,49.22c.4-.67.61-1.24.65-1.7.03-.33-.01-.58-.12-.76-.11-.17-.28-.27-.52-.29-.5-.04-1.01.21-1.54.75-.52.53-.8,1.08-.84,1.64-.02.25.02.45.13.58.11.14.28.21.52.23.32.03.71-.04,1.16-.2.34-.13.53-.22.56-.26Z"/><path class="cls-3" d="M341.16,50.46c-.7.28-1.25.4-1.64.37-.38-.03-.67-.22-.86-.55-.14-.24-.2-.52-.17-.84.07-.84.5-1.61,1.31-2.32.73-.65,1.46-.94,2.17-.88.41.03.73.2.95.51.19.26.28.59.25.97-.07.84-.45,1.77-1.13,2.78-.37.55-.94,1.18-1.7,1.89-.85.8-1.39,1.2-1.64,1.18-.07,0-.13-.04-.18-.1-.04-.06-.06-.12-.06-.18,0-.12.12-.25.33-.4.97-.69,1.76-1.49,2.37-2.42ZM341.66,49.63c.4-.67.61-1.24.65-1.7.03-.33-.01-.58-.12-.76-.11-.18-.28-.27-.52-.29-.5-.04-1.01.21-1.54.75-.52.53-.8,1.08-.85,1.64-.02.25.02.45.13.58.11.14.28.21.52.23.32.03.71-.04,1.15-.2.34-.13.53-.22.56-.26Z"/><path class="cls-3" d="M345.35,49.49c-.2-.23-.33-.41-.41-.55-.12-.21-.16-.44-.15-.67.04-.51.33-.91.87-1.22.46-.26.95-.37,1.47-.33.38.03.67.17.87.42.18.22.26.47.23.76-.03.43-.28.82-.72,1.15-.24.18-.57.39-1,.62.23.27.4.54.51.79.11.26.15.5.13.73-.04.46-.23.9-.57,1.32-.37.46-.82.81-1.36,1.07-.54.26-1.08.37-1.61.33-.46-.04-.82-.23-1.09-.59-.2-.27-.29-.55-.26-.85.06-.79.61-1.52,1.65-2.19.54-.35,1.02-.62,1.44-.8ZM345.81,50.03c-.61.25-1.13.55-1.56.89-.61.48-.93.96-.97,1.45-.02.28.05.49.21.63.17.14.35.21.55.23.27.02.57-.04.88-.18.31-.14.58-.34.82-.6.34-.37.53-.78.57-1.21.02-.3-.05-.59-.21-.86-.04-.06-.1-.14-.18-.24-.06-.07-.1-.11-.1-.11ZM346.08,49.11c.3-.14.57-.3.79-.48.28-.24.43-.47.45-.7.01-.15-.02-.27-.11-.38-.09-.12-.22-.19-.39-.21-.28-.02-.55.06-.81.24-.22.15-.34.34-.36.57-.01.16.06.37.22.63l.21.33Z"/><path class="cls-3" d="M29.47,184.14c.26.1.46.27.59.49.13.23.19.52.19.87,0,1.09-.42,2.25-1.27,3.47-.92,1.33-1.81,2-2.65,2-.42,0-.73-.22-.94-.65-.14-.28-.21-.62-.21-1.03,0-.97.35-1.99,1.06-3.06.37-.55.86-1.12,1.49-1.71.65-.61,1.13-.91,1.41-.91.22,0,.33.17.33.52ZM28.52,184.66c-.57.47-1.08,1.04-1.52,1.71-.63.97-.94,1.9-.94,2.81,0,.27.04.48.11.63.12.23.29.35.51.35.34,0,.74-.26,1.21-.78.52-.58.93-1.28,1.23-2.11.23-.63.34-1.16.34-1.6,0-.3-.09-.56-.28-.78-.13-.15-.3-.23-.51-.24h-.15Z"/><path class="cls-3" d="M353.17,69.72h0s-324.81,0-324.81,0c-.28,0-.5.22-.5.5v107.85c0,.28.22.5.5.5h0s324.81,0,324.81,0c.28,0,.5-.22.5-.5v-107.85c0-.28-.22-.5-.5-.5ZM28.85,175.57v-102.86h323.81v102.86H28.85Z"/><path class="cls-3" d="M349.15,186.73c.73-.27,1.26-.4,1.6-.4.4,0,.7.12.89.34.17.2.26.46.26.78,0,.83-.37,1.64-1.11,2.44-.68.74-1.38,1.11-2.09,1.11-.45,0-.81-.2-1.09-.59-.21-.3-.32-.65-.32-1.05,0-.87.34-1.77,1.01-2.69.58-.8,1.41-1.54,2.49-2.21.32-.21.56-.35.72-.42.15-.07.28-.11.4-.11.19,0,.28.08.28.24,0,.15-.1.27-.29.38-1.02.54-1.93,1.27-2.74,2.18ZM348.55,187.63c-.3.49-.45.98-.45,1.46,0,.32.07.59.22.82.15.23.35.35.59.35.34,0,.69-.16,1.05-.48s.65-.76.87-1.3c.14-.34.21-.64.21-.89,0-.19-.06-.33-.17-.45-.12-.13-.28-.19-.48-.19-.33,0-.73.11-1.2.33-.13.05-.27.13-.43.23-.12.07-.19.12-.2.13Z"/><path class="cls-3" d="M356.04,186.5c.24.1.42.22.52.34.15.18.23.43.23.75,0,.79-.33,1.56-1,2.29s-1.36,1.1-2.07,1.1c-.43,0-.79-.18-1.06-.54-.2-.26-.29-.55-.29-.86,0-.52.2-.78.6-.78.24,0,.36.09.36.27,0,.04,0,.09-.01.15-.01.08-.02.17-.02.25,0,.23.06.41.17.53.13.13.28.2.45.2.42,0,.86-.29,1.34-.87.45-.56.68-1.09.68-1.59,0-.25-.06-.46-.18-.6-.13-.16-.31-.23-.55-.23-.09,0-.19.02-.28.04-.11.03-.2.05-.26.05-.14,0-.21-.1-.21-.29,0-.17.06-.3.17-.41.06-.06.2-.12.4-.18.41-.1.75-.24,1.03-.43.18-.12.32-.27.43-.47.05-.1.08-.21.08-.32,0-.14-.04-.25-.11-.31-.08-.07-.19-.1-.35-.1-.26,0-.54.07-.82.21-.07.03-.25.13-.52.3-.07.05-.15.07-.24.07-.17,0-.25-.09-.25-.27,0-.16.12-.33.37-.51.57-.4,1.13-.61,1.68-.61.33,0,.6.1.83.3.24.21.36.47.36.77,0,.4-.17.77-.51,1.11-.19.2-.5.4-.94.62Z"/><path class="cls-3" d="M37.31,27.59c.18-.02.34.05.47.2.09.1.14.21.16.34.02.2-.14.49-.48.87-.96,1.13-1.45,2.39-1.49,3.79-.02.26-.11.46-.29.62-.16.14-.33.22-.5.24-.4.04-.63-.19-.68-.7-.09-.8.24-1.9.99-3.28.3-.56.67-1.09,1.12-1.58.28-.32.52-.49.71-.51ZM40.36,27.27c.17-.02.33.05.47.2.09.1.14.21.16.34.02.2-.14.49-.48.87-.96,1.13-1.45,2.39-1.49,3.79-.02.26-.11.46-.29.61-.16.14-.33.22-.5.24-.4.04-.63-.19-.68-.7-.09-.8.24-1.9.99-3.28.31-.57.68-1.1,1.12-1.58.28-.32.52-.49.71-.51Z"/><path class="cls-3" d="M46.73,42.07c-.32.57-.61,1.02-.86,1.37-.45.61-.92.95-1.42,1-.43.05-.78-.11-1.06-.47-.2-.25-.31-.57-.35-.94-.12-1.13.22-2.47,1.03-4.04.37-.73.76-1.3,1.16-1.7.31-.33.57-.5.79-.52.12-.01.24.03.36.12.1.09.15.18.16.27.02.17-.12.45-.4.87-.63.94-1.1,1.8-1.4,2.56-.35.89-.49,1.58-.44,2.06.01.12.05.21.12.27.06.06.15.08.25.07.45-.05,1-.75,1.66-2.11.34-.71.62-1.48.83-2.32.11-.45.27-.86.49-1.23.21-.33.44-.51.67-.54.13-.01.25.03.37.13.13.11.2.24.21.39.03.31-.19,1.05-.68,2.22-.33.8-.47,1.46-.41,1.97.06.54.25.99.58,1.34.09.1.35.24.78.42.2.09.32.27.35.52.02.16-.04.3-.16.43-.12.13-.28.2-.47.22-.44.05-.85-.08-1.25-.4-.36-.28-.61-.71-.76-1.3-.03-.08-.07-.3-.14-.67Z"/><path class="cls-3" d="M52.85,35.5c.15-.02.28.03.39.13.08.09.12.18.14.28.02.16-.08.43-.3.83-.76,1.5-1.28,2.73-1.57,3.68-.31.98-.57,1.98-.78,3-.09.45-.29.69-.58.73-.17.02-.32-.04-.44-.17-.11-.1-.17-.22-.18-.35-.03-.26.16-1.17.56-2.71.31-1.22.88-2.59,1.71-4.11.27-.5.47-.83.61-1.01.14-.18.29-.28.46-.3ZM54.82,30.37c.39-.04.61.14.65.54.04.37-.11.79-.45,1.28-.32.47-.65.72-.99.76-.17.02-.31-.03-.43-.14-.12-.1-.18-.24-.2-.4-.04-.42.14-.89.55-1.41.3-.39.59-.59.86-.62Z"/><path class="cls-3" d="M55.74,38.58c.1-.12.2-.23.29-.35,1.63-1.98,2.76-3,3.38-3.07.34-.04.53.13.57.51.03.26-.09.59-.36.98-1.46,2.13-2.11,3.93-1.95,5.42.05.48.23.93.54,1.33.14.19.22.34.23.45.01.1-.03.21-.12.32-.1.13-.23.21-.39.23-.36.04-.68-.16-.98-.58-.28-.4-.46-.91-.52-1.52-.13-1.18.18-2.53.92-4.06-1.11.89-2.07,2.35-2.88,4.39-.21.49-.47.75-.76.79-.15.02-.28-.02-.38-.12-.14-.11-.21-.26-.23-.45-.05-.47.35-1.77,1.21-3.88.46-1.15.83-1.98,1.11-2.51.28-.52.54-.79.77-.81.11-.01.23.03.34.12.13.11.21.24.23.4.02.19-.08.48-.29.87-.31.57-.55,1.09-.74,1.55Z"/><path class="cls-3" d="M64.6,33.64c-.47.94-.89,1.99-1.25,3.13-.52,1.63-.74,2.83-.66,3.6.02.22.09.38.19.48s.25.15.43.13c.44-.05.92-.51,1.45-1.4.34-.55.63-1.09.89-1.63.13-.31.3-.47.49-.49.11-.01.21.02.3.09.08.07.12.15.13.22.03.32-.31,1.09-1.04,2.3-.87,1.45-1.72,2.23-2.56,2.32-.45.05-.84-.12-1.18-.5-.21-.24-.34-.6-.4-1.08-.11-1.06.06-2.32.52-3.8.11-.37.43-1.25.96-2.66-.23.09-.41.14-.53.15-.18.02-.35,0-.5-.08-.21-.1-.32-.24-.34-.43-.02-.22.08-.41.32-.57.07-.04.38-.13.95-.27.21-.06.5-.17.89-.35.25-.58.66-1.38,1.25-2.4.33-.56.56-.93.69-1.11.19-.24.36-.37.52-.39.11-.01.23.04.36.15.12.1.18.21.19.32.02.23-.17.7-.59,1.43-.28.47-.48.85-.61,1.14.94-.37,1.62-.57,2.04-.62.48-.05.74.12.79.53.02.2-.05.36-.2.47-.08.06-.3.13-.67.2-.15,0-.79.24-1.93.71-.31.13-.62.26-.92.4Z"/><path class="cls-3" d="M70.15,34.45c1.26-.62,2.19-.96,2.78-1.03.72-.08,1.27.07,1.67.44.34.33.55.78.61,1.35.16,1.49-.35,3.01-1.52,4.58-1.08,1.45-2.26,2.24-3.52,2.38-.8.09-1.49-.19-2.07-.84-.44-.5-.7-1.11-.78-1.83-.17-1.56.26-3.22,1.29-5,.89-1.54,2.23-3.02,4.03-4.44.54-.43.94-.73,1.2-.9.25-.16.48-.25.7-.27.33-.04.51.09.54.38.03.26-.12.51-.45.74-1.71,1.17-3.21,2.64-4.48,4.43ZM69.25,36.18c-.45.94-.62,1.84-.53,2.7.06.57.24,1.04.55,1.43.32.39.69.56,1.12.52.61-.07,1.21-.42,1.78-1.07s1.01-1.48,1.31-2.5c.19-.64.26-1.19.21-1.64-.04-.33-.17-.59-.39-.77-.24-.2-.54-.29-.9-.25-.59.06-1.28.34-2.09.82-.22.12-.46.28-.73.49-.2.15-.31.25-.33.27Z"/><path class="cls-3" d="M82.32,35.17c-.07.23-.27.8-.6,1.72-.51,1.74-.81,2.88-.91,3.41-.05.3-.12.51-.22.65-.09.12-.24.2-.45.22-.22.02-.4-.04-.55-.18-.14-.13-.22-.28-.24-.46-.07-.66.34-2.31,1.24-4.96-1.26.28-2.24.61-2.93.99-.23.12-.41.19-.56.21-.35.04-.55-.22-.61-.77-.04-.32.06-.65.28-.99.43-.62,1.16-1.57,2.2-2.85,1.28-1.56,2.46-2.84,3.52-3.85.92-.87,1.61-1.33,2.05-1.38.2-.02.39.04.58.19.15.13.23.27.25.44.02.21-.07.55-.29,1.01-.04.08-.27.58-.71,1.5-.56,1.17-1.06,2.38-1.52,3.64.61-.1,1.01-.16,1.21-.18.52-.06.79.11.83.49.04.34-.08.6-.34.78-.12.07-.48.14-1.1.21-.18.02-.56.07-1.14.16ZM81.18,34.07c.75-1.96,1.49-3.6,2.21-4.94-.86.61-1.87,1.62-3.03,3.03-.84,1.03-1.5,1.92-1.99,2.67,1.24-.4,2.18-.65,2.81-.75Z"/><path class="cls-3" d="M95.35,31.91c.67-.71,1.31-1.1,1.9-1.16.37-.04.68.08.95.36.25.25.39.55.43.91.07.68-.06,1.53-.4,2.55-.38,1.13-1,2.21-1.84,3.23-.7.85-1.4,1.32-2.1,1.39-.26.03-.51,0-.73-.07-.22-.07-.43-.2-.62-.37-.06.13-.09.21-.11.25-.11.34-.2.55-.24.62-.05.08-.14.12-.26.13-.16.02-.32-.06-.48-.23-.11-.11-.17-.24-.19-.38-.03-.25.34-1.54,1.11-3.87,1.07-3.26,2.37-6.53,3.89-9.81.62-1.34,1-2.13,1.14-2.36.16-.28.31-.43.47-.45.19-.02.37.06.54.23.11.11.17.25.19.42.02.18-.04.42-.17.72-.03.07-.26.54-.68,1.44-1.32,2.62-2.26,4.76-2.81,6.43ZM93.75,37.83c.14.07.29.1.44.08.76-.08,1.49-.83,2.2-2.24.33-.64.58-1.26.74-1.87.15-.55.2-.95.18-1.2-.02-.17-.07-.3-.16-.37-.09-.07-.21-.1-.38-.08-.4.04-.86.37-1.37.98-.51.6-.99,1.45-1.43,2.53-.21.52-.39,1-.53,1.45l-.13.37c.15.16.3.28.44.35Z"/><path class="cls-3" d="M102.39,30.18c.15-.02.28.03.38.13.08.09.13.18.14.28.02.16-.08.43-.29.83-.76,1.5-1.28,2.73-1.57,3.68-.31.98-.57,1.98-.78,3-.09.45-.29.69-.58.73-.17.02-.32-.04-.44-.17-.11-.1-.17-.22-.18-.35-.03-.26.16-1.17.56-2.71.31-1.22.88-2.59,1.71-4.11.26-.5.47-.83.61-1.01.14-.18.29-.28.46-.3ZM104.36,25.04c.39-.04.61.14.65.54.04.37-.11.79-.45,1.28-.32.47-.65.72-.99.76-.17.02-.31-.03-.43-.14-.12-.1-.18-.24-.2-.4-.04-.42.14-.89.55-1.41.3-.39.59-.59.86-.62Z"/><path class="cls-3" d="M107.23,29.06c-.47.94-.89,1.99-1.25,3.13-.52,1.63-.74,2.83-.66,3.6.02.22.09.38.19.48.1.1.25.15.43.13.44-.05.92-.51,1.45-1.4.34-.55.63-1.09.89-1.63.13-.31.3-.47.49-.49.11-.01.21.02.3.09.08.07.12.15.13.22.04.32-.31,1.09-1.04,2.3-.87,1.46-1.72,2.23-2.56,2.32-.45.05-.84-.12-1.18-.5-.21-.24-.34-.6-.4-1.08-.11-1.06.06-2.32.52-3.79.11-.37.43-1.25.96-2.66-.23.09-.41.14-.53.15-.18.02-.35,0-.5-.08-.21-.1-.32-.24-.34-.43-.02-.22.08-.41.32-.57.07-.04.38-.13.95-.27.21-.06.5-.17.89-.35.25-.58.66-1.38,1.25-2.4.33-.57.56-.93.69-1.11.19-.24.36-.37.52-.39.11-.01.23.04.36.15.12.1.18.21.19.32.02.23-.17.7-.59,1.43-.28.47-.48.85-.61,1.14.94-.37,1.62-.57,2.04-.62.48-.05.74.12.79.53.02.2-.04.36-.2.47-.08.06-.3.13-.67.2-.15,0-.79.25-1.93.71-.31.13-.62.27-.92.4Z"/><path class="cls-3" d="M120.77,32.44c-.64,1.09-1.12,1.85-1.44,2.28-.39.53-.74.94-1.03,1.23-.34.31-.67.48-.98.52-.31.03-.56-.09-.76-.38-.16-.22-.25-.48-.28-.76-.1-.95.33-2.33,1.28-4.12.87-1.62,1.55-2.46,2.05-2.51.12-.01.25.03.37.13.12.09.18.21.2.35.02.19-.12.48-.42.85-.65.79-1.19,1.67-1.63,2.63-.37.82-.55,1.34-.52,1.58.02.17.11.25.26.24.52-.06,1.54-1.31,3.04-3.77.49-.79.79-1.26.9-1.38.2-.23.42-.36.66-.39.16-.02.3.01.42.09.11.08.16.16.17.26.01.1-.15.57-.49,1.39-.77,1.78-1.13,2.96-1.06,3.55.02.23.13.33.31.31.31-.03.71-.44,1.18-1.23.45-.74.84-1.66,1.18-2.75.14-.48.25-1.09.32-1.85.08-.87.39-1.33.91-1.38.3-.03.46.12.5.45.12,1.14-.35,2.79-1.41,4.92-1.1,2.23-2.11,3.4-3.02,3.49-.67.07-1.05-.31-1.14-1.14-.07-.68.07-1.54.42-2.59Z"/><path class="cls-3" d="M130.37,32.93c-.23.54-.47,1-.71,1.38-.48.74-.99,1.14-1.53,1.2-.47.05-.86-.13-1.17-.55-.2-.27-.32-.6-.36-1-.1-.97.09-2.07.57-3.31.54-1.38,1.25-2.46,2.14-3.27.58-.52,1.16-.81,1.75-.88.37-.04.68.04.95.24.23.18.36.39.39.65.02.19-.03.47-.14.82.15.17.23.32.25.46.02.18-.07.5-.27.94-.21.46-.4,1.05-.58,1.79-.19.78-.26,1.4-.21,1.85.04.37.18.66.42.87.07.05.26.14.57.24.23.08.36.25.39.52.02.17-.03.31-.14.43-.12.13-.27.2-.44.22-.47.05-.9-.12-1.29-.5-.32-.31-.5-.72-.56-1.24-.02-.17-.03-.46-.04-.87ZM131.55,28.44c-.13-.18-.25-.31-.39-.39-.13-.08-.27-.11-.41-.09-.66.07-1.32.73-1.98,1.98-.72,1.38-1.03,2.51-.93,3.4.02.22.08.38.18.49.09.1.23.15.39.13.42-.05.86-.54,1.32-1.5.26-.52.57-1.29.93-2.29.24-.65.42-1.09.54-1.3.06-.11.17-.25.34-.42Z"/><path class="cls-3" d="M138.15,30.66c-.43.97-.82,1.71-1.16,2.19-.82,1.2-1.54,1.84-2.16,1.9-.38.04-.69-.13-.93-.52-.17-.25-.27-.53-.3-.83-.06-.58.1-1.44.48-2.58.34-1,.64-1.79.88-2.38.18-.42.29-.69.32-.82.08-.25.15-.44.22-.57.09-.2.24-.3.44-.33.1-.01.2.02.29.1.1.1.16.21.17.35.04.39-.22,1.31-.78,2.75-.56,1.42-.82,2.35-.77,2.79.03.28.15.41.37.38.38-.04.86-.59,1.44-1.64.26-.47.52-1.06.78-1.77-.03-.22-.05-.38-.07-.5-.07-.66,0-1.24.18-1.74.25-.65.64-1.01,1.17-1.07.31-.03.48.13.52.5.06.59-.15,1.48-.64,2.68.18.02.32.02.43,0,.29-.03.64-.25,1.07-.67.33-.34.56-.51.67-.52.1-.01.2.04.32.14.09.09.14.18.15.28.03.32-.15.69-.54,1.13-.46.5-1.01.78-1.66.85-.25.03-.55-.02-.9-.13Z"/><path class="cls-3" d="M141.88,31.33l.03.24c.02.19.09.35.2.48.25.3.63.42,1.13.37,1.09-.12,2.26-1.09,3.52-2.92.22-.31.42-.48.6-.5.1,0,.19.03.28.12.06.06.09.13.1.19.04.34-.32.96-1.07,1.87-.59.71-1.23,1.3-1.93,1.79-.7.48-1.37.76-2.01.83-.66.07-1.2-.1-1.62-.52-.29-.29-.46-.7-.52-1.24-.16-1.48.38-3,1.62-4.56,1-1.27,1.92-1.96,2.76-2.05.23-.02.44.02.64.14.25.16.39.39.42.68.05.46-.1,1.05-.46,1.77-.73,1.49-1.96,2.6-3.67,3.33ZM142.06,30.28c.59-.27,1.04-.56,1.37-.86.56-.54.99-1.12,1.28-1.76.11-.22.15-.42.14-.58-.02-.17-.11-.25-.28-.24-.23.02-.53.23-.92.62-.69.68-1.22,1.62-1.59,2.82Z"/><path class="cls-3" d="M154.59,15c.41-.04.64.19.7.71.09.79-.24,1.88-.99,3.26-.3.56-.67,1.09-1.12,1.58-.28.32-.52.49-.71.51-.18.02-.34-.05-.47-.2-.09-.1-.14-.21-.16-.35-.02-.19.14-.48.48-.86.96-1.14,1.45-2.4,1.49-3.79.02-.26.11-.47.29-.63.16-.13.33-.21.49-.23ZM157.63,14.67c.41-.04.64.19.7.71.09.79-.24,1.88-.99,3.26-.3.56-.67,1.09-1.12,1.58-.28.32-.52.49-.71.51-.18.02-.34-.05-.47-.2-.09-.1-.14-.21-.16-.35-.02-.19.14-.48.48-.86.96-1.14,1.46-2.4,1.49-3.79.02-.26.11-.47.29-.63.16-.13.33-.21.49-.23Z"/><path class="cls-3" d="M248.66,30.61c-.27.53-.5.92-.7,1.18-.49.64-.9.98-1.25,1-.21.01-.38-.09-.5-.32-.09-.15-.13-.3-.14-.47-.02-.32.09-.79.34-1.42.22-.54.4-.98.56-1.29.11-.23.18-.38.2-.45.05-.13.1-.24.14-.31.06-.11.14-.16.25-.17.06,0,.11.02.16.06.05.06.08.12.08.2.01.22-.16.72-.51,1.5-.35.77-.52,1.28-.51,1.53,0,.16.07.23.2.22.21-.01.49-.3.85-.87.16-.25.32-.57.48-.96-.01-.12-.02-.21-.02-.28-.02-.37.03-.69.15-.96.16-.36.38-.54.68-.56.17,0,.26.09.27.29.02.33-.12.82-.43,1.47.1.01.18.02.24.02.16,0,.36-.12.61-.34.2-.18.33-.27.39-.27.05,0,.11.03.17.09.05.05.07.1.08.16,0,.18-.1.38-.33.61-.27.27-.58.41-.94.43-.14,0-.31-.02-.5-.1Z"/><path class="cls-3" d="M252.31,31.2c-.14.29-.29.54-.43.74-.29.4-.58.61-.88.62-.26.01-.48-.1-.64-.34-.1-.16-.16-.34-.17-.56-.03-.54.11-1.15.41-1.82.34-.75.76-1.33,1.28-1.75.34-.27.67-.42,1-.44.21-.01.38.04.52.16.12.11.19.23.2.37,0,.11-.03.26-.1.45.08.1.12.19.12.26,0,.1-.05.28-.18.52-.13.25-.25.57-.37.97-.13.43-.18.77-.17,1.02.01.21.08.37.21.49.04.03.14.08.31.15.12.05.19.15.2.3,0,.09-.02.17-.09.23-.07.07-.15.1-.25.11-.26.01-.5-.09-.7-.31-.17-.18-.26-.42-.27-.7,0-.1,0-.26,0-.48ZM253.08,28.74c-.06-.1-.13-.18-.2-.23s-.15-.07-.22-.06c-.37.02-.75.37-1.15,1.04-.44.74-.64,1.36-.61,1.86,0,.12.04.21.08.27s.12.09.21.08c.23-.01.49-.28.78-.79.16-.28.35-.7.58-1.24.15-.36.26-.59.33-.71.04-.06.1-.14.2-.22Z"/><path class="cls-3" d="M255.16,29.81c-.12.39-.22.7-.28.94-.06.24-.09.4-.08.5,0,.12.07.18.19.17.18,0,.39-.19.65-.54.12-.17.3-.47.54-.9.09-.17.2-.26.31-.27.13,0,.19.05.2.17.01.21-.21.65-.65,1.31-.46.7-.91,1.06-1.34,1.08-.19.01-.34-.06-.47-.21-.09-.11-.14-.24-.15-.4-.02-.27.05-.66.18-1.15.14-.49.35-1.09.64-1.8.74-1.81,1.51-3.31,2.32-4.5.64-.96,1.2-1.45,1.65-1.47.15,0,.27.04.37.15.1.11.16.23.17.38.04.68-.51,1.85-1.63,3.51-.51.74-1.12,1.48-1.84,2.23-.19.2-.45.46-.78.79ZM255.62,28.62c.96-.92,1.81-2.07,2.53-3.45.38-.71.56-1.18.54-1.4,0-.11-.06-.16-.15-.15-.27.02-.72.58-1.37,1.68-.54.91-1.05,2.02-1.56,3.32Z"/><path class="cls-3" d="M259.3,30.89c-.19.3-.37.55-.52.73-.27.33-.54.5-.81.52-.24.01-.43-.08-.57-.29-.1-.15-.16-.32-.17-.53-.04-.63.19-1.37.68-2.21.23-.39.46-.7.69-.91.18-.17.33-.26.45-.27.07,0,.13.02.2.08.05.05.08.1.08.16,0,.09-.08.25-.25.47-.38.5-.66.97-.84,1.38-.22.49-.32.86-.3,1.13,0,.07.02.12.06.15.03.03.08.05.14.05.25-.01.57-.39.98-1.13.21-.38.38-.8.52-1.26.07-.25.18-.47.31-.67.13-.18.26-.27.39-.28.07,0,.14.02.2.08.07.06.1.14.11.22,0,.18-.14.58-.44,1.21-.2.44-.3.8-.28,1.08.02.3.11.56.29.76.05.06.19.14.42.25.11.06.17.16.18.3,0,.09-.03.17-.1.23-.07.07-.16.1-.27.11-.24.01-.47-.07-.68-.25-.19-.17-.32-.41-.39-.74-.01-.04-.03-.17-.06-.38Z"/><path class="cls-3" d="M261.7,30.46v.13c.01.11.05.2.1.27.13.17.34.25.62.24.61-.03,1.29-.54,2.03-1.52.13-.17.25-.26.34-.26.05,0,.1.02.15.07.03.04.05.07.05.11.01.19-.2.53-.65,1.01-.35.38-.72.69-1.12.94-.4.25-.78.38-1.14.4-.37.02-.66-.09-.88-.33-.15-.17-.24-.4-.25-.7-.05-.82.29-1.65,1.03-2.49.59-.68,1.12-1.03,1.59-1.06.13,0,.24.03.35.1.13.09.2.23.21.39.01.26-.09.58-.3.97-.45.81-1.16,1.39-2.13,1.74ZM261.83,29.88c.33-.14.59-.28.78-.44.33-.28.58-.6.76-.94.07-.12.1-.23.09-.32,0-.1-.05-.14-.15-.14-.13,0-.3.11-.53.32-.4.36-.72.87-.96,1.52Z"/><path class="cls-3" d="M265.98,31.09c.11,0,.2.04.28.13.05.06.08.14.09.24.01.23-.04.47-.15.73-.12.28-.28.42-.5.43-.22.01-.34-.11-.36-.36-.01-.25.05-.52.19-.79.13-.25.28-.37.45-.38ZM267.22,27.37c.11,0,.2.04.28.13.05.06.08.14.09.24.01.23-.04.47-.15.73-.12.28-.29.43-.5.44-.22.01-.34-.11-.36-.36-.01-.25.05-.52.19-.79.12-.25.27-.38.45-.38Z"/><path class="cls-3" d="M19.7,89.58c-.34.26-.68.48-1.03.66-.46.25-.77.37-.92.37-.16,0-.23-.12-.23-.37,0-.09.02-.16.06-.23.04-.06.13-.12.28-.17.44-.19,1.08-.54,1.92-1.07.38-.24.65-.36.81-.36.1,0,.2.05.28.15.05.07.08.14.08.22,0,.12-.1.33-.29.62-1.41,2.29-2.39,4.08-2.93,5.38-.13.32-.23.51-.29.59-.09.13-.19.2-.28.2s-.18-.06-.26-.17c-.05-.06-.07-.13-.07-.21,0-.26.38-1.13,1.13-2.61.7-1.39,1.28-2.4,1.74-3.02Z"/><path class="cls-3" d="M20.23,154.87c.26.1.46.27.59.49.13.23.19.52.19.87,0,1.09-.42,2.25-1.27,3.47-.92,1.33-1.81,2-2.65,2-.42,0-.73-.22-.94-.65-.14-.28-.21-.62-.21-1.03,0-.97.35-1.99,1.06-3.06.37-.55.86-1.12,1.49-1.71.65-.61,1.13-.91,1.41-.91.22,0,.33.17.33.52ZM19.28,155.4c-.57.47-1.08,1.04-1.52,1.71-.63.97-.94,1.9-.94,2.81,0,.27.04.48.11.63.12.23.29.35.51.35.34,0,.74-.26,1.21-.78.52-.58.93-1.28,1.23-2.11.23-.63.34-1.16.34-1.6,0-.3-.09-.56-.28-.78-.13-.15-.3-.23-.51-.24h-.15Z"/><polyline class="cls-1" points="28.55 157.76 33.38 157.76 33.38 91.69 43.53 91.69 43.53 157.76 53.61 157.76 53.68 91.69 58.81 91.69 58.81 157.76 68.91 157.76 68.91 91.69 73.98 91.69 73.98 157.76 99.36 157.76 99.36 91.69 104.43 91.69 104.43 157.76 114.58 157.76 114.58 91.69 119.76 91.69 119.76 157.76 134.88 157.76 134.88 91.69 145.03 91.69 145.03 157.76 150.13 157.76 150.13 91.69 160.26 91.69 160.26 157.76 165.33 157.76 165.33 91.69 185.63 91.69 185.63 157.76 190.76 157.76 190.76 91.69 200.86 91.69 200.86 157.76 205.94 157.76 205.94 91.69 211.01 91.69 211.01 157.76 221.16 157.76 221.16 91.69 236.39 91.69 236.39 157.76 246.54 157.76 246.54 91.69 256.69 91.69 256.69 157.76 261.76 157.76 261.76 91.69 276.99 91.69 276.99 157.76 282.22 157.76 282.22 91.69 287.14 91.69 287.14 157.76 297.29 157.76 297.29 91.69 302.36 91.69 302.36 157.76 307.44 157.76 307.44 91.69 317.59 91.69 317.59 157.76 322.66 157.76 322.66 91.69 348.04 91.69 348.04 157.76 353.22 157.76"/></svg>