<?xml version="1.0" encoding="UTF-8"?><svg id="Layer_1" xmlns="http://www.w3.org/2000/svg" viewBox="0 0 429.19 294.78"><defs><style>.cls-1{stroke:#4d4d4d;}.cls-1,.cls-2{fill:none;stroke-linecap:round;stroke-miterlimit:10;}.cls-3{fill:#4d4d4d;}.cls-2{stroke:#ccc;}.cls-4{fill:#ccc;}</style></defs><path class="cls-4" d="M381.82,236.22c.28,0,.5-.22.5-.5s-.22-.5-.5-.5H57.51c-.28,0-.5.22-.5.5s.22.5.5.5h324.31"/><path class="cls-4" d="M381.82,223.01c.28,0,.5-.22.5-.5s-.22-.5-.5-.5H57.51c-.28,0-.5.22-.5.5s.22.5.5.5h324.31"/><path class="cls-4" d="M381.82,209.79c.28,0,.5-.22.5-.5s-.22-.5-.5-.5H57.51c-.28,0-.5.22-.5.5s.22.5.5.5h324.31"/><path class="cls-4" d="M381.82,196.58c.28,0,.5-.22.5-.5s-.22-.5-.5-.5H57.51c-.28,0-.5.22-.5.5s.22.5.5.5h324.31"/><path class="cls-4" d="M381.82,170.15c.28,0,.5-.22.5-.5s-.22-.5-.5-.5H57.51c-.28,0-.5.22-.5.5s.22.5.5.5h324.31"/><path class="cls-4" d="M381.82,183.37c.28,0,.5-.22.5-.5s-.22-.5-.5-.5H57.51c-.28,0-.5.22-.5.5s.22.5.5.5h324.31"/><path class="cls-4" d="M381.82,249.43c.28,0,.5-.22.5-.5s-.22-.5-.5-.5H57.51c-.28,0-.5.22-.5.5s.22.5.5.5h324.31"/><path class="cls-4" d="M381.82,143.73c.28,0,.5-.22.5-.5s-.22-.5-.5-.5H57.51c-.28,0-.5.22-.5.5s.22.5.5.5h324.31"/><path class="cls-4" d="M381.82,130.51c.28,0,.5-.22.5-.5s-.22-.5-.5-.5H57.51c-.28,0-.5.22-.5.5s.22.5.5.5h324.31"/><path class="cls-4" d="M381.82,117.3c.28,0,.5-.22.5-.5s-.22-.5-.5-.5H57.51c-.28,0-.5.22-.5.5s.22.5.5.5h324.31"/><path class="cls-4" d="M381.82,104.09c.28,0,.5-.22.5-.5s-.22-.5-.5-.5H57.51c-.28,0-.5.22-.5.5s.22.5.5.5h324.31"/><path class="cls-4" d="M381.82,77.66c.28,0,.5-.22.5-.5s-.22-.5-.5-.5H57.51c-.28,0-.5.22-.5.5s.22.5.5.5h324.31"/><path class="cls-4" d="M381.82,90.87c.28,0,.5-.22.5-.5s-.22-.5-.5-.5H57.51c-.28,0-.5.22-.5.5s.22.5.5.5h324.31"/><path class="cls-4" d="M381.82,156.94c.28,0,.5-.22.5-.5s-.22-.5-.5-.5H57.51c-.28,0-.5.22-.5.5s.22.5.5.5h324.31"/><line class="cls-2" x1="79.66" y1="63.45" x2="79.66" y2="261.65"/><line class="cls-2" x1="101.31" y1="63.45" x2="101.31" y2="261.65"/><line class="cls-2" x1="122.97" y1="63.45" x2="122.97" y2="261.65"/><line class="cls-2" x1="144.62" y1="63.45" x2="144.62" y2="261.65"/><line class="cls-2" x1="166.28" y1="63.45" x2="166.28" y2="261.65"/><line class="cls-2" x1="187.93" y1="63.45" x2="187.93" y2="261.65"/><line class="cls-2" x1="209.59" y1="63.45" x2="209.59" y2="261.65"/><line class="cls-2" x1="274.55" y1="63.45" x2="274.55" y2="261.65"/><line class="cls-2" x1="296.2" y1="63.45" x2="296.2" y2="261.65"/><line class="cls-2" x1="317.86" y1="63.45" x2="317.86" y2="261.65"/><line class="cls-2" x1="339.51" y1="63.45" x2="339.51" y2="261.65"/><line class="cls-2" x1="361.17" y1="63.45" x2="361.17" y2="261.65"/><line class="cls-2" x1="231.24" y1="63.45" x2="231.24" y2="261.65"/><line class="cls-2" x1="252.89" y1="63.45" x2="252.89" y2="261.65"/><path class="cls-3" d="M49.38,269.06c.26.1.46.27.59.49.13.23.19.52.19.87,0,1.09-.42,2.25-1.27,3.47-.92,1.33-1.81,2-2.65,2-.42,0-.73-.22-.94-.65-.14-.28-.21-.62-.21-1.03,0-.97.35-1.99,1.06-3.06.37-.55.86-1.12,1.49-1.71.65-.61,1.13-.91,1.41-.91.22,0,.33.17.33.52ZM48.43,269.58c-.57.47-1.08,1.04-1.52,1.71-.63.97-.94,1.9-.94,2.81,0,.27.04.48.11.63.12.23.29.35.51.35.34,0,.74-.26,1.21-.78.52-.58.93-1.28,1.23-2.11.23-.63.34-1.16.34-1.6,0-.3-.09-.56-.28-.78-.13-.15-.3-.23-.51-.24h-.15Z"/><path class="cls-3" d="M382.32,62.95h0s-324.81,0-324.81,0c-.28,0-.5.22-.5.5v199.2c0,.28.22.5.5.5h0s324.81,0,324.81,0c.28,0,.5-.22.5-.5V63.45c0-.28-.22-.5-.5-.5ZM58.01,260.15V65.95h323.81v194.2H58.01Z"/><path class="cls-3" d="M46.29,60.82c-.34.26-.68.48-1.03.66-.46.25-.77.37-.92.37-.16,0-.23-.12-.23-.37,0-.09.02-.16.06-.23.04-.06.13-.12.28-.17.44-.19,1.08-.54,1.92-1.07.38-.24.65-.36.81-.36.1,0,.2.05.28.15.05.07.08.14.08.22,0,.12-.1.33-.29.62-1.41,2.29-2.39,4.08-2.93,5.38-.13.32-.23.51-.29.59-.09.13-.19.2-.28.2s-.18-.06-.26-.17c-.05-.06-.07-.13-.07-.21,0-.26.38-1.13,1.13-2.61.7-1.39,1.28-2.4,1.74-3.02Z"/><path class="cls-3" d="M51.2,60.55c-.83.72-1.36,1.33-1.59,1.85.48-.2.9-.29,1.24-.29.4,0,.71.12.93.35.21.22.31.5.31.86,0,.81-.38,1.62-1.15,2.44-.76.82-1.5,1.22-2.23,1.22-.42,0-.75-.2-.98-.59-.15-.26-.23-.56-.23-.89s.07-.61.22-.83c.12-.18.28-.27.47-.27.18,0,.26.07.26.2,0,.03-.01.08-.04.17-.05.14-.07.33-.07.57,0,.21.05.39.15.55.13.22.31.33.53.33.44,0,.9-.28,1.38-.83.53-.61.79-1.21.79-1.81,0-.25-.06-.44-.17-.56-.11-.12-.28-.19-.51-.19s-.5.06-.82.18c-.07.02-.25.11-.53.26-.06.03-.11.05-.16.05-.09,0-.19-.06-.28-.18-.1-.13-.15-.25-.15-.36,0-.21.21-.59.64-1.17.27-.37.6-.74,1-1.11-.11-.15-.16-.26-.16-.34,0-.11.08-.19.23-.24.07-.02.35-.07.83-.13.54-.07.98-.11,1.32-.11s.55.02.7.07c.18.05.26.17.26.35,0,.22-.11.34-.34.34-.05,0-.15,0-.29-.01-.05,0-.1,0-.17,0-.23,0-.46.01-.69.03-.23.02-.45.05-.68.1Z"/><path class="cls-3" d="M379.4,269.74c-.34.26-.68.48-1.03.66-.46.25-.77.37-.92.37-.16,0-.23-.12-.23-.37,0-.09.02-.16.06-.23.04-.06.13-.12.28-.17.44-.19,1.08-.54,1.92-1.07.38-.24.65-.36.81-.36.1,0,.2.05.28.15.05.07.08.14.08.22,0,.12-.1.33-.29.62-1.41,2.29-2.39,4.08-2.93,5.38-.13.32-.23.52-.29.59-.09.13-.19.2-.28.2s-.18-.06-.26-.17c-.05-.06-.07-.13-.07-.21,0-.26.38-1.13,1.13-2.61.7-1.39,1.28-2.4,1.74-3.03Z"/><path class="cls-3" d="M384.31,269.48c-.83.72-1.36,1.33-1.59,1.85.48-.2.9-.29,1.24-.29.4,0,.71.12.93.35.21.22.31.51.31.86,0,.81-.38,1.62-1.15,2.44-.76.82-1.5,1.22-2.23,1.22-.42,0-.75-.2-.98-.59-.15-.26-.23-.56-.23-.89s.07-.61.22-.83c.12-.18.28-.27.47-.27.18,0,.26.07.26.2,0,.03-.01.09-.04.17-.05.14-.07.33-.07.57,0,.21.05.39.15.55.13.22.31.33.53.33.44,0,.9-.28,1.38-.83.53-.61.79-1.21.79-1.81,0-.25-.06-.44-.17-.56-.11-.12-.28-.19-.51-.19s-.5.06-.82.18c-.07.02-.25.11-.53.26-.06.03-.11.05-.16.05-.09,0-.19-.06-.28-.18-.1-.13-.15-.25-.15-.36,0-.21.21-.59.64-1.17.27-.37.6-.74,1-1.11-.11-.15-.16-.26-.16-.34,0-.11.08-.19.23-.24.07-.02.35-.07.83-.13.54-.07.98-.11,1.32-.11s.55.02.7.07c.18.05.26.17.26.35,0,.22-.11.34-.34.34-.05,0-.15,0-.29-.01-.05,0-.1,0-.17,0-.23,0-.46.01-.69.03-.23.02-.45.05-.68.1Z"/><path class="cls-3" d="M56.71,25.85c.18-.01.34.06.46.22.08.1.13.22.14.35.01.2-.16.48-.52.85-1.01,1.08-1.57,2.32-1.68,3.71-.03.26-.14.46-.32.6-.17.13-.34.2-.52.21-.4.02-.62-.22-.65-.73-.05-.81.34-1.88,1.15-3.22.33-.55.73-1.05,1.19-1.52.3-.31.55-.47.74-.48ZM59.77,25.67c.18,0,.33.06.46.22.08.1.13.22.14.35.01.2-.16.48-.52.85-1.01,1.08-1.57,2.32-1.68,3.71-.03.26-.14.46-.32.6-.17.13-.34.2-.52.21-.4.02-.62-.22-.65-.73-.05-.81.34-1.88,1.15-3.22.34-.56.74-1.06,1.19-1.52.3-.31.55-.47.74-.48Z"/><path class="cls-3" d="M65.39,40.78c-.35.55-.66.99-.93,1.32-.48.59-.96.9-1.47.93-.43.02-.77-.15-1.03-.52-.18-.26-.28-.58-.31-.96-.06-1.13.34-2.46,1.23-3.98.41-.71.82-1.26,1.24-1.64.33-.31.6-.47.82-.48.12,0,.24.04.35.14.09.09.14.18.15.28,0,.17-.14.45-.44.84-.68.91-1.19,1.74-1.52,2.49-.39.88-.57,1.56-.54,2.04,0,.12.04.22.1.28.06.06.14.09.25.08.45-.03,1.03-.7,1.76-2.03.37-.69.69-1.45.94-2.27.13-.45.32-.85.55-1.21.23-.32.46-.49.7-.5.13,0,.25.04.37.15.12.12.19.25.19.4.02.32-.24,1.04-.79,2.18-.37.79-.54,1.44-.51,1.94.03.54.2,1,.51,1.37.08.1.34.25.75.46.2.1.31.28.32.54,0,.16-.05.3-.18.42-.13.12-.29.19-.48.2-.44.03-.85-.13-1.23-.46-.34-.3-.58-.74-.7-1.33-.02-.08-.06-.3-.1-.68Z"/><path class="cls-3" d="M71.84,34.52c.15,0,.28.04.38.15.08.09.12.19.12.28,0,.16-.1.43-.34.81-.83,1.46-1.42,2.66-1.75,3.6-.36.96-.67,1.95-.93,2.96-.12.45-.32.68-.62.7-.18,0-.32-.05-.43-.19-.1-.11-.16-.23-.17-.36-.01-.26.22-1.16.69-2.68.37-1.2,1.01-2.54,1.91-4.02.29-.48.51-.81.66-.98.15-.17.31-.27.47-.28ZM74.06,29.49c.4-.02.6.17.63.57.02.37-.15.79-.51,1.26-.34.45-.69.69-1.03.71-.17,0-.31-.04-.42-.16-.11-.11-.17-.25-.18-.41-.02-.42.18-.88.62-1.38.32-.37.62-.56.89-.58Z"/><path class="cls-3" d="M74.57,37.74c.11-.11.21-.22.31-.33,1.73-1.89,2.91-2.86,3.53-2.9.34-.02.52.16.54.54.02.26-.12.58-.41.96-1.56,2.05-2.3,3.82-2.22,5.32.03.48.19.94.47,1.36.13.2.21.35.21.46,0,.11-.04.21-.14.31-.11.13-.24.2-.4.21-.36.02-.67-.19-.95-.63-.26-.42-.41-.93-.45-1.55-.07-1.18.31-2.52,1.12-4.01-1.15.83-2.18,2.25-3.1,4.24-.24.48-.5.73-.8.75-.15,0-.28-.04-.38-.14-.13-.12-.2-.27-.21-.46-.03-.47.44-1.75,1.41-3.82.52-1.12.93-1.94,1.23-2.45.31-.5.58-.76.81-.77.11,0,.23.04.34.14.13.12.2.25.21.41.01.19-.1.48-.33.85-.34.56-.61,1.06-.81,1.51Z"/><path class="cls-3" d="M83.66,33.25c-.52.92-.99,1.94-1.41,3.06-.6,1.6-.88,2.79-.84,3.56.01.22.07.38.17.49.1.11.24.16.42.15.44-.03.95-.47,1.52-1.33.37-.53.69-1.06.97-1.59.15-.3.32-.45.51-.46.11,0,.21.03.3.1.08.08.12.15.12.23.02.33-.37,1.07-1.15,2.24-.94,1.41-1.83,2.14-2.67,2.19-.45.03-.83-.16-1.15-.55-.2-.25-.31-.62-.34-1.1-.06-1.06.18-2.32.71-3.76.13-.36.49-1.23,1.09-2.61-.23.08-.41.12-.53.12-.18.01-.35-.02-.5-.1-.2-.11-.3-.26-.32-.44-.01-.22.11-.4.35-.55.07-.04.39-.11.96-.23.21-.05.51-.15.91-.3.28-.57.73-1.35,1.37-2.34.36-.55.6-.91.74-1.07.2-.23.38-.35.53-.36.11,0,.23.05.35.16.11.11.17.22.18.33.01.23-.21.69-.66,1.4-.3.46-.52.83-.66,1.11.96-.32,1.65-.49,2.07-.51.48-.03.74.16.76.56.01.2-.06.36-.22.46-.08.06-.31.12-.68.17-.15,0-.8.2-1.96.61-.32.12-.63.23-.94.36Z"/><path class="cls-3" d="M89.16,34.34c1.29-.56,2.23-.85,2.83-.89.72-.04,1.27.13,1.64.53.33.34.51.8.54,1.38.08,1.49-.5,2.99-1.75,4.5-1.15,1.39-2.37,2.13-3.64,2.2-.81.05-1.48-.27-2.02-.94-.42-.52-.65-1.14-.69-1.86-.09-1.56.42-3.21,1.54-4.93.96-1.5,2.38-2.91,4.25-4.23.56-.4.97-.68,1.25-.84.26-.15.49-.23.71-.24.33-.02.51.12.52.41.01.26-.15.5-.49.71-1.77,1.08-3.34,2.48-4.7,4.2ZM88.18,36.02c-.49.92-.72,1.81-.67,2.67.03.57.19,1.05.48,1.45.3.41.66.6,1.09.57.61-.04,1.23-.36,1.83-.98.61-.62,1.08-1.43,1.43-2.43.22-.63.32-1.17.29-1.63-.02-.33-.14-.6-.35-.79-.23-.21-.53-.31-.89-.29-.59.03-1.3.27-2.12.72-.22.11-.47.26-.75.45-.21.14-.33.23-.34.26Z"/><path class="cls-3" d="M101.28,35.67c-.08.22-.31.79-.68,1.69-.6,1.72-.96,2.84-1.08,3.36-.06.29-.15.51-.25.63-.1.12-.25.19-.46.2-.22.01-.4-.06-.54-.21-.13-.13-.2-.29-.21-.48-.04-.66.46-2.29,1.49-4.89-1.27.21-2.27.49-2.98.84-.23.11-.42.17-.57.18-.35.02-.54-.25-.57-.8-.02-.32.09-.65.33-.97.46-.6,1.24-1.51,2.34-2.73,1.36-1.5,2.6-2.72,3.71-3.67.97-.82,1.67-1.24,2.12-1.27.2-.01.39.06.57.22.14.13.21.28.22.45.01.21-.1.54-.34,1-.04.08-.3.57-.79,1.46-.61,1.13-1.18,2.32-1.7,3.56.61-.07,1.02-.11,1.22-.12.52-.03.79.15.81.54.02.34-.11.6-.38.76-.12.07-.49.12-1.11.16-.18.01-.57.04-1.14.1ZM100.2,34.52c.85-1.92,1.67-3.52,2.46-4.83-.89.57-1.95,1.53-3.18,2.88-.89.98-1.59,1.84-2.12,2.56,1.26-.33,2.21-.54,2.84-.61Z"/><path class="cls-3" d="M113.25,35.54c.11-.11.21-.22.31-.33,1.73-1.89,2.91-2.86,3.53-2.89.34-.02.52.16.54.54.02.26-.12.58-.41.96-1.56,2.05-2.3,3.82-2.22,5.32.03.48.19.94.47,1.36.13.19.21.35.21.46,0,.11-.04.21-.14.31-.11.13-.24.2-.4.21-.36.02-.67-.19-.95-.63-.26-.42-.41-.93-.45-1.55-.07-1.18.31-2.52,1.12-4.01-1.15.83-2.18,2.25-3.1,4.24-.24.48-.5.73-.8.75-.15,0-.27-.04-.38-.14-.13-.12-.2-.27-.21-.46-.03-.47.44-1.75,1.41-3.82.52-1.12.93-1.94,1.23-2.45.31-.5.58-.76.81-.77.11,0,.23.04.34.14.13.12.2.25.21.41.01.19-.1.48-.33.85-.34.56-.61,1.06-.81,1.51Z"/><path class="cls-3" d="M121.01,31.72c.15,0,.28.04.38.15.08.09.12.19.12.28,0,.16-.1.43-.34.81-.83,1.46-1.42,2.66-1.75,3.6-.36.96-.67,1.95-.93,2.96-.12.45-.32.68-.62.69-.18.01-.32-.05-.43-.19-.1-.11-.16-.23-.17-.36-.01-.26.22-1.16.69-2.68.37-1.2,1.01-2.54,1.91-4.02.29-.48.51-.81.66-.97.15-.18.31-.27.47-.28ZM123.23,26.69c.39-.02.6.17.63.57.02.37-.15.79-.51,1.26-.34.45-.69.69-1.03.71-.17,0-.31-.04-.42-.16-.11-.11-.17-.25-.18-.41-.02-.42.18-.88.62-1.38.32-.37.62-.56.89-.58Z"/><path class="cls-3" d="M124.95,32.47c.71-.67,1.36-1.03,1.96-1.06.37-.02.68.12.93.41.24.26.36.57.38.93.04.68-.14,1.53-.53,2.53-.44,1.11-1.11,2.15-2,3.14-.74.82-1.46,1.25-2.17,1.29-.26.02-.51-.02-.73-.1-.22-.08-.42-.22-.6-.4-.06.13-.1.21-.12.24-.13.33-.22.54-.28.61-.05.07-.14.11-.26.12-.16,0-.31-.08-.46-.25-.1-.12-.16-.25-.17-.39-.01-.25.42-1.52,1.3-3.81,1.24-3.2,2.69-6.4,4.38-9.6.68-1.31,1.1-2.07,1.26-2.3.17-.27.33-.42.49-.42.19-.01.37.08.53.26.1.12.16.26.17.43.01.18-.06.42-.21.71-.03.06-.28.53-.75,1.4-1.45,2.55-2.49,4.64-3.13,6.28ZM123.06,38.3c.14.08.29.12.43.11.76-.04,1.53-.75,2.31-2.12.36-.62.64-1.23.83-1.83.17-.54.25-.93.24-1.19,0-.18-.06-.3-.14-.38-.08-.08-.21-.11-.38-.1-.4.02-.88.33-1.41.91-.54.58-1.06,1.39-1.55,2.45-.24.51-.44.98-.61,1.42l-.15.37c.14.17.28.29.42.37Z"/><path class="cls-3" d="M132.45,32.05c.71-.67,1.36-1.03,1.96-1.06.37-.02.68.12.93.41.23.26.36.57.38.93.04.68-.14,1.53-.53,2.53-.44,1.11-1.11,2.15-2,3.14-.74.82-1.46,1.25-2.17,1.29-.26.01-.5-.02-.73-.1-.22-.08-.42-.22-.6-.4-.06.13-.1.21-.12.24-.13.33-.22.54-.28.61-.05.07-.14.11-.26.12-.16,0-.31-.08-.46-.25-.1-.12-.16-.25-.17-.39-.01-.25.42-1.52,1.3-3.81,1.23-3.21,2.69-6.4,4.38-9.6.68-1.31,1.1-2.08,1.25-2.3.17-.27.33-.42.49-.42.19-.01.37.08.53.26.1.12.16.26.17.43.01.18-.06.42-.21.71-.03.06-.28.53-.75,1.4-1.45,2.55-2.49,4.64-3.13,6.28ZM130.56,37.87c.14.08.29.12.44.11.76-.04,1.53-.75,2.31-2.12.36-.62.64-1.23.83-1.83.17-.54.25-.93.24-1.19,0-.18-.06-.3-.14-.38-.08-.08-.21-.11-.38-.1-.4.02-.88.33-1.41.91-.54.58-1.06,1.39-1.55,2.45-.24.51-.44.98-.61,1.42l-.15.37c.14.17.28.29.42.37Z"/><path class="cls-3" d="M138.48,34.25c-.22.7-.39,1.26-.5,1.69-.11.43-.16.73-.15.89.01.22.12.32.33.31.32-.02.71-.34,1.17-.96.22-.3.54-.85.96-1.63.17-.31.35-.47.55-.48.23-.01.35.09.36.31.02.38-.37,1.17-1.17,2.36-.84,1.25-1.64,1.9-2.41,1.95-.33.02-.61-.11-.84-.38-.16-.19-.25-.43-.27-.72-.03-.49.08-1.18.33-2.07.25-.89.63-1.97,1.15-3.25,1.33-3.25,2.72-5.95,4.17-8.09,1.16-1.72,2.15-2.61,2.98-2.65.26-.01.48.07.66.27.19.19.29.42.3.68.07,1.23-.91,3.33-2.94,6.32-.91,1.33-2.01,2.67-3.31,4.02-.34.35-.81.83-1.4,1.43ZM139.3,32.1c1.74-1.67,3.26-3.73,4.56-6.2.68-1.28,1-2.12.98-2.53-.01-.19-.1-.28-.27-.28-.48.03-1.3,1.04-2.47,3.03-.96,1.64-1.9,3.63-2.8,5.97Z"/><path class="cls-3" d="M143.24,35.83v.24c.02.19.08.36.19.49.24.31.61.45,1.11.42,1.1-.06,2.32-.98,3.66-2.74.24-.3.44-.46.62-.47.1,0,.19.04.27.13.06.07.09.13.09.19.02.34-.37.95-1.16,1.81-.62.68-1.29,1.24-2.02,1.69-.72.45-1.4.69-2.04.72-.66.04-1.19-.16-1.59-.6-.27-.3-.42-.72-.46-1.27-.08-1.48.53-2.98,1.84-4.48,1.07-1.22,2.02-1.86,2.86-1.91.23-.01.44.04.63.17.24.17.37.41.38.71.03.46-.16,1.05-.55,1.75-.81,1.45-2.08,2.5-3.84,3.14ZM143.48,34.79c.6-.25,1.07-.51,1.41-.79.59-.51,1.04-1.07,1.37-1.69.12-.22.17-.41.17-.58-.01-.17-.1-.26-.27-.25-.23.01-.54.2-.94.57-.72.65-1.3,1.56-1.73,2.74Z"/><path class="cls-3" d="M160.87,33.68c-.7,1.06-1.21,1.79-1.55,2.2-.42.51-.79.9-1.09,1.17-.35.29-.69.45-1,.47-.31.02-.55-.12-.74-.42-.15-.23-.23-.49-.24-.78-.05-.96.44-2.3,1.49-4.05.95-1.58,1.67-2.38,2.17-2.41.12,0,.24.04.37.15.11.1.17.22.18.36.01.19-.14.47-.47.83-.69.76-1.27,1.61-1.76,2.54-.41.8-.61,1.32-.6,1.55.01.18.09.26.25.25.53-.03,1.6-1.24,3.23-3.62.53-.77.85-1.21.97-1.34.22-.22.44-.34.68-.36.16,0,.3.03.42.11.1.08.16.17.16.27,0,.11-.18.56-.56,1.37-.86,1.74-1.27,2.9-1.24,3.49.01.23.11.34.3.33.32-.02.73-.41,1.24-1.17.49-.71.93-1.61,1.31-2.69.17-.47.3-1.08.41-1.83.13-.86.45-1.31.98-1.34.3-.02.46.14.48.48.07,1.15-.48,2.77-1.65,4.85-1.21,2.17-2.28,3.29-3.19,3.34-.68.04-1.04-.36-1.08-1.19-.04-.68.15-1.54.55-2.57Z"/><path class="cls-3" d="M170.43,34.64c-.26.52-.52.97-.78,1.34-.51.72-1.04,1.09-1.59,1.12-.47.03-.86-.18-1.14-.61-.18-.28-.29-.62-.31-1.01-.06-.97.19-2.07.74-3.28.61-1.35,1.38-2.4,2.3-3.16.61-.49,1.2-.75,1.79-.79.37-.02.68.08.94.29.22.19.34.41.36.67.01.19-.05.46-.18.82.14.18.22.34.23.48.01.18-.09.49-.32.93-.23.44-.45,1.03-.67,1.75-.23.77-.33,1.38-.3,1.84.02.37.15.67.38.89.07.06.25.15.56.27.23.09.34.27.36.53,0,.17-.04.31-.16.42-.12.12-.28.19-.45.2-.47.03-.89-.16-1.26-.56-.3-.33-.46-.75-.5-1.27,0-.17,0-.47,0-.87ZM171.83,30.21c-.12-.19-.24-.32-.37-.41-.13-.08-.26-.12-.4-.12-.67.04-1.36.66-2.07,1.87-.79,1.34-1.15,2.46-1.1,3.35.01.22.06.38.15.49s.22.16.38.15c.42-.02.89-.5,1.4-1.43.29-.51.64-1.26,1.05-2.24.27-.64.47-1.07.6-1.28.06-.11.18-.24.36-.4Z"/><path class="cls-3" d="M178.31,32.76c-.48.95-.9,1.66-1.26,2.13-.88,1.16-1.63,1.76-2.25,1.79-.38.02-.68-.17-.9-.57-.16-.26-.24-.55-.26-.84-.03-.58.17-1.43.61-2.56.39-.98.73-1.76,1-2.33.21-.41.33-.67.36-.8.09-.24.17-.43.25-.56.1-.19.26-.29.46-.3.11,0,.2.03.28.12.09.1.14.22.15.36.02.39-.28,1.3-.92,2.71-.63,1.39-.94,2.31-.91,2.75.02.28.13.42.35.4.38-.02.88-.54,1.52-1.57.28-.46.57-1.03.87-1.73-.02-.22-.04-.39-.04-.5-.04-.66.05-1.24.27-1.73.28-.64.69-.98,1.22-1.01.31-.02.47.16.49.53.03.59-.22,1.47-.77,2.65.18.02.32.03.42.03.29-.02.66-.22,1.1-.62.35-.32.58-.48.7-.49.1,0,.2.05.31.15.08.09.13.19.13.28.02.32-.18.68-.6,1.1-.48.48-1.05.73-1.7.77-.25.01-.55-.04-.89-.17Z"/><path class="cls-3" d="M182.01,33.62v.24c.02.19.08.36.19.49.24.31.61.45,1.11.43,1.1-.06,2.32-.98,3.66-2.74.24-.3.44-.46.62-.47.1,0,.19.04.27.13.06.07.09.13.09.19.02.34-.37.95-1.16,1.81-.62.68-1.29,1.24-2.02,1.69-.72.45-1.41.69-2.05.72-.66.04-1.19-.16-1.59-.6-.27-.3-.42-.72-.46-1.27-.08-1.48.53-2.97,1.84-4.48,1.07-1.22,2.02-1.86,2.86-1.91.23-.01.44.04.63.18.24.17.37.41.38.7.03.46-.16,1.05-.55,1.75-.81,1.45-2.08,2.5-3.84,3.14ZM182.24,32.58c.6-.25,1.07-.51,1.41-.79.59-.51,1.04-1.07,1.37-1.69.12-.22.17-.41.17-.58-.01-.18-.1-.26-.27-.25-.23.01-.54.2-.94.57-.72.65-1.3,1.56-1.73,2.74Z"/><path class="cls-3" d="M195.52,17.94c.41-.02.63.22.66.74.04.8-.34,1.87-1.15,3.21-.33.55-.73,1.05-1.19,1.52-.3.31-.55.47-.74.48-.18.01-.34-.06-.46-.22-.08-.1-.13-.22-.14-.36-.01-.19.16-.47.52-.83,1.01-1.09,1.57-2.33,1.68-3.71.03-.26.14-.46.32-.61.17-.12.34-.19.5-.2ZM198.57,17.77c.41-.02.63.22.66.74.05.8-.34,1.87-1.15,3.21-.33.55-.73,1.05-1.19,1.52-.3.31-.55.47-.74.48-.18.01-.34-.06-.46-.22-.08-.1-.13-.22-.14-.36-.01-.19.16-.47.52-.83,1.02-1.09,1.58-2.33,1.68-3.71.03-.26.14-.46.32-.61.17-.12.34-.19.5-.2Z"/><path class="cls-3" d="M279.59,40.41c-1.33.18-2.26.25-2.79.21-.36-.03-.52-.16-.5-.39,0-.12.06-.21.14-.29.08-.08.18-.11.28-.1.04,0,.11.01.2.03.06.01.14.03.22.03.3.02.7.02,1.21-.02.64-.05,1.11-.1,1.42-.16.17-.03.32-.04.43-.03.26.02.38.17.36.46-.02.19-.14.4-.39.62-1.82,1.66-3.27,3.32-4.36,4.98-.26.4-.43.64-.5.71-.13.13-.26.19-.39.18-.07,0-.13-.04-.18-.1-.06-.07-.09-.14-.08-.22.02-.25.3-.74.83-1.48.7-.97,1.54-1.94,2.51-2.92.58-.59,1.11-1.09,1.61-1.51Z"/><path class="cls-3" d="M279.83,46.02c.84-.19,1.6-.26,2.29-.21.27.02.48.09.64.22.14.11.2.23.19.38,0,.09-.05.17-.12.24-.07.07-.15.1-.24.09-.03,0-.07-.01-.13-.03-.25-.09-.47-.14-.68-.16-.18-.01-.4-.02-.67,0-.09,0-.44.07-1.04.18-.54.1-.85.14-.95.14-.14-.01-.25-.09-.34-.23-.08-.13-.12-.26-.11-.39.01-.15.15-.33.43-.56.51-.43,1.01-.81,1.48-1.15.45-.32,1-.68,1.65-1.09.75-.46,1.26-.8,1.55-1.02.43-.32.65-.65.68-1,.02-.2-.04-.35-.15-.48-.1-.11-.24-.17-.41-.18-.44-.04-.97.17-1.61.61-.29.2-.47.3-.54.29-.05,0-.1-.04-.16-.1-.06-.06-.09-.14-.08-.22.01-.18.25-.41.7-.69.72-.46,1.39-.67,2.01-.62.35.03.64.17.86.42.21.24.3.51.28.82-.04.54-.37,1.06-.96,1.55-.26.21-.72.53-1.4.95-1.62,1-2.68,1.74-3.16,2.24Z"/><path class="cls-3" d="M288.19,44.45c-.06.12-.23.41-.5.88-.46.9-.74,1.49-.85,1.77-.06.16-.12.27-.19.33-.06.06-.15.08-.27.07-.12,0-.22-.06-.28-.16-.06-.08-.09-.18-.08-.28.03-.37.43-1.22,1.19-2.58-.72.02-1.28.1-1.7.24-.14.04-.25.06-.33.05-.19-.02-.28-.18-.26-.48.01-.18.1-.35.25-.51.3-.29.8-.74,1.5-1.33.86-.72,1.64-1.3,2.32-1.74.59-.38,1.02-.56,1.26-.54.11,0,.21.06.3.16.07.08.1.17.09.26,0,.12-.1.29-.26.52-.03.04-.21.29-.54.74-.42.58-.83,1.19-1.21,1.83.34,0,.57.02.68.03.29.02.42.14.41.36-.02.19-.1.32-.27.39-.07.03-.28.03-.62,0-.1,0-.31-.02-.64-.03ZM287.69,43.73c.61-.99,1.19-1.81,1.72-2.47-.53.25-1.19.69-1.97,1.34-.56.47-1.02.89-1.36,1.25.72-.09,1.25-.13,1.61-.12Z"/><path class="cls-3" d="M290.05,46.84c.84-.19,1.6-.26,2.29-.21.27.02.48.09.64.22.14.11.2.23.19.38,0,.09-.05.17-.12.24-.07.07-.15.1-.24.09-.03,0-.07-.01-.13-.03-.25-.09-.47-.14-.68-.16-.18-.01-.4-.02-.67,0-.09,0-.44.07-1.04.18-.54.1-.85.14-.95.14-.14-.01-.25-.09-.34-.23-.08-.13-.12-.26-.11-.39.01-.15.15-.33.43-.56.51-.43,1.01-.81,1.48-1.15.45-.32,1-.68,1.65-1.09.75-.46,1.27-.8,1.55-1.02.43-.32.65-.65.68-1,.02-.2-.04-.35-.15-.48-.1-.11-.24-.17-.41-.18-.44-.04-.97.17-1.61.61-.29.2-.47.3-.54.29-.05,0-.1-.04-.16-.1-.06-.06-.09-.14-.09-.22.01-.18.25-.41.7-.69.72-.46,1.39-.67,2.01-.62.36.03.64.17.86.42.21.24.3.51.28.82-.04.54-.36,1.06-.96,1.55-.26.21-.72.53-1.4.95-1.62,1-2.68,1.74-3.16,2.24Z"/><path class="cls-3" d="M298.42,45.27c-.06.12-.23.41-.5.88-.46.9-.74,1.49-.85,1.77-.06.16-.12.27-.19.33-.06.06-.15.08-.27.07-.12,0-.22-.06-.28-.16-.06-.08-.09-.18-.08-.28.03-.37.43-1.22,1.19-2.58-.72.02-1.28.1-1.7.24-.14.04-.24.06-.33.05-.19-.02-.28-.18-.26-.48.01-.18.1-.35.25-.51.3-.29.8-.74,1.5-1.33.86-.72,1.63-1.3,2.32-1.74.59-.38,1.02-.56,1.26-.54.11,0,.21.06.3.16.07.08.1.17.09.26,0,.12-.1.29-.26.52-.03.04-.21.29-.54.74-.42.58-.83,1.19-1.21,1.83.34,0,.57.02.68.03.29.02.42.14.4.36-.02.19-.1.32-.27.39-.07.03-.28.03-.62,0-.1,0-.31-.02-.64-.03ZM297.91,44.55c.61-.99,1.19-1.81,1.72-2.47-.53.25-1.19.69-1.97,1.34-.56.47-1.02.89-1.36,1.25.72-.09,1.25-.13,1.61-.12Z"/><path class="cls-3" d="M300.27,47.67c.84-.19,1.6-.26,2.29-.21.27.02.48.09.64.22.14.11.2.23.19.38,0,.09-.05.17-.12.24-.07.07-.15.1-.24.09-.03,0-.07-.01-.13-.03-.25-.09-.47-.14-.68-.16-.18-.01-.4-.02-.67,0-.09,0-.44.07-1.04.18-.54.1-.85.14-.95.14-.14-.01-.25-.09-.34-.23-.08-.13-.12-.26-.11-.39.01-.15.15-.33.43-.56.51-.43,1.01-.81,1.48-1.15.45-.32,1-.68,1.65-1.09.75-.46,1.27-.8,1.55-1.02.43-.32.65-.65.68-1,.02-.19-.04-.35-.15-.47-.1-.11-.24-.17-.41-.18-.44-.04-.97.17-1.61.61-.29.2-.47.3-.54.29-.05,0-.1-.04-.16-.1-.06-.06-.09-.14-.08-.22.01-.17.25-.41.7-.69.72-.46,1.39-.67,2.01-.62.35.03.64.17.86.41.21.24.3.51.28.82-.04.54-.37,1.06-.96,1.55-.26.21-.72.53-1.4.95-1.62,1-2.68,1.74-3.16,2.24Z"/><path class="cls-3" d="M308.84,45.92c-.7.28-1.25.4-1.64.37-.38-.03-.67-.22-.86-.55-.14-.24-.2-.52-.17-.84.07-.84.5-1.61,1.31-2.32.73-.65,1.46-.94,2.17-.88.41.03.73.2.95.51.19.27.28.59.24.98-.07.84-.45,1.77-1.13,2.78-.37.55-.94,1.18-1.69,1.89-.85.8-1.39,1.2-1.64,1.18-.07,0-.13-.04-.18-.1-.04-.06-.06-.12-.06-.18,0-.12.12-.25.33-.4.97-.69,1.76-1.49,2.37-2.42ZM309.34,45.1c.4-.67.61-1.24.65-1.7.03-.33-.01-.58-.12-.76-.11-.17-.28-.27-.52-.29-.5-.04-1.01.21-1.54.75-.52.53-.8,1.08-.84,1.64-.02.25.02.45.13.58s.28.21.52.23c.32.03.71-.04,1.16-.2.34-.13.53-.22.56-.26Z"/><path class="cls-3" d="M315.06,42.88c.25.12.44.3.55.54s.15.53.12.88c-.09,1.08-.6,2.2-1.55,3.36-1.03,1.25-1.96,1.85-2.8,1.78-.42-.03-.72-.28-.89-.72-.11-.29-.15-.64-.12-1.04.08-.96.51-1.95,1.3-2.97.41-.52.95-1.05,1.62-1.58.7-.55,1.19-.81,1.48-.79.22.02.31.2.29.54ZM314.07,43.33c-.61.42-1.16.95-1.65,1.59-.71.91-1.09,1.82-1.17,2.72-.02.27,0,.48.06.64.1.24.26.37.48.39.34.03.76-.2,1.27-.68.57-.53,1.03-1.2,1.4-2,.28-.61.44-1.13.47-1.56.02-.3-.05-.57-.22-.8-.11-.16-.28-.25-.48-.28-.05,0-.1,0-.15-.01Z"/><path class="cls-3" d="M320.48,43.7c-1.33.18-2.26.25-2.79.21-.35-.03-.52-.16-.5-.39,0-.12.06-.21.14-.29.08-.08.18-.11.28-.1.04,0,.11.01.2.03.06.01.14.03.22.03.3.02.7.02,1.21-.02.64-.05,1.11-.1,1.42-.16.17-.03.32-.04.43-.03.26.02.38.17.36.46-.02.19-.14.39-.39.62-1.82,1.66-3.27,3.32-4.36,4.98-.26.4-.43.64-.5.71-.13.13-.26.19-.39.18-.07,0-.13-.04-.18-.09-.06-.07-.09-.14-.09-.22.02-.25.3-.74.83-1.48.7-.97,1.54-1.94,2.5-2.92.58-.59,1.11-1.09,1.61-1.51Z"/><path class="cls-3" d="M324.29,46c.23.12.4.25.49.38.14.19.19.45.17.77-.06.79-.46,1.53-1.18,2.21-.73.68-1.44.99-2.15.93-.43-.04-.77-.24-1.02-.62-.17-.27-.25-.57-.22-.89.04-.52.26-.76.66-.73.24.02.35.12.34.3,0,.04-.01.09-.03.15-.02.08-.04.16-.04.25-.02.23.02.41.13.54.12.14.26.22.43.23.41.03.88-.22,1.41-.76.5-.52.77-1.03.81-1.53.02-.25-.02-.46-.13-.61-.12-.17-.3-.26-.53-.28-.09,0-.19,0-.28.02-.11.02-.2.03-.26.03-.14-.01-.2-.11-.19-.3.01-.17.08-.3.2-.4.07-.06.21-.11.42-.14.41-.07.77-.18,1.06-.34.19-.1.35-.25.47-.43.06-.1.1-.2.11-.32.01-.14-.02-.25-.09-.32-.07-.07-.18-.12-.34-.13-.26-.02-.54.03-.83.14-.08.03-.26.11-.54.26-.08.04-.16.06-.25.05-.17-.01-.24-.11-.23-.29.01-.16.15-.32.41-.47.6-.36,1.18-.52,1.72-.47.33.03.59.15.8.37.22.23.32.5.3.79-.03.39-.23.75-.6,1.07-.2.18-.53.36-.99.54Z"/><path class="cls-3" d="M327.62,46.49c.75-.21,1.29-.3,1.62-.27.4.03.69.17.86.41.15.21.22.48.19.8-.07.83-.5,1.61-1.31,2.34-.74.68-1.46.99-2.17.94-.45-.04-.79-.26-1.04-.67-.19-.32-.27-.68-.24-1.08.07-.87.48-1.73,1.22-2.6.64-.75,1.53-1.42,2.66-2.01.34-.18.59-.3.75-.37.15-.06.29-.09.41-.08.18.01.27.1.26.26-.01.15-.12.26-.32.36-1.06.46-2.02,1.11-2.91,1.96ZM326.95,47.34c-.34.47-.53.94-.57,1.42-.03.32.03.59.15.83.13.25.32.38.56.4.34.03.7-.11,1.08-.4.38-.29.71-.7.97-1.23.17-.33.26-.62.28-.87.01-.19-.03-.34-.13-.46-.11-.14-.27-.21-.47-.23-.33-.03-.73.05-1.22.23-.13.04-.28.11-.45.19-.13.06-.2.1-.21.12Z"/><path class="cls-3" d="M334.85,45.16c-.36.23-.72.42-1.08.58-.48.21-.8.31-.94.3-.16-.01-.22-.14-.2-.39,0-.09.03-.16.08-.22.04-.06.14-.1.29-.15.45-.15,1.12-.45,2-.91.4-.21.68-.31.83-.29.1,0,.19.07.26.18.05.07.07.15.06.23,0,.12-.12.32-.33.6-1.59,2.17-2.71,3.88-3.35,5.13-.16.31-.27.5-.33.57-.1.12-.2.18-.29.17-.09,0-.18-.07-.25-.19-.04-.07-.06-.14-.06-.21.02-.26.47-1.1,1.33-2.51.81-1.33,1.47-2.28,1.98-2.88Z"/><path class="cls-3" d="M336.05,50.54c.84-.19,1.6-.26,2.29-.21.27.02.48.09.64.22.14.11.2.23.19.38,0,.09-.05.17-.12.24-.07.07-.15.1-.24.09-.03,0-.07-.01-.13-.03-.25-.09-.47-.14-.68-.16-.18-.01-.4-.02-.67,0-.09,0-.44.07-1.04.18-.54.1-.85.14-.95.14-.14-.01-.25-.09-.34-.23-.08-.13-.12-.26-.11-.39.01-.15.15-.33.43-.56.51-.43,1.01-.81,1.48-1.15.45-.32,1-.68,1.65-1.09.75-.46,1.27-.8,1.55-1.02.43-.32.65-.65.68-1,.02-.19-.04-.35-.15-.47-.1-.11-.24-.17-.41-.18-.44-.04-.97.17-1.61.61-.29.2-.47.3-.54.29-.05,0-.1-.04-.16-.1-.06-.06-.09-.14-.08-.22.01-.17.25-.41.7-.69.72-.46,1.39-.67,2.01-.62.35.03.64.17.86.41.21.24.3.51.28.82-.04.54-.37,1.06-.96,1.55-.26.21-.72.53-1.4.95-1.62,1-2.68,1.74-3.16,2.24Z"/><path class="cls-3" d="M345.72,45.34c.25.12.44.3.55.54.11.24.15.53.12.88-.09,1.09-.6,2.21-1.55,3.36-1.03,1.25-1.96,1.85-2.8,1.78-.42-.03-.72-.28-.89-.73-.11-.29-.15-.64-.12-1.04.08-.96.51-1.95,1.3-2.97.41-.52.95-1.05,1.62-1.58.7-.55,1.19-.82,1.48-.79.22.02.31.2.29.54ZM344.73,45.79c-.61.42-1.16.95-1.65,1.59-.71.91-1.09,1.82-1.17,2.72-.02.27,0,.48.06.64.1.24.26.37.48.39.34.03.76-.2,1.27-.68.57-.53,1.03-1.2,1.4-2,.28-.61.44-1.13.47-1.56.02-.3-.05-.57-.22-.8-.11-.16-.28-.25-.48-.28-.05,0-.1,0-.15-.01Z"/><path class="cls-3" d="M349.98,46.11c-.88.65-1.46,1.22-1.73,1.71.5-.16.92-.22,1.26-.19.39.03.69.17.9.42.19.24.27.53.25.88-.06.8-.51,1.58-1.34,2.34-.82.75-1.59,1.1-2.32,1.04-.42-.03-.73-.25-.93-.66-.13-.28-.18-.58-.15-.91.03-.34.12-.6.29-.81.14-.17.3-.25.49-.23.18.01.26.09.25.22,0,.03-.02.08-.06.16-.06.14-.1.33-.12.56-.02.21.02.4.1.56.11.23.28.35.51.37.44.04.92-.2,1.44-.71.57-.56.88-1.14.93-1.74.02-.25-.02-.44-.12-.57-.1-.13-.27-.21-.5-.23-.22-.02-.5.02-.83.11-.07.02-.26.09-.55.22-.06.03-.12.04-.16.04-.09,0-.18-.07-.26-.2-.09-.14-.13-.26-.12-.37.02-.2.26-.57.73-1.11.3-.34.66-.69,1.08-1.03-.1-.15-.14-.27-.13-.35,0-.11.09-.19.25-.22.08-.02.35-.04.84-.07.55-.03.99-.03,1.32,0,.32.03.55.07.69.12.17.06.25.19.23.37-.02.22-.14.33-.36.31-.05,0-.15-.02-.29-.04-.05,0-.1-.02-.17-.02-.23-.02-.46-.03-.69-.02-.23,0-.46.02-.68.04Z"/><path class="cls-3" d="M355.09,46.52c-.89.65-1.46,1.22-1.73,1.71.5-.16.92-.22,1.26-.19.39.03.69.17.9.43.19.24.27.53.25.88-.06.8-.51,1.58-1.34,2.34-.82.75-1.59,1.1-2.32,1.04-.42-.03-.73-.25-.93-.66-.13-.27-.18-.58-.15-.91.03-.34.12-.61.29-.81.14-.17.3-.25.49-.23.18.01.26.09.25.22,0,.03-.02.08-.06.16-.06.14-.1.33-.12.56-.02.21.02.39.1.56.11.23.28.35.51.37.44.04.92-.2,1.44-.71.57-.56.89-1.14.93-1.74.02-.25-.02-.44-.12-.57-.1-.13-.27-.21-.5-.23-.22-.02-.5.02-.83.11-.08.02-.26.09-.55.22-.06.03-.12.04-.16.04-.09,0-.18-.07-.26-.2-.09-.14-.13-.26-.12-.37.02-.21.26-.57.73-1.11.3-.34.66-.69,1.08-1.03-.1-.16-.14-.27-.13-.35,0-.11.09-.19.25-.22.07-.02.35-.04.83-.07.55-.03.99-.03,1.32,0,.32.03.55.07.69.12.17.06.25.19.23.37-.02.22-.14.33-.36.31-.05,0-.15-.02-.29-.04-.05,0-.1-.02-.17-.02-.23-.02-.46-.03-.69-.02-.23,0-.46.02-.68.04Z"/><path class="cls-3" d="M359.95,50.03c-.7.28-1.25.4-1.64.37-.38-.03-.67-.22-.86-.55-.14-.24-.2-.52-.17-.84.07-.84.5-1.61,1.31-2.32.73-.65,1.46-.94,2.17-.88.41.03.73.2.95.51.19.27.28.59.25.98-.07.84-.45,1.77-1.13,2.78-.37.55-.94,1.18-1.69,1.89-.85.8-1.39,1.2-1.64,1.18-.07,0-.13-.04-.18-.1-.04-.06-.06-.12-.06-.18,0-.12.12-.25.33-.4.97-.69,1.76-1.49,2.37-2.42ZM360.45,49.2c.4-.67.61-1.24.65-1.7.03-.33-.01-.58-.12-.76-.11-.17-.28-.27-.52-.29-.5-.04-1.01.21-1.54.75-.52.53-.8,1.08-.84,1.64-.02.25.02.45.13.58.11.14.28.21.52.23.32.03.71-.04,1.16-.2.34-.13.53-.22.56-.26Z"/><path class="cls-3" d="M365.06,50.44c-.7.28-1.25.4-1.64.37-.38-.03-.67-.22-.86-.55-.14-.24-.2-.52-.17-.84.07-.84.5-1.61,1.31-2.32.73-.65,1.46-.94,2.17-.88.41.03.73.2.95.51.19.27.28.59.24.97-.07.84-.45,1.77-1.13,2.78-.37.55-.94,1.18-1.69,1.89-.85.8-1.39,1.2-1.64,1.18-.07,0-.13-.04-.18-.1-.04-.06-.06-.12-.06-.18,0-.12.12-.25.33-.4.97-.69,1.76-1.49,2.37-2.42ZM365.56,49.61c.4-.67.61-1.24.65-1.7.03-.33-.01-.58-.12-.76-.11-.17-.28-.27-.52-.29-.5-.04-1.01.21-1.54.75-.52.53-.8,1.08-.84,1.64-.02.25.02.45.13.58.11.14.28.21.52.23.32.03.71-.04,1.16-.2.34-.13.53-.22.56-.26Z"/><path class="cls-3" d="M369.25,49.47c-.2-.23-.33-.41-.41-.55-.11-.21-.16-.44-.14-.67.04-.51.33-.91.87-1.22.46-.26.95-.37,1.47-.33.38.03.66.17.87.42.18.22.26.47.23.76-.04.43-.28.82-.72,1.15-.24.18-.57.39-1,.62.23.27.4.54.51.79.11.26.15.5.13.73-.04.46-.23.9-.57,1.32-.37.46-.82.81-1.36,1.07-.54.26-1.08.37-1.61.33-.46-.04-.82-.23-1.09-.59-.2-.27-.29-.55-.26-.85.06-.79.61-1.52,1.65-2.19.54-.35,1.02-.62,1.44-.8ZM369.71,50.01c-.61.25-1.13.55-1.56.89-.61.48-.93.96-.97,1.45-.02.28.05.49.21.63.17.14.35.21.55.23.27.02.57-.04.88-.18.31-.14.59-.34.82-.6.34-.37.53-.78.57-1.21.02-.3-.05-.59-.21-.86-.04-.06-.1-.14-.18-.23-.06-.07-.1-.11-.1-.11ZM369.99,49.09c.31-.14.57-.3.79-.48.28-.24.43-.47.45-.7.01-.15-.02-.27-.11-.38-.09-.12-.22-.19-.39-.21-.28-.02-.55.06-.81.24-.22.15-.34.34-.36.57-.01.16.06.37.22.63l.21.33Z"/><polyline class="cls-1" points="57.51 182.37 79.66 208.79 101.31 155.94 122.97 235.22 144.62 208.79 166.28 182.37 187.93 89.87 209.59 76.66 231.24 89.87 252.89 222.01 274.55 142.73 296.2 116.3 317.86 129.51 339.51 195.58 361.17 116.3 382.28 76.87"/></svg>