<?xml version="1.0" encoding="UTF-8"?><svg id="Layer_1" xmlns="http://www.w3.org/2000/svg" viewBox="0 0 212.05 171.35"><defs><style>.cls-1{fill:#4d4d4d;}.cls-2{fill:none;stroke:#999;stroke-linecap:round;stroke-miterlimit:10;}.cls-3{fill:#999;}.cls-4{fill:#ccc;}</style></defs><path class="cls-4" d="M197.93,126.71c.28,0,.5-.22.5-.5s-.22-.5-.5-.5h-12c-.28,0-.5.22-.5.5s.22.5.5.5h12M173.93,126.71c.28,0,.5-.22.5-.5s-.22-.5-.5-.5h-12c-.28,0-.5.22-.5.5s.22.5.5.5h12M149.93,126.71c.28,0,.5-.22.5-.5s-.22-.5-.5-.5h-12c-.28,0-.5.22-.5.5s.22.5.5.5h12M125.93,126.71c.28,0,.5-.22.5-.5s-.22-.5-.5-.5h-12c-.28,0-.5.22-.5.5s.22.5.5.5h12M101.93,126.71c.28,0,.5-.22.5-.5s-.22-.5-.5-.5h-12c-.28,0-.5.22-.5.5s.22.5.5.5h12M77.93,126.71c.28,0,.5-.22.5-.5s-.22-.5-.5-.5h-12c-.28,0-.5.22-.5.5s.22.5.5.5h12M53.93,126.71c.28,0,.5-.22.5-.5s-.22-.5-.5-.5h-12c-.28,0-.5.22-.5.5s.22.5.5.5h12M29.93,126.71c.28,0,.5-.22.5-.5s-.22-.5-.5-.5h-12c-.28,0-.5.22-.5.5s.22.5.5.5h12"/><path class="cls-4" d="M197.93,90.14c.28,0,.5-.22.5-.5s-.22-.5-.5-.5h-12c-.28,0-.5.22-.5.5s.22.5.5.5h12M173.93,90.14c.28,0,.5-.22.5-.5s-.22-.5-.5-.5h-12c-.28,0-.5.22-.5.5s.22.5.5.5h12M149.93,90.14c.28,0,.5-.22.5-.5s-.22-.5-.5-.5h-12c-.28,0-.5.22-.5.5s.22.5.5.5h12M125.93,90.14c.28,0,.5-.22.5-.5s-.22-.5-.5-.5h-12c-.28,0-.5.22-.5.5s.22.5.5.5h12M101.93,90.14c.28,0,.5-.22.5-.5s-.22-.5-.5-.5h-12c-.28,0-.5.22-.5.5s.22.5.5.5h12M77.93,90.14c.28,0,.5-.22.5-.5s-.22-.5-.5-.5h-12c-.28,0-.5.22-.5.5s.22.5.5.5h12M53.93,90.14c.28,0,.5-.22.5-.5s-.22-.5-.5-.5h-12c-.28,0-.5.22-.5.5s.22.5.5.5h12M29.93,90.14c.28,0,.5-.22.5-.5s-.22-.5-.5-.5h-12c-.28,0-.5.22-.5.5s.22.5.5.5h12"/><path class="cls-1" d="M113.42,76.39c1.49-.43,2.85-.64,4.09-.61.48.01.87.12,1.17.33.26.18.39.4.38.65,0,.17-.07.31-.19.44-.13.13-.27.19-.43.19-.05,0-.13-.02-.24-.04-.46-.13-.87-.2-1.24-.21-.33,0-.73.01-1.2.07-.17.02-.78.17-1.84.44-.95.23-1.52.35-1.7.34-.25,0-.46-.13-.64-.37-.16-.22-.24-.45-.24-.69,0-.26.24-.62.71-1.05.88-.82,1.73-1.57,2.54-2.23.77-.62,1.72-1.33,2.85-2.13,1.29-.91,2.19-1.58,2.68-2,.73-.62,1.11-1.24,1.12-1.88,0-.35-.1-.63-.32-.84-.2-.18-.45-.27-.76-.28-.79-.02-1.73.41-2.82,1.27-.5.39-.81.59-.94.59-.09,0-.19-.06-.3-.17-.12-.11-.18-.24-.18-.39,0-.32.4-.76,1.18-1.32,1.25-.91,2.43-1.35,3.55-1.32.64.01,1.17.23,1.59.65s.6.89.59,1.45c-.02.98-.54,1.95-1.57,2.89-.44.41-1.24,1.03-2.41,1.85-2.81,1.96-4.63,3.41-5.45,4.35Z"/><path class="cls-1" d="M122.64,76.59c1.49-.43,2.85-.64,4.09-.61.48.01.87.12,1.17.33.26.18.39.4.38.65,0,.17-.07.32-.19.44s-.27.19-.43.19c-.05,0-.13-.02-.24-.04-.45-.13-.87-.2-1.23-.21-.33,0-.73.02-1.2.07-.17.02-.78.17-1.84.44-.95.23-1.52.35-1.7.35-.25,0-.46-.13-.64-.37-.16-.22-.24-.45-.24-.69,0-.26.24-.62.71-1.05.88-.83,1.73-1.57,2.54-2.23.77-.62,1.72-1.33,2.85-2.13,1.29-.91,2.19-1.58,2.68-2,.73-.62,1.11-1.24,1.12-1.87,0-.35-.1-.63-.33-.84-.2-.18-.45-.27-.76-.28-.79-.02-1.73.41-2.82,1.27-.5.39-.81.59-.94.59-.09,0-.19-.06-.3-.16-.12-.11-.18-.24-.18-.39,0-.32.4-.76,1.18-1.32,1.25-.91,2.43-1.35,3.55-1.32.64.01,1.17.23,1.6.65.4.4.6.89.59,1.45-.02.98-.54,1.95-1.57,2.89-.44.41-1.24,1.03-2.41,1.85-2.81,1.96-4.63,3.41-5.45,4.35Z"/><path class="cls-1" d="M131.87,76.79c1.49-.43,2.85-.64,4.09-.61.48,0,.87.12,1.17.33.26.18.39.4.38.65,0,.17-.07.32-.19.44-.13.13-.27.19-.43.19-.05,0-.13-.02-.24-.04-.45-.13-.87-.2-1.23-.21-.33,0-.73.02-1.2.07-.17.02-.78.17-1.84.44-.95.23-1.52.35-1.7.35-.25,0-.46-.13-.64-.37-.16-.22-.24-.45-.24-.69,0-.26.24-.61.71-1.05.88-.83,1.73-1.57,2.54-2.23.77-.62,1.72-1.33,2.85-2.13,1.29-.91,2.19-1.58,2.68-2,.73-.62,1.11-1.24,1.12-1.88,0-.35-.1-.63-.33-.84-.2-.18-.45-.27-.76-.28-.79-.02-1.73.41-2.82,1.27-.5.39-.81.59-.94.59-.09,0-.19-.06-.3-.17-.12-.11-.18-.24-.18-.39,0-.32.4-.76,1.18-1.32,1.25-.91,2.43-1.35,3.55-1.32.64.01,1.17.23,1.59.65.4.4.6.89.59,1.45-.02.98-.54,1.95-1.57,2.89-.44.41-1.24,1.03-2.41,1.85-2.81,1.96-4.63,3.41-5.45,4.35Z"/><path class="cls-1" d="M113.5,54.6c-.37.5-.63.89-.81,1.16-.17.27-.39.65-.66,1.14-1.17,2.21-2,4-2.48,5.39-.28.78-.45,1.44-.5,1.99.06.01.13.02.19.03.06,0,.12.01.18.01.12,0,.3-.02.53-.05.1-.02.18-.03.25-.03.08,0,.14.02.19.07s.08.1.08.16c0,.09-.06.17-.19.23-.14.07-.45.11-.93.11-.23,0-.42-.02-.58-.07-.1-.03-.17-.07-.2-.12-.03-.05-.05-.12-.05-.23,0-.43.18-1.16.53-2.19.54-1.56,1.39-3.39,2.54-5.47.66-1.19,1.13-1.95,1.4-2.3.13-.16.27-.26.43-.3.13-.03.35-.05.67-.05.35,0,.58.02.68.06.12.04.18.12.18.23,0,.09-.04.15-.11.19-.06.04-.14.06-.21.06-.05,0-.18,0-.38-.02-.07,0-.15,0-.23,0-.13,0-.3,0-.52.02Z"/><path class="cls-1" d="M115.74,57.23c-.25.19-.5.35-.75.48-.34.18-.56.27-.67.27-.11,0-.17-.09-.17-.27,0-.06.01-.12.04-.17.03-.04.1-.08.2-.12.32-.14.79-.4,1.41-.78.28-.18.48-.26.59-.26.08,0,.14.04.2.11.04.05.06.1.06.16,0,.09-.07.24-.21.46-1.03,1.68-1.75,2.99-2.15,3.95-.1.23-.17.38-.21.43-.07.1-.14.15-.2.15s-.13-.04-.19-.12c-.04-.05-.05-.1-.05-.15,0-.19.28-.83.83-1.91.52-1.02.94-1.76,1.28-2.22Z"/><path class="cls-1" d="M119.5,57.23c-.25.19-.5.35-.75.48-.34.18-.56.27-.67.27-.11,0-.17-.09-.17-.27,0-.06.01-.12.04-.17.03-.04.1-.08.2-.12.32-.14.79-.4,1.41-.78.28-.18.48-.26.59-.26.08,0,.14.04.2.11.04.05.06.1.06.16,0,.09-.07.24-.21.46-1.03,1.68-1.75,2.99-2.15,3.95-.1.23-.17.38-.21.43-.07.1-.14.15-.2.15s-.13-.04-.19-.12c-.04-.05-.05-.1-.05-.15,0-.19.28-.83.83-1.91.52-1.02.94-1.76,1.28-2.22Z"/><path class="cls-1" d="M123.7,56.73c.19.08.34.2.43.36.1.17.14.38.14.64,0,.8-.31,1.65-.93,2.55-.68.98-1.32,1.47-1.94,1.47-.31,0-.54-.16-.69-.48-.1-.21-.15-.46-.15-.75,0-.71.26-1.46.78-2.25.27-.41.63-.82,1.09-1.25.48-.44.83-.67,1.04-.67.16,0,.24.13.24.38ZM123,57.12c-.42.34-.79.76-1.11,1.26-.46.71-.69,1.39-.69,2.06,0,.2.03.35.08.46.09.17.21.26.37.26.25,0,.54-.19.89-.57.38-.42.68-.94.9-1.55.17-.46.25-.85.25-1.17,0-.22-.07-.41-.2-.57-.09-.11-.22-.17-.37-.18h-.11Z"/><path class="cls-1" d="M127.02,57.23c-.25.19-.5.35-.75.48-.34.18-.56.27-.67.27-.11,0-.17-.09-.17-.27,0-.06.01-.12.04-.17.03-.04.1-.08.2-.12.32-.14.79-.4,1.41-.78.28-.18.48-.26.59-.26.08,0,.14.04.2.11.04.05.06.1.06.16,0,.09-.07.24-.21.46-1.03,1.68-1.75,2.99-2.15,3.95-.1.23-.17.38-.21.43-.07.1-.14.15-.2.15s-.13-.04-.19-.12c-.04-.05-.05-.1-.05-.15,0-.19.28-.83.83-1.91.52-1.02.94-1.76,1.28-2.22Z"/><path class="cls-1" d="M130.78,57.23c-.25.19-.5.35-.75.48-.34.18-.56.27-.67.27-.11,0-.17-.09-.17-.27,0-.06.01-.12.04-.17.03-.04.1-.08.2-.12.32-.14.79-.4,1.41-.78.28-.18.48-.26.59-.26.08,0,.14.04.2.11.04.05.06.1.06.16,0,.09-.07.24-.21.46-1.03,1.68-1.75,2.99-2.15,3.95-.1.23-.17.38-.21.43-.07.1-.14.15-.2.15s-.13-.04-.19-.12c-.04-.05-.05-.1-.05-.15,0-.19.28-.83.83-1.91.52-1.02.94-1.76,1.28-2.22Z"/><path class="cls-1" d="M134.54,57.23c-.25.19-.5.35-.75.48-.34.18-.56.27-.67.27-.11,0-.17-.09-.17-.27,0-.06.01-.12.04-.17.03-.04.1-.08.2-.12.32-.14.79-.4,1.41-.78.28-.18.48-.26.59-.26.08,0,.14.04.2.11.04.05.06.1.06.16,0,.09-.07.24-.21.46-1.03,1.68-1.75,2.99-2.15,3.95-.1.23-.17.38-.21.43-.07.1-.14.15-.2.15s-.13-.04-.19-.12c-.04-.05-.05-.1-.05-.15,0-.19.28-.83.83-1.91.52-1.02.94-1.76,1.28-2.22Z"/><path class="cls-1" d="M138.3,57.23c-.25.19-.5.35-.75.48-.34.18-.56.27-.67.27-.11,0-.17-.09-.17-.27,0-.06.01-.12.04-.17.03-.04.1-.08.2-.12.32-.14.79-.4,1.41-.78.28-.18.48-.26.59-.26.08,0,.14.04.2.11.04.05.06.1.06.16,0,.09-.07.24-.21.46-1.03,1.68-1.75,2.99-2.15,3.95-.1.23-.17.38-.21.43-.07.1-.14.15-.2.15s-.13-.04-.19-.12c-.04-.05-.05-.1-.05-.15,0-.19.28-.83.83-1.91.52-1.02.94-1.76,1.28-2.22Z"/><path class="cls-1" d="M142.5,56.73c.19.08.34.2.43.36.1.17.14.38.14.64,0,.8-.31,1.65-.93,2.55-.68.98-1.32,1.47-1.94,1.47-.31,0-.54-.16-.69-.48-.1-.21-.15-.46-.15-.75,0-.71.26-1.46.78-2.25.27-.41.63-.82,1.09-1.25.48-.44.83-.67,1.04-.67.16,0,.24.13.24.38ZM141.8,57.12c-.42.34-.79.76-1.11,1.26-.46.71-.69,1.39-.69,2.06,0,.2.03.35.08.46.09.17.21.26.37.26.25,0,.54-.19.89-.57.38-.42.68-.94.9-1.55.17-.46.25-.85.25-1.17,0-.22-.07-.41-.2-.57-.09-.11-.22-.17-.37-.18h-.11Z"/><path class="cls-1" d="M142.44,64.27c.37-.5.63-.89.81-1.17.17-.27.39-.66.65-1.14,1.17-2.2,2-4,2.48-5.39.28-.78.45-1.44.5-1.99-.07-.01-.13-.02-.19-.03-.06,0-.12-.01-.17-.01-.12,0-.3.02-.53.05-.1.02-.19.03-.25.03-.08,0-.14-.02-.19-.07s-.08-.1-.08-.16c0-.09.06-.17.19-.23.14-.07.45-.11.93-.11.23,0,.42.02.58.08.1.03.17.07.21.12.03.04.04.12.04.23,0,.43-.18,1.16-.53,2.19-.54,1.57-1.39,3.39-2.55,5.47-.66,1.19-1.12,1.96-1.4,2.3-.13.16-.27.26-.43.3-.13.03-.35.05-.67.05-.36,0-.58-.02-.68-.05-.12-.05-.18-.12-.18-.23,0-.09.04-.15.11-.2.06-.04.14-.06.22-.06.05,0,.18,0,.37.02.06,0,.14,0,.23,0,.12,0,.3,0,.53-.01Z"/><path class="cls-1" d="M92.56,103.34c-.62.45-1.25.83-1.87,1.15-.84.43-1.4.64-1.66.64-.28,0-.42-.23-.41-.68,0-.16.04-.29.11-.41.07-.1.24-.2.51-.29.8-.32,1.96-.93,3.5-1.85.7-.42,1.18-.62,1.46-.61.18,0,.35.1.5.29.09.12.14.26.14.4,0,.22-.18.59-.54,1.11-2.63,4.06-4.46,7.25-5.48,9.57-.25.57-.43.92-.54,1.06-.17.23-.34.35-.51.34s-.32-.11-.47-.31c-.08-.12-.13-.24-.12-.37,0-.47.72-2.02,2.13-4.65,1.32-2.47,2.4-4.26,3.25-5.38Z"/><path class="cls-1" d="M101.36,106.55c.44.19.74.41.92.64.27.33.39.79.38,1.37-.03,1.43-.66,2.79-1.89,4.09-1.23,1.29-2.49,1.92-3.76,1.9-.78-.02-1.41-.36-1.89-1.02-.34-.47-.51-1-.49-1.57.02-.93.39-1.39,1.11-1.37.43,0,.64.18.64.5,0,.07-.01.16-.03.28-.03.15-.05.3-.05.45,0,.41.09.73.28.96.22.24.49.37.8.37.75.02,1.56-.49,2.45-1.52.84-.98,1.27-1.93,1.29-2.83,0-.46-.09-.82-.31-1.09-.23-.29-.56-.43-.98-.44-.17,0-.33.02-.5.07-.2.06-.36.08-.46.08-.25,0-.38-.18-.37-.52,0-.3.11-.54.32-.73.12-.11.36-.21.73-.3.73-.17,1.36-.41,1.88-.72.33-.2.59-.48.8-.83.1-.18.15-.38.16-.58,0-.25-.06-.44-.19-.57-.13-.13-.34-.19-.62-.2-.47-.01-.97.1-1.48.34-.13.06-.45.23-.95.52-.13.08-.28.13-.44.12-.3,0-.44-.17-.44-.5,0-.29.23-.59.68-.9,1.04-.71,2.06-1.05,3.04-1.03.59.01,1.08.2,1.48.57.42.4.63.86.62,1.4-.01.71-.34,1.37-.97,1.98-.34.34-.92.71-1.72,1.08Z"/><path class="cls-1" d="M154.91,104.6c-.62.45-1.25.83-1.87,1.15-.84.43-1.4.64-1.66.64-.28,0-.42-.23-.41-.68,0-.16.04-.29.11-.41.07-.1.24-.2.51-.29.8-.32,1.96-.93,3.5-1.85.69-.42,1.18-.62,1.46-.61.18,0,.35.1.49.29.09.12.14.26.14.4,0,.22-.18.59-.54,1.11-2.63,4.06-4.46,7.25-5.48,9.57-.25.57-.43.92-.54,1.06-.17.23-.34.35-.51.34s-.32-.11-.47-.31c-.09-.12-.13-.24-.12-.37.01-.47.72-2.02,2.13-4.65,1.32-2.47,2.4-4.26,3.25-5.38Z"/><path class="cls-1" d="M163.27,110.22c-.1.22-.37.76-.81,1.63-.73,1.66-1.17,2.75-1.34,3.27-.08.29-.19.49-.3.61-.11.11-.27.17-.48.16-.22,0-.39-.09-.52-.25-.12-.14-.18-.31-.17-.49.01-.66.64-2.25,1.87-4.76-1.29.11-2.3.32-3.03.61-.24.09-.43.14-.58.13-.35,0-.52-.29-.51-.84,0-.33.14-.64.4-.94.5-.56,1.35-1.41,2.55-2.54,1.47-1.38,2.8-2.51,3.99-3.37,1.03-.74,1.76-1.11,2.21-1.1.2,0,.38.09.55.26.13.14.19.3.19.46,0,.21-.14.53-.42.97-.05.08-.35.54-.9,1.39-.7,1.08-1.36,2.22-1.97,3.41.62-.02,1.02-.03,1.23-.03.52.01.77.21.77.6,0,.34-.15.59-.44.73-.12.06-.5.08-1.12.07-.18,0-.57,0-1.15.01ZM162.28,108.99c1-1.84,1.94-3.38,2.83-4.62-.93.5-2.06,1.37-3.39,2.62-.96.91-1.73,1.71-2.32,2.39,1.28-.24,2.24-.36,2.88-.39Z"/><path class="cls-2" d="M131.42,81.89c5.53,8.85,16.05,7.98,22.26,17.09"/><path class="cls-3" d="M148.94,97.31c.06-.15.24-.23.39-.16l4.25,1.74-.22-4.58c0-.17.12-.31.29-.31s.31.12.31.29l.24,5.06c0,.1-.04.2-.13.26s-.19.07-.29.03l-4.68-1.92c-.05-.02-.1-.06-.13-.1-.06-.08-.07-.19-.03-.29Z"/><path class="cls-2" d="M119.07,81.44c-7.73,7.22-7.72,5.41-18.33,16.5"/><path class="cls-3" d="M101.61,93.01c.16.04.26.2.23.36l-.98,4.48,4.48-1c.16-.04.32.07.36.23.04.16-.07.32-.23.36l-4.94,1.11c-.1.02-.2,0-.28-.08-.07-.07-.1-.18-.08-.28l1.09-4.94c.01-.06.04-.11.08-.15.07-.07.17-.1.28-.08Z"/><path class="cls-2" d="M95.01,117.47c5.51,8.82,9.18,9.78,11.92,18.95"/><path class="cls-3" d="M102.89,133.44c.1-.13.29-.15.42-.04l3.55,2.91,1.13-4.45c.04-.16.2-.26.36-.22.16.04.26.21.22.36l-1.25,4.9c-.03.1-.1.18-.2.21s-.2.01-.28-.05l-3.92-3.21s-.08-.09-.09-.14c-.03-.09-.01-.2.05-.28Z"/><path class="cls-2" d="M91.33,117.47c-4.63,9.26-9.46,7.93-17.86,19.9"/><path class="cls-3" d="M73.64,132.38c.17.01.29.16.28.32l-.34,4.58,4.29-1.62c.15-.06.33.02.39.17.06.15-.02.33-.17.39l-4.73,1.79c-.1.04-.2.02-.29-.04s-.13-.16-.12-.26l.38-5.05c0-.06.03-.11.06-.16.06-.08.16-.13.26-.12Z"/><path class="cls-1" d="M70.22,144.7c.44.19.74.41.92.64.27.33.39.79.38,1.37-.03,1.43-.66,2.79-1.89,4.09-1.23,1.29-2.49,1.92-3.76,1.9-.78-.02-1.41-.36-1.89-1.02-.34-.47-.51-1-.49-1.57.02-.93.39-1.39,1.11-1.38.43,0,.64.18.64.5,0,.07-.01.16-.03.28-.03.15-.05.3-.05.45,0,.41.09.73.28.96.22.24.49.37.8.37.75.02,1.56-.49,2.45-1.52.84-.98,1.27-1.93,1.29-2.83,0-.46-.09-.82-.31-1.09-.23-.29-.56-.43-.98-.44-.17,0-.33.02-.5.07-.2.06-.36.08-.46.08-.25,0-.38-.18-.37-.52,0-.3.11-.54.32-.73.12-.11.36-.21.73-.3.73-.17,1.36-.41,1.88-.72.33-.2.6-.48.8-.83.1-.18.15-.38.16-.58,0-.25-.06-.44-.19-.57-.13-.13-.34-.19-.62-.2-.47-.01-.97.1-1.48.34-.13.06-.45.23-.95.52-.13.08-.28.13-.44.12-.3,0-.44-.17-.44-.5,0-.29.23-.59.68-.9,1.04-.71,2.06-1.05,3.04-1.03.59.01,1.08.2,1.48.57.42.4.63.86.62,1.4-.01.71-.34,1.37-.97,1.98-.34.34-.92.71-1.72,1.08Z"/><path class="cls-1" d="M108.52,141.68c-.62.45-1.25.83-1.87,1.15-.84.43-1.4.64-1.66.64-.28,0-.42-.23-.41-.68,0-.16.04-.29.11-.41.07-.1.24-.2.51-.29.8-.32,1.96-.93,3.5-1.85.69-.42,1.18-.62,1.46-.61.18,0,.35.1.5.29.09.12.14.26.14.4,0,.22-.18.59-.54,1.11-2.63,4.06-4.46,7.25-5.48,9.57-.25.57-.43.92-.54,1.06-.17.23-.34.35-.51.34-.17,0-.32-.11-.47-.31-.08-.12-.13-.24-.12-.37,0-.47.72-2.02,2.13-4.65,1.32-2.47,2.4-4.26,3.25-5.38Z"/><path class="cls-2" d="M159.8,119.54c5.51,8.82.84,11.16,7.43,17.91"/><path class="cls-3" d="M162.33,136.48c.04-.16.2-.26.36-.22l4.46,1.08-.91-4.5c-.03-.16.07-.32.23-.35.16-.03.32.07.35.23l1,4.96c.02.1-.01.2-.09.28-.07.07-.18.1-.28.08l-4.92-1.19c-.06-.01-.11-.04-.15-.08-.07-.07-.1-.18-.08-.28Z"/><path class="cls-2" d="M153.22,118.79c-4.63,9.26-9.58,5.83-17.99,17.74"/><path class="cls-3" d="M135.32,131.53c.17,0,.29.15.28.32l-.28,4.58,4.27-1.69c.15-.06.33.01.39.17s-.02.33-.17.39l-4.71,1.86c-.1.04-.2.02-.29-.04-.08-.06-.13-.16-.12-.26l.31-5.05c0-.06.02-.11.06-.16.06-.08.15-.13.26-.12Z"/><path class="cls-1" d="M132.11,144.7c.44.19.74.41.92.64.27.33.39.79.38,1.37-.03,1.43-.66,2.79-1.89,4.09-1.23,1.29-2.49,1.92-3.76,1.9-.78-.02-1.41-.36-1.89-1.02-.34-.47-.51-1-.49-1.57.02-.93.39-1.39,1.11-1.38.43,0,.64.18.64.5,0,.07-.01.16-.03.28-.03.15-.05.3-.05.45,0,.41.09.73.28.96.22.24.49.37.8.37.75.02,1.56-.49,2.45-1.52.84-.98,1.27-1.93,1.29-2.83,0-.46-.09-.82-.31-1.09-.23-.29-.56-.43-.98-.44-.17,0-.33.02-.5.07-.2.06-.36.08-.46.08-.25,0-.38-.18-.37-.52,0-.3.11-.54.32-.73.12-.11.36-.21.73-.3.73-.17,1.36-.41,1.88-.72.33-.2.6-.48.8-.83.1-.18.15-.38.16-.58,0-.25-.06-.44-.19-.57-.13-.13-.34-.19-.62-.2-.47-.01-.97.1-1.48.34-.13.06-.45.23-.95.52-.13.08-.28.13-.44.12-.3,0-.44-.17-.44-.5,0-.29.23-.59.68-.9,1.04-.71,2.06-1.05,3.04-1.03.59.01,1.08.2,1.48.57.42.4.63.86.62,1.4-.01.71-.34,1.37-.97,1.98-.34.34-.92.71-1.72,1.08Z"/><path class="cls-1" d="M163.91,151.03c1.49-.43,2.85-.64,4.09-.61.48,0,.87.12,1.17.33.26.18.39.4.38.65,0,.17-.07.32-.19.44-.13.13-.27.19-.43.19-.05,0-.13-.02-.24-.04-.45-.13-.87-.2-1.24-.21-.33,0-.73.02-1.2.07-.17.02-.78.17-1.84.44-.95.23-1.52.35-1.7.35-.25,0-.46-.13-.64-.37-.16-.22-.24-.45-.24-.69,0-.26.24-.62.71-1.05.88-.82,1.73-1.57,2.54-2.23.77-.62,1.72-1.33,2.85-2.13,1.29-.91,2.19-1.58,2.68-2,.73-.62,1.11-1.24,1.12-1.88,0-.35-.1-.63-.32-.84-.2-.18-.45-.27-.76-.28-.79-.02-1.73.41-2.82,1.27-.5.39-.81.59-.94.59-.09,0-.19-.06-.3-.17-.12-.11-.18-.24-.18-.39,0-.32.4-.76,1.17-1.32,1.25-.9,2.43-1.35,3.55-1.32.64.01,1.17.23,1.59.65s.6.89.59,1.45c-.02.98-.54,1.95-1.57,2.89-.44.41-1.24,1.03-2.41,1.85-2.81,1.96-4.63,3.41-5.45,4.35Z"/><path class="cls-1" d="M66.89,103.53c-.42.45-.74.81-.94,1.06-.2.25-.47.6-.79,1.05-1.43,2.05-2.46,3.74-3.11,5.06-.37.74-.62,1.38-.73,1.91.06.02.12.04.18.05s.12.02.17.03c.12.01.3.02.53,0,.1,0,.18,0,.25,0,.08,0,.14.04.18.09.05.05.07.11.06.17-.01.09-.08.16-.21.2-.15.05-.46.05-.94,0-.22-.03-.41-.07-.57-.14-.1-.04-.16-.09-.19-.14-.03-.05-.04-.13-.02-.23.05-.43.32-1.13.79-2.11.72-1.49,1.79-3.2,3.18-5.13.8-1.1,1.35-1.8,1.67-2.12.14-.14.3-.23.46-.25.13-.02.35,0,.67.03.35.04.57.09.67.14.11.06.16.14.15.24,0,.09-.05.15-.13.18-.07.04-.14.05-.22.04-.05,0-.17-.03-.37-.07-.07-.01-.14-.02-.23-.03-.13-.02-.3-.03-.52-.05Z"/><path class="cls-1" d="M68.8,106.41c-.27.16-.54.29-.8.39-.36.14-.59.2-.7.19-.11-.01-.16-.11-.14-.29,0-.06.03-.12.06-.16.03-.04.11-.07.22-.1.34-.1.83-.3,1.49-.61.3-.14.5-.2.62-.19.08,0,.14.05.19.14.03.05.05.11.04.17-.01.09-.1.23-.26.43-1.23,1.54-2.1,2.76-2.61,3.66-.12.22-.21.36-.26.41-.08.09-.15.13-.22.12-.07,0-.13-.06-.18-.15-.03-.05-.04-.1-.04-.16.02-.19.37-.79,1.05-1.8.63-.95,1.15-1.63,1.54-2.05Z"/><path class="cls-1" d="M72.54,106.87c-.27.16-.54.29-.8.39-.36.14-.59.2-.7.19-.11-.01-.16-.11-.14-.29,0-.06.03-.12.06-.16.03-.04.11-.07.22-.1.34-.1.83-.3,1.49-.61.3-.14.5-.2.62-.19.07,0,.14.05.19.14.03.05.05.11.04.17-.01.09-.1.23-.26.43-1.23,1.54-2.1,2.76-2.61,3.66-.12.22-.21.36-.26.41-.08.09-.15.13-.22.12s-.13-.06-.18-.15c-.03-.05-.04-.1-.04-.16.02-.19.37-.79,1.05-1.8.63-.95,1.15-1.63,1.54-2.05Z"/><path class="cls-1" d="M76.77,106.87c.18.1.31.24.39.41s.1.39.07.65c-.1.79-.51,1.6-1.23,2.42-.79.89-1.49,1.3-2.11,1.22-.31-.04-.52-.22-.63-.56-.07-.22-.09-.47-.06-.76.08-.7.43-1.42,1.04-2.14.32-.37.73-.74,1.23-1.11.53-.38.9-.56,1.11-.54.16.02.22.15.19.41ZM76.03,107.17c-.46.29-.88.66-1.25,1.11-.54.65-.86,1.3-.94,1.96-.02.2-.01.35.03.47.07.18.18.28.34.3.25.03.56-.12.95-.46.43-.37.79-.85,1.08-1.43.22-.44.35-.82.39-1.13.03-.22-.02-.42-.13-.59-.08-.12-.19-.2-.35-.22-.04,0-.08,0-.11-.01Z"/><path class="cls-1" d="M80,107.77c-.27.16-.54.29-.8.39-.36.14-.59.21-.7.19-.11-.01-.16-.11-.14-.29,0-.06.03-.12.06-.16.03-.04.11-.07.22-.1.34-.1.83-.3,1.49-.61.3-.14.5-.2.62-.19.07,0,.14.05.19.14.03.05.05.11.04.17-.01.09-.1.23-.26.43-1.23,1.54-2.1,2.76-2.61,3.66-.12.22-.21.36-.26.41-.08.09-.15.13-.22.12-.07,0-.13-.06-.18-.15-.03-.05-.04-.1-.04-.16.02-.19.37-.79,1.05-1.8.63-.95,1.15-1.63,1.54-2.05Z"/><path class="cls-1" d="M79.53,114.8c.42-.46.74-.81.94-1.06.21-.25.47-.6.79-1.05,1.43-2.05,2.46-3.73,3.11-5.05.37-.74.62-1.38.74-1.91-.07-.02-.13-.04-.19-.05-.06-.01-.12-.02-.17-.03-.12-.01-.3-.02-.53,0-.11,0-.19,0-.25,0-.07,0-.14-.04-.18-.09-.05-.05-.07-.11-.06-.17.01-.09.08-.16.21-.2.15-.05.46-.05.94,0,.22.03.41.07.57.14.1.04.17.09.19.14.02.05.03.12.02.23-.05.43-.32,1.13-.79,2.11-.73,1.49-1.79,3.2-3.18,5.12-.8,1.1-1.35,1.81-1.66,2.12-.15.15-.3.23-.47.25-.13.02-.35,0-.67-.03-.36-.04-.58-.09-.67-.13-.11-.06-.16-.14-.15-.25.01-.08.05-.15.13-.18.07-.03.14-.04.23-.03.05,0,.17.03.37.06.06.01.13.02.22.03.12.01.3.03.52.05Z"/><path class="cls-1" d="M175.14,102.92c-.3.54-.51.96-.65,1.26-.13.29-.3.7-.5,1.22-.87,2.34-1.46,4.23-1.75,5.67-.17.81-.25,1.49-.24,2.04.07,0,.13,0,.19,0,.06,0,.12,0,.18-.01.12-.02.29-.06.51-.12.1-.03.18-.05.24-.06.08,0,.14,0,.2.04.06.04.09.09.1.15.01.09-.04.17-.16.25-.13.09-.44.17-.91.23-.22.03-.42.03-.58,0-.1-.02-.18-.05-.22-.09-.04-.04-.07-.12-.08-.22-.06-.43.02-1.17.24-2.24.33-1.62.93-3.54,1.8-5.76.5-1.26.86-2.08,1.09-2.47.1-.18.23-.29.39-.35.12-.05.34-.09.65-.14.35-.05.58-.06.68-.03.12.03.19.09.21.2.01.08-.02.15-.08.21-.06.05-.13.08-.2.09-.05,0-.17.02-.38.03-.07,0-.14.01-.23.03-.13.02-.3.04-.51.08Z"/><path class="cls-1" d="M177.71,105.24c-.22.22-.45.41-.68.58-.31.23-.52.35-.63.36-.11.01-.18-.07-.21-.25,0-.06,0-.12.02-.17.02-.05.08-.1.19-.15.3-.18.73-.5,1.29-.96.25-.21.44-.32.55-.34.08,0,.15.02.22.08.05.04.07.1.08.15.01.09-.04.25-.15.48-.81,1.8-1.34,3.2-1.61,4.19-.07.24-.12.4-.15.46-.05.1-.12.16-.18.17s-.14-.02-.21-.1c-.04-.04-.07-.09-.07-.14-.03-.19.16-.86.57-2,.38-1.08.7-1.86.98-2.37Z"/><path class="cls-1" d="M181.43,104.75c-.22.22-.45.41-.68.58-.31.23-.52.35-.63.36-.11.02-.18-.07-.21-.25,0-.06,0-.12.02-.17.02-.05.08-.1.19-.15.3-.18.73-.5,1.29-.96.25-.21.44-.32.55-.34.07,0,.15.02.22.08.05.04.07.1.08.15.01.09-.04.25-.15.48-.81,1.8-1.34,3.2-1.61,4.2-.07.24-.12.4-.15.46-.05.1-.12.16-.18.17s-.14-.02-.21-.1c-.04-.04-.07-.09-.07-.14-.03-.19.17-.86.57-2,.38-1.08.7-1.86.98-2.37Z"/><path class="cls-1" d="M185.16,104.26c-.22.22-.45.41-.68.58-.31.23-.52.34-.63.36-.11.01-.18-.07-.21-.25,0-.06,0-.12.02-.17.02-.05.08-.1.19-.15.3-.18.73-.5,1.29-.96.25-.21.44-.32.55-.34.07,0,.15.02.22.08.05.04.07.09.08.15.01.09-.04.25-.15.48-.81,1.8-1.34,3.19-1.61,4.19-.07.24-.12.4-.15.46-.05.1-.12.16-.18.17-.07,0-.14-.02-.21-.1-.04-.04-.07-.09-.07-.14-.03-.19.17-.86.57-2,.38-1.08.7-1.86.98-2.37Z"/><path class="cls-1" d="M189.26,103.21c.2.05.36.15.48.3.12.15.19.36.22.61.1.79-.09,1.67-.59,2.65-.54,1.06-1.12,1.63-1.74,1.71-.31.04-.56-.09-.75-.38-.13-.19-.21-.43-.25-.73-.09-.7.07-1.48.48-2.33.21-.44.52-.9.92-1.38.42-.5.73-.77.94-.8.16-.02.26.09.29.35ZM188.62,103.68c-.37.4-.68.86-.94,1.39-.37.76-.5,1.47-.42,2.13.03.19.07.34.14.45.11.16.25.23.4.21.25-.03.51-.26.8-.68.32-.47.55-1.02.69-1.65.11-.48.14-.88.1-1.19-.03-.22-.12-.4-.28-.54-.11-.1-.24-.14-.39-.13-.04,0-.08.01-.11.02Z"/><path class="cls-1" d="M190.19,110.69c.3-.55.51-.97.65-1.26.14-.29.3-.7.5-1.22.87-2.34,1.46-4.23,1.75-5.67.17-.81.25-1.49.24-2.04-.07,0-.13,0-.2,0s-.12,0-.17.01c-.12.02-.29.06-.51.12-.1.03-.18.05-.24.06-.07,0-.14,0-.2-.04-.06-.04-.09-.09-.1-.15-.01-.09.04-.17.16-.25.13-.09.43-.17.91-.23.22-.03.42-.03.59,0,.11.01.18.04.22.09.03.04.06.11.07.22.06.43-.02,1.18-.24,2.24-.33,1.63-.94,3.54-1.81,5.75-.5,1.26-.86,2.09-1.08,2.47-.11.18-.24.29-.39.36-.12.05-.34.09-.65.13-.35.05-.58.06-.68.04-.12-.03-.19-.1-.21-.2-.01-.08.01-.16.08-.21.06-.05.13-.08.21-.09.05,0,.18-.02.37-.03.06,0,.13-.01.22-.02.12-.02.29-.04.52-.08Z"/><path class="cls-1" d="M51.65,142c-.32.53-.55.94-.7,1.23s-.33.69-.55,1.2c-.97,2.3-1.63,4.17-1.99,5.59-.21.8-.31,1.48-.32,2.02.07,0,.13.01.19.02s.12,0,.18,0c.12-.01.29-.04.52-.1.1-.03.18-.04.24-.05.08,0,.14.01.2.05.06.04.09.09.09.15,0,.09-.05.17-.17.24-.14.08-.44.15-.92.19-.22.02-.42.01-.58-.02-.1-.02-.17-.06-.21-.1s-.06-.12-.07-.23c-.04-.43.07-1.17.33-2.23.4-1.61,1.08-3.5,2.04-5.68.55-1.24.95-2.05,1.19-2.42.11-.17.25-.28.4-.34.12-.04.34-.08.66-.11.35-.03.58-.03.68,0,.12.03.19.1.2.21,0,.09-.02.15-.09.2-.06.05-.13.08-.21.08-.05,0-.18,0-.38.01-.07,0-.15,0-.23.02-.13.01-.3.03-.52.06Z"/><path class="cls-1" d="M54.13,144.42c-.23.21-.47.39-.71.55-.32.21-.54.32-.64.33-.11,0-.18-.08-.2-.26,0-.06,0-.12.03-.17.02-.04.09-.09.19-.14.31-.17.75-.47,1.33-.91.26-.2.45-.3.57-.31.07,0,.15.02.21.09.04.05.07.1.07.16,0,.09-.05.25-.17.47-.88,1.76-1.48,3.14-1.79,4.12-.08.24-.13.39-.17.45-.06.1-.12.16-.19.16s-.13-.03-.2-.11c-.04-.04-.06-.09-.07-.15-.02-.19.2-.85.65-1.98.42-1.06.78-1.83,1.08-2.32Z"/><path class="cls-1" d="M57.87,144.09c-.23.21-.47.39-.71.55-.32.21-.54.32-.64.33-.11.01-.18-.08-.2-.26,0-.06,0-.12.03-.17.03-.05.09-.09.19-.14.31-.16.75-.47,1.33-.91.26-.2.45-.3.56-.32.08,0,.15.03.21.09.04.05.07.1.07.16,0,.09-.05.25-.17.47-.88,1.76-1.48,3.14-1.79,4.12-.08.24-.13.39-.17.45-.06.1-.12.16-.19.16s-.14-.03-.2-.11c-.04-.04-.06-.09-.07-.14-.02-.19.2-.85.65-1.98.42-1.06.78-1.83,1.08-2.32Z"/><path class="cls-1" d="M58.88,151.06c.32-.54.55-.95.7-1.24s.33-.69.55-1.2c.97-2.3,1.63-4.16,1.99-5.59.21-.8.32-1.48.33-2.03-.07,0-.13-.01-.2-.01-.06,0-.12,0-.17,0-.12.01-.29.04-.52.1-.1.03-.18.04-.24.05-.08,0-.14,0-.2-.05-.06-.04-.09-.09-.09-.15,0-.09.05-.17.17-.24.14-.08.44-.15.92-.19.22-.02.42-.01.58.02.11.02.18.05.22.1.03.04.05.11.06.22.04.43-.07,1.17-.33,2.23-.4,1.61-1.08,3.5-2.05,5.67-.55,1.24-.94,2.05-1.18,2.42-.11.17-.25.28-.41.34-.12.04-.34.08-.66.11-.36.03-.58.03-.68,0-.12-.04-.19-.1-.2-.21,0-.09.02-.16.09-.21.06-.04.13-.07.21-.08.05,0,.18-.01.37-.02.06,0,.14,0,.23-.01.12-.01.3-.03.52-.06Z"/><path class="cls-1" d="M90.77,141.42c-.4.47-.7.84-.89,1.1-.19.26-.44.62-.74,1.09-1.33,2.11-2.28,3.85-2.86,5.2-.33.76-.55,1.41-.64,1.95.06.02.12.03.19.05s.12.02.18.02c.12,0,.3,0,.53-.01.1-.01.18-.01.25,0,.08,0,.14.03.19.08.05.05.07.1.07.16,0,.09-.07.16-.2.21-.15.06-.46.08-.93.04-.22-.02-.42-.05-.57-.11-.1-.04-.16-.08-.19-.13s-.04-.13-.03-.23c.03-.43.26-1.14.69-2.15.65-1.52,1.63-3.28,2.93-5.27.74-1.13,1.26-1.87,1.57-2.2.14-.15.29-.24.45-.27.13-.02.35-.02.67,0,.35.03.58.06.67.11.11.05.17.13.16.24,0,.09-.05.15-.12.19-.07.04-.14.05-.22.05-.05,0-.17-.02-.37-.05-.07,0-.14-.02-.23-.02-.13,0-.3-.02-.52-.02Z"/><path class="cls-1" d="M93.3,143.74c.19.09.32.22.41.39.08.17.11.39.1.65-.06.8-.43,1.62-1.12,2.47-.75.93-1.43,1.37-2.05,1.32-.31-.02-.53-.2-.66-.53-.08-.21-.12-.47-.1-.76.05-.71.37-1.43.94-2.18.3-.38.69-.77,1.18-1.17.51-.41.87-.6,1.08-.59.16.01.23.14.21.4ZM92.57,144.07c-.44.31-.84.7-1.2,1.17-.51.67-.79,1.34-.84,2-.01.2,0,.35.05.47.08.18.19.27.35.28.25.02.55-.15.93-.5.41-.39.75-.89,1.01-1.48.2-.45.31-.83.34-1.15.02-.22-.04-.42-.16-.58-.08-.12-.2-.19-.36-.2-.04,0-.08,0-.11,0Z"/><path class="cls-1" d="M96.57,144.48c-.26.17-.53.31-.79.43-.35.16-.58.23-.69.22-.11,0-.17-.1-.15-.29,0-.06.02-.12.05-.16.03-.04.1-.08.21-.11.33-.11.82-.34,1.46-.68.29-.15.49-.23.61-.22.08,0,.14.05.2.13.04.05.05.11.05.17,0,.09-.09.24-.24.44-1.15,1.6-1.96,2.86-2.43,3.78-.11.23-.19.37-.24.42-.07.09-.15.13-.21.13-.07,0-.13-.05-.18-.14-.03-.05-.05-.1-.04-.15.01-.19.33-.81.96-1.85.59-.98,1.07-1.68,1.44-2.12Z"/><path class="cls-1" d="M96.44,151.53c.4-.48.7-.85.89-1.11.19-.26.44-.62.73-1.09,1.33-2.11,2.28-3.84,2.86-5.19.34-.76.55-1.41.65-1.95-.07-.02-.13-.03-.19-.05-.06-.01-.12-.02-.17-.02-.12,0-.3,0-.53.02-.1.01-.19.01-.25,0-.08,0-.14-.03-.19-.08-.05-.05-.07-.1-.07-.16,0-.09.07-.16.2-.21.15-.06.46-.07.93-.04.23.02.42.05.57.12.1.04.17.08.2.13.03.04.04.12.03.23-.03.43-.26,1.15-.69,2.15-.66,1.53-1.63,3.28-2.94,5.27-.74,1.14-1.26,1.87-1.56,2.2-.14.15-.29.24-.46.27-.13.02-.35.02-.67,0-.36-.03-.58-.06-.67-.1-.11-.05-.17-.13-.16-.24,0-.09.05-.15.12-.19.07-.04.14-.05.22-.04.05,0,.18.02.37.04.06,0,.14.02.22.02.12,0,.3.02.53.03Z"/><path class="cls-1" d="M140.26,142.79c-.4.47-.7.84-.89,1.1s-.44.62-.74,1.09c-1.33,2.12-2.28,3.85-2.86,5.2-.33.76-.55,1.41-.64,1.95.06.02.12.03.18.04s.12.02.18.02c.12,0,.3,0,.53-.01.1-.01.18-.01.25,0,.07,0,.14.03.19.08.05.05.07.1.07.16,0,.09-.07.16-.2.21-.15.06-.46.07-.93.04-.23-.02-.42-.05-.57-.11-.1-.04-.16-.08-.19-.13-.03-.05-.04-.13-.03-.23.03-.43.26-1.14.69-2.15.65-1.52,1.63-3.28,2.93-5.27.74-1.13,1.26-1.87,1.57-2.2.14-.15.29-.24.45-.27.13-.02.35-.02.67,0,.35.03.58.06.67.11.12.05.17.13.16.24,0,.09-.05.15-.12.18-.07.04-.14.05-.22.05-.05,0-.17-.02-.37-.05-.07,0-.14-.02-.23-.02-.13,0-.3-.02-.52-.02Z"/><path class="cls-1" d="M142.3,145.58c-.26.17-.53.31-.79.43-.35.16-.58.23-.69.22-.11,0-.16-.1-.15-.29,0-.06.02-.12.06-.16.03-.04.1-.08.21-.11.33-.11.82-.34,1.46-.68.29-.15.49-.23.61-.22.08,0,.14.05.2.13.04.05.05.11.05.17,0,.09-.09.24-.24.44-1.15,1.6-1.96,2.86-2.43,3.78-.11.23-.19.36-.24.42-.08.09-.15.13-.21.13-.07,0-.13-.05-.18-.14-.03-.05-.05-.1-.04-.15.01-.19.33-.81.96-1.85.59-.98,1.07-1.68,1.44-2.12Z"/><path class="cls-1" d="M146.05,145.85c-.26.17-.53.31-.78.43-.35.16-.58.23-.69.22-.11,0-.16-.1-.15-.29,0-.06.02-.12.06-.16.03-.04.1-.08.21-.11.33-.11.82-.34,1.46-.68.29-.15.49-.23.61-.22.08,0,.14.05.2.13.04.05.05.11.05.17,0,.09-.09.24-.24.44-1.15,1.6-1.96,2.86-2.43,3.78-.11.23-.19.36-.24.42-.08.09-.15.13-.21.13-.07,0-.13-.05-.18-.14-.03-.05-.05-.1-.04-.15.01-.19.33-.81.96-1.85.59-.98,1.07-1.68,1.44-2.12Z"/><path class="cls-1" d="M145.93,152.9c.4-.48.7-.85.89-1.11.19-.26.44-.62.73-1.09,1.33-2.11,2.28-3.84,2.86-5.19.33-.76.55-1.41.65-1.95-.07-.02-.13-.04-.19-.05-.06-.01-.12-.02-.17-.02-.12,0-.3,0-.53.02-.1,0-.19.01-.25,0-.08,0-.14-.03-.19-.08-.05-.05-.07-.1-.07-.16,0-.09.07-.16.2-.21.15-.06.46-.07.93-.04.22.02.42.05.57.12.1.04.17.08.2.13.03.05.03.12.03.23-.03.43-.26,1.15-.69,2.15-.66,1.52-1.63,3.28-2.94,5.27-.74,1.14-1.26,1.87-1.56,2.2-.14.15-.29.24-.46.27-.13.02-.35.02-.67,0-.36-.03-.58-.06-.67-.1-.11-.05-.17-.13-.16-.24,0-.08.05-.15.12-.19.07-.03.14-.05.22-.04.05,0,.18.02.37.04.06,0,.14.02.22.02.12,0,.3.02.53.03Z"/><path class="cls-1" d="M177.5,141.71c-.25.57-.43,1-.54,1.31-.11.3-.24.72-.4,1.25-.68,2.4-1.11,4.33-1.29,5.79-.11.82-.13,1.5-.07,2.05.07,0,.13,0,.19,0,.06,0,.12-.01.18-.03.12-.03.29-.08.5-.16.09-.04.17-.07.24-.08.07-.02.14,0,.2.03s.1.08.11.14c.02.09-.03.17-.14.26-.12.1-.42.2-.89.3-.22.05-.41.07-.58.05-.11,0-.18-.04-.22-.07-.04-.04-.08-.11-.1-.22-.09-.42-.07-1.17.06-2.25.2-1.64.64-3.61,1.33-5.88.4-1.3.69-2.15.89-2.55.09-.18.21-.31.36-.38.12-.06.33-.12.64-.19.35-.07.57-.1.67-.08.12.02.2.08.22.18.02.08,0,.15-.06.21-.05.06-.12.09-.2.11-.05,0-.17.03-.37.06-.07.01-.14.03-.23.04-.13.03-.29.07-.51.13Z"/><path class="cls-1" d="M180.25,143.81c-.21.24-.42.45-.63.63-.29.25-.49.39-.6.41-.11.02-.19-.05-.23-.23-.01-.06-.01-.12,0-.17.02-.05.08-.1.17-.16.29-.2.69-.55,1.21-1.06.24-.23.41-.36.52-.38.07-.02.15,0,.22.07.05.04.08.09.09.15.02.09-.02.25-.11.49-.66,1.86-1.08,3.29-1.27,4.31-.05.25-.08.4-.11.47-.05.11-.1.17-.17.18-.07.01-.14-.01-.21-.08-.04-.04-.07-.08-.08-.14-.04-.19.1-.87.41-2.04.29-1.1.55-1.92.78-2.44Z"/><path class="cls-1" d="M184.25,142.44c.21.03.37.12.5.26.13.14.22.34.27.59.17.78.04,1.68-.38,2.69-.46,1.1-.99,1.71-1.59,1.84-.3.07-.56-.04-.78-.32-.14-.18-.24-.42-.31-.7-.15-.69-.05-1.48.29-2.36.18-.45.44-.94.8-1.45.38-.53.67-.82.87-.87.16-.03.26.07.32.32ZM183.65,142.96c-.34.42-.61.91-.82,1.46-.3.79-.38,1.51-.25,2.16.04.19.1.34.18.43.12.15.26.21.42.17.24-.05.49-.3.75-.74.29-.49.47-1.06.56-1.7.07-.49.07-.89,0-1.2-.05-.22-.15-.39-.32-.51-.11-.09-.25-.12-.4-.1-.04,0-.08.02-.11.02Z"/><path class="cls-1" d="M185.78,149.82c.25-.57.43-1.01.54-1.31.11-.31.25-.72.4-1.25.68-2.4,1.11-4.33,1.29-5.79.11-.82.13-1.5.08-2.05-.07,0-.13,0-.2,0-.06,0-.12.01-.17.03-.12.03-.29.08-.5.16-.1.04-.18.06-.24.08-.07.02-.14,0-.2-.03-.06-.03-.1-.08-.11-.14-.02-.09.03-.17.14-.26.12-.1.42-.2.89-.3.22-.05.42-.06.58-.05.11,0,.18.03.23.07.04.04.07.11.09.21.09.42.07,1.17-.06,2.25-.2,1.65-.65,3.61-1.34,5.88-.39,1.3-.69,2.15-.88,2.55-.09.19-.21.31-.36.39-.12.06-.33.12-.64.19-.35.08-.57.1-.67.09-.13-.02-.2-.08-.22-.18-.02-.08,0-.16.06-.22.05-.05.12-.09.2-.1.05-.01.17-.03.37-.06.06,0,.13-.02.22-.04.12-.03.29-.07.51-.12Z"/><path class="cls-1" d="M14.67,66.26c.19.08.34.2.43.36.1.17.14.38.14.64,0,.8-.31,1.65-.93,2.55-.68.98-1.32,1.47-1.94,1.47-.31,0-.54-.16-.69-.48-.1-.21-.15-.46-.15-.75,0-.71.26-1.46.78-2.25.27-.41.63-.82,1.09-1.25.48-.44.83-.67,1.04-.67.16,0,.24.13.24.38ZM13.97,66.64c-.42.34-.79.76-1.11,1.26-.46.71-.69,1.39-.69,2.06,0,.2.03.35.08.46.09.17.21.26.37.26.25,0,.54-.19.89-.57.38-.42.68-.94.9-1.55.17-.46.25-.85.25-1.17,0-.22-.07-.41-.2-.57-.09-.11-.22-.17-.37-.18h-.11Z"/><path class="cls-1" d="M16.18,68.84c.11,0,.24,0,.39.01.31.01.5.02.58.02.21,0,.35.02.41.07.06.04.1.12.1.24,0,.11-.03.19-.09.25-.04.03-.08.05-.13.05-.04,0-.09,0-.17-.01-.13-.01-.48-.02-1.05-.02-.35,0-.61.02-.78.06-.08.02-.15.03-.19.03-.1,0-.17-.05-.22-.14-.03-.05-.04-.1-.04-.16,0-.19.09-.3.26-.34.13-.03.44-.05.92-.05Z"/><path class="cls-1" d="M18.09,70.62c.6-.19,1.16-.28,1.66-.28.2,0,.36.04.48.12.11.07.16.16.16.26,0,.07-.02.13-.08.18-.05.05-.11.08-.17.08-.02,0-.05,0-.1-.02-.19-.05-.35-.08-.5-.08-.13,0-.29.01-.49.04-.07.01-.32.08-.75.19-.39.1-.62.16-.69.16-.1,0-.19-.05-.26-.15-.07-.09-.1-.18-.1-.28,0-.11.09-.25.28-.43.35-.34.69-.65,1.02-.93.31-.26.69-.55,1.14-.89.52-.38.88-.66,1.07-.84.29-.26.44-.52.44-.77,0-.14-.05-.26-.14-.34-.08-.07-.19-.11-.31-.11-.32,0-.7.18-1.14.54-.2.17-.33.25-.38.25-.04,0-.08-.02-.12-.06-.05-.04-.08-.09-.08-.16,0-.13.16-.31.47-.55.5-.38.98-.57,1.43-.57.26,0,.48.08.66.25.17.16.25.36.25.59,0,.4-.2.8-.61,1.19-.17.17-.5.43-.97.77-1.13.82-1.85,1.43-2.18,1.82Z"/><path class="cls-1" d="M24.25,66.57c-.61.53-1,.98-1.17,1.35.35-.14.66-.21.91-.21.29,0,.52.09.68.26.15.16.23.37.23.63,0,.59-.28,1.19-.84,1.79-.56.6-1.1.9-1.64.9-.31,0-.55-.14-.72-.43-.11-.19-.17-.41-.17-.66s.05-.45.16-.61c.09-.13.2-.2.34-.2.13,0,.19.05.19.15,0,.02-.01.06-.03.12-.04.1-.05.24-.05.42,0,.15.04.29.11.4.1.16.23.24.39.24.32,0,.66-.2,1.01-.61.39-.44.58-.89.58-1.33,0-.18-.04-.32-.12-.41-.08-.09-.21-.14-.38-.14s-.37.04-.6.13c-.05.02-.18.08-.39.19-.04.03-.08.04-.12.04-.07,0-.14-.04-.2-.13-.07-.1-.11-.18-.11-.26,0-.15.16-.43.47-.85.2-.27.44-.54.73-.82-.08-.11-.12-.19-.12-.25,0-.08.06-.14.17-.18.05-.02.26-.05.61-.1.4-.05.72-.08.97-.08s.41.02.51.05c.13.04.19.12.19.26,0,.17-.08.25-.25.25-.04,0-.11,0-.21-.01-.04,0-.08,0-.12,0-.17,0-.34,0-.51.02-.17.02-.33.04-.5.07Z"/><path class="cls-1" d="M28.01,66.57c-.61.53-1,.98-1.17,1.35.35-.14.66-.21.91-.21.29,0,.52.09.68.26.15.16.23.37.23.63,0,.59-.28,1.19-.84,1.79-.56.6-1.1.9-1.64.9-.31,0-.55-.14-.72-.43-.11-.19-.17-.41-.17-.66s.05-.45.16-.61c.09-.13.2-.2.34-.2.13,0,.19.05.19.15,0,.02-.01.06-.03.12-.04.1-.05.24-.05.42,0,.15.04.29.11.4.1.16.23.24.39.24.32,0,.66-.2,1.01-.61.39-.44.58-.89.58-1.33,0-.18-.04-.32-.12-.41-.08-.09-.21-.14-.38-.14s-.37.04-.6.13c-.05.02-.18.08-.39.19-.04.03-.08.04-.12.04-.07,0-.14-.04-.2-.13-.07-.1-.11-.18-.11-.26,0-.15.16-.43.47-.85.2-.27.44-.54.73-.82-.08-.11-.12-.19-.12-.25,0-.08.06-.14.17-.18.05-.02.26-.05.61-.1.4-.05.72-.08.97-.08s.41.02.51.05c.13.04.19.12.19.26,0,.17-.08.25-.25.25-.04,0-.11,0-.21-.01-.04,0-.08,0-.12,0-.17,0-.34,0-.51.02-.17.02-.33.04-.5.07Z"/><path class="cls-1" d="M16.55,104.2c.19.08.34.2.43.36.1.17.14.38.14.64,0,.8-.31,1.65-.93,2.55-.68.98-1.32,1.47-1.94,1.47-.31,0-.54-.16-.69-.48-.1-.21-.15-.46-.15-.75,0-.71.26-1.46.78-2.25.27-.41.63-.82,1.09-1.25.48-.44.83-.67,1.04-.67.16,0,.24.13.24.38ZM15.85,104.59c-.42.34-.79.76-1.11,1.26-.46.71-.69,1.39-.69,2.06,0,.2.03.35.08.46.09.17.21.26.37.26.25,0,.54-.19.89-.57.38-.42.68-.94.9-1.55.17-.46.25-.85.25-1.17,0-.22-.07-.41-.2-.57-.09-.11-.22-.17-.37-.18h-.11Z"/><path class="cls-1" d="M18.06,106.79c.11,0,.24,0,.39,0,.31.01.5.02.58.02.21,0,.35.02.41.07.06.04.1.12.1.24,0,.11-.03.19-.09.25-.04.03-.08.05-.13.05-.04,0-.09,0-.17,0-.13-.01-.48-.02-1.05-.02-.35,0-.61.02-.78.06-.08.02-.15.03-.19.03-.1,0-.17-.05-.22-.14-.03-.05-.04-.1-.04-.16,0-.19.09-.3.26-.34.13-.03.44-.05.92-.05Z"/><path class="cls-1" d="M22.54,104.71c-.25.19-.5.35-.75.48-.34.18-.56.27-.67.27-.12,0-.17-.09-.17-.27,0-.06.01-.12.04-.17.03-.04.1-.08.2-.12.32-.14.79-.4,1.41-.78.28-.18.48-.26.59-.26.08,0,.14.04.2.11.04.05.06.1.06.16,0,.09-.07.24-.21.46-1.04,1.68-1.75,2.99-2.15,3.95-.1.23-.17.38-.21.43-.07.1-.14.15-.2.15s-.13-.04-.19-.12c-.04-.05-.05-.1-.05-.15,0-.19.28-.83.83-1.91.52-1.02.94-1.76,1.28-2.22Z"/><path class="cls-1" d="M26.13,104.52c-.61.53-1,.98-1.17,1.35.35-.14.66-.21.91-.21.29,0,.52.09.68.26.15.16.23.37.23.63,0,.59-.28,1.19-.84,1.79-.56.6-1.1.9-1.64.9-.31,0-.55-.14-.72-.43-.11-.19-.17-.41-.17-.65s.05-.45.16-.61c.09-.13.2-.2.34-.2.13,0,.19.05.19.15,0,.02-.01.06-.03.12-.04.1-.05.24-.05.42,0,.15.04.29.11.4.1.16.23.24.39.24.32,0,.66-.2,1.01-.61.39-.44.58-.89.58-1.33,0-.18-.04-.32-.12-.41-.08-.09-.21-.14-.38-.14s-.37.04-.6.13c-.05.02-.18.08-.39.19-.04.02-.08.04-.12.04-.07,0-.14-.04-.2-.13-.07-.1-.11-.18-.11-.26,0-.15.16-.43.47-.85.2-.27.44-.54.73-.82-.08-.11-.12-.19-.12-.25,0-.08.06-.14.17-.18.05-.02.26-.05.61-.1.4-.05.72-.08.97-.08s.41.02.51.05c.13.04.19.12.19.26,0,.16-.08.25-.25.25-.04,0-.11,0-.21,0-.04,0-.08,0-.12,0-.17,0-.34,0-.51.02-.17.02-.33.04-.5.07Z"/><path class="cls-1" d="M18.43,141.2c.19.08.34.2.43.36.1.17.14.38.14.64,0,.8-.31,1.65-.93,2.55-.68.98-1.32,1.47-1.94,1.47-.31,0-.54-.16-.69-.48-.1-.21-.15-.46-.15-.75,0-.71.26-1.46.78-2.25.27-.41.63-.82,1.09-1.25.48-.44.83-.67,1.04-.67.16,0,.24.13.24.38ZM17.73,141.59c-.42.34-.79.76-1.11,1.26-.46.71-.69,1.39-.69,2.06,0,.2.03.35.08.46.09.17.21.26.37.26.25,0,.54-.19.89-.57.38-.42.68-.94.9-1.55.17-.46.25-.85.25-1.17,0-.22-.07-.41-.2-.57-.09-.11-.22-.17-.37-.18h-.11Z"/><path class="cls-1" d="M19.94,143.79c.11,0,.24,0,.39.01.31.01.5.02.58.02.21,0,.35.02.41.07.06.04.1.12.1.24,0,.11-.03.19-.09.25-.04.03-.08.05-.13.05-.04,0-.09,0-.17-.01-.13-.01-.48-.02-1.05-.02-.35,0-.61.02-.78.06-.08.02-.15.03-.19.03-.1,0-.17-.05-.22-.14-.03-.05-.04-.1-.04-.16,0-.19.09-.3.26-.34.13-.03.44-.05.92-.05Z"/><path class="cls-1" d="M24.26,142.94c.18.08.31.16.38.25.11.13.17.32.17.55,0,.58-.25,1.14-.74,1.68-.49.54-1,.81-1.51.81-.32,0-.58-.13-.78-.4-.14-.19-.21-.4-.21-.63,0-.38.15-.57.44-.57.18,0,.26.07.26.2,0,.03,0,.07-.01.11-.01.06-.02.12-.02.18,0,.17.04.3.12.39.09.1.2.14.33.14.3,0,.63-.21.98-.64.33-.41.5-.8.5-1.17,0-.19-.04-.33-.13-.44-.1-.11-.23-.17-.4-.17-.07,0-.14.01-.2.03-.08.03-.14.04-.19.04-.1,0-.16-.07-.16-.21,0-.12.04-.22.12-.3.05-.05.14-.09.29-.13.3-.08.55-.18.76-.31.13-.09.24-.2.32-.34.04-.08.06-.15.06-.24,0-.1-.03-.18-.08-.23-.06-.05-.14-.08-.26-.08-.19,0-.39.05-.6.15-.05.02-.18.1-.38.22-.05.04-.11.05-.18.05-.12,0-.18-.07-.18-.2,0-.12.09-.24.27-.37.42-.3.83-.45,1.23-.45.24,0,.44.07.61.22.18.16.26.35.26.56,0,.29-.13.56-.38.82-.14.14-.37.29-.69.46Z"/><path class="cls-1" d="M24.74,22.73c.18-.01.34.06.46.22.08.1.13.22.14.35.01.2-.16.48-.52.85-1.01,1.08-1.57,2.32-1.68,3.71-.03.26-.14.46-.32.6-.17.13-.34.2-.52.21-.4.02-.62-.22-.65-.73-.05-.81.34-1.88,1.15-3.22.33-.55.73-1.05,1.19-1.52.3-.31.54-.47.74-.48ZM27.79,22.56c.18-.01.33.06.46.22.08.1.13.22.14.35.01.2-.16.48-.52.85-1.01,1.08-1.57,2.32-1.68,3.71-.03.26-.14.46-.32.6-.17.13-.34.2-.52.21-.4.02-.62-.22-.65-.73-.05-.81.34-1.88,1.15-3.22.34-.56.74-1.06,1.19-1.52.3-.31.54-.47.74-.48Z"/><path class="cls-1" d="M33.24,32.76c.71-.67,1.36-1.03,1.96-1.06.37-.02.68.12.93.41.24.26.36.57.38.93.04.68-.14,1.53-.53,2.53-.44,1.11-1.11,2.15-2,3.14-.74.82-1.46,1.25-2.17,1.29-.26.01-.51-.02-.73-.1-.22-.08-.42-.22-.6-.4-.06.13-.1.21-.12.24-.13.33-.22.54-.28.61-.05.07-.14.11-.26.12-.16,0-.31-.07-.46-.25-.1-.12-.16-.25-.17-.39-.01-.25.42-1.52,1.3-3.81,1.24-3.21,2.69-6.4,4.38-9.6.68-1.31,1.1-2.07,1.26-2.3.17-.27.33-.41.49-.42.19-.01.37.08.53.26.1.12.16.26.17.43.01.18-.06.42-.21.71-.03.06-.28.53-.75,1.4-1.45,2.55-2.49,4.64-3.13,6.28ZM31.35,38.58c.14.08.29.12.43.11.76-.04,1.53-.75,2.31-2.12.36-.62.64-1.23.83-1.83.17-.54.25-.93.24-1.19,0-.18-.06-.3-.14-.38-.08-.08-.21-.11-.38-.1-.4.02-.88.33-1.41.91-.54.58-1.06,1.39-1.55,2.45-.24.51-.44.98-.61,1.42l-.15.37c.14.17.28.29.42.37Z"/><path class="cls-1" d="M41.88,35.5c-.73.97-1.31,1.69-1.75,2.16-.87.93-1.61,1.41-2.23,1.45-.3.02-.54-.08-.73-.29-.14-.17-.22-.38-.23-.65-.05-.95.44-2.24,1.47-3.87,1.05-1.66,1.83-2.51,2.34-2.54.14,0,.27.05.38.16.1.09.16.2.16.33.01.19-.03.36-.12.52-.09.15-.36.49-.81,1.02-.47.55-.9,1.13-1.29,1.76-.44.71-.66,1.23-.64,1.54.01.18.1.27.28.26.35-.02.98-.54,1.89-1.55.57-.64,1.02-1.18,1.33-1.61.07-.09.35-.53.85-1.3.45-.69.73-1.09.84-1.22.25-.32.48-.49.71-.5.14,0,.27.05.39.16.11.11.17.24.18.39.01.25-.14.69-.45,1.31-.38.75-.73,1.46-1.04,2.11-.5,1.01-.87,1.92-1.13,2.71.54-.36,1.03-.79,1.47-1.29.75-.83,1.19-1.45,1.35-1.85.15-.36.31-.55.48-.56.25-.01.38.1.39.35.03.47-.33,1.18-1.07,2.15-.88,1.16-2,2.17-3.34,3.02-.64,1.81-1.25,3.32-1.84,4.53-1.11,2.22-2.31,3.37-3.62,3.44-.54.03-.98-.15-1.33-.55-.27-.3-.42-.69-.45-1.18-.08-1.37.8-2.82,2.64-4.36.54-.45,1.34-1.03,2.41-1.72.43-.28.77-.51,1.02-.68.13-.41.35-.96.63-1.65.32-.74.6-1.41.84-2ZM39.75,40.81c-.9.53-1.82,1.26-2.74,2.19-.93.96-1.37,1.83-1.33,2.61,0,.17.07.3.17.41.14.15.32.22.53.21.66-.04,1.35-.77,2.07-2.19.12-.24.44-1.02.95-2.34.11-.27.23-.57.36-.89Z"/><path class="cls-1" d="M50.79,30.19c-.52.92-.99,1.94-1.41,3.06-.6,1.6-.88,2.79-.84,3.56.01.22.07.38.17.49.1.11.24.16.42.15.44-.02.95-.47,1.52-1.33.37-.53.69-1.06.97-1.59.15-.3.32-.46.52-.47.11,0,.21.03.3.1.08.08.11.15.12.23.02.33-.37,1.07-1.15,2.25-.94,1.41-1.83,2.14-2.68,2.19-.45.03-.83-.16-1.15-.56-.2-.25-.31-.62-.34-1.1-.06-1.06.18-2.32.71-3.76.13-.36.49-1.23,1.09-2.61-.23.08-.41.12-.53.12-.18.01-.35-.02-.5-.1-.2-.11-.31-.26-.32-.44-.01-.22.1-.4.35-.55.07-.04.39-.11.96-.23.21-.05.51-.15.91-.3.28-.57.73-1.35,1.37-2.34.36-.55.6-.91.74-1.07.2-.23.38-.35.53-.36.11,0,.23.05.35.17.11.11.17.22.18.33.01.23-.21.69-.66,1.4-.3.46-.52.83-.66,1.11.96-.32,1.65-.49,2.07-.51.48-.03.74.16.76.56.01.2-.06.36-.22.46-.08.06-.31.11-.68.17-.15,0-.8.2-1.96.61-.32.12-.63.23-.94.36Z"/><path class="cls-1" d="M53.92,35.98v.24c.02.19.08.36.19.49.24.31.61.45,1.11.43,1.1-.06,2.32-.98,3.66-2.74.24-.3.44-.46.62-.47.1,0,.19.04.27.13.06.07.09.13.09.19.02.34-.37.95-1.16,1.81-.62.68-1.29,1.24-2.02,1.69-.72.45-1.4.69-2.04.72-.66.04-1.19-.16-1.59-.6-.27-.3-.42-.72-.46-1.27-.08-1.48.53-2.97,1.84-4.48,1.07-1.22,2.02-1.86,2.86-1.91.23-.01.44.04.63.18.24.17.37.41.38.7.03.46-.16,1.05-.55,1.75-.81,1.46-2.08,2.5-3.84,3.14ZM54.15,34.93c.6-.25,1.07-.51,1.41-.79.59-.51,1.04-1.07,1.37-1.69.12-.22.17-.41.17-.58,0-.18-.1-.26-.26-.25-.23.01-.54.2-.95.57-.72.65-1.3,1.56-1.73,2.74Z"/><path class="cls-1" d="M72.04,29.77c.77-1.88,1.51-3.53,2.21-4.93.68-1.36,1.15-2.22,1.4-2.58.28-.39.55-.6.81-.61.14,0,.27.04.39.15.11.11.17.23.18.36.01.2-.12.55-.39,1.04-1.16,2.13-2.2,4.28-3.15,6.45-1.09,2.54-1.6,4.42-1.53,5.65.03.5.15.89.36,1.17.04.06.2.19.5.39.06.04.09.13.09.26,0,.18-.05.34-.18.49-.13.15-.28.23-.44.24-.2.01-.43-.1-.69-.33-.37-.33-.6-.72-.7-1.17-.04-.19-.09-.55-.15-1.07-.83,1.71-1.66,2.59-2.49,2.64-.48.03-.88-.22-1.21-.75-.21-.35-.33-.75-.36-1.21-.08-1.37.34-2.77,1.27-4.22.91-1.42,1.94-2.17,3.08-2.24.32-.02.65.07.99.27ZM71.65,30.87c-.25-.14-.46-.21-.63-.2-.74.04-1.41.53-2.02,1.48-.8,1.22-1.17,2.39-1.11,3.48,0,.13.04.25.1.36.12.21.28.31.49.3.31-.02.66-.34,1.07-.96.54-.82,1.03-1.79,1.47-2.9.15-.38.3-.76.45-1.13l.1-.26.07-.18Z"/><path class="cls-1" d="M75.1,34.77v.24c.02.19.08.36.19.49.24.31.61.45,1.11.43,1.1-.06,2.32-.98,3.66-2.74.24-.3.44-.46.62-.47.1,0,.19.04.27.13.06.07.09.13.09.19.02.34-.37.95-1.16,1.81-.62.68-1.29,1.24-2.02,1.69-.72.45-1.4.69-2.04.72-.66.04-1.19-.16-1.59-.6-.27-.3-.42-.72-.46-1.27-.08-1.48.53-2.97,1.84-4.48,1.07-1.22,2.02-1.86,2.86-1.91.23-.01.44.05.63.18.24.17.37.41.38.7.03.47-.16,1.05-.55,1.75-.81,1.45-2.08,2.5-3.84,3.14ZM75.33,33.73c.6-.25,1.07-.51,1.41-.79.59-.51,1.04-1.07,1.37-1.69.12-.22.17-.41.17-.58,0-.18-.1-.26-.27-.25-.23.01-.54.2-.94.57-.72.65-1.3,1.56-1.73,2.74Z"/><path class="cls-1" d="M85.91,28.5c.69-.04,1.06.3,1.1,1.03.04.64-.18,1.3-.64,1.98-.36.51-.68.78-.97.79-.25.01-.38-.12-.39-.4,0-.15.02-.27.08-.36.02-.04.12-.14.3-.32.15-.16.3-.39.45-.7.1-.21.15-.37.14-.5,0-.14-.09-.21-.25-.2-.18.01-.46.17-.82.48-.57.5-1.13,1.26-1.67,2.29-.55,1.07-.82,1.9-.78,2.5.01.19.08.36.2.5.18.22.41.32.69.3.55-.03,1.19-.41,1.9-1.14.61-.62,1.11-1.24,1.52-1.86.21-.34.4-.51.56-.52.1,0,.19.03.27.12.08.08.12.17.12.26.02.33-.36.98-1.14,1.97-1.24,1.55-2.4,2.35-3.48,2.42-.65.04-1.16-.17-1.53-.61-.27-.33-.41-.72-.44-1.19-.05-.91.27-1.99.95-3.24.66-1.19,1.45-2.16,2.37-2.92.54-.44,1.02-.67,1.44-.69Z"/><path class="cls-1" d="M93.58,27.74c.72-.04,1.1.38,1.15,1.25.07,1.17-.39,2.68-1.37,4.53-1.07,2.01-2.15,3.04-3.24,3.1-.51.03-.9-.19-1.16-.65-.14-.23-.21-.51-.23-.84-.06-1.12.25-2.37.95-3.73.65-1.26,1.44-2.26,2.38-2.99.55-.43,1.05-.65,1.52-.68ZM92.5,32.79c-.23-.16-.35-.29-.35-.39,0-.07.12-.27.39-.6.74-.93,1.09-1.67,1.06-2.21,0-.07-.03-.14-.08-.21-.08-.13-.19-.19-.34-.18-.28.02-.68.31-1.19.89-.66.74-1.16,1.5-1.48,2.26-.38.88-.56,1.59-.52,2.16,0,.15.06.28.14.39.12.15.27.22.45.21.42-.02.86-.37,1.3-1.02.2-.28.35-.56.47-.85.12-.29.17-.44.16-.44Z"/><path class="cls-1" d="M97.25,31.65c.69-.81,1.31-1.46,1.85-1.93.81-.71,1.36-1.07,1.65-1.08.14,0,.27.04.38.14.1.09.16.19.16.31,0,.17-.13.45-.41.84-.44.62-.74,1.15-.9,1.58,1.94-2.18,3.28-3.29,4.04-3.33.16,0,.3.03.42.12.13.1.2.23.21.38.01.25-.16.57-.51.98-1.56,1.81-2.31,3.26-2.25,4.35.03.45.12.76.29.95l.37.42c.08.08.12.17.12.3,0,.14-.04.28-.15.4-.12.15-.27.23-.44.24-.29.02-.57-.15-.83-.51-.32-.42-.5-.93-.54-1.53-.04-.8.14-1.62.55-2.46.14-.3.38-.7.72-1.2-.71.6-1.43,1.42-2.14,2.45-.49.7-.92,1.47-1.29,2.32-.18.41-.41.62-.68.63-.3.02-.46-.14-.48-.47-.02-.36.18-1.12.61-2.27.24-.66.55-1.35.92-2.09-1.43,1.24-2.47,2.88-3.11,4.91-.16.45-.39.68-.7.7-.14,0-.26-.04-.35-.14-.1-.1-.16-.22-.17-.37-.03-.52.21-1.47.71-2.85.52-1.46,1.13-2.79,1.83-3.97.48-.83.87-1.25,1.16-1.27.26-.01.4.12.42.4,0,.12-.14.44-.43.95-.52.95-.86,1.66-1.02,2.12Z"/><path class="cls-1" d="M108.2,28.41c.35-.25.61-.42.78-.52.35-.2.7-.3,1.04-.32.39-.02.68.07.89.29.21.21.32.54.35.99.04.61-.14,1.36-.52,2.25-.59,1.4-1.34,2.51-2.24,3.35-.76.7-1.49,1.07-2.19,1.11-.39.02-.78-.1-1.17-.38-1.06,2.5-2,5.04-2.8,7.62-.17.62-.39.93-.66.95-.13,0-.27-.07-.41-.24-.1-.12-.16-.25-.17-.4-.03-.47.46-2.05,1.47-4.72,1.56-4.12,3.07-7.56,4.52-10.31.3-.58.5-.98.61-1.2.27-.59.56-.89.85-.91.3-.02.46.15.48.51.01.2-.08.48-.27.83-.23.45-.41.82-.54,1.09ZM105.55,34.04c.21.19.45.28.74.26.82-.05,1.68-.82,2.59-2.33.34-.56.6-1.12.79-1.7.15-.46.22-.8.21-1.03,0-.16-.05-.27-.13-.35-.08-.08-.2-.11-.36-.1-.41.02-.9.34-1.46.94-.54.58-1.04,1.39-1.51,2.42-.43.95-.72,1.57-.86,1.87Z"/><path class="cls-1" d="M116.51,26.43c.72-.04,1.1.38,1.15,1.25.07,1.17-.39,2.68-1.37,4.53-1.07,2.01-2.15,3.04-3.24,3.1-.51.03-.9-.19-1.16-.65-.14-.23-.21-.51-.23-.84-.06-1.12.25-2.36.95-3.72.65-1.26,1.44-2.26,2.38-2.99.55-.43,1.05-.65,1.52-.68ZM115.42,31.49c-.23-.16-.35-.29-.35-.39,0-.07.12-.27.39-.6.74-.93,1.09-1.67,1.06-2.21,0-.07-.03-.14-.08-.21-.08-.13-.19-.19-.34-.18-.28.02-.68.31-1.19.89-.66.74-1.16,1.5-1.48,2.26-.38.88-.56,1.59-.52,2.16,0,.15.06.28.14.39.12.15.27.22.45.21.42-.02.86-.37,1.3-1.03.2-.28.35-.56.47-.84.12-.29.17-.44.16-.45Z"/><path class="cls-1" d="M123.71,25.77c.54-.03.96.04,1.24.22s.44.46.46.86c.03.52-.13,1.03-.49,1.53-.34.48-.88.88-1.6,1.2-.4.17-.73.27-1,.28-.37.02-.56-.13-.58-.46-.01-.22.08-.39.29-.52.05-.03.34-.12.88-.27.32-.09.61-.26.87-.51.23-.21.33-.44.32-.68-.01-.18-.07-.32-.18-.4s-.27-.12-.48-.1c-.51.03-1.06.27-1.65.71-.68.5-1.01,1.08-.97,1.72.03.46.29,1.01.79,1.67.56.72.86,1.33.88,1.85.04.77-.26,1.4-.92,1.88-.41.3-.88.46-1.41.49-.84.05-1.5-.22-1.97-.8-.33-.41-.51-.91-.55-1.5-.04-.68.1-1.27.43-1.75.21-.32.44-.49.68-.5.22-.01.33.07.34.24,0,.07-.03.18-.1.32-.18.39-.26.84-.23,1.35.02.43.2.79.52,1.07.29.25.61.36.96.34.34-.02.6-.15.78-.39.15-.2.21-.45.19-.75-.02-.37-.26-.83-.71-1.4-.62-.77-.96-1.49-.99-2.15-.05-.88.38-1.68,1.3-2.41.89-.7,1.86-1.08,2.89-1.14Z"/><path class="cls-1" d="M128.02,26.38c.15,0,.28.04.38.15.08.09.12.19.12.28,0,.16-.1.43-.34.81-.83,1.46-1.42,2.67-1.75,3.6-.36.96-.67,1.95-.93,2.96-.12.45-.32.68-.62.7-.18,0-.32-.05-.43-.19-.1-.11-.16-.23-.17-.36-.01-.26.22-1.16.69-2.68.37-1.2,1.01-2.54,1.91-4.02.29-.48.51-.81.66-.97.15-.18.31-.27.47-.28ZM130.24,21.36c.39-.02.6.17.63.57.02.37-.15.79-.51,1.26-.34.45-.69.69-1.03.71-.17,0-.31-.04-.42-.16-.11-.11-.17-.25-.18-.41-.02-.42.18-.88.62-1.38.32-.37.62-.56.89-.58Z"/><path class="cls-1" d="M132.91,25.51c-.52.92-.99,1.94-1.41,3.06-.6,1.6-.88,2.79-.84,3.56.01.22.07.38.17.49.1.11.24.16.42.15.44-.03.95-.47,1.52-1.33.37-.53.69-1.06.97-1.59.15-.3.32-.45.52-.46.11,0,.21.03.3.1.08.08.11.15.12.23.02.32-.37,1.07-1.15,2.24-.94,1.41-1.83,2.14-2.68,2.19-.45.03-.83-.16-1.15-.55-.2-.25-.31-.62-.34-1.1-.06-1.06.18-2.32.71-3.76.13-.36.49-1.23,1.09-2.61-.23.08-.41.12-.53.12-.18,0-.35-.02-.5-.1-.2-.11-.31-.26-.32-.44-.01-.22.1-.4.35-.55.07-.04.39-.11.96-.23.21-.05.51-.15.91-.3.28-.57.73-1.35,1.37-2.34.36-.55.6-.91.74-1.07.2-.23.38-.35.53-.36.11,0,.23.05.35.16.11.11.17.22.18.33.01.23-.21.69-.66,1.4-.3.46-.52.83-.66,1.11.96-.32,1.65-.49,2.07-.51.48-.03.74.16.76.56.01.2-.06.36-.22.46-.08.06-.31.11-.68.17-.15,0-.8.2-1.96.61-.32.11-.63.23-.94.36Z"/><path class="cls-1" d="M138.16,25.81c.15,0,.28.04.38.15.08.09.12.19.12.28,0,.16-.1.43-.34.81-.83,1.46-1.42,2.67-1.75,3.6-.36.96-.67,1.95-.93,2.96-.12.45-.32.68-.62.7-.18,0-.32-.05-.43-.19-.1-.11-.16-.23-.17-.36-.01-.26.22-1.16.69-2.68.37-1.2,1.01-2.54,1.91-4.02.29-.48.51-.81.66-.97.15-.18.31-.27.47-.28ZM140.38,20.78c.39-.02.6.17.63.57.02.37-.15.79-.51,1.26-.34.45-.69.69-1.03.71-.17,0-.31-.04-.42-.16-.11-.11-.17-.25-.18-.41-.02-.42.18-.88.62-1.38.32-.37.62-.56.89-.58Z"/><path class="cls-1" d="M143.31,24.91c.72-.04,1.1.38,1.15,1.25.07,1.17-.39,2.68-1.37,4.53-1.07,2.01-2.15,3.04-3.24,3.1-.51.03-.9-.19-1.16-.65-.14-.23-.21-.51-.23-.84-.06-1.12.25-2.37.95-3.73.65-1.26,1.44-2.26,2.38-2.99.55-.43,1.05-.65,1.52-.68ZM142.22,29.96c-.23-.16-.35-.29-.35-.39,0-.07.13-.27.39-.6.74-.93,1.09-1.67,1.06-2.21,0-.07-.03-.14-.08-.21-.08-.13-.19-.19-.34-.18-.28.02-.68.31-1.19.89-.66.74-1.16,1.5-1.48,2.26-.38.88-.56,1.59-.52,2.16,0,.15.05.28.14.39.12.15.27.22.45.21.42-.02.85-.37,1.3-1.02.2-.28.35-.56.47-.85.12-.29.17-.44.16-.44Z"/><path class="cls-1" d="M147.14,28.68c.11-.11.21-.22.31-.33,1.73-1.89,2.91-2.86,3.53-2.89.34-.02.52.16.55.54.01.26-.12.58-.41.96-1.57,2.05-2.3,3.82-2.22,5.32.03.48.19.94.47,1.36.13.2.2.35.21.46,0,.11-.04.21-.14.31-.11.13-.24.2-.4.21-.36.02-.68-.19-.95-.63-.26-.42-.41-.93-.44-1.55-.07-1.18.31-2.52,1.12-4.01-1.15.83-2.18,2.25-3.1,4.24-.24.48-.5.73-.8.75-.15,0-.28-.04-.38-.14-.13-.12-.2-.27-.21-.46-.03-.47.44-1.75,1.41-3.82.52-1.12.93-1.94,1.23-2.45.31-.5.58-.76.81-.77.11,0,.23.04.34.14.13.12.2.25.21.41.01.19-.1.48-.33.85-.34.56-.61,1.06-.81,1.51Z"/><path class="cls-1" d="M158.9,15.09c.41-.02.63.22.66.74.04.8-.34,1.87-1.15,3.21-.33.55-.73,1.05-1.19,1.52-.3.31-.55.47-.74.48-.18.01-.34-.06-.46-.22-.08-.1-.13-.22-.14-.36-.01-.19.16-.47.52-.83,1.01-1.09,1.57-2.33,1.68-3.71.03-.26.14-.46.32-.61.17-.12.34-.19.5-.2ZM161.95,14.92c.41-.02.63.22.66.74.04.8-.34,1.87-1.15,3.21-.33.55-.73,1.05-1.19,1.52-.3.31-.55.47-.74.48-.18.01-.34-.06-.46-.22-.08-.1-.13-.22-.14-.36-.01-.19.16-.47.52-.83,1.02-1.09,1.58-2.33,1.68-3.71.03-.26.14-.46.32-.61.17-.12.34-.19.5-.2Z"/></svg>