<?xml version="1.0" encoding="UTF-8"?><svg id="Layer_1" xmlns="http://www.w3.org/2000/svg" viewBox="0 0 405.74 296.47"><defs><style>.cls-1{fill:#4d4d4d;}.cls-2{fill:none;stroke:#ccc;stroke-linecap:round;stroke-miterlimit:10;}.cls-3{fill:#333;}</style></defs><rect class="cls-3" x="54.14" y="68.5" width="5.21" height="194.2"/><rect class="cls-3" x="48.99" y="68.5" width="5.21" height="194.2"/><rect class="cls-3" x="69.61" y="68.5" width="5.21" height="194.2"/><rect class="cls-3" x="85.08" y="68.5" width="5.21" height="194.2"/><rect class="cls-3" x="115.09" y="68.5" width="5.21" height="194.2"/><rect class="cls-3" x="130.56" y="68.5" width="5.21" height="194.2"/><rect class="cls-3" x="150.67" y="68.5" width="5.21" height="194.2"/><rect class="cls-3" x="155.82" y="68.5" width="5.21" height="194.2"/><rect class="cls-3" x="166.13" y="68.5" width="5.21" height="194.2"/><rect class="cls-3" x="171.29" y="68.5" width="5.21" height="194.2"/><rect class="cls-3" x="181.6" y="68.5" width="5.21" height="194.2"/><rect class="cls-3" x="186.14" y="68.5" width="5.21" height="194.2"/><rect class="cls-3" x="191.3" y="68.5" width="5.21" height="194.2"/><rect class="cls-3" x="196.46" y="68.5" width="5.21" height="194.2"/><rect class="cls-3" x="206.77" y="68.5" width="5.21" height="194.2"/><rect class="cls-3" x="211.92" y="68.5" width="5.21" height="194.2"/><rect class="cls-3" x="222.23" y="68.5" width="5.21" height="194.2"/><rect class="cls-3" x="236.95" y="68.5" width="5.21" height="194.2"/><rect class="cls-3" x="242.11" y="68.5" width="5.21" height="194.2"/><rect class="cls-3" x="247.26" y="68.5" width="5.21" height="194.2"/><rect class="cls-3" x="262.73" y="68.5" width="5.21" height="194.2"/><rect class="cls-3" x="267.88" y="68.5" width="5.21" height="194.2"/><rect class="cls-3" x="278.2" y="68.5" width="5.21" height="194.2"/><rect class="cls-3" x="283.35" y="68.5" width="5.21" height="194.2"/><rect class="cls-3" x="287.92" y="68.5" width="5.21" height="194.2"/><rect class="cls-3" x="298.23" y="68.5" width="5.21" height="194.2"/><rect class="cls-3" x="312.86" y="68.5" width="5.21" height="194.2"/><rect class="cls-3" x="323.17" y="68.5" width="5.21" height="194.2"/><rect class="cls-3" x="328.33" y="68.5" width="5.21" height="194.2"/><rect class="cls-3" x="338.21" y="68.5" width="5.21" height="194.2"/><rect class="cls-3" x="343.37" y="68.5" width="5.21" height="194.2"/><rect class="cls-3" x="348.52" y="68.5" width="5.21" height="194.2"/><rect class="cls-3" x="353.68" y="68.5" width="5.21" height="194.2"/><rect class="cls-3" x="358.84" y="68.5" width="5.21" height="194.2"/><line class="cls-2" x1="59.53" y1="66" x2="59.53" y2="264.2"/><line class="cls-2" x1="64.61" y1="66" x2="64.61" y2="264.2"/><line class="cls-2" x1="69.68" y1="66" x2="69.68" y2="264.2"/><line class="cls-2" x1="74.76" y1="66" x2="74.76" y2="264.2"/><line class="cls-2" x1="84.91" y1="66" x2="84.91" y2="264.2"/><line class="cls-2" x1="79.83" y1="66" x2="79.83" y2="264.2"/><line class="cls-2" x1="54.46" y1="66" x2="54.46" y2="264.2"/><line class="cls-2" x1="115.36" y1="66" x2="115.36" y2="264.2"/><line class="cls-2" x1="105.21" y1="66" x2="105.21" y2="264.2"/><line class="cls-2" x1="125.51" y1="66" x2="125.51" y2="264.2"/><line class="cls-2" x1="100.13" y1="66" x2="100.13" y2="264.2"/><line class="cls-2" x1="120.43" y1="66" x2="120.43" y2="264.2"/><line class="cls-2" x1="95.06" y1="66" x2="95.06" y2="264.2"/><line class="cls-2" x1="89.98" y1="66" x2="89.98" y2="264.2"/><line class="cls-2" x1="130.58" y1="66" x2="130.58" y2="264.2"/><line class="cls-2" x1="150.89" y1="66" x2="150.89" y2="264.2"/><line class="cls-2" x1="145.81" y1="66" x2="145.81" y2="264.2"/><line class="cls-2" x1="135.66" y1="66" x2="135.66" y2="264.2"/><line class="cls-2" x1="161.04" y1="66" x2="161.04" y2="264.2"/><line class="cls-2" x1="140.74" y1="66" x2="140.74" y2="264.2"/><line class="cls-2" x1="110.28" y1="66" x2="110.28" y2="264.2"/><line class="cls-2" x1="155.96" y1="66" x2="155.96" y2="264.2"/><line class="cls-2" x1="171.19" y1="66" x2="171.19" y2="264.2"/><line class="cls-2" x1="186.41" y1="66" x2="186.41" y2="264.2"/><line class="cls-2" x1="201.64" y1="66" x2="201.64" y2="264.2"/><line class="cls-2" x1="196.56" y1="66" x2="196.56" y2="264.2"/><line class="cls-2" x1="191.49" y1="66" x2="191.49" y2="264.2"/><line class="cls-2" x1="166.11" y1="66" x2="166.11" y2="264.2"/><line class="cls-2" x1="181.34" y1="66" x2="181.34" y2="264.2"/><line class="cls-2" x1="176.26" y1="66" x2="176.26" y2="264.2"/><line class="cls-2" x1="211.79" y1="66" x2="211.79" y2="264.2"/><line class="cls-2" x1="216.86" y1="66" x2="216.86" y2="264.2"/><line class="cls-2" x1="221.94" y1="66" x2="221.94" y2="264.2"/><line class="cls-2" x1="227.01" y1="66" x2="227.01" y2="264.2"/><line class="cls-2" x1="237.16" y1="66" x2="237.16" y2="264.2"/><line class="cls-2" x1="232.09" y1="66" x2="232.09" y2="264.2"/><line class="cls-2" x1="206.71" y1="66" x2="206.71" y2="264.2"/><line class="cls-2" x1="267.61" y1="66" x2="267.61" y2="264.2"/><line class="cls-2" x1="257.46" y1="66" x2="257.46" y2="264.2"/><line class="cls-2" x1="277.77" y1="66" x2="277.77" y2="264.2"/><line class="cls-2" x1="252.39" y1="66" x2="252.39" y2="264.2"/><line class="cls-2" x1="272.69" y1="66" x2="272.69" y2="264.2"/><line class="cls-2" x1="247.31" y1="66" x2="247.31" y2="264.2"/><line class="cls-2" x1="242.24" y1="66" x2="242.24" y2="264.2"/><line class="cls-2" x1="282.84" y1="66" x2="282.84" y2="264.2"/><line class="cls-2" x1="303.14" y1="66" x2="303.14" y2="264.2"/><line class="cls-2" x1="298.07" y1="66" x2="298.07" y2="264.2"/><line class="cls-2" x1="287.92" y1="66" x2="287.92" y2="264.2"/><line class="cls-2" x1="313.29" y1="66" x2="313.29" y2="264.2"/><line class="cls-2" x1="292.99" y1="66" x2="292.99" y2="264.2"/><line class="cls-2" x1="262.54" y1="66" x2="262.54" y2="264.2"/><line class="cls-2" x1="308.22" y1="66" x2="308.22" y2="264.2"/><line class="cls-2" x1="323.44" y1="66" x2="323.44" y2="264.2"/><line class="cls-2" x1="338.67" y1="66" x2="338.67" y2="264.2"/><line class="cls-2" x1="353.89" y1="66" x2="353.89" y2="264.2"/><line class="cls-2" x1="348.82" y1="66" x2="348.82" y2="264.2"/><line class="cls-2" x1="343.74" y1="66" x2="343.74" y2="264.2"/><line class="cls-2" x1="318.37" y1="66" x2="318.37" y2="264.2"/><line class="cls-2" x1="333.59" y1="66" x2="333.59" y2="264.2"/><line class="cls-2" x1="328.52" y1="66" x2="328.52" y2="264.2"/><line class="cls-2" x1="358.97" y1="66" x2="358.97" y2="264.2"/><line class="cls-2" x1="364.04" y1="66" x2="364.04" y2="264.2"/><path class="cls-1" d="M271.69,42.68c-1.33.18-2.26.25-2.79.21-.36-.03-.52-.16-.5-.39,0-.12.06-.21.14-.29.08-.08.18-.11.28-.1.04,0,.11.01.2.03.06.02.13.03.22.03.3.02.7.02,1.21-.02.64-.05,1.11-.1,1.42-.16.17-.03.32-.04.43-.03.26.02.38.17.36.46-.02.19-.15.4-.39.62-1.82,1.66-3.27,3.32-4.36,4.98-.26.4-.43.64-.5.71-.13.13-.26.19-.39.18-.07,0-.13-.04-.18-.1-.06-.07-.09-.14-.08-.22.02-.25.3-.74.83-1.48.7-.97,1.54-1.94,2.51-2.92.58-.59,1.11-1.09,1.61-1.51Z"/><path class="cls-1" d="M271.93,48.29c.84-.19,1.6-.26,2.29-.21.27.02.48.09.64.22.14.11.2.23.19.38,0,.09-.05.17-.12.24s-.16.1-.24.09c-.03,0-.07-.01-.13-.03-.25-.09-.47-.14-.68-.16-.18-.01-.4-.01-.67,0-.09,0-.44.07-1.04.18-.54.1-.85.14-.95.14-.14-.01-.25-.09-.34-.23-.08-.13-.12-.26-.11-.39.01-.15.15-.33.43-.56.51-.43,1.01-.81,1.48-1.15.45-.32,1-.68,1.65-1.09.75-.46,1.26-.8,1.55-1.02.43-.32.66-.65.68-1,.02-.19-.03-.35-.15-.47-.1-.11-.24-.17-.41-.18-.44-.04-.97.17-1.61.61-.29.2-.47.3-.54.29-.05,0-.1-.04-.16-.1-.06-.06-.09-.14-.08-.22.01-.17.25-.41.7-.69.72-.46,1.39-.67,2.01-.62.35.03.64.17.86.42.21.24.3.51.28.82-.04.54-.36,1.06-.96,1.55-.26.21-.72.53-1.4.95-1.62,1-2.68,1.74-3.16,2.24Z"/><path class="cls-1" d="M280.3,46.72c-.06.12-.23.41-.5.88-.46.9-.74,1.49-.85,1.77-.06.16-.12.27-.19.33-.06.06-.15.08-.27.07-.12,0-.21-.06-.28-.15-.06-.08-.09-.18-.08-.28.03-.37.43-1.22,1.19-2.58-.72.02-1.28.1-1.7.24-.13.04-.25.06-.33.05-.2-.02-.28-.18-.25-.48.01-.18.1-.35.25-.51.3-.29.8-.74,1.5-1.33.86-.72,1.63-1.3,2.32-1.74.59-.38,1.01-.56,1.26-.54.11,0,.21.06.29.16.07.08.1.17.09.26,0,.12-.1.29-.26.52-.03.04-.21.29-.54.74-.42.58-.83,1.19-1.21,1.83.34,0,.57.02.68.03.29.02.42.14.4.36-.01.19-.1.32-.27.39-.07.03-.28.03-.62,0-.1,0-.31-.02-.64-.03ZM279.79,46c.61-.99,1.19-1.81,1.72-2.47-.53.25-1.19.69-1.97,1.34-.56.47-1.02.89-1.36,1.25.72-.09,1.25-.13,1.61-.12Z"/><path class="cls-1" d="M282.16,49.11c.84-.19,1.6-.26,2.29-.21.27.02.48.09.64.22.14.11.2.23.19.38,0,.09-.05.17-.12.24s-.15.1-.24.09c-.03,0-.07-.01-.13-.03-.25-.09-.47-.14-.68-.16-.18-.01-.4-.02-.67,0-.09,0-.44.07-1.04.18-.54.1-.85.15-.95.14-.14-.01-.25-.09-.34-.23-.08-.13-.12-.26-.11-.39.01-.15.15-.33.43-.56.51-.43,1.01-.81,1.48-1.15.45-.32,1-.68,1.65-1.09.75-.46,1.26-.8,1.55-1.02.43-.32.66-.65.68-1,.02-.19-.04-.35-.15-.47-.1-.11-.24-.17-.41-.18-.44-.04-.97.17-1.61.61-.29.2-.47.3-.54.29-.05,0-.1-.04-.16-.1-.06-.06-.09-.14-.09-.22.01-.17.25-.41.7-.69.72-.46,1.39-.67,2.01-.62.36.03.64.17.86.42.21.24.3.51.28.82-.04.54-.36,1.06-.96,1.55-.26.21-.72.53-1.4.95-1.62,1-2.68,1.74-3.16,2.24Z"/><path class="cls-1" d="M290.52,47.54c-.06.12-.23.41-.5.88-.46.9-.74,1.49-.85,1.77-.06.16-.12.27-.19.33-.06.06-.15.08-.27.07-.12,0-.21-.06-.28-.15-.06-.08-.09-.18-.08-.28.03-.37.43-1.22,1.19-2.58-.72.02-1.28.1-1.7.24-.13.04-.24.06-.33.05-.19-.02-.28-.18-.25-.48.01-.18.1-.35.25-.51.3-.29.8-.74,1.5-1.33.86-.72,1.64-1.3,2.32-1.74.59-.38,1.01-.56,1.26-.54.11,0,.21.06.3.16.07.08.1.17.09.26,0,.12-.1.29-.26.52-.03.04-.21.29-.54.74-.42.58-.83,1.19-1.21,1.83.34,0,.57.02.68.03.29.02.42.14.41.36-.02.19-.1.32-.27.39-.07.03-.28.03-.62,0-.1,0-.31-.02-.64-.03ZM290.01,46.82c.61-.99,1.19-1.81,1.72-2.47-.53.25-1.19.69-1.97,1.34-.56.47-1.02.89-1.36,1.25.72-.09,1.25-.13,1.61-.12Z"/><path class="cls-1" d="M292.38,49.94c.84-.19,1.6-.26,2.29-.21.27.02.48.09.64.22.14.11.2.23.19.38,0,.09-.05.17-.12.24-.07.07-.16.1-.24.09-.03,0-.07-.01-.13-.03-.25-.09-.47-.14-.68-.16-.18-.01-.4-.02-.67,0-.09,0-.44.07-1.04.18-.54.1-.85.14-.95.14-.14-.01-.25-.09-.34-.23-.08-.13-.12-.26-.11-.39.01-.15.15-.33.43-.56.51-.43,1.01-.81,1.48-1.15.45-.32,1-.68,1.65-1.09.75-.46,1.26-.8,1.55-1.02.43-.32.66-.65.68-1,.02-.19-.04-.35-.15-.47-.1-.11-.24-.17-.41-.18-.44-.04-.97.17-1.61.61-.29.2-.47.3-.54.29-.05,0-.1-.04-.16-.1-.06-.06-.09-.14-.08-.22.01-.17.25-.41.69-.69.72-.46,1.39-.67,2.01-.62.36.03.64.17.86.41.21.24.3.51.28.82-.04.54-.36,1.06-.96,1.55-.26.21-.72.53-1.4.95-1.62,1-2.68,1.74-3.16,2.24Z"/><path class="cls-1" d="M300.94,48.19c-.7.28-1.25.4-1.64.37-.38-.03-.67-.22-.86-.55-.14-.24-.2-.52-.17-.84.07-.84.5-1.61,1.31-2.32.73-.65,1.46-.94,2.17-.88.41.03.73.2.95.51.19.27.28.59.25.98-.07.84-.45,1.77-1.13,2.78-.37.55-.94,1.18-1.7,1.89-.85.8-1.39,1.2-1.64,1.18-.07,0-.13-.04-.18-.1-.04-.06-.06-.12-.06-.18,0-.12.12-.25.33-.4.97-.69,1.76-1.49,2.37-2.42ZM301.44,47.36c.4-.67.61-1.24.65-1.7.03-.33-.01-.58-.12-.76-.11-.17-.28-.27-.52-.29-.5-.04-1.01.21-1.54.75-.52.53-.8,1.08-.84,1.64-.02.25.02.45.13.58.11.14.28.21.52.23.32.03.71-.04,1.16-.2.34-.13.53-.22.56-.26Z"/><path class="cls-1" d="M307.16,45.15c.25.12.44.3.55.54.11.24.15.53.12.88-.09,1.08-.6,2.2-1.55,3.36-1.03,1.25-1.96,1.85-2.8,1.78-.42-.03-.71-.28-.89-.73-.11-.29-.15-.64-.12-1.04.08-.96.51-1.95,1.3-2.97.41-.52.95-1.05,1.62-1.58.7-.55,1.19-.82,1.48-.79.22.02.32.2.29.54ZM306.17,45.6c-.61.42-1.16.95-1.65,1.59-.71.91-1.09,1.82-1.17,2.72-.02.27,0,.48.06.64.1.24.26.37.48.39.34.03.76-.2,1.27-.68.57-.53,1.03-1.2,1.39-2,.28-.61.44-1.13.47-1.56.02-.3-.05-.57-.21-.8-.11-.16-.28-.25-.48-.28-.05,0-.1,0-.15-.01Z"/><path class="cls-1" d="M312.58,45.97c-1.33.18-2.26.25-2.79.21-.36-.03-.52-.16-.5-.39,0-.12.06-.21.14-.29.08-.08.18-.11.28-.1.04,0,.11.01.2.03.06.01.13.03.22.03.3.02.7.02,1.21-.02.64-.05,1.11-.1,1.42-.16.17-.03.32-.04.43-.03.26.02.38.17.36.46-.02.19-.14.4-.39.62-1.82,1.66-3.27,3.32-4.36,4.98-.26.4-.43.64-.5.71-.13.13-.26.19-.39.18-.07,0-.13-.04-.18-.09-.06-.07-.09-.14-.08-.22.02-.25.3-.74.83-1.48.71-.97,1.54-1.94,2.51-2.92.58-.59,1.11-1.09,1.61-1.51Z"/><path class="cls-1" d="M316.39,48.26c.24.12.4.25.49.38.14.19.19.45.17.77-.06.79-.46,1.53-1.18,2.21-.73.68-1.44.99-2.15.93-.43-.04-.77-.24-1.02-.63-.17-.27-.25-.57-.22-.88.04-.52.26-.76.66-.73.24.02.35.12.34.3,0,.04-.01.09-.03.15-.02.08-.04.16-.04.25-.02.23.02.41.13.54.12.14.26.22.43.23.41.03.88-.22,1.41-.76.5-.52.77-1.03.81-1.53.02-.25-.03-.46-.13-.61-.12-.17-.29-.26-.53-.28-.09,0-.19,0-.28.02-.11.03-.2.04-.26.03-.14-.01-.2-.11-.19-.3.01-.17.08-.3.2-.4.07-.06.21-.11.42-.14.41-.07.77-.18,1.06-.34.19-.1.34-.25.47-.43.06-.1.1-.2.11-.31.01-.14-.02-.25-.09-.32-.07-.08-.18-.12-.34-.13-.26-.02-.54.03-.83.14-.08.03-.26.11-.54.26-.08.04-.16.06-.25.05-.17-.01-.24-.11-.23-.29.01-.16.15-.32.41-.47.6-.36,1.18-.51,1.72-.47.33.03.59.15.8.37.22.23.32.5.3.79-.03.39-.23.75-.6,1.07-.2.18-.53.36-.99.54Z"/><path class="cls-1" d="M319.72,48.76c.75-.21,1.29-.3,1.62-.27.4.03.69.17.86.42.15.21.22.48.19.8-.07.83-.5,1.61-1.3,2.34-.74.68-1.46.99-2.17.94-.45-.04-.79-.26-1.04-.67-.19-.32-.27-.68-.24-1.08.07-.87.48-1.73,1.22-2.6.64-.75,1.53-1.42,2.66-2.01.34-.18.59-.3.75-.37.15-.06.29-.09.41-.08.19.01.27.1.26.26-.01.15-.12.26-.32.36-1.06.46-2.02,1.11-2.91,1.96ZM319.05,49.61c-.34.47-.53.94-.57,1.42-.03.32.03.59.15.84.13.25.32.38.56.4.34.03.7-.1,1.08-.4.38-.29.71-.7.97-1.23.17-.33.26-.62.28-.87.01-.18-.03-.34-.13-.46-.11-.14-.27-.21-.47-.23-.33-.03-.73.05-1.22.23-.13.04-.28.11-.45.19-.13.06-.2.1-.21.12Z"/><path class="cls-1" d="M326.95,47.43c-.36.23-.72.42-1.07.58-.48.21-.8.31-.94.3-.16-.01-.22-.14-.2-.39,0-.09.03-.16.08-.22.04-.05.14-.1.29-.15.45-.15,1.12-.45,2-.91.4-.21.68-.31.83-.29.1,0,.19.07.27.18.05.07.07.15.06.22,0,.12-.12.32-.33.6-1.59,2.17-2.71,3.88-3.35,5.13-.16.31-.27.5-.33.57-.1.12-.2.18-.29.18-.09,0-.18-.07-.25-.19-.04-.07-.06-.14-.06-.21.02-.26.47-1.1,1.33-2.51.81-1.33,1.47-2.28,1.98-2.88Z"/><path class="cls-1" d="M328.15,52.81c.84-.19,1.6-.26,2.29-.21.27.02.48.09.64.22.14.11.2.23.19.38,0,.09-.05.17-.12.24-.07.07-.16.1-.24.09-.03,0-.07-.01-.13-.03-.25-.09-.47-.14-.68-.16-.18-.01-.4-.02-.67,0-.09,0-.44.07-1.04.18-.54.1-.85.14-.95.14-.14-.01-.25-.09-.34-.23-.08-.13-.12-.26-.11-.39.01-.15.15-.33.43-.56.51-.43,1.01-.81,1.48-1.15.45-.32,1-.68,1.65-1.09.75-.46,1.26-.8,1.55-1.02.43-.32.66-.65.68-1,.02-.19-.04-.35-.15-.48-.1-.11-.24-.17-.41-.18-.44-.04-.97.17-1.61.61-.29.2-.47.3-.54.29-.05,0-.1-.04-.16-.1-.06-.06-.09-.14-.08-.22.01-.17.25-.41.69-.69.72-.46,1.39-.67,2.01-.62.36.03.64.17.86.41.21.24.3.51.28.82-.04.54-.36,1.06-.96,1.55-.26.21-.72.53-1.4.95-1.62,1-2.68,1.74-3.16,2.24Z"/><path class="cls-1" d="M337.83,47.61c.25.12.44.3.55.54.11.24.15.53.12.88-.09,1.09-.6,2.21-1.55,3.36-1.03,1.25-1.96,1.85-2.8,1.78-.42-.03-.72-.28-.89-.73-.11-.29-.15-.64-.12-1.04.08-.96.51-1.95,1.3-2.97.41-.52.95-1.05,1.62-1.58.7-.55,1.19-.81,1.48-.79.22.02.32.2.29.54ZM336.83,48.06c-.61.42-1.16.95-1.65,1.59-.71.91-1.09,1.82-1.17,2.72-.02.27,0,.48.06.64.1.24.26.37.48.39.34.03.76-.2,1.27-.68.57-.53,1.03-1.2,1.4-2,.28-.61.44-1.13.47-1.56.02-.3-.05-.57-.21-.8-.11-.16-.28-.25-.48-.28-.05,0-.1,0-.15-.01Z"/><path class="cls-1" d="M342.08,48.38c-.88.65-1.46,1.22-1.73,1.71.5-.16.92-.22,1.26-.19.39.03.69.17.9.42.19.24.27.53.25.88-.06.8-.51,1.58-1.34,2.34-.82.75-1.59,1.1-2.32,1.04-.42-.03-.73-.25-.93-.66-.13-.28-.18-.58-.16-.91.03-.34.12-.61.29-.81.14-.17.3-.25.49-.23.18.01.26.09.25.22,0,.03-.02.08-.06.17-.06.14-.1.33-.12.56-.02.21.02.4.1.56.11.23.28.35.51.37.44.04.92-.2,1.44-.71.57-.56.89-1.14.93-1.74.02-.25-.02-.44-.12-.57-.1-.13-.27-.21-.5-.23-.22-.02-.5.02-.83.11-.08.02-.26.09-.55.22-.06.03-.12.04-.17.04-.09,0-.18-.07-.26-.2-.09-.14-.13-.26-.12-.37.02-.2.26-.57.73-1.11.3-.34.66-.69,1.08-1.03-.09-.16-.14-.27-.13-.35,0-.11.09-.19.25-.22.08-.02.35-.04.84-.07.55-.03.99-.03,1.32,0,.32.03.55.07.69.12.17.06.25.19.23.37-.02.22-.14.33-.36.31-.05,0-.15-.02-.29-.04-.05,0-.1-.02-.17-.02-.23-.02-.46-.03-.69-.02-.23,0-.46.02-.68.04Z"/><path class="cls-1" d="M347.19,48.79c-.88.65-1.46,1.22-1.73,1.71.5-.16.92-.22,1.26-.19.39.03.69.17.9.42.19.24.27.53.25.88-.06.8-.51,1.58-1.34,2.34-.82.75-1.59,1.1-2.32,1.04-.42-.03-.73-.25-.93-.66-.13-.28-.18-.58-.16-.91.03-.33.12-.6.29-.81.14-.17.3-.25.49-.23.17.01.26.09.25.22,0,.03-.02.08-.06.16-.06.14-.1.33-.12.56-.02.21.02.4.1.56.11.23.28.35.51.37.44.04.92-.2,1.44-.72.58-.56.89-1.14.93-1.74.02-.25-.02-.44-.12-.57-.1-.13-.27-.21-.5-.23-.22-.02-.5.02-.83.11-.08.02-.26.09-.55.22-.06.03-.12.04-.17.04-.09,0-.18-.07-.26-.2-.09-.14-.13-.26-.12-.37.02-.2.26-.57.73-1.11.3-.34.66-.69,1.08-1.03-.09-.15-.14-.27-.13-.35,0-.11.09-.19.25-.22.08-.02.35-.04.84-.06.55-.03.99-.03,1.32,0,.32.03.55.07.69.12.17.06.25.19.24.37-.02.22-.14.33-.36.31-.05,0-.15-.02-.29-.04-.05,0-.1-.02-.17-.02-.23-.02-.46-.03-.69-.02-.23,0-.46.02-.68.04Z"/><path class="cls-1" d="M352.05,52.3c-.7.28-1.25.4-1.64.37-.38-.03-.67-.22-.86-.55-.14-.24-.2-.52-.17-.84.07-.84.5-1.61,1.31-2.32.73-.65,1.46-.94,2.17-.88.41.03.73.2.95.51.19.27.28.59.25.98-.07.84-.45,1.77-1.13,2.78-.37.55-.94,1.18-1.7,1.89-.85.8-1.39,1.2-1.64,1.18-.07,0-.13-.04-.18-.1-.04-.06-.06-.12-.06-.18,0-.12.12-.25.33-.4.97-.69,1.76-1.49,2.37-2.42ZM352.55,51.47c.4-.67.61-1.24.65-1.7.03-.33-.01-.58-.12-.76-.11-.17-.28-.27-.52-.29-.5-.04-1.01.21-1.54.75-.52.53-.8,1.08-.84,1.64-.02.25.02.45.13.58.11.14.28.21.52.23.32.03.71-.04,1.16-.2.34-.13.53-.22.56-.26Z"/><path class="cls-1" d="M357.16,52.71c-.7.28-1.25.4-1.64.37-.38-.03-.67-.22-.86-.55-.14-.24-.2-.52-.17-.84.07-.84.5-1.61,1.31-2.32.73-.65,1.46-.94,2.17-.88.41.03.73.2.95.51.19.26.28.59.25.97-.07.84-.45,1.77-1.13,2.78-.37.55-.94,1.18-1.7,1.89-.85.8-1.39,1.2-1.64,1.18-.07,0-.13-.04-.18-.1-.04-.06-.06-.12-.06-.18,0-.12.12-.25.33-.4.97-.69,1.76-1.49,2.37-2.42ZM357.66,51.88c.4-.67.61-1.24.65-1.7.03-.33-.01-.58-.12-.76-.11-.18-.28-.27-.52-.29-.5-.04-1.01.21-1.54.75-.52.53-.8,1.08-.85,1.64-.02.25.02.45.13.58.11.14.28.21.52.23.32.03.71-.04,1.15-.2.34-.13.53-.22.56-.26Z"/><path class="cls-1" d="M361.35,51.74c-.2-.23-.33-.41-.41-.55-.12-.21-.16-.44-.15-.67.04-.51.33-.91.87-1.22.46-.26.95-.37,1.47-.33.38.03.67.17.87.42.18.22.26.47.23.76-.03.43-.28.82-.72,1.15-.24.18-.57.39-1,.62.23.27.4.54.51.79s.15.5.13.73c-.04.46-.23.9-.57,1.32-.37.46-.82.81-1.36,1.07-.54.26-1.08.37-1.61.33-.46-.04-.82-.23-1.09-.59-.2-.27-.29-.55-.26-.85.06-.79.61-1.52,1.65-2.19.54-.35,1.02-.62,1.44-.8ZM361.81,52.28c-.61.25-1.13.55-1.56.89-.61.48-.93.96-.97,1.45-.02.28.05.49.21.63.17.14.35.21.55.23.27.02.57-.04.88-.18.31-.14.58-.34.82-.6.34-.37.53-.78.57-1.21.02-.3-.04-.59-.21-.86-.04-.06-.1-.14-.18-.24-.06-.07-.1-.11-.1-.11ZM362.09,51.36c.3-.14.57-.3.79-.48.28-.24.43-.47.45-.7.01-.15-.02-.27-.11-.38-.09-.12-.22-.19-.39-.21-.28-.02-.55.06-.81.24-.22.15-.34.34-.36.57-.01.16.06.37.22.63l.21.33Z"/><line class="cls-2" x1="49.38" y1="66" x2="49.38" y2="264.2"/><path class="cls-1" d="M45.47,271.61c.26.1.46.27.59.49.13.23.19.52.19.87,0,1.09-.42,2.25-1.27,3.47-.92,1.33-1.81,2-2.65,2-.42,0-.73-.22-.94-.65-.14-.28-.21-.62-.21-1.03,0-.97.35-1.99,1.06-3.06.37-.55.86-1.12,1.49-1.71.65-.61,1.13-.91,1.41-.91.22,0,.33.17.33.52ZM44.52,272.14c-.57.47-1.08,1.04-1.52,1.71-.63.97-.94,1.9-.94,2.81,0,.27.04.48.11.63.12.23.29.35.51.35.34,0,.74-.26,1.21-.78.52-.58.93-1.28,1.23-2.11.23-.63.34-1.16.34-1.6,0-.3-.09-.56-.28-.78-.13-.15-.3-.23-.51-.24h-.15Z"/><path class="cls-1" d="M369.17,65.5h0s-324.81,0-324.81,0c-.28,0-.5.22-.5.5v199.2c0,.28.22.5.5.5h0s324.81,0,324.81,0c.28,0,.5-.22.5-.5V66c0-.28-.22-.5-.5-.5ZM44.86,262.7V68.5h323.81v194.2H44.86Z"/><path class="cls-1" d="M35.71,63.37c-.34.26-.68.48-1.03.66-.46.25-.77.37-.92.37-.16,0-.23-.12-.23-.37,0-.09.02-.16.06-.23.04-.06.13-.12.28-.17.44-.19,1.08-.54,1.92-1.07.38-.24.65-.36.81-.36.1,0,.2.05.28.15.05.07.08.14.08.22,0,.12-.1.33-.29.62-1.41,2.29-2.39,4.08-2.93,5.38-.13.32-.23.52-.29.59-.09.13-.19.2-.28.2s-.18-.06-.26-.17c-.05-.06-.07-.13-.07-.21,0-.26.38-1.13,1.13-2.61.7-1.39,1.28-2.4,1.74-3.03Z"/><path class="cls-1" d="M365.15,274.2c.73-.27,1.26-.4,1.6-.4.4,0,.7.11.89.34.17.2.26.46.26.78,0,.83-.37,1.64-1.11,2.44-.68.74-1.38,1.11-2.09,1.11-.45,0-.81-.2-1.09-.59-.21-.3-.32-.65-.32-1.05,0-.87.34-1.77,1.01-2.69.58-.8,1.41-1.54,2.49-2.21.32-.21.56-.35.72-.42.15-.07.28-.11.4-.11.19,0,.28.08.28.24,0,.15-.1.27-.29.38-1.02.54-1.93,1.27-2.74,2.18ZM364.55,275.1c-.3.49-.45.98-.45,1.46,0,.32.07.59.22.82.15.23.35.35.59.35.34,0,.69-.16,1.05-.48s.65-.76.87-1.3c.14-.34.21-.64.21-.89,0-.19-.06-.33-.17-.45-.12-.13-.28-.19-.48-.19-.33,0-.73.11-1.2.33-.13.05-.27.13-.43.23-.12.07-.19.12-.2.13Z"/><path class="cls-1" d="M372.05,273.97c.24.1.42.22.52.34.15.18.23.43.23.75,0,.8-.33,1.56-1,2.29s-1.36,1.1-2.07,1.1c-.43,0-.79-.18-1.06-.54-.2-.26-.29-.55-.29-.86,0-.52.2-.78.6-.78.24,0,.36.09.36.27,0,.04,0,.09-.01.15-.01.08-.02.17-.02.25,0,.23.06.41.17.53.13.13.28.2.45.2.42,0,.86-.29,1.34-.87.45-.56.68-1.09.68-1.59,0-.25-.06-.45-.18-.6-.13-.16-.31-.23-.55-.23-.09,0-.19.01-.28.04-.11.03-.2.05-.26.05-.14,0-.21-.09-.21-.29,0-.17.06-.3.17-.41.06-.06.2-.12.4-.18.41-.1.75-.24,1.03-.42.18-.12.33-.27.43-.47.05-.1.08-.21.08-.32,0-.14-.04-.25-.11-.32-.08-.07-.19-.1-.35-.1-.26,0-.54.07-.82.21-.07.03-.25.13-.52.3-.07.05-.15.07-.24.07-.17,0-.25-.09-.25-.27,0-.16.12-.33.37-.5.57-.41,1.13-.61,1.68-.61.33,0,.6.1.83.3.24.21.36.47.36.77,0,.4-.17.77-.51,1.11-.19.2-.5.4-.94.62Z"/><path class="cls-1" d="M56.04,16.93c.18.02.32.12.41.3.07.11.09.24.08.37-.02.2-.25.45-.66.74-1.19.88-1.96,2-2.31,3.36-.07.25-.22.43-.42.53-.19.1-.37.14-.55.12-.4-.05-.57-.33-.51-.83.1-.8.66-1.79,1.7-2.97.42-.48.9-.91,1.44-1.29.35-.25.62-.36.81-.34ZM59.08,17.29c.17.02.31.12.41.3.07.11.09.24.08.37-.02.2-.24.45-.66.74-1.19.88-1.96,2-2.31,3.36-.07.25-.22.43-.42.53-.19.1-.37.14-.55.12-.4-.05-.57-.33-.51-.83.1-.8.66-1.79,1.7-2.97.43-.49.91-.92,1.44-1.29.35-.25.62-.36.81-.34Z"/><path class="cls-1" d="M61.95,33.15c-.44.48-.82.86-1.15,1.14-.57.5-1.11.72-1.61.66-.43-.05-.74-.28-.93-.7-.13-.29-.18-.62-.13-1,.14-1.13.77-2.36,1.91-3.7.53-.63,1.03-1.09,1.51-1.4.38-.25.67-.36.89-.33.12.01.23.08.32.2.08.11.11.21.1.3-.02.17-.21.42-.58.75-.83.78-1.47,1.5-1.94,2.18-.54.79-.84,1.43-.9,1.91-.01.12,0,.22.05.29s.13.11.23.13c.45.05,1.14-.51,2.09-1.69.49-.61.93-1.3,1.33-2.07.21-.42.46-.78.76-1.09.28-.28.54-.4.78-.37.13.02.24.09.33.21.1.14.14.28.12.43-.04.31-.42.98-1.16,2.01-.5.71-.78,1.32-.84,1.82-.07.54.02,1.02.26,1.44.07.11.29.31.66.58.18.14.25.33.22.58-.02.16-.1.28-.25.38-.15.1-.32.13-.51.11-.44-.05-.81-.28-1.13-.67-.29-.35-.44-.83-.45-1.44,0-.08,0-.31.02-.69Z"/><path class="cls-1" d="M69.4,28.13c.15.02.26.09.35.21.06.1.08.21.07.3-.02.16-.18.4-.48.74-1.08,1.29-1.86,2.37-2.36,3.23-.52.88-1,1.8-1.43,2.75-.19.42-.44.61-.73.58-.17-.02-.31-.11-.39-.26-.08-.12-.12-.25-.1-.38.03-.26.42-1.1,1.15-2.52.58-1.12,1.44-2.32,2.59-3.62.37-.42.64-.71.82-.84.18-.15.35-.21.51-.19ZM72.47,23.57c.39.05.56.27.52.67-.04.37-.29.75-.72,1.15-.42.38-.8.55-1.14.51-.17-.02-.29-.1-.38-.23-.09-.13-.13-.27-.11-.44.05-.42.34-.84.85-1.25.38-.31.71-.45.98-.41Z"/><path class="cls-1" d="M71.52,31.79c.13-.09.25-.18.37-.28,2.04-1.56,3.37-2.3,3.99-2.23.34.04.49.25.44.62-.03.26-.22.55-.57.87-1.9,1.74-2.94,3.36-3.12,4.84-.06.48.02.95.23,1.42.1.22.14.38.13.49-.01.1-.08.2-.19.28-.13.11-.27.15-.43.13-.36-.04-.63-.31-.82-.79-.18-.46-.24-.99-.17-1.6.14-1.18.75-2.43,1.81-3.75-1.28.62-2.54,1.83-3.8,3.63-.32.43-.62.63-.92.59-.15-.02-.26-.08-.35-.2-.11-.14-.15-.3-.13-.49.06-.47.74-1.64,2.06-3.51.71-1.01,1.26-1.74,1.65-2.19.39-.44.7-.65.94-.62.11.01.22.08.31.2.11.14.15.28.13.44-.02.19-.18.45-.48.78-.43.49-.79.94-1.07,1.35Z"/><path class="cls-1" d="M81.26,28.97c-.67.81-1.32,1.74-1.93,2.77-.88,1.47-1.36,2.59-1.46,3.36-.03.22,0,.39.08.51.08.12.21.2.39.22.44.05,1.01-.29,1.73-1.04.45-.46.86-.92,1.23-1.39.2-.27.4-.39.59-.37.11.01.21.06.27.15.06.09.09.17.08.25-.04.32-.55.99-1.53,2.01-1.17,1.22-2.18,1.78-3.02,1.68-.45-.05-.79-.3-1.04-.75-.15-.28-.2-.67-.14-1.15.13-1.06.58-2.25,1.36-3.58.19-.33.7-1.12,1.54-2.38-.24.03-.43.04-.55.03-.18-.02-.34-.09-.47-.19-.18-.15-.25-.31-.23-.49.03-.22.17-.38.44-.48.07-.03.4-.04.99-.05.21,0,.53-.06.95-.14.37-.51.96-1.2,1.76-2.06.45-.48.75-.79.92-.92.24-.19.43-.28.59-.26.11.01.22.09.32.22.09.13.13.25.12.36-.03.23-.33.65-.9,1.26-.38.4-.66.72-.85.97,1-.14,1.71-.19,2.13-.14.48.06.7.29.65.69-.02.2-.12.34-.3.42-.09.04-.33.06-.7.05-.15-.03-.83.06-2.04.26-.33.06-.67.12-.99.19Z"/><path class="cls-1" d="M86.49,31.01c1.37-.32,2.35-.45,2.94-.38.72.09,1.22.36,1.52.81.26.4.36.88.29,1.46-.18,1.48-1.02,2.86-2.52,4.12-1.38,1.17-2.7,1.68-3.97,1.53-.8-.1-1.41-.53-1.82-1.28-.32-.59-.43-1.24-.35-1.95.19-1.55.98-3.08,2.39-4.58,1.21-1.31,2.85-2.44,4.93-3.42.62-.3,1.08-.5,1.37-.6.28-.1.53-.14.74-.11.33.04.48.2.45.49-.03.26-.23.47-.61.62-1.93.75-3.72,1.85-5.37,3.31ZM85.22,32.49c-.65.82-1.02,1.65-1.13,2.51-.07.57,0,1.07.22,1.51.22.45.54.7.97.76.61.07,1.27-.14,1.98-.64.71-.5,1.32-1.21,1.84-2.14.33-.58.52-1.1.57-1.55.04-.33-.03-.61-.2-.83-.19-.25-.46-.4-.82-.45-.58-.07-1.32.04-2.22.33-.24.07-.51.17-.82.31-.23.1-.36.17-.38.19Z"/><path class="cls-1" d="M98.18,34.45c-.12.21-.45.72-.97,1.54-.89,1.58-1.44,2.62-1.65,3.12-.11.28-.23.47-.36.58-.12.1-.28.14-.49.11-.22-.03-.38-.13-.5-.3-.11-.15-.15-.32-.12-.51.08-.66.86-2.17,2.33-4.55-1.29-.01-2.32.09-3.08.31-.25.07-.45.09-.59.07-.35-.04-.49-.34-.42-.89.04-.32.2-.62.49-.9.56-.51,1.49-1.27,2.79-2.28,1.6-1.23,3.04-2.22,4.3-2.96,1.09-.64,1.87-.93,2.31-.88.2.02.37.13.52.31.11.16.16.32.14.48-.03.21-.19.52-.51.92-.05.07-.4.51-1.03,1.3-.8,1.01-1.57,2.08-2.3,3.2.62.04,1.02.07,1.22.09.51.06.75.29.7.67-.04.34-.21.57-.51.68-.13.05-.5.03-1.12-.04-.18-.02-.56-.06-1.14-.1ZM97.32,33.13c1.17-1.74,2.27-3.17,3.27-4.32-.98.4-2.19,1.16-3.63,2.27-1.04.81-1.89,1.53-2.54,2.15,1.3-.11,2.26-.14,2.91-.1Z"/><path class="cls-1" d="M111.61,34.22c.82-.54,1.52-.77,2.12-.7.37.04.65.23.85.57.19.3.26.62.21.98-.08.68-.4,1.48-.97,2.39-.63,1.01-1.47,1.92-2.52,2.74-.87.67-1.66.97-2.36.88-.26-.03-.49-.11-.7-.23s-.37-.29-.52-.5c-.08.11-.14.19-.16.22-.19.3-.31.49-.38.55-.07.06-.16.09-.28.07-.16-.02-.29-.13-.41-.33-.08-.13-.11-.27-.1-.41.03-.24.68-1.42,1.95-3.52,1.78-2.94,3.78-5.83,6-8.68.9-1.17,1.45-1.85,1.64-2.04.21-.24.4-.35.56-.33.19.02.35.14.48.35.08.13.11.28.09.45-.02.18-.13.4-.33.66-.04.06-.37.47-.99,1.25-1.88,2.25-3.27,4.13-4.19,5.63ZM108.72,39.62c.12.1.26.16.41.18.76.09,1.64-.47,2.65-1.69.46-.55.85-1.1,1.14-1.65.26-.5.41-.88.44-1.13.02-.17,0-.31-.07-.4-.07-.09-.19-.15-.35-.17-.4-.05-.92.17-1.55.65-.63.47-1.29,1.19-1.96,2.14-.32.46-.6.89-.85,1.29l-.21.33c.11.19.23.34.35.44Z"/><path class="cls-1" d="M118.86,34.11c.15.02.26.09.35.21.06.1.08.2.07.3-.02.16-.18.4-.47.74-1.08,1.29-1.86,2.37-2.36,3.23-.52.88-1,1.8-1.43,2.75-.19.42-.44.61-.73.58-.17-.02-.31-.11-.39-.26-.08-.12-.12-.25-.1-.38.03-.26.42-1.1,1.15-2.52.58-1.12,1.44-2.32,2.59-3.62.37-.42.64-.71.82-.84.18-.15.35-.21.51-.19ZM121.93,29.56c.39.05.56.27.52.67-.04.37-.29.75-.72,1.15-.42.38-.8.55-1.14.51-.17-.02-.29-.1-.38-.23-.09-.13-.13-.27-.11-.44.05-.42.34-.84.86-1.25.38-.31.71-.45.98-.41Z"/><path class="cls-1" d="M123.83,34.12c-.67.81-1.32,1.74-1.93,2.77-.88,1.47-1.36,2.59-1.46,3.36-.03.22,0,.39.08.51.08.12.21.2.39.22.44.05,1.01-.29,1.73-1.04.45-.46.86-.92,1.23-1.39.2-.27.4-.39.59-.37.11.01.2.06.27.15.06.09.09.17.08.25-.04.32-.55.99-1.53,2-1.17,1.22-2.18,1.78-3.02,1.68-.44-.05-.79-.3-1.04-.75-.15-.28-.2-.67-.14-1.15.13-1.06.58-2.25,1.36-3.58.19-.33.7-1.12,1.54-2.38-.24.03-.43.04-.55.03-.18-.02-.34-.08-.47-.19-.18-.15-.25-.31-.23-.49.03-.22.17-.38.44-.48.07-.03.4-.04.99-.05.21,0,.53-.06.95-.14.37-.51.96-1.2,1.76-2.06.45-.48.75-.79.92-.92.24-.19.43-.28.59-.26.11.01.22.09.32.22.09.13.13.25.12.36-.03.23-.33.65-.9,1.26-.38.4-.66.72-.85.97,1-.14,1.71-.19,2.13-.14.48.06.7.29.65.69-.02.2-.13.34-.3.42-.09.04-.33.06-.7.05-.15-.03-.83.06-2.04.26-.33.06-.67.12-.99.19Z"/><path class="cls-1" d="M136.26,40.46c-.87.92-1.51,1.55-1.92,1.89-.5.43-.93.75-1.28.96-.4.23-.76.32-1.07.28-.31-.04-.52-.22-.65-.54-.1-.25-.14-.52-.1-.81.12-.95.84-2.19,2.18-3.72,1.21-1.38,2.07-2.05,2.56-1.99.12.01.23.08.33.21.09.12.13.25.11.39-.02.19-.23.44-.61.74-.81.63-1.54,1.36-2.18,2.19-.55.71-.83,1.19-.86,1.42-.02.17.05.27.2.29.52.06,1.79-.93,3.81-2.99.66-.66,1.05-1.05,1.19-1.14.25-.18.5-.26.73-.23.16.02.29.08.39.18.09.1.12.2.11.29-.01.11-.28.52-.79,1.25-1.15,1.56-1.77,2.63-1.84,3.22-.03.23.05.35.23.37.31.04.79-.27,1.43-.93.61-.62,1.19-1.42,1.77-2.42.25-.43.49-1.01.73-1.73.28-.83.68-1.21,1.2-1.14.3.04.42.22.38.55-.14,1.14-.97,2.64-2.48,4.48-1.58,1.92-2.82,2.83-3.73,2.72-.67-.08-.96-.54-.86-1.37.08-.68.42-1.49,1-2.43Z"/><path class="cls-1" d="M145.5,43.1c-.35.47-.68.86-1,1.18-.63.61-1.22.89-1.76.82-.47-.06-.81-.32-1.02-.8-.13-.31-.17-.66-.12-1.05.12-.97.55-2,1.3-3.1.84-1.22,1.78-2.12,2.82-2.7.68-.38,1.32-.53,1.9-.46.37.04.66.19.88.45.18.23.26.47.23.72-.02.19-.13.45-.32.77.11.2.15.37.14.51-.02.18-.18.47-.48.86-.3.4-.63.93-.96,1.61-.36.72-.57,1.3-.62,1.76-.04.37.03.68.22.94.05.07.22.19.5.37.21.13.29.33.26.59-.02.17-.1.29-.23.38-.14.1-.3.14-.48.12-.47-.06-.85-.32-1.14-.78-.24-.37-.33-.82-.26-1.33.02-.17.07-.46.16-.86ZM147.66,38.99c-.08-.21-.18-.36-.29-.47-.11-.11-.24-.17-.38-.18-.66-.08-1.45.41-2.37,1.48-1.01,1.18-1.57,2.21-1.68,3.1-.03.22,0,.39.06.51.07.12.19.2.35.21.42.05.96-.33,1.63-1.16.37-.45.85-1.12,1.43-2.02.38-.58.65-.96.82-1.15.08-.1.22-.21.42-.33Z"/><path class="cls-1" d="M153.59,42.64c-.64.85-1.18,1.48-1.62,1.88-1.07.99-1.91,1.44-2.53,1.37-.38-.04-.64-.29-.79-.72-.11-.29-.14-.58-.11-.88.07-.58.42-1.38,1.05-2.41.56-.9,1.03-1.6,1.4-2.12.27-.36.44-.61.5-.72.13-.22.25-.39.34-.5.14-.17.3-.24.5-.22.1.01.19.07.26.16.08.12.1.24.09.38-.05.39-.51,1.23-1.38,2.5-.87,1.26-1.33,2.11-1.38,2.54-.03.28.06.43.28.46.38.04.97-.38,1.77-1.27.36-.4.74-.92,1.16-1.55.02-.22.03-.38.05-.5.08-.65.27-1.21.57-1.66.39-.58.85-.84,1.38-.78.3.04.44.24.39.61-.07.58-.48,1.41-1.23,2.47.17.06.31.09.41.1.29.04.69-.1,1.19-.41.4-.25.66-.37.77-.36.1.01.19.08.28.21.07.1.09.21.08.3-.04.31-.3.64-.78.98-.56.38-1.16.54-1.81.46-.25-.03-.54-.14-.85-.33Z"/><path class="cls-1" d="M157.07,44.14l-.03.24c-.02.19,0,.36.08.51.18.35.52.55,1.01.61,1.09.13,2.45-.55,4.09-2.06.29-.26.52-.38.69-.35.1.01.18.07.24.18.04.08.06.14.05.21-.04.34-.53.87-1.46,1.58-.73.56-1.49.99-2.28,1.3-.79.31-1.5.43-2.14.35-.65-.08-1.14-.37-1.46-.87-.21-.34-.29-.79-.22-1.33.18-1.47,1.05-2.83,2.6-4.08,1.26-1.02,2.32-1.47,3.15-1.37.23.03.42.12.59.28.21.21.29.46.25.76-.06.46-.34,1-.85,1.62-1.05,1.29-2.49,2.09-4.33,2.41ZM157.49,43.15c.64-.14,1.14-.31,1.53-.53.67-.4,1.22-.87,1.65-1.42.16-.19.25-.37.26-.54.02-.17-.05-.27-.22-.29-.23-.03-.57.1-1.03.39-.82.51-1.55,1.31-2.19,2.39Z"/><path class="cls-1" d="M173.14,31.09c.41.05.58.33.52.85-.1.79-.66,1.78-1.7,2.96-.42.48-.9.91-1.44,1.29-.35.25-.62.36-.81.34-.18-.02-.32-.12-.42-.3-.07-.12-.09-.24-.07-.38.02-.19.24-.44.66-.73,1.19-.89,1.96-2.01,2.3-3.36.07-.25.22-.43.42-.55.19-.09.37-.13.53-.11ZM176.18,31.46c.41.05.58.33.52.85-.1.79-.66,1.78-1.7,2.96-.42.48-.9.91-1.44,1.29-.35.25-.62.36-.81.34-.18-.02-.32-.12-.42-.3-.07-.11-.09-.24-.07-.38.02-.19.24-.44.66-.73,1.2-.89,1.96-2.01,2.31-3.36.07-.25.21-.43.42-.55.19-.09.37-.13.53-.11Z"/><path class="cls-1" d="M264.67,32.86c-.27.53-.5.92-.7,1.19-.49.64-.9.98-1.25,1-.21.01-.38-.09-.5-.32-.09-.15-.13-.3-.14-.47-.02-.32.09-.79.34-1.42.22-.55.4-.98.56-1.29.11-.23.18-.38.2-.44.05-.13.1-.24.14-.31.06-.11.14-.16.25-.17.06,0,.11.02.16.06.05.06.08.12.08.2.01.22-.16.72-.51,1.5-.35.77-.52,1.28-.51,1.53,0,.16.07.23.2.22.21-.01.49-.3.85-.87.16-.25.32-.57.48-.96-.01-.12-.02-.21-.02-.28-.02-.37.03-.69.15-.96.16-.36.38-.54.68-.56.17,0,.26.09.27.29.02.33-.12.82-.43,1.47.1.01.18.02.24.02.16,0,.36-.12.61-.34.2-.18.33-.27.39-.27.05,0,.11.03.17.09.05.05.07.1.08.16,0,.18-.1.38-.33.61-.27.26-.58.41-.94.43-.14,0-.31-.02-.5-.1Z"/><path class="cls-1" d="M268.31,33.45c-.14.29-.29.54-.43.74-.29.4-.58.61-.88.62-.26.02-.48-.1-.64-.34-.1-.16-.16-.34-.17-.56-.03-.54.11-1.15.41-1.82.34-.75.76-1.33,1.28-1.75.34-.27.67-.42,1-.44.21-.01.38.04.52.16.12.11.19.23.2.37,0,.11-.03.26-.1.45.08.1.12.19.12.26,0,.1-.05.27-.18.52-.13.25-.25.57-.37.97-.13.43-.18.77-.17,1.02.01.21.08.37.21.49.04.03.14.08.31.15.12.05.19.15.2.3,0,.09-.02.17-.09.23-.07.07-.15.1-.25.11-.26.01-.5-.09-.7-.31-.17-.18-.26-.42-.27-.7,0-.1,0-.26,0-.48ZM269.09,30.99c-.06-.1-.13-.18-.2-.23-.07-.05-.15-.07-.22-.06-.37.02-.75.37-1.15,1.04-.44.74-.64,1.36-.61,1.86,0,.12.04.21.08.27s.12.09.21.08c.23-.01.49-.28.78-.79.16-.28.35-.7.58-1.24.15-.36.26-.59.33-.71.04-.06.1-.14.2-.22Z"/><path class="cls-1" d="M271.16,32.06c-.12.39-.22.7-.28.94-.06.24-.09.4-.08.5,0,.12.07.18.19.17.18,0,.39-.19.65-.54.12-.17.3-.47.54-.9.09-.17.2-.26.31-.27.13,0,.19.05.2.17.01.21-.21.65-.65,1.31-.46.7-.91,1.06-1.34,1.08-.19,0-.34-.06-.47-.21-.09-.11-.14-.24-.15-.4-.02-.27.05-.66.18-1.15.14-.49.35-1.09.64-1.8.74-1.81,1.51-3.31,2.32-4.5.64-.96,1.2-1.45,1.65-1.47.15,0,.27.04.37.15.1.11.16.23.17.38.04.68-.51,1.85-1.63,3.51-.51.74-1.12,1.48-1.84,2.23-.19.2-.45.46-.78.79ZM271.62,30.87c.96-.93,1.81-2.07,2.53-3.45.38-.71.56-1.18.54-1.4,0-.11-.06-.16-.15-.15-.27.02-.72.58-1.37,1.68-.54.91-1.05,2.02-1.56,3.32Z"/><path class="cls-1" d="M275.3,33.14c-.19.3-.37.55-.52.73-.27.33-.54.5-.81.52-.24.01-.43-.08-.57-.29-.1-.15-.16-.32-.17-.53-.04-.63.19-1.37.68-2.21.23-.39.46-.7.69-.91.18-.17.33-.26.45-.27.07,0,.13.02.2.08.05.05.08.1.08.16,0,.09-.08.25-.25.47-.38.51-.66.97-.84,1.38-.22.49-.32.86-.3,1.13,0,.07.02.12.06.15.03.04.08.05.14.05.25-.01.57-.39.98-1.13.21-.38.38-.8.52-1.26.07-.25.18-.47.31-.67.13-.18.26-.27.39-.28.07,0,.14.02.2.08.07.06.1.14.11.22,0,.17-.14.58-.44,1.21-.2.44-.3.8-.28,1.08.02.3.11.56.29.76.05.06.19.14.42.25.11.06.17.16.18.3,0,.09-.03.17-.1.23-.07.07-.16.1-.27.11-.24.01-.47-.07-.68-.25-.19-.17-.32-.41-.39-.74-.01-.04-.03-.17-.06-.38Z"/><path class="cls-1" d="M277.7,32.71v.13c.01.11.05.2.1.27.13.17.34.25.62.24.61-.04,1.29-.54,2.03-1.52.13-.17.25-.26.34-.26.05,0,.1.02.15.07.03.04.05.07.05.11.01.19-.2.52-.65,1-.35.38-.72.69-1.12.94-.4.25-.78.38-1.14.4-.37.02-.66-.09-.88-.33-.15-.17-.24-.4-.25-.71-.05-.82.29-1.65,1.03-2.49.59-.68,1.12-1.03,1.59-1.06.13,0,.24.03.35.1.13.09.2.22.21.39.01.26-.09.58-.3.97-.45.81-1.16,1.39-2.13,1.74ZM277.83,32.13c.33-.14.59-.28.78-.44.33-.28.58-.6.76-.94.07-.12.1-.23.09-.32,0-.1-.05-.14-.15-.14-.13,0-.3.11-.53.32-.4.36-.72.87-.96,1.52Z"/><path class="cls-1" d="M281.98,33.34c.11,0,.2.04.28.13.05.06.08.14.09.24.01.23-.04.47-.15.73-.12.28-.28.42-.5.43-.22.01-.34-.11-.36-.36-.01-.25.05-.52.19-.79.13-.25.28-.38.45-.38ZM283.22,29.62c.11,0,.2.04.28.13.05.06.08.14.09.24.01.23-.04.47-.15.73-.12.28-.29.43-.5.44-.22.01-.34-.11-.36-.36-.01-.25.05-.52.19-.79.12-.25.27-.37.45-.38Z"/><path class="cls-1" d="M36.23,260.64c.26.1.46.27.59.49.13.23.19.52.19.87,0,1.09-.42,2.25-1.27,3.47-.92,1.33-1.81,2-2.65,2-.42,0-.73-.22-.94-.65-.14-.28-.21-.62-.21-1.03,0-.97.35-1.99,1.06-3.06.37-.55.86-1.12,1.49-1.71.65-.61,1.13-.91,1.41-.91.22,0,.33.17.33.52ZM35.28,261.16c-.57.47-1.08,1.04-1.52,1.71-.63.97-.94,1.9-.94,2.81,0,.27.04.48.11.63.12.23.29.35.51.35.34,0,.74-.26,1.21-.78.52-.58.93-1.28,1.23-2.11.23-.63.34-1.16.34-1.6,0-.3-.09-.56-.28-.78-.13-.15-.3-.23-.51-.24h-.15Z"/></svg>