<?xml version="1.0" encoding="UTF-8"?><svg id="Layer_1" xmlns="http://www.w3.org/2000/svg" viewBox="0 0 212.05 194.13"><defs><style>.cls-1{stroke:#4d4d4d;}.cls-1,.cls-2,.cls-3{fill:none;stroke-linecap:round;}.cls-1,.cls-3{stroke-miterlimit:10;}.cls-2{stroke-linejoin:round;}.cls-2,.cls-3{stroke:#999;}.cls-4{fill:#4d4d4d;}.cls-5{fill:#999;}.cls-6{fill:#ccc;}</style></defs><path class="cls-6" d="M204.19,129.94c.28,0,.5-.22.5-.5s-.22-.5-.5-.5h-12c-.28,0-.5.22-.5.5s.22.5.5.5h12M180.19,129.94c.28,0,.5-.22.5-.5s-.22-.5-.5-.5h-12c-.28,0-.5.22-.5.5s.22.5.5.5h12M156.19,129.94c.28,0,.5-.22.5-.5s-.22-.5-.5-.5h-12c-.28,0-.5.22-.5.5s.22.5.5.5h12M132.19,129.94c.28,0,.5-.22.5-.5s-.22-.5-.5-.5h-12c-.28,0-.5.22-.5.5s.22.5.5.5h12M108.19,129.94c.28,0,.5-.22.5-.5s-.22-.5-.5-.5h-12c-.28,0-.5.22-.5.5s.22.5.5.5h12M84.19,129.94c.28,0,.5-.22.5-.5s-.22-.5-.5-.5h-12c-.28,0-.5.22-.5.5s.22.5.5.5h12M60.19,129.94c.28,0,.5-.22.5-.5s-.22-.5-.5-.5h-12c-.28,0-.5.22-.5.5s.22.5.5.5h12M36.19,129.94c.28,0,.5-.22.5-.5s-.22-.5-.5-.5h-12c-.28,0-.5.22-.5.5s.22.5.5.5h12"/><path class="cls-6" d="M204.19,93.37c.28,0,.5-.22.5-.5s-.22-.5-.5-.5h-12c-.28,0-.5.22-.5.5s.22.5.5.5h12M180.19,93.37c.28,0,.5-.22.5-.5s-.22-.5-.5-.5h-12c-.28,0-.5.22-.5.5s.22.5.5.5h12M156.19,93.37c.28,0,.5-.22.5-.5s-.22-.5-.5-.5h-12c-.28,0-.5.22-.5.5s.22.5.5.5h12M132.19,93.37c.28,0,.5-.22.5-.5s-.22-.5-.5-.5h-12c-.28,0-.5.22-.5.5s.22.5.5.5h12M108.19,93.37c.28,0,.5-.22.5-.5s-.22-.5-.5-.5h-12c-.28,0-.5.22-.5.5s.22.5.5.5h12M84.19,93.37c.28,0,.5-.22.5-.5s-.22-.5-.5-.5h-12c-.28,0-.5.22-.5.5s.22.5.5.5h12M60.19,93.37c.28,0,.5-.22.5-.5s-.22-.5-.5-.5h-12c-.28,0-.5.22-.5.5s.22.5.5.5h12M36.19,93.37c.28,0,.5-.22.5-.5s-.22-.5-.5-.5h-12c-.28,0-.5.22-.5.5s.22.5.5.5h12"/><path class="cls-4" d="M119.68,79.62c1.49-.43,2.85-.64,4.09-.61.48.01.87.12,1.17.33.26.18.39.4.38.65,0,.17-.07.31-.19.44-.13.13-.27.19-.43.19-.05,0-.13-.02-.24-.04-.45-.13-.87-.2-1.24-.21-.32,0-.73.02-1.2.07-.17.02-.78.17-1.84.44-.95.23-1.52.35-1.7.35-.25,0-.46-.13-.64-.37-.16-.22-.24-.45-.24-.69,0-.26.24-.61.71-1.05.88-.82,1.73-1.57,2.54-2.23.77-.62,1.72-1.33,2.85-2.13,1.29-.91,2.19-1.58,2.68-2,.73-.62,1.11-1.24,1.12-1.88,0-.35-.1-.63-.32-.84-.2-.18-.45-.27-.76-.28-.79-.02-1.73.41-2.82,1.27-.5.39-.81.59-.94.59-.09,0-.19-.06-.3-.17-.12-.11-.18-.24-.18-.39,0-.32.4-.76,1.18-1.32,1.25-.91,2.43-1.35,3.55-1.32.64.01,1.17.23,1.59.65.4.4.6.89.59,1.45-.02.98-.54,1.95-1.57,2.89-.44.41-1.24,1.03-2.41,1.85-2.81,1.96-4.63,3.41-5.45,4.35Z"/><path class="cls-4" d="M128.91,79.82c1.49-.43,2.85-.64,4.09-.61.48.01.87.12,1.17.33.26.18.39.4.38.65,0,.17-.07.31-.19.44-.13.13-.27.19-.43.19-.05,0-.13-.02-.24-.04-.45-.13-.87-.2-1.23-.21-.33,0-.73.02-1.2.07-.17.02-.78.17-1.84.44-.95.23-1.52.35-1.7.35-.25,0-.46-.13-.64-.37-.16-.22-.24-.45-.24-.69,0-.26.24-.61.71-1.05.88-.82,1.73-1.57,2.54-2.23.77-.62,1.72-1.33,2.85-2.13,1.29-.91,2.19-1.58,2.68-2,.73-.62,1.11-1.24,1.12-1.87,0-.35-.1-.63-.32-.84-.2-.18-.45-.27-.76-.28-.79-.02-1.73.41-2.82,1.27-.5.39-.81.59-.94.59-.09,0-.19-.06-.3-.16-.12-.11-.18-.24-.18-.39,0-.32.4-.76,1.18-1.32,1.25-.9,2.43-1.35,3.55-1.32.64.01,1.17.23,1.6.65.4.4.6.89.59,1.45-.02.98-.54,1.95-1.57,2.89-.44.41-1.24,1.03-2.41,1.85-2.81,1.96-4.63,3.41-5.45,4.35Z"/><path class="cls-4" d="M138.13,80.02c1.49-.43,2.85-.64,4.09-.61.48.01.87.12,1.17.33.26.18.39.4.38.65,0,.17-.07.31-.19.44s-.27.19-.43.19c-.05,0-.13-.02-.24-.04-.45-.13-.87-.2-1.23-.21-.33,0-.73.02-1.2.07-.17.02-.78.17-1.84.44-.95.23-1.52.35-1.7.35-.25,0-.46-.13-.64-.37-.16-.22-.24-.45-.24-.69,0-.26.24-.61.71-1.05.88-.82,1.73-1.57,2.54-2.23.77-.62,1.72-1.33,2.85-2.13,1.29-.91,2.19-1.58,2.68-2,.73-.62,1.11-1.24,1.12-1.88,0-.35-.1-.63-.32-.84-.2-.18-.45-.27-.76-.28-.79-.02-1.73.41-2.82,1.27-.5.39-.81.59-.94.59-.09,0-.19-.06-.3-.17-.12-.11-.18-.24-.18-.39,0-.32.4-.76,1.18-1.32,1.25-.91,2.43-1.35,3.55-1.32.64.01,1.17.23,1.59.65.4.4.6.89.59,1.45-.02.98-.54,1.95-1.57,2.89-.44.41-1.24,1.03-2.41,1.85-2.81,1.96-4.63,3.41-5.45,4.35Z"/><path class="cls-4" d="M125.84,58.22c-.27.36-.46.65-.59.85s-.28.48-.48.83c-.85,1.6-1.45,2.91-1.8,3.92-.2.57-.32,1.05-.36,1.45.05.01.09.02.14.02s.09,0,.13,0c.09,0,.22-.01.38-.04.07-.01.13-.02.18-.02.05,0,.1.02.14.05s.06.07.06.12c0,.06-.05.12-.14.16-.1.05-.33.08-.68.08-.16,0-.3-.02-.42-.05-.07-.02-.12-.05-.15-.09s-.04-.09-.04-.17c0-.31.13-.84.39-1.59.39-1.14,1.01-2.46,1.85-3.98.48-.86.82-1.42,1.02-1.68.09-.12.2-.19.31-.22.09-.02.26-.04.48-.04.26,0,.42.01.49.04.09.03.13.09.13.16,0,.06-.03.11-.08.14-.05.03-.1.05-.16.05-.04,0-.13,0-.27-.02-.05,0-.11,0-.17,0-.09,0-.22,0-.38.01Z"/><path class="cls-4" d="M127.47,60.14c-.18.14-.36.26-.55.35-.25.13-.41.2-.49.2-.08,0-.12-.07-.12-.2,0-.05.01-.09.03-.12.02-.03.07-.06.15-.09.23-.1.58-.29,1.02-.57.2-.13.35-.19.43-.19.05,0,.1.03.15.08.03.04.04.08.04.12,0,.06-.05.18-.15.33-.75,1.22-1.27,2.18-1.56,2.87-.07.17-.12.27-.15.32-.05.07-.1.11-.15.11s-.1-.03-.14-.09c-.03-.03-.04-.07-.04-.11,0-.14.2-.6.6-1.39.38-.74.69-1.28.93-1.61Z"/><path class="cls-4" d="M130.2,60.14c-.18.14-.36.26-.55.35-.25.13-.41.2-.49.2-.08,0-.12-.07-.12-.2,0-.05.01-.09.03-.12.02-.03.07-.06.15-.09.23-.1.58-.29,1.02-.57.2-.13.35-.19.43-.19.05,0,.1.03.15.08.03.04.04.08.04.12,0,.06-.05.18-.15.33-.75,1.22-1.27,2.18-1.56,2.87-.07.17-.12.27-.15.32-.05.07-.1.11-.15.11s-.1-.03-.14-.09c-.03-.03-.04-.07-.04-.11,0-.14.2-.6.6-1.39.38-.74.69-1.28.93-1.61Z"/><path class="cls-4" d="M133.26,59.77c.14.05.25.14.31.26s.1.28.1.46c0,.58-.23,1.2-.68,1.85-.49.71-.96,1.07-1.41,1.07-.22,0-.39-.12-.5-.35-.07-.15-.11-.33-.11-.55,0-.52.19-1.06.57-1.63.2-.29.46-.6.79-.91.35-.32.6-.48.75-.48.12,0,.18.09.18.28ZM132.75,60.05c-.3.25-.57.55-.81.91-.34.52-.5,1.01-.5,1.5,0,.14.02.26.06.34.06.12.15.19.27.19.18,0,.39-.14.64-.41.28-.31.5-.68.66-1.12.12-.34.18-.62.18-.85,0-.16-.05-.3-.15-.41-.07-.08-.16-.12-.27-.13h-.08Z"/><path class="cls-4" d="M135.67,60.14c-.18.14-.36.26-.55.35-.25.13-.41.2-.49.2-.08,0-.12-.07-.12-.2,0-.05.01-.09.03-.12.02-.03.07-.06.15-.09.23-.1.58-.29,1.02-.57.2-.13.35-.19.43-.19.05,0,.1.03.15.08.03.04.04.08.04.12,0,.06-.05.18-.15.33-.75,1.22-1.27,2.18-1.56,2.87-.07.17-.12.27-.15.32-.05.07-.1.11-.15.11s-.1-.03-.14-.09c-.03-.03-.04-.07-.04-.11,0-.14.2-.6.6-1.39.38-.74.69-1.28.93-1.61Z"/><path class="cls-4" d="M138.41,60.14c-.18.14-.36.26-.55.35-.25.13-.41.2-.49.2-.08,0-.12-.07-.12-.2,0-.05.01-.09.03-.12.02-.03.07-.06.15-.09.23-.1.58-.29,1.02-.57.2-.13.35-.19.43-.19.05,0,.1.03.15.08.03.04.04.08.04.12,0,.06-.05.18-.15.33-.75,1.22-1.27,2.18-1.56,2.87-.07.17-.12.27-.15.32-.05.07-.1.11-.15.11s-.1-.03-.14-.09c-.03-.03-.04-.07-.04-.11,0-.14.2-.6.6-1.39.38-.74.69-1.28.93-1.61Z"/><path class="cls-4" d="M141.14,60.14c-.18.14-.36.26-.55.35-.25.13-.41.2-.49.2-.08,0-.12-.07-.12-.2,0-.05.01-.09.03-.12.02-.03.07-.06.15-.09.23-.1.58-.29,1.02-.57.2-.13.35-.19.43-.19.05,0,.1.03.15.08.03.04.04.08.04.12,0,.06-.05.18-.15.33-.75,1.22-1.27,2.18-1.56,2.87-.07.17-.12.27-.15.32-.05.07-.1.11-.15.11s-.1-.03-.14-.09c-.03-.03-.04-.07-.04-.11,0-.14.2-.6.6-1.39.38-.74.69-1.28.93-1.61Z"/><path class="cls-4" d="M143.88,60.14c-.18.14-.36.26-.55.35-.25.13-.41.2-.49.2-.08,0-.12-.07-.12-.2,0-.05.01-.09.03-.12.02-.03.07-.06.15-.09.23-.1.58-.29,1.02-.57.2-.13.35-.19.43-.19.05,0,.1.03.15.08.03.04.04.08.04.12,0,.06-.05.18-.15.33-.75,1.22-1.27,2.18-1.56,2.87-.07.17-.12.27-.15.32-.05.07-.1.11-.15.11s-.1-.03-.14-.09c-.03-.03-.04-.07-.04-.11,0-.14.2-.6.6-1.39.38-.74.69-1.28.93-1.61Z"/><path class="cls-4" d="M146.93,59.77c.14.05.25.14.31.26s.1.28.1.46c0,.58-.23,1.2-.68,1.85-.49.71-.96,1.07-1.41,1.07-.22,0-.39-.12-.5-.35-.07-.15-.11-.33-.11-.55,0-.52.19-1.06.57-1.63.2-.29.46-.6.79-.91.35-.32.6-.48.75-.48.12,0,.18.09.18.28ZM146.42,60.05c-.3.25-.57.55-.81.91-.34.52-.5,1.01-.5,1.5,0,.14.02.26.06.34.06.12.15.19.27.19.18,0,.39-.14.64-.41.28-.31.5-.68.66-1.12.12-.34.18-.62.18-.85,0-.16-.05-.3-.15-.41-.07-.08-.16-.12-.27-.13h-.08Z"/><path class="cls-4" d="M146.89,65.26c.27-.37.46-.65.59-.85s.28-.48.47-.83c.85-1.6,1.45-2.91,1.8-3.92.2-.57.33-1.05.37-1.45-.05-.01-.1-.02-.14-.02s-.09,0-.12,0c-.09,0-.22.01-.38.04-.08.01-.14.02-.18.02-.05,0-.1-.02-.14-.05s-.06-.07-.06-.12c0-.06.05-.12.14-.16.1-.05.33-.08.68-.08.16,0,.3.02.42.05.08.02.13.05.15.09.02.03.03.09.03.16,0,.31-.13.85-.39,1.59-.4,1.14-1.01,2.47-1.85,3.98-.48.86-.82,1.42-1.02,1.68-.09.12-.2.19-.32.22-.09.02-.26.04-.48.04-.26,0-.42-.01-.49-.04-.09-.03-.13-.09-.13-.16,0-.06.03-.11.08-.14.05-.03.1-.04.16-.04.04,0,.13,0,.27.01.04,0,.1,0,.16,0,.09,0,.22,0,.38,0Z"/><path class="cls-4" d="M98.83,106.57c-.62.45-1.25.83-1.87,1.15-.84.43-1.4.64-1.66.64-.28,0-.42-.23-.41-.68,0-.16.04-.29.11-.41.07-.1.24-.2.51-.29.8-.32,1.96-.93,3.5-1.85.69-.42,1.18-.62,1.46-.61.18,0,.35.1.49.29.09.12.14.26.14.4,0,.22-.18.59-.54,1.11-2.63,4.06-4.46,7.25-5.48,9.57-.25.57-.43.92-.54,1.06-.17.23-.34.35-.51.34-.17,0-.32-.11-.47-.31-.09-.12-.13-.24-.12-.37.01-.47.72-2.02,2.13-4.65,1.32-2.47,2.4-4.26,3.25-5.38Z"/><path class="cls-4" d="M107.62,109.78c.44.19.74.41.92.64.27.33.39.79.38,1.37-.03,1.43-.66,2.79-1.89,4.09-1.23,1.29-2.49,1.92-3.76,1.9-.78-.02-1.41-.36-1.89-1.02-.34-.47-.51-1-.49-1.57.02-.93.39-1.39,1.11-1.37.43,0,.64.18.64.5,0,.07-.01.16-.03.28-.03.15-.05.3-.05.45,0,.41.09.73.28.96.22.24.49.37.8.37.75.02,1.56-.49,2.45-1.52.84-.98,1.27-1.93,1.29-2.83,0-.46-.09-.82-.31-1.09-.23-.29-.56-.43-.98-.44-.17,0-.33.02-.5.07-.2.06-.36.08-.46.08-.25,0-.38-.18-.37-.52,0-.3.11-.54.32-.73.12-.11.36-.21.73-.3.73-.17,1.36-.41,1.88-.72.33-.2.59-.48.8-.83.1-.18.15-.37.16-.58,0-.25-.06-.44-.19-.57-.13-.13-.34-.19-.62-.2-.47-.01-.97.1-1.48.34-.13.06-.45.23-.95.52-.13.08-.28.13-.44.12-.3,0-.44-.17-.44-.5,0-.29.23-.59.68-.9,1.04-.71,2.06-1.05,3.04-1.03.59.01,1.08.2,1.48.57.42.4.63.86.62,1.4-.02.71-.34,1.37-.97,1.98-.34.34-.92.71-1.72,1.08Z"/><path class="cls-5" d="M161.17,107.83c-.62.45-1.25.83-1.87,1.15-.84.43-1.4.64-1.66.64-.28,0-.42-.23-.41-.68,0-.16.04-.29.11-.41.07-.1.24-.2.51-.29.8-.32,1.96-.93,3.5-1.85.69-.42,1.18-.62,1.46-.61.18,0,.35.1.49.29.09.12.14.26.14.4,0,.22-.18.59-.54,1.11-2.63,4.06-4.46,7.25-5.48,9.57-.25.57-.43.92-.54,1.06-.17.23-.34.35-.51.34-.17,0-.32-.11-.47-.31-.09-.12-.13-.24-.12-.37.01-.47.72-2.02,2.13-4.65,1.32-2.47,2.4-4.26,3.25-5.38Z"/><path class="cls-5" d="M169.53,113.45c-.1.22-.37.76-.81,1.63-.73,1.66-1.18,2.75-1.34,3.27-.09.29-.19.49-.3.61-.11.11-.27.17-.48.16-.22,0-.39-.09-.52-.25-.12-.14-.18-.31-.17-.49.01-.66.64-2.25,1.87-4.76-1.29.11-2.3.32-3.03.61-.24.09-.43.14-.58.13-.35,0-.52-.29-.51-.84,0-.33.14-.64.4-.94.5-.56,1.35-1.41,2.55-2.54,1.47-1.38,2.8-2.51,3.99-3.37,1.03-.74,1.77-1.11,2.21-1.1.2,0,.38.09.55.26.13.14.19.3.19.46,0,.21-.14.53-.42.97-.05.08-.35.54-.9,1.39-.7,1.08-1.36,2.22-1.97,3.41.62-.02,1.02-.03,1.23-.03.52.01.77.21.77.6,0,.34-.15.59-.44.73-.12.06-.5.08-1.12.07-.18,0-.57,0-1.15.02ZM168.54,112.22c1-1.84,1.94-3.38,2.83-4.62-.93.5-2.06,1.37-3.39,2.62-.96.91-1.73,1.71-2.32,2.39,1.28-.24,2.24-.36,2.88-.39Z"/><path class="cls-3" d="M137.69,85.13c5.53,8.85,16.05,7.98,22.26,17.09"/><path class="cls-5" d="M155.21,100.55c.06-.15.24-.23.39-.16l4.25,1.74-.22-4.58c0-.17.12-.31.29-.31.17,0,.31.12.31.29l.24,5.06c0,.1-.04.2-.13.26-.08.06-.19.07-.29.03l-4.68-1.92c-.05-.02-.1-.06-.13-.1-.06-.08-.07-.19-.03-.29Z"/><path class="cls-3" d="M125.33,84.67c-7.73,7.22-7.72,5.41-18.33,16.5"/><path class="cls-5" d="M107.87,96.24c.16.04.26.2.23.36l-.98,4.48,4.48-1c.16-.04.32.07.36.23.04.16-.07.32-.23.36l-4.94,1.11c-.1.02-.2,0-.28-.08s-.1-.18-.08-.28l1.09-4.94c.01-.06.04-.11.08-.15.07-.07.17-.1.28-.08Z"/><path class="cls-3" d="M101.28,120.7c5.51,8.82,9.18,9.78,11.92,18.95"/><path class="cls-5" d="M109.16,136.67c.1-.13.29-.15.42-.04l3.55,2.91,1.13-4.45c.04-.16.2-.26.36-.22.16.04.26.21.22.36l-1.25,4.9c-.03.1-.1.18-.2.21-.1.03-.2.01-.28-.05l-3.92-3.21s-.08-.09-.09-.14c-.03-.09-.01-.2.05-.28Z"/><path class="cls-3" d="M97.59,120.7c-4.63,9.26-9.46,5.66-17.86,17.56"/><path class="cls-5" d="M79.82,133.26c.17,0,.29.15.28.32l-.28,4.58,4.27-1.69c.15-.06.33.01.39.17.06.15-.02.33-.17.39l-4.71,1.86c-.1.04-.2.02-.29-.04s-.13-.16-.12-.26l.31-5.05c0-.06.02-.11.06-.16.06-.08.15-.13.26-.12Z"/><path class="cls-4" d="M76.49,147.93c.44.19.74.41.92.64.27.33.39.79.38,1.37-.03,1.43-.66,2.79-1.89,4.09-1.23,1.29-2.49,1.92-3.76,1.9-.78-.02-1.41-.36-1.89-1.02-.34-.47-.51-1-.49-1.57.02-.93.39-1.39,1.11-1.37.43,0,.64.18.64.5,0,.07-.01.16-.03.28-.03.15-.05.3-.05.45,0,.41.09.73.28.96.22.24.49.37.8.37.75.02,1.56-.49,2.45-1.52.84-.98,1.27-1.93,1.29-2.83,0-.46-.09-.82-.31-1.09-.23-.29-.56-.43-.98-.44-.17,0-.33.02-.5.07-.2.06-.36.08-.46.08-.25,0-.38-.18-.37-.52,0-.3.11-.54.32-.73.12-.11.36-.21.73-.3.73-.17,1.36-.41,1.88-.72.33-.2.6-.48.8-.83.1-.18.15-.37.16-.58,0-.25-.06-.44-.19-.57-.13-.13-.34-.19-.62-.2-.47-.01-.97.1-1.48.34-.13.06-.45.23-.95.52-.13.08-.28.13-.44.12-.3,0-.44-.17-.44-.5,0-.29.23-.59.68-.9,1.04-.71,2.06-1.05,3.04-1.03.59.01,1.08.2,1.48.57.42.4.63.86.62,1.4-.02.71-.34,1.37-.97,1.98-.34.34-.92.71-1.72,1.08Z"/><path class="cls-5" d="M114.79,144.92c-.62.45-1.25.83-1.87,1.15-.84.43-1.4.64-1.66.64-.28,0-.42-.23-.41-.68,0-.16.04-.29.11-.41.07-.1.24-.2.51-.29.8-.32,1.96-.93,3.5-1.85.69-.42,1.18-.62,1.46-.61.18,0,.35.1.49.29.09.12.14.26.14.4,0,.22-.18.59-.54,1.11-2.63,4.06-4.46,7.25-5.48,9.57-.25.57-.43.92-.54,1.06-.17.23-.34.35-.51.34-.17,0-.32-.11-.47-.31-.09-.12-.13-.24-.12-.37.01-.47.72-2.02,2.13-4.65,1.32-2.47,2.4-4.26,3.25-5.38Z"/><path class="cls-3" d="M166.07,122.77c5.51,8.82.84,11.16,7.43,17.91"/><path class="cls-5" d="M168.59,139.72c.04-.16.2-.26.36-.22l4.46,1.08-.91-4.5c-.03-.16.07-.32.23-.35.16-.03.32.07.35.23l1,4.96c.02.1-.01.2-.09.28s-.18.1-.28.08l-4.92-1.19c-.06-.01-.11-.04-.15-.08-.07-.07-.1-.18-.08-.28Z"/><path class="cls-3" d="M159.49,122.02c-4.63,9.26-9.58,5.83-17.99,17.74"/><path class="cls-5" d="M141.59,134.76c.17,0,.29.15.28.32l-.28,4.58,4.27-1.69c.15-.06.33.01.39.17.06.15-.02.33-.17.39l-4.71,1.86c-.1.04-.2.02-.29-.04-.08-.06-.13-.16-.12-.26l.31-5.05c0-.06.02-.11.06-.16.06-.08.15-.13.26-.12Z"/><path class="cls-5" d="M138.38,147.93c.44.19.74.41.92.64.27.33.39.79.38,1.37-.03,1.43-.66,2.79-1.89,4.09-1.23,1.29-2.49,1.92-3.76,1.9-.78-.02-1.41-.36-1.89-1.02-.34-.47-.51-1-.49-1.57.02-.93.39-1.39,1.11-1.37.43,0,.64.18.64.5,0,.07-.01.16-.03.28-.03.15-.05.3-.05.45,0,.41.09.73.28.96.22.24.49.37.8.37.75.02,1.56-.49,2.45-1.52.84-.98,1.27-1.93,1.29-2.83,0-.46-.09-.82-.31-1.09-.23-.29-.56-.43-.98-.44-.17,0-.33.02-.5.07-.2.06-.36.08-.46.08-.25,0-.38-.18-.37-.52,0-.3.11-.54.32-.73.12-.11.36-.21.73-.3.73-.17,1.36-.41,1.88-.72.33-.2.6-.48.8-.83.1-.18.15-.37.16-.58,0-.25-.06-.44-.19-.57-.13-.13-.34-.19-.62-.2-.47-.01-.97.1-1.48.34-.13.06-.45.23-.95.52-.13.08-.28.13-.44.12-.3,0-.44-.17-.44-.5,0-.29.23-.59.68-.9,1.04-.71,2.06-1.05,3.04-1.03.59.01,1.08.2,1.48.57.42.4.63.86.62,1.4-.02.71-.34,1.37-.97,1.98-.34.34-.92.71-1.72,1.08Z"/><path class="cls-5" d="M170.18,154.26c1.49-.43,2.85-.64,4.09-.61.48.01.87.12,1.17.33.26.18.39.4.38.65,0,.17-.07.31-.19.44-.13.13-.27.19-.43.19-.05,0-.13-.02-.24-.04-.45-.13-.87-.2-1.23-.21-.33,0-.73.02-1.2.07-.17.02-.78.17-1.84.44-.95.23-1.52.35-1.7.35-.25,0-.46-.13-.64-.37-.16-.22-.24-.45-.24-.69,0-.26.24-.61.71-1.05.88-.82,1.73-1.57,2.54-2.23.77-.62,1.72-1.33,2.85-2.13,1.29-.91,2.19-1.58,2.68-2,.73-.62,1.11-1.24,1.12-1.87,0-.35-.1-.63-.32-.84-.2-.18-.45-.27-.76-.28-.79-.02-1.73.41-2.82,1.27-.5.39-.81.59-.94.59-.09,0-.19-.06-.3-.16-.12-.11-.18-.24-.18-.39,0-.32.4-.76,1.18-1.32,1.25-.9,2.43-1.35,3.55-1.32.64.01,1.17.23,1.6.65.4.4.6.89.59,1.45-.02.98-.54,1.95-1.57,2.89-.44.41-1.24,1.03-2.41,1.85-2.81,1.96-4.63,3.41-5.45,4.35Z"/><path class="cls-4" d="M78.99,106.01c-.31.33-.54.59-.68.77-.15.18-.34.44-.57.77-1.04,1.49-1.79,2.72-2.26,3.68-.27.54-.45,1-.53,1.39.04.02.09.03.13.04.04.01.09.02.13.02.09.01.22.01.38,0,.07,0,.13,0,.18,0,.05,0,.1.03.13.07.03.04.05.08.04.12,0,.06-.06.11-.16.15-.11.04-.34.04-.68,0-.16-.02-.3-.05-.41-.1-.07-.03-.11-.07-.14-.1-.02-.04-.03-.09-.02-.17.04-.31.23-.82.58-1.54.53-1.08,1.3-2.33,2.31-3.73.58-.8.98-1.31,1.21-1.54.1-.11.22-.17.34-.18.1-.01.26,0,.49.02.26.03.42.06.48.1.08.04.12.1.11.18,0,.06-.04.1-.09.13-.05.03-.1.03-.16.03-.04,0-.13-.02-.27-.05-.05,0-.1-.02-.17-.02-.09-.01-.22-.02-.38-.03Z"/><path class="cls-4" d="M80.38,108.11c-.2.12-.39.21-.59.28-.26.1-.43.15-.51.14-.08,0-.12-.08-.1-.21,0-.05.02-.09.05-.12.02-.03.08-.05.16-.07.24-.07.61-.22,1.08-.44.22-.1.37-.15.45-.14.05,0,.1.04.14.1.02.04.03.08.03.12,0,.06-.07.17-.19.31-.89,1.12-1.53,2.01-1.9,2.66-.09.16-.15.26-.19.29-.06.06-.11.09-.16.09s-.09-.04-.13-.11c-.02-.04-.03-.08-.03-.11.02-.14.27-.58.76-1.31.46-.69.83-1.19,1.12-1.49Z"/><path class="cls-4" d="M83.09,108.44c-.2.12-.39.21-.59.28-.26.1-.43.15-.51.14-.08,0-.12-.08-.1-.21,0-.05.02-.09.04-.12.03-.03.08-.05.16-.07.25-.07.61-.22,1.08-.44.22-.1.37-.15.45-.14.05,0,.1.04.14.1.02.04.03.08.03.12,0,.06-.07.17-.19.31-.89,1.12-1.53,2.01-1.9,2.66-.09.16-.15.26-.19.29-.06.06-.11.09-.16.09-.05,0-.09-.04-.13-.11-.02-.04-.03-.07-.03-.11.02-.14.27-.58.76-1.31.46-.69.83-1.19,1.12-1.49Z"/><path class="cls-4" d="M86.17,108.44c.13.07.23.17.28.3.05.13.07.29.05.47-.07.58-.37,1.16-.9,1.76-.57.65-1.08.94-1.53.89-.22-.03-.38-.16-.46-.41-.05-.16-.07-.34-.04-.56.06-.51.32-1.03.76-1.55.23-.27.53-.54.9-.81.39-.28.65-.41.81-.39.12.01.16.11.14.3ZM85.63,108.66c-.33.21-.64.48-.91.81-.4.47-.62.95-.68,1.42-.02.14-.01.26.02.34.05.13.13.21.25.22.18.02.41-.09.69-.33.31-.27.58-.62.79-1.04.16-.32.26-.59.29-.82.02-.16-.01-.3-.1-.43-.06-.09-.14-.14-.25-.16-.03,0-.06,0-.08,0Z"/><path class="cls-4" d="M88.52,109.1c-.2.12-.39.21-.58.28-.26.1-.43.15-.51.14-.08,0-.12-.08-.1-.21,0-.05.02-.09.05-.12.02-.03.08-.05.16-.07.25-.07.61-.22,1.08-.44.22-.1.37-.15.45-.14.05,0,.1.04.14.1.02.04.03.08.03.12,0,.06-.07.17-.19.31-.89,1.12-1.53,2.01-1.9,2.66-.09.16-.15.26-.19.3-.06.06-.11.09-.16.09s-.09-.04-.13-.11c-.02-.04-.03-.07-.03-.11.02-.14.27-.58.76-1.31.46-.69.83-1.19,1.12-1.49Z"/><path class="cls-4" d="M88.18,114.21c.31-.33.54-.59.69-.77.15-.18.34-.44.57-.77,1.04-1.49,1.79-2.71,2.26-3.67.27-.54.45-1,.54-1.39-.05-.02-.09-.03-.14-.04-.04-.01-.08-.02-.12-.02-.09-.01-.22-.01-.39,0-.08,0-.14,0-.18,0-.05,0-.1-.03-.13-.07s-.05-.08-.04-.12c0-.06.06-.11.16-.15.11-.04.34-.04.68,0,.16.02.3.05.41.1.07.03.12.06.14.1.02.03.02.09.01.17-.04.31-.23.82-.58,1.54-.53,1.08-1.3,2.33-2.32,3.72-.58.8-.98,1.32-1.21,1.54-.11.11-.22.16-.34.18-.1.01-.26,0-.49-.02-.26-.03-.42-.06-.48-.1-.08-.04-.12-.1-.11-.18,0-.06.04-.11.1-.13.05-.02.1-.03.16-.02.04,0,.13.02.27.04.04,0,.1.02.16.02.09.01.21.02.38.04Z"/><path class="cls-5" d="M177.7,109.01c-.22.4-.37.7-.47.92-.1.21-.22.51-.36.89-.63,1.7-1.06,3.08-1.27,4.12-.13.59-.18,1.08-.17,1.48.05,0,.09,0,.14,0,.04,0,.09,0,.13,0,.09-.01.21-.04.37-.09.07-.02.13-.04.18-.04.05,0,.1,0,.15.03.04.03.07.06.07.11,0,.06-.03.12-.11.18-.1.07-.32.12-.66.17-.16.02-.3.02-.42,0-.08-.01-.13-.04-.16-.07-.03-.03-.05-.08-.06-.16-.04-.31.02-.85.18-1.63.24-1.18.68-2.58,1.31-4.19.36-.92.63-1.52.79-1.79.08-.13.17-.21.28-.26.09-.04.25-.07.48-.1.26-.03.42-.04.49-.02.09.02.14.07.15.15,0,.06-.01.11-.06.15-.04.04-.09.06-.15.07-.04,0-.13.01-.27.02-.05,0-.1,0-.17.02-.09.01-.22.03-.37.06Z"/><path class="cls-5" d="M179.57,110.7c-.16.16-.33.3-.5.42-.23.16-.38.25-.46.26-.08.01-.13-.05-.15-.18,0-.05,0-.09.02-.12.02-.03.06-.07.13-.11.22-.13.53-.36.94-.7.18-.15.32-.24.4-.25.05,0,.11.01.16.06.03.03.05.07.06.11,0,.06-.03.18-.11.35-.59,1.31-.98,2.32-1.17,3.05-.05.18-.08.29-.11.33-.04.08-.08.12-.13.12s-.1-.02-.15-.07c-.03-.03-.05-.06-.05-.1-.02-.14.12-.62.41-1.46.28-.78.51-1.36.71-1.72Z"/><path class="cls-5" d="M182.28,110.34c-.16.16-.33.3-.5.42-.23.16-.38.25-.46.26-.08.01-.13-.05-.15-.18,0-.05,0-.09.02-.12.02-.03.06-.07.13-.11.22-.13.53-.36.94-.7.18-.15.32-.24.4-.25.05,0,.11.01.16.06.03.03.05.07.06.11,0,.06-.03.18-.11.35-.59,1.31-.98,2.32-1.17,3.05-.05.18-.08.29-.11.33-.04.08-.08.12-.13.12-.05,0-.1-.02-.15-.07-.03-.03-.05-.06-.05-.1-.02-.14.12-.62.41-1.46.28-.78.51-1.36.71-1.72Z"/><path class="cls-5" d="M184.99,109.98c-.16.16-.33.3-.5.42-.23.16-.38.25-.46.26-.08.01-.13-.05-.15-.18,0-.05,0-.09.02-.12.02-.03.06-.07.13-.11.22-.13.53-.36.94-.7.18-.15.32-.23.4-.25.05,0,.11.01.16.06.03.03.05.07.06.11,0,.06-.03.18-.11.35-.59,1.31-.98,2.32-1.17,3.05-.05.18-.08.29-.11.33-.04.08-.08.12-.13.12-.05,0-.1-.02-.15-.07-.03-.03-.05-.06-.05-.1-.02-.14.12-.62.41-1.46.28-.78.51-1.36.71-1.72Z"/><path class="cls-5" d="M187.97,109.22c.15.04.26.11.35.22.08.11.14.26.16.45.08.58-.07,1.22-.43,1.92-.39.77-.82,1.18-1.26,1.24-.22.03-.4-.06-.55-.28-.09-.14-.15-.32-.18-.53-.07-.51.05-1.08.35-1.69.16-.32.38-.65.67-1.01.3-.37.53-.56.68-.58.12-.02.19.07.21.25ZM187.5,109.57c-.27.29-.5.62-.68,1.01-.27.56-.37,1.07-.3,1.55.02.14.05.25.1.33.08.12.18.17.29.15.18-.02.37-.19.58-.5.24-.34.4-.74.5-1.2.08-.35.1-.64.07-.87-.02-.16-.09-.29-.2-.39-.08-.07-.17-.1-.28-.09-.03,0-.06,0-.08.01Z"/><path class="cls-5" d="M188.64,114.66c.21-.4.37-.7.47-.92.1-.21.22-.51.36-.89.63-1.7,1.06-3.07,1.27-4.12.13-.59.19-1.08.18-1.48-.05,0-.1,0-.14,0s-.09,0-.12,0c-.09.01-.21.04-.38.09-.07.02-.13.04-.17.04-.05,0-.1,0-.15-.03-.04-.03-.07-.06-.07-.11,0-.06.03-.12.11-.18.1-.07.32-.12.66-.17.16-.02.3-.02.42,0,.08.01.13.03.16.07.02.03.04.08.05.16.04.31-.02.86-.17,1.63-.24,1.18-.68,2.58-1.32,4.18-.36.92-.62,1.52-.79,1.79-.08.13-.17.21-.28.26-.09.04-.25.07-.48.1-.26.03-.42.04-.49.03-.09-.02-.14-.07-.15-.15,0-.06.01-.11.06-.15.04-.04.09-.06.15-.06.04,0,.13-.01.27-.02.04,0,.1,0,.16-.02.09-.01.21-.03.38-.06Z"/><path class="cls-4" d="M62.3,146.31c-.23.39-.4.68-.51.89-.11.21-.24.5-.4.87-.71,1.67-1.19,3.03-1.44,4.07-.15.58-.23,1.07-.23,1.47.05,0,.09,0,.14.01s.09,0,.13,0c.09,0,.21-.03.38-.07.07-.02.13-.03.18-.04.05,0,.1,0,.14.04s.07.06.07.11c0,.06-.04.12-.12.18-.1.06-.32.11-.67.14-.16.01-.3,0-.42-.01-.07-.02-.12-.04-.15-.07-.03-.03-.04-.09-.05-.16-.03-.31.05-.85.24-1.62.29-1.17.79-2.55,1.49-4.13.4-.9.69-1.49.87-1.76.08-.12.18-.21.29-.25.09-.03.25-.06.48-.08.26-.02.42-.02.49,0,.09.02.14.07.14.15,0,.06-.02.11-.06.15-.04.04-.1.06-.15.06-.04,0-.13,0-.27,0-.05,0-.11,0-.17.01-.09,0-.22.02-.38.05Z"/><path class="cls-4" d="M64.1,148.07c-.17.15-.34.29-.51.4-.23.15-.39.24-.47.24-.08,0-.13-.06-.14-.19,0-.05,0-.09.02-.12.02-.03.06-.07.14-.1.22-.12.55-.34.97-.66.19-.15.33-.22.41-.23.05,0,.11.02.16.07.03.03.05.07.05.11,0,.06-.04.18-.12.34-.64,1.28-1.07,2.28-1.3,3-.06.18-.1.28-.12.33-.04.07-.09.11-.14.12-.05,0-.1-.02-.15-.08-.03-.03-.04-.07-.05-.11-.01-.14.15-.62.48-1.44.31-.77.57-1.33.78-1.69Z"/><path class="cls-4" d="M66.82,147.83c-.17.15-.34.29-.51.4-.23.15-.39.24-.47.24-.08,0-.13-.06-.14-.19,0-.05,0-.09.02-.12.02-.03.06-.07.14-.1.22-.12.55-.34.97-.66.19-.15.33-.22.41-.23.05,0,.11.02.15.07.03.03.05.07.05.11,0,.06-.04.18-.12.34-.64,1.28-1.07,2.28-1.3,3-.06.17-.1.28-.12.33-.04.07-.09.11-.14.12-.05,0-.1-.02-.15-.08-.03-.03-.05-.07-.05-.11-.01-.14.15-.62.48-1.44.31-.77.57-1.33.78-1.69Z"/><path class="cls-4" d="M67.56,152.9c.23-.39.4-.69.51-.9.11-.21.24-.5.4-.87.71-1.67,1.19-3.03,1.44-4.06.15-.58.23-1.07.24-1.47-.05,0-.1,0-.14-.01-.04,0-.09,0-.12,0-.09,0-.21.03-.38.07-.08.02-.13.03-.18.04-.05,0-.1,0-.14-.04s-.06-.07-.07-.11c0-.06.03-.12.12-.18.1-.06.32-.11.67-.14.16-.01.31,0,.43.02.08.01.13.04.16.07.02.03.04.08.05.16.03.31-.05.85-.24,1.62-.29,1.17-.79,2.55-1.49,4.13-.4.9-.69,1.49-.86,1.76-.08.12-.18.21-.3.25-.09.03-.25.06-.48.08-.26.02-.42.02-.49,0-.09-.03-.14-.08-.14-.15,0-.06.02-.11.07-.15.04-.03.1-.05.16-.06.04,0,.13,0,.27-.01.04,0,.1,0,.16-.01.09,0,.21-.02.38-.04Z"/><path class="cls-5" d="M101.06,145.9c-.29.34-.51.61-.65.8-.14.19-.32.46-.54.79-.97,1.54-1.66,2.8-2.08,3.78-.24.55-.4,1.02-.47,1.42.05.01.09.02.13.03.04,0,.09.01.13.02.09,0,.22,0,.38-.01.07,0,.13,0,.18,0,.05,0,.1.02.14.06.04.04.05.07.05.12,0,.06-.05.12-.15.15-.11.04-.33.05-.68.03-.16-.01-.3-.04-.42-.08-.07-.03-.12-.06-.14-.1s-.03-.09-.02-.17c.02-.31.19-.83.5-1.56.47-1.11,1.19-2.39,2.13-3.84.54-.83.92-1.36,1.14-1.6.1-.11.21-.18.33-.2.1-.02.26-.02.49,0,.26.02.42.04.49.08.08.04.12.09.12.17,0,.06-.03.11-.09.13-.05.03-.1.04-.16.04-.04,0-.13-.01-.27-.04-.05,0-.1-.01-.17-.02-.09,0-.22-.01-.38-.02Z"/><path class="cls-5" d="M102.89,147.59c.14.06.23.16.29.29.06.13.08.28.07.47-.04.58-.31,1.18-.81,1.8-.54.67-1.04.99-1.49.96-.22-.02-.38-.14-.48-.38-.06-.16-.08-.34-.07-.55.04-.51.27-1.04.68-1.59.22-.28.5-.56.86-.85.37-.3.63-.44.79-.43.12,0,.17.1.16.29ZM102.37,147.84c-.32.23-.61.51-.87.85-.37.49-.58.98-.61,1.46-.01.14,0,.26.03.34.06.13.14.2.25.21.18.01.4-.11.67-.37.3-.29.55-.64.74-1.07.15-.33.23-.61.25-.84.01-.16-.03-.3-.12-.42-.06-.08-.15-.13-.26-.15-.03,0-.06,0-.08,0Z"/><path class="cls-5" d="M105.27,148.13c-.19.12-.38.23-.57.31-.26.11-.42.17-.5.16-.08,0-.12-.08-.11-.21,0-.05.02-.09.04-.12.02-.03.08-.06.16-.08.24-.08.6-.25,1.06-.5.21-.11.36-.17.44-.16.05,0,.1.04.14.09.03.04.04.08.03.12,0,.06-.06.17-.18.32-.84,1.16-1.43,2.08-1.77,2.75-.08.16-.14.26-.17.3-.05.07-.11.1-.16.09-.05,0-.09-.04-.13-.1-.02-.04-.03-.07-.03-.11.01-.14.24-.59.7-1.34.43-.71.78-1.22,1.04-1.54Z"/><path class="cls-5" d="M105.18,153.26c.29-.35.51-.62.65-.8.14-.19.32-.45.53-.79.97-1.54,1.66-2.79,2.08-3.78.24-.55.4-1.02.47-1.41-.05-.01-.09-.03-.14-.03s-.08-.01-.12-.02c-.09,0-.22,0-.38.01-.08,0-.14,0-.18,0-.05,0-.1-.02-.14-.06-.04-.04-.05-.08-.05-.12,0-.07.05-.12.15-.15.11-.04.33-.05.68-.03.16.01.3.04.42.08.07.03.12.06.15.1.02.03.02.09.02.17-.02.31-.19.83-.5,1.56-.48,1.11-1.19,2.39-2.13,3.83-.54.83-.92,1.36-1.13,1.6-.1.11-.21.17-.33.2-.1.02-.26.02-.49,0-.26-.02-.42-.04-.49-.08-.08-.04-.12-.1-.12-.17,0-.06.03-.11.09-.14.05-.03.1-.04.16-.03.04,0,.13.01.27.03.04,0,.1.01.16.02.09,0,.22.01.38.02Z"/><path class="cls-5" d="M145.52,145.9c-.29.34-.51.61-.65.8-.14.19-.32.45-.54.79-.97,1.54-1.66,2.8-2.08,3.78-.24.55-.4,1.02-.47,1.42.05.01.09.03.13.03.04,0,.09.01.13.02.09,0,.22,0,.38-.01.07,0,.13-.01.18,0,.05,0,.1.02.14.06.04.04.05.08.05.12,0,.07-.05.12-.15.15-.11.04-.33.05-.68.03-.16-.01-.3-.04-.42-.08-.07-.03-.12-.06-.14-.1-.02-.04-.03-.09-.03-.17.02-.31.19-.83.5-1.56.47-1.11,1.19-2.39,2.13-3.84.54-.83.92-1.36,1.14-1.6.1-.11.21-.17.33-.2.1-.02.26-.02.49,0,.26.02.42.04.49.08.08.04.12.09.12.17,0,.06-.03.11-.09.13-.05.03-.1.04-.16.04-.04,0-.13-.01-.27-.04-.05,0-.11-.01-.17-.02-.09,0-.22-.01-.38-.02Z"/><path class="cls-5" d="M147.01,147.94c-.19.12-.38.23-.57.31-.26.11-.42.17-.5.16-.08,0-.12-.08-.11-.21,0-.05.02-.09.04-.12.02-.03.07-.06.15-.08.24-.08.59-.25,1.06-.5.21-.11.36-.17.44-.16.05,0,.1.04.14.09.03.04.04.08.03.12,0,.06-.06.17-.18.32-.84,1.16-1.43,2.08-1.77,2.75-.08.16-.14.27-.17.3-.05.07-.11.1-.16.09-.05,0-.09-.04-.13-.1-.02-.04-.03-.07-.03-.11,0-.14.24-.59.7-1.34.43-.71.78-1.22,1.04-1.54Z"/><path class="cls-5" d="M149.74,148.13c-.19.12-.38.23-.57.31-.26.11-.42.17-.5.16-.08,0-.12-.08-.11-.21,0-.05.02-.09.04-.12.02-.03.08-.06.16-.08.24-.08.59-.25,1.06-.5.21-.11.36-.17.44-.16.05,0,.1.04.14.09.03.04.04.08.03.12,0,.06-.06.17-.18.32-.84,1.16-1.43,2.08-1.77,2.75-.08.16-.14.27-.17.3-.05.07-.11.1-.16.09-.05,0-.09-.04-.13-.1-.02-.04-.03-.07-.03-.11,0-.14.24-.59.7-1.34.43-.71.78-1.22,1.04-1.54Z"/><path class="cls-5" d="M149.65,153.26c.29-.35.51-.62.65-.8s.32-.45.53-.79c.97-1.54,1.66-2.79,2.08-3.78.24-.55.4-1.02.47-1.42-.05-.01-.09-.03-.14-.03-.04,0-.08-.01-.12-.02-.09,0-.22,0-.38.01-.08,0-.14,0-.18,0-.05,0-.1-.02-.14-.06-.04-.04-.05-.08-.05-.12,0-.06.05-.12.15-.15.11-.04.33-.05.68-.03.16.01.3.04.42.08.07.03.12.06.15.1.02.03.03.09.02.17-.02.31-.19.83-.5,1.56-.48,1.11-1.19,2.39-2.13,3.83-.54.83-.92,1.36-1.13,1.6-.1.11-.21.17-.33.2-.09.02-.26.02-.49,0-.26-.02-.42-.04-.49-.07-.08-.04-.12-.1-.12-.17,0-.06.03-.11.09-.14.05-.03.1-.04.16-.03.04,0,.13.01.27.03.04,0,.1.01.16.02.09,0,.22.01.38.02Z"/><path class="cls-5" d="M182.89,145.63c-.18.41-.31.73-.4.95-.08.22-.18.53-.29.91-.5,1.75-.81,3.15-.94,4.21-.08.6-.1,1.09-.05,1.49.05,0,.09,0,.14,0,.04,0,.09-.01.13-.02.09-.02.21-.06.37-.12.07-.03.12-.05.17-.06.05-.01.1,0,.15.02.04.02.07.06.08.1.01.06-.02.13-.1.19-.09.07-.3.15-.64.22-.16.03-.3.05-.42.04-.08,0-.13-.03-.16-.05-.03-.03-.05-.08-.07-.16-.07-.31-.05-.85.04-1.64.15-1.2.47-2.62.97-4.28.29-.94.5-1.56.64-1.85.06-.13.15-.23.26-.28.09-.04.24-.09.47-.14.25-.05.42-.08.49-.06.09.01.14.06.16.13.01.06,0,.11-.05.15-.04.04-.09.07-.14.08-.04,0-.13.02-.27.04-.05,0-.1.02-.17.03-.09.02-.21.05-.37.09Z"/><path class="cls-5" d="M184.89,147.16c-.15.17-.3.33-.46.46-.21.18-.36.28-.44.3-.08.02-.14-.04-.16-.17-.01-.05,0-.09,0-.12.01-.04.06-.07.13-.12.21-.15.5-.4.88-.77.17-.17.3-.26.38-.28.05-.01.11,0,.16.05.04.03.06.06.07.11.01.06-.01.18-.08.36-.48,1.35-.79,2.4-.92,3.14-.03.18-.06.29-.08.34-.03.08-.07.12-.12.13-.05.01-.1,0-.16-.06-.03-.03-.05-.06-.06-.1-.03-.14.07-.63.3-1.49.21-.8.4-1.39.57-1.77Z"/><path class="cls-5" d="M187.8,146.16c.15.02.27.09.36.19.09.1.16.25.2.43.12.57.03,1.22-.28,1.95-.33.8-.72,1.25-1.16,1.34-.22.05-.41-.03-.57-.23-.1-.13-.18-.3-.22-.51-.11-.5-.04-1.08.21-1.72.13-.33.32-.68.58-1.06.27-.39.49-.6.64-.63.11-.02.19.05.23.23ZM187.36,146.54c-.25.31-.44.66-.6,1.06-.22.58-.28,1.1-.18,1.57.03.14.07.25.13.32.09.11.19.15.3.13.17-.04.36-.22.54-.54.21-.36.34-.77.41-1.24.05-.35.05-.64,0-.87-.03-.16-.11-.28-.23-.37-.08-.06-.18-.09-.29-.07-.03,0-.06.01-.08.02Z"/><path class="cls-5" d="M188.91,151.53c.18-.42.32-.73.4-.95.08-.22.18-.53.29-.91.5-1.75.81-3.15.94-4.21.08-.6.1-1.09.06-1.49-.05,0-.1,0-.14,0-.04,0-.08.01-.12.02-.09.02-.21.06-.37.12-.07.03-.13.05-.17.06-.05.01-.1,0-.15-.02s-.07-.06-.08-.1c-.01-.06.02-.13.1-.19.09-.07.31-.15.64-.22.16-.03.3-.05.42-.04.08,0,.13.02.17.05.03.03.05.08.06.15.07.31.05.85-.04,1.64-.15,1.2-.47,2.62-.97,4.28-.29.95-.5,1.56-.64,1.85-.07.13-.16.23-.26.28-.09.04-.24.09-.47.14-.25.05-.42.08-.49.06-.09-.02-.15-.06-.16-.13-.01-.06,0-.11.05-.16.04-.04.09-.06.15-.08.04,0,.13-.02.27-.05.04,0,.1-.02.16-.03.09-.02.21-.05.37-.09Z"/><path class="cls-4" d="M15.68,17.62c.18-.01.34.06.46.22.08.1.13.22.14.35.01.2-.16.48-.52.85-1.01,1.08-1.57,2.32-1.68,3.71-.03.26-.14.46-.32.6-.17.13-.34.2-.52.21-.4.02-.62-.22-.65-.73-.05-.81.34-1.88,1.15-3.22.33-.55.73-1.05,1.19-1.52.3-.31.54-.47.74-.48ZM18.73,17.45c.18-.01.33.06.46.22.08.1.13.22.14.35.01.2-.16.48-.52.85-1.01,1.08-1.57,2.32-1.68,3.71-.03.26-.14.46-.32.6-.17.13-.34.2-.52.21-.4.02-.62-.22-.65-.73-.05-.81.34-1.88,1.15-3.22.34-.56.74-1.06,1.19-1.52.3-.31.54-.47.74-.48Z"/><path class="cls-4" d="M24.18,27.65c.71-.67,1.36-1.03,1.96-1.06.37-.02.68.12.93.41.24.26.36.57.38.93.04.68-.14,1.53-.53,2.53-.44,1.11-1.11,2.15-2,3.14-.74.82-1.46,1.25-2.17,1.29-.26.02-.51-.02-.73-.1-.22-.08-.42-.22-.6-.4-.06.13-.1.21-.12.24-.13.33-.22.54-.28.61-.05.07-.14.11-.26.12-.16,0-.31-.07-.46-.25-.1-.12-.16-.25-.17-.39-.01-.25.42-1.52,1.3-3.81,1.24-3.2,2.69-6.4,4.38-9.6.68-1.31,1.1-2.07,1.26-2.3.17-.27.33-.41.49-.42.19-.01.37.08.53.26.1.12.16.26.17.43.01.18-.06.42-.21.71-.03.06-.28.53-.75,1.4-1.45,2.55-2.49,4.64-3.13,6.28ZM22.29,33.47c.14.08.29.12.43.11.76-.04,1.53-.75,2.31-2.12.36-.62.64-1.23.83-1.83.17-.54.25-.93.24-1.19,0-.18-.06-.3-.14-.38-.08-.08-.21-.11-.38-.1-.4.02-.88.33-1.41.91-.54.58-1.06,1.39-1.55,2.45-.24.51-.44.98-.61,1.42l-.15.37c.14.17.28.29.42.37Z"/><path class="cls-4" d="M32.82,30.39c-.73.97-1.31,1.69-1.75,2.16-.87.93-1.61,1.41-2.23,1.45-.3.02-.54-.08-.73-.29-.14-.17-.22-.38-.23-.65-.05-.95.44-2.24,1.47-3.87,1.05-1.66,1.83-2.51,2.34-2.54.14,0,.27.05.38.16.1.09.16.2.16.33.01.19-.03.36-.12.52-.09.15-.36.49-.81,1.02-.47.55-.9,1.13-1.29,1.76-.44.71-.66,1.23-.64,1.54.01.18.1.27.28.26.35-.02.98-.54,1.89-1.55.57-.64,1.02-1.18,1.33-1.61.07-.09.35-.53.85-1.3.45-.69.73-1.09.84-1.22.25-.32.48-.49.71-.5.14,0,.27.05.39.16.11.11.17.24.18.39.01.25-.14.69-.45,1.31-.38.75-.73,1.45-1.04,2.11-.5,1.01-.87,1.92-1.13,2.71.54-.36,1.03-.79,1.47-1.29.75-.84,1.19-1.45,1.35-1.85.15-.36.31-.55.48-.56.25-.01.38.1.39.35.03.47-.33,1.18-1.07,2.15-.88,1.16-2,2.17-3.34,3.02-.64,1.81-1.25,3.32-1.84,4.53-1.11,2.22-2.31,3.37-3.62,3.44-.54.03-.98-.15-1.33-.55-.27-.3-.42-.69-.45-1.18-.08-1.37.8-2.82,2.64-4.36.54-.45,1.34-1.03,2.41-1.72.43-.28.77-.51,1.02-.68.13-.41.35-.96.63-1.65.32-.74.6-1.41.84-2ZM30.69,35.7c-.9.53-1.82,1.26-2.74,2.19-.93.96-1.37,1.83-1.33,2.61,0,.17.07.3.17.41.14.15.32.22.53.21.66-.04,1.35-.77,2.07-2.19.12-.24.44-1.02.95-2.34.11-.27.23-.57.36-.89Z"/><path class="cls-4" d="M41.73,25.08c-.52.92-.99,1.94-1.41,3.06-.6,1.6-.88,2.79-.84,3.56.01.22.07.38.17.49.1.11.24.16.42.15.44-.02.95-.47,1.52-1.33.37-.53.69-1.06.97-1.59.15-.3.32-.45.52-.47.11,0,.21.03.3.1.08.08.11.15.12.23.02.32-.37,1.07-1.15,2.24-.94,1.41-1.83,2.14-2.68,2.19-.45.03-.83-.16-1.15-.56-.2-.25-.31-.62-.34-1.1-.06-1.06.18-2.32.71-3.76.13-.36.49-1.23,1.09-2.61-.23.07-.41.12-.53.12-.18.01-.35-.02-.5-.1-.2-.11-.31-.26-.32-.44-.01-.22.1-.4.35-.55.07-.04.39-.11.96-.23.21-.05.51-.15.91-.3.28-.57.73-1.35,1.37-2.34.36-.55.6-.91.74-1.07.2-.23.38-.35.53-.36.11,0,.23.05.35.16.11.11.17.22.18.33.01.23-.21.69-.66,1.4-.3.46-.52.83-.66,1.11.96-.32,1.65-.49,2.07-.51.48-.03.74.16.76.56.01.2-.06.36-.22.46-.08.06-.31.11-.68.17-.15,0-.8.2-1.96.61-.32.11-.63.23-.94.36Z"/><path class="cls-4" d="M44.86,30.87v.24c.02.19.08.36.19.49.24.31.61.45,1.11.43,1.1-.06,2.32-.98,3.66-2.74.24-.3.44-.46.62-.47.1,0,.19.04.27.13.06.07.09.13.09.19.02.34-.37.95-1.16,1.81-.62.68-1.29,1.24-2.02,1.69-.72.45-1.4.69-2.04.72-.66.04-1.19-.16-1.59-.6-.27-.3-.42-.72-.46-1.27-.08-1.48.53-2.97,1.84-4.48,1.07-1.22,2.02-1.86,2.86-1.91.23-.01.44.05.63.18.24.17.37.41.38.7.03.47-.16,1.05-.55,1.75-.81,1.46-2.08,2.5-3.84,3.14ZM45.09,29.82c.6-.25,1.07-.51,1.41-.79.59-.51,1.04-1.07,1.37-1.69.12-.22.17-.41.17-.58,0-.18-.1-.26-.26-.25-.23.01-.54.2-.95.57-.72.65-1.3,1.56-1.73,2.74Z"/><path class="cls-4" d="M62.98,24.66c.77-1.88,1.51-3.53,2.21-4.93.68-1.36,1.15-2.22,1.4-2.58.28-.39.55-.6.81-.61.14,0,.27.04.39.15.11.11.17.23.18.36.01.2-.12.55-.39,1.04-1.16,2.13-2.2,4.28-3.15,6.45-1.09,2.54-1.6,4.42-1.53,5.65.03.5.15.89.36,1.17.04.06.2.19.5.39.06.04.09.13.09.26,0,.18-.05.34-.18.49-.13.15-.28.23-.44.24-.2.01-.43-.1-.69-.33-.37-.33-.6-.72-.7-1.17-.04-.19-.09-.55-.15-1.07-.83,1.71-1.66,2.59-2.49,2.64-.48.03-.88-.22-1.21-.75-.21-.35-.33-.75-.36-1.21-.08-1.37.34-2.77,1.27-4.22.91-1.42,1.94-2.17,3.08-2.24.32-.02.65.07.99.27ZM62.6,25.76c-.25-.14-.46-.21-.63-.2-.74.04-1.41.53-2.02,1.48-.8,1.23-1.17,2.39-1.11,3.48,0,.13.04.25.1.36.12.21.28.31.49.3.31-.02.66-.34,1.07-.96.54-.82,1.03-1.79,1.47-2.9.15-.38.3-.76.45-1.13l.1-.26.07-.18Z"/><path class="cls-4" d="M66.04,29.66v.24c.02.19.08.36.19.49.24.31.61.45,1.11.43,1.1-.06,2.32-.98,3.66-2.74.24-.3.44-.46.62-.47.1,0,.19.04.27.13.06.07.09.13.09.19.02.34-.37.95-1.16,1.81-.62.68-1.29,1.24-2.02,1.69-.72.45-1.4.69-2.04.72-.66.04-1.19-.16-1.59-.6-.27-.3-.42-.72-.46-1.27-.08-1.48.53-2.97,1.84-4.48,1.07-1.22,2.02-1.86,2.86-1.91.23-.01.44.05.63.18.24.17.37.41.38.7.03.47-.16,1.05-.55,1.75-.81,1.45-2.08,2.5-3.84,3.14ZM66.27,28.62c.6-.25,1.07-.51,1.41-.79.59-.51,1.04-1.07,1.37-1.69.12-.22.17-.41.17-.58,0-.18-.1-.26-.27-.25-.23.01-.54.2-.94.57-.72.65-1.3,1.56-1.73,2.74Z"/><path class="cls-4" d="M76.85,23.39c.69-.04,1.06.31,1.1,1.03.04.64-.18,1.3-.64,1.98-.36.51-.68.78-.97.8-.25.01-.38-.12-.39-.4,0-.15.02-.27.08-.36.02-.04.12-.14.3-.32.15-.16.3-.39.45-.7.1-.21.15-.37.14-.5,0-.14-.09-.21-.25-.2-.18.01-.46.17-.82.48-.57.5-1.13,1.26-1.67,2.29-.55,1.07-.82,1.9-.78,2.5.01.19.08.36.2.5.18.22.41.32.69.3.55-.03,1.19-.41,1.9-1.14.61-.62,1.11-1.24,1.52-1.86.21-.34.4-.51.56-.52.1,0,.19.03.27.12.08.08.12.17.12.26.02.32-.36.98-1.14,1.97-1.24,1.55-2.4,2.35-3.48,2.42-.65.04-1.16-.17-1.53-.61-.27-.33-.41-.73-.44-1.19-.05-.91.27-1.99.95-3.24.66-1.19,1.45-2.16,2.37-2.92.54-.44,1.02-.67,1.44-.69Z"/><path class="cls-4" d="M84.52,22.63c.72-.04,1.1.38,1.15,1.25.07,1.17-.39,2.68-1.37,4.53-1.07,2.01-2.15,3.04-3.24,3.1-.51.03-.9-.19-1.16-.65-.14-.23-.21-.51-.23-.85-.06-1.12.25-2.36.95-3.73.65-1.26,1.44-2.26,2.38-2.99.55-.43,1.05-.65,1.52-.68ZM83.44,27.68c-.23-.16-.35-.29-.35-.39,0-.07.12-.27.39-.6.74-.93,1.09-1.67,1.06-2.21,0-.07-.03-.14-.08-.21-.08-.13-.19-.19-.34-.18-.28.02-.68.31-1.19.89-.66.74-1.16,1.5-1.48,2.26-.38.88-.56,1.59-.52,2.16,0,.15.06.28.14.39.12.15.27.22.45.21.42-.02.86-.37,1.3-1.02.2-.28.35-.56.47-.85.12-.29.17-.44.16-.44Z"/><path class="cls-4" d="M88.19,26.54c.69-.81,1.31-1.46,1.85-1.93.81-.71,1.36-1.07,1.65-1.08.14,0,.27.04.38.14.1.09.16.19.16.31,0,.17-.13.45-.41.84-.44.62-.74,1.15-.9,1.58,1.94-2.18,3.28-3.29,4.04-3.33.16,0,.3.03.42.12.13.1.2.23.21.38.01.25-.16.57-.51.98-1.56,1.81-2.31,3.26-2.25,4.35.03.45.12.76.29.95l.37.42c.08.07.12.17.12.3,0,.14-.04.27-.15.4-.12.15-.27.23-.44.24-.29.02-.57-.15-.83-.51-.32-.42-.5-.93-.54-1.53-.04-.8.14-1.62.55-2.46.14-.3.38-.7.72-1.2-.71.6-1.43,1.42-2.14,2.45-.49.7-.92,1.47-1.29,2.32-.18.41-.41.62-.68.63-.3.02-.46-.14-.48-.47-.02-.36.18-1.12.61-2.27.24-.66.55-1.35.92-2.09-1.43,1.24-2.47,2.88-3.11,4.9-.16.45-.39.68-.7.7-.14,0-.26-.04-.35-.14-.1-.1-.16-.22-.17-.37-.03-.52.21-1.47.71-2.85.52-1.46,1.13-2.79,1.83-3.97.48-.83.87-1.25,1.16-1.27.26-.02.4.12.42.4,0,.12-.14.44-.43.95-.52.95-.86,1.66-1.02,2.12Z"/><path class="cls-4" d="M99.14,23.3c.35-.25.61-.42.78-.52.35-.2.7-.3,1.04-.32.39-.02.68.07.89.29.21.21.32.54.35.99.04.61-.14,1.36-.52,2.25-.59,1.4-1.34,2.51-2.24,3.35-.76.7-1.49,1.07-2.19,1.11-.39.02-.78-.1-1.17-.38-1.06,2.5-2,5.04-2.8,7.62-.17.62-.39.93-.66.95-.13,0-.27-.07-.41-.24-.1-.12-.16-.25-.17-.4-.03-.47.46-2.05,1.47-4.72,1.56-4.12,3.07-7.56,4.52-10.31.3-.58.5-.98.61-1.2.27-.59.56-.89.85-.91.3-.02.46.15.48.51.01.2-.08.48-.27.83-.23.45-.41.82-.54,1.09ZM96.49,28.93c.21.19.45.28.74.26.82-.05,1.68-.82,2.59-2.33.34-.56.6-1.12.79-1.7.15-.46.22-.8.21-1.03,0-.16-.05-.27-.13-.35-.08-.07-.2-.11-.36-.1-.41.02-.9.34-1.46.94-.54.59-1.04,1.39-1.51,2.42-.43.95-.72,1.57-.86,1.87Z"/><path class="cls-4" d="M107.45,21.32c.72-.04,1.1.38,1.15,1.25.07,1.17-.39,2.68-1.37,4.53-1.07,2.01-2.15,3.04-3.24,3.1-.51.03-.9-.19-1.16-.65-.14-.23-.21-.51-.23-.84-.06-1.12.25-2.36.95-3.73.65-1.26,1.44-2.26,2.38-2.99.55-.43,1.05-.65,1.52-.68ZM106.37,26.38c-.23-.16-.35-.29-.35-.39,0-.07.12-.27.39-.6.74-.93,1.09-1.67,1.06-2.21,0-.07-.03-.14-.08-.21-.08-.13-.19-.19-.34-.18-.28.02-.68.31-1.19.89-.66.74-1.16,1.5-1.48,2.26-.38.88-.56,1.59-.52,2.16,0,.15.06.28.14.39.12.15.27.22.45.21.42-.02.86-.37,1.3-1.03.2-.27.35-.56.47-.84.12-.29.17-.44.16-.45Z"/><path class="cls-4" d="M114.65,20.66c.54-.03.96.04,1.24.22s.44.46.46.86c.03.52-.13,1.03-.49,1.53-.34.48-.88.88-1.6,1.2-.4.17-.73.27-1,.28-.37.02-.56-.13-.58-.46-.01-.22.08-.39.29-.52.05-.03.34-.12.88-.27.32-.09.61-.26.87-.51.23-.22.33-.44.32-.68-.01-.18-.07-.32-.18-.4-.11-.08-.27-.12-.48-.1-.51.03-1.06.27-1.65.71-.68.51-1.01,1.08-.97,1.72.03.46.29,1.01.79,1.67.56.72.86,1.33.88,1.85.04.77-.26,1.4-.92,1.88-.41.3-.88.46-1.41.49-.84.05-1.5-.22-1.97-.8-.33-.41-.51-.91-.55-1.5-.04-.68.1-1.27.43-1.75.21-.32.44-.49.68-.5.22-.01.33.07.34.24,0,.07-.03.18-.1.32-.18.39-.26.84-.23,1.35.02.43.2.79.52,1.07.29.25.61.36.96.34.34-.02.6-.15.78-.39.15-.2.21-.45.19-.75-.02-.37-.26-.83-.71-1.4-.62-.77-.96-1.49-.99-2.15-.05-.88.38-1.68,1.3-2.41.89-.7,1.86-1.08,2.89-1.14Z"/><path class="cls-4" d="M118.96,21.27c.15,0,.28.04.38.15.08.09.12.19.12.28,0,.16-.1.43-.34.81-.83,1.47-1.42,2.67-1.75,3.6-.36.96-.67,1.95-.93,2.96-.12.45-.32.68-.62.7-.18,0-.32-.05-.43-.19-.1-.11-.16-.23-.17-.36-.01-.26.22-1.16.69-2.68.37-1.2,1.01-2.54,1.91-4.02.29-.48.51-.81.66-.98.15-.18.31-.27.47-.28ZM121.19,16.25c.39-.02.6.17.63.57.02.37-.15.79-.51,1.26-.34.45-.69.69-1.03.71-.17,0-.31-.04-.42-.16-.11-.11-.17-.25-.18-.41-.02-.42.18-.88.62-1.38.32-.37.62-.56.89-.58Z"/><path class="cls-4" d="M123.85,20.4c-.52.92-.99,1.94-1.41,3.06-.6,1.6-.88,2.79-.84,3.56.01.22.07.38.17.49s.24.16.42.15c.44-.02.95-.47,1.52-1.33.37-.53.69-1.06.97-1.59.15-.3.32-.45.52-.47.11,0,.21.03.3.1.08.08.11.15.12.23.02.32-.37,1.07-1.15,2.24-.94,1.41-1.83,2.14-2.68,2.19-.45.03-.83-.16-1.15-.56-.2-.25-.31-.62-.34-1.1-.06-1.06.18-2.32.71-3.76.13-.36.49-1.23,1.09-2.61-.23.08-.41.12-.53.12-.18.01-.35-.02-.5-.1-.2-.11-.31-.26-.32-.44-.01-.22.1-.4.35-.55.07-.04.39-.11.96-.23.21-.05.51-.15.91-.3.28-.57.73-1.35,1.37-2.34.36-.55.6-.91.74-1.07.2-.23.38-.35.53-.36.11,0,.23.05.35.16.11.11.17.22.18.33.01.23-.21.69-.66,1.4-.3.46-.52.83-.66,1.11.96-.32,1.65-.49,2.07-.51.48-.03.74.16.76.56.01.2-.06.36-.22.46-.08.06-.31.11-.68.17-.15,0-.8.2-1.96.61-.32.11-.63.23-.94.36Z"/><path class="cls-4" d="M129.1,20.7c.15,0,.28.04.38.15.08.09.12.19.12.28,0,.16-.1.43-.34.81-.83,1.46-1.42,2.66-1.75,3.6-.36.96-.67,1.95-.93,2.96-.12.45-.32.68-.62.7-.18,0-.32-.05-.43-.19-.1-.11-.16-.23-.17-.36-.01-.26.22-1.16.69-2.68.37-1.2,1.01-2.54,1.91-4.02.29-.48.51-.81.66-.98.15-.18.31-.27.47-.28ZM131.32,15.67c.39-.02.6.17.63.57.02.37-.15.79-.51,1.26-.34.45-.69.69-1.03.71-.17,0-.31-.04-.42-.16-.11-.11-.17-.25-.18-.41-.02-.42.18-.88.62-1.38.32-.37.62-.56.89-.58Z"/><path class="cls-4" d="M134.25,19.8c.72-.04,1.1.38,1.15,1.25.07,1.17-.39,2.68-1.37,4.53-1.07,2.01-2.15,3.04-3.24,3.1-.51.03-.9-.19-1.16-.65-.14-.23-.21-.51-.23-.85-.06-1.12.25-2.36.95-3.73.65-1.26,1.44-2.26,2.38-2.99.55-.43,1.05-.65,1.52-.68ZM133.16,24.85c-.23-.16-.35-.29-.35-.39,0-.07.13-.27.39-.6.74-.93,1.09-1.67,1.06-2.21,0-.07-.03-.14-.08-.21-.08-.13-.19-.19-.34-.18-.28.02-.68.31-1.19.89-.66.74-1.16,1.5-1.48,2.26-.38.88-.56,1.59-.52,2.16,0,.15.05.28.14.39.12.15.27.22.45.21.42-.02.85-.37,1.3-1.02.2-.28.35-.56.47-.85.12-.29.17-.44.16-.44Z"/><path class="cls-4" d="M138.08,23.57c.11-.11.21-.22.31-.33,1.73-1.89,2.91-2.86,3.53-2.9.34-.02.52.16.55.54.01.26-.12.58-.41.96-1.57,2.05-2.3,3.82-2.22,5.32.03.48.19.94.47,1.36.13.19.2.35.21.46,0,.11-.04.21-.14.31-.11.13-.24.2-.4.21-.36.02-.68-.19-.95-.63-.26-.42-.41-.93-.44-1.55-.07-1.18.31-2.52,1.12-4.01-1.15.83-2.18,2.25-3.1,4.24-.24.48-.5.73-.8.75-.15,0-.28-.04-.38-.14-.13-.12-.2-.27-.21-.46-.03-.47.44-1.75,1.41-3.82.52-1.12.93-1.94,1.23-2.45.31-.5.58-.76.81-.77.11,0,.23.04.34.14.13.12.2.25.21.41.01.19-.1.48-.33.85-.34.56-.61,1.06-.81,1.51Z"/><path class="cls-4" d="M149.84,9.98c.41-.02.63.22.66.74.04.8-.34,1.87-1.15,3.21-.33.55-.73,1.05-1.19,1.52-.3.31-.55.47-.74.48-.18.01-.34-.06-.46-.22-.08-.1-.13-.22-.14-.36-.01-.19.16-.47.52-.83,1.01-1.09,1.57-2.33,1.68-3.71.03-.26.14-.46.32-.61.17-.12.34-.19.5-.2ZM152.89,9.81c.41-.02.63.22.66.74.04.8-.34,1.87-1.15,3.21-.33.55-.73,1.05-1.19,1.52-.3.31-.55.47-.74.48-.18.01-.34-.06-.46-.22-.08-.1-.13-.22-.14-.36-.01-.19.16-.47.52-.83,1.02-1.09,1.58-2.33,1.68-3.71.03-.26.14-.46.32-.61.17-.12.34-.19.5-.2Z"/><path class="cls-4" d="M20.93,64.09c.19.08.34.2.43.36.1.17.14.38.14.64,0,.8-.31,1.65-.93,2.55-.68.98-1.32,1.47-1.94,1.47-.31,0-.54-.16-.69-.48-.1-.21-.15-.46-.15-.75,0-.71.26-1.46.78-2.25.27-.4.63-.82,1.09-1.25.48-.44.83-.67,1.04-.67.16,0,.24.13.24.38ZM20.23,64.47c-.42.34-.79.76-1.11,1.26-.46.71-.69,1.39-.69,2.06,0,.2.03.35.08.46.09.17.21.26.37.26.25,0,.54-.19.89-.57.38-.42.68-.94.9-1.55.17-.46.25-.85.25-1.17,0-.22-.07-.41-.2-.57-.09-.11-.22-.17-.37-.18h-.11Z"/><path class="cls-4" d="M22.44,66.67c.11,0,.24,0,.39.01.31.01.5.02.59.02.21,0,.35.02.41.07.06.04.1.12.1.24,0,.11-.03.19-.09.25-.04.03-.08.05-.13.05-.04,0-.09,0-.17-.01-.13-.01-.48-.02-1.05-.02-.35,0-.61.02-.78.06-.08.02-.15.03-.19.03-.1,0-.17-.05-.22-.14-.02-.05-.04-.1-.04-.16,0-.19.09-.3.26-.34.13-.03.44-.05.92-.05Z"/><path class="cls-4" d="M24.35,68.45c.6-.19,1.15-.28,1.66-.28.2,0,.36.04.48.12.11.07.16.16.16.26,0,.07-.02.13-.08.18s-.11.08-.17.08c-.02,0-.05,0-.1-.02-.19-.05-.35-.08-.5-.08-.13,0-.3.01-.49.04-.07.01-.32.08-.75.19-.39.1-.62.16-.69.16-.1,0-.19-.05-.26-.15-.07-.09-.1-.18-.1-.28,0-.11.09-.25.28-.44.35-.34.69-.65,1.02-.93.31-.26.69-.56,1.14-.89.52-.38.88-.66,1.07-.84.29-.26.44-.52.44-.77,0-.14-.05-.26-.14-.34-.08-.07-.19-.11-.31-.11-.32,0-.7.18-1.14.54-.2.16-.33.25-.38.25-.04,0-.08-.02-.12-.06-.05-.04-.08-.09-.08-.16,0-.13.16-.31.47-.55.5-.38.98-.57,1.43-.57.26,0,.48.08.66.25.17.16.25.36.25.59,0,.4-.2.8-.61,1.19-.18.17-.5.43-.97.77-1.13.82-1.85,1.43-2.18,1.82Z"/><path class="cls-4" d="M30.52,64.4c-.61.53-1,.98-1.17,1.35.35-.14.66-.21.91-.21.29,0,.52.09.68.26.15.16.23.37.23.63,0,.59-.28,1.19-.84,1.79-.56.6-1.1.9-1.64.9-.31,0-.55-.14-.72-.43-.11-.19-.17-.41-.17-.66s.05-.45.16-.61c.09-.13.2-.2.34-.2.13,0,.19.05.19.15,0,.02-.01.06-.03.12-.04.1-.05.24-.05.42,0,.15.04.29.11.4.1.16.23.24.39.24.32,0,.66-.2,1.01-.61.39-.44.58-.89.58-1.33,0-.18-.04-.32-.12-.41-.08-.09-.21-.14-.38-.14s-.37.04-.6.13c-.05.02-.18.08-.39.19-.04.02-.08.04-.12.04-.07,0-.14-.04-.2-.13-.07-.1-.11-.18-.11-.26,0-.15.16-.44.47-.85.2-.27.44-.54.73-.82-.08-.11-.12-.19-.12-.25,0-.08.06-.14.17-.18.05-.02.26-.05.61-.1.4-.05.72-.08.97-.08s.41.02.51.05c.13.04.19.12.19.26,0,.16-.08.25-.25.25-.04,0-.11,0-.21-.01-.04,0-.08,0-.12,0-.17,0-.34,0-.51.02-.17.02-.33.04-.5.07Z"/><path class="cls-4" d="M34.28,64.4c-.61.53-1,.98-1.17,1.35.35-.14.66-.21.91-.21.29,0,.52.09.68.26.15.16.23.37.23.63,0,.59-.28,1.19-.84,1.79-.56.6-1.1.9-1.64.9-.31,0-.55-.14-.72-.43-.11-.19-.17-.41-.17-.66s.05-.45.16-.61c.09-.13.2-.2.34-.2.13,0,.19.05.19.15,0,.02-.01.06-.03.12-.04.1-.05.24-.05.42,0,.15.04.29.11.4.1.16.23.24.39.24.32,0,.66-.2,1.01-.61.39-.44.58-.89.58-1.33,0-.18-.04-.32-.12-.41-.08-.09-.21-.14-.38-.14s-.37.04-.6.13c-.05.02-.18.08-.39.19-.04.02-.08.04-.12.04-.07,0-.14-.04-.2-.13-.07-.1-.11-.18-.11-.26,0-.15.16-.44.47-.85.2-.27.44-.54.73-.82-.08-.11-.12-.19-.12-.25,0-.08.06-.14.17-.18.05-.02.26-.05.61-.1.4-.05.72-.08.97-.08s.41.02.51.05c.13.04.19.12.19.26,0,.16-.08.25-.25.25-.04,0-.11,0-.21-.01-.04,0-.08,0-.12,0-.17,0-.34,0-.51.02-.17.02-.33.04-.5.07Z"/><path class="cls-4" d="M20.27,74.6c-.21.52-.36.93-.44,1.21-.09.28-.2.67-.32,1.15-.53,2.21-.85,3.98-.95,5.31-.07.75-.06,1.37.01,1.86.06,0,.12,0,.17-.01.05,0,.11-.02.16-.03.11-.03.26-.08.45-.17.08-.04.15-.07.21-.08.07-.02.13-.01.19.02.06.03.09.07.11.12.02.08-.02.16-.11.24-.11.1-.37.2-.79.31-.2.05-.37.08-.53.07-.1,0-.16-.02-.2-.06-.04-.03-.07-.1-.1-.19-.1-.38-.11-1.06-.03-2.05.12-1.5.45-3.3.99-5.4.31-1.19.55-1.98.71-2.35.07-.17.18-.29.31-.36.11-.06.3-.12.58-.19.31-.08.51-.11.61-.1.11.01.18.06.21.16.02.08,0,.14-.05.19-.05.05-.11.09-.17.11-.04.01-.16.03-.34.07-.06.01-.13.03-.2.05-.11.03-.27.07-.46.13Z"/><path class="cls-4" d="M21.95,78.02c.21-.3.42-.47.64-.53.13-.03.25,0,.37.08.1.08.17.18.21.31.06.25.06.56,0,.96-.08.43-.25.86-.5,1.28-.21.35-.44.56-.7.62-.09.02-.19.03-.27.01s-.17-.05-.25-.1c-.01.05-.02.08-.03.1-.02.13-.04.21-.06.24-.01.03-.04.05-.09.06-.06.01-.12,0-.19-.06-.04-.04-.08-.08-.09-.13-.02-.09.04-.58.2-1.48.22-1.25.52-2.52.9-3.8.15-.52.25-.83.29-.93.04-.11.09-.18.15-.19.07-.02.14,0,.21.06.05.04.08.08.09.14.02.07,0,.16-.02.27,0,.03-.06.21-.17.56-.34,1.03-.57,1.87-.68,2.51ZM21.68,80.27c.06.02.11.02.17,0,.27-.07.5-.38.69-.94.09-.25.14-.49.17-.73.02-.21.02-.36,0-.45-.02-.06-.04-.11-.08-.13s-.08-.03-.14-.01c-.15.04-.29.18-.45.43-.15.25-.28.58-.39,1-.05.2-.09.39-.12.56l-.03.14c.06.05.12.09.18.1Z"/><path class="cls-4" d="M25.29,78.39c-.19.4-.35.71-.48.91-.25.4-.49.63-.71.69-.11.03-.2.01-.29-.05-.06-.05-.11-.12-.13-.22-.09-.34,0-.84.25-1.51.26-.68.48-1.04.67-1.09.05-.01.1,0,.15.03.04.03.07.06.08.11.02.07.02.13,0,.2-.02.06-.1.2-.22.43-.13.23-.25.48-.34.73-.11.29-.15.49-.12.61.02.07.06.09.12.08.13-.03.32-.27.58-.7.16-.27.28-.5.37-.68.02-.04.09-.22.21-.54.12-.28.19-.45.22-.5.07-.13.14-.21.22-.23.05-.01.1,0,.15.03.05.03.08.07.09.13.02.09,0,.26-.07.51-.08.3-.16.58-.23.84-.11.4-.18.76-.21,1.06.17-.17.32-.36.44-.57.21-.36.33-.61.36-.77.03-.14.07-.22.14-.24.09-.02.14,0,.17.1.04.17-.03.45-.23.86-.24.48-.57.93-1,1.34-.1.71-.21,1.3-.34,1.78-.24.89-.6,1.39-1.07,1.51-.19.05-.37.02-.52-.1-.12-.09-.2-.22-.25-.39-.13-.49.09-1.08.65-1.78.16-.2.41-.47.75-.8.14-.13.24-.24.32-.32.02-.16.06-.37.11-.64.06-.29.12-.55.16-.79ZM24.9,80.47c-.29.26-.57.59-.84.99-.27.42-.37.76-.29,1.04.02.06.05.11.09.14.06.04.13.06.21.04.24-.06.43-.38.59-.95.03-.09.08-.4.18-.92.02-.11.04-.22.07-.35Z"/><path class="cls-4" d="M28.14,75.81c-.12.37-.22.78-.29,1.22-.1.62-.12,1.08-.05,1.35.02.08.05.13.1.17s.1.04.16.02c.16-.04.31-.24.46-.59.09-.22.17-.43.24-.65.03-.12.08-.19.15-.21.04-.01.08,0,.12.02.03.02.05.05.06.08.03.12-.06.42-.26.9-.24.58-.51.91-.81.99-.16.04-.31,0-.46-.12-.09-.08-.16-.2-.2-.38-.1-.38-.1-.85-.01-1.42.02-.14.09-.48.21-1.03-.08.04-.14.07-.19.08-.07.02-.13.02-.19,0-.08-.03-.13-.07-.15-.14-.02-.08,0-.15.09-.23.02-.02.13-.07.33-.15.07-.03.17-.09.31-.18.06-.23.17-.54.33-.95.09-.22.15-.37.19-.44.06-.1.11-.15.17-.17.04-.01.09,0,.14.03.05.03.08.07.09.11.02.08-.02.27-.14.56-.08.19-.13.34-.16.45.33-.19.56-.3.72-.34.17-.04.28,0,.32.15.02.07,0,.13-.05.18-.03.03-.1.06-.23.11-.05.01-.28.13-.67.36-.11.06-.21.13-.32.2Z"/><path class="cls-4" d="M29.7,77.69l.02.08c.02.07.05.12.1.17.11.1.25.12.43.07.39-.1.77-.52,1.13-1.26.06-.13.13-.2.19-.22.03,0,.07,0,.11.03.03.02.04.04.05.06.03.12-.07.37-.29.74-.18.29-.38.54-.61.76-.23.21-.46.35-.69.41-.24.06-.44.03-.62-.1-.12-.09-.21-.23-.26-.43-.14-.53-.02-1.12.35-1.76.3-.52.6-.82.9-.9.08-.02.16-.02.24.02.1.05.16.12.19.23.04.17.02.39-.07.67-.19.59-.58,1.06-1.17,1.42ZM29.7,77.3c.2-.13.35-.26.45-.39.18-.23.3-.47.38-.71.03-.09.03-.16.02-.22-.02-.06-.05-.09-.11-.07-.08.02-.18.11-.3.27-.21.29-.36.66-.43,1.12Z"/><path class="cls-4" d="M32.46,80.53c.21-.53.36-.93.45-1.21.09-.28.19-.66.31-1.15.53-2.21.85-3.97.95-5.31.07-.75.07-1.37,0-1.86-.06,0-.12,0-.18.02-.05,0-.11.02-.15.03-.11.03-.26.08-.45.17-.09.04-.16.07-.21.08-.07.02-.13.01-.19-.02-.06-.03-.09-.07-.11-.12-.02-.08.02-.16.11-.24.11-.1.37-.2.79-.31.2-.05.37-.07.53-.07.1,0,.17.02.21.06.04.03.06.09.09.19.1.38.11,1.06.03,2.05-.12,1.5-.45,3.3-1,5.39-.31,1.2-.54,1.98-.7,2.35-.08.17-.18.29-.32.36-.11.06-.3.12-.57.19-.32.08-.52.12-.61.11-.11-.01-.18-.07-.21-.16-.02-.08,0-.14.05-.2.05-.05.11-.08.18-.1.05-.01.16-.04.33-.07.05-.01.12-.03.2-.05.11-.03.26-.07.46-.13Z"/><path class="cls-4" d="M22.81,102.75c.19.08.34.2.43.36.1.17.14.38.14.64,0,.8-.31,1.65-.93,2.55-.68.98-1.32,1.47-1.94,1.47-.31,0-.54-.16-.69-.48-.1-.21-.15-.46-.15-.75,0-.71.26-1.46.78-2.25.27-.4.63-.82,1.09-1.25.48-.44.83-.67,1.04-.67.16,0,.24.13.24.38ZM22.11,103.14c-.42.34-.79.76-1.11,1.26-.46.71-.69,1.39-.69,2.06,0,.2.03.35.08.46.09.17.21.26.37.26.25,0,.54-.19.89-.57.38-.42.68-.94.9-1.55.17-.46.25-.85.25-1.17,0-.22-.07-.41-.2-.57-.09-.11-.22-.17-.37-.18h-.11Z"/><path class="cls-4" d="M24.32,105.33c.11,0,.24,0,.39.01.31.01.5.02.59.02.21,0,.35.02.41.07.06.04.1.12.1.24,0,.11-.03.19-.09.25-.04.03-.08.05-.13.05-.04,0-.09,0-.17-.01-.13-.01-.48-.02-1.05-.02-.35,0-.61.02-.78.06-.08.02-.15.03-.19.03-.1,0-.17-.05-.22-.14-.02-.05-.04-.1-.04-.16,0-.19.09-.3.26-.34.13-.03.44-.05.92-.05Z"/><path class="cls-4" d="M28.8,103.25c-.25.19-.5.35-.75.48-.34.18-.56.27-.67.27-.11,0-.17-.09-.17-.27,0-.06.01-.12.04-.17.03-.04.1-.08.2-.12.32-.14.79-.4,1.41-.78.28-.18.48-.26.59-.26.08,0,.14.04.2.11.04.05.06.1.06.16,0,.09-.07.24-.21.46-1.03,1.68-1.75,2.99-2.15,3.95-.1.23-.17.38-.21.44-.07.1-.14.15-.2.15s-.13-.04-.19-.12c-.04-.05-.05-.1-.05-.15,0-.19.28-.83.83-1.91.52-1.02.94-1.76,1.28-2.22Z"/><path class="cls-4" d="M32.4,103.06c-.61.53-1,.98-1.17,1.35.35-.14.66-.21.91-.21.29,0,.52.09.68.26.15.16.23.37.23.63,0,.59-.28,1.19-.84,1.79-.56.6-1.1.9-1.64.9-.31,0-.55-.14-.72-.43-.11-.19-.17-.41-.17-.66s.05-.45.16-.61c.09-.13.2-.2.34-.2.13,0,.19.05.19.15,0,.02-.01.06-.03.12-.04.1-.05.24-.05.42,0,.15.04.29.11.4.1.16.23.24.39.24.32,0,.66-.2,1.01-.61.39-.44.58-.89.58-1.33,0-.18-.04-.32-.12-.41-.08-.09-.21-.14-.38-.14s-.37.04-.6.13c-.05.02-.18.08-.39.19-.04.02-.08.04-.12.04-.07,0-.14-.04-.2-.13-.07-.1-.11-.18-.11-.26,0-.15.16-.44.47-.85.2-.27.44-.54.73-.82-.08-.11-.12-.19-.12-.25,0-.08.06-.14.17-.18.05-.02.26-.05.61-.1.4-.05.72-.08.97-.08s.41.02.51.05c.13.04.19.12.19.26,0,.16-.08.25-.25.25-.04,0-.11,0-.21-.01-.04,0-.08,0-.12,0-.17,0-.34,0-.51.02-.17.02-.33.04-.5.07Z"/><path class="cls-4" d="M18.81,112.58c-.21.52-.36.93-.44,1.21s-.2.67-.32,1.15c-.53,2.21-.85,3.98-.95,5.31-.07.75-.06,1.37.01,1.86.06,0,.12,0,.17-.01.06,0,.11-.02.16-.03.11-.03.26-.08.45-.17.08-.04.15-.07.21-.08.07-.02.13-.01.19.02s.09.07.11.12c.02.08-.02.16-.11.24-.11.1-.37.2-.79.31-.2.05-.37.08-.53.07-.1,0-.16-.02-.2-.06-.04-.03-.07-.1-.1-.19-.1-.38-.11-1.06-.03-2.05.12-1.5.45-3.3.99-5.4.31-1.19.55-1.98.71-2.35.07-.17.18-.29.31-.36.11-.06.3-.12.58-.19.31-.08.52-.11.61-.1.11.01.18.06.21.16.02.08,0,.14-.05.2-.05.05-.11.09-.17.11-.04.01-.16.03-.34.07-.06.01-.13.03-.21.05-.11.03-.26.07-.45.13Z"/><path class="cls-4" d="M20.24,116.98s.06-.1.09-.14c.49-.81.85-1.25,1.07-1.31.12-.03.2.02.24.16.02.09,0,.22-.08.38-.42.86-.56,1.56-.42,2.09.04.17.13.33.27.46.06.06.1.11.11.15,0,.04,0,.08-.03.12-.03.05-.07.09-.13.1-.13.03-.26-.02-.39-.16-.13-.13-.22-.31-.27-.53-.11-.43-.07-.94.12-1.54-.36.38-.63.97-.82,1.76-.05.19-.13.3-.24.33-.05.01-.1,0-.15-.02-.05-.03-.09-.08-.11-.15-.04-.17.03-.67.24-1.49.11-.45.2-.77.27-.98.08-.2.16-.32.24-.34.04-.01.09,0,.13.03.06.03.09.08.11.13.02.07,0,.18-.06.33-.08.23-.15.43-.19.61Z"/><path class="cls-4" d="M22.78,115.04c.05-.01.1,0,.15.03.03.03.06.06.07.09.01.06,0,.16-.06.32-.2.59-.32,1.07-.38,1.43-.06.38-.1.76-.12,1.14,0,.17-.07.27-.17.3-.06.02-.12,0-.17-.04-.04-.03-.07-.07-.09-.12-.02-.09,0-.44.06-1.02.05-.46.18-1,.4-1.6.07-.2.13-.33.17-.4.04-.07.09-.12.15-.13ZM23.22,113.05c.14-.04.23.02.27.16.03.13,0,.3-.09.49-.09.19-.2.3-.32.33-.06.02-.11,0-.16-.03-.05-.03-.08-.08-.1-.14-.04-.15,0-.33.13-.55.09-.16.18-.25.28-.27Z"/><path class="cls-4" d="M24.26,115.03c.21-.3.42-.47.63-.53.13-.03.26,0,.37.08.1.08.17.18.21.31.06.25.06.56,0,.96-.08.43-.25.86-.5,1.28-.21.35-.44.56-.7.62-.09.02-.18.03-.27.01-.09-.01-.17-.05-.25-.1-.01.05-.02.08-.02.1-.02.13-.04.21-.06.24s-.04.05-.09.06c-.06.01-.12,0-.19-.06-.05-.04-.08-.08-.09-.13-.02-.09.04-.58.2-1.48.22-1.25.52-2.52.9-3.8.15-.52.25-.83.29-.93.04-.11.09-.17.15-.19.07-.02.14,0,.21.06.05.04.08.08.09.14.02.07,0,.16-.03.27,0,.03-.06.21-.17.56-.34,1.03-.57,1.87-.68,2.51ZM24,117.28c.06.02.11.02.17,0,.27-.07.5-.38.69-.94.09-.25.14-.49.17-.72.02-.21.02-.36,0-.45-.02-.06-.04-.11-.08-.13-.04-.02-.08-.03-.14-.01-.15.04-.29.18-.45.43-.15.25-.28.58-.39,1-.05.2-.09.39-.12.56l-.03.14c.06.05.12.08.18.1Z"/><path class="cls-4" d="M26.96,114.33c.21-.3.42-.47.63-.53.13-.03.26,0,.37.08.1.08.17.18.21.31.06.25.06.56,0,.96-.08.43-.25.86-.5,1.28-.21.35-.44.56-.7.62-.09.02-.19.03-.27.01s-.17-.05-.25-.1c-.01.05-.02.08-.03.1-.02.13-.04.21-.06.24-.01.03-.04.05-.09.06-.06.01-.12,0-.19-.06-.05-.04-.08-.08-.09-.13-.02-.09.04-.58.2-1.48.22-1.25.52-2.52.9-3.8.15-.52.25-.83.29-.93.04-.11.09-.17.15-.19.07-.02.14,0,.21.06.05.04.08.08.09.14.02.07,0,.16-.02.27,0,.03-.06.21-.17.56-.34,1.03-.57,1.87-.68,2.51ZM26.69,116.58c.06.02.11.02.17,0,.27-.07.5-.38.68-.94.09-.25.14-.49.17-.72.02-.21.02-.36,0-.45-.02-.06-.04-.11-.08-.13s-.08-.03-.14-.01c-.14.04-.29.18-.45.43-.15.25-.28.58-.39,1-.05.2-.09.39-.12.56l-.03.14c.06.05.12.08.18.1Z"/><path class="cls-4" d="M29.31,114.69c-.03.27-.05.49-.06.65,0,.16,0,.28.01.33.02.08.07.11.14.09.11-.03.23-.17.36-.43.06-.13.14-.35.23-.66.04-.12.09-.2.17-.21.08-.02.13,0,.15.09.04.14-.05.45-.25.94-.21.52-.46.81-.74.88-.12.03-.23,0-.33-.07-.07-.06-.12-.14-.15-.24-.05-.18-.06-.43-.03-.77s.09-.76.18-1.26c.25-1.28.56-2.36.93-3.24.3-.71.59-1.1.89-1.18.09-.02.18,0,.26.05.08.06.13.13.16.23.11.44-.09,1.28-.61,2.51-.24.55-.54,1.12-.91,1.7-.1.15-.23.36-.4.62ZM29.45,113.86c.51-.73.91-1.59,1.21-2.58.15-.51.21-.84.17-.99-.02-.07-.06-.1-.12-.08-.17.04-.4.47-.68,1.28-.23.67-.43,1.46-.59,2.37Z"/><path class="cls-4" d="M31.15,114.92l.02.08c.02.07.05.12.1.17.11.1.25.12.43.07.39-.1.77-.52,1.13-1.26.06-.13.13-.2.19-.22.03,0,.07,0,.11.03.02.02.04.04.05.06.03.12-.07.37-.29.74-.18.29-.38.54-.61.76-.23.21-.46.35-.69.41-.24.06-.44.03-.62-.1-.12-.09-.21-.23-.26-.43-.14-.53-.02-1.12.35-1.76.3-.52.6-.82.9-.9.08-.02.16-.02.24.02.1.05.16.12.19.23.04.17.02.39-.07.67-.19.59-.58,1.06-1.17,1.42ZM31.16,114.53c.2-.13.35-.26.45-.39.18-.23.3-.46.38-.71.03-.09.03-.16.02-.22-.02-.06-.05-.09-.11-.07-.08.02-.18.11-.3.27-.21.29-.36.66-.43,1.12Z"/><path class="cls-4" d="M33.91,117.76c.21-.53.36-.93.45-1.21.09-.28.2-.67.32-1.15.53-2.21.85-3.97.95-5.31.07-.75.07-1.37,0-1.86-.06,0-.12,0-.18.02-.05,0-.11.02-.15.03-.11.03-.26.08-.45.17-.09.04-.16.07-.21.08-.07.02-.13.01-.19-.01-.06-.03-.09-.07-.11-.12-.02-.08.02-.16.11-.24.11-.1.37-.2.79-.31.2-.05.38-.07.53-.07.1,0,.17.02.21.06.04.03.06.09.09.19.1.38.11,1.07.03,2.05-.12,1.5-.45,3.3-1,5.39-.31,1.2-.54,1.98-.71,2.35-.08.17-.18.29-.31.36-.11.06-.3.12-.57.19-.32.08-.52.12-.61.11-.11-.01-.18-.07-.21-.16-.02-.08,0-.14.05-.2.05-.05.11-.08.18-.1.05-.01.16-.04.33-.07.05-.01.12-.03.2-.05.11-.03.26-.07.46-.13Z"/><path class="cls-4" d="M24.69,140.64c.19.08.34.2.43.36.1.17.14.38.14.64,0,.8-.31,1.65-.93,2.55-.68.98-1.32,1.47-1.94,1.47-.31,0-.54-.16-.69-.48-.1-.21-.15-.46-.15-.75,0-.71.26-1.46.78-2.25.27-.4.63-.82,1.09-1.25.48-.44.83-.67,1.04-.67.16,0,.24.13.24.38ZM23.99,141.03c-.42.34-.79.76-1.11,1.26-.46.71-.69,1.39-.69,2.06,0,.2.03.35.08.46.09.17.21.26.37.26.25,0,.54-.19.89-.57.38-.42.68-.94.9-1.55.17-.46.25-.85.25-1.17,0-.22-.07-.41-.2-.57-.09-.11-.22-.17-.37-.18h-.11Z"/><path class="cls-4" d="M26.2,143.22c.11,0,.24,0,.39.01.31.01.5.02.59.02.21,0,.35.02.41.07.06.04.1.12.1.24,0,.11-.03.19-.09.25-.04.03-.08.05-.13.05-.04,0-.09,0-.17-.01-.13-.01-.48-.02-1.05-.02-.35,0-.61.02-.78.06-.08.02-.15.03-.19.03-.1,0-.17-.05-.22-.14-.02-.05-.04-.1-.04-.16,0-.19.09-.3.26-.34.13-.03.44-.05.92-.05Z"/><path class="cls-4" d="M30.53,142.38c.18.08.31.16.38.25.11.13.17.32.17.55,0,.58-.25,1.14-.74,1.68s-1,.81-1.51.81c-.32,0-.58-.13-.78-.4-.14-.19-.21-.4-.21-.63,0-.38.15-.57.44-.57.18,0,.26.07.26.2,0,.03,0,.07-.01.11-.01.06-.02.12-.02.18,0,.17.04.3.12.39.09.1.2.15.33.15.3,0,.63-.21.98-.64.33-.41.5-.8.5-1.17,0-.19-.04-.33-.13-.44-.1-.11-.23-.17-.4-.17-.07,0-.14.01-.2.03-.08.02-.15.04-.19.04-.1,0-.16-.07-.16-.21,0-.12.04-.22.12-.3.05-.05.15-.09.3-.13.3-.08.55-.18.76-.31.13-.09.24-.2.32-.34.04-.08.06-.15.06-.24,0-.1-.03-.18-.08-.23-.06-.05-.14-.08-.26-.08-.19,0-.39.05-.6.15-.05.02-.18.1-.38.22-.05.04-.11.05-.18.05-.12,0-.18-.07-.18-.2,0-.12.09-.24.27-.37.42-.3.83-.45,1.23-.45.24,0,.44.07.61.22.18.16.26.35.26.56,0,.29-.13.56-.38.82-.14.14-.37.3-.69.46Z"/><path class="cls-4" d="M18.64,149.03c-.21.52-.36.93-.44,1.21s-.2.67-.32,1.15c-.53,2.21-.85,3.98-.95,5.31-.07.75-.06,1.37.01,1.86.06,0,.12,0,.17-.01.06,0,.11-.02.16-.03.11-.03.26-.08.45-.17.08-.04.15-.07.21-.08.07-.02.13-.01.19.02s.09.07.11.12c.02.08-.02.16-.11.24-.11.1-.37.2-.79.31-.2.05-.37.08-.53.07-.1,0-.16-.02-.2-.06-.04-.03-.07-.1-.1-.19-.1-.38-.11-1.06-.03-2.05.12-1.5.45-3.3.99-5.4.31-1.19.55-1.98.71-2.35.07-.17.18-.29.31-.36.11-.06.3-.12.57-.19.31-.08.52-.11.61-.1.11.01.18.06.21.16.02.08,0,.14-.05.2-.05.05-.11.09-.17.11-.04.01-.16.03-.34.07-.06.01-.13.03-.2.05-.11.03-.27.07-.46.13Z"/><path class="cls-4" d="M20.56,151.91c.25-.06.41.03.48.3.06.23.03.48-.09.76-.09.21-.19.33-.3.36-.09.02-.15-.02-.17-.12-.01-.05-.01-.1,0-.14,0-.01.03-.06.08-.14.04-.07.08-.16.11-.29.02-.08.03-.15.02-.19-.01-.05-.05-.07-.1-.05-.07.02-.15.1-.26.23-.17.22-.32.54-.44.95-.12.43-.16.75-.1.96.02.07.05.13.11.17.08.07.17.09.27.06.2-.05.4-.24.61-.55.18-.27.32-.53.42-.78.05-.14.11-.21.17-.23.03,0,.07,0,.11.02.03.03.05.05.06.08.03.12-.06.38-.27.8-.34.65-.7,1.03-1.09,1.13-.23.06-.43.02-.6-.11-.12-.1-.2-.23-.25-.4-.08-.33-.05-.74.11-1.25.16-.48.37-.89.65-1.23.16-.2.32-.32.47-.35Z"/><path class="cls-4" d="M22.71,152.82c.22-.41.5-.83.82-1.25.12-.15.24-.3.38-.44.07-.07.12-.11.14-.11.05-.01.1.01.17.07.04.03.06.06.07.09.01.06-.03.15-.12.28-.25.34-.37.57-.33.7.02.07.07.1.15.08.14-.04.34-.21.61-.52.05-.05.09-.08.13-.09.02,0,.05,0,.08.02.04.02.06.05.07.08.02.09-.07.27-.29.54-.22.28-.46.45-.71.52-.1.03-.2.02-.3,0-.08-.03-.14-.09-.17-.21-.02-.08,0-.18.03-.3-.2.24-.42.62-.65,1.14-.13.31-.24.69-.33,1.13-.03.16-.11.26-.21.29-.12.03-.19,0-.22-.12-.03-.11-.01-.42.05-.93.09-.76.24-1.37.43-1.83.12-.28.24-.44.37-.47.04-.01.08,0,.12,0,.05.02.08.06.09.1.01.05,0,.12-.04.22,0,.02-.06.15-.17.38-.09.22-.16.43-.18.64Z"/><path class="cls-4" d="M26.34,152.77c-.09.22-.17.41-.24.55-.13.25-.29.4-.47.44-.15.04-.29,0-.41-.12-.08-.08-.15-.19-.18-.33-.1-.41-.05-.92.16-1.53.1-.29.21-.52.33-.69.1-.14.18-.21.26-.23.04-.01.09,0,.14.02.04.03.06.06.07.09.02.06-.02.17-.1.34-.18.38-.3.72-.37,1.01-.08.35-.1.61-.05.78.01.04.03.08.06.09.03.02.06.02.1.01.16-.04.32-.33.49-.86.09-.28.15-.58.18-.89.02-.17.05-.33.11-.48.06-.13.13-.21.22-.23.05-.01.1,0,.14.03.05.03.08.08.1.13.03.11-.01.4-.13.85-.08.31-.09.56-.04.74.05.2.15.35.29.46.04.03.14.07.31.11.08.02.13.08.16.17.01.06,0,.11-.04.17s-.09.09-.16.11c-.16.04-.32.01-.48-.08-.15-.08-.26-.23-.35-.43-.01-.03-.04-.11-.09-.24Z"/><path class="cls-4" d="M28.13,151.4c.19-.35.37-.62.53-.83.25-.32.42-.49.52-.51.05-.01.1,0,.15.02.04.03.07.06.08.1.02.06-.01.17-.09.34-.12.26-.19.47-.21.64.55-.93.95-1.43,1.23-1.5.06-.01.11,0,.16.01.05.03.09.07.1.12.02.09-.02.22-.12.39-.44.77-.6,1.35-.5,1.74.04.16.1.27.17.32l.16.12s.05.05.07.1c.01.05,0,.1-.03.16-.03.06-.08.1-.14.12-.1.03-.22-.01-.34-.12-.15-.13-.25-.3-.31-.52-.07-.29-.07-.6.02-.93.03-.12.09-.28.18-.49-.22.27-.42.62-.6,1.04-.13.29-.23.6-.3.94-.04.16-.1.25-.2.28-.11.03-.18-.02-.21-.14-.03-.13-.01-.42.06-.87.04-.26.1-.53.19-.83-.43.56-.69,1.22-.78,2.01-.03.17-.09.28-.2.3-.05.01-.1,0-.14-.02-.04-.03-.07-.07-.09-.12-.05-.19-.03-.55.05-1.09.08-.57.21-1.09.38-1.58.12-.34.22-.52.33-.54.09-.02.15.01.18.11.01.04-.02.17-.09.38-.12.38-.19.67-.22.84Z"/><path class="cls-4" d="M31.88,149.46c.21-.3.42-.47.63-.53.13-.03.26,0,.37.08.1.08.17.18.21.31.06.25.06.56-.01.96-.08.43-.25.86-.5,1.28-.21.35-.44.56-.7.62-.09.03-.18.03-.27.01-.09-.01-.17-.05-.25-.1-.01.05-.02.08-.03.1-.02.13-.04.21-.06.24-.01.03-.04.05-.09.06-.06.01-.12,0-.19-.06-.05-.04-.08-.08-.09-.13-.02-.09.04-.58.2-1.48.22-1.25.52-2.52.9-3.8.15-.52.25-.83.29-.93.04-.11.09-.17.15-.19.07-.02.14,0,.21.06.04.03.08.08.09.14.02.07,0,.16-.03.27,0,.03-.06.21-.17.56-.34,1.03-.57,1.87-.68,2.51ZM31.61,151.71c.06.02.11.02.17,0,.27-.07.5-.38.69-.94.09-.25.14-.49.17-.73.02-.21.02-.36,0-.45-.02-.06-.04-.11-.08-.13s-.08-.03-.14-.01c-.14.04-.29.18-.45.43-.15.25-.28.58-.39,1-.05.2-.09.39-.12.56l-.03.14c.06.05.12.08.18.1Z"/><path class="cls-4" d="M34.09,154.12c.21-.53.36-.93.45-1.21.09-.28.2-.66.32-1.15.53-2.21.85-3.97.95-5.31.07-.75.07-1.37,0-1.86-.06,0-.12,0-.18.02-.05,0-.11.02-.15.03-.11.03-.26.08-.45.17-.09.04-.16.07-.21.08-.07.02-.13.01-.19-.02s-.09-.07-.11-.12c-.02-.08.02-.16.11-.24.11-.1.37-.2.79-.31.2-.05.38-.07.53-.07.1,0,.17.02.21.06.04.03.06.09.09.19.1.38.11,1.07.03,2.05-.12,1.5-.45,3.3-1,5.39-.31,1.2-.54,1.98-.71,2.35-.08.17-.18.29-.31.36-.11.06-.3.12-.57.19-.32.08-.52.12-.61.11-.11-.01-.18-.07-.21-.16-.02-.08,0-.14.05-.2.05-.05.11-.08.18-.1.05-.01.16-.04.33-.07.05-.01.12-.03.2-.05.11-.03.26-.07.46-.13Z"/><path class="cls-3" d="M72.72,138.43c-6.93-.9-13.92,4.73-16.63,11.9-4.28,11.34,8.36,13.64,15.85,11.01s13.2-9.21,11.55-15.49c-1.65-6.28-6.11-5.38-8.66-4.66"/><path class="cls-4" d="M69.59,175.15c.26-.02.4.1.42.37.02.24-.05.48-.21.74-.13.19-.24.3-.35.31-.09,0-.14-.04-.15-.14,0-.06,0-.1.03-.13,0-.01.04-.05.11-.12.05-.06.11-.15.16-.26.04-.08.05-.14.05-.19,0-.05-.04-.08-.09-.07-.07,0-.17.07-.3.19-.21.19-.4.48-.59.87-.19.4-.28.71-.26.94,0,.07.03.13.08.18.07.08.16.11.26.1.2-.02.43-.17.69-.44.22-.24.4-.47.54-.71.07-.13.14-.19.2-.2.04,0,.07,0,.1.04.03.03.04.06.05.09.01.12-.12.37-.4.74-.44.59-.86.9-1.26.94-.24.02-.43-.05-.57-.21-.1-.12-.16-.26-.18-.43-.03-.34.08-.74.31-1.21.23-.45.51-.82.84-1.11.19-.17.37-.26.52-.27Z"/><path class="cls-4" d="M72.42,174.77c.27-.02.41.13.44.45.04.43-.11,1-.45,1.69-.37.76-.76,1.15-1.16,1.19-.19.02-.33-.06-.44-.23-.05-.08-.08-.19-.1-.31-.04-.42.07-.88.31-1.39.23-.47.51-.85.84-1.13.2-.17.38-.25.55-.27ZM72.08,176.65c-.09-.06-.13-.1-.13-.14,0-.03.04-.1.14-.23.26-.35.38-.63.37-.83,0-.03-.01-.05-.03-.08-.03-.05-.07-.07-.13-.06-.1,0-.25.12-.43.34-.24.28-.41.57-.52.85-.13.33-.19.6-.17.8,0,.06.02.1.06.14.05.05.1.08.17.07.16-.01.31-.15.47-.4.07-.1.12-.21.16-.32.04-.11.06-.16.05-.17Z"/><path class="cls-4" d="M73.82,176.17c.25-.31.47-.55.66-.74.29-.27.49-.41.6-.42.05,0,.1.01.14.05.04.03.06.07.06.11,0,.06-.04.17-.14.32-.15.24-.26.44-.31.6.69-.83,1.17-1.26,1.45-1.28.06,0,.11,0,.16.04.05.04.08.08.08.14,0,.09-.05.21-.18.37-.56.69-.82,1.23-.78,1.64.02.17.06.28.12.35l.14.15s.04.06.05.11c0,.05-.01.1-.05.15-.04.06-.1.09-.16.09-.11,0-.21-.05-.31-.18-.12-.15-.2-.34-.22-.56-.03-.3.03-.6.17-.92.05-.11.13-.26.25-.45-.26.23-.51.54-.76.93-.17.26-.32.55-.45.87-.06.15-.14.23-.24.24-.11,0-.17-.05-.18-.17-.01-.13.05-.42.2-.85.08-.25.19-.51.32-.78-.52.48-.88,1.09-1.09,1.85-.05.17-.14.26-.25.27-.05,0-.1-.01-.13-.05-.04-.04-.06-.08-.07-.14-.02-.19.06-.55.23-1.06.18-.55.39-1.05.63-1.49.17-.31.31-.47.41-.48.1,0,.15.04.16.14,0,.05-.05.16-.15.36-.18.36-.3.62-.35.8Z"/><path class="cls-4" d="M77.84,174.84c.13-.1.22-.16.28-.2.13-.08.25-.12.38-.13.14-.01.25.02.33.1.08.08.12.2.14.36.02.23-.03.51-.17.84-.2.52-.46.95-.79,1.27-.27.27-.54.42-.8.44-.14.01-.29-.03-.44-.13-.36.94-.68,1.89-.95,2.85-.05.23-.13.35-.23.36-.05,0-.1-.02-.16-.08-.04-.04-.06-.09-.07-.15-.02-.17.15-.76.49-1.76.53-1.54,1.04-2.83,1.55-3.87.1-.22.17-.37.21-.45.09-.22.2-.34.3-.35.11-.01.17.05.18.18,0,.07-.02.18-.09.31-.08.17-.14.31-.19.41ZM76.92,176.96c.08.07.17.1.28.09.3-.03.61-.32.93-.89.12-.21.21-.42.27-.64.05-.17.07-.3.06-.38,0-.06-.02-.1-.05-.13-.03-.03-.07-.04-.13-.03-.15.01-.33.14-.53.37-.19.22-.37.53-.53.92-.15.36-.25.59-.29.7Z"/><path class="cls-4" d="M80.03,175.64c.29-.37.62-.73,1.01-1.1.14-.13.29-.25.45-.37.08-.06.13-.08.15-.09.05,0,.1.03.16.09.03.04.05.07.05.1,0,.06-.05.14-.16.25-.31.29-.46.5-.44.64,0,.07.05.11.14.1.14-.01.37-.15.69-.41.06-.04.1-.07.14-.07.03,0,.05,0,.08.03.03.03.05.06.05.09,0,.1-.11.26-.37.48-.27.24-.53.37-.78.39-.1,0-.2-.01-.29-.06-.08-.04-.12-.12-.13-.23,0-.08.02-.18.08-.29-.24.2-.51.54-.82,1.01-.18.29-.35.64-.51,1.06-.06.16-.15.24-.26.25-.12.01-.18-.04-.19-.15,0-.11.06-.41.2-.91.21-.74.46-1.32.73-1.74.17-.26.31-.4.44-.41.04,0,.08,0,.12.03.05.03.07.07.07.12,0,.05-.02.12-.08.21-.01.02-.09.13-.23.35-.13.2-.22.4-.28.6Z"/><path class="cls-4" d="M82.63,176.08v.09c.01.07.04.13.08.18.09.11.23.16.42.14.41-.04.85-.39,1.32-1.06.08-.12.16-.18.22-.18.04,0,.07.01.1.05.02.02.03.05.04.07.01.13-.12.35-.41.68-.22.26-.46.47-.73.65-.26.17-.51.27-.75.29-.24.02-.44-.05-.6-.2-.1-.11-.17-.26-.18-.46-.05-.55.16-1.11.63-1.68.38-.47.73-.71,1.04-.74.08,0,.16.01.24.06.09.06.14.15.15.26.02.17-.04.39-.18.65-.28.55-.74.95-1.38,1.21ZM82.71,175.69c.22-.1.39-.2.51-.31.21-.19.37-.41.49-.64.04-.08.06-.15.05-.22,0-.06-.04-.1-.1-.09-.08,0-.2.08-.34.22-.26.25-.46.59-.61,1.03Z"/><path class="cls-4" d="M87.01,173.37c.2-.02.35,0,.46.07.11.06.17.17.18.31.02.19-.04.38-.16.57-.12.18-.31.34-.58.46-.14.07-.27.11-.37.12-.14.01-.21-.04-.22-.16,0-.08.03-.15.1-.2.02-.01.13-.05.32-.11.12-.04.22-.1.32-.2.08-.08.12-.17.11-.25,0-.07-.03-.12-.07-.15-.04-.03-.1-.04-.18-.03-.19.02-.39.11-.6.28-.25.2-.36.41-.34.65.01.17.12.37.31.61.22.26.33.48.35.67.03.29-.08.52-.32.71-.15.11-.32.18-.52.2-.31.03-.56-.06-.74-.27-.13-.15-.2-.33-.22-.55-.02-.25.02-.47.14-.65.07-.12.16-.19.25-.19.08,0,.12.02.13.09,0,.03,0,.07-.03.12-.06.15-.08.31-.07.5.01.16.08.29.21.39.11.09.23.13.36.11.13-.01.22-.06.29-.15.05-.08.07-.17.06-.28-.01-.14-.11-.31-.28-.51-.24-.28-.37-.54-.39-.78-.03-.32.12-.63.45-.91.32-.27.67-.42,1.06-.46Z"/><path class="cls-4" d="M89.55,173.14c.2-.02.35,0,.46.07.11.06.17.17.18.31.02.19-.04.38-.16.57-.12.18-.31.33-.58.46-.14.07-.27.11-.37.12-.14.01-.21-.04-.22-.16,0-.08.03-.15.1-.19.02-.01.13-.05.32-.11.12-.04.22-.1.32-.2.08-.08.12-.17.11-.25,0-.07-.03-.12-.07-.15s-.1-.04-.18-.03c-.19.02-.39.11-.6.28-.25.2-.36.41-.34.65.02.17.12.37.31.61.22.26.33.48.35.67.03.29-.08.52-.32.71-.15.11-.32.18-.52.2-.31.03-.56-.06-.74-.27-.13-.15-.2-.33-.22-.55-.02-.25.02-.47.14-.65.07-.12.16-.19.25-.19.08,0,.12.02.13.09,0,.03,0,.07-.03.12-.06.15-.08.31-.07.5.01.16.08.29.21.39.11.09.23.13.36.11.13-.01.22-.06.29-.15.05-.08.07-.17.06-.28-.01-.14-.11-.31-.28-.51-.24-.28-.37-.54-.39-.78-.03-.32.12-.63.45-.91.32-.27.67-.42,1.06-.46Z"/><path class="cls-4" d="M91.15,173.32c.06,0,.1.01.14.05.03.03.05.07.05.1,0,.06-.03.16-.12.3-.29.55-.49,1-.6,1.35-.12.36-.22.73-.31,1.11-.04.17-.11.25-.22.26-.06,0-.12-.02-.16-.06-.04-.04-.06-.08-.07-.13,0-.1.07-.43.22-1,.12-.45.34-.95.66-1.51.1-.18.18-.3.23-.37.05-.07.11-.1.17-.11ZM91.91,171.43c.15-.01.23.05.24.2.01.14-.05.29-.17.47-.12.17-.25.26-.37.27-.06,0-.11-.01-.16-.05-.04-.04-.07-.09-.07-.15-.01-.16.06-.33.21-.52.12-.14.22-.22.32-.23Z"/><path class="cls-4" d="M93.05,172.92c.27-.02.41.13.44.45.04.43-.11,1-.45,1.69-.37.76-.76,1.15-1.16,1.19-.19.02-.33-.06-.44-.23-.05-.08-.08-.19-.1-.31-.04-.41.07-.88.31-1.39.23-.47.51-.85.84-1.13.2-.17.38-.25.55-.27ZM92.71,174.81c-.09-.06-.13-.1-.14-.14,0-.03.04-.1.14-.23.26-.35.38-.63.37-.83,0-.03-.01-.05-.03-.08-.03-.05-.07-.07-.13-.06-.1,0-.25.12-.43.34-.24.28-.41.57-.52.86-.13.33-.19.6-.17.8,0,.06.02.1.06.14.05.05.1.08.17.07.16-.01.31-.15.47-.4.07-.1.12-.21.16-.32.04-.11.06-.16.05-.17Z"/><path class="cls-4" d="M94.51,174.27s.08-.09.11-.13c.62-.72,1.04-1.09,1.27-1.11.13-.01.2.05.21.19,0,.1-.04.22-.14.36-.55.78-.81,1.44-.76,2,.02.18.08.34.19.5.05.07.08.13.08.17,0,.04-.01.08-.05.12-.04.05-.09.08-.14.08-.13.01-.25-.06-.36-.22-.1-.15-.16-.34-.18-.57-.04-.44.08-.94.37-1.5-.42.32-.78.86-1.1,1.61-.08.18-.18.28-.29.29-.05,0-.1-.01-.14-.05-.05-.04-.08-.1-.08-.17-.02-.18.14-.65.47-1.43.18-.42.32-.73.43-.92.11-.19.2-.29.29-.3.04,0,.08.01.13.05.05.04.08.09.08.15,0,.07-.03.18-.11.32-.12.21-.21.4-.28.57Z"/><path class="cls-4" d="M78.31,181.56c.26-.02.4.1.42.37.02.24-.05.48-.21.74-.13.19-.24.3-.35.31-.09,0-.14-.04-.15-.14,0-.06,0-.1.03-.13,0-.01.04-.05.11-.12.05-.06.11-.15.16-.26.04-.08.05-.14.05-.19,0-.05-.04-.08-.09-.07-.07,0-.17.07-.3.19-.21.19-.4.48-.59.87-.19.4-.28.71-.26.94,0,.07.03.13.08.18.07.08.16.11.26.1.2-.02.43-.17.69-.44.22-.24.4-.47.54-.71.07-.13.14-.19.2-.2.04,0,.07,0,.1.04.03.03.04.06.05.09.01.12-.12.37-.4.74-.44.59-.86.9-1.26.94-.24.02-.43-.05-.57-.21-.1-.12-.16-.26-.18-.43-.03-.34.07-.74.31-1.21.23-.45.51-.82.84-1.11.19-.17.37-.26.52-.27Z"/><path class="cls-4" d="M80.28,182.81c.29-.37.62-.73,1.01-1.1.14-.13.29-.25.45-.37.08-.06.13-.08.15-.09.05,0,.1.03.16.09.03.04.05.07.05.1,0,.06-.05.14-.16.25-.31.29-.45.5-.44.64,0,.07.05.11.14.1.14-.01.37-.15.69-.41.05-.04.1-.07.14-.07.03,0,.05,0,.08.03.03.03.05.06.05.09,0,.1-.11.26-.37.48-.27.24-.53.37-.78.39-.1,0-.2-.01-.29-.06-.08-.04-.12-.12-.13-.23,0-.08.02-.18.08-.29-.24.2-.51.54-.82,1.01-.18.29-.35.64-.51,1.06-.06.16-.15.24-.26.25-.12.01-.18-.04-.2-.15,0-.11.06-.41.2-.91.21-.74.46-1.32.73-1.74.17-.26.31-.4.44-.41.04,0,.08,0,.12.03.04.03.07.07.07.12,0,.05-.02.12-.08.21-.01.02-.09.13-.23.35-.13.2-.22.4-.29.6Z"/><path class="cls-4" d="M83.88,183.35c-.12.21-.23.37-.33.5-.17.23-.35.35-.53.36-.16.01-.29-.05-.39-.18-.07-.1-.11-.21-.12-.35-.04-.42.1-.91.41-1.49.14-.27.29-.48.44-.62.12-.12.21-.18.3-.19.05,0,.09.01.13.05.04.03.06.07.06.1,0,.06-.05.17-.15.32-.24.35-.42.66-.53.94-.13.33-.19.58-.18.76,0,.05.02.08.04.1s.05.03.09.03c.17-.01.37-.27.63-.77.13-.26.24-.54.32-.85.04-.17.11-.32.19-.45.08-.12.17-.19.25-.19.05,0,.09.01.14.05.05.04.07.09.08.15.01.12-.08.39-.26.82-.13.3-.18.54-.17.73.02.2.09.37.21.5.03.04.13.09.28.16.08.04.12.1.12.19,0,.06-.02.11-.06.16-.05.05-.11.07-.18.08-.16.01-.32-.04-.46-.15-.13-.11-.22-.27-.27-.49,0-.03-.02-.11-.05-.25Z"/><path class="cls-4" d="M85.87,182.29c.25-.31.47-.55.66-.74.29-.27.49-.41.6-.42.05,0,.1.01.14.05.04.03.06.07.06.11,0,.06-.04.17-.14.32-.15.24-.26.44-.31.6.69-.83,1.17-1.26,1.45-1.28.06,0,.11,0,.16.04.05.03.08.08.08.14,0,.09-.05.21-.18.37-.56.69-.82,1.23-.78,1.64.02.17.06.28.12.35l.14.15s.04.06.05.11c0,.05-.01.1-.05.15-.04.06-.1.09-.16.09-.11,0-.21-.05-.31-.18-.12-.15-.2-.34-.22-.56-.03-.3.03-.6.17-.92.05-.11.13-.26.25-.45-.26.23-.51.54-.76.93-.17.26-.32.55-.45.87-.06.15-.14.23-.24.24-.11.01-.17-.05-.18-.17-.01-.13.05-.42.2-.85.08-.25.19-.51.32-.78-.52.48-.88,1.09-1.09,1.85-.05.17-.14.26-.25.27-.05,0-.1-.01-.13-.05-.04-.04-.06-.08-.07-.14-.02-.19.06-.55.23-1.06.18-.55.39-1.05.63-1.49.17-.31.31-.47.41-.48.1,0,.15.04.16.14,0,.05-.05.16-.15.36-.18.36-.3.62-.35.8Z"/><path class="cls-4" d="M89.88,180.99c.25-.26.49-.4.71-.42.14-.01.25.03.35.14.09.09.14.21.15.34.02.25-.03.57-.17.94-.15.42-.38.81-.7,1.19-.26.31-.53.48-.79.5-.1,0-.19,0-.27-.03-.08-.03-.16-.08-.23-.14-.02.05-.04.08-.04.09-.04.12-.08.2-.09.23s-.05.04-.1.05c-.06,0-.12-.02-.17-.09-.04-.04-.06-.09-.07-.14,0-.09.14-.57.44-1.43.42-1.2.92-2.4,1.51-3.61.24-.49.38-.78.44-.87.06-.1.12-.16.18-.16.07,0,.14.02.2.09.04.04.06.09.07.16,0,.07-.02.16-.07.27-.01.02-.1.2-.26.53-.51.96-.87,1.75-1.08,2.36ZM89.25,183.17c.05.03.11.04.16.03.28-.03.56-.3.83-.81.13-.23.22-.46.29-.69.06-.2.08-.35.07-.44,0-.06-.02-.11-.06-.14-.03-.03-.08-.04-.14-.03-.15.01-.32.13-.51.35-.19.22-.37.53-.54.93-.08.19-.15.37-.21.53l-.05.14c.05.06.11.1.16.13Z"/><path class="cls-1" d="M83.5,171.84c2.42-4.52-1.66-10.06-3.72-12.58"/><path class="cls-4" d="M84.56,160.73c-.05.16-.23.24-.38.18l-4.33-1.53.45,4.57c.02.16-.1.31-.27.33-.16.02-.31-.11-.33-.27l-.49-5.04c0-.1.03-.2.11-.27s.19-.08.28-.05l4.77,1.68c.06.02.1.05.14.1.06.08.08.18.05.29Z"/><path class="cls-2" d="M95.29,156.95c2.19,15.53,29.71,3.37,39.66,4.36,5.8.57,6.64,9.13,6.64,9.13,0,0,3.76-8.28,8.69-8.43,8.78-.28,38.11,8.58,42.63-7.24"/><path class="cls-5" d="M136.59,175.89s.09-.07.14-.1c.75-.58,1.25-.85,1.48-.82.13.02.18.09.16.23-.01.1-.08.2-.21.32-.7.65-1.09,1.24-1.16,1.79-.02.18,0,.35.08.53.04.08.05.14.05.18,0,.04-.03.07-.07.1-.05.04-.1.06-.16.05-.13-.02-.23-.11-.3-.29-.07-.17-.09-.37-.06-.59.05-.44.28-.9.67-1.39-.47.23-.94.68-1.41,1.34-.12.16-.23.23-.34.22-.06,0-.1-.03-.13-.08-.04-.05-.06-.11-.05-.18.02-.17.27-.61.76-1.3.26-.38.47-.65.61-.81.14-.16.26-.24.35-.23.04,0,.08.03.11.07.04.05.06.11.05.16,0,.07-.07.17-.18.29-.16.18-.29.35-.39.5Z"/><path class="cls-5" d="M140.3,174.85c.27.03.38.21.34.53-.05.43-.32.95-.79,1.56-.52.66-.98.97-1.39.92-.19-.02-.31-.13-.38-.31-.03-.09-.04-.2-.03-.32.05-.41.25-.85.59-1.3.32-.42.67-.73,1.06-.93.23-.12.43-.17.6-.15ZM139.57,176.62c-.07-.07-.11-.13-.1-.17,0-.03.06-.09.18-.19.33-.29.51-.54.53-.74,0-.03,0-.05-.02-.08-.02-.05-.06-.08-.11-.09-.1-.01-.27.07-.49.25-.29.23-.52.47-.69.73-.2.29-.31.54-.33.75,0,.05,0,.11.03.15.04.06.08.1.15.11.16.02.34-.08.54-.29.09-.09.16-.18.23-.28.06-.1.09-.15.09-.15Z"/><path class="cls-5" d="M141.97,175.28c.05,0,.1.03.13.08.02.04.03.08.03.11,0,.06-.07.15-.18.27-.4.48-.69.88-.87,1.2-.19.33-.37.67-.53,1.02-.07.16-.16.23-.27.21-.06,0-.11-.04-.15-.1-.03-.05-.04-.09-.04-.14.01-.1.15-.41.43-.93.21-.41.53-.86.96-1.34.14-.16.24-.26.3-.31.07-.05.13-.08.19-.07ZM143.11,173.6c.15.02.21.1.19.25-.02.14-.11.28-.27.43-.15.14-.3.21-.42.19-.06,0-.11-.04-.14-.09-.03-.05-.05-.1-.04-.16.02-.16.12-.31.32-.46.14-.11.26-.17.36-.15Z"/><path class="cls-5" d="M144.27,175.24c.2.02.35.08.44.16.09.08.13.2.11.34-.02.19-.12.37-.28.53-.16.15-.38.26-.66.33-.16.04-.28.05-.38.04-.14-.02-.2-.08-.18-.2,0-.08.06-.14.14-.17.02,0,.13-.02.34-.04.12-.01.24-.05.35-.13.1-.06.15-.14.16-.23,0-.07,0-.12-.04-.16-.03-.04-.09-.06-.17-.07-.19-.02-.4.03-.65.15-.28.14-.44.33-.47.56-.02.17.04.39.18.66.16.3.23.54.2.73-.03.29-.19.49-.46.62-.17.08-.35.11-.55.09-.31-.04-.53-.18-.67-.42-.09-.17-.13-.37-.1-.58.03-.25.12-.46.27-.61.1-.1.19-.15.28-.14.08,0,.12.05.11.11,0,.03-.02.06-.06.11-.09.13-.15.29-.17.48-.02.16.02.3.12.42.09.11.2.17.33.19.13.02.23-.01.31-.09.07-.06.11-.15.12-.26.02-.13-.04-.32-.17-.56-.18-.32-.25-.61-.22-.85.04-.32.25-.59.63-.79.37-.2.75-.27,1.13-.23Z"/><path class="cls-5" d="M144.68,177.61v.09c-.02.07,0,.13.02.19.07.13.19.21.38.23.4.05.91-.21,1.51-.76.11-.1.19-.14.26-.13.04,0,.07.03.09.06.02.03.02.05.02.08-.02.13-.2.32-.54.58-.27.21-.55.37-.85.48-.29.12-.56.16-.79.13-.24-.03-.42-.14-.54-.32-.08-.13-.11-.29-.08-.49.07-.55.39-1.05.97-1.51.47-.38.86-.55,1.17-.51.08,0,.16.04.22.1.08.08.11.17.09.28-.02.17-.12.37-.31.6-.39.48-.92.77-1.6.89ZM144.83,177.25c.24-.05.42-.12.56-.2.25-.15.45-.32.61-.53.06-.07.09-.14.1-.2,0-.06-.02-.1-.08-.11-.08,0-.21.04-.38.15-.31.19-.58.49-.81.89Z"/></svg>