<?xml version="1.0" encoding="UTF-8"?><svg id="Layer_1" xmlns="http://www.w3.org/2000/svg" viewBox="0 0 722.11 321.04"><defs><style>.cls-1,.cls-2{stroke-miterlimit:10;}.cls-1,.cls-2,.cls-3{fill:none;stroke-linecap:round;}.cls-1,.cls-3{stroke:#4d4d4d;}.cls-4{fill:#4d4d4d;}.cls-5{fill:#fff;}.cls-2{stroke:#ccc;}.cls-6{fill:#ccc;}.cls-7{fill:#b3b3b3;}.cls-3{stroke-linejoin:round;}.cls-8{fill:#e6e6e6;}</style></defs><rect class="cls-7" x="70.31" y="93.74" width="324.21" height="195.7"/><rect class="cls-8" x="70.31" y="190.84" width="324.21" height="98.6"/><path class="cls-6" d="M394.52,191.34c.28,0,.5-.22.5-.5s-.22-.5-.5-.5H70.2c-.28,0-.5.22-.5.5s.22.5.5.5h324.31"/><rect class="cls-5" x="70.31" y="240.14" width="324.21" height="49.3"/><path class="cls-6" d="M394.52,240.89c.28,0,.5-.22.5-.5s-.22-.5-.5-.5H70.2c-.28,0-.5.22-.5.5s.22.5.5.5h324.31"/><line class="cls-2" x1="116.1" y1="91.24" x2="116.1" y2="289.44"/><path class="cls-4" d="M128.35,137.63c.53-.36.93-.7,1.2-1,.39-.44.67-.8.83-1.08.08-.12.16-.19.25-.18.12,0,.17.06.17.17,0,.13-.1.35-.3.65-.6.92-1.49,1.71-2.67,2.37-.57,1.11-.99,1.85-1.26,2.25-.71,1.03-1.36,1.54-1.95,1.52-.31,0-.53-.14-.66-.39-.07-.14-.11-.31-.1-.49.02-.77.54-1.49,1.55-2.16.16-.11.8-.46,1.93-1.04.23-.45.41-.8.53-1.05-.53.52-.96.78-1.3.77-.21,0-.37-.12-.48-.34-.07-.14-.1-.29-.1-.44.01-.35.17-.8.47-1.34.44-.78.95-1.4,1.54-1.84.5-.37.93-.55,1.3-.54.19,0,.35.08.48.23.09.1.13.23.13.41,0,.22-.09.5-.25.83.11.11.16.19.16.25,0,.03-.03.08-.08.14-.14.18-.36.51-.67,1-.27.43-.51.86-.72,1.3ZM126.86,139.09c-.65.25-1.23.65-1.74,1.19-.24.25-.41.52-.52.8-.03.09-.05.16-.05.22,0,.06.01.12.04.17.05.09.12.14.22.14.3,0,.67-.3,1.09-.94.37-.55.69-1.08.96-1.58ZM128.35,135.93c-.07-.08-.1-.13-.1-.16,0-.04.04-.1.12-.17.25-.23.46-.46.62-.71.13-.2.19-.35.2-.46,0-.13-.05-.2-.18-.2-.21,0-.52.18-.92.57-.48.46-.86.98-1.13,1.55-.14.29-.21.51-.21.67,0,.09.01.15.05.2.04.05.09.07.17.07.17,0,.42-.16.73-.5.2-.22.37-.43.52-.64.1-.14.14-.21.14-.22Z"/><path class="cls-4" d="M132.12,135.96c.49-.5,1.06-.98,1.7-1.45.23-.17.47-.32.73-.47.13-.07.21-.1.25-.1.07,0,.14.06.21.17.04.06.06.11.06.16,0,.09-.1.2-.29.35-.51.38-.77.67-.77.87,0,.11.06.17.19.17.21,0,.58-.16,1.1-.49.09-.06.16-.08.22-.08.04,0,.08.02.12.06.04.05.06.09.06.14,0,.15-.22.36-.64.65-.44.31-.85.46-1.24.44-.16,0-.3-.05-.43-.14-.11-.07-.16-.2-.16-.37,0-.12.06-.26.17-.41-.39.26-.86.72-1.41,1.36-.31.4-.63.9-.95,1.49-.12.22-.26.33-.43.32-.18,0-.27-.09-.26-.27,0-.17.16-.61.47-1.32.45-1.06.92-1.88,1.4-2.46.29-.36.54-.53.73-.53.06,0,.12.02.17.06.06.05.09.11.09.19,0,.07-.05.17-.16.3-.02.02-.15.18-.4.48-.23.28-.41.56-.53.84Z"/><path class="cls-4" d="M138.27,133.84c.4.01.59.26.58.75-.02.65-.35,1.46-.98,2.44-.69,1.06-1.34,1.58-1.95,1.56-.28,0-.49-.15-.61-.41-.06-.13-.09-.29-.09-.48.02-.62.26-1.3.71-2.02.42-.67.91-1.18,1.46-1.54.32-.21.62-.31.87-.3ZM137.42,136.58c-.12-.1-.18-.18-.18-.23,0-.04.08-.14.24-.31.45-.48.69-.87.7-1.17,0-.04,0-.08-.03-.12-.04-.07-.1-.11-.18-.12-.16,0-.39.14-.7.43-.4.38-.71.77-.93,1.18-.25.47-.39.86-.4,1.17,0,.08.02.16.06.22.06.09.14.14.24.14.23,0,.49-.16.77-.5.12-.14.22-.29.3-.44.08-.15.11-.23.11-.24Z"/><path class="cls-4" d="M141.38,136.62c-.44.55-.76.93-.97,1.14-.26.26-.48.46-.66.59-.21.14-.4.21-.58.21-.17,0-.3-.09-.39-.27-.07-.13-.1-.28-.1-.44.02-.53.36-1.25,1.02-2.17.6-.83,1.04-1.24,1.32-1.23.07,0,.13.04.19.1.06.06.08.13.08.21,0,.11-.1.25-.3.44-.42.39-.78.83-1.1,1.32-.27.42-.4.7-.41.83,0,.1.04.15.13.15.29,0,.95-.61,1.96-1.84.33-.4.53-.63.6-.69.13-.11.26-.17.39-.16.09,0,.16.03.22.08.05.05.08.1.08.16,0,.06-.13.3-.38.73-.56.92-.85,1.54-.86,1.87,0,.13.05.19.15.2.18,0,.42-.19.74-.58.3-.37.59-.85.86-1.42.12-.25.22-.58.32-.99.11-.47.31-.7.61-.69.17,0,.25.1.24.29-.02.64-.4,1.51-1.15,2.6-.78,1.14-1.42,1.71-1.93,1.69-.38-.01-.56-.25-.54-.71.01-.38.16-.85.43-1.39Z"/><path class="cls-4" d="M147.95,134c.3,0,.53.07.68.18.15.11.22.28.21.5,0,.29-.12.56-.35.83-.21.25-.53.44-.94.59-.23.08-.42.11-.57.11-.21,0-.3-.1-.3-.28,0-.12.06-.21.18-.27.03-.01.2-.05.5-.11.18-.03.35-.11.51-.24.14-.11.21-.23.21-.36,0-.1-.02-.18-.08-.23-.06-.05-.14-.08-.26-.08-.28,0-.6.1-.95.31-.4.25-.61.55-.62.9,0,.25.11.58.36.96.27.42.41.78.4,1.07-.01.43-.21.76-.6.99-.24.14-.51.21-.81.2-.47-.01-.82-.19-1.05-.54-.16-.24-.24-.53-.23-.86.01-.38.12-.7.32-.95.13-.17.27-.25.4-.24.12,0,.18.05.18.15,0,.04-.02.1-.07.17-.12.21-.18.45-.19.73,0,.24.07.44.24.62.15.15.32.23.51.24.19,0,.34-.05.45-.18.09-.1.14-.24.14-.41,0-.21-.1-.47-.33-.81-.31-.46-.46-.87-.45-1.24.02-.49.29-.91.84-1.27.53-.35,1.08-.51,1.66-.49Z"/><line class="cls-2" x1="162.51" y1="91.24" x2="162.51" y2="289.44"/><line class="cls-2" x1="208.91" y1="91.24" x2="208.91" y2="289.44"/><line class="cls-2" x1="255.31" y1="91.24" x2="255.31" y2="289.44"/><line class="cls-2" x1="301.71" y1="91.24" x2="301.71" y2="289.44"/><line class="cls-2" x1="348.11" y1="91.24" x2="348.11" y2="289.44"/><path class="cls-4" d="M71.32,296.84c.26.1.46.27.59.49.13.23.19.52.19.87,0,1.09-.42,2.25-1.27,3.47-.92,1.33-1.81,2-2.65,2-.42,0-.73-.22-.94-.65-.14-.28-.21-.62-.21-1.03,0-.97.35-1.99,1.06-3.06.37-.55.86-1.12,1.49-1.71.65-.61,1.13-.91,1.41-.91.22,0,.33.17.33.52ZM70.37,297.37c-.57.47-1.08,1.04-1.52,1.71-.63.97-.94,1.9-.94,2.81,0,.27.04.48.11.63.12.23.29.35.51.35.34,0,.74-.26,1.21-.78.52-.58.93-1.28,1.23-2.11.23-.63.34-1.16.34-1.6,0-.3-.09-.56-.28-.78-.13-.15-.3-.23-.51-.24h-.15Z"/><path class="cls-4" d="M395.02,90.74h0s-324.81,0-324.81,0c-.28,0-.5.22-.5.5v199.2c0,.28.22.5.5.5h0s324.81,0,324.81,0c.28,0,.5-.22.5-.5V91.24c0-.28-.22-.5-.5-.5ZM70.7,287.94V93.74h323.81v194.2H70.7Z"/><path class="cls-4" d="M51.2,93.87c.82-.26,1.57-.39,2.26-.39.27,0,.49.06.65.17.15.1.22.22.22.36,0,.09-.03.18-.1.25s-.15.11-.23.11c-.03,0-.07,0-.13-.02-.25-.07-.48-.1-.69-.1-.18,0-.4.02-.67.05-.09.01-.43.1-1.02.26-.53.14-.84.21-.94.21-.14,0-.26-.07-.36-.2-.09-.12-.14-.25-.14-.38,0-.15.13-.34.38-.59.48-.47.94-.89,1.38-1.27.42-.35.94-.76,1.56-1.22.71-.52,1.2-.9,1.46-1.14.4-.35.6-.7.6-1.05,0-.2-.06-.35-.19-.46-.11-.1-.25-.15-.42-.15-.44,0-.96.25-1.55.74-.27.22-.44.34-.51.34-.05,0-.11-.03-.17-.09-.07-.06-.1-.13-.1-.21,0-.18.21-.42.64-.75.68-.52,1.33-.78,1.96-.78.36,0,.65.11.89.34.23.22.34.49.34.8,0,.55-.28,1.09-.83,1.63-.24.23-.68.59-1.32,1.05-1.54,1.12-2.53,1.95-2.97,2.48Z"/><path class="cls-4" d="M59.61,88.34c-.83.72-1.36,1.33-1.59,1.85.48-.2.9-.29,1.24-.29.4,0,.71.12.93.35.21.22.32.51.32.86,0,.81-.38,1.62-1.15,2.44-.76.82-1.5,1.22-2.23,1.22-.42,0-.75-.2-.98-.59-.15-.26-.23-.56-.23-.89s.07-.61.22-.83c.12-.18.28-.27.47-.27.18,0,.26.07.26.2,0,.03-.01.09-.04.17-.05.14-.07.33-.07.57,0,.21.05.39.15.55.13.22.31.33.54.33.44,0,.9-.28,1.38-.83.53-.61.79-1.21.79-1.81,0-.25-.06-.44-.17-.56-.11-.12-.28-.19-.51-.19s-.5.06-.82.18c-.07.02-.25.11-.53.26-.06.03-.11.05-.16.05-.09,0-.19-.06-.28-.18-.1-.13-.15-.25-.15-.36,0-.21.21-.59.64-1.16.27-.37.6-.74,1-1.11-.11-.15-.16-.26-.16-.34,0-.11.08-.19.23-.24.07-.02.35-.07.83-.13.54-.07.98-.11,1.32-.11s.55.02.7.07c.18.05.26.17.26.35,0,.22-.11.34-.34.34-.05,0-.15,0-.29-.01-.05,0-.11,0-.17,0-.23,0-.46.01-.69.03-.23.02-.45.05-.68.1Z"/><path class="cls-4" d="M64.74,88.34c-.83.72-1.36,1.33-1.59,1.85.48-.2.9-.29,1.24-.29.4,0,.71.12.93.35.21.22.32.51.32.86,0,.81-.38,1.62-1.15,2.44-.76.82-1.5,1.22-2.23,1.22-.42,0-.75-.2-.98-.59-.15-.26-.23-.56-.23-.89s.07-.61.22-.83c.12-.18.28-.27.47-.27.18,0,.26.07.26.2,0,.03-.01.09-.04.17-.05.14-.07.33-.07.57,0,.21.05.39.15.55.13.22.31.33.54.33.44,0,.9-.28,1.38-.83.53-.61.79-1.21.79-1.81,0-.25-.06-.44-.17-.56-.11-.12-.28-.19-.51-.19s-.5.06-.82.18c-.07.02-.25.11-.53.26-.06.03-.11.05-.16.05-.09,0-.19-.06-.28-.18-.1-.13-.15-.25-.15-.36,0-.21.21-.59.64-1.16.27-.37.6-.74,1-1.11-.11-.15-.16-.26-.16-.34,0-.11.08-.19.23-.24.07-.02.35-.07.83-.13.54-.07.98-.11,1.32-.11s.55.02.7.07c.18.05.26.17.26.35,0,.22-.11.34-.34.34-.05,0-.15,0-.29-.01-.05,0-.11,0-.17,0-.23,0-.46.01-.69.03-.23.02-.45.05-.68.1Z"/><path class="cls-4" d="M396.47,297.23c-1.31.29-2.24.43-2.77.43-.36,0-.53-.12-.53-.35,0-.12.04-.22.12-.3s.17-.12.27-.12c.04,0,.11,0,.21.01.06,0,.14.01.22.01.3,0,.7-.04,1.2-.12.63-.1,1.1-.19,1.4-.27.17-.04.31-.07.42-.07.26,0,.4.14.4.42,0,.19-.11.41-.34.64-1.68,1.8-3,3.57-3.95,5.32-.23.42-.38.67-.44.75-.12.14-.24.21-.37.21-.07,0-.14-.03-.19-.08-.07-.06-.1-.13-.1-.21,0-.25.24-.76.71-1.54.62-1.02,1.38-2.06,2.26-3.11.53-.63,1.02-1.18,1.49-1.63Z"/><path class="cls-4" d="M33.94,26.58c.18-.01.34.06.46.22.08.1.13.22.14.35.01.2-.16.48-.52.85-1.01,1.08-1.57,2.32-1.68,3.71-.03.26-.14.46-.32.6-.17.13-.34.2-.52.21-.4.02-.62-.22-.65-.73-.05-.81.34-1.88,1.15-3.22.33-.55.73-1.05,1.19-1.52.3-.31.55-.47.74-.48ZM37,26.4c.17,0,.33.06.46.22.09.1.13.22.14.35.01.2-.16.48-.52.85-1.01,1.08-1.57,2.32-1.68,3.71-.03.26-.14.46-.32.6-.17.13-.34.2-.52.21-.4.02-.62-.22-.65-.73-.05-.81.34-1.88,1.15-3.22.34-.56.74-1.06,1.19-1.52.3-.31.55-.47.74-.48Z"/><path class="cls-4" d="M41.83,42.13c-.78,1.07-1.47,1.62-2.08,1.65-.4.02-.73-.15-.98-.53-.16-.24-.25-.54-.28-.9-.05-.82.18-1.79.68-2.92.67-1.5,1.53-2.71,2.57-3.62.61-.53,1.2-.81,1.76-.84.47-.03.82.13,1.03.47.15.24.24.5.26.78,0,.11,0,.25,0,.44.26.08.39.2.4.36,0,.11-.07.31-.21.62-.52,1.17-1.38,3.33-2.58,6.47-1.05,2.73-1.82,5.13-2.31,7.2-.11.62-.34.94-.67.96-.18.01-.33-.07-.45-.25-.09-.13-.13-.27-.14-.41-.03-.54.39-2.07,1.26-4.61.41-1.2.79-2.26,1.14-3.18.28-.71.48-1.27.62-1.69ZM42.4,39.93c-.04-.12-.06-.21-.07-.27-.01-.2.13-.47.42-.8.55-.63.81-1.32.77-2.06-.01-.18-.05-.31-.12-.39s-.17-.12-.3-.12c-.45.03-1.11.69-2,2-.42.62-.78,1.36-1.08,2.2-.2.58-.3,1.02-.28,1.31,0,.13.05.24.14.33.11.14.25.2.42.19.36-.02.78-.36,1.28-1.02.21-.29.39-.58.54-.85.18-.33.28-.5.27-.52Z"/><path class="cls-4" d="M49.47,41.12c-.35.55-.66.99-.93,1.32-.48.59-.96.9-1.47.93-.43.02-.77-.15-1.03-.52-.18-.26-.28-.58-.3-.96-.06-1.13.34-2.46,1.23-3.98.41-.71.82-1.26,1.24-1.64.33-.31.6-.47.82-.48.12,0,.24.04.35.14.09.09.14.19.15.28,0,.17-.14.45-.44.84-.68.91-1.19,1.74-1.52,2.49-.39.88-.57,1.56-.54,2.04,0,.12.04.21.1.28.06.06.14.09.25.08.45-.03,1.03-.7,1.76-2.03.37-.69.69-1.45.94-2.27.13-.45.32-.85.55-1.21.23-.32.46-.49.7-.5.13,0,.25.04.37.15.12.12.19.25.19.4.02.32-.24,1.04-.79,2.18-.37.79-.54,1.43-.51,1.94.03.54.2,1,.51,1.37.08.1.34.25.75.46.2.1.31.28.32.54,0,.16-.05.3-.18.42s-.29.19-.48.2c-.44.02-.85-.13-1.23-.46-.34-.3-.58-.74-.7-1.33-.02-.08-.06-.31-.1-.68Z"/><path class="cls-4" d="M56.66,40.55c-.26.53-.52.97-.78,1.34-.51.72-1.04,1.09-1.59,1.12-.47.03-.85-.18-1.14-.61-.18-.28-.29-.62-.31-1.01-.06-.97.19-2.07.74-3.28.61-1.35,1.38-2.4,2.3-3.15.61-.49,1.2-.75,1.79-.79.37-.02.68.08.94.29.22.19.34.41.35.67.01.19-.05.47-.18.82.14.18.22.34.23.48,0,.18-.1.49-.32.93-.23.44-.45,1.03-.67,1.75-.23.77-.33,1.38-.3,1.84.02.37.15.67.38.89.06.06.25.15.56.27.23.09.35.27.36.53,0,.17-.04.31-.16.42-.12.12-.28.19-.45.2-.47.03-.89-.16-1.26-.56-.3-.33-.46-.75-.49-1.27,0-.18,0-.47,0-.87ZM58.06,36.12c-.12-.19-.24-.32-.37-.41-.13-.08-.26-.12-.4-.12-.67.04-1.36.66-2.07,1.87-.79,1.34-1.15,2.46-1.1,3.35.01.22.06.38.15.49.09.11.22.16.38.15.42-.02.89-.5,1.4-1.43.29-.51.64-1.26,1.05-2.24.27-.64.47-1.07.6-1.28.06-.11.18-.24.36-.4Z"/><path class="cls-4" d="M62.04,38.08c.81-.97,1.75-1.93,2.82-2.87.39-.34.8-.66,1.24-.96.22-.14.36-.22.42-.22.13,0,.27.08.41.27.08.1.13.2.13.28,0,.16-.15.38-.46.67-.86.76-1.27,1.32-1.25,1.68.01.2.13.3.36.28.38-.02,1.01-.37,1.89-1.05.15-.11.28-.17.39-.18.07,0,.14.03.22.09.08.07.13.16.13.24.01.26-.33.69-1.04,1.27-.74.62-1.46.95-2.15.99-.28.02-.54-.04-.79-.18-.21-.11-.32-.33-.34-.64-.01-.22.07-.47.23-.77-.66.53-1.43,1.42-2.3,2.67-.5.77-.99,1.71-1.46,2.82-.18.42-.42.63-.72.65-.33.02-.5-.13-.51-.43-.02-.3.19-1.11.63-2.44.65-1.97,1.35-3.51,2.11-4.62.47-.69.88-1.04,1.22-1.06.11,0,.22.02.32.09.12.08.18.19.19.32,0,.13-.07.32-.23.57-.03.05-.25.35-.65.92-.37.54-.64,1.07-.82,1.59Z"/><path class="cls-4" d="M72.46,33.32c-.52.92-.99,1.94-1.41,3.06-.6,1.6-.88,2.79-.84,3.56.01.22.07.38.17.49.1.11.24.16.42.15.44-.03.95-.47,1.52-1.33.37-.53.69-1.06.97-1.59.15-.3.32-.45.52-.47.11,0,.21.03.3.1.07.08.11.15.12.23.02.32-.37,1.07-1.15,2.24-.94,1.41-1.83,2.14-2.67,2.19-.45.03-.83-.16-1.15-.55-.2-.25-.31-.62-.34-1.1-.06-1.06.18-2.32.71-3.76.13-.36.49-1.23,1.09-2.61-.23.08-.41.12-.54.12-.18.01-.35-.02-.49-.1-.2-.11-.3-.26-.32-.44-.01-.22.1-.4.35-.55.07-.04.39-.11.96-.23.21-.05.51-.15.91-.3.28-.57.73-1.35,1.37-2.34.36-.55.6-.91.74-1.07.2-.23.38-.35.53-.36.11,0,.23.05.35.16.11.11.17.22.18.33.01.23-.21.69-.66,1.4-.3.46-.52.83-.66,1.11.96-.32,1.65-.49,2.07-.51.48-.03.74.16.76.56.01.2-.06.36-.23.46-.08.06-.31.11-.68.17-.15,0-.8.2-1.96.61-.32.11-.63.23-.94.36Z"/><path class="cls-4" d="M75.59,39.11v.24c.02.19.08.36.19.49.24.31.61.45,1.11.43,1.1-.06,2.32-.98,3.66-2.74.24-.3.44-.46.62-.47.1,0,.19.04.27.13.06.07.09.13.09.19.02.34-.37.95-1.17,1.81-.62.68-1.29,1.24-2.02,1.69-.72.45-1.4.69-2.04.72-.66.04-1.19-.16-1.59-.6-.27-.3-.42-.72-.46-1.27-.08-1.48.53-2.97,1.84-4.48,1.07-1.22,2.02-1.86,2.86-1.91.23-.01.44.05.63.18.24.17.37.41.38.7.03.47-.16,1.05-.55,1.75-.81,1.45-2.08,2.5-3.84,3.14ZM75.82,38.07c.6-.25,1.07-.51,1.41-.79.59-.51,1.04-1.07,1.37-1.69.12-.22.17-.41.17-.58-.01-.18-.1-.26-.27-.25-.23.01-.54.2-.94.57-.72.65-1.3,1.56-1.73,2.74Z"/><path class="cls-4" d="M84.25,36.81c.81-.97,1.75-1.93,2.82-2.87.39-.34.8-.66,1.24-.96.22-.14.36-.22.42-.22.13,0,.27.08.41.27.08.1.13.2.13.28,0,.16-.15.38-.46.67-.85.76-1.27,1.32-1.25,1.68.01.2.13.3.36.28.38-.02,1.01-.37,1.89-1.05.15-.11.28-.17.39-.18.07,0,.14.03.22.09.08.07.13.16.13.24.01.26-.33.69-1.04,1.27-.74.62-1.46.95-2.15.99-.28.02-.54-.04-.79-.18-.21-.11-.32-.33-.34-.64-.01-.22.07-.47.23-.77-.66.53-1.43,1.42-2.3,2.67-.5.77-.99,1.71-1.46,2.82-.18.42-.42.63-.72.65-.32.02-.5-.13-.51-.43-.02-.3.19-1.11.63-2.44.64-1.97,1.35-3.51,2.11-4.62.47-.69.88-1.04,1.22-1.06.11,0,.22.02.32.09.12.08.18.19.19.32,0,.13-.07.32-.23.57-.03.05-.25.35-.65.92-.37.54-.64,1.07-.82,1.59Z"/><path class="cls-4" d="M92.8,35.24c.27-.02.59-.02.96-.03.76-.02,1.24-.03,1.44-.04.51-.03.85,0,1.02.11.16.1.25.28.27.57.01.26-.05.47-.19.63-.08.08-.19.13-.31.14-.09,0-.23,0-.42,0-.33-.02-1.19.01-2.58.09-.85.05-1.48.13-1.9.25-.2.06-.35.09-.46.09-.24.01-.42-.09-.56-.31-.07-.11-.11-.24-.12-.39-.03-.46.17-.74.58-.87.31-.1,1.06-.18,2.26-.25Z"/><path class="cls-4" d="M102.43,31.35c.54-.03.96.04,1.24.22s.44.46.46.86c.03.52-.13,1.03-.49,1.53-.34.48-.88.88-1.6,1.2-.4.17-.73.27-1,.28-.37.02-.56-.13-.58-.46-.01-.22.08-.39.29-.52.05-.03.35-.12.88-.27.32-.09.61-.26.87-.51.23-.22.33-.44.32-.68-.01-.18-.07-.32-.18-.4-.11-.08-.27-.12-.48-.1-.51.03-1.06.27-1.65.71-.68.5-1.01,1.08-.97,1.72.03.46.29,1.01.79,1.67.56.72.86,1.33.88,1.85.04.77-.26,1.4-.92,1.88-.41.3-.88.46-1.41.49-.84.05-1.5-.22-1.97-.8-.33-.41-.51-.91-.55-1.5-.04-.68.1-1.27.43-1.75.21-.32.44-.49.68-.5.22-.01.33.07.34.24,0,.07-.03.18-.1.32-.18.39-.26.84-.23,1.35.02.43.2.79.52,1.07.29.25.61.36.96.34.34-.02.6-.15.78-.39.15-.2.21-.45.19-.75-.02-.37-.26-.83-.71-1.4-.63-.77-.96-1.49-.99-2.15-.05-.88.38-1.68,1.3-2.41.89-.7,1.86-1.08,2.89-1.14Z"/><path class="cls-4" d="M107.14,32.84c.35-.25.61-.42.78-.52.35-.2.7-.3,1.04-.32.39-.02.68.07.89.29.21.21.32.54.35.99.03.61-.14,1.36-.52,2.25-.59,1.4-1.34,2.51-2.24,3.35-.76.7-1.49,1.08-2.2,1.12-.39.02-.78-.11-1.17-.38-1.06,2.5-2,5.04-2.8,7.62-.17.62-.39.93-.66.95-.13,0-.27-.07-.41-.24-.1-.12-.16-.25-.17-.4-.03-.47.46-2.05,1.47-4.72,1.56-4.12,3.07-7.56,4.52-10.31.3-.58.5-.98.61-1.2.28-.59.56-.89.85-.91.3-.02.46.15.48.51.01.2-.08.48-.27.83-.23.45-.41.82-.54,1.09ZM104.49,38.47c.21.19.45.28.74.26.82-.05,1.68-.82,2.59-2.33.34-.56.6-1.12.79-1.7.15-.46.22-.8.21-1.03,0-.16-.05-.27-.13-.35-.08-.08-.2-.11-.36-.1-.41.02-.9.34-1.46.94-.54.58-1.04,1.39-1.51,2.42-.43.95-.72,1.57-.86,1.87Z"/><path class="cls-4" d="M112.76,35.15c-.22.7-.39,1.26-.5,1.69-.11.43-.16.73-.15.89.01.22.12.32.33.31.32-.02.71-.34,1.17-.96.22-.3.54-.84.96-1.63.17-.31.35-.47.55-.48.23-.01.35.09.36.31.02.38-.37,1.17-1.17,2.36-.84,1.25-1.64,1.9-2.41,1.95-.33.02-.61-.11-.84-.37-.16-.19-.25-.44-.27-.72-.03-.49.08-1.18.33-2.07.25-.89.63-1.97,1.15-3.25,1.33-3.25,2.72-5.95,4.17-8.09,1.16-1.72,2.15-2.61,2.98-2.65.26-.02.48.07.66.27.19.19.29.42.3.68.07,1.23-.91,3.34-2.94,6.32-.91,1.33-2.01,2.67-3.31,4.02-.34.35-.81.83-1.4,1.43ZM113.58,33c1.74-1.67,3.26-3.73,4.56-6.2.68-1.28,1-2.12.98-2.52-.01-.19-.1-.29-.27-.28-.48.03-1.3,1.04-2.47,3.03-.96,1.64-1.9,3.63-2.8,5.97Z"/><path class="cls-4" d="M119.64,31.23c.15,0,.28.04.38.15.08.09.12.19.12.28,0,.16-.1.43-.34.81-.83,1.46-1.42,2.66-1.75,3.6-.36.96-.67,1.95-.93,2.96-.12.45-.32.68-.62.7-.18,0-.32-.05-.43-.19-.1-.11-.16-.23-.17-.36-.01-.26.22-1.16.69-2.68.37-1.2,1.01-2.54,1.91-4.02.29-.48.51-.81.66-.98.15-.18.31-.27.47-.28ZM121.87,26.21c.4-.02.6.17.63.57.02.37-.15.79-.51,1.26-.34.45-.69.69-1.03.71-.17,0-.31-.04-.42-.16-.11-.11-.17-.25-.18-.41-.02-.42.18-.88.62-1.38.32-.37.62-.56.89-.58Z"/><path class="cls-4" d="M124.53,30.36c-.52.92-.99,1.94-1.41,3.06-.6,1.6-.88,2.79-.84,3.56.01.22.07.38.17.49.1.11.24.16.42.15.44-.02.95-.47,1.52-1.33.37-.53.69-1.06.97-1.59.15-.3.32-.45.51-.47.11,0,.21.03.3.1.07.08.11.15.12.23.02.32-.37,1.07-1.15,2.24-.94,1.41-1.83,2.14-2.68,2.19-.45.03-.83-.16-1.15-.55-.2-.25-.31-.62-.34-1.1-.06-1.06.18-2.32.71-3.76.13-.36.49-1.23,1.09-2.61-.23.08-.41.12-.53.12-.18.01-.35-.02-.49-.1-.2-.11-.31-.26-.32-.44-.01-.22.1-.4.35-.55.07-.04.39-.11.96-.23.21-.05.51-.15.91-.3.28-.57.73-1.35,1.37-2.34.36-.55.6-.91.74-1.07.2-.23.38-.35.54-.36.11,0,.23.05.35.16.11.11.17.22.18.33.01.23-.21.69-.66,1.4-.3.46-.52.83-.66,1.11.96-.32,1.65-.49,2.07-.51.48-.03.74.16.76.56.01.2-.06.36-.22.46-.08.06-.31.11-.68.17-.15,0-.8.2-1.96.61-.32.11-.63.23-.94.36Z"/><path class="cls-4" d="M137.82,29.92c.69-.04,1.06.31,1.1,1.03.04.64-.18,1.3-.64,1.98-.36.51-.68.78-.97.79-.25.01-.38-.12-.39-.4,0-.15.02-.27.08-.36.02-.04.12-.14.3-.32.15-.16.3-.39.45-.7.1-.21.15-.37.14-.5,0-.14-.09-.21-.25-.2-.18.01-.46.17-.82.48-.57.5-1.12,1.26-1.67,2.29-.55,1.07-.82,1.9-.78,2.5.01.19.08.36.2.5.18.22.41.32.69.3.55-.03,1.19-.41,1.9-1.14.61-.62,1.11-1.24,1.52-1.86.21-.34.4-.51.57-.52.1,0,.19.03.27.12.08.08.12.17.12.26.02.32-.36.98-1.14,1.97-1.24,1.55-2.4,2.35-3.48,2.42-.65.04-1.16-.17-1.53-.61-.26-.33-.41-.73-.44-1.19-.05-.91.27-1.99.95-3.24.66-1.19,1.45-2.16,2.37-2.92.54-.44,1.02-.67,1.44-.69Z"/><path class="cls-4" d="M145.49,29.15c.72-.04,1.1.38,1.15,1.25.07,1.17-.39,2.68-1.37,4.53-1.07,2.01-2.15,3.04-3.24,3.1-.51.03-.9-.19-1.16-.65-.14-.23-.21-.51-.23-.85-.06-1.12.25-2.36.95-3.73.65-1.26,1.44-2.26,2.38-2.99.55-.43,1.05-.65,1.52-.68ZM144.4,34.21c-.23-.16-.35-.29-.35-.39,0-.07.13-.27.39-.6.74-.93,1.09-1.67,1.06-2.21,0-.07-.03-.14-.08-.21-.08-.13-.19-.19-.34-.18-.28.02-.68.31-1.19.89-.66.74-1.16,1.5-1.48,2.26-.38.88-.56,1.59-.52,2.16,0,.15.06.28.14.39.12.15.27.22.45.21.42-.02.85-.37,1.3-1.02.2-.28.35-.56.47-.85.12-.29.17-.44.16-.45Z"/><path class="cls-4" d="M149.15,33.06c.69-.81,1.31-1.46,1.84-1.93.81-.71,1.37-1.07,1.65-1.08.14,0,.27.04.38.14.1.09.16.19.16.31,0,.17-.13.45-.41.84-.44.62-.74,1.15-.9,1.58,1.94-2.18,3.28-3.29,4.04-3.33.16,0,.3.03.42.12.13.1.2.23.21.38.01.25-.16.57-.51.98-1.56,1.81-2.31,3.26-2.25,4.35.03.45.12.76.29.95l.37.42c.07.07.12.17.12.3,0,.14-.04.27-.15.4-.12.15-.27.23-.44.24-.29.02-.57-.15-.83-.51-.32-.42-.5-.93-.54-1.53-.04-.8.14-1.62.55-2.46.14-.3.38-.7.72-1.2-.71.6-1.43,1.42-2.14,2.45-.49.7-.92,1.47-1.29,2.32-.18.41-.41.62-.68.63-.3.02-.46-.14-.48-.47-.02-.36.18-1.12.61-2.27.24-.66.55-1.35.92-2.09-1.43,1.24-2.47,2.88-3.12,4.9-.16.45-.39.68-.7.7-.14,0-.26-.04-.35-.14-.1-.1-.16-.22-.17-.37-.03-.52.21-1.47.71-2.85.52-1.46,1.14-2.79,1.83-3.97.48-.83.87-1.25,1.16-1.27.26-.02.4.12.42.4,0,.12-.14.44-.43.95-.52.95-.86,1.66-1.02,2.12Z"/><path class="cls-4" d="M160.1,29.83c.35-.25.61-.42.78-.52.35-.2.7-.3,1.04-.32.39-.02.68.07.89.29.21.21.32.54.35.99.03.61-.14,1.36-.52,2.25-.59,1.4-1.34,2.51-2.24,3.35-.76.7-1.49,1.07-2.2,1.11-.39.02-.78-.1-1.17-.38-1.06,2.5-2,5.04-2.8,7.62-.17.62-.39.93-.66.95-.13,0-.27-.07-.41-.24-.1-.12-.16-.25-.17-.4-.03-.47.46-2.05,1.47-4.72,1.56-4.12,3.07-7.56,4.52-10.31.3-.58.5-.98.61-1.2.28-.59.56-.89.85-.91.3-.02.46.15.48.51.01.2-.08.48-.27.83-.23.45-.41.82-.54,1.09ZM157.45,35.46c.21.19.45.28.74.26.82-.05,1.68-.82,2.59-2.33.34-.56.6-1.12.79-1.7.15-.46.22-.8.21-1.03,0-.16-.05-.27-.13-.35-.08-.07-.2-.11-.36-.1-.41.02-.9.34-1.46.94-.54.59-1.04,1.39-1.51,2.42-.43.95-.72,1.57-.86,1.87Z"/><path class="cls-4" d="M165.96,32.16c.81-.97,1.75-1.93,2.82-2.87.38-.34.8-.66,1.24-.96.22-.15.36-.22.42-.22.13,0,.27.08.41.27.08.1.13.2.13.28,0,.16-.14.38-.46.67-.85.76-1.27,1.32-1.25,1.68.01.2.13.3.36.28.38-.02,1.01-.37,1.89-1.05.15-.11.28-.17.39-.18.07,0,.14.03.22.09.08.07.13.16.13.24.01.26-.33.69-1.04,1.27-.74.62-1.46.95-2.15.99-.28.02-.54-.04-.79-.18-.21-.11-.32-.32-.34-.64-.01-.22.07-.47.23-.77-.67.53-1.43,1.42-2.3,2.67-.5.77-.99,1.71-1.46,2.82-.18.42-.42.63-.72.65-.32.02-.5-.13-.51-.43-.02-.3.19-1.11.63-2.44.64-1.97,1.35-3.51,2.11-4.62.47-.69.88-1.04,1.22-1.06.11,0,.22.02.32.09.12.08.18.19.19.32,0,.13-.07.32-.23.57-.03.05-.25.35-.65.92-.37.54-.64,1.07-.82,1.59Z"/><path class="cls-4" d="M172.94,33.57v.24c.03.19.08.36.19.49.24.31.61.45,1.11.43,1.1-.06,2.32-.98,3.66-2.74.24-.3.44-.46.62-.47.1,0,.19.04.27.13.06.07.09.13.09.19.02.34-.37.95-1.17,1.81-.62.68-1.29,1.24-2.02,1.69-.72.45-1.4.69-2.04.72-.66.04-1.19-.16-1.59-.6-.27-.3-.42-.72-.46-1.27-.08-1.48.53-2.97,1.84-4.48,1.07-1.22,2.02-1.86,2.86-1.91.23-.01.44.05.63.18.24.17.37.41.38.7.03.47-.16,1.05-.55,1.75-.81,1.46-2.08,2.5-3.84,3.14ZM173.17,32.53c.6-.25,1.07-.51,1.41-.79.59-.51,1.04-1.07,1.37-1.69.12-.22.17-.41.17-.58-.01-.18-.1-.26-.27-.25-.23.01-.54.2-.94.57-.72.65-1.3,1.56-1.73,2.74Z"/><path class="cls-4" d="M185,26.65c.54-.03.96.04,1.24.22.28.18.44.46.46.86.03.52-.14,1.03-.49,1.53-.34.48-.87.88-1.6,1.2-.39.17-.73.27-1,.28-.37.02-.56-.13-.58-.46-.01-.22.08-.39.29-.52.05-.03.34-.12.88-.27.32-.09.61-.26.87-.51.22-.22.33-.44.32-.68-.01-.18-.07-.32-.18-.4-.11-.08-.27-.12-.48-.1-.51.03-1.06.27-1.65.71-.68.51-1.01,1.08-.97,1.72.03.46.29,1.01.79,1.67.56.72.86,1.33.88,1.85.04.77-.26,1.4-.92,1.87-.41.3-.88.46-1.41.49-.84.05-1.5-.22-1.97-.8-.33-.41-.51-.91-.55-1.5-.04-.68.1-1.27.43-1.75.21-.32.44-.49.69-.5.22-.01.33.07.34.24,0,.07-.03.18-.1.32-.18.39-.26.84-.23,1.35.02.43.2.79.52,1.07.29.25.61.36.96.34.34-.02.6-.15.78-.39.15-.2.21-.45.2-.75-.02-.37-.26-.83-.71-1.4-.62-.77-.96-1.49-.99-2.15-.05-.88.38-1.68,1.3-2.41.89-.7,1.86-1.08,2.89-1.14Z"/><path class="cls-4" d="M191.85,26.26c.54-.03.96.04,1.24.22.28.18.44.46.46.86.03.52-.14,1.03-.49,1.53-.34.48-.87.88-1.59,1.2-.4.17-.73.27-1,.28-.37.02-.56-.13-.58-.46-.01-.22.08-.39.29-.52.05-.03.34-.12.88-.27.32-.09.61-.26.87-.51.22-.22.33-.44.32-.68,0-.18-.07-.32-.18-.4-.11-.08-.27-.12-.48-.1-.51.03-1.06.27-1.65.71-.68.51-1.01,1.08-.97,1.72.03.46.29,1.01.79,1.67.56.72.85,1.33.88,1.85.04.77-.26,1.4-.92,1.88-.41.3-.88.46-1.41.49-.84.05-1.5-.22-1.97-.8-.33-.41-.51-.91-.55-1.5-.04-.68.1-1.27.43-1.75.21-.32.44-.49.69-.5.22-.01.33.07.34.24,0,.07-.03.18-.1.32-.18.39-.26.84-.23,1.35.02.43.2.79.52,1.07.29.25.61.36.96.34.34-.02.6-.15.78-.39.15-.2.21-.45.2-.75-.02-.37-.26-.83-.71-1.4-.62-.77-.96-1.49-.99-2.15-.05-.88.38-1.68,1.3-2.41.89-.7,1.86-1.08,2.89-1.14Z"/><path class="cls-4" d="M196.17,26.88c.15,0,.28.04.38.15.08.09.12.19.12.28,0,.16-.1.43-.34.81-.83,1.46-1.42,2.66-1.75,3.6-.36.96-.67,1.95-.93,2.96-.12.45-.32.68-.62.7-.17,0-.32-.05-.43-.19-.1-.11-.16-.23-.17-.36-.02-.26.22-1.16.69-2.68.37-1.2,1.01-2.54,1.91-4.02.29-.48.51-.81.66-.98.15-.18.31-.27.47-.28ZM198.39,21.85c.4-.02.6.17.63.57.02.37-.15.79-.51,1.26-.34.45-.69.69-1.03.71-.17,0-.31-.04-.42-.16-.11-.11-.17-.25-.18-.41-.02-.42.18-.88.62-1.38.32-.37.62-.56.89-.58Z"/><path class="cls-4" d="M201.32,25.98c.72-.04,1.1.38,1.15,1.25.07,1.17-.39,2.68-1.37,4.53-1.07,2.01-2.15,3.04-3.24,3.1-.51.03-.9-.19-1.16-.65-.14-.23-.21-.51-.23-.85-.06-1.12.25-2.36.95-3.73.65-1.26,1.44-2.26,2.38-2.99.55-.43,1.05-.65,1.52-.68ZM200.23,31.03c-.23-.16-.35-.29-.35-.39,0-.07.12-.27.39-.6.74-.93,1.09-1.67,1.06-2.21,0-.07-.03-.14-.08-.21-.08-.13-.19-.19-.34-.18-.28.02-.68.31-1.19.89-.66.74-1.16,1.5-1.48,2.26-.38.88-.56,1.59-.52,2.16,0,.15.06.28.14.39.12.15.27.22.45.21.42-.02.86-.37,1.3-1.02.2-.28.35-.56.47-.85.12-.29.17-.44.16-.45Z"/><path class="cls-4" d="M205.15,29.74c.11-.11.21-.22.31-.33,1.73-1.89,2.91-2.86,3.53-2.9.34-.02.52.16.54.54.02.26-.12.58-.41.96-1.56,2.05-2.3,3.82-2.22,5.32.03.48.19.94.47,1.36.13.19.21.35.21.46,0,.11-.04.21-.14.31-.11.13-.24.2-.4.21-.36.02-.68-.19-.95-.63-.26-.42-.41-.93-.44-1.55-.07-1.18.31-2.52,1.12-4.01-1.15.83-2.18,2.25-3.1,4.24-.24.48-.5.73-.8.75-.15,0-.27-.04-.38-.14-.13-.12-.2-.27-.21-.46-.03-.47.44-1.75,1.41-3.82.52-1.12.93-1.94,1.23-2.45.3-.5.58-.76.81-.77.11,0,.23.04.34.14.13.12.2.25.21.41.01.19-.1.48-.33.85-.34.56-.61,1.06-.81,1.51Z"/><path class="cls-4" d="M216.91,16.16c.41-.02.63.22.66.74.05.8-.34,1.87-1.15,3.21-.33.55-.73,1.05-1.19,1.52-.3.31-.55.47-.74.48-.18.01-.34-.06-.46-.22-.08-.1-.13-.22-.14-.36-.01-.19.16-.47.52-.83,1.01-1.09,1.57-2.33,1.68-3.71.03-.26.14-.46.32-.61.17-.12.34-.19.5-.2ZM219.96,15.99c.41-.02.63.22.66.74.05.8-.34,1.87-1.15,3.21-.33.55-.73,1.05-1.19,1.52-.3.31-.55.47-.74.48-.18.01-.34-.06-.46-.22-.08-.1-.13-.22-.14-.36-.01-.19.16-.47.52-.83,1.02-1.09,1.58-2.33,1.68-3.71.03-.26.14-.46.32-.61.17-.12.34-.19.5-.2Z"/><path class="cls-4" d="M280.7,50.28c-.29.51-.55,1.08-.78,1.7-.34.89-.49,1.55-.47,1.98,0,.12.04.21.09.27.06.06.13.09.24.08.24-.01.53-.26.85-.74.2-.3.38-.59.54-.88.08-.17.18-.25.29-.26.06,0,.12.02.17.06.04.04.06.08.07.13,0,.18-.2.6-.64,1.25-.52.78-1.02,1.19-1.49,1.21-.25.01-.46-.09-.64-.31-.11-.14-.17-.34-.19-.61-.03-.59.1-1.29.39-2.09.07-.2.27-.68.61-1.45-.13.04-.23.06-.3.07-.1,0-.19-.01-.28-.06-.11-.06-.17-.14-.18-.25,0-.12.06-.22.2-.3.04-.02.22-.06.54-.13.12-.03.28-.08.5-.17.15-.32.41-.75.76-1.3.2-.3.34-.5.41-.6.11-.13.21-.19.3-.2.06,0,.13.03.2.09.06.06.09.12.1.19,0,.13-.12.39-.37.78-.17.25-.29.46-.37.62.53-.18.92-.27,1.15-.29.27-.02.41.09.42.31,0,.11-.04.2-.12.26-.05.03-.17.06-.38.09-.08,0-.45.11-1.09.34-.18.06-.35.13-.52.2Z"/><path class="cls-4" d="M284.5,50.05c.4-.02.61.21.64.7.04.65-.22,1.49-.76,2.52-.59,1.11-1.19,1.69-1.8,1.72-.28.02-.5-.1-.64-.36-.08-.13-.12-.28-.13-.47-.04-.62.14-1.31.53-2.07.36-.7.8-1.25,1.32-1.66.3-.24.59-.36.84-.38ZM283.9,52.86c-.13-.09-.19-.16-.2-.22,0-.04.07-.15.21-.33.41-.52.61-.93.59-1.23,0-.04-.02-.08-.04-.11-.04-.07-.11-.1-.19-.1-.16,0-.38.17-.66.49-.37.41-.64.83-.82,1.26-.21.49-.31.89-.29,1.2,0,.08.03.15.08.22.07.08.15.12.25.12.23-.01.48-.2.72-.57.11-.15.19-.31.26-.47s.09-.24.09-.25Z"/><path class="cls-4" d="M286.63,52.15c.06-.06.12-.12.17-.19.96-1.05,1.62-1.59,1.96-1.61.19-.01.29.09.3.3,0,.15-.07.32-.23.53-.87,1.14-1.28,2.12-1.23,2.95.02.27.1.52.26.76.07.11.11.19.12.26,0,.06-.02.12-.08.17-.06.07-.13.11-.22.12-.2.01-.38-.11-.53-.35-.15-.23-.23-.52-.25-.86-.04-.66.17-1.4.62-2.23-.64.46-1.21,1.25-1.72,2.36-.13.27-.28.4-.45.41-.08,0-.15-.02-.21-.08-.07-.06-.11-.15-.12-.26-.02-.26.25-.97.78-2.12.29-.62.52-1.08.69-1.36.17-.28.32-.42.45-.43.06,0,.13.02.19.08.07.06.11.14.12.23,0,.11-.06.27-.19.47-.19.31-.34.59-.45.84Z"/><path class="cls-4" d="M289.76,53.08v.13c.01.11.05.2.1.27.13.17.34.25.61.24.61-.04,1.29-.54,2.03-1.52.13-.17.25-.26.34-.26.05,0,.1.02.15.07.03.04.05.07.05.11.01.19-.21.52-.65,1.01-.34.38-.72.69-1.12.94-.4.25-.78.38-1.14.4-.37.02-.66-.09-.88-.33-.15-.17-.24-.4-.25-.7-.05-.82.29-1.65,1.03-2.49.59-.68,1.12-1.03,1.59-1.06.13,0,.24.03.35.1.13.1.2.23.21.39.01.26-.09.58-.3.97-.45.81-1.16,1.39-2.13,1.74ZM289.89,52.5c.33-.14.6-.28.78-.44.33-.28.58-.6.76-.94.07-.12.1-.23.09-.32,0-.1-.05-.14-.15-.14-.13,0-.3.11-.53.32-.4.36-.72.87-.96,1.52Z"/><path class="cls-4" d="M294.04,53.71c.11,0,.2.04.28.13.05.06.08.14.09.24.01.23-.04.47-.15.73-.12.28-.28.42-.5.43-.22.01-.34-.11-.36-.36s.05-.52.19-.79c.13-.25.28-.38.45-.38ZM295.28,49.98c.11,0,.2.04.28.13.05.06.08.14.09.24.01.23-.04.47-.15.73-.12.28-.29.43-.5.44-.22.01-.34-.11-.36-.36s.05-.52.19-.79c.12-.25.27-.38.45-.39Z"/><path class="cls-4" d="M54.7,187.71c-.34.26-.68.48-1.03.66-.46.25-.77.37-.92.37-.16,0-.23-.12-.23-.37,0-.09.02-.16.06-.23.04-.06.13-.11.28-.17.44-.19,1.08-.54,1.92-1.07.38-.24.65-.36.81-.36.1,0,.2.05.28.15.05.07.08.14.08.22,0,.12-.1.33-.29.62-1.41,2.29-2.39,4.08-2.93,5.38-.13.32-.23.52-.29.59-.09.13-.19.2-.28.2s-.18-.06-.26-.17c-.05-.06-.07-.13-.07-.21,0-.26.38-1.13,1.13-2.61.7-1.39,1.28-2.4,1.74-3.02Z"/><path class="cls-4" d="M56.33,192.98c.82-.26,1.57-.39,2.26-.39.27,0,.49.06.65.17.15.1.22.22.22.36,0,.09-.03.18-.1.25s-.15.11-.23.11c-.03,0-.07,0-.13-.02-.25-.07-.48-.1-.69-.1-.18,0-.4.02-.67.05-.09.01-.43.1-1.02.26-.53.14-.84.21-.94.21-.14,0-.26-.07-.36-.2-.09-.12-.14-.25-.14-.38,0-.15.13-.34.38-.59.48-.47.94-.89,1.38-1.27.42-.35.94-.76,1.56-1.22.71-.52,1.2-.9,1.46-1.14.4-.35.6-.7.6-1.05,0-.2-.06-.35-.19-.46-.11-.1-.25-.15-.42-.15-.44,0-.96.25-1.55.74-.27.22-.44.34-.51.34-.05,0-.11-.03-.17-.09-.07-.06-.1-.13-.1-.21,0-.18.21-.42.64-.75.68-.52,1.33-.78,1.96-.78.36,0,.65.11.89.34.23.22.34.49.34.8,0,.55-.28,1.09-.83,1.63-.24.23-.68.59-1.32,1.05-1.54,1.12-2.53,1.95-2.97,2.48Z"/><path class="cls-4" d="M65.89,187.4c-1.31.29-2.24.43-2.77.43-.36,0-.54-.12-.54-.35,0-.12.04-.22.12-.3s.17-.12.27-.12c.04,0,.11,0,.21.01.06,0,.14.01.22.01.3,0,.7-.04,1.2-.12.63-.1,1.1-.19,1.4-.27.17-.04.31-.07.42-.07.26,0,.4.14.4.42,0,.19-.11.41-.34.64-1.68,1.8-3,3.57-3.95,5.32-.23.42-.38.67-.44.75-.12.14-.24.21-.37.21-.07,0-.14-.03-.19-.08-.07-.06-.1-.13-.1-.21,0-.25.24-.76.71-1.54.62-1.02,1.38-2.06,2.26-3.11.53-.63,1.02-1.18,1.49-1.63Z"/><path class="cls-4" d="M55.3,239.16c.73-.27,1.26-.4,1.6-.4.4,0,.7.11.89.34.17.2.26.46.26.78,0,.83-.37,1.64-1.11,2.44-.68.74-1.38,1.11-2.09,1.11-.45,0-.81-.2-1.09-.59-.21-.3-.32-.65-.32-1.05,0-.87.34-1.77,1.01-2.69.58-.8,1.41-1.54,2.49-2.21.32-.21.56-.35.72-.42.15-.07.28-.11.4-.11.19,0,.28.08.28.24,0,.15-.1.27-.29.38-1.02.54-1.93,1.27-2.74,2.18ZM54.7,240.06c-.3.49-.45.98-.45,1.46,0,.32.07.59.22.82.15.23.35.35.59.35.34,0,.69-.16,1.05-.48s.65-.76.87-1.3c.14-.34.21-.64.21-.89,0-.19-.06-.33-.17-.45-.12-.13-.28-.19-.48-.19-.33,0-.73.11-1.2.33-.13.05-.27.13-.43.23-.12.07-.19.12-.2.13Z"/><path class="cls-4" d="M62.19,238.94c.24.1.42.22.52.34.15.18.23.43.23.75,0,.8-.33,1.56-1,2.29s-1.36,1.1-2.07,1.1c-.43,0-.79-.18-1.06-.54-.2-.26-.29-.55-.29-.86,0-.52.2-.78.6-.78.24,0,.36.09.36.27,0,.04,0,.09-.01.15-.01.08-.02.17-.02.25,0,.23.06.41.17.53.13.13.28.2.45.2.42,0,.86-.29,1.34-.87.45-.56.68-1.09.68-1.59,0-.25-.06-.45-.18-.6-.13-.16-.31-.23-.55-.23-.09,0-.19.01-.28.04-.11.03-.2.05-.26.05-.14,0-.21-.1-.21-.29,0-.17.06-.3.17-.41.06-.06.2-.12.4-.18.41-.1.75-.24,1.03-.42.18-.12.33-.27.43-.47.05-.1.08-.21.08-.32,0-.14-.04-.25-.11-.31-.08-.07-.19-.1-.35-.1-.26,0-.54.07-.82.21-.07.03-.25.13-.52.3-.07.05-.15.07-.24.07-.17,0-.25-.09-.25-.27,0-.16.12-.33.37-.51.57-.41,1.13-.61,1.68-.61.33,0,.6.1.83.3.24.21.36.47.36.77,0,.4-.17.77-.51,1.11-.19.2-.5.4-.94.62Z"/><polyline class="cls-1" points="70.31 213.52 116.21 201.66 162.61 249.28 209.01 132.39 255.42 158.18 301.82 193.57 348.22 185.85 394.91 170.46"/><path class="cls-4" d="M312.15,264.39c.3-.02.53.02.69.12.16.1.24.26.25.48.02.29-.08.57-.27.85-.19.27-.49.49-.89.67-.22.1-.41.15-.56.16-.2.01-.31-.07-.32-.25,0-.12.05-.22.16-.29.03-.02.19-.07.49-.15.18-.05.34-.14.48-.28.12-.12.18-.25.18-.38,0-.1-.04-.18-.1-.22-.06-.05-.15-.06-.27-.06-.28.02-.59.15-.92.4-.38.28-.56.6-.54.96.01.25.16.56.44.93.31.4.47.74.49,1.03.02.43-.15.78-.51,1.04-.23.16-.49.26-.78.27-.47.03-.83-.12-1.1-.44-.18-.23-.29-.51-.3-.83-.02-.38.06-.71.24-.97.12-.18.24-.27.38-.28.12,0,.19.04.19.14,0,.04-.02.1-.06.18-.1.22-.14.47-.13.75.01.24.11.44.29.59.16.14.34.2.53.19.19-.01.33-.08.44-.22.08-.11.12-.25.11-.42-.01-.2-.14-.46-.4-.78-.35-.43-.53-.83-.55-1.19-.03-.49.21-.93.72-1.34.5-.39,1.03-.6,1.61-.63Z"/><path class="cls-4" d="M314.49,266.13c.34-.4.68-.73,1.03-1,.44-.35.77-.53.97-.54.08,0,.17.02.25.09.09.07.14.16.15.26,0,.13-.09.34-.28.63-.37.56-.65,1.06-.84,1.51-.16.39-.24.65-.23.79,0,.13.07.19.2.19.26-.01.68-.51,1.25-1.48.12-.2.22-.3.33-.3s.16.05.16.17c.01.19-.15.56-.49,1.12-.29.49-.61.86-.95,1.13-.24.18-.46.28-.66.29-.21.01-.37-.07-.47-.24-.06-.11-.1-.23-.11-.37-.02-.43.1-.94.38-1.51.07-.14.26-.52.59-1.16-.97.56-1.75,1.69-2.34,3.4-.05.19-.14.29-.28.3-.09,0-.17-.02-.23-.08-.06-.06-.1-.15-.1-.24,0-.16.12-.63.39-1.39.5-1.43.97-2.64,1.42-3.63.45-1,.95-2.05,1.5-3.13.13-.26.24-.44.31-.53.08-.09.16-.14.26-.15.09,0,.17.04.23.13.05.07.08.14.09.23,0,.14-.06.32-.2.56-.48.84-.95,1.77-1.42,2.77-.5,1.08-.8,1.81-.91,2.19Z"/><path class="cls-4" d="M318.76,266.47c.45-.54.97-1.07,1.57-1.59.21-.19.44-.36.69-.53.12-.08.2-.12.23-.12.07,0,.15.04.23.15.05.06.07.11.08.16,0,.09-.08.21-.26.37-.47.42-.71.73-.7.93,0,.11.07.16.2.16.21-.01.56-.21,1.05-.58.08-.06.16-.1.21-.1.04,0,.08.02.12.05.05.04.07.09.07.14,0,.15-.18.38-.58.71-.41.35-.81.53-1.19.55-.16,0-.3-.02-.44-.1-.12-.06-.18-.18-.19-.36,0-.12.04-.26.13-.43-.37.29-.8.79-1.28,1.48-.28.43-.55.95-.81,1.56-.1.23-.23.35-.4.36-.18.01-.28-.07-.29-.24,0-.17.11-.62.35-1.35.36-1.1.75-1.95,1.17-2.57.26-.38.49-.58.68-.59.06,0,.12.01.18.05.07.04.1.1.11.18s-.04.18-.13.32c-.02.03-.14.2-.36.51-.2.3-.35.59-.46.88Z"/><path class="cls-4" d="M323.81,264.2c.08,0,.15.02.21.08.04.05.07.1.07.16,0,.09-.06.24-.19.45-.46.81-.79,1.48-.97,2-.2.54-.37,1.08-.52,1.64-.06.25-.18.38-.34.39-.1,0-.18-.03-.24-.1-.06-.06-.09-.13-.09-.2,0-.15.12-.64.38-1.49.21-.67.56-1.41,1.06-2.23.16-.27.28-.45.37-.54.08-.1.17-.15.26-.15ZM325.04,261.41c.22-.01.33.09.35.32.01.2-.08.44-.28.7-.19.25-.38.38-.57.39-.09,0-.17-.02-.23-.09-.06-.06-.1-.14-.1-.23-.01-.23.1-.49.35-.77.18-.21.34-.31.5-.32Z"/><path class="cls-4" d="M325.32,265.99c.06-.06.12-.12.17-.19.96-1.05,1.62-1.59,1.96-1.61.19-.01.29.09.3.3,0,.15-.07.32-.23.53-.87,1.14-1.28,2.12-1.23,2.95.02.27.1.52.26.76.07.11.11.19.12.26,0,.06-.02.12-.08.17-.06.07-.13.11-.22.12-.2.01-.38-.11-.53-.35-.15-.23-.23-.52-.25-.86-.04-.66.17-1.4.62-2.23-.64.46-1.21,1.25-1.72,2.36-.13.27-.28.4-.45.41-.08,0-.15-.02-.21-.08-.07-.06-.11-.15-.12-.26-.01-.26.25-.97.78-2.12.29-.62.52-1.08.69-1.36.17-.28.32-.42.45-.43.06,0,.13.02.19.08.07.06.11.14.12.23,0,.11-.06.26-.19.47-.19.31-.34.59-.45.84Z"/><path class="cls-4" d="M330.79,265.06c-.27.8-.4,1.41-.37,1.82.01.2.06.36.15.49.11.16.24.24.4.23.33-.02.7-.26,1.11-.73.27-.3.5-.6.67-.9.12-.2.23-.31.34-.31.11,0,.17.05.18.16.01.19-.19.58-.61,1.18-.61.89-1.23,1.35-1.86,1.39-.38.02-.65-.15-.83-.5-.13-.26-.21-.54-.22-.84-.01-.25.02-.62.11-1.11-.3.28-.75.95-1.33,2.01-.16.29-.3.44-.44.44-.07,0-.14-.02-.2-.08-.06-.06-.09-.13-.09-.2-.01-.19.21-.86.66-2,.79-1.99,1.66-3.67,2.62-5.05.51-.75.98-1.31,1.41-1.67.38-.33.69-.49.93-.51.11,0,.21.03.29.12.11.1.17.23.18.39.02.41-.16.96-.56,1.63-.42.69-1.14,1.54-2.17,2.55-.58.56-1.1,1.01-1.58,1.34-.06.13-.21.51-.47,1.14.57-.69,1.03-1.17,1.37-1.44.22-.17.52-.35.9-.54.26-.13.44-.19.56-.2.06,0,.12.02.17.06.06.04.09.1.09.17,0,.16-.09.28-.31.35-.36.13-.73.34-1.11.62ZM330.09,263.84c.77-.57,1.48-1.29,2.12-2.14.32-.42.58-.83.77-1.22.13-.27.19-.46.19-.58,0-.11-.06-.17-.16-.16-.27.02-.72.46-1.34,1.34-.51.73-1.04,1.65-1.58,2.75Z"/><path class="cls-4" d="M336.37,263.01c.3-.02.53.02.69.12.16.1.24.26.25.48.02.29-.08.57-.27.85-.19.26-.49.49-.89.67-.22.1-.41.15-.56.16-.2.01-.31-.07-.32-.25,0-.12.05-.22.16-.29.03-.02.19-.07.49-.15.18-.05.34-.14.48-.28.12-.12.18-.25.18-.38,0-.1-.04-.18-.1-.22-.06-.05-.15-.06-.27-.06-.28.02-.59.15-.92.4-.38.28-.56.6-.54.96.01.25.16.56.44.93.31.4.47.74.49,1.03.02.43-.15.78-.51,1.04-.23.16-.49.26-.78.27-.47.03-.83-.12-1.1-.44-.18-.23-.29-.51-.3-.83-.02-.38.06-.71.24-.97.12-.18.24-.27.38-.28.12,0,.19.04.19.14,0,.04-.02.1-.06.18-.1.22-.14.47-.13.75.01.24.11.44.29.59.16.14.34.2.53.19.19-.01.33-.08.44-.22.08-.11.12-.25.11-.42-.01-.2-.14-.46-.4-.78-.35-.43-.53-.83-.55-1.19-.03-.49.21-.93.72-1.34.5-.39,1.03-.6,1.61-.63Z"/><path class="cls-1" d="M137.13,130.21c-1.46-6.41,4.38-18.91.21-33.35"/><path class="cls-4" d="M141.16,100.08c-.11.12-.3.13-.42.02l-3.39-3.1-1.38,4.38c-.05.16-.22.25-.38.2-.16-.05-.25-.22-.2-.38l1.52-4.83c.03-.1.11-.17.21-.2.1-.03.2,0,.28.07l3.73,3.42s.07.09.09.14c.03.1,0,.2-.07.28Z"/><path class="cls-1" d="M135.03,143.31c-1.45,16.36,4.57,30.83,3.88,44.91"/><path class="cls-4" d="M136.16,184.01c.14-.08.33-.04.41.11l2.33,3.96,2.6-3.78c.09-.14.28-.17.42-.08.14.09.17.28.08.42l-2.87,4.17c-.06.08-.16.13-.26.13-.1,0-.2-.06-.25-.15l-2.56-4.36c-.03-.05-.04-.11-.04-.16,0-.1.06-.19.15-.25Z"/><path class="cls-4" d="M214.25,215.82c.06-.06.12-.12.18-.18,1.02-1,1.7-1.49,2.05-1.49.19,0,.29.1.29.31,0,.15-.09.32-.26.52-.93,1.09-1.4,2.05-1.4,2.88,0,.27.07.52.22.77.07.11.1.2.1.26,0,.06-.03.11-.09.17-.06.07-.14.1-.23.1-.2,0-.37-.13-.51-.38-.13-.24-.2-.53-.2-.87,0-.66.25-1.39.75-2.19-.66.42-1.28,1.18-1.85,2.26-.15.26-.3.39-.47.39-.08,0-.15-.03-.21-.09-.07-.07-.1-.16-.1-.26,0-.26.3-.95.9-2.07.32-.61.58-1.04.76-1.32.19-.27.34-.4.48-.4.06,0,.12.03.18.09.07.07.1.15.1.23,0,.11-.07.26-.21.46-.21.3-.37.57-.5.81Z"/><path class="cls-4" d="M219.58,213.61c.4,0,.6.24.6.73,0,.65-.3,1.47-.9,2.47-.65,1.08-1.29,1.62-1.9,1.62-.28,0-.49-.13-.62-.4-.07-.13-.1-.29-.1-.48,0-.62.21-1.3.64-2.04.4-.68.87-1.21,1.41-1.58.32-.22.61-.33.86-.33ZM218.82,216.37c-.12-.1-.18-.17-.18-.23,0-.04.08-.15.23-.32.44-.49.66-.89.66-1.19,0-.04-.01-.08-.04-.12-.04-.07-.1-.11-.18-.11-.16,0-.39.15-.69.45-.39.39-.69.79-.89,1.21-.24.47-.36.87-.36,1.18,0,.08.02.16.07.22.06.09.14.13.24.13.23,0,.49-.18.75-.53.12-.15.21-.3.29-.45s.11-.24.1-.24Z"/><path class="cls-4" d="M226.64,213.79c.39,0,.58.2.58.61,0,.36-.14.72-.42,1.08-.21.27-.4.41-.56.41-.14,0-.21-.08-.21-.23,0-.08.02-.15.06-.2.01-.02.07-.08.18-.17.09-.08.18-.21.27-.37.06-.11.1-.2.1-.27,0-.08-.04-.12-.13-.12-.1,0-.26.08-.47.24-.33.26-.66.66-1,1.22-.34.58-.51,1.03-.51,1.36,0,.11.03.2.1.29.09.13.22.19.37.19.31,0,.67-.19,1.09-.57.36-.33.66-.65.9-.98.13-.18.24-.27.33-.27.05,0,.1.02.15.07.04.05.06.1.06.15,0,.18-.23.53-.7,1.05-.74.82-1.41,1.23-2.01,1.23-.36,0-.64-.13-.83-.39-.14-.19-.21-.42-.21-.67,0-.51.21-1.1.63-1.77.41-.64.87-1.15,1.41-1.55.31-.22.59-.34.82-.34Z"/><path class="cls-4" d="M229.87,215.33c.36-.38.72-.69,1.08-.94.46-.32.8-.48,1-.48.08,0,.16.03.24.1.09.08.13.17.13.27,0,.13-.1.34-.31.62-.41.54-.71,1.03-.92,1.46-.19.38-.28.64-.28.78s.06.2.19.2c.26,0,.71-.47,1.33-1.41.13-.19.24-.29.34-.29s.15.06.15.18c0,.19-.19.55-.56,1.09-.32.47-.66.83-1.01,1.08-.25.17-.47.26-.67.26s-.36-.09-.45-.27c-.06-.11-.09-.24-.09-.37,0-.43.15-.93.46-1.49.07-.13.29-.51.66-1.13-1,.5-1.84,1.59-2.53,3.26-.06.19-.16.29-.29.29-.09,0-.17-.03-.23-.1-.06-.07-.09-.15-.09-.25,0-.16.16-.62.47-1.37.58-1.4,1.12-2.58,1.63-3.54.5-.98,1.06-1.99,1.68-3.04.15-.25.26-.42.34-.51s.17-.13.26-.13c.09,0,.16.05.23.14.05.07.07.15.07.23,0,.14-.08.32-.23.55-.53.82-1.05,1.71-1.57,2.69-.56,1.04-.91,1.76-1.03,2.14Z"/><path class="cls-4" d="M234.93,217.12c-.16.28-.32.52-.48.72-.31.38-.61.57-.92.57-.26,0-.47-.12-.62-.37-.09-.16-.14-.35-.14-.57,0-.54.17-1.14.51-1.79.38-.73.84-1.29,1.38-1.68.35-.25.69-.38,1.02-.38.21,0,.38.06.51.19.12.11.18.24.18.38,0,.11-.04.26-.12.45.07.1.11.19.11.27,0,.1-.07.27-.21.51-.14.24-.28.56-.42.95-.15.42-.23.76-.23,1.01,0,.21.06.37.18.51.03.03.13.09.3.17.12.06.18.16.18.31,0,.09-.03.17-.1.23-.07.06-.16.1-.26.1-.26,0-.49-.12-.68-.35-.16-.19-.23-.43-.23-.72,0-.1,0-.26.03-.48ZM235.84,214.71c-.06-.11-.12-.19-.19-.24-.07-.05-.14-.08-.22-.08-.37,0-.77.32-1.21.97-.48.72-.72,1.33-.72,1.82,0,.12.02.21.07.28s.12.1.21.1c.23,0,.51-.25.82-.75.18-.27.39-.68.65-1.21.17-.35.3-.58.37-.69.04-.06.11-.13.21-.21Z"/><path class="cls-4" d="M238.01,215.82c.06-.06.12-.12.18-.18,1.02-1,1.7-1.49,2.05-1.49.19,0,.29.1.29.31,0,.15-.09.32-.26.52-.93,1.09-1.4,2.05-1.4,2.88,0,.27.07.52.22.77.07.11.1.2.1.26,0,.06-.03.11-.09.17-.06.07-.14.1-.23.1-.2,0-.37-.13-.51-.38-.13-.24-.2-.53-.2-.87,0-.66.25-1.39.75-2.19-.66.42-1.28,1.18-1.85,2.26-.15.26-.3.39-.47.39-.08,0-.15-.03-.21-.09-.07-.07-.1-.16-.1-.26,0-.26.3-.95.9-2.07.32-.61.58-1.04.76-1.32.19-.27.34-.4.48-.4.06,0,.12.03.18.09.07.07.1.15.1.23,0,.11-.07.26-.21.46-.21.3-.37.57-.5.81Z"/><path class="cls-4" d="M242.71,217.7c.52-.38.91-.73,1.16-1.04.38-.45.64-.82.8-1.11.08-.13.16-.19.24-.19.12,0,.18.06.18.17,0,.13-.09.35-.28.66-.58.94-1.44,1.76-2.59,2.45-.54,1.12-.93,1.88-1.19,2.29-.67,1.05-1.31,1.58-1.9,1.58-.31,0-.54-.12-.67-.37-.08-.14-.12-.3-.12-.48,0-.77.49-1.5,1.48-2.2.16-.12.79-.48,1.9-1.1.21-.45.38-.81.5-1.07-.51.54-.94.81-1.27.81-.21,0-.37-.11-.49-.32-.07-.14-.11-.29-.11-.44,0-.35.14-.8.43-1.35.41-.8.9-1.43,1.48-1.89.48-.39.91-.58,1.28-.58.19,0,.35.07.49.21.09.09.14.23.14.41,0,.22-.08.5-.23.83.11.11.17.19.17.24,0,.03-.02.08-.07.15-.13.18-.34.52-.64,1.02-.26.43-.49.88-.68,1.33ZM241.27,219.21c-.64.27-1.21.69-1.71,1.25-.23.26-.39.53-.49.82-.03.09-.04.16-.04.22,0,.06.01.12.04.17.05.09.13.13.23.13.3,0,.66-.32,1.06-.97.35-.56.65-1.1.91-1.61ZM242.66,216.01c-.07-.07-.1-.12-.1-.15,0-.04.04-.1.11-.17.24-.23.44-.48.59-.73.12-.2.18-.36.18-.47,0-.13-.06-.2-.18-.2-.21,0-.51.2-.9.6-.46.47-.83,1-1.08,1.59-.13.29-.19.52-.19.67,0,.09.02.15.06.2s.1.07.17.07c.17,0,.41-.18.72-.53.2-.22.36-.44.5-.66.09-.14.14-.21.13-.22Z"/><path class="cls-4" d="M245.67,216.92v.13c0,.11.03.2.08.28.12.18.32.27.6.27.61,0,1.32-.47,2.12-1.41.14-.16.26-.24.36-.24.05,0,.1.03.15.08.03.04.04.08.04.11,0,.19-.23.51-.7.97-.37.36-.76.65-1.17.87s-.8.34-1.16.34-.65-.13-.86-.38c-.14-.18-.21-.42-.21-.72,0-.83.39-1.63,1.16-2.42.63-.64,1.18-.97,1.65-.97.13,0,.24.04.34.12.13.1.19.24.19.4,0,.26-.12.58-.36.95-.49.78-1.24,1.32-2.23,1.62ZM245.83,216.35c.34-.12.61-.25.81-.4.34-.26.61-.56.81-.89.07-.12.11-.22.11-.31,0-.1-.05-.15-.14-.15-.13,0-.31.1-.54.29-.42.34-.77.83-1.05,1.46Z"/><path class="cls-1" d="M229.03,209.32c-1.45-6.36,1.45-5.65.8-15.33"/><path class="cls-4" d="M232.86,197.96c-.14.1-.32.06-.42-.07l-2.63-3.76-2.29,3.98c-.08.14-.27.19-.41.11-.14-.08-.19-.27-.11-.41l2.53-4.38c.05-.09.14-.15.25-.15.1,0,.2.04.26.13l2.9,4.15s.05.1.05.16c0,.1-.04.2-.13.26Z"/><path class="cls-1" d="M228.26,222.42c-1.82,6.36,1.43,8.05,1.52,15.58"/><path class="cls-4" d="M226.71,234.02c.14-.09.32-.06.42.08l2.61,3.77,2.31-3.96c.08-.14.27-.19.41-.11.14.08.19.27.11.41l-2.55,4.37c-.05.09-.15.14-.25.15-.1,0-.2-.04-.26-.13l-2.88-4.16s-.05-.1-.05-.16c0-.1.04-.2.13-.26Z"/><path class="cls-1" d="M327.47,260.18c-1.45-6.36-.07-7.62-.79-17.41"/><path class="cls-4" d="M329.71,246.75c-.14.1-.32.06-.42-.07l-2.63-3.76-2.29,3.98c-.08.14-.27.19-.41.11-.14-.08-.19-.27-.11-.41l2.53-4.38c.05-.09.14-.15.25-.15s.2.04.26.13l2.9,4.14s.05.1.05.16c0,.1-.04.2-.13.26Z"/><path class="cls-1" d="M328.09,271.22c2.81,6.27.18,8.58,1.39,15.59"/><path class="cls-4" d="M326.06,283.16c.13-.11.31-.09.42.03l3,3.47,1.88-4.19c.07-.15.25-.22.4-.15.15.07.22.25.15.4l-2.07,4.62c-.04.09-.13.16-.23.17-.1.01-.2-.02-.27-.1l-3.31-3.83s-.06-.1-.07-.15c-.01-.1.02-.2.1-.27Z"/><path class="cls-4" d="M60.15,285.69c.26.1.46.27.59.49.13.23.19.52.19.87,0,1.09-.42,2.25-1.27,3.47-.92,1.33-1.81,2-2.65,2-.42,0-.73-.22-.94-.65-.14-.28-.21-.62-.21-1.03,0-.97.35-1.99,1.06-3.06.37-.55.86-1.12,1.49-1.71.65-.61,1.13-.91,1.41-.91.22,0,.33.17.33.52ZM59.2,286.22c-.57.47-1.08,1.04-1.52,1.71-.63.97-.94,1.9-.94,2.81,0,.27.04.48.11.63.12.23.29.35.51.35.34,0,.74-.26,1.21-.78.52-.58.93-1.28,1.23-2.11.23-.63.34-1.16.34-1.6,0-.3-.09-.56-.28-.78-.13-.15-.3-.23-.51-.24h-.15Z"/><path class="cls-3" d="M438.98,93.61c-46.14,30.9-21.83,133.06-32.35,163.2-1.92,5.5-9.24,6.91-9.24,6.91,0,0,6.32,2.78,10.2,9.94,7.4,13.66,19.37,15.37,33.9,15.75"/><path class="cls-4" d="M433.98,93.57c0,.17.14.29.31.29l4.59-.16-1.79,4.23c-.06.15,0,.33.16.39.15.06.33,0,.39-.16l1.98-4.66c.04-.09.03-.2-.03-.29-.06-.08-.16-.13-.26-.13l-5.06.18c-.06,0-.11.02-.16.05-.08.06-.13.15-.13.26Z"/><path class="cls-4" d="M437.29,292.12c-.08-.14-.04-.33.11-.41l3.96-2.32-3.78-2.61c-.14-.09-.17-.28-.08-.42.09-.14.28-.17.42-.08l4.16,2.88c.08.06.13.16.13.26s-.06.2-.15.25l-4.37,2.56c-.05.03-.11.04-.16.04-.1,0-.19-.06-.25-.15Z"/><rect class="cls-7" x="462.65" y="93.73" width="230.9" height="195.7"/><rect class="cls-8" x="462.65" y="190.83" width="230.9" height="98.6"/><path class="cls-6" d="M693.56,191.33c.28,0,.5-.22.5-.5s-.22-.5-.5-.5h-231.01c-.28,0-.5.22-.5.5s.22.5.5.5h231.01"/><rect class="cls-5" x="462.65" y="240.13" width="230.9" height="49.3"/><path class="cls-6" d="M693.56,240.88c.28,0,.5-.22.5-.5s-.22-.5-.5-.5h-231.01c-.28,0-.5.22-.5.5s.22.5.5.5h231.01"/><line class="cls-2" x1="508.45" y1="91.23" x2="508.45" y2="289.43"/><path class="cls-4" d="M525.11,188.88c-.35.25-.7.46-1.05.63-.47.23-.78.35-.93.35-.16,0-.23-.13-.22-.38,0-.09.02-.16.07-.23.04-.06.14-.11.28-.16.45-.17,1.1-.51,1.95-1.01.39-.23.66-.34.82-.33.1,0,.19.06.27.16.05.07.08.14.07.22,0,.12-.11.33-.3.61-1.48,2.24-2.51,4-3.1,5.29-.14.31-.24.51-.3.58-.1.13-.19.19-.28.19s-.18-.06-.26-.18c-.05-.06-.07-.13-.07-.21,0-.26.41-1.12,1.21-2.57.75-1.36,1.36-2.35,1.84-2.97Z"/><path class="cls-4" d="M527.67,191.8c.15,0,.33.02.53.03.42.03.69.04.8.05.28,0,.47.05.56.11.09.06.13.17.12.33,0,.15-.05.26-.14.34-.05.04-.11.06-.18.06-.05,0-.13,0-.23-.02-.18-.02-.66-.05-1.43-.07-.47-.01-.83,0-1.06.05-.11.02-.2.03-.26.03-.13,0-.23-.07-.29-.2-.03-.06-.05-.14-.04-.22,0-.25.13-.4.37-.45.18-.04.6-.05,1.26-.03Z"/><path class="cls-4" d="M531.9,191.1c.43-.34.81-.5,1.14-.49.21,0,.37.1.5.27.12.16.17.33.17.53-.01.38-.15.84-.42,1.37-.3.59-.72,1.14-1.26,1.64-.45.42-.87.62-1.26.6-.15,0-.28-.04-.4-.09-.12-.06-.22-.14-.31-.25-.04.07-.07.11-.08.13-.09.18-.15.29-.18.32-.03.04-.08.06-.15.05-.09,0-.17-.06-.24-.16-.05-.07-.08-.14-.07-.22,0-.14.31-.82.91-2.05.84-1.71,1.8-3.41,2.89-5.1.44-.69.71-1.09.81-1.21.11-.14.2-.21.29-.21.11,0,.2.06.28.17.05.07.08.15.07.24,0,.1-.05.23-.15.38-.02.03-.18.28-.48.74-.93,1.34-1.61,2.45-2.04,3.32ZM530.57,194.23c.07.05.15.08.23.08.42.01.89-.34,1.38-1.06.23-.33.41-.65.55-.97.12-.29.18-.5.19-.65,0-.1-.02-.17-.06-.22-.04-.05-.11-.07-.2-.08-.22,0-.5.14-.83.44-.33.29-.65.72-.98,1.28-.15.27-.29.52-.4.76l-.1.19c.07.1.14.18.22.23Z"/><path class="cls-4" d="M535.91,190.68c.08,0,.15.04.2.1.04.05.06.11.05.16,0,.09-.08.23-.23.43-.53.77-.91,1.41-1.14,1.91-.25.52-.47,1.05-.66,1.59-.09.24-.21.36-.38.35-.1,0-.17-.04-.23-.12-.05-.07-.08-.13-.07-.21,0-.15.18-.63.51-1.45.26-.65.68-1.36,1.25-2.13.18-.25.32-.42.41-.51.09-.09.18-.13.28-.13ZM537.38,188.01c.22,0,.33.12.32.35,0,.21-.12.43-.34.67-.21.23-.41.35-.6.34-.09,0-.17-.04-.22-.11-.06-.07-.08-.14-.08-.24,0-.23.14-.48.41-.73.2-.19.37-.28.52-.28Z"/><path class="cls-4" d="M538.66,190.43c-.33.48-.64,1.03-.93,1.63-.41.86-.63,1.5-.64,1.93,0,.12.02.22.07.28.05.07.13.1.23.1.24,0,.55-.21.91-.66.23-.28.43-.55.61-.83.1-.16.2-.24.31-.23.06,0,.12.03.16.07.04.04.06.09.05.13,0,.18-.25.58-.75,1.19-.59.73-1.12,1.09-1.59,1.08-.25,0-.45-.13-.61-.36-.1-.15-.14-.36-.13-.63.02-.59.21-1.27.58-2.05.09-.19.33-.66.73-1.39-.13.03-.23.04-.3.04-.1,0-.19-.03-.27-.08-.1-.07-.16-.16-.15-.26,0-.12.08-.22.22-.29.04-.02.22-.04.54-.08.12-.02.29-.06.52-.12.18-.3.47-.71.87-1.23.22-.29.38-.47.46-.56.12-.12.23-.18.31-.17.06,0,.13.04.19.11.06.06.08.13.08.19,0,.13-.15.37-.43.74-.19.24-.33.43-.42.58.55-.13.94-.19,1.17-.18.27,0,.4.12.39.35,0,.11-.05.19-.15.24-.05.03-.18.05-.38.06-.08,0-.45.07-1.11.24-.18.05-.36.1-.54.15Z"/><line class="cls-2" x1="554.85" y1="91.23" x2="554.85" y2="289.43"/><line class="cls-2" x1="601.25" y1="91.23" x2="601.25" y2="289.43"/><line class="cls-2" x1="647.66" y1="91.23" x2="647.66" y2="289.43"/><path class="cls-4" d="M463.67,296.84c.26.1.46.27.59.49.13.23.19.52.19.87,0,1.09-.42,2.25-1.27,3.47-.92,1.33-1.81,2-2.65,2-.42,0-.73-.22-.94-.65-.14-.28-.21-.62-.21-1.03,0-.97.35-1.99,1.06-3.06.37-.55.86-1.12,1.49-1.71.65-.61,1.13-.91,1.41-.91.22,0,.33.17.33.52ZM462.71,297.36c-.57.47-1.08,1.04-1.52,1.71-.63.97-.94,1.9-.94,2.81,0,.27.04.48.11.63.12.23.29.35.51.35.34,0,.74-.26,1.21-.78.52-.58.93-1.28,1.23-2.11.23-.63.34-1.16.34-1.6,0-.3-.09-.56-.28-.78-.13-.15-.3-.23-.51-.24h-.15Z"/><path class="cls-4" d="M694.06,90.73h0s-231.51,0-231.51,0c-.28,0-.5.22-.5.5v199.2c0,.28.22.5.5.5h0s231.51,0,231.51,0c.28,0,.5-.22.5-.5V91.23c0-.28-.22-.5-.5-.5ZM463.05,287.93V93.73h230.51v194.2h-230.51Z"/><path class="cls-4" d="M447.64,90.5c.73-.27,1.26-.4,1.6-.4.4,0,.7.11.89.34.17.2.26.46.26.78,0,.83-.37,1.64-1.11,2.44-.68.74-1.38,1.11-2.09,1.11-.45,0-.81-.2-1.09-.59-.21-.3-.32-.65-.32-1.05,0-.87.34-1.77,1.01-2.69.58-.8,1.41-1.54,2.49-2.21.32-.21.56-.35.72-.42.15-.07.28-.11.4-.11.19,0,.28.08.28.24,0,.15-.1.27-.29.38-1.02.54-1.93,1.27-2.74,2.18ZM447.04,91.4c-.3.49-.45.98-.45,1.46,0,.32.07.59.22.82.15.23.35.35.59.35.34,0,.69-.16,1.05-.48s.65-.76.87-1.3c.14-.34.21-.64.21-.89,0-.19-.06-.33-.17-.45-.12-.13-.28-.19-.48-.19-.33,0-.73.11-1.2.33-.13.05-.27.13-.43.23-.12.07-.19.12-.2.13Z"/><path class="cls-4" d="M454.53,90.27c.24.1.42.22.52.34.15.18.23.43.23.75,0,.8-.33,1.56-1,2.29s-1.36,1.1-2.07,1.1c-.43,0-.79-.18-1.06-.54-.2-.26-.29-.55-.29-.86,0-.52.2-.78.6-.78.24,0,.36.09.36.27,0,.04,0,.09-.01.15-.01.08-.02.17-.02.25,0,.23.06.41.17.53.13.13.28.2.45.2.42,0,.86-.29,1.34-.87.45-.56.68-1.09.68-1.59,0-.25-.06-.45-.18-.6-.13-.16-.31-.23-.55-.23-.09,0-.19.01-.28.04-.11.03-.2.05-.26.05-.14,0-.21-.1-.21-.29,0-.17.06-.3.17-.41.06-.06.2-.12.4-.18.41-.1.75-.24,1.03-.42.18-.12.32-.27.43-.47.05-.1.08-.21.08-.32,0-.14-.04-.25-.11-.31-.08-.07-.19-.1-.35-.1-.26,0-.54.07-.82.21-.07.03-.25.13-.52.3-.07.05-.15.07-.24.07-.17,0-.25-.09-.25-.27,0-.16.12-.33.37-.51.57-.41,1.13-.61,1.68-.61.33,0,.6.1.83.3.24.21.36.47.36.77,0,.4-.17.77-.51,1.11-.19.2-.5.4-.94.62Z"/><path class="cls-4" d="M693.06,301.12c.06-.06.12-.12.18-.18,1.02-1,1.7-1.49,2.05-1.49.19,0,.29.1.29.31,0,.15-.09.32-.26.52-.93,1.09-1.4,2.05-1.4,2.88,0,.27.07.52.22.77.07.11.1.2.1.26,0,.06-.03.11-.09.17-.06.07-.14.1-.23.1-.2,0-.37-.13-.51-.38-.13-.24-.2-.53-.2-.87,0-.66.25-1.39.75-2.19-.66.42-1.28,1.18-1.85,2.26-.15.26-.3.39-.47.39-.08,0-.15-.03-.21-.09-.07-.07-.1-.16-.1-.26,0-.26.3-.95.9-2.07.32-.61.58-1.04.76-1.32.19-.27.34-.4.48-.4.06,0,.12.03.18.09.07.07.1.15.1.23,0,.11-.07.26-.21.46-.21.3-.37.57-.5.81Z"/><path class="cls-4" d="M509.06,53.01c.44.03.64.28.6.74-.03.4-.22.8-.57,1.18-.27.29-.49.43-.67.41-.15-.01-.22-.11-.21-.28,0-.09.04-.17.08-.22.02-.02.09-.08.21-.17.11-.09.22-.22.34-.4.08-.12.13-.22.13-.3,0-.09-.04-.14-.14-.14-.12,0-.3.07-.55.23-.4.26-.81.69-1.24,1.28-.44.62-.67,1.12-.7,1.49,0,.12.02.23.08.33.09.15.23.23.4.25.35.03.78-.15,1.28-.55.43-.34.8-.68,1.11-1.03.16-.19.29-.28.4-.28.06,0,.11.04.16.1.04.06.06.12.05.17-.02.2-.31.58-.88,1.13-.91.86-1.7,1.26-2.38,1.21-.41-.03-.71-.2-.9-.51-.14-.23-.19-.49-.17-.78.05-.57.34-1.22.87-1.94.52-.69,1.09-1.23,1.73-1.62.37-.23.69-.33.96-.31Z"/><path class="cls-4" d="M513.91,53.19c.45.04.66.33.61.88-.06.73-.47,1.64-1.24,2.71-.84,1.16-1.6,1.71-2.29,1.66-.32-.03-.54-.19-.67-.5-.07-.15-.09-.34-.07-.55.06-.71.36-1.45.91-2.24.51-.73,1.09-1.28,1.74-1.66.38-.22.71-.32,1.01-.29ZM512.8,56.25c-.13-.12-.19-.21-.19-.27,0-.04.1-.16.29-.34.54-.52.83-.95.85-1.29,0-.04,0-.09-.03-.14-.04-.09-.1-.13-.2-.14-.18-.01-.45.14-.82.45-.48.41-.85.83-1.12,1.28-.31.51-.48.95-.51,1.3,0,.09.01.18.05.25.06.1.15.16.26.17.26.02.56-.16.9-.53.15-.16.27-.32.36-.49.1-.17.14-.26.14-.26Z"/><path class="cls-4" d="M515.97,55.87c.08-.06.15-.12.22-.18,1.24-1.03,2.06-1.53,2.45-1.5.22.02.31.14.29.38-.01.17-.12.35-.34.56-1.15,1.14-1.77,2.19-1.84,3.12-.02.3.04.6.18.89.07.13.1.24.09.31,0,.07-.04.13-.11.18-.08.07-.17.1-.27.09-.23-.02-.4-.18-.54-.48-.13-.28-.18-.62-.14-1,.06-.74.41-1.55,1.04-2.41-.79.42-1.56,1.21-2.3,2.38-.19.28-.38.41-.56.4-.09,0-.17-.05-.22-.12-.07-.08-.1-.19-.09-.31.02-.3.43-1.05,1.21-2.26.42-.66.75-1.13.98-1.42.23-.29.43-.42.57-.41.07,0,.14.04.2.12.07.08.1.17.09.27,0,.12-.1.29-.28.5-.26.32-.47.61-.64.87Z"/><path class="cls-4" d="M522.81,53.74c.34.03.59.11.75.24.16.13.23.33.21.57-.03.33-.17.63-.44.91-.25.27-.62.47-1.1.61-.26.07-.48.1-.65.09-.23-.02-.34-.13-.32-.33.01-.14.09-.24.22-.3.03-.01.23-.04.57-.1.21-.03.4-.11.59-.24.16-.12.25-.25.26-.4,0-.12-.02-.2-.08-.26-.06-.06-.16-.1-.29-.11-.32-.03-.68.08-1.09.3-.47.26-.72.59-.75.99-.02.29.09.66.35,1.11.29.5.42.91.39,1.23-.04.49-.29.85-.74,1.09-.28.15-.59.21-.92.18-.53-.04-.92-.27-1.16-.67-.17-.29-.24-.61-.21-.98.03-.43.17-.78.42-1.06.16-.18.32-.27.47-.25.14.01.2.07.19.18,0,.04-.03.11-.09.19-.15.23-.23.5-.26.82-.02.27.06.51.23.71.16.18.35.28.57.3.22.02.39-.04.52-.17.11-.11.17-.26.19-.45.02-.23-.09-.54-.32-.93-.32-.54-.47-1.01-.44-1.43.04-.55.38-1.02,1.02-1.39.62-.36,1.25-.52,1.9-.46Z"/><path class="cls-4" d="M526.34,54.2c-.4.53-.78,1.12-1.14,1.79-.51.95-.79,1.66-.83,2.15-.01.14,0,.25.06.32.05.08.14.12.25.13.28.02.63-.21,1.06-.7.27-.3.52-.6.74-.91.12-.17.24-.26.36-.25.07,0,.13.04.18.09.04.05.06.1.05.15-.02.2-.32.64-.91,1.3-.71.8-1.33,1.18-1.86,1.13-.28-.02-.51-.17-.67-.45-.1-.17-.14-.41-.12-.72.05-.67.31-1.43.77-2.29.11-.21.41-.72.91-1.53-.15.03-.27.04-.34.03-.12,0-.22-.04-.3-.11-.11-.09-.17-.19-.16-.3.01-.14.1-.24.27-.31.05-.02.25-.04.62-.06.13-.01.33-.05.59-.11.22-.33.57-.78,1.06-1.34.27-.31.45-.51.56-.6.14-.13.27-.19.36-.18.07,0,.14.05.21.13.06.08.09.15.08.22-.01.14-.19.41-.53.81-.23.26-.4.47-.51.63.63-.12,1.07-.16,1.34-.14.3.02.44.16.42.42-.01.13-.07.22-.18.27-.06.03-.2.04-.44.05-.09-.01-.52.06-1.27.21-.21.04-.42.09-.62.14Z"/><path class="cls-4" d="M529.57,58.44c-.21.3-.41.56-.6.77-.38.4-.74.59-1.09.56-.3-.02-.52-.18-.66-.48-.09-.19-.13-.41-.11-.66.05-.61.3-1.27.74-1.98.5-.79,1.07-1.38,1.71-1.77.42-.25.82-.37,1.18-.34.23.02.42.11.56.26.12.14.18.29.16.45,0,.12-.07.29-.18.49.07.12.11.23.1.32,0,.12-.1.3-.28.55-.18.26-.37.6-.57,1.04-.21.46-.33.83-.35,1.12-.02.23.03.43.16.59.04.04.14.11.32.22.13.08.19.2.18.36,0,.11-.05.19-.14.25-.09.06-.19.09-.3.08-.3-.02-.54-.18-.74-.46-.16-.23-.23-.51-.2-.83,0-.11.03-.29.08-.54ZM530.82,55.8c-.06-.13-.12-.22-.19-.29-.07-.06-.15-.1-.24-.11-.42-.03-.9.3-1.45.99-.61.77-.93,1.43-.98,2-.01.14,0,.25.05.32.05.08.12.12.23.13.26.02.6-.24.99-.77.22-.29.51-.73.85-1.31.22-.38.39-.62.48-.74.05-.06.14-.14.26-.22Z"/><path class="cls-4" d="M533.17,57.25c.08-.06.15-.12.22-.18,1.24-1.03,2.06-1.53,2.45-1.5.22.02.31.14.29.38-.01.17-.12.35-.34.56-1.15,1.14-1.77,2.19-1.84,3.12-.02.3.04.6.18.89.07.13.1.24.09.31,0,.07-.04.13-.11.18-.08.07-.17.1-.27.1-.23-.02-.4-.18-.54-.48-.13-.28-.17-.62-.14-1,.06-.75.41-1.55,1.04-2.41-.79.42-1.55,1.21-2.3,2.38-.19.28-.38.41-.56.4-.09,0-.17-.05-.22-.12-.07-.08-.1-.19-.09-.31.02-.3.43-1.05,1.21-2.26.42-.65.75-1.13.98-1.42.23-.29.43-.42.57-.41.07,0,.14.04.2.12.07.08.1.17.09.27,0,.12-.1.29-.28.5-.26.32-.47.61-.64.87Z"/><path class="cls-4" d="M539.22,55.23c-.4.53-.78,1.12-1.14,1.79-.51.95-.79,1.66-.83,2.15-.01.14,0,.25.06.32.05.08.14.12.25.13.28.02.63-.21,1.06-.7.27-.3.52-.6.74-.91.12-.17.24-.26.36-.25.07,0,.13.04.18.09.04.05.06.1.05.15-.02.2-.32.64-.91,1.3-.71.8-1.33,1.18-1.86,1.13-.28-.02-.51-.17-.67-.45-.1-.17-.14-.41-.12-.72.05-.67.31-1.43.77-2.29.11-.21.41-.72.91-1.53-.15.03-.27.04-.34.03-.12,0-.22-.04-.3-.11-.11-.09-.17-.19-.16-.3.01-.14.1-.24.27-.31.05-.02.25-.04.62-.06.13-.01.33-.05.59-.11.22-.33.57-.78,1.06-1.34.27-.31.46-.51.56-.6.14-.13.26-.19.36-.18.07,0,.14.05.21.13.06.08.09.15.08.22-.01.14-.19.42-.53.82-.23.26-.4.47-.51.63.63-.12,1.07-.16,1.34-.14.3.02.44.16.42.42-.01.13-.07.22-.18.27-.06.03-.2.04-.44.05-.09-.01-.52.06-1.27.21-.21.04-.42.09-.62.14Z"/><path class="cls-4" d="M548.38,55.8c.34.03.59.11.75.24s.23.33.21.58c-.03.33-.17.63-.44.91-.25.27-.62.47-1.1.61-.26.07-.48.1-.65.09-.23-.02-.34-.13-.32-.33.01-.14.09-.24.22-.3.03-.01.23-.05.57-.1.21-.03.4-.11.59-.24.16-.12.24-.25.26-.4,0-.12-.02-.2-.08-.26-.06-.06-.16-.1-.29-.11-.32-.03-.68.08-1.09.3-.47.26-.72.59-.75.99-.02.29.09.66.35,1.11.29.49.42.9.39,1.23-.04.49-.28.85-.74,1.09-.28.15-.59.21-.92.18-.53-.04-.92-.26-1.16-.67-.17-.29-.24-.61-.21-.98.03-.43.17-.78.42-1.06.16-.18.32-.27.47-.25.14.01.2.07.19.18,0,.04-.03.11-.09.19-.15.23-.23.5-.26.82-.02.27.06.51.23.71.16.18.35.28.57.3.22.02.39-.04.52-.17.11-.11.17-.26.19-.45.02-.23-.09-.54-.33-.93-.32-.54-.47-1.01-.43-1.43.04-.55.38-1.01,1.02-1.39.62-.36,1.25-.52,1.9-.46Z"/><path class="cls-4" d="M550.74,58.11c.44-.39.88-.72,1.31-.97.55-.32.94-.47,1.17-.46.09,0,.18.05.26.14.09.1.13.2.12.32-.01.15-.15.37-.41.67-.51.57-.9,1.09-1.18,1.57-.24.41-.37.7-.39.85-.01.15.05.23.2.24.3.02.84-.46,1.63-1.47.16-.2.3-.3.41-.29.12,0,.17.08.16.21-.02.21-.26.61-.73,1.18-.41.5-.82.88-1.24,1.12-.3.17-.56.25-.78.23-.24-.02-.4-.13-.49-.35-.06-.13-.08-.28-.07-.43.04-.49.26-1.04.66-1.64.09-.14.38-.55.85-1.21-1.17.48-2.22,1.63-3.15,3.45-.09.21-.21.31-.36.3-.1,0-.19-.05-.25-.13-.06-.08-.08-.18-.08-.29.01-.18.23-.68.65-1.5.78-1.53,1.5-2.81,2.16-3.86.66-1.06,1.38-2.15,2.17-3.28.19-.27.33-.46.44-.55.1-.09.21-.13.31-.12.1,0,.18.07.24.18.05.08.07.17.06.27-.01.15-.12.35-.31.6-.67.87-1.34,1.84-2.02,2.89-.73,1.13-1.18,1.9-1.36,2.32Z"/><path class="cls-4" d="M555.47,59.16c.59-.54,1.26-1.05,2.01-1.55.27-.18.56-.34.86-.49.15-.07.24-.11.28-.1.08,0,.16.07.23.2.04.07.06.13.06.19,0,.1-.12.23-.35.38-.6.4-.91.71-.93.94,0,.13.06.2.2.21.24.02.66-.14,1.27-.49.1-.06.19-.08.26-.08.04,0,.09.03.13.08.05.05.07.11.06.16-.01.17-.27.4-.76.71-.51.33-.99.47-1.43.44-.18-.01-.34-.07-.48-.18-.12-.09-.17-.23-.16-.43.01-.14.08-.29.21-.46-.46.27-1.02.76-1.67,1.46-.38.44-.76.98-1.16,1.63-.15.24-.31.36-.5.34-.2-.02-.3-.12-.28-.31.02-.19.22-.68.6-1.47.57-1.18,1.14-2.08,1.72-2.7.35-.39.64-.57.85-.56.07,0,.14.03.19.08.07.06.1.13.09.21,0,.08-.07.19-.19.33-.02.03-.19.2-.48.52-.27.31-.49.61-.65.92Z"/><path class="cls-4" d="M561.49,57.39c.09,0,.17.05.22.13.04.06.06.13.05.19,0,.1-.1.26-.28.48-.65.84-1.11,1.54-1.4,2.09-.31.57-.58,1.16-.83,1.76-.11.27-.26.4-.45.38-.11,0-.19-.06-.25-.15-.05-.08-.08-.16-.07-.24.01-.17.23-.7.66-1.61.34-.72.85-1.5,1.54-2.34.22-.28.39-.46.49-.55.11-.1.21-.14.32-.13ZM563.31,54.45c.25.02.36.16.34.41-.02.23-.16.48-.43.74-.25.25-.49.37-.7.35-.1,0-.19-.05-.25-.14-.06-.08-.09-.17-.08-.27.02-.26.19-.53.51-.81.23-.2.43-.3.61-.28Z"/><path class="cls-4" d="M562.92,59.64c.08-.06.15-.12.22-.18,1.24-1.03,2.06-1.53,2.45-1.5.22.02.31.14.29.38-.01.17-.12.35-.34.56-1.15,1.14-1.77,2.19-1.84,3.12-.02.3.03.6.18.89.07.13.1.24.09.31,0,.07-.04.13-.11.18-.08.07-.17.1-.27.1-.23-.02-.41-.18-.54-.48-.13-.28-.18-.62-.14-1,.06-.75.41-1.55,1.04-2.41-.79.42-1.55,1.21-2.3,2.38-.19.28-.38.41-.56.4-.09,0-.17-.05-.22-.12-.07-.08-.1-.19-.09-.31.02-.3.43-1.05,1.21-2.26.42-.65.75-1.13.98-1.42.23-.29.43-.42.57-.41.07,0,.14.04.2.12.07.08.1.17.09.27,0,.12-.1.29-.28.5-.26.32-.47.61-.64.87Z"/><path class="cls-4" d="M569.2,59.44c-.43.86-.66,1.52-.7,1.98-.02.23.01.42.09.57.1.2.23.3.42.32.38.03.83-.19,1.36-.65.35-.29.65-.6.9-.91.16-.21.31-.31.43-.3.13,0,.19.08.17.21-.02.21-.31.62-.86,1.23-.83.9-1.59,1.33-2.3,1.27-.42-.03-.71-.26-.85-.69-.11-.31-.15-.64-.12-.98.02-.28.12-.69.3-1.23-.38.27-.98.95-1.81,2.05-.22.3-.41.44-.57.43-.08,0-.15-.05-.21-.12-.05-.08-.08-.16-.07-.24.02-.22.37-.93,1.05-2.14,1.2-2.11,2.44-3.86,3.72-5.26.69-.77,1.31-1.32,1.84-1.65.48-.31.86-.45,1.13-.43.12,0,.22.07.31.17.11.13.16.29.15.46-.04.47-.33,1.05-.88,1.74-.57.71-1.52,1.56-2.83,2.53-.74.54-1.4.96-1.97,1.26-.08.14-.32.54-.71,1.21.75-.69,1.34-1.16,1.76-1.41.27-.16.64-.31,1.1-.47.31-.1.53-.15.66-.14.07,0,.13.04.18.1.06.05.08.12.07.21-.01.18-.15.3-.4.35-.43.09-.88.27-1.34.53ZM568.6,57.96c.95-.52,1.86-1.21,2.71-2.07.43-.43.78-.84,1.05-1.25.19-.28.29-.49.3-.62.01-.13-.04-.19-.16-.2-.31-.02-.88.41-1.71,1.29-.69.74-1.42,1.69-2.19,2.85Z"/><path class="cls-4" d="M577.51,60.93c.59-.54,1.26-1.05,2.01-1.55.27-.18.56-.34.86-.49.15-.07.24-.11.28-.1.08,0,.16.07.23.2.04.07.06.13.06.19,0,.1-.12.23-.35.38-.6.4-.91.72-.92.94,0,.13.06.2.2.21.24.02.66-.14,1.27-.49.1-.06.19-.08.26-.08.04,0,.09.03.13.08.05.05.07.11.06.16-.01.17-.27.4-.76.71-.51.33-.99.47-1.43.44-.18-.01-.34-.07-.48-.18-.12-.09-.17-.23-.16-.43.01-.14.08-.29.21-.46-.46.27-1.02.76-1.67,1.46-.38.44-.76.98-1.16,1.63-.15.24-.31.36-.5.34-.2-.02-.3-.12-.28-.31.02-.19.22-.68.6-1.47.57-1.18,1.14-2.08,1.72-2.7.35-.39.64-.57.85-.56.07,0,.14.03.19.08.07.06.1.13.09.22,0,.08-.07.19-.19.33-.02.03-.19.2-.48.52-.27.31-.49.61-.65.92Z"/><path class="cls-4" d="M583.5,62.78c-.21.3-.41.56-.6.77-.38.4-.74.59-1.09.56-.3-.02-.52-.18-.66-.48-.09-.19-.13-.41-.11-.66.05-.61.3-1.27.74-1.98.5-.79,1.07-1.38,1.71-1.77.42-.25.82-.37,1.18-.34.23.02.42.11.56.26.12.14.18.29.16.45,0,.12-.07.29-.18.49.07.12.11.23.1.32,0,.12-.1.3-.28.55-.18.26-.37.6-.57,1.04-.21.46-.33.83-.35,1.12-.02.23.03.43.16.59.04.04.14.11.32.22.13.08.19.2.18.36,0,.11-.05.19-.14.25-.09.06-.19.09-.3.08-.3-.02-.54-.18-.74-.46-.16-.23-.23-.51-.2-.83,0-.11.03-.29.08-.54ZM584.76,60.14c-.06-.13-.12-.22-.19-.29-.07-.06-.15-.1-.24-.11-.42-.03-.9.3-1.45.99-.61.77-.93,1.43-.98,2-.01.14,0,.25.05.32.05.08.12.12.23.13.26.02.6-.24.99-.77.22-.29.51-.73.85-1.31.22-.38.39-.62.48-.74.05-.06.14-.14.26-.22Z"/><path class="cls-4" d="M588.8,59.21c-.4.53-.78,1.12-1.14,1.79-.51.95-.79,1.66-.83,2.15-.01.14,0,.25.06.32.05.08.14.12.25.13.28.02.63-.21,1.06-.7.27-.3.52-.6.74-.91.12-.17.24-.26.36-.25.07,0,.13.04.18.09.04.05.06.1.05.15-.02.2-.32.64-.91,1.3-.71.8-1.33,1.18-1.86,1.13-.28-.02-.51-.17-.67-.45-.1-.17-.14-.41-.12-.72.05-.67.31-1.43.77-2.29.11-.21.41-.72.91-1.53-.15.03-.27.04-.34.03-.12,0-.22-.04-.3-.11-.11-.09-.17-.19-.16-.3.01-.14.1-.24.27-.31.05-.02.25-.04.62-.06.13-.01.33-.05.59-.11.22-.33.57-.78,1.06-1.34.27-.31.46-.51.56-.6.14-.13.26-.19.36-.18.07,0,.14.05.21.13.06.08.09.15.08.22-.01.14-.19.41-.53.81-.23.26-.4.47-.51.63.63-.12,1.07-.16,1.34-.14.3.02.44.16.42.42-.01.13-.07.22-.18.27-.06.03-.2.04-.44.05-.09-.01-.52.06-1.27.21-.21.04-.42.09-.62.14Z"/><path class="cls-4" d="M590.26,63.09v.15c-.02.12,0,.23.05.32.12.21.34.33.65.36.69.06,1.53-.41,2.52-1.4.17-.17.32-.25.43-.24.06,0,.11.04.16.1.03.05.04.09.04.13-.02.21-.31.56-.88,1.03-.45.37-.91.66-1.4.88-.49.22-.94.31-1.34.28-.41-.03-.73-.2-.94-.51-.14-.21-.2-.49-.18-.83.07-.93.59-1.81,1.54-2.63.77-.67,1.42-.99,1.95-.94.14.01.27.07.38.16.13.13.19.29.18.47-.02.29-.19.64-.49,1.04-.63.84-1.52,1.38-2.66,1.63ZM590.49,62.46c.4-.1.71-.23.95-.37.41-.27.74-.58,1-.94.09-.13.14-.24.15-.35,0-.11-.04-.17-.14-.18-.14-.01-.36.08-.64.27-.5.34-.94.86-1.32,1.56Z"/><path class="cls-4" d="M598.37,59.82c.34.03.59.11.75.24.16.13.23.33.21.58-.03.33-.17.63-.44.91-.25.27-.62.47-1.1.61-.26.07-.48.1-.65.09-.23-.02-.34-.13-.32-.33.01-.14.09-.24.22-.3.03-.01.23-.05.57-.1.21-.03.4-.11.59-.24.16-.12.25-.25.26-.4,0-.12-.02-.21-.08-.26-.06-.06-.16-.1-.29-.11-.32-.03-.68.08-1.09.3-.47.26-.72.59-.75.99-.02.29.09.66.35,1.11.29.5.42.9.39,1.23-.04.49-.29.85-.74,1.09-.28.15-.59.21-.92.18-.53-.04-.92-.27-1.16-.67-.17-.29-.24-.61-.21-.98.03-.43.17-.78.42-1.06.16-.18.32-.27.47-.25.14.01.2.07.19.18,0,.04-.03.11-.09.19-.15.23-.23.5-.26.82-.02.27.06.51.23.71.16.18.35.28.57.3.22.02.39-.04.52-.17.11-.11.17-.26.19-.45.02-.23-.09-.54-.32-.93-.32-.54-.47-1.01-.44-1.43.04-.55.38-1.01,1.02-1.39.62-.36,1.25-.52,1.9-.46Z"/><path class="cls-4" d="M449.41,189.38c.24.1.42.22.52.34.15.18.23.43.23.75,0,.8-.33,1.56-1,2.29s-1.36,1.1-2.07,1.1c-.43,0-.79-.18-1.06-.54-.2-.26-.29-.55-.29-.86,0-.52.2-.78.6-.78.24,0,.36.09.36.27,0,.04,0,.09-.01.15-.01.08-.02.17-.02.25,0,.23.06.41.17.53.13.13.28.2.45.2.42,0,.86-.29,1.34-.87.45-.56.68-1.09.68-1.59,0-.25-.06-.45-.18-.6-.13-.16-.31-.23-.55-.23-.09,0-.19.01-.28.04-.11.03-.2.05-.26.05-.14,0-.21-.1-.21-.29,0-.17.06-.3.17-.41.06-.06.2-.12.4-.18.41-.1.75-.24,1.03-.42.18-.12.32-.27.43-.47.05-.1.08-.21.08-.32,0-.14-.04-.25-.11-.31-.08-.07-.19-.1-.35-.1-.26,0-.54.07-.82.21-.07.03-.25.13-.52.3-.07.05-.15.07-.24.07-.17,0-.25-.09-.25-.27,0-.16.12-.33.37-.51.57-.41,1.13-.61,1.68-.61.33,0,.6.1.83.3.24.21.36.47.36.77,0,.4-.17.77-.51,1.11-.19.2-.5.4-.94.62Z"/><path class="cls-4" d="M454.74,187.7c-.34.26-.68.48-1.03.66-.46.25-.77.37-.92.37-.16,0-.23-.12-.23-.37,0-.09.02-.16.06-.23.04-.06.13-.11.28-.17.44-.19,1.08-.54,1.92-1.07.38-.24.65-.36.81-.36.1,0,.2.05.28.15.05.07.08.14.08.22,0,.12-.1.33-.29.62-1.41,2.29-2.39,4.08-2.93,5.38-.13.32-.23.52-.29.59-.09.13-.19.2-.28.2s-.18-.06-.26-.17c-.05-.06-.07-.13-.07-.21,0-.26.38-1.13,1.13-2.61.7-1.39,1.28-2.4,1.74-3.02Z"/><path class="cls-4" d="M449.61,237.25c-.34.26-.68.48-1.03.66-.46.25-.77.37-.92.37-.16,0-.23-.12-.23-.37,0-.09.02-.16.06-.23.04-.06.13-.11.28-.17.44-.19,1.08-.54,1.92-1.07.38-.24.65-.36.81-.36.1,0,.2.05.28.15.05.07.08.14.08.22,0,.12-.1.33-.29.62-1.41,2.29-2.39,4.08-2.93,5.38-.13.32-.23.52-.29.59-.09.13-.19.2-.28.2s-.18-.06-.26-.17c-.05-.06-.07-.13-.07-.21,0-.26.38-1.13,1.13-2.61.7-1.39,1.28-2.4,1.74-3.02Z"/><path class="cls-4" d="M454.52,236.99c-.83.72-1.36,1.33-1.59,1.85.48-.2.9-.29,1.24-.29.4,0,.71.12.93.35.21.22.31.51.31.86,0,.81-.38,1.62-1.15,2.44-.76.82-1.5,1.22-2.23,1.22-.42,0-.75-.2-.98-.59-.15-.26-.23-.56-.23-.89s.07-.61.22-.83c.12-.18.28-.27.47-.27.18,0,.26.07.26.2,0,.03-.01.09-.04.17-.05.14-.07.33-.07.57,0,.21.05.39.15.55.13.22.31.33.53.33.44,0,.9-.28,1.38-.83.53-.61.79-1.21.79-1.81,0-.25-.06-.44-.17-.56-.11-.12-.28-.19-.51-.19s-.5.06-.82.18c-.07.02-.25.11-.53.26-.06.03-.11.05-.16.05-.09,0-.19-.06-.28-.18-.1-.13-.15-.25-.15-.36,0-.21.21-.59.64-1.16.27-.37.6-.74,1-1.11-.11-.15-.16-.26-.16-.34,0-.11.08-.19.23-.24.07-.02.35-.07.83-.13.54-.07.98-.11,1.32-.11s.55.02.7.07c.18.05.26.17.26.35,0,.22-.11.34-.34.34-.05,0-.15,0-.29-.01-.05,0-.1,0-.17,0-.23,0-.46.01-.69.03-.23.02-.45.05-.68.1Z"/><path class="cls-4" d="M621.18,265.05c.25.09.43.19.54.31.16.17.25.42.27.74.05.79-.25,1.58-.87,2.35-.63.77-1.29,1.17-2,1.21-.43.02-.8-.14-1.09-.48-.21-.25-.32-.53-.34-.85-.03-.52.16-.79.56-.81.24-.01.36.07.37.25,0,.04,0,.09,0,.15-.01.08-.01.17,0,.25.01.23.08.4.2.52.13.12.29.18.46.17.41-.02.84-.34,1.29-.95.42-.58.62-1.12.59-1.63-.01-.25-.09-.45-.22-.59-.14-.15-.33-.22-.56-.2-.09,0-.18.03-.28.06-.11.04-.2.06-.25.07-.14,0-.22-.08-.23-.27,0-.17.04-.31.14-.42.06-.07.19-.13.39-.2.4-.12.73-.29,1.01-.48.17-.13.31-.29.41-.49.05-.1.07-.21.06-.33,0-.14-.05-.24-.13-.31-.08-.06-.2-.09-.35-.08-.26.01-.53.1-.81.25-.07.04-.24.15-.5.33-.07.05-.15.08-.24.09-.17,0-.25-.08-.26-.26,0-.16.1-.34.34-.53.55-.44,1.09-.67,1.64-.7.33-.02.61.07.84.25.25.2.38.45.4.75.02.4-.13.77-.45,1.14-.17.21-.48.43-.91.68Z"/><path class="cls-4" d="M624.11,266.04c.15,0,.33-.01.53-.02.42,0,.69-.02.8-.02.28-.02.47,0,.57.06.09.05.14.16.15.31,0,.15-.03.26-.1.35-.05.05-.1.07-.17.08-.05,0-.13,0-.23,0-.18,0-.66,0-1.44.05-.47.03-.82.07-1.06.14-.11.03-.2.05-.25.05-.13,0-.24-.05-.31-.17-.04-.06-.06-.13-.06-.22-.01-.25.09-.41.33-.48.17-.05.59-.1,1.25-.14Z"/><path class="cls-4" d="M628.26,264.97c.39-.38.76-.57,1.09-.59.21-.01.38.06.52.23.13.14.2.32.21.52.02.38-.08.85-.29,1.4-.24.62-.61,1.2-1.11,1.74-.41.45-.81.69-1.21.71-.15,0-.28-.01-.4-.06-.12-.05-.23-.12-.33-.22-.03.07-.06.12-.07.14-.07.19-.12.3-.15.34-.03.04-.08.06-.15.07-.09,0-.17-.04-.26-.14-.06-.07-.09-.14-.09-.21,0-.14.23-.84.72-2.12.69-1.78,1.5-3.56,2.43-5.33.38-.73.61-1.15.7-1.28.09-.15.18-.23.27-.24.11,0,.21.04.29.15.06.07.09.14.09.24,0,.1-.03.23-.12.4-.02.04-.16.29-.42.78-.8,1.42-1.38,2.58-1.74,3.49ZM627.21,268.21c.08.04.16.06.24.06.42-.02.85-.42,1.28-1.18.2-.34.35-.68.46-1.02.1-.3.14-.52.13-.66,0-.1-.03-.17-.08-.21-.05-.04-.12-.06-.21-.06-.22.01-.49.18-.79.51-.3.32-.59.77-.86,1.36-.13.28-.24.54-.34.79l-.08.2c.08.09.16.16.24.21Z"/><path class="cls-4" d="M632.21,264.2c.08,0,.15.02.21.08.04.05.06.1.07.16,0,.09-.06.24-.19.45-.46.81-.79,1.48-.97,2-.2.54-.37,1.08-.52,1.64-.06.25-.18.38-.34.39-.1,0-.18-.03-.24-.1-.06-.06-.09-.13-.09-.2,0-.15.12-.64.38-1.49.21-.67.56-1.41,1.06-2.23.16-.27.28-.45.36-.54.08-.1.17-.15.26-.15ZM633.45,261.41c.22-.01.34.09.35.32.01.2-.08.44-.28.7-.19.25-.38.38-.57.39-.09,0-.17-.02-.23-.09-.06-.06-.1-.14-.1-.23-.01-.23.1-.49.34-.77.18-.21.34-.31.5-.32Z"/><path class="cls-4" d="M634.93,263.72c-.29.51-.55,1.08-.78,1.7-.33.89-.49,1.55-.47,1.98,0,.12.04.21.09.27.06.06.13.09.24.08.24-.01.53-.26.84-.74.2-.3.38-.59.54-.88.08-.17.18-.25.29-.26.06,0,.12.02.17.06.04.04.06.08.07.13.01.18-.2.6-.64,1.25-.52.78-1.02,1.19-1.49,1.21-.25.01-.46-.09-.64-.31-.11-.14-.17-.34-.19-.61-.03-.59.1-1.29.39-2.09.07-.2.27-.68.61-1.45-.13.04-.23.06-.3.07-.1,0-.19-.01-.27-.06-.11-.06-.17-.14-.18-.25,0-.12.06-.22.2-.3.04-.02.22-.06.54-.13.12-.03.28-.08.5-.17.15-.32.41-.75.76-1.3.2-.3.34-.5.41-.6.11-.13.21-.2.3-.2.06,0,.13.03.2.09.06.06.1.12.1.18,0,.13-.12.39-.37.78-.17.25-.29.46-.37.62.53-.18.92-.27,1.15-.29.27-.02.41.09.42.31,0,.11-.04.2-.12.26-.05.03-.17.06-.38.09-.08,0-.45.11-1.09.34-.18.06-.35.13-.52.2Z"/><path class="cls-1" d="M529.48,184.61c-1.46-6.41,4.39-71.75.2-87.77"/><path class="cls-4" d="M533.48,100.1c-.11.12-.3.13-.42.02l-3.36-3.13-1.41,4.37c-.05.16-.22.24-.38.19-.16-.05-.24-.22-.19-.38l1.56-4.82c.03-.1.11-.17.21-.2s.2,0,.28.07l3.7,3.45s.07.09.09.14c.02.1,0,.2-.07.28Z"/><path class="cls-1" d="M527.38,198.54c-1.45,16.37,4.58,72.21,3.87,87.61"/><path class="cls-4" d="M528.36,282.03c.14-.09.33-.05.41.09l2.44,3.89,2.49-3.86c.09-.14.28-.18.41-.09.14.09.18.28.09.41l-2.75,4.25c-.06.09-.15.14-.25.14s-.2-.05-.25-.14l-2.69-4.29c-.03-.05-.05-.11-.05-.16,0-.1.05-.2.14-.25Z"/><path class="cls-4" d="M564.65,242.52c.82-.26,1.57-.39,2.26-.39.27,0,.49.06.65.17.15.1.22.22.22.36,0,.09-.03.18-.1.25s-.15.11-.23.11c-.03,0-.07,0-.13-.02-.25-.07-.48-.1-.69-.1-.18,0-.4.02-.67.05-.09.01-.43.1-1.02.26-.53.14-.84.21-.94.21-.14,0-.26-.07-.36-.2-.09-.12-.14-.25-.14-.38,0-.15.13-.34.38-.59.48-.47.94-.89,1.38-1.27.42-.35.94-.76,1.56-1.22.71-.52,1.2-.9,1.46-1.14.4-.35.6-.7.6-1.05,0-.2-.06-.35-.19-.46-.11-.1-.25-.15-.42-.15-.44,0-.96.25-1.55.74-.27.22-.44.34-.51.34-.05,0-.1-.03-.17-.09-.07-.06-.1-.13-.1-.21,0-.18.21-.42.64-.75.68-.52,1.34-.78,1.96-.78.36,0,.65.11.89.34.23.22.34.49.34.8,0,.55-.28,1.09-.83,1.63-.24.23-.68.59-1.32,1.05-1.54,1.12-2.53,1.95-2.97,2.48Z"/><path class="cls-4" d="M570.81,240.08c.15,0,.33,0,.53.01.42.01.69.02.8.02.28,0,.47.03.56.1.09.06.13.17.13.32,0,.15-.04.26-.12.34-.05.04-.11.07-.18.07-.05,0-.13,0-.23-.01-.18-.02-.66-.03-1.44-.03-.47,0-.83.03-1.06.08-.11.02-.2.04-.26.04-.13,0-.23-.06-.3-.19-.03-.06-.05-.14-.05-.22,0-.25.12-.41.35-.46.18-.04.6-.07,1.26-.07Z"/><path class="cls-4" d="M575.01,239.25c.42-.35.79-.53,1.12-.53.21,0,.37.09.51.26.12.15.18.33.18.53,0,.38-.12.84-.37,1.38-.28.6-.68,1.16-1.21,1.68-.43.43-.85.64-1.25.64-.15,0-.28-.03-.4-.08s-.23-.13-.32-.24c-.04.07-.06.11-.07.13-.08.18-.14.29-.17.33s-.08.06-.15.06c-.09,0-.17-.05-.25-.15-.05-.07-.08-.14-.08-.22,0-.14.28-.83.84-2.07.79-1.74,1.7-3.47,2.73-5.19.42-.7.68-1.12.77-1.24.1-.15.2-.22.29-.22.11,0,.2.05.29.16.05.07.08.15.08.24,0,.1-.05.23-.14.39-.02.03-.17.29-.46.75-.88,1.37-1.53,2.5-1.93,3.38ZM573.78,242.42c.08.05.15.07.24.07.42,0,.87-.37,1.35-1.11.22-.33.39-.66.52-.99.11-.29.17-.51.17-.65,0-.1-.02-.17-.07-.22-.04-.05-.11-.07-.21-.07-.22,0-.5.15-.81.46-.32.3-.63.74-.94,1.31-.15.27-.27.53-.38.77l-.1.2c.07.1.15.17.22.22Z"/><path class="cls-4" d="M579,238.71c.08,0,.15.03.21.1.04.05.06.11.06.16,0,.09-.07.23-.21.44-.51.79-.87,1.43-1.08,1.94-.23.52-.43,1.06-.61,1.61-.08.24-.2.37-.37.37-.1,0-.18-.04-.23-.12-.05-.06-.08-.13-.08-.21,0-.15.16-.63.47-1.46.24-.65.64-1.38,1.19-2.17.18-.26.31-.43.4-.52.09-.09.18-.14.27-.14ZM580.39,235.99c.22,0,.33.11.33.34,0,.21-.11.43-.32.68-.21.24-.4.36-.59.36-.09,0-.17-.03-.23-.1-.06-.06-.09-.14-.09-.23,0-.23.13-.48.39-.75.19-.2.36-.29.51-.29Z"/><path class="cls-4" d="M581.74,238.38c-.32.49-.61,1.04-.88,1.66-.39.87-.58,1.52-.58,1.95,0,.12.03.21.08.28.05.06.13.1.23.1.24,0,.54-.23.89-.69.22-.28.42-.57.59-.85.09-.16.19-.24.3-.24.06,0,.12.02.16.07.04.04.06.09.06.13,0,.18-.24.58-.71,1.21-.57.75-1.08,1.13-1.55,1.13-.25,0-.46-.11-.62-.34-.1-.15-.15-.35-.15-.62,0-.59.17-1.28.51-2.07.08-.2.31-.67.69-1.41-.13.03-.23.05-.3.05-.1,0-.19-.02-.27-.07-.11-.07-.16-.15-.16-.26,0-.12.07-.22.21-.29.04-.02.22-.05.54-.1.12-.02.29-.07.51-.14.17-.31.45-.73.83-1.25.21-.29.36-.48.45-.57.12-.12.22-.18.31-.18.06,0,.13.03.19.1.06.06.09.13.09.19,0,.13-.14.38-.41.75-.18.24-.31.44-.4.59.54-.15.93-.22,1.16-.22.27,0,.4.11.4.34,0,.11-.05.2-.14.25-.05.03-.18.05-.38.07-.08,0-.45.09-1.11.28-.18.05-.36.11-.53.17Z"/><path class="cls-1" d="M572.92,231.06c-1.45-6.37,1.46-26.43.8-37.09"/><path class="cls-4" d="M576.71,197.98c-.14.09-.32.06-.42-.08l-2.6-3.78-2.33,3.95c-.08.14-.27.19-.41.11-.14-.08-.19-.27-.11-.41l2.57-4.36c.05-.09.15-.14.25-.15.1,0,.2.05.26.13l2.86,4.17s.05.1.05.16c0,.1-.04.2-.13.26Z"/><path class="cls-1" d="M572.15,249.28c-1.82,6.38,1.45,28.77,1.52,37.5"/><path class="cls-4" d="M570.65,282.77c.14-.09.32-.06.42.08l2.58,3.8,2.35-3.94c.08-.14.27-.19.41-.1s.19.27.1.41l-2.59,4.35c-.05.09-.15.14-.25.15-.1,0-.2-.05-.26-.13l-2.84-4.19s-.05-.1-.05-.16c0-.1.04-.2.13-.26Z"/><path class="cls-1" d="M625,260.17c-1.45-6.36-.07-7.62-.79-17.41"/><path class="cls-4" d="M627.25,246.74c-.14.1-.32.06-.42-.07l-2.63-3.76-2.29,3.98c-.08.14-.27.19-.41.11-.14-.08-.19-.27-.11-.41l2.53-4.38c.05-.09.14-.15.25-.15s.2.04.26.13l2.9,4.14s.05.1.05.16c0,.1-.04.2-.13.26Z"/><path class="cls-1" d="M625.63,271.21c2.81,6.27.18,8.58,1.39,15.59"/><path class="cls-4" d="M623.6,283.15c.12-.11.31-.09.42.03l3,3.47,1.88-4.19c.07-.15.25-.22.4-.15.15.07.22.25.15.4l-2.07,4.62c-.04.09-.13.16-.23.17-.1.01-.2-.02-.27-.1l-3.31-3.83s-.06-.1-.07-.15c-.01-.1.02-.2.1-.27Z"/><path class="cls-4" d="M452.5,285.68c.26.1.46.27.59.49.13.23.19.52.19.87,0,1.09-.42,2.25-1.27,3.47-.92,1.33-1.81,2-2.65,2-.42,0-.73-.22-.94-.65-.14-.28-.21-.62-.21-1.03,0-.97.35-1.99,1.06-3.06.37-.55.86-1.12,1.49-1.71.65-.61,1.13-.91,1.41-.91.22,0,.33.17.33.52ZM451.55,286.21c-.57.47-1.08,1.04-1.52,1.71-.63.97-.94,1.9-.94,2.81,0,.27.04.48.11.63.12.23.29.35.51.35.34,0,.74-.26,1.21-.78.52-.58.93-1.28,1.23-2.11.23-.63.34-1.16.34-1.6,0-.3-.09-.56-.28-.78-.13-.15-.3-.23-.51-.24h-.15Z"/><path class="cls-1" d="M551.17,65.04c-3.05,10.91,6.36,11.15,9.41,21.61"/><path class="cls-4" d="M556.6,83.59c.11-.13.3-.14.42-.03l3.5,2.97,1.21-4.43c.04-.16.21-.25.37-.21s.25.21.21.37l-1.34,4.88c-.03.1-.1.18-.2.21-.1.03-.2,0-.28-.06l-3.86-3.28s-.08-.09-.09-.14c-.03-.09-.01-.2.06-.28Z"/><path class="cls-4" d="M272.71,61.89c-.35.24-.7.45-1.05.62-.47.23-.78.34-.93.34-.16,0-.23-.13-.22-.38,0-.09.03-.16.07-.23.04-.06.14-.11.28-.16.45-.17,1.1-.5,1.96-.99.39-.22.66-.33.82-.33.1,0,.19.06.27.16.05.07.08.15.07.22,0,.12-.11.33-.31.61-1.5,2.23-2.55,3.98-3.14,5.26-.14.31-.25.51-.31.58-.1.13-.19.19-.29.19-.09,0-.18-.06-.26-.18-.05-.07-.07-.13-.06-.21.01-.26.42-1.12,1.23-2.56.76-1.36,1.38-2.34,1.86-2.95Z"/><path class="cls-4" d="M275.79,63.92c.74-.24,1.28-.35,1.61-.34.4.02.69.14.88.38.16.21.24.47.22.79-.03.83-.44,1.63-1.21,2.39-.71.71-1.42,1.05-2.13,1.02-.45-.02-.8-.23-1.07-.63-.2-.31-.3-.67-.28-1.07.03-.87.41-1.75,1.12-2.65.61-.78,1.47-1.48,2.58-2.11.33-.19.57-.32.73-.4.15-.07.29-.1.41-.09.19,0,.28.09.27.25,0,.15-.11.27-.31.37-1.04.5-1.98,1.19-2.82,2.07ZM275.15,64.79c-.32.48-.49.96-.51,1.44-.01.32.05.59.19.83.14.24.33.37.57.37.34.01.7-.13,1.07-.44.37-.31.68-.73.92-1.27.16-.34.24-.63.25-.88,0-.19-.04-.34-.15-.45-.12-.13-.28-.2-.48-.21-.33-.01-.73.08-1.21.28-.13.05-.28.12-.44.21-.12.07-.19.11-.2.12Z"/><path class="cls-4" d="M281.64,63.79c-.21-.22-.35-.4-.43-.53-.12-.21-.18-.43-.17-.66.02-.51.29-.92.82-1.25.45-.28.94-.41,1.45-.39.38.01.67.14.89.39.19.21.27.46.26.75-.02.43-.24.83-.68,1.18-.23.19-.56.41-.97.66.24.26.42.52.54.77.12.25.17.49.16.73-.02.46-.19.91-.52,1.34-.35.47-.79.84-1.31,1.12-.53.28-1.06.41-1.59.39-.46-.02-.83-.2-1.11-.54-.21-.26-.31-.54-.3-.84.03-.8.55-1.55,1.56-2.25.53-.38,1-.66,1.4-.86ZM282.12,64.31c-.6.27-1.11.59-1.53.95-.59.5-.89,1-.91,1.49-.01.28.07.49.24.62.18.13.36.2.56.21.27.01.56-.06.87-.22.31-.16.57-.37.79-.63.33-.39.5-.8.52-1.23.01-.3-.07-.59-.24-.85-.04-.06-.1-.14-.19-.23-.07-.07-.1-.11-.11-.11ZM282.36,63.38c.3-.15.55-.32.77-.51.27-.25.42-.49.42-.72,0-.15-.04-.27-.12-.37-.1-.12-.23-.19-.4-.19-.28-.01-.55.08-.8.27-.22.16-.33.36-.34.58,0,.16.08.37.25.62l.22.32Z"/><path class="cls-4" d="M286.03,64.32c.74-.24,1.28-.35,1.61-.34.4.02.69.14.88.38.16.21.24.47.23.79-.03.83-.44,1.63-1.21,2.39-.71.71-1.42,1.05-2.13,1.02-.45-.02-.8-.23-1.07-.63-.2-.31-.3-.67-.28-1.07.03-.87.41-1.75,1.12-2.65.61-.78,1.47-1.48,2.58-2.11.33-.19.57-.32.73-.4.15-.07.29-.1.41-.09.19,0,.27.09.27.25,0,.15-.11.27-.31.37-1.04.5-1.98,1.19-2.82,2.07ZM285.4,65.2c-.32.48-.49.96-.51,1.44-.01.32.05.59.19.83.14.24.33.37.57.37.34.01.7-.13,1.07-.44.37-.31.68-.73.92-1.27.15-.34.24-.63.25-.88,0-.19-.04-.34-.15-.45-.12-.13-.27-.2-.48-.21-.33-.01-.73.08-1.21.28-.13.05-.28.12-.44.21-.12.07-.19.11-.2.12Z"/><path class="cls-4" d="M289.49,67.83c.83-.23,1.59-.32,2.28-.3.27.01.48.08.64.19.14.1.21.23.21.37,0,.09-.04.17-.11.25-.07.07-.15.1-.24.1-.03,0-.07-.01-.13-.03-.25-.08-.48-.12-.68-.13-.18,0-.4,0-.67.02-.09.01-.44.09-1.03.22-.53.12-.85.18-.95.18-.14,0-.25-.08-.35-.21-.09-.13-.13-.25-.12-.39,0-.15.14-.34.4-.58.5-.45.97-.85,1.43-1.21.43-.33.97-.72,1.61-1.15.73-.49,1.23-.85,1.51-1.08.41-.34.63-.68.64-1.03,0-.19-.05-.35-.17-.47-.11-.1-.25-.16-.42-.16-.44-.02-.97.21-1.58.68-.28.21-.46.32-.53.32-.05,0-.1-.03-.17-.09-.07-.06-.1-.13-.09-.22,0-.18.23-.42.67-.72.7-.49,1.37-.72,1.99-.7.36.01.65.14.88.38.22.23.32.5.31.81-.02.55-.32,1.08-.9,1.59-.25.23-.7.56-1.36,1-1.58,1.06-2.61,1.85-3.07,2.36Z"/><path class="cls-4" d="M298.12,62.64c-.86.68-1.41,1.28-1.66,1.78.49-.18.91-.26,1.25-.24.4.02.7.14.92.39.2.23.29.52.28.87-.03.8-.45,1.6-1.25,2.39-.79.78-1.55,1.16-2.28,1.13-.42-.02-.74-.23-.96-.62-.14-.27-.2-.57-.19-.9.01-.34.1-.61.25-.82.13-.18.29-.26.48-.25.17,0,.26.08.25.21,0,.03-.02.08-.05.17-.05.14-.09.33-.1.57,0,.21.03.4.12.56.12.22.3.34.52.35.44.02.91-.24,1.41-.77.55-.58.84-1.18.86-1.78.01-.25-.04-.44-.15-.57-.11-.13-.28-.2-.5-.21-.22,0-.5.04-.83.14-.07.02-.26.1-.54.24-.06.03-.11.05-.16.04-.09,0-.18-.07-.27-.19-.09-.14-.14-.26-.13-.36,0-.21.24-.58.68-1.14.28-.35.63-.71,1.04-1.07-.1-.15-.15-.26-.15-.34,0-.11.08-.19.24-.23.07-.02.35-.05.83-.1.54-.05.98-.07,1.32-.06.32.01.55.04.69.09.17.06.26.18.25.36,0,.22-.13.33-.35.32-.05,0-.15-.01-.29-.03-.05,0-.1-.01-.17-.01-.23,0-.47,0-.69,0-.23.01-.45.04-.68.07Z"/><path class="cls-4" d="M303.11,65.94c-.69.31-1.23.45-1.62.43-.39-.02-.68-.19-.88-.52-.15-.24-.22-.51-.21-.84.03-.84.44-1.63,1.22-2.37.71-.68,1.42-1,2.14-.97.41.02.73.17.97.47.21.26.3.58.28.96-.03.84-.37,1.79-1.02,2.82-.35.56-.89,1.22-1.62,1.96-.82.84-1.35,1.25-1.59,1.24-.07,0-.13-.03-.19-.1-.05-.06-.07-.12-.07-.18,0-.12.11-.25.32-.41.94-.73,1.69-1.56,2.27-2.51ZM303.57,65.1c.37-.69.56-1.26.58-1.72.01-.33-.04-.58-.15-.75-.11-.17-.29-.26-.53-.27-.5-.02-1,.25-1.51.81-.5.55-.75,1.11-.78,1.68-.01.25.04.45.16.58.11.13.29.2.53.21.32.01.7-.07,1.15-.25.34-.14.52-.24.55-.29Z"/><path class="cls-4" d="M308.03,66.32c-.06.12-.21.42-.47.9-.42.92-.68,1.52-.78,1.8-.05.16-.11.27-.17.34-.06.06-.15.09-.27.08-.12,0-.22-.05-.29-.14-.06-.08-.1-.17-.09-.27.01-.37.38-1.24,1.09-2.62-.72.05-1.28.15-1.69.31-.13.05-.24.07-.33.07-.19,0-.29-.17-.27-.47,0-.18.08-.35.23-.52.29-.31.77-.77,1.44-1.39.83-.75,1.58-1.36,2.25-1.83.58-.4.99-.6,1.24-.59.11,0,.21.05.3.15.07.08.1.17.1.26,0,.12-.08.29-.24.53-.03.04-.2.3-.51.76-.4.6-.78,1.22-1.13,1.88.34,0,.57,0,.68,0,.29.01.43.12.42.34,0,.19-.09.32-.25.4-.07.03-.28.04-.62.03-.1,0-.31,0-.64,0ZM307.5,65.63c.57-1.01,1.11-1.86,1.62-2.54-.52.27-1.16.74-1.91,1.42-.54.5-.98.93-1.31,1.3.71-.12,1.25-.18,1.6-.19Z"/><path class="cls-4" d="M309.98,68.64c.83-.23,1.59-.33,2.28-.3.27.01.48.08.64.19.14.1.21.23.21.37,0,.09-.04.17-.11.24s-.15.1-.24.1c-.03,0-.07-.01-.13-.03-.25-.08-.48-.12-.68-.13-.18,0-.4,0-.67.02-.09.01-.44.09-1.03.22-.53.12-.85.18-.95.17-.14,0-.25-.08-.35-.21-.09-.13-.13-.25-.12-.39,0-.15.14-.34.4-.58.5-.45.98-.85,1.43-1.21.43-.33.97-.72,1.61-1.15.73-.49,1.23-.85,1.51-1.08.41-.34.63-.68.64-1.03,0-.19-.05-.35-.17-.47-.11-.1-.25-.16-.42-.16-.44-.02-.97.21-1.58.68-.28.21-.46.32-.53.32-.05,0-.1-.03-.17-.09-.07-.06-.1-.13-.09-.22,0-.18.23-.42.67-.72.7-.49,1.37-.72,1.99-.7.36.01.65.14.88.38.22.23.32.5.31.81-.02.55-.32,1.08-.9,1.59-.25.23-.7.56-1.36,1-1.58,1.06-2.61,1.85-3.07,2.36Z"/><path class="cls-4" d="M315.11,68.85c.83-.23,1.59-.32,2.28-.3.27.01.48.08.64.19.14.1.21.23.21.37,0,.09-.04.17-.11.25-.07.07-.15.1-.24.1-.03,0-.07-.01-.13-.03-.25-.08-.48-.12-.68-.13-.18,0-.4,0-.67.02-.09.01-.44.09-1.03.22-.53.12-.85.18-.94.18-.14,0-.25-.08-.35-.21-.09-.13-.13-.25-.12-.39,0-.15.14-.34.4-.58.5-.45.97-.85,1.43-1.21.43-.33.97-.72,1.61-1.15.73-.49,1.23-.86,1.51-1.08.41-.34.63-.68.64-1.03,0-.19-.05-.35-.17-.47-.11-.1-.25-.16-.42-.16-.44-.02-.97.21-1.58.68-.28.21-.46.32-.53.32-.05,0-.1-.03-.17-.09-.07-.06-.1-.13-.09-.22,0-.18.23-.42.67-.72.7-.49,1.37-.72,1.98-.7.36.01.65.14.88.38.22.23.32.5.31.81-.02.55-.32,1.08-.9,1.59-.25.22-.7.56-1.36,1-1.58,1.06-2.61,1.85-3.07,2.36Z"/><path class="cls-4" d="M328.22,60.52l.75.03-.5,12.48-.75-.03.5-12.48Z"/><path class="cls-4" d="M338.66,66.2c.24.11.41.23.51.36.14.19.21.44.2.76-.03.8-.4,1.55-1.09,2.25-.7.7-1.4,1.04-2.11,1.02-.43-.02-.78-.21-1.04-.58-.18-.27-.27-.56-.26-.88.02-.52.23-.77.63-.75.24,0,.35.1.35.29,0,.04,0,.09-.02.15-.02.08-.03.16-.03.25,0,.23.04.41.15.53.12.14.27.21.44.22.42.02.87-.26,1.37-.82.48-.54.72-1.06.74-1.56.01-.25-.04-.46-.16-.61-.13-.16-.31-.25-.54-.26-.09,0-.19,0-.28.03-.11.03-.2.04-.26.04-.14,0-.21-.1-.2-.29,0-.17.07-.3.18-.4.07-.06.2-.11.41-.16.41-.09.76-.21,1.05-.38.19-.11.34-.26.45-.45.06-.1.09-.21.09-.32,0-.14-.03-.25-.1-.32-.07-.07-.19-.11-.34-.12-.26-.01-.54.05-.83.17-.07.03-.25.12-.53.28-.08.05-.16.07-.24.06-.17,0-.25-.1-.24-.28,0-.16.13-.32.39-.49.59-.38,1.15-.56,1.7-.54.33.01.6.12.81.33.23.22.34.48.33.78-.02.4-.2.76-.56,1.09-.19.19-.52.38-.97.58Z"/><path class="cls-4" d="M343.84,64.46c-.86.68-1.41,1.28-1.66,1.78.49-.18.91-.26,1.25-.24.4.02.7.14.92.39.2.23.29.52.28.87-.03.8-.45,1.6-1.25,2.39-.79.78-1.55,1.16-2.28,1.13-.42-.02-.74-.23-.96-.62-.14-.27-.2-.57-.19-.9.01-.34.1-.61.25-.82.13-.18.29-.26.48-.25.18,0,.26.08.26.21,0,.03-.02.08-.05.17-.05.14-.09.33-.1.57,0,.21.03.4.12.56.12.22.3.34.52.35.44.02.91-.24,1.41-.77.55-.58.84-1.18.86-1.78.01-.25-.04-.44-.15-.57-.11-.13-.28-.2-.5-.21-.22,0-.5.04-.83.14-.07.02-.26.1-.54.24-.06.03-.11.05-.16.04-.09,0-.18-.07-.27-.19-.09-.14-.14-.26-.13-.36,0-.21.24-.58.68-1.14.28-.35.63-.71,1.04-1.07-.1-.15-.15-.26-.15-.34,0-.11.08-.19.24-.23.07-.02.35-.05.83-.1.54-.05.98-.07,1.32-.06.32.01.55.04.69.09.17.06.26.18.25.36,0,.22-.13.33-.35.32-.05,0-.15-.01-.29-.03-.05,0-.1-.01-.17-.01-.23,0-.46,0-.69,0-.23.01-.45.04-.68.07Z"/><path class="cls-4" d="M348.96,64.66c-.86.68-1.41,1.28-1.66,1.78.49-.18.91-.26,1.25-.24.4.02.7.15.92.39.2.23.29.52.28.87-.03.8-.45,1.6-1.25,2.39-.79.78-1.55,1.16-2.28,1.13-.42-.02-.74-.23-.96-.62-.14-.27-.2-.57-.19-.9.01-.34.1-.61.25-.82.13-.18.29-.26.48-.25.18,0,.26.08.26.21,0,.03-.02.08-.05.17-.05.14-.09.33-.1.57,0,.21.03.4.12.56.12.22.3.34.52.35.44.02.91-.24,1.41-.77.55-.58.84-1.18.86-1.78.01-.25-.04-.44-.15-.57-.11-.13-.28-.2-.5-.21-.22,0-.5.04-.83.14-.07.02-.26.1-.54.24-.06.03-.11.05-.16.04-.09,0-.18-.07-.27-.19-.09-.14-.14-.26-.13-.36,0-.21.24-.58.68-1.14.28-.36.63-.71,1.04-1.07-.1-.15-.15-.26-.15-.34,0-.11.08-.19.24-.23.07-.02.35-.05.83-.1.54-.05.99-.07,1.32-.06.32.01.55.04.69.09.17.06.26.18.25.36,0,.22-.13.33-.35.32-.05,0-.15-.01-.29-.03-.05,0-.1-.01-.17-.01-.23,0-.46,0-.69,0-.23.01-.45.04-.68.07Z"/><path class="cls-4" d="M354.92,64.48c.26.11.45.29.57.52.12.23.17.52.16.88-.04,1.09-.51,2.23-1.41,3.42-.97,1.3-1.88,1.93-2.73,1.89-.42-.02-.73-.25-.92-.69-.13-.29-.18-.63-.16-1.03.04-.97.43-1.97,1.18-3.02.39-.54.91-1.08,1.55-1.65.68-.58,1.16-.86,1.45-.85.22,0,.32.19.31.53ZM353.95,64.97c-.59.45-1.12,1-1.58,1.65-.67.94-1.02,1.86-1.06,2.77-.01.27.02.48.08.63.11.24.28.36.49.37.34.01.75-.23,1.24-.73.54-.55.98-1.24,1.31-2.06.25-.62.39-1.15.41-1.58.01-.3-.07-.56-.25-.79-.12-.16-.29-.24-.5-.26-.05,0-.1,0-.15,0Z"/><path class="cls-4" d="M359.42,65.34c-.35.24-.7.45-1.05.62-.47.23-.78.34-.93.34-.16,0-.23-.13-.22-.38,0-.09.03-.16.07-.22.04-.06.14-.11.28-.16.45-.17,1.1-.5,1.96-.99.39-.22.66-.33.82-.33.1,0,.19.06.27.16.05.07.08.14.07.22,0,.12-.11.33-.31.61-1.5,2.23-2.55,3.98-3.14,5.26-.14.31-.25.51-.31.58-.1.13-.19.19-.29.19-.09,0-.18-.06-.26-.18-.05-.07-.07-.13-.06-.21.01-.26.42-1.12,1.23-2.56.76-1.36,1.38-2.34,1.86-2.95Z"/><path class="cls-4" d="M364.2,68.38c-.69.31-1.23.45-1.62.43-.39-.02-.68-.19-.88-.52-.15-.24-.22-.51-.21-.84.03-.84.44-1.63,1.22-2.37.71-.68,1.42-1,2.13-.97.41.02.73.17.97.47.2.26.3.58.28.96-.03.84-.37,1.79-1.02,2.83-.35.56-.89,1.22-1.62,1.96-.82.84-1.35,1.25-1.59,1.24-.07,0-.13-.03-.19-.1-.05-.06-.07-.12-.07-.18,0-.12.11-.25.32-.41.94-.73,1.69-1.56,2.27-2.51ZM364.67,67.53c.37-.69.56-1.26.58-1.72.01-.33-.04-.58-.15-.75-.11-.17-.29-.26-.53-.27-.5-.02-1,.25-1.51.81-.5.55-.76,1.11-.78,1.68-.01.25.04.45.16.58.11.13.29.2.53.21.32.01.7-.07,1.15-.25.34-.14.52-.24.55-.29Z"/><path class="cls-4" d="M369.39,67.42c.24.11.41.23.51.36.14.19.21.44.2.76-.03.8-.4,1.55-1.09,2.25-.7.7-1.4,1.04-2.11,1.02-.43-.02-.78-.21-1.04-.58-.18-.27-.27-.56-.26-.88.02-.52.23-.77.63-.75.24,0,.35.1.35.29,0,.04,0,.09-.02.15-.02.08-.03.16-.03.25,0,.23.04.41.15.53.12.14.27.21.44.22.42.02.87-.26,1.37-.82.48-.54.72-1.06.74-1.56.01-.25-.04-.46-.16-.61-.13-.16-.31-.25-.54-.26-.09,0-.19,0-.28.03-.11.03-.2.04-.26.04-.14,0-.21-.1-.2-.29,0-.17.07-.3.18-.4.07-.06.2-.11.41-.16.41-.09.76-.21,1.05-.38.19-.11.34-.26.45-.45.06-.1.09-.21.09-.32,0-.14-.03-.25-.1-.32-.07-.07-.19-.11-.34-.12-.26-.01-.54.05-.83.17-.07.03-.25.12-.53.28-.08.05-.16.07-.24.06-.17,0-.25-.1-.24-.28,0-.16.13-.32.39-.49.59-.38,1.15-.56,1.7-.54.33.01.6.12.81.33.23.22.34.49.33.78-.02.4-.2.76-.56,1.09-.19.19-.52.38-.97.58Z"/><path class="cls-4" d="M375.41,65.29c.26.11.45.29.57.52.12.23.17.52.16.88-.04,1.09-.51,2.23-1.41,3.42-.98,1.29-1.89,1.93-2.73,1.89-.42-.02-.73-.25-.92-.69-.12-.29-.18-.63-.16-1.03.04-.97.43-1.97,1.18-3.02.39-.54.91-1.08,1.55-1.65.68-.58,1.16-.86,1.45-.85.22,0,.32.19.31.53ZM374.44,65.78c-.59.45-1.12,1-1.58,1.65-.67.94-1.02,1.86-1.06,2.77-.01.27.02.48.08.63.11.24.28.36.49.37.34.01.75-.23,1.24-.73.54-.55.98-1.24,1.31-2.06.25-.62.39-1.15.41-1.58.01-.3-.07-.56-.25-.79-.12-.16-.29-.24-.5-.26-.05,0-.1,0-.15,0Z"/><path class="cls-4" d="M378.6,67.66c-.21-.22-.35-.4-.43-.53-.12-.21-.18-.43-.17-.66.02-.51.29-.92.82-1.25.45-.28.94-.41,1.45-.39.38.02.67.14.89.39.19.21.27.46.26.75-.02.43-.24.83-.68,1.18-.23.19-.56.41-.97.66.24.26.42.52.54.77s.17.49.16.73c-.02.46-.19.91-.52,1.34-.35.47-.79.84-1.31,1.12-.53.28-1.06.41-1.59.39-.46-.02-.83-.2-1.11-.54-.21-.26-.31-.54-.3-.84.03-.8.55-1.55,1.56-2.25.53-.38,1-.66,1.41-.86ZM379.07,68.17c-.6.27-1.11.59-1.53.95-.59.5-.89,1-.91,1.49-.01.28.07.49.24.63.18.13.36.2.56.21.27.01.56-.06.87-.22.31-.16.57-.37.79-.63.33-.39.5-.8.52-1.23.01-.3-.07-.59-.24-.85-.04-.06-.1-.14-.19-.23-.07-.07-.1-.11-.11-.11ZM379.32,67.24c.3-.15.55-.32.77-.51.27-.25.42-.49.42-.72,0-.15-.04-.27-.12-.37-.1-.12-.23-.19-.4-.19-.28-.01-.55.08-.8.27-.22.16-.33.36-.34.58,0,.16.08.37.25.62l.22.32Z"/><path class="cls-4" d="M382.99,68.19c.74-.24,1.28-.35,1.61-.34.4.02.69.14.88.38.16.21.24.47.22.79-.03.83-.44,1.63-1.21,2.39-.71.71-1.42,1.05-2.13,1.02-.45-.02-.8-.23-1.07-.63-.2-.31-.3-.67-.28-1.07.03-.87.41-1.75,1.12-2.65.61-.78,1.47-1.48,2.58-2.11.33-.19.57-.32.73-.4.15-.07.28-.1.41-.09.19,0,.28.09.27.25,0,.15-.11.27-.31.37-1.04.5-1.98,1.19-2.82,2.07ZM382.35,69.07c-.32.48-.49.96-.51,1.44-.01.32.05.59.19.83.14.24.33.37.57.38.34.01.7-.13,1.07-.44.37-.31.68-.73.92-1.27.16-.34.24-.63.25-.88,0-.19-.04-.34-.15-.45-.12-.13-.28-.2-.48-.21-.33-.01-.73.08-1.21.28-.13.05-.28.12-.44.21-.12.07-.19.11-.2.12Z"/><path class="cls-1" d="M503.18,60.19c30.96,1.24,36.86,3.37,36.86,3.68-.01.49-31.9-2.62-31.61-1.63.16.55,23.95,3.87,23.92,4.29-.02.3-16.05-1.15-16.04-.89,0,.11,5.22,1.23,5.32,1.64.06.27-1.32.28-1.66.72-.28.37-.06.49,1.73,1.88"/></svg>