<?xml version="1.0" encoding="UTF-8"?><svg id="Layer_1" xmlns="http://www.w3.org/2000/svg" viewBox="0 0 429.19 346.35"><defs><style>.cls-1{stroke:#4d4d4d;}.cls-1,.cls-2{fill:none;stroke-linecap:round;stroke-miterlimit:10;}.cls-3{fill:#4d4d4d;}.cls-2{stroke:#ccc;}.cls-4{fill:#ccc;}</style></defs><path class="cls-4" d="M385.39,280.35c.28,0,.5-.22.5-.5s-.22-.5-.5-.5H61.07c-.28,0-.5.22-.5.5s.22.5.5.5h324.31"/><path class="cls-4" d="M385.39,273.51c.28,0,.5-.22.5-.5s-.22-.5-.5-.5H61.07c-.28,0-.5.22-.5.5s.22.5.5.5h324.31"/><path class="cls-4" d="M385.39,266.68c.28,0,.5-.22.5-.5s-.22-.5-.5-.5H61.07c-.28,0-.5.22-.5.5s.22.5.5.5h324.31"/><path class="cls-4" d="M385.39,259.84c.28,0,.5-.22.5-.5s-.22-.5-.5-.5H61.07c-.28,0-.5.22-.5.5s.22.5.5.5h324.31"/><path class="cls-4" d="M385.39,246.16c.28,0,.5-.22.5-.5s-.22-.5-.5-.5H61.07c-.28,0-.5.22-.5.5s.22.5.5.5h324.31"/><path class="cls-4" d="M385.39,253c.28,0,.5-.22.5-.5s-.22-.5-.5-.5H61.07c-.28,0-.5.22-.5.5s.22.5.5.5h324.31"/><path class="cls-4" d="M385.39,287.19c.28,0,.5-.22.5-.5s-.22-.5-.5-.5H61.07c-.28,0-.5.22-.5.5s.22.5.5.5h324.31"/><path class="cls-4" d="M385.39,232.48c.28,0,.5-.22.5-.5s-.22-.5-.5-.5H61.07c-.28,0-.5.22-.5.5s.22.5.5.5h324.31"/><path class="cls-4" d="M385.39,225.65c.28,0,.5-.22.5-.5s-.22-.5-.5-.5H61.07c-.28,0-.5.22-.5.5s.22.5.5.5h324.31"/><path class="cls-4" d="M385.39,218.81c.28,0,.5-.22.5-.5s-.22-.5-.5-.5H61.07c-.28,0-.5.22-.5.5s.22.5.5.5h324.31"/><path class="cls-4" d="M385.39,211.97c.28,0,.5-.22.5-.5s-.22-.5-.5-.5H61.07c-.28,0-.5.22-.5.5s.22.5.5.5h324.31"/><path class="cls-4" d="M385.39,198.29c.28,0,.5-.22.5-.5s-.22-.5-.5-.5H61.07c-.28,0-.5.22-.5.5s.22.5.5.5h324.31"/><path class="cls-4" d="M385.39,205.13c.28,0,.5-.22.5-.5s-.22-.5-.5-.5H61.07c-.28,0-.5.22-.5.5s.22.5.5.5h324.31"/><path class="cls-4" d="M385.39,239.32c.28,0,.5-.22.5-.5s-.22-.5-.5-.5H61.07c-.28,0-.5.22-.5.5s.22.5.5.5h324.31"/><path class="cls-4" d="M385.39,184.61c.28,0,.5-.22.5-.5s-.22-.5-.5-.5H61.07c-.28,0-.5.22-.5.5s.22.5.5.5h324.31"/><path class="cls-4" d="M385.39,177.78c.28,0,.5-.22.5-.5s-.22-.5-.5-.5H61.07c-.28,0-.5.22-.5.5s.22.5.5.5h324.31"/><path class="cls-4" d="M385.39,170.94c.28,0,.5-.22.5-.5s-.22-.5-.5-.5H61.07c-.28,0-.5.22-.5.5s.22.5.5.5h324.31"/><path class="cls-4" d="M385.39,164.1c.28,0,.5-.22.5-.5s-.22-.5-.5-.5H61.07c-.28,0-.5.22-.5.5s.22.5.5.5h324.31"/><path class="cls-4" d="M385.39,150.42c.28,0,.5-.22.5-.5s-.22-.5-.5-.5H61.07c-.28,0-.5.22-.5.5s.22.5.5.5h324.31"/><path class="cls-4" d="M385.39,157.26c.28,0,.5-.22.5-.5s-.22-.5-.5-.5H61.07c-.28,0-.5.22-.5.5s.22.5.5.5h324.31"/><path class="cls-4" d="M385.39,191.45c.28,0,.5-.22.5-.5s-.22-.5-.5-.5H61.07c-.28,0-.5.22-.5.5s.22.5.5.5h324.31"/><path class="cls-4" d="M385.39,136.74c.28,0,.5-.22.5-.5s-.22-.5-.5-.5H61.07c-.28,0-.5.22-.5.5s.22.5.5.5h324.31"/><path class="cls-4" d="M385.39,129.91c.28,0,.5-.22.5-.5s-.22-.5-.5-.5H61.07c-.28,0-.5.22-.5.5s.22.5.5.5h324.31"/><path class="cls-4" d="M385.39,123.07c.28,0,.5-.22.5-.5s-.22-.5-.5-.5H61.07c-.28,0-.5.22-.5.5s.22.5.5.5h324.31"/><path class="cls-4" d="M385.39,116.23c.28,0,.5-.22.5-.5s-.22-.5-.5-.5H61.07c-.28,0-.5.22-.5.5s.22.5.5.5h324.31"/><path class="cls-4" d="M385.39,102.55c.28,0,.5-.22.5-.5s-.22-.5-.5-.5H61.07c-.28,0-.5.22-.5.5s.22.5.5.5h324.31"/><path class="cls-4" d="M385.39,109.39c.28,0,.5-.22.5-.5s-.22-.5-.5-.5H61.07c-.28,0-.5.22-.5.5s.22.5.5.5h324.31"/><path class="cls-4" d="M385.39,143.58c.28,0,.5-.22.5-.5s-.22-.5-.5-.5H61.07c-.28,0-.5.22-.5.5s.22.5.5.5h324.31"/><line class="cls-2" x1="106.97" y1="94.71" x2="106.97" y2="292.91"/><line class="cls-2" x1="153.38" y1="94.71" x2="153.38" y2="292.91"/><line class="cls-2" x1="199.78" y1="94.71" x2="199.78" y2="292.91"/><line class="cls-2" x1="246.18" y1="94.71" x2="246.18" y2="292.91"/><line class="cls-2" x1="292.58" y1="94.71" x2="292.58" y2="292.91"/><line class="cls-2" x1="338.98" y1="94.71" x2="338.98" y2="292.91"/><path class="cls-3" d="M51.02,300.32c.26.1.46.27.59.49.13.23.19.52.19.87,0,1.09-.42,2.25-1.27,3.47-.92,1.33-1.81,2-2.65,2-.42,0-.73-.22-.94-.65-.14-.28-.21-.62-.21-1.03,0-.97.35-1.99,1.06-3.06.37-.55.86-1.12,1.49-1.71.65-.61,1.13-.91,1.41-.91.22,0,.33.17.33.52ZM50.07,300.85c-.57.47-1.08,1.04-1.52,1.71-.63.97-.94,1.9-.94,2.81,0,.27.04.48.11.63.12.23.29.35.51.35.34,0,.74-.26,1.21-.78.52-.58.93-1.28,1.23-2.11.23-.63.34-1.16.34-1.6,0-.3-.09-.56-.28-.78-.13-.15-.3-.23-.51-.24h-.15Z"/><path class="cls-3" d="M385.89,94.22h0s-324.81,0-324.81,0c-.28,0-.5.22-.5.5v199.2c0,.28.22.5.5.5h0s324.81,0,324.81,0c.28,0,.5-.22.5-.5V94.72c0-.28-.22-.5-.5-.5ZM61.57,291.41V97.21h323.81v194.2H61.57Z"/><path class="cls-3" d="M42.07,97.35c.82-.26,1.57-.39,2.26-.39.27,0,.49.06.65.17.15.1.22.22.22.36,0,.09-.03.18-.1.25s-.15.11-.23.11c-.03,0-.07,0-.13-.02-.25-.07-.48-.1-.69-.1-.18,0-.4.02-.67.05-.09.01-.43.1-1.02.26-.53.14-.84.21-.94.21-.14,0-.26-.07-.36-.2-.09-.12-.14-.25-.14-.38,0-.15.13-.34.38-.59.48-.47.94-.89,1.38-1.27.42-.35.94-.76,1.56-1.22.71-.52,1.2-.9,1.46-1.14.4-.35.6-.7.6-1.05,0-.2-.06-.35-.19-.46-.11-.1-.25-.15-.42-.15-.44,0-.96.25-1.55.74-.27.22-.44.34-.51.34-.05,0-.1-.03-.17-.09-.07-.06-.1-.13-.1-.21,0-.18.21-.42.64-.75.68-.52,1.34-.78,1.96-.78.36,0,.65.11.89.34.23.22.34.49.34.8,0,.55-.28,1.09-.83,1.63-.24.23-.68.59-1.32,1.05-1.54,1.12-2.53,1.95-2.97,2.48Z"/><path class="cls-3" d="M50.48,91.82c-.83.72-1.36,1.33-1.59,1.85.48-.2.9-.29,1.24-.29.4,0,.71.12.93.35.21.22.31.51.31.86,0,.81-.38,1.62-1.15,2.44-.76.82-1.5,1.22-2.23,1.22-.42,0-.75-.2-.98-.59-.15-.26-.23-.56-.23-.89s.07-.61.22-.83c.12-.18.28-.27.47-.27.18,0,.26.07.26.2,0,.03-.01.09-.04.17-.05.14-.07.33-.07.57,0,.21.05.39.15.55.13.22.31.33.53.33.44,0,.9-.28,1.38-.83.53-.61.79-1.21.79-1.81,0-.25-.06-.44-.17-.56-.11-.12-.28-.19-.51-.19s-.5.06-.82.18c-.07.02-.25.11-.53.26-.06.03-.11.05-.16.05-.09,0-.19-.06-.28-.18-.1-.13-.15-.25-.15-.36,0-.21.21-.59.64-1.16.27-.37.6-.74,1-1.11-.11-.15-.16-.26-.16-.34,0-.11.08-.19.23-.24.07-.02.35-.07.83-.13.54-.07.98-.11,1.32-.11s.55.02.7.07c.18.05.26.17.26.35,0,.22-.11.34-.34.34-.05,0-.15,0-.29-.01-.05,0-.1,0-.17,0-.23,0-.46.01-.69.03-.23.02-.45.05-.68.1Z"/><path class="cls-3" d="M55.61,91.82c-.83.72-1.36,1.33-1.59,1.85.48-.2.9-.29,1.24-.29.4,0,.71.12.93.35.21.22.31.51.31.86,0,.81-.38,1.62-1.15,2.44-.76.82-1.5,1.22-2.23,1.22-.42,0-.75-.2-.98-.59-.15-.26-.23-.56-.23-.89s.07-.61.22-.83c.12-.18.28-.27.47-.27.18,0,.26.07.26.2,0,.03-.01.09-.04.17-.05.14-.07.33-.07.57,0,.21.05.39.15.55.13.22.31.33.53.33.44,0,.9-.28,1.38-.83.53-.61.79-1.21.79-1.81,0-.25-.06-.44-.17-.56-.11-.12-.28-.19-.51-.19s-.5.06-.82.18c-.07.02-.25.11-.53.26-.06.03-.11.05-.16.05-.09,0-.19-.06-.28-.18-.1-.13-.15-.25-.15-.36,0-.21.21-.59.64-1.16.27-.37.6-.74,1-1.11-.11-.15-.16-.26-.16-.34,0-.11.08-.19.23-.24.07-.02.35-.07.83-.13.54-.07.98-.11,1.32-.11s.55.02.7.07c.18.05.26.17.26.35,0,.22-.11.34-.34.34-.05,0-.15,0-.29-.01-.05,0-.1,0-.17,0-.23,0-.46.01-.69.03-.23.02-.45.05-.68.1Z"/><path class="cls-3" d="M387.34,300.7c-1.31.29-2.24.43-2.77.43-.36,0-.53-.12-.53-.35,0-.12.04-.22.12-.3s.17-.12.27-.12c.04,0,.11,0,.21.01.06,0,.14.01.22.01.3,0,.7-.04,1.2-.12.63-.1,1.1-.19,1.4-.27.17-.04.31-.07.42-.07.26,0,.4.14.4.42,0,.19-.11.41-.34.64-1.68,1.8-3,3.57-3.95,5.32-.23.42-.38.67-.44.75-.12.14-.24.21-.37.21-.07,0-.14-.03-.19-.08-.07-.06-.1-.13-.1-.21,0-.25.24-.76.71-1.54.62-1.02,1.38-2.06,2.26-3.11.53-.63,1.02-1.18,1.49-1.63Z"/><path class="cls-3" d="M52.22,52.4c.18-.02.34.05.47.2.09.1.14.21.16.34.02.2-.14.49-.48.87-.96,1.13-1.45,2.39-1.49,3.79-.02.26-.11.46-.29.61-.16.14-.33.22-.5.24-.4.04-.63-.19-.68-.7-.09-.8.24-1.9.99-3.27.3-.56.67-1.09,1.12-1.58.28-.32.52-.49.71-.51ZM55.26,52.07c.17-.02.33.05.47.2.09.1.14.21.16.34.02.2-.14.49-.48.87-.96,1.13-1.45,2.39-1.49,3.79-.02.26-.11.46-.29.61-.16.14-.33.22-.5.24-.4.04-.63-.19-.68-.7-.09-.8.24-1.9.99-3.27.31-.57.68-1.1,1.12-1.58.28-.32.52-.49.71-.51Z"/><path class="cls-3" d="M61.63,66.88c-.32.56-.61,1.02-.86,1.37-.45.61-.92.95-1.42,1-.43.05-.78-.11-1.06-.47-.2-.25-.31-.57-.35-.94-.12-1.13.22-2.47,1.03-4.03.37-.73.76-1.3,1.16-1.7.31-.32.57-.5.79-.52.12-.01.24.03.36.12.1.09.15.18.16.27.02.17-.12.45-.4.87-.63.94-1.1,1.8-1.4,2.56-.35.89-.49,1.58-.44,2.06.01.12.05.21.12.27.06.06.15.08.25.07.45-.05,1-.75,1.66-2.11.34-.71.62-1.48.83-2.32.11-.45.27-.86.49-1.23.21-.33.44-.51.67-.54.13-.01.25.03.37.13.13.11.2.24.21.39.03.31-.19,1.05-.68,2.22-.33.8-.47,1.46-.41,1.97.06.54.25.99.58,1.34.09.1.35.24.77.42.21.09.32.27.35.52.02.16-.04.3-.16.43-.12.13-.28.2-.47.22-.44.05-.85-.08-1.25-.4-.36-.28-.61-.71-.76-1.3-.03-.08-.07-.3-.14-.67Z"/><path class="cls-3" d="M67.76,60.31c.15-.02.28.03.39.13.08.09.12.18.14.28.02.16-.08.43-.3.83-.76,1.5-1.28,2.73-1.57,3.68-.31.98-.57,1.98-.78,3-.09.45-.29.69-.58.73-.17.02-.32-.04-.44-.16-.11-.1-.17-.22-.18-.35-.03-.26.16-1.17.56-2.71.31-1.22.88-2.59,1.71-4.11.27-.5.47-.83.61-1.01.14-.18.29-.28.46-.3ZM69.73,55.17c.39-.04.61.14.65.54.04.37-.11.79-.45,1.28-.32.47-.65.72-.99.76-.17.02-.31-.03-.43-.14-.12-.1-.18-.24-.2-.4-.04-.42.14-.89.55-1.41.3-.39.59-.59.86-.62Z"/><path class="cls-3" d="M70.65,63.39c.1-.12.2-.23.29-.35,1.63-1.98,2.76-3,3.38-3.07.34-.04.53.13.57.51.03.26-.09.59-.36.98-1.46,2.13-2.11,3.94-1.95,5.42.05.48.23.93.54,1.33.14.19.22.34.23.45.01.1-.03.21-.12.32-.1.13-.23.21-.39.23-.36.04-.68-.16-.98-.58-.28-.4-.46-.91-.52-1.52-.13-1.18.18-2.53.92-4.06-1.11.89-2.07,2.35-2.88,4.39-.21.49-.47.75-.76.78-.15.02-.28-.02-.38-.12-.14-.11-.21-.26-.23-.45-.05-.47.35-1.77,1.21-3.88.46-1.15.83-1.98,1.11-2.51.28-.52.54-.79.77-.81.11-.01.23.03.34.12.13.11.21.24.23.4.02.19-.08.48-.29.87-.31.57-.55,1.09-.74,1.55Z"/><path class="cls-3" d="M79.5,58.45c-.47.94-.89,1.99-1.25,3.13-.52,1.63-.74,2.83-.66,3.6.02.22.09.38.19.48.1.1.25.15.43.13.44-.05.92-.51,1.45-1.4.34-.55.63-1.09.89-1.63.13-.31.3-.47.49-.49.11-.01.21.02.3.09.08.07.12.15.13.22.04.32-.31,1.09-1.04,2.3-.87,1.45-1.72,2.23-2.56,2.32-.45.05-.84-.12-1.18-.5-.21-.24-.34-.6-.4-1.08-.11-1.06.06-2.32.52-3.79.11-.37.43-1.25.96-2.66-.23.09-.41.14-.53.15-.18.02-.35,0-.5-.08-.21-.1-.32-.24-.34-.43-.02-.22.08-.41.32-.56.07-.04.38-.13.95-.27.21-.06.5-.17.89-.35.25-.58.67-1.38,1.25-2.4.33-.57.56-.94.69-1.11.19-.24.36-.37.52-.39.11-.01.23.04.36.15.12.1.18.21.19.32.02.23-.17.7-.59,1.43-.28.47-.48.85-.61,1.14.94-.37,1.62-.57,2.04-.62.48-.05.74.12.79.53.02.2-.05.36-.2.47-.08.06-.3.13-.67.2-.15,0-.79.24-1.93.71-.31.13-.62.27-.92.4Z"/><path class="cls-3" d="M85.05,59.26c1.26-.62,2.19-.96,2.78-1.03.72-.08,1.27.07,1.67.44.34.32.55.78.61,1.35.16,1.49-.35,3.01-1.52,4.58-1.08,1.45-2.26,2.24-3.52,2.38-.8.09-1.49-.19-2.07-.84-.44-.5-.7-1.11-.78-1.83-.17-1.56.26-3.22,1.29-5,.89-1.54,2.23-3.02,4.03-4.44.54-.43.94-.73,1.2-.9.25-.16.48-.25.7-.27.33-.04.51.09.54.38.03.26-.12.51-.45.74-1.71,1.17-3.21,2.64-4.48,4.43ZM84.15,60.98c-.45.94-.62,1.84-.53,2.7.06.57.24,1.04.55,1.43.32.39.69.56,1.12.52.61-.07,1.21-.42,1.78-1.07.58-.65,1.01-1.48,1.31-2.5.19-.64.26-1.19.21-1.64-.04-.33-.17-.59-.39-.77-.24-.2-.54-.29-.9-.25-.59.06-1.28.34-2.09.82-.22.12-.46.28-.73.49-.2.16-.31.25-.33.27Z"/><path class="cls-3" d="M97.22,59.98c-.07.23-.27.8-.6,1.72-.51,1.74-.81,2.88-.91,3.41-.05.3-.12.51-.22.65-.09.12-.24.2-.45.22-.22.02-.4-.04-.55-.18-.14-.13-.22-.28-.24-.47-.07-.66.34-2.31,1.24-4.96-1.26.28-2.24.61-2.93.99-.23.12-.41.19-.56.21-.35.04-.55-.22-.61-.77-.03-.32.06-.65.28-.98.43-.62,1.16-1.57,2.2-2.85,1.28-1.56,2.46-2.85,3.52-3.85.92-.87,1.61-1.33,2.05-1.37.2-.02.39.04.58.19.15.13.23.27.25.44.02.21-.07.55-.29,1.01-.04.08-.27.58-.71,1.5-.55,1.16-1.06,2.38-1.52,3.64.61-.1,1.01-.16,1.21-.18.52-.06.79.11.83.49.04.34-.08.6-.34.78-.12.07-.48.15-1.1.21-.18.02-.56.07-1.14.16ZM96.09,58.88c.75-1.95,1.49-3.6,2.21-4.94-.86.61-1.87,1.62-3.03,3.03-.83,1.03-1.5,1.92-1.99,2.67,1.24-.4,2.18-.65,2.81-.75Z"/><path class="cls-3" d="M110.25,56.72c.67-.71,1.31-1.1,1.9-1.16.37-.04.68.08.95.36.25.25.39.55.43.91.07.68-.06,1.53-.4,2.55-.38,1.13-1,2.21-1.84,3.23-.7.85-1.4,1.32-2.1,1.39-.26.03-.51,0-.73-.07-.22-.07-.43-.2-.62-.37-.06.13-.09.21-.11.25-.11.34-.2.55-.25.62-.05.08-.13.12-.26.13-.16.02-.32-.06-.48-.23-.11-.11-.17-.24-.19-.38-.03-.24.34-1.53,1.11-3.87,1.07-3.26,2.37-6.53,3.89-9.81.62-1.34,1-2.13,1.14-2.36.16-.28.31-.43.47-.45.19-.02.37.06.54.23.11.11.17.25.19.42.02.18-.04.42-.17.72-.03.06-.26.54-.68,1.44-1.32,2.62-2.26,4.76-2.81,6.43ZM108.66,62.63c.14.07.29.1.44.09.76-.08,1.49-.83,2.2-2.24.33-.64.58-1.26.74-1.87.15-.55.2-.95.18-1.2-.02-.17-.07-.3-.16-.37-.09-.07-.21-.1-.38-.08-.4.04-.86.37-1.37.98-.51.6-.99,1.44-1.43,2.53-.21.52-.39,1-.53,1.45l-.13.37c.15.16.3.28.44.35Z"/><path class="cls-3" d="M119.01,59.03c-.68,1-1.23,1.75-1.64,2.25-.82.97-1.54,1.49-2.15,1.56-.3.03-.54-.05-.74-.25-.15-.16-.24-.37-.27-.63-.1-.94.32-2.26,1.27-3.94.97-1.71,1.7-2.6,2.21-2.65.14-.02.27.03.39.14.11.09.17.19.18.33.02.19-.01.37-.1.52-.08.15-.34.51-.75,1.06-.44.57-.84,1.18-1.2,1.83-.41.73-.59,1.26-.56,1.57.02.18.12.27.29.25.35-.04.95-.58,1.81-1.64.54-.67.96-1.23,1.25-1.67.06-.09.32-.54.78-1.34.42-.71.68-1.13.78-1.26.23-.33.46-.51.68-.54.14-.01.27.03.4.14.12.1.18.23.2.38.03.25-.1.7-.39,1.33-.34.77-.65,1.49-.94,2.16-.45,1.04-.78,1.96-.99,2.76.53-.38.99-.84,1.41-1.36.7-.87,1.12-1.51,1.25-1.91.13-.37.28-.56.46-.58.24-.03.38.08.41.33.05.46-.27,1.2-.96,2.2-.83,1.2-1.89,2.26-3.19,3.18-.54,1.84-1.08,3.38-1.61,4.61-.99,2.27-2.14,3.48-3.44,3.62-.53.06-.98-.1-1.35-.48-.29-.29-.46-.67-.51-1.15-.15-1.36.66-2.86,2.42-4.49.51-.48,1.29-1.09,2.32-1.84.42-.3.75-.54.98-.73.11-.42.3-.98.55-1.68.28-.76.53-1.44.74-2.04ZM117.16,64.44c-.88.57-1.75,1.35-2.63,2.32-.88,1.01-1.28,1.9-1.2,2.67.02.17.08.3.19.4.15.14.33.2.54.18.66-.07,1.31-.83,1.96-2.29.11-.24.38-1.04.83-2.38.09-.28.2-.58.31-.91Z"/><path class="cls-3" d="M127.65,53.28c-.47.94-.89,1.99-1.25,3.13-.52,1.63-.74,2.83-.66,3.6.02.22.09.38.19.48.1.1.25.15.43.13.44-.05.92-.51,1.45-1.4.34-.55.63-1.09.89-1.63.13-.31.3-.47.49-.49.11-.01.21.02.3.09.08.07.12.15.13.22.04.32-.31,1.09-1.04,2.3-.87,1.45-1.72,2.23-2.56,2.32-.45.05-.84-.12-1.18-.5-.21-.24-.34-.6-.4-1.08-.11-1.06.06-2.32.52-3.79.11-.37.43-1.25.96-2.66-.23.09-.41.14-.53.15-.18.02-.35,0-.5-.08-.21-.1-.32-.24-.34-.43-.02-.22.08-.41.32-.56.07-.04.38-.13.95-.27.21-.06.5-.17.89-.35.25-.58.67-1.38,1.25-2.4.33-.57.56-.94.69-1.11.19-.24.36-.37.52-.39.11-.01.23.04.36.15.12.1.18.21.19.32.02.23-.17.7-.59,1.43-.28.47-.48.85-.61,1.14.94-.37,1.62-.57,2.04-.62.48-.05.74.12.79.53.02.2-.04.36-.2.47-.08.06-.3.13-.67.2-.15,0-.79.24-1.93.71-.31.13-.62.27-.92.4Z"/><path class="cls-3" d="M131.07,58.9l.03.24c.02.19.09.35.2.48.25.3.63.42,1.13.37,1.09-.12,2.26-1.09,3.52-2.92.22-.31.42-.48.6-.5.1-.01.19.03.28.12.06.06.09.13.1.19.04.34-.32.96-1.07,1.87-.59.71-1.23,1.3-1.93,1.78-.7.48-1.37.76-2.01.83-.65.07-1.2-.1-1.62-.52-.29-.29-.46-.7-.52-1.24-.16-1.48.38-3,1.62-4.56,1-1.27,1.92-1.96,2.76-2.05.23-.02.44.02.64.14.25.16.39.39.42.68.05.46-.1,1.05-.46,1.77-.73,1.49-1.96,2.6-3.67,3.32ZM131.25,57.85c.59-.28,1.04-.56,1.37-.86.56-.54.99-1.12,1.28-1.76.11-.22.15-.42.14-.58-.02-.17-.11-.25-.28-.24-.23.02-.53.23-.92.62-.69.68-1.22,1.62-1.59,2.82Z"/><path class="cls-3" d="M148.56,55.87c-.64,1.09-1.12,1.85-1.44,2.28-.39.53-.74.94-1.04,1.22-.34.31-.66.48-.98.52-.31.03-.56-.09-.76-.38-.16-.22-.25-.48-.28-.77-.1-.95.33-2.32,1.28-4.12.87-1.62,1.55-2.46,2.05-2.51.12-.01.25.03.37.13.12.09.18.21.2.35.02.19-.12.48-.43.85-.65.79-1.19,1.67-1.63,2.63-.37.82-.54,1.34-.52,1.58.02.17.11.25.26.24.52-.06,1.54-1.31,3.04-3.77.49-.8.79-1.26.9-1.38.21-.23.42-.36.66-.39.16-.02.3.01.42.09.11.08.16.16.17.26.01.1-.15.57-.49,1.39-.77,1.78-1.13,2.96-1.06,3.55.02.23.13.33.31.31.31-.03.71-.44,1.18-1.23.45-.74.84-1.66,1.18-2.75.14-.47.25-1.09.32-1.85.08-.87.39-1.33.91-1.38.3-.03.46.12.5.45.12,1.14-.35,2.79-1.41,4.92-1.1,2.23-2.11,3.4-3.02,3.49-.67.07-1.05-.31-1.14-1.14-.07-.68.07-1.55.42-2.59Z"/><path class="cls-3" d="M158.16,56.35c-.23.54-.47,1-.71,1.38-.48.74-.99,1.14-1.53,1.2-.47.05-.86-.13-1.17-.55-.2-.27-.32-.6-.36-1-.1-.97.09-2.07.57-3.31.54-1.38,1.26-2.46,2.14-3.27.58-.52,1.16-.81,1.75-.88.37-.04.69.04.95.24.23.18.36.39.39.65.02.19-.03.47-.14.82.15.17.23.32.25.46.02.18-.07.5-.27.94-.21.46-.4,1.05-.58,1.79-.19.78-.26,1.4-.21,1.85.04.37.18.66.42.87.07.05.26.14.57.24.23.08.36.25.39.52.02.17-.03.31-.14.43-.12.13-.27.2-.44.22-.47.05-.9-.12-1.29-.5-.32-.31-.5-.72-.56-1.24-.02-.17-.03-.47-.04-.87ZM159.33,51.86c-.12-.18-.25-.31-.39-.39-.13-.08-.27-.11-.41-.1-.66.07-1.32.73-1.98,1.98-.72,1.38-1.03,2.51-.93,3.4.02.22.08.38.18.48.1.1.23.15.39.13.42-.04.86-.54,1.32-1.49.26-.52.57-1.29.93-2.29.24-.65.42-1.09.54-1.3.06-.11.17-.25.34-.42Z"/><path class="cls-3" d="M165.94,54.08c-.43.98-.82,1.71-1.16,2.19-.82,1.2-1.54,1.84-2.16,1.9-.38.04-.69-.13-.93-.52-.17-.26-.27-.53-.3-.83-.06-.58.1-1.44.48-2.58.34-1,.64-1.79.89-2.38.18-.42.29-.69.32-.82.08-.25.15-.44.22-.57.09-.2.24-.3.44-.33.11-.01.2.02.29.1.1.1.16.21.17.35.04.39-.22,1.31-.78,2.75-.56,1.42-.82,2.35-.77,2.79.03.28.15.41.37.38.38-.04.86-.59,1.44-1.64.26-.47.52-1.06.78-1.77-.03-.22-.05-.38-.07-.5-.07-.66,0-1.24.18-1.74.25-.65.64-1.01,1.17-1.07.31-.03.48.13.52.5.06.59-.15,1.48-.64,2.68.18.02.32.02.42,0,.29-.03.64-.25,1.07-.67.33-.34.56-.51.67-.52.1-.01.2.04.32.14.09.09.14.18.15.28.03.31-.15.69-.54,1.13-.46.5-1.01.79-1.66.85-.25.03-.55-.02-.9-.13Z"/><path class="cls-3" d="M169.67,54.76l.03.24c.02.19.09.35.2.48.25.3.63.42,1.13.37,1.09-.12,2.26-1.09,3.52-2.92.22-.32.42-.48.6-.5.1-.01.19.03.28.12.06.06.09.13.1.19.04.34-.32.96-1.07,1.87-.59.71-1.23,1.3-1.93,1.78-.7.48-1.37.76-2.01.83-.65.07-1.2-.1-1.62-.52-.29-.29-.46-.7-.52-1.24-.16-1.48.38-3,1.62-4.56,1-1.27,1.92-1.96,2.76-2.05.23-.02.44.02.64.14.25.16.39.39.42.68.05.46-.1,1.05-.46,1.77-.73,1.49-1.96,2.6-3.67,3.33ZM169.85,53.7c.59-.28,1.04-.56,1.37-.86.56-.54.99-1.12,1.28-1.76.11-.22.15-.42.14-.58-.02-.17-.11-.25-.28-.24-.23.02-.53.23-.92.62-.69.68-1.22,1.62-1.59,2.82Z"/><path class="cls-3" d="M182.38,38.42c.41-.04.64.19.7.71.08.79-.25,1.88-.99,3.26-.3.56-.67,1.09-1.12,1.58-.28.32-.52.49-.71.51-.18.02-.34-.05-.47-.2-.09-.1-.14-.21-.16-.35-.02-.19.14-.48.48-.86.96-1.14,1.45-2.4,1.49-3.79.02-.26.11-.47.29-.63.16-.13.33-.21.49-.23ZM185.42,38.09c.41-.04.64.19.7.71.08.8-.24,1.88-.99,3.26-.3.56-.67,1.09-1.12,1.58-.28.32-.52.49-.71.51-.18.02-.34-.05-.47-.2-.09-.1-.14-.21-.16-.35-.02-.19.14-.48.48-.86.96-1.14,1.46-2.4,1.49-3.79.02-.26.11-.47.29-.63.16-.13.33-.21.49-.23Z"/><polyline class="cls-1" points="61.07 207.81 106.97 195.95 153.38 243.58 199.78 126.68 246.18 152.47 292.58 187.86 338.98 180.14 385.67 164.75"/><path class="cls-3" d="M280.35,67.86c-1.33.18-2.26.25-2.79.21-.36-.03-.52-.16-.5-.39,0-.12.06-.21.14-.29.08-.08.18-.11.28-.1.04,0,.11.01.2.03.06.01.14.03.22.03.3.02.7.02,1.21-.02.64-.05,1.11-.1,1.42-.16.17-.03.32-.04.43-.03.26.02.38.17.36.46-.02.19-.14.4-.39.62-1.82,1.66-3.27,3.32-4.36,4.98-.26.4-.43.64-.5.71-.13.13-.26.19-.39.18-.07,0-.13-.04-.18-.1-.06-.07-.09-.14-.08-.22.02-.25.3-.74.83-1.48.7-.97,1.54-1.94,2.51-2.92.58-.59,1.11-1.09,1.61-1.51Z"/><path class="cls-3" d="M280.59,73.47c.84-.19,1.6-.26,2.29-.21.27.02.48.09.64.22.14.11.2.23.19.38,0,.09-.05.17-.12.24-.07.07-.15.1-.24.09-.03,0-.07-.01-.13-.03-.25-.09-.47-.14-.68-.16-.18-.01-.4-.02-.67,0-.09,0-.44.07-1.04.18-.54.1-.85.14-.95.14-.14-.01-.25-.09-.34-.23-.08-.13-.12-.26-.11-.39.01-.15.15-.33.43-.56.51-.43,1.01-.81,1.48-1.15.45-.32,1-.68,1.65-1.09.75-.46,1.26-.8,1.55-1.02.43-.32.65-.65.68-1,.02-.2-.04-.35-.15-.48-.1-.11-.24-.17-.41-.18-.44-.04-.97.17-1.61.61-.29.2-.47.3-.54.29-.05,0-.1-.04-.16-.1-.06-.06-.09-.14-.08-.22.01-.18.25-.41.7-.69.72-.46,1.39-.67,2.01-.62.35.03.64.17.86.42.21.24.3.51.28.82-.04.54-.37,1.06-.96,1.55-.26.21-.72.53-1.4.95-1.62,1-2.68,1.74-3.16,2.24Z"/><path class="cls-3" d="M288.96,71.89c-.06.12-.23.41-.5.88-.46.9-.74,1.49-.85,1.77-.06.16-.12.27-.19.33-.06.06-.15.08-.27.07-.12,0-.22-.06-.28-.16-.06-.08-.09-.18-.08-.28.03-.37.43-1.22,1.19-2.58-.72.02-1.28.1-1.7.24-.14.04-.25.06-.33.05-.19-.02-.28-.18-.26-.48.01-.18.1-.35.25-.51.3-.29.8-.74,1.5-1.33.86-.72,1.64-1.3,2.32-1.74.59-.38,1.02-.56,1.26-.54.11,0,.21.06.3.16.07.08.1.17.09.26,0,.12-.1.29-.26.52-.03.04-.21.29-.54.74-.42.58-.83,1.19-1.21,1.83.34,0,.57.02.68.03.29.02.42.14.41.36-.02.19-.1.32-.27.39-.07.03-.28.03-.62,0-.1,0-.31-.02-.64-.03ZM288.45,71.18c.61-.99,1.19-1.81,1.72-2.47-.53.25-1.19.69-1.97,1.34-.56.47-1.02.89-1.36,1.25.72-.09,1.25-.13,1.61-.12Z"/><path class="cls-3" d="M290.81,74.29c.84-.19,1.6-.26,2.29-.21.27.02.48.09.64.22.14.11.2.23.19.38,0,.09-.05.17-.12.24-.07.07-.15.1-.24.09-.03,0-.07-.01-.13-.03-.25-.09-.47-.14-.68-.16-.18-.01-.4-.02-.67,0-.09,0-.44.07-1.04.18-.54.1-.85.14-.95.14-.14-.01-.25-.09-.34-.23-.08-.13-.12-.26-.11-.39.01-.15.15-.33.43-.56.51-.43,1.01-.81,1.48-1.15.45-.32,1-.68,1.65-1.09.75-.46,1.27-.8,1.55-1.02.43-.32.65-.65.68-1,.02-.2-.04-.35-.15-.48-.1-.11-.24-.17-.41-.18-.44-.04-.97.17-1.61.61-.29.2-.47.3-.54.29-.05,0-.1-.04-.16-.1-.06-.06-.09-.14-.09-.22.01-.18.25-.41.7-.69.72-.46,1.39-.67,2.01-.62.36.03.64.17.86.42.21.24.3.51.28.82-.04.54-.36,1.06-.96,1.55-.26.21-.72.53-1.4.95-1.62,1-2.68,1.74-3.16,2.24Z"/><path class="cls-3" d="M299.18,72.72c-.06.12-.23.41-.5.88-.46.9-.74,1.49-.85,1.77-.06.16-.12.27-.19.33-.06.06-.15.08-.27.07-.12,0-.22-.06-.28-.16-.06-.08-.09-.18-.08-.28.03-.37.43-1.22,1.19-2.58-.72.02-1.28.1-1.7.24-.14.04-.24.06-.33.05-.19-.02-.28-.18-.26-.48.01-.18.1-.35.25-.51.3-.29.8-.74,1.5-1.33.86-.72,1.63-1.3,2.32-1.74.59-.38,1.02-.56,1.26-.54.11,0,.21.06.3.16.07.08.1.17.09.26,0,.12-.1.29-.26.52-.03.04-.21.29-.54.74-.42.58-.83,1.19-1.21,1.83.34,0,.57.02.68.03.29.02.42.14.4.36-.02.19-.1.32-.27.39-.07.03-.28.03-.62,0-.1,0-.31-.02-.64-.03ZM298.67,72c.61-.99,1.19-1.81,1.72-2.47-.53.25-1.19.69-1.97,1.34-.56.47-1.02.89-1.36,1.25.72-.09,1.25-.13,1.61-.12Z"/><path class="cls-3" d="M301.04,75.11c.84-.19,1.6-.26,2.29-.21.27.02.48.09.64.22.14.11.2.23.19.38,0,.09-.05.17-.12.24-.07.07-.15.1-.24.09-.03,0-.07-.01-.13-.03-.25-.09-.47-.14-.68-.16-.18-.01-.4-.02-.67,0-.09,0-.44.07-1.04.18-.54.1-.85.14-.95.14-.14-.01-.25-.09-.34-.23-.08-.13-.12-.26-.11-.39.01-.15.15-.33.43-.56.51-.43,1.01-.81,1.48-1.15.45-.32,1-.68,1.65-1.09.75-.46,1.27-.8,1.55-1.02.43-.32.65-.65.68-1,.02-.19-.04-.35-.15-.47-.1-.11-.24-.17-.41-.18-.44-.04-.97.17-1.61.61-.29.2-.47.3-.54.29-.05,0-.1-.04-.16-.1-.06-.06-.09-.14-.08-.22.01-.17.25-.41.7-.69.72-.46,1.39-.67,2.01-.62.35.03.64.17.86.41.21.24.3.51.28.82-.04.54-.37,1.06-.96,1.55-.26.21-.72.53-1.4.95-1.62,1-2.68,1.74-3.16,2.24Z"/><path class="cls-3" d="M309.6,73.37c-.7.28-1.25.4-1.64.37-.38-.03-.67-.22-.86-.55-.14-.24-.2-.52-.17-.84.07-.84.5-1.61,1.31-2.32.73-.65,1.46-.94,2.17-.88.41.03.73.2.95.51.19.27.28.59.24.98-.07.84-.45,1.77-1.13,2.78-.37.55-.94,1.18-1.69,1.89-.85.8-1.39,1.2-1.64,1.18-.07,0-.13-.04-.18-.1-.04-.06-.06-.12-.06-.18,0-.12.12-.25.33-.4.97-.69,1.76-1.49,2.37-2.42ZM310.1,72.54c.4-.67.61-1.24.65-1.7.03-.33-.01-.58-.12-.76-.11-.17-.28-.27-.52-.29-.5-.04-1.01.21-1.54.75-.52.53-.8,1.08-.84,1.64-.02.25.02.45.13.58s.28.21.52.23c.32.03.71-.04,1.16-.2.34-.13.53-.22.56-.26Z"/><path class="cls-3" d="M315.82,70.33c.25.12.44.3.55.54s.15.53.12.88c-.09,1.08-.6,2.2-1.55,3.36-1.03,1.25-1.96,1.85-2.8,1.78-.42-.03-.72-.28-.89-.72-.11-.29-.15-.64-.12-1.04.08-.96.51-1.95,1.3-2.97.41-.52.95-1.05,1.62-1.58.7-.55,1.19-.81,1.48-.79.22.02.31.2.29.54ZM314.83,70.78c-.61.42-1.16.95-1.65,1.59-.71.91-1.09,1.82-1.17,2.72-.02.27,0,.48.06.64.1.24.26.37.48.39.34.03.76-.2,1.27-.68.57-.53,1.03-1.2,1.4-2,.28-.61.44-1.13.47-1.56.02-.3-.05-.57-.22-.8-.11-.16-.28-.25-.48-.28-.05,0-.1,0-.15-.01Z"/><path class="cls-3" d="M321.24,71.14c-1.33.18-2.26.25-2.79.21-.35-.03-.52-.16-.5-.39,0-.12.06-.21.14-.29.08-.08.18-.11.28-.1.04,0,.11.01.2.03.06.01.14.03.22.03.3.02.7.02,1.21-.02.64-.05,1.11-.1,1.42-.16.17-.03.32-.04.43-.03.26.02.38.17.36.46-.02.19-.14.39-.39.62-1.82,1.66-3.27,3.32-4.36,4.98-.26.4-.43.64-.5.71-.13.13-.26.19-.39.18-.07,0-.13-.04-.18-.09-.06-.07-.09-.14-.09-.22.02-.25.3-.74.83-1.48.7-.97,1.54-1.94,2.5-2.92.58-.59,1.11-1.09,1.61-1.51Z"/><path class="cls-3" d="M325.05,73.44c.23.12.4.25.49.38.14.19.19.45.17.77-.06.79-.46,1.53-1.18,2.21-.73.68-1.44.99-2.15.93-.43-.04-.77-.24-1.02-.62-.17-.27-.25-.57-.22-.89.04-.52.26-.76.66-.73.24.02.35.12.34.3,0,.04-.01.09-.03.15-.02.08-.04.16-.04.25-.02.23.02.41.13.54.12.14.26.22.43.23.41.03.88-.22,1.41-.76.5-.52.77-1.03.81-1.53.02-.25-.02-.46-.13-.61-.12-.17-.3-.26-.53-.28-.09,0-.19,0-.28.02-.11.02-.2.03-.26.03-.14-.01-.2-.11-.19-.3.01-.17.08-.3.2-.4.07-.06.21-.11.42-.14.41-.07.77-.18,1.06-.34.19-.1.35-.25.47-.43.06-.1.1-.2.11-.32.01-.14-.02-.25-.09-.32-.07-.07-.18-.12-.34-.13-.26-.02-.54.03-.83.14-.08.03-.26.11-.54.26-.08.04-.16.06-.25.05-.17-.01-.24-.11-.23-.29.01-.16.15-.32.41-.47.6-.36,1.18-.52,1.72-.47.33.03.59.15.8.37.22.23.32.5.3.79-.03.39-.23.75-.6,1.07-.2.18-.53.36-.99.54Z"/><path class="cls-3" d="M328.38,73.94c.75-.21,1.29-.3,1.62-.27.4.03.69.17.86.41.15.21.22.48.19.8-.07.83-.5,1.61-1.31,2.34-.74.68-1.46.99-2.17.94-.45-.04-.79-.26-1.04-.67-.19-.32-.27-.68-.24-1.08.07-.87.48-1.73,1.22-2.6.64-.75,1.53-1.42,2.66-2.01.34-.18.59-.3.75-.37.15-.06.29-.09.41-.08.18.01.27.1.26.26-.01.15-.12.26-.32.36-1.06.46-2.02,1.11-2.91,1.96ZM327.71,74.79c-.34.47-.53.94-.57,1.42-.03.32.03.59.15.83.13.25.32.38.56.4.34.03.7-.11,1.08-.4.38-.29.71-.7.97-1.23.17-.33.26-.62.28-.87.01-.19-.03-.34-.13-.46-.11-.14-.27-.21-.47-.23-.33-.03-.73.05-1.22.23-.13.04-.28.11-.45.19-.13.06-.2.1-.21.12Z"/><path class="cls-3" d="M335.61,72.61c-.36.23-.72.42-1.08.58-.48.21-.8.31-.94.3-.16-.01-.22-.14-.2-.39,0-.09.03-.16.08-.22.04-.06.14-.1.29-.15.45-.15,1.12-.45,2-.91.4-.21.68-.31.83-.29.1,0,.19.07.26.18.05.07.07.15.06.23,0,.12-.12.32-.33.6-1.59,2.17-2.71,3.88-3.35,5.13-.16.31-.27.5-.33.57-.1.12-.2.18-.29.17-.09,0-.18-.07-.25-.19-.04-.07-.06-.14-.06-.21.02-.26.47-1.1,1.33-2.51.81-1.33,1.47-2.28,1.98-2.88Z"/><path class="cls-3" d="M336.81,77.99c.84-.19,1.6-.26,2.29-.21.27.02.48.09.64.22.14.11.2.23.19.38,0,.09-.05.17-.12.24-.07.07-.15.1-.24.09-.03,0-.07-.01-.13-.03-.25-.09-.47-.14-.68-.16-.18-.01-.4-.02-.67,0-.09,0-.44.07-1.04.18-.54.1-.85.14-.95.14-.14-.01-.25-.09-.34-.23-.08-.13-.12-.26-.11-.39.01-.15.15-.33.43-.56.51-.43,1.01-.81,1.48-1.15.45-.32,1-.68,1.65-1.09.75-.46,1.27-.8,1.55-1.02.43-.32.65-.65.68-1,.02-.19-.04-.35-.15-.47-.1-.11-.24-.17-.41-.18-.44-.04-.97.17-1.61.61-.29.2-.47.3-.54.29-.05,0-.1-.04-.16-.1-.06-.06-.09-.14-.08-.22.01-.17.25-.41.7-.69.72-.46,1.39-.67,2.01-.62.35.03.64.17.86.41.21.24.3.51.28.82-.04.54-.37,1.06-.96,1.55-.26.21-.72.53-1.4.95-1.62,1-2.68,1.74-3.16,2.24Z"/><path class="cls-3" d="M346.48,72.79c.25.12.44.3.55.54.11.24.15.53.12.88-.09,1.09-.6,2.21-1.55,3.36-1.03,1.25-1.96,1.85-2.8,1.78-.42-.03-.72-.28-.89-.73-.11-.29-.15-.64-.12-1.04.08-.96.51-1.95,1.3-2.97.41-.52.95-1.05,1.62-1.58.7-.55,1.19-.82,1.48-.79.22.02.31.2.29.54ZM345.49,73.24c-.61.42-1.16.95-1.65,1.59-.71.91-1.09,1.82-1.17,2.72-.02.27,0,.48.06.64.1.24.26.37.48.39.34.03.76-.2,1.27-.68.57-.53,1.03-1.2,1.4-2,.28-.61.44-1.13.47-1.56.02-.3-.05-.57-.22-.8-.11-.16-.28-.25-.48-.28-.05,0-.1,0-.15-.01Z"/><path class="cls-3" d="M350.74,73.56c-.88.65-1.46,1.22-1.73,1.71.5-.16.92-.22,1.26-.19.39.03.69.17.9.42.19.24.27.53.25.88-.06.8-.51,1.58-1.34,2.34-.82.75-1.59,1.1-2.32,1.04-.42-.03-.73-.25-.93-.66-.13-.28-.18-.58-.15-.91.03-.34.12-.6.29-.81.14-.17.3-.25.49-.23.18.01.26.09.25.22,0,.03-.02.08-.06.16-.06.14-.1.33-.12.56-.02.21.02.4.1.56.11.23.28.35.51.37.44.04.92-.2,1.44-.71.57-.56.88-1.14.93-1.74.02-.25-.02-.44-.12-.57-.1-.13-.27-.21-.5-.23-.22-.02-.5.02-.83.11-.07.02-.26.09-.55.22-.06.03-.12.04-.16.04-.09,0-.18-.07-.26-.2-.09-.14-.13-.26-.12-.37.02-.2.26-.57.73-1.11.3-.34.66-.69,1.08-1.03-.1-.15-.14-.27-.13-.35,0-.11.09-.19.25-.22.08-.02.35-.04.84-.07.55-.03.99-.03,1.32,0,.32.03.55.07.69.12.17.06.25.19.23.37-.02.22-.14.33-.36.31-.05,0-.15-.02-.29-.04-.05,0-.1-.02-.17-.02-.23-.02-.46-.03-.69-.02-.23,0-.46.02-.68.04Z"/><path class="cls-3" d="M355.85,73.97c-.89.65-1.46,1.22-1.73,1.71.5-.16.92-.22,1.26-.19.39.03.69.17.9.43.19.24.27.53.25.88-.06.8-.51,1.58-1.34,2.34-.82.75-1.59,1.1-2.32,1.04-.42-.03-.73-.25-.93-.66-.13-.27-.18-.58-.15-.91.03-.34.12-.61.29-.81.14-.17.3-.25.49-.23.18.01.26.09.25.22,0,.03-.02.08-.06.16-.06.14-.1.33-.12.56-.02.21.02.39.1.56.11.23.28.35.51.37.44.04.92-.2,1.44-.71.57-.56.89-1.14.93-1.74.02-.25-.02-.44-.12-.57-.1-.13-.27-.21-.5-.23-.22-.02-.5.02-.83.11-.08.02-.26.09-.55.22-.06.03-.12.04-.16.04-.09,0-.18-.07-.26-.2-.09-.14-.13-.26-.12-.37.02-.21.26-.57.73-1.11.3-.34.66-.69,1.08-1.03-.1-.16-.14-.27-.13-.35,0-.11.09-.19.25-.22.07-.02.35-.04.83-.07.55-.03.99-.03,1.32,0,.32.03.55.07.69.12.17.06.25.19.23.37-.02.22-.14.33-.36.31-.05,0-.15-.02-.29-.04-.05,0-.1-.02-.17-.02-.23-.02-.46-.03-.69-.02-.23,0-.46.02-.68.04Z"/><path class="cls-3" d="M360.71,77.47c-.7.28-1.25.4-1.64.37-.38-.03-.67-.22-.86-.55-.14-.24-.2-.52-.17-.84.07-.84.5-1.61,1.31-2.32.73-.65,1.46-.94,2.17-.88.41.03.73.2.95.51.19.27.28.59.25.98-.07.84-.45,1.77-1.13,2.78-.37.55-.94,1.18-1.69,1.89-.85.8-1.39,1.2-1.64,1.18-.07,0-.13-.04-.18-.1-.04-.06-.06-.12-.06-.18,0-.12.12-.25.33-.4.97-.69,1.76-1.49,2.37-2.42ZM361.21,76.65c.4-.67.61-1.24.65-1.7.03-.33-.01-.58-.12-.76-.11-.17-.28-.27-.52-.29-.5-.04-1.01.21-1.54.75-.52.53-.8,1.08-.84,1.64-.02.25.02.45.13.58.11.14.28.21.52.23.32.03.71-.04,1.16-.2.34-.13.53-.22.56-.26Z"/><path class="cls-3" d="M365.82,77.89c-.7.28-1.25.4-1.64.37-.38-.03-.67-.22-.86-.55-.14-.24-.2-.52-.17-.84.07-.84.5-1.61,1.31-2.32.73-.65,1.46-.94,2.17-.88.41.03.73.2.95.51.19.27.28.59.24.97-.07.84-.45,1.77-1.13,2.78-.37.55-.94,1.18-1.69,1.89-.85.8-1.39,1.2-1.64,1.18-.07,0-.13-.04-.18-.1-.04-.06-.06-.12-.06-.18,0-.12.12-.25.33-.4.97-.69,1.76-1.49,2.37-2.42ZM366.32,77.06c.4-.67.61-1.24.65-1.7.03-.33-.01-.58-.12-.76-.11-.17-.28-.27-.52-.29-.5-.04-1.01.21-1.54.75-.52.53-.8,1.08-.84,1.64-.02.25.02.45.13.58.11.14.28.21.52.23.32.03.71-.04,1.16-.2.34-.13.53-.22.56-.26Z"/><path class="cls-3" d="M370.01,76.92c-.2-.23-.33-.41-.41-.55-.11-.21-.16-.44-.14-.67.04-.51.33-.91.87-1.22.46-.26.95-.37,1.47-.33.38.03.66.17.87.42.18.22.26.47.23.76-.04.43-.28.82-.72,1.15-.24.18-.57.39-1,.62.23.27.4.54.51.79.11.26.15.5.13.73-.04.46-.23.9-.57,1.32-.37.46-.82.81-1.36,1.07-.54.26-1.08.37-1.61.33-.46-.04-.82-.23-1.09-.59-.2-.27-.29-.55-.26-.85.06-.79.61-1.52,1.65-2.19.54-.35,1.02-.62,1.44-.8ZM370.47,77.46c-.61.25-1.13.55-1.56.89-.61.48-.93.96-.97,1.45-.02.28.05.49.21.63.17.14.35.21.55.23.27.02.57-.04.88-.18.31-.14.59-.34.82-.6.34-.37.53-.78.57-1.21.02-.3-.05-.59-.21-.86-.04-.06-.1-.14-.18-.23-.06-.07-.1-.11-.1-.11ZM370.75,76.54c.31-.14.57-.3.79-.48.28-.24.43-.47.45-.7.01-.15-.02-.27-.11-.38-.09-.12-.22-.19-.39-.21-.28-.02-.55.06-.81.24-.22.15-.34.34-.36.57-.01.16.06.37.22.63l.21.33Z"/></svg>