<?xml version="1.0" encoding="UTF-8"?><svg id="Layer_1" xmlns="http://www.w3.org/2000/svg" xmlns:xlink="http://www.w3.org/1999/xlink" viewBox="0 0 466.81 368.94"><defs><style>.cls-1,.cls-2,.cls-3,.cls-4,.cls-5,.cls-6,.cls-7,.cls-8{stroke-miterlimit:10;}.cls-1,.cls-2,.cls-9,.cls-4,.cls-5,.cls-7,.cls-8{fill:none;}.cls-1,.cls-4,.cls-6,.cls-7,.cls-8{stroke:#4d4d4d;}.cls-1,.cls-5{stroke-linecap:round;}.cls-2,.cls-3{stroke:#000;}.cls-10{clip-path:url(#clippath-4);}.cls-11{fill:#4d4d4d;}.cls-12,.cls-3{fill:#fff;}.cls-13{clip-path:url(#clippath-1);}.cls-14{clip-path:url(#clippath-5);}.cls-15{clip-path:url(#clippath-3);}.cls-4{filter:url(#drop-shadow-9);}.cls-4,.cls-7,.cls-8{stroke-width:3px;}.cls-5{stroke:#ccc;stroke-dasharray:5;}.cls-6{fill:#999;}.cls-7{filter:url(#drop-shadow-7);}.cls-16{fill:#ccc;}.cls-17{clip-path:url(#clippath-2);}.cls-18{clip-path:url(#clippath);}.cls-8{filter:url(#drop-shadow-8);}.cls-19{fill:#e6e6e6;}</style><clipPath id="clippath-1"><rect class="cls-9" x="24.36" y="2.45" width="133.88" height="19.42"/></clipPath><symbol id="Kernel_Execution" viewBox="0 0 173.22 24.31"><path class="cls-12" d="M158.25,2.5v19.31H24.36V2.5h133.88M160.25.5H22.36v23.31h137.88V.5h0Z"/><rect class="cls-3" x="22.36" y=".5" width="137.88" height="23.31"/><g class="cls-13"><polygon class="cls-19" points="28.66 2.41 19.2 2.41 0 21.85 9.46 21.85 28.66 2.41"/><polygon class="cls-19" points="46.73 2.41 37.27 2.41 18.07 21.85 27.53 21.85 46.73 2.41"/><polygon class="cls-19" points="64.8 2.41 55.34 2.41 36.14 21.85 45.6 21.85 64.8 2.41"/><polygon class="cls-19" points="82.87 2.41 73.41 2.41 54.21 21.85 63.67 21.85 82.87 2.41"/><polygon class="cls-19" points="100.94 2.41 91.48 2.41 72.28 21.85 81.74 21.85 100.94 2.41"/><polygon class="cls-19" points="119.01 2.41 109.55 2.41 90.35 21.85 99.81 21.85 119.01 2.41"/><polygon class="cls-19" points="137.08 2.41 127.62 2.41 108.42 21.85 117.88 21.85 137.08 2.41"/><polygon class="cls-19" points="155.15 2.41 145.69 2.41 126.49 21.85 135.95 21.85 155.15 2.41"/><polygon class="cls-19" points="173.22 2.41 163.76 2.41 144.56 21.85 154.02 21.85 173.22 2.41"/></g></symbol><clipPath id="clippath"><rect class="cls-9" x="-228.32" y="52.63" width="132.85" height="61.46"/></clipPath><filter id="drop-shadow-7" filterUnits="userSpaceOnUse"><feOffset dx="7" dy="7"/><feGaussianBlur result="blur" stdDeviation="5"/><feFlood flood-color="#000" flood-opacity=".07"/><feComposite in2="blur" operator="in"/><feComposite in="SourceGraphic"/></filter><clipPath id="clippath-2"><rect class="cls-9" x="92.61" y="78.48" width="303.14" height="103.08"/></clipPath><clipPath id="clippath-3"><rect class="cls-9" x="317.07" y="91.97" width="132.85" height="61.46"/></clipPath><clipPath id="clippath-4"><rect class="cls-9" x="367.31" y="64.21" width="132.85" height="61.46"/></clipPath><filter id="drop-shadow-8" filterUnits="userSpaceOnUse"><feOffset dx="7" dy="7"/><feGaussianBlur result="blur-2" stdDeviation="5"/><feFlood flood-color="#000" flood-opacity=".07"/><feComposite in2="blur-2" operator="in"/><feComposite in="SourceGraphic"/></filter><filter id="drop-shadow-9" filterUnits="userSpaceOnUse"><feOffset dx="7" dy="7"/><feGaussianBlur result="blur-3" stdDeviation="5"/><feFlood flood-color="#000" flood-opacity=".07"/><feComposite in2="blur-3" operator="in"/><feComposite in="SourceGraphic"/></filter><clipPath id="clippath-5"><rect class="cls-9" x="-225.65" y="304.6" width="132.85" height="61.46"/></clipPath></defs><g class="cls-18"><use width="173.22" height="24.31" transform="translate(-131.61 72.41)" xlink:href="#Kernel_Execution"/></g><path class="cls-11" d="M101.17,213.24c-.05.12-.2.43-.43.92-.39.93-.62,1.54-.7,1.83-.04.16-.1.28-.16.34-.06.06-.15.1-.26.1s-.22-.04-.29-.13c-.07-.08-.1-.17-.1-.27,0-.37.33-1.25.98-2.67-.71.08-1.27.2-1.68.37-.13.05-.24.08-.32.08-.2,0-.29-.15-.29-.46,0-.18.07-.36.21-.53.27-.32.73-.8,1.38-1.44.8-.79,1.53-1.43,2.18-1.92.56-.42.97-.64,1.22-.64.11,0,.21.05.31.14.07.08.11.16.11.26,0,.12-.07.3-.22.54-.02.04-.19.31-.48.78-.38.61-.73,1.25-1.05,1.92.34-.02.57-.03.68-.03.29,0,.43.11.43.32,0,.19-.08.33-.23.41-.07.03-.28.05-.62.05-.1,0-.32,0-.64.02ZM100.61,212.56c.53-1.04,1.04-1.9,1.52-2.6-.51.29-1.13.79-1.85,1.49-.52.52-.94.97-1.26,1.35.71-.15,1.24-.23,1.6-.25Z"/><path class="cls-11" d="M103.21,215.48c.82-.26,1.57-.39,2.26-.39.27,0,.49.06.65.17.15.1.22.22.22.36,0,.09-.03.18-.1.25s-.15.11-.23.11c-.03,0-.07,0-.13-.02-.25-.07-.48-.1-.69-.1-.18,0-.4.02-.67.05-.09.01-.43.1-1.02.26-.53.14-.84.21-.94.21-.14,0-.26-.07-.36-.2-.09-.12-.14-.25-.14-.38,0-.15.13-.34.38-.59.48-.47.94-.89,1.38-1.27.42-.35.94-.76,1.56-1.22.71-.52,1.2-.9,1.46-1.14.4-.35.6-.7.6-1.05,0-.2-.06-.35-.19-.46-.11-.1-.25-.15-.42-.15-.44,0-.96.25-1.55.74-.27.22-.44.34-.51.34-.05,0-.11-.03-.17-.09-.07-.06-.1-.13-.1-.21,0-.18.21-.42.64-.75.68-.52,1.33-.78,1.96-.78.36,0,.65.11.89.34.23.22.34.49.34.8,0,.55-.28,1.09-.83,1.63-.24.23-.68.59-1.32,1.05-1.54,1.12-2.53,1.95-2.97,2.48Z"/><path class="cls-11" d="M155.38,213.24c-.05.12-.2.43-.43.92-.39.93-.62,1.54-.7,1.83-.04.16-.1.28-.16.34-.06.06-.15.1-.26.1s-.22-.04-.29-.13c-.07-.08-.1-.17-.1-.27,0-.37.33-1.25.98-2.67-.71.08-1.27.2-1.68.37-.13.05-.24.08-.32.08-.2,0-.29-.15-.29-.46,0-.18.07-.36.21-.53.27-.32.73-.8,1.38-1.44.8-.79,1.53-1.43,2.18-1.92.56-.42.97-.64,1.22-.64.11,0,.21.05.31.14.07.08.11.16.11.26,0,.12-.07.3-.22.54-.02.04-.19.31-.48.78-.38.61-.73,1.25-1.05,1.92.34-.02.57-.03.68-.03.29,0,.43.11.43.32,0,.19-.08.33-.23.41-.07.03-.28.05-.62.05-.1,0-.32,0-.64.02ZM154.82,212.56c.53-1.04,1.04-1.9,1.52-2.6-.51.29-1.13.79-1.85,1.49-.52.52-.94.97-1.26,1.35.71-.15,1.24-.23,1.6-.25Z"/><path class="cls-11" d="M160.72,211.89c.24.1.42.22.52.34.15.18.23.43.23.75,0,.8-.33,1.56-1,2.29s-1.36,1.1-2.07,1.1c-.43,0-.79-.18-1.06-.54-.2-.26-.29-.55-.29-.86,0-.52.2-.78.6-.78.24,0,.36.09.36.27,0,.04,0,.09-.01.15-.01.08-.02.17-.02.25,0,.23.06.41.17.53.13.13.28.2.45.2.42,0,.86-.29,1.34-.87.45-.56.68-1.09.68-1.59,0-.25-.06-.45-.18-.6-.13-.16-.31-.23-.55-.23-.09,0-.19.01-.28.04-.11.03-.2.05-.26.05-.14,0-.21-.1-.21-.29,0-.17.06-.3.17-.41.06-.06.2-.12.4-.18.41-.1.75-.24,1.03-.42.18-.12.33-.27.43-.47.05-.1.08-.21.08-.32,0-.14-.04-.25-.11-.31-.08-.07-.19-.1-.35-.1-.26,0-.54.07-.82.21-.07.03-.25.13-.52.3-.07.05-.15.07-.24.07-.17,0-.25-.09-.25-.27,0-.16.12-.33.37-.51.57-.41,1.13-.61,1.68-.61.33,0,.6.1.83.3.24.21.36.47.36.77,0,.4-.17.77-.51,1.11-.19.2-.5.4-.94.62Z"/><path class="cls-11" d="M209.59,213.24c-.05.12-.2.43-.43.92-.39.93-.62,1.54-.7,1.83-.04.16-.1.28-.16.34-.06.06-.15.1-.26.1s-.22-.04-.29-.13c-.07-.08-.1-.17-.1-.27,0-.37.33-1.25.98-2.67-.71.08-1.27.2-1.68.37-.13.05-.24.08-.32.08-.2,0-.29-.15-.29-.46,0-.18.07-.36.21-.53.27-.32.73-.8,1.38-1.44.8-.79,1.53-1.43,2.18-1.92.56-.42.97-.64,1.22-.64.11,0,.21.05.31.14.07.08.11.16.11.26,0,.12-.07.3-.22.54-.02.04-.19.31-.48.78-.38.61-.73,1.25-1.05,1.92.34-.02.57-.03.68-.03.29,0,.43.11.43.32,0,.19-.08.33-.23.41-.07.03-.28.05-.62.05-.1,0-.32,0-.64.02ZM209.03,212.56c.53-1.04,1.04-1.9,1.52-2.6-.51.29-1.13.79-1.85,1.49-.52.52-.94.97-1.26,1.35.71-.15,1.24-.23,1.6-.25Z"/><path class="cls-11" d="M214.72,213.24c-.05.12-.2.43-.43.92-.39.93-.62,1.54-.7,1.83-.04.16-.1.28-.16.34-.06.06-.15.1-.26.1s-.22-.04-.29-.13c-.07-.08-.1-.17-.1-.27,0-.37.33-1.25.98-2.67-.71.08-1.27.2-1.68.37-.13.05-.24.08-.32.08-.2,0-.29-.15-.29-.46,0-.18.07-.36.21-.53.27-.32.73-.8,1.38-1.44.8-.79,1.53-1.43,2.18-1.92.56-.42.97-.64,1.22-.64.11,0,.21.05.31.14.07.08.11.16.11.26,0,.12-.07.3-.22.54-.02.04-.19.31-.48.78-.38.61-.73,1.25-1.05,1.92.34-.02.57-.03.68-.03.29,0,.43.11.43.32,0,.19-.08.33-.23.41-.07.03-.28.05-.62.05-.1,0-.32,0-.64.02ZM214.16,212.56c.53-1.04,1.04-1.9,1.52-2.6-.51.29-1.13.79-1.85,1.49-.52.52-.94.97-1.26,1.35.71-.15,1.24-.23,1.6-.25Z"/><path class="cls-11" d="M263.8,213.24c-.05.12-.2.43-.43.92-.39.93-.62,1.54-.7,1.83-.04.16-.1.28-.16.34-.06.06-.15.1-.26.1s-.22-.04-.29-.13c-.07-.08-.1-.17-.1-.27,0-.37.33-1.25.98-2.67-.71.08-1.27.2-1.68.37-.13.05-.24.08-.32.08-.2,0-.29-.15-.29-.46,0-.18.07-.36.21-.53.27-.32.74-.8,1.38-1.44.8-.79,1.53-1.43,2.17-1.92.56-.42.97-.64,1.22-.64.11,0,.21.05.31.14.07.08.11.16.11.26,0,.12-.07.3-.22.54-.02.04-.19.31-.48.78-.38.61-.73,1.25-1.05,1.92.34-.02.57-.03.68-.03.29,0,.43.11.43.32,0,.19-.08.33-.23.41-.07.03-.28.05-.62.05-.1,0-.31,0-.64.02ZM263.24,212.56c.53-1.04,1.04-1.9,1.52-2.6-.51.29-1.13.79-1.85,1.49-.52.52-.94.97-1.26,1.35.71-.15,1.24-.23,1.6-.25Z"/><path class="cls-11" d="M269.13,209.95c-.83.72-1.36,1.33-1.59,1.85.48-.2.9-.29,1.24-.29.4,0,.71.12.93.35.21.22.31.51.31.86,0,.81-.38,1.62-1.15,2.44-.76.82-1.5,1.22-2.23,1.22-.42,0-.75-.2-.98-.59-.15-.26-.23-.56-.23-.89s.07-.61.22-.83c.12-.18.28-.27.47-.27.18,0,.26.07.26.2,0,.03-.01.09-.04.17-.05.14-.07.33-.07.57,0,.21.05.39.15.55.13.22.31.33.53.33.44,0,.9-.28,1.38-.83.53-.61.79-1.21.79-1.81,0-.25-.06-.44-.17-.56-.11-.12-.28-.19-.51-.19s-.5.06-.82.18c-.07.02-.25.11-.54.26-.06.03-.11.05-.16.05-.09,0-.19-.06-.28-.18-.1-.13-.15-.25-.15-.36,0-.21.21-.59.64-1.16.27-.37.6-.74,1-1.11-.11-.15-.16-.26-.16-.34,0-.11.08-.19.23-.24.07-.02.35-.07.83-.13.54-.07.98-.11,1.32-.11s.55.02.7.07c.18.05.26.17.26.35,0,.22-.11.34-.34.34-.05,0-.15,0-.29-.01-.05,0-.1,0-.17,0-.23,0-.46.01-.69.03-.23.02-.45.05-.68.1Z"/><line class="cls-7" x1="92.61" y1="192.11" x2="430.51" y2="192.11"/><line class="cls-5" x1="105.21" y1="78.47" x2="105.21" y2="192.11"/><line class="cls-5" x1="159.42" y1="78.47" x2="159.42" y2="192.11"/><line class="cls-5" x1="213.63" y1="78.47" x2="213.63" y2="192.11"/><line class="cls-5" x1="267.84" y1="78.47" x2="267.84" y2="192.11"/><circle class="cls-6" cx="105.21" cy="192.11" r="7.2"/><circle class="cls-6" cx="159.42" cy="192.11" r="7.2"/><circle class="cls-6" cx="213.63" cy="192.11" r="7.2"/><circle class="cls-6" cx="267.84" cy="192.11" r="7.2"/><path class="cls-16" d="M444.69,170.17c.28,0,.5-.22.5-.5s-.22-.5-.5-.5H86.64c-.28,0-.5.22-.5.5s.22.5.5.5h358.05"/><path class="cls-16" d="M444.69,142.19c.28,0,.5-.22.5-.5s-.22-.5-.5-.5H86.64c-.28,0-.5.22-.5.5s.22.5.5.5h358.05"/><path class="cls-11" d="M318.05,213.24c-.05.12-.2.43-.43.92-.39.93-.62,1.54-.7,1.83-.04.16-.1.28-.16.34-.06.06-.15.1-.26.1s-.22-.04-.29-.13c-.07-.08-.1-.17-.1-.27,0-.37.33-1.25.98-2.67-.71.08-1.27.2-1.68.37-.13.05-.24.08-.32.08-.2,0-.29-.15-.29-.46,0-.18.07-.36.21-.53.27-.32.74-.8,1.38-1.44.8-.79,1.53-1.43,2.17-1.92.56-.42.97-.64,1.22-.64.11,0,.21.05.31.14.07.08.11.16.11.26,0,.12-.07.3-.22.54-.02.04-.19.31-.48.78-.38.61-.73,1.25-1.05,1.92.34-.02.57-.03.68-.03.29,0,.43.11.43.32,0,.19-.08.33-.23.41-.07.03-.28.05-.62.05-.1,0-.31,0-.64.02ZM317.48,212.56c.53-1.04,1.04-1.9,1.52-2.6-.51.29-1.13.79-1.85,1.49-.52.52-.94.97-1.26,1.35.71-.15,1.24-.23,1.6-.25Z"/><path class="cls-11" d="M321.62,212.12c.73-.27,1.26-.4,1.6-.4.4,0,.7.11.89.34.17.2.26.46.26.78,0,.83-.37,1.64-1.11,2.44-.68.74-1.38,1.11-2.09,1.11-.45,0-.81-.2-1.09-.59-.21-.3-.32-.65-.32-1.05,0-.87.34-1.77,1.01-2.69.58-.8,1.41-1.54,2.49-2.21.32-.21.56-.35.72-.42.15-.07.28-.11.4-.11.19,0,.28.08.28.24,0,.15-.1.27-.29.38-1.02.54-1.93,1.27-2.74,2.18ZM321.02,213.02c-.3.49-.45.98-.45,1.46,0,.32.07.59.22.82.15.23.35.35.59.35.34,0,.69-.16,1.05-.48s.65-.76.87-1.3c.14-.34.21-.64.21-.89,0-.19-.06-.33-.17-.45-.12-.13-.28-.19-.48-.19-.33,0-.73.11-1.2.33-.13.05-.27.13-.43.23-.12.07-.19.12-.2.13Z"/><path class="cls-11" d="M372.26,213.24c-.05.12-.2.43-.43.92-.39.93-.62,1.54-.7,1.83-.04.16-.1.28-.16.34-.06.06-.15.1-.26.1s-.22-.04-.29-.13c-.07-.08-.1-.17-.1-.27,0-.37.33-1.25.98-2.67-.71.08-1.27.2-1.68.37-.13.05-.24.08-.32.08-.2,0-.29-.15-.29-.46,0-.18.07-.36.21-.53.27-.32.74-.8,1.38-1.44.8-.79,1.53-1.43,2.17-1.92.56-.42.97-.64,1.22-.64.11,0,.21.05.31.14.07.08.11.16.11.26,0,.12-.07.3-.22.54-.02.04-.19.31-.48.78-.38.61-.73,1.25-1.05,1.92.34-.02.57-.03.68-.03.29,0,.43.11.43.32,0,.19-.08.33-.23.41-.07.03-.28.05-.62.05-.1,0-.31,0-.64.02ZM371.69,212.56c.53-1.04,1.04-1.9,1.52-2.6-.51.29-1.13.79-1.85,1.49-.52.52-.94.97-1.26,1.35.71-.15,1.24-.23,1.6-.25Z"/><path class="cls-11" d="M378.74,209.9c-1.31.29-2.24.43-2.77.43-.36,0-.53-.12-.53-.35,0-.12.04-.22.12-.3s.17-.12.27-.12c.04,0,.11,0,.21.01.06,0,.14.01.22.01.3,0,.7-.04,1.2-.12.63-.1,1.1-.19,1.4-.27.17-.04.31-.07.42-.07.26,0,.4.14.4.42,0,.19-.11.41-.34.64-1.68,1.8-3,3.57-3.95,5.32-.23.42-.38.67-.44.75-.12.14-.24.21-.37.21-.07,0-.14-.03-.19-.08-.07-.06-.1-.13-.1-.21,0-.25.24-.76.71-1.54.62-1.02,1.38-2.06,2.26-3.11.53-.63,1.02-1.18,1.49-1.63Z"/><path class="cls-11" d="M426.47,213.24c-.05.12-.2.43-.43.92-.39.93-.62,1.54-.7,1.83-.04.16-.1.28-.16.34-.06.06-.15.1-.26.1s-.22-.04-.29-.13c-.07-.08-.1-.17-.1-.27,0-.37.33-1.25.98-2.67-.71.08-1.27.2-1.68.37-.13.05-.24.08-.32.08-.2,0-.29-.15-.29-.46,0-.18.07-.36.21-.53.27-.32.74-.8,1.38-1.44.8-.79,1.53-1.43,2.17-1.92.56-.42.97-.64,1.22-.64.11,0,.21.05.31.14.07.08.11.16.11.26,0,.12-.07.3-.22.54-.02.04-.19.31-.48.78-.38.61-.73,1.25-1.05,1.92.34-.02.57-.03.68-.03.29,0,.43.11.43.32,0,.19-.08.33-.23.41-.07.03-.28.05-.62.05-.1,0-.31,0-.64.02ZM425.91,212.56c.53-1.04,1.04-1.9,1.52-2.6-.51.29-1.13.79-1.85,1.49-.52.52-.94.97-1.26,1.35.71-.15,1.24-.23,1.6-.25Z"/><path class="cls-11" d="M430.76,211.76c-.21-.21-.37-.38-.45-.51-.13-.21-.2-.42-.2-.65,0-.51.26-.94.77-1.28.44-.3.92-.45,1.44-.45.38,0,.68.12.9.35.2.21.29.45.29.74,0,.43-.21.83-.63,1.2-.22.2-.54.43-.94.7.25.25.44.5.57.75s.19.49.19.72c0,.46-.15.91-.46,1.36-.33.48-.75.87-1.27,1.17-.52.3-1.05.45-1.58.45-.46,0-.84-.17-1.13-.5-.22-.25-.33-.53-.33-.83,0-.8.49-1.57,1.46-2.31.51-.4.97-.7,1.37-.92ZM431.26,212.26c-.59.3-1.08.63-1.49,1.01-.57.53-.85,1.04-.85,1.52,0,.28.09.49.26.62.18.12.37.18.56.18.27,0,.56-.08.86-.25.3-.17.56-.39.77-.66.31-.4.47-.82.47-1.25,0-.3-.09-.58-.28-.84-.04-.06-.11-.13-.2-.22-.07-.07-.1-.1-.11-.1ZM431.47,211.32c.29-.16.54-.34.75-.54.26-.26.4-.5.4-.73,0-.15-.05-.27-.14-.37-.1-.12-.24-.18-.4-.18-.28,0-.55.1-.79.3-.21.17-.32.37-.32.59,0,.16.09.36.27.61l.23.31Z"/><line class="cls-5" x1="322.08" y1="78.47" x2="322.08" y2="192.11"/><line class="cls-5" x1="376.29" y1="78.47" x2="376.29" y2="192.11"/><line class="cls-5" x1="430.51" y1="78.47" x2="430.51" y2="192.11"/><circle class="cls-6" cx="322.08" cy="192.11" r="7.2"/><circle class="cls-6" cx="376.29" cy="192.11" r="7.2"/><circle class="cls-6" cx="430.51" cy="192.11" r="7.2"/><path class="cls-11" d="M227.22,338.88c-.44.69-.85,1.46-1.23,2.32-.54,1.22-.81,2.13-.81,2.73,0,.17.04.3.11.39.07.09.18.13.32.13.34,0,.76-.32,1.24-.96.31-.4.58-.79.82-1.19.13-.23.27-.34.42-.34.09,0,.16.03.23.09.05.06.08.12.08.18,0,.25-.33.82-.99,1.69-.79,1.05-1.52,1.58-2.17,1.58-.35,0-.64-.16-.87-.48-.14-.21-.21-.5-.21-.87,0-.83.24-1.79.72-2.89.12-.27.44-.93.96-1.98-.18.05-.33.07-.42.07-.14,0-.27-.03-.38-.1-.15-.1-.23-.22-.23-.36,0-.17.1-.31.3-.41.05-.03.31-.07.76-.13.16-.03.4-.09.72-.19.24-.43.63-1.02,1.17-1.75.3-.41.51-.68.63-.8.16-.17.31-.26.43-.26.09,0,.18.05.27.14.08.09.12.18.12.27,0,.18-.19.53-.57,1.06-.25.34-.44.62-.56.83.76-.21,1.3-.31,1.63-.31.38,0,.56.16.56.47,0,.16-.06.27-.19.35-.07.04-.25.08-.53.1-.12,0-.63.12-1.55.39-.25.08-.5.15-.75.24Z"/><path class="cls-11" d="M231.28,339.34c.12,0,.21.04.29.13.05.08.08.15.08.23,0,.12-.1.33-.3.62-.71,1.1-1.22,2.01-1.52,2.72-.32.73-.6,1.48-.85,2.26-.11.34-.28.51-.51.51-.14,0-.25-.05-.33-.16-.08-.09-.11-.18-.11-.29,0-.21.22-.89.66-2.05.34-.92.9-1.93,1.66-3.04.25-.36.43-.6.55-.73.12-.13.25-.19.38-.19ZM233.23,335.54c.31,0,.46.16.46.47,0,.29-.15.6-.45.95-.29.33-.56.5-.83.5-.13,0-.24-.05-.32-.14-.08-.09-.12-.2-.12-.33,0-.33.18-.68.54-1.05.27-.27.51-.41.72-.41Z"/><path class="cls-11" d="M233.13,342.07c.57-.6,1.08-1.07,1.52-1.42.66-.51,1.11-.77,1.33-.77.11,0,.21.04.29.12.08.08.11.16.11.25,0,.13-.12.34-.36.64-.37.46-.63.86-.77,1.19,1.6-1.61,2.69-2.41,3.28-2.41.12,0,.23.04.32.11.1.08.14.18.14.31,0,.19-.15.44-.44.74-1.29,1.33-1.94,2.43-1.94,3.28,0,.35.06.6.18.75l.27.34c.05.06.08.14.08.24,0,.11-.04.21-.13.31-.1.11-.22.16-.35.16-.23,0-.43-.14-.62-.43-.23-.34-.35-.75-.35-1.21,0-.62.18-1.25.53-1.89.12-.23.33-.53.62-.9-.58.44-1.17,1.04-1.77,1.8-.41.52-.78,1.1-1.11,1.74-.16.31-.34.46-.55.46-.23,0-.35-.13-.35-.39,0-.28.19-.86.57-1.73.22-.5.49-1.03.81-1.58-1.17.9-2.05,2.13-2.64,3.67-.14.34-.33.51-.57.51-.11,0-.2-.04-.27-.12-.08-.08-.11-.18-.11-.3,0-.4.23-1.13.68-2.18.47-1.11,1-2.12,1.6-3,.41-.62.73-.93.95-.93.21,0,.31.11.31.33,0,.1-.13.33-.38.72-.44.72-.74,1.25-.88,1.6Z"/><path class="cls-11" d="M239.62,343.51v.18c0,.15.04.28.11.39.17.25.45.38.84.38.85,0,1.84-.66,2.96-1.97.2-.23.37-.34.5-.34.08,0,.14.04.21.11.04.05.06.11.06.15,0,.27-.33.72-.98,1.35-.51.5-1.06.91-1.64,1.22s-1.12.47-1.62.47-.92-.18-1.21-.53c-.2-.25-.3-.58-.3-1,0-1.16.54-2.29,1.63-3.39.88-.9,1.65-1.35,2.31-1.35.18,0,.34.05.48.16.18.14.27.33.27.56,0,.36-.17.81-.5,1.33-.69,1.09-1.73,1.85-3.12,2.27ZM239.85,342.71c.48-.16.85-.35,1.13-.55.48-.37.86-.79,1.14-1.25.1-.16.15-.31.15-.44,0-.14-.06-.21-.19-.21-.18,0-.43.13-.76.4-.59.47-1.08,1.16-1.47,2.05Z"/><path class="cls-1" d="M253.49,340.47c10.97-1.12,22.95-.62,42.79-2.49"/><path class="cls-11" d="M292.42,341.15c-.1-.13-.07-.32.06-.42l3.67-2.76-4.05-2.16c-.15-.08-.2-.26-.12-.41.08-.15.26-.2.41-.12l4.47,2.38c.09.05.15.14.16.24,0,.1-.04.2-.12.26l-4.05,3.04s-.1.05-.16.06c-.1,0-.2-.03-.26-.12Z"/><g class="cls-17"><rect class="cls-3" x="112.41" y="144.28" width="135.21" height="23.31"/><path d="M119,159v-1.3l3.57-7.71h1.54l-3.49,7.62h5.22v1.38h-6.85ZM123.59,160.64v-6.27h1.46v6.27h-1.46Z"/><path d="M127.51,160.63v-1.3l3.71-4.95c.21-.28.38-.58.5-.88.12-.3.18-.59.18-.86h0c0-.44-.12-.77-.37-1s-.6-.35-1.06-.35c-.43,0-.78.13-1.05.38-.27.26-.44.62-.49,1.09h0s-1.55,0-1.55,0h0c.13-.93.47-1.64,1-2.14.54-.51,1.23-.76,2.07-.76.96,0,1.7.24,2.22.73s.78,1.17.78,2.05h0c0,.38-.08.78-.23,1.19s-.37.81-.65,1.18l-3.08,4.19h4.03v1.42h-6.01Z"/><line class="cls-2" x1="247.62" y1="155.55" x2="139.83" y2="155.55"/><polygon points="141.82 153.85 140.13 155.55 141.82 157.24 140.38 157.24 138.69 155.55 140.38 153.85 141.82 153.85"/><rect class="cls-3" x="172.36" y="116.3" width="100.18" height="23.31"/><path d="M178.86,131.02v-1.3l3.57-7.71h1.54l-3.49,7.62h5.22v1.38h-6.85ZM183.45,132.66v-6.27h1.46v6.27h-1.46Z"/><path d="M190.29,132.76c-.6,0-1.13-.11-1.58-.33-.45-.22-.81-.53-1.09-.94s-.45-.91-.53-1.49h1.52c.07.46.25.79.54,1.01.29.21.67.32,1.13.32.49,0,.88-.13,1.15-.4s.41-.63.41-1.11v-.32c0-.53-.13-.94-.39-1.23s-.62-.44-1.1-.44h-.75v-1.42h.75c.42,0,.74-.12.97-.37.23-.25.34-.6.34-1.05v-.33c0-.42-.12-.74-.36-.97-.24-.23-.58-.34-1.03-.34-.38,0-.7.11-.96.32-.26.21-.44.55-.54,1.01h-1.52c.15-.88.49-1.56,1.01-2.04.52-.48,1.19-.72,2-.72.92,0,1.63.24,2.13.73s.75,1.16.75,2.04v.18c0,.53-.14,1-.43,1.39s-.7.68-1.22.87c.58.12,1.03.41,1.35.85.32.45.48,1.01.48,1.7v.18c0,.93-.27,1.66-.8,2.17s-1.28.77-2.26.77Z"/><line class="cls-2" x1="272.33" y1="127.57" x2="199.79" y2="127.57"/><polygon points="201.78 125.87 200.08 127.57 201.78 129.26 200.34 129.26 198.64 127.57 200.34 125.87 201.78 125.87"/><rect class="cls-3" x="216.73" y="88.18" width="114.72" height="23.31"/><path d="M222.93,102.91v-1.3l3.57-7.71h1.54l-3.49,7.62h5.22v1.38h-6.85ZM227.52,104.55v-6.27h1.46v6.27h-1.46Z"/><path d="M231.46,102.91v-1.3l3.57-7.71h1.54l-3.49,7.62h5.22v1.38h-6.85ZM236.05,104.55v-6.27h1.46v6.27h-1.46Z"/><line class="cls-2" x1="331.45" y1="99.45" x2="244.16" y2="99.45"/><polygon points="246.15 97.76 244.45 99.45 246.15 101.15 244.71 101.15 243.01 99.45 244.71 97.76 246.15 97.76"/><rect class="cls-3" x="35.25" y="116.3" width="114.72" height="23.31"/><path d="M41.84,131.02v-1.3l3.57-7.71h1.54l-3.49,7.62h5.22v1.38h-6.85ZM46.43,132.66v-6.27h1.46v6.27h-1.46Z"/><path d="M50.36,132.65v-1.3l3.71-4.95c.21-.28.38-.58.5-.88s.18-.59.18-.86h0c0-.44-.12-.77-.37-1s-.6-.35-1.06-.35c-.43,0-.78.13-1.05.38-.27.26-.44.62-.49,1.09h0s-1.55,0-1.55,0h0c.13-.93.47-1.64,1-2.14.54-.51,1.23-.76,2.07-.76.96,0,1.7.24,2.22.73s.78,1.17.78,2.05h0c0,.38-.08.78-.23,1.19s-.37.81-.65,1.18l-3.08,4.19h4.03v1.42h-6.01Z"/><line class="cls-2" x1="149.97" y1="127.57" x2="62.68" y2="127.57"/><polygon points="64.67 125.87 62.97 127.57 64.67 129.26 63.23 129.26 61.54 127.57 63.23 125.87 64.67 125.87"/><rect class="cls-3" x="-19.17" y="144.28" width="114.72" height="23.31"/><path d="M-4.06,160.63v-1.3l3.71-4.95c.21-.28.38-.58.5-.88s.18-.59.18-.86H.33c0-.44-.12-.77-.37-1s-.6-.35-1.06-.35c-.43,0-.78.13-1.05.38-.27.26-.44.62-.49,1.09h0s-1.55,0-1.55,0h0c.13-.93.47-1.64,1-2.14.54-.51,1.23-.76,2.07-.76.96,0,1.7.24,2.22.73s.78,1.17.78,2.05h0c0,.38-.08.78-.23,1.19s-.37.81-.65,1.18l-3.08,4.19H1.94v1.42h-6.01Z"/><line class="cls-2" x1="95.55" y1="155.55" x2="8.26" y2="155.55"/><polygon points="10.25 153.85 8.55 155.55 10.25 157.24 8.81 157.24 7.11 155.55 8.81 153.85 10.25 153.85"/><rect class="cls-3" x="77.24" y="88.18" width="114.72" height="23.31"/><path d="M85.39,102.91v-1.3l3.57-7.71h1.54l-3.49,7.62h5.22v1.38h-6.85ZM89.99,104.55v-6.27h1.46v6.27h-1.46Z"/><path d="M96.28,93.89v10.65h-1.49v-9.02l-1.52.93v-1.55l1.52-1.01h1.49Z"/><line class="cls-2" x1="191.96" y1="99.45" x2="104.67" y2="99.45"/><polygon points="106.66 97.76 104.96 99.45 106.66 101.15 105.22 101.15 103.53 99.45 105.22 97.76 106.66 97.76"/><g class="cls-15"><use width="173.22" height="24.31" transform="translate(307.24 115.65)" xlink:href="#Kernel_Execution"/></g><g class="cls-10"><use width="173.22" height="24.31" transform="translate(357.48 87.88)" xlink:href="#Kernel_Execution"/></g><rect class="cls-3" x="271.09" y="144.28" width="117.71" height="23.31"/><path d="M277.47,159v-1.3l3.57-7.71h1.54l-3.49,7.62h5.22v1.38h-6.85ZM282.06,160.64v-6.27h1.46v6.27h-1.46Z"/><path d="M289.12,160.74c-.81,0-1.48-.23-2-.7-.52-.47-.85-1.12-.98-1.97h0s1.49,0,1.49,0h0c.05.4.21.7.47.92s.6.33,1.01.33c.48,0,.85-.16,1.11-.48.26-.32.39-.77.39-1.35v-.89c0-.58-.13-1.03-.39-1.35-.26-.32-.63-.48-1.11-.48-.26,0-.51.07-.75.22s-.45.35-.63.62h-1.36v-5.61h5.43v1.42h-3.93v2.4c.19-.15.39-.27.62-.35s.46-.12.7-.12c.93,0,1.65.28,2.15.85s.76,1.37.76,2.41v.89c0,1.04-.26,1.84-.78,2.41s-1.26.85-2.21.85Z"/><line class="cls-2" x1="388.8" y1="155.55" x2="298.51" y2="155.55"/><polygon points="300.51 153.85 298.81 155.55 300.51 157.24 299.07 157.24 297.37 155.55 299.07 153.85 300.51 153.85"/></g><path class="cls-16" d="M444.69,114.21c.28,0,.5-.22.5-.5s-.22-.5-.5-.5H86.64c-.28,0-.5.22-.5.5s.22.5.5.5h358.05"/><path class="cls-16" d="M444.69,86.23c.28,0,.5-.22.5-.5s-.22-.5-.5-.5H86.64c-.28,0-.5.22-.5.5s.22.5.5.5h358.05"/><path class="cls-11" d="M404,70.82h-16.5l7.75,6.52v142.8c0,.28.22.5.5.5s.5-.22.5-.5V77.35l7.75-6.52Z"/><line class="cls-1" x1="92.61" y1="78.47" x2="92.61" y2="193.1"/><path d="M54.73,160.63v-5.68h.8v5.68h-.8ZM55.03,160.04l.05-.95,2.09-2.52h.94l-3.07,3.46ZM57.43,160.63l-1.41-2.34.51-.53,1.77,2.87h-.87Z"/><path d="M60.62,160.69c-.56,0-1-.16-1.31-.47s-.46-.76-.46-1.34v-.46c0-.6.15-1.07.45-1.4s.72-.5,1.26-.5c.51,0,.91.19,1.19.56s.42.9.42,1.58v.27h-2.73v-.64h1.98c-.02-.33-.11-.58-.26-.77s-.34-.28-.59-.28c-.3,0-.53.1-.7.3s-.25.48-.25.84v.52c0,.34.09.59.27.77s.43.27.75.27c.16,0,.32-.03.48-.1s.3-.16.43-.27l.52.52c-.2.19-.43.34-.68.45s-.5.16-.75.16Z"/><path d="M63.25,160.63v-4.05h.8v4.05h-.8ZM65.48,157.54c-.07-.09-.16-.15-.27-.2s-.23-.07-.37-.07c-.25,0-.45.07-.59.21s-.21.33-.21.58l-.08-.78c.12-.24.28-.43.48-.56s.42-.2.66-.2c.19,0,.35.03.5.08s.28.13.39.24l-.52.7Z"/><path d="M66.67,160.63v-4.05h.8v4.05h-.8ZM69.13,160.63v-2.46c0-.29-.07-.51-.22-.66s-.36-.23-.63-.23-.46.07-.6.21-.21.33-.21.58l-.08-.78c.12-.24.29-.43.49-.57s.43-.2.67-.2c.44,0,.78.14,1.02.43s.36.69.36,1.22v2.46h-.8Z"/><path d="M72.8,160.69c-.56,0-1-.16-1.31-.47s-.46-.76-.46-1.34v-.46c0-.6.15-1.07.45-1.4s.72-.5,1.26-.5c.51,0,.91.19,1.19.56s.42.9.42,1.58v.27h-2.73v-.64h1.98c-.02-.33-.11-.58-.26-.77s-.34-.28-.59-.28c-.3,0-.53.1-.7.3s-.25.48-.25.84v.52c0,.34.09.59.27.77s.43.27.75.27c.16,0,.32-.03.48-.1s.3-.16.43-.27l.52.52c-.2.19-.43.34-.68.45s-.5.16-.75.16Z"/><path d="M76.22,154.95v4.63c0,.1.02.17.06.23s.1.08.18.08h.38v.76h-.47c-.3,0-.53-.09-.7-.28s-.25-.45-.25-.79v-4.62h.8Z"/><path d="M79.76,160.63v-.69l1.98-2.64c.11-.15.2-.31.27-.47s.1-.31.1-.46h0c0-.23-.07-.41-.2-.54s-.32-.19-.57-.19c-.23,0-.42.07-.56.21s-.23.33-.26.58h0s-.82,0-.82,0h0c.07-.49.25-.87.54-1.14s.65-.4,1.11-.4c.51,0,.9.13,1.18.39s.42.62.42,1.09h0c0,.2-.04.41-.12.63s-.2.43-.35.63l-1.64,2.23h2.15v.76h-3.2Z"/><path d="M54.45,102.71v-5.68h.8v5.68h-.8ZM54.74,102.11l.05-.95,2.09-2.52h.94l-3.07,3.46ZM57.15,102.71l-1.41-2.34.51-.53,1.77,2.87h-.87Z"/><path d="M60.34,102.76c-.56,0-1-.16-1.31-.47s-.46-.76-.46-1.34v-.46c0-.6.15-1.07.45-1.4s.72-.5,1.26-.5c.51,0,.91.19,1.19.56s.42.9.42,1.58v.27h-2.73v-.64h1.98c-.02-.33-.11-.58-.26-.77s-.34-.28-.59-.28c-.3,0-.53.1-.7.3s-.25.48-.25.84v.52c0,.34.09.59.27.77s.43.27.75.27c.16,0,.32-.03.48-.1s.3-.16.43-.27l.52.52c-.2.19-.43.34-.68.45s-.5.16-.75.16Z"/><path d="M62.97,102.71v-4.05h.8v4.05h-.8ZM65.2,99.61c-.07-.09-.16-.15-.27-.2s-.23-.07-.37-.07c-.25,0-.45.07-.59.21s-.21.33-.21.58l-.08-.78c.12-.24.28-.43.48-.56s.42-.2.66-.2c.19,0,.35.03.5.08s.28.13.39.24l-.52.7Z"/><path d="M66.39,102.71v-4.05h.8v4.05h-.8ZM68.85,102.71v-2.46c0-.29-.07-.51-.22-.66s-.36-.23-.63-.23-.46.07-.6.21-.21.33-.21.58l-.08-.78c.12-.24.29-.43.49-.57s.43-.2.67-.2c.44,0,.78.14,1.02.43s.36.69.36,1.22v2.46h-.8Z"/><path d="M72.51,102.76c-.56,0-1-.16-1.31-.47s-.46-.76-.46-1.34v-.46c0-.6.15-1.07.45-1.4s.72-.5,1.26-.5c.51,0,.91.19,1.19.56s.42.9.42,1.58v.27h-2.73v-.64h1.98c-.02-.33-.11-.58-.26-.77s-.34-.28-.59-.28c-.3,0-.53.1-.7.3s-.25.48-.25.84v.52c0,.34.09.59.27.77s.43.27.75.27c.16,0,.32-.03.48-.1s.3-.16.43-.27l.52.52c-.2.19-.43.34-.68.45s-.5.16-.75.16Z"/><path d="M75.94,97.03v4.63c0,.1.02.17.06.23s.1.08.18.08h.38v.76h-.47c-.3,0-.53-.09-.7-.28s-.25-.45-.25-.79v-4.62h.8Z"/><path d="M81.19,102.76c-.54,0-.95-.15-1.22-.44s-.4-.68-.4-1.18v-2.58c0-.5.14-.9.41-1.18s.68-.43,1.21-.43.94.14,1.21.43.41.68.41,1.19v2.58c0,.5-.14.9-.41,1.18s-.68.43-1.21.43ZM81.19,102.01c.29,0,.5-.08.63-.23s.19-.36.19-.63v-2.58c0-.27-.06-.48-.19-.63s-.34-.23-.63-.23-.5.08-.63.23-.19.36-.19.63v2.58c0,.27.06.47.19.63s.34.23.63.23Z"/><path d="M56.21,130.02v-5.68h.8v5.68h-.8ZM56.5,129.43l.05-.95,2.09-2.52h.94l-3.07,3.46ZM58.9,130.02l-1.41-2.34.51-.53,1.77,2.87h-.87Z"/><path d="M62.1,130.08c-.56,0-1-.16-1.31-.47s-.46-.76-.46-1.34v-.46c0-.6.15-1.07.45-1.4s.72-.5,1.26-.5c.51,0,.91.19,1.19.56s.42.9.42,1.58v.27h-2.73v-.64h1.98c-.02-.33-.11-.58-.26-.77s-.34-.28-.59-.28c-.3,0-.53.1-.7.3s-.25.48-.25.84v.52c0,.34.09.59.27.77s.43.27.75.27c.16,0,.32-.03.48-.1s.3-.16.43-.27l.52.52c-.2.19-.43.34-.68.45s-.5.16-.75.16Z"/><path d="M64.72,130.02v-4.05h.8v4.05h-.8ZM66.96,126.93c-.07-.09-.16-.15-.27-.2s-.23-.07-.37-.07c-.25,0-.45.07-.59.21s-.21.33-.21.58l-.08-.78c.12-.24.28-.43.48-.56s.42-.2.66-.2c.19,0,.35.03.5.08s.28.13.39.24l-.52.7Z"/><path d="M68.14,130.02v-4.05h.8v4.05h-.8ZM70.6,130.02v-2.46c0-.29-.07-.51-.22-.66s-.36-.23-.63-.23-.46.07-.6.21-.21.33-.21.58l-.08-.78c.12-.24.29-.43.49-.57s.43-.2.67-.2c.44,0,.78.14,1.02.43s.36.69.36,1.22v2.46h-.8Z"/><path d="M74.27,130.08c-.56,0-1-.16-1.31-.47s-.46-.76-.46-1.34v-.46c0-.6.15-1.07.45-1.4s.72-.5,1.26-.5c.51,0,.91.19,1.19.56s.42.9.42,1.58v.27h-2.73v-.64h1.98c-.02-.33-.11-.58-.26-.77s-.34-.28-.59-.28c-.3,0-.53.1-.7.3s-.25.48-.25.84v.52c0,.34.09.59.27.77s.43.27.75.27c.16,0,.32-.03.48-.1s.3-.16.43-.27l.52.52c-.2.19-.43.34-.68.45s-.5.16-.75.16Z"/><path d="M77.69,124.34v4.63c0,.1.02.17.06.23s.1.08.18.08h.38v.76h-.47c-.3,0-.53-.09-.7-.28s-.25-.45-.25-.79v-4.62h.8Z"/><path d="M82.69,124.34v5.68h-.8v-4.81l-.81.5v-.82l.81-.54h.8Z"/><path class="cls-11" d="M60.42,36.37c.18-.02.34.05.47.21.09.1.14.21.15.34.02.2-.15.49-.5.86-.98,1.11-1.51,2.36-1.57,3.76-.02.26-.12.46-.31.61-.17.14-.33.21-.51.23-.4.03-.63-.2-.67-.71-.07-.81.29-1.89,1.06-3.25.31-.56.7-1.07,1.15-1.55.29-.32.53-.48.73-.5ZM63.46,36.11c.17-.02.33.06.47.21.09.1.14.21.15.35.02.2-.15.49-.5.86-.98,1.11-1.51,2.36-1.57,3.76-.02.26-.12.46-.31.61-.17.14-.33.21-.51.23-.4.03-.63-.2-.67-.71-.07-.81.29-1.89,1.06-3.25.32-.57.71-1.08,1.15-1.55.29-.32.53-.48.73-.5Z"/><path class="cls-11" d="M70.1,44.5c-.49.93-.94,1.97-1.33,3.1-.56,1.62-.81,2.81-.74,3.58.02.22.08.38.18.49.1.11.24.15.43.14.44-.04.93-.49,1.48-1.37.35-.54.66-1.08.92-1.61.14-.3.31-.46.5-.48.11,0,.21.02.3.09.08.07.12.15.12.23.03.32-.34,1.08-1.09,2.28-.9,1.43-1.77,2.19-2.61,2.26-.45.04-.84-.14-1.17-.52-.21-.25-.33-.61-.37-1.09-.09-1.06.11-2.32.61-3.78.12-.36.46-1.24,1.02-2.64-.23.08-.41.13-.53.14-.18.02-.35-.01-.5-.09-.2-.11-.31-.25-.33-.44-.02-.22.09-.4.34-.56.07-.04.39-.13.96-.25.21-.05.51-.16.9-.33.26-.58.7-1.37,1.31-2.37.34-.56.58-.92.71-1.09.19-.24.37-.36.52-.38.11,0,.23.04.36.16.12.1.18.21.19.33.02.23-.19.7-.62,1.42-.29.47-.5.84-.63,1.13.95-.35,1.63-.54,2.05-.57.48-.04.74.14.77.54.02.2-.05.36-.21.47-.08.06-.31.12-.67.19-.15,0-.8.23-1.94.67-.32.12-.63.25-.93.38Z"/><path class="cls-11" d="M73.39,50.2l.02.24c.02.19.08.36.19.49.25.31.62.44,1.12.39,1.1-.09,2.29-1.04,3.58-2.84.23-.31.43-.47.61-.49.1,0,.19.03.28.12.06.07.09.13.09.19.03.34-.34.96-1.11,1.84-.6.69-1.26,1.27-1.97,1.74-.71.47-1.39.73-2.02.78-.66.06-1.19-.13-1.61-.55-.28-.29-.44-.71-.49-1.26-.12-1.48.45-2.99,1.72-4.52,1.03-1.25,1.97-1.91,2.81-1.98.23-.02.44.03.64.16.24.17.38.4.4.69.04.46-.13,1.05-.5,1.76-.77,1.48-2.01,2.56-3.75,3.24ZM73.59,49.16c.59-.26,1.06-.54,1.38-.83.57-.52,1.01-1.1,1.32-1.73.11-.22.16-.42.15-.58-.01-.18-.11-.26-.27-.24-.23.02-.54.22-.93.59-.7.67-1.25,1.6-1.66,2.79Z"/><path class="cls-11" d="M81.85,47.62c.67-.83,1.27-1.49,1.79-1.98.79-.73,1.33-1.11,1.62-1.13.14-.01.27.03.38.13.11.09.16.19.17.3.01.17-.12.45-.39.85-.42.64-.71,1.17-.86,1.61,1.88-2.23,3.19-3.38,3.94-3.44.16-.01.3.02.42.11.13.09.2.22.22.38.02.25-.14.58-.48.99-1.51,1.85-2.22,3.32-2.13,4.41.04.45.14.76.32.94l.38.4c.08.07.12.17.13.29.01.14-.03.28-.14.41-.12.15-.26.23-.43.25-.29.02-.57-.14-.85-.48-.33-.41-.53-.92-.58-1.51-.07-.8.09-1.62.48-2.47.13-.3.36-.71.69-1.22-.7.62-1.39,1.46-2.08,2.5-.47.71-.88,1.49-1.23,2.35-.17.41-.39.63-.66.65-.3.03-.46-.13-.49-.46-.03-.36.15-1.12.55-2.28.23-.66.51-1.37.87-2.11-1.4,1.28-2.39,2.95-2.98,4.99-.15.45-.37.69-.68.72-.14.01-.26-.03-.36-.13-.11-.1-.16-.22-.18-.37-.04-.52.17-1.47.63-2.87.48-1.48,1.06-2.82,1.72-4.02.46-.84.83-1.27,1.12-1.3.26-.02.41.11.43.39,0,.12-.13.44-.41.96-.49.97-.81,1.68-.96,2.15Z"/><path class="cls-11" d="M92.7,44.08c.34-.26.59-.44.76-.54.34-.21.69-.32,1.03-.35.38-.03.68.05.9.26.21.21.34.53.37.98.05.61-.1,1.37-.46,2.26-.55,1.41-1.27,2.55-2.15,3.41-.74.72-1.46,1.12-2.16,1.18-.38.03-.78-.08-1.18-.35-.99,2.53-1.86,5.09-2.59,7.69-.15.62-.36.94-.63.97-.13.01-.27-.07-.42-.23-.11-.12-.17-.25-.18-.4-.04-.47.41-2.06,1.34-4.76,1.45-4.16,2.86-7.64,4.24-10.43.29-.59.48-.99.57-1.21.26-.6.53-.9.82-.93.3-.02.46.14.49.5.02.2-.07.48-.25.84-.22.46-.39.83-.51,1.1ZM90.21,49.79c.21.19.46.27.75.24.81-.07,1.66-.87,2.52-2.4.32-.57.57-1.14.74-1.72.14-.46.2-.81.18-1.03-.01-.16-.06-.27-.14-.34-.08-.07-.2-.1-.36-.09-.41.03-.89.36-1.44.98-.52.6-1,1.42-1.45,2.46-.4.96-.67,1.59-.8,1.89Z"/><path class="cls-11" d="M100.96,41.88c.72-.06,1.11.35,1.19,1.22.1,1.17-.32,2.69-1.24,4.56-1.01,2.03-2.06,3.1-3.16,3.19-.51.04-.9-.16-1.18-.61-.14-.23-.23-.51-.26-.84-.09-1.12.19-2.37.85-3.75.62-1.28,1.38-2.3,2.29-3.05.54-.44,1.04-.68,1.5-.72ZM100.01,46.96c-.23-.16-.36-.28-.36-.38,0-.07.12-.27.37-.61.71-.95,1.05-1.7,1-2.24,0-.07-.03-.14-.08-.2-.08-.12-.2-.18-.34-.17-.28.02-.67.33-1.17.92-.64.76-1.11,1.53-1.42,2.3-.36.89-.51,1.61-.46,2.17.01.15.06.28.15.38.13.15.28.21.45.2.42-.04.84-.39,1.27-1.06.19-.28.33-.57.44-.86.11-.29.16-.44.15-.45Z"/><path class="cls-11" d="M104.87,45.73c.78-.99,1.69-1.97,2.74-2.94.38-.35.78-.68,1.21-.99.22-.15.36-.23.42-.23.13-.01.27.07.42.26.09.1.13.19.14.28.01.16-.13.39-.45.69-.83.79-1.23,1.36-1.2,1.72.02.2.14.29.37.27.38-.03,1-.4,1.87-1.1.15-.12.28-.18.38-.19.07,0,.14.02.22.09.09.07.13.15.14.24.02.26-.31.7-1,1.3-.72.64-1.43.99-2.12,1.05-.28.02-.54-.03-.79-.16-.21-.11-.33-.32-.36-.63-.02-.22.05-.48.21-.77-.65.55-1.39,1.46-2.23,2.73-.48.78-.94,1.73-1.38,2.86-.17.42-.4.64-.7.67-.32.03-.5-.11-.53-.42-.03-.3.16-1.12.56-2.46.59-1.99,1.25-3.55,1.98-4.68.45-.7.85-1.06,1.19-1.09.11,0,.22.02.32.08.12.08.19.18.2.31.01.13-.06.32-.22.57-.03.05-.24.36-.62.94-.35.55-.61,1.09-.78,1.61Z"/><path class="cls-11" d="M114.75,47.06c-.25.53-.49.99-.75,1.36-.49.73-1.01,1.12-1.56,1.16-.47.04-.86-.15-1.16-.58-.19-.27-.3-.61-.34-1-.08-.97.13-2.07.65-3.3.57-1.36,1.31-2.44,2.21-3.22.59-.51,1.18-.79,1.77-.84.37-.03.68.06.95.26.23.18.35.4.37.66.02.19-.04.47-.16.82.15.17.23.33.24.47.02.18-.08.5-.29.94-.22.45-.42,1.04-.62,1.77-.21.78-.29,1.39-.25,1.85.03.37.17.66.41.88.07.06.25.14.56.26.23.09.35.26.38.52.01.17-.04.31-.15.42-.12.13-.27.2-.45.21-.47.04-.9-.14-1.28-.53-.31-.32-.49-.74-.53-1.25-.01-.18-.02-.47-.02-.87ZM116.02,42.6c-.12-.18-.25-.32-.38-.4-.13-.08-.27-.12-.41-.1-.67.06-1.34.7-2.02,1.93-.75,1.36-1.09,2.49-1.01,3.38.02.22.07.38.17.49.09.11.22.15.39.14.42-.04.87-.52,1.36-1.46.27-.52.6-1.27.99-2.27.25-.65.44-1.08.57-1.29.06-.11.18-.25.35-.41Z"/><path class="cls-11" d="M119.82,44.42c-.21.71-.35,1.27-.45,1.71-.1.43-.14.73-.12.9.02.22.13.32.34.3.32-.03.7-.36,1.15-1,.21-.31.52-.86.92-1.65.16-.31.34-.48.54-.5.23-.02.35.08.37.3.03.38-.34,1.17-1.11,2.4-.8,1.28-1.59,1.95-2.36,2.01-.33.03-.62-.09-.85-.35-.17-.19-.26-.43-.29-.72-.04-.49.05-1.18.27-2.07.22-.89.58-1.98,1.06-3.28,1.24-3.29,2.56-6.02,3.95-8.21,1.11-1.75,2.08-2.66,2.9-2.73.26-.02.49.06.67.25.19.19.3.41.32.67.1,1.23-.82,3.36-2.77,6.4-.87,1.35-1.94,2.72-3.2,4.11-.33.36-.78.85-1.36,1.46ZM120.57,42.25c1.69-1.71,3.15-3.82,4.39-6.33.64-1.3.94-2.15.91-2.55-.02-.19-.11-.28-.27-.27-.48.04-1.28,1.07-2.38,3.1-.92,1.67-1.8,3.68-2.64,6.05Z"/><path class="cls-11" d="M132.18,41.52c1.1-3,2.21-5.47,3.33-7.39.76-1.3,1.41-2.25,1.93-2.86.36-.43.68-.65.96-.68.11,0,.2.02.28.08.13.08.2.19.21.34.02.19-.11.48-.39.87-1.75,2.37-3.28,5.16-4.58,8.38,1.36-.65,2.31-1,2.86-1.05.4-.03.74.04,1.02.22.29.19.45.42.47.69.01.14-.03.27-.11.39-.12.18-.28.27-.49.29-.15.01-.45-.09-.91-.29-.13-.05-.29-.07-.48-.05-.88.07-1.89.56-3.05,1.46.55.2.95.49,1.2.88.35.54.55,1.23.62,2.06.18,2.15-.27,4.46-1.34,6.95-.47,1.06-.93,1.88-1.41,2.45-.5.62-1.04.95-1.62,1-.44.04-.81-.14-1.12-.54-.25-.33-.4-.8-.45-1.4-.11-1.3.21-3.29.98-5.97.1-.33.38-1.17.84-2.52.12-.34.24-.69.35-1.08-.07.02-.13.04-.19.04-.24.02-.37-.1-.39-.36-.04-.46.45-1.1,1.48-1.91ZM132.77,43.21c-.41.97-.93,2.52-1.56,4.66-.65,2.18-.93,3.85-.83,5.02.02.23.09.42.22.59.14.17.29.24.46.23.54-.05,1.18-1.02,1.91-2.91.83-2.12,1.17-4.02,1.03-5.71-.06-.66-.22-1.14-.51-1.45-.11-.12-.34-.26-.71-.42Z"/><path class="cls-11" d="M139.43,42.8c.78-.99,1.69-1.97,2.74-2.94.38-.35.78-.68,1.21-.99.22-.15.36-.23.42-.23.13-.01.27.07.42.26.09.1.14.19.14.28.01.16-.13.39-.44.69-.83.79-1.23,1.36-1.2,1.72.02.2.14.29.37.27.38-.03,1-.4,1.87-1.1.15-.12.28-.18.38-.19.07,0,.14.02.22.09.09.07.13.15.14.24.02.26-.31.7-1,1.3-.72.64-1.43.99-2.12,1.05-.28.02-.54-.03-.79-.16-.21-.11-.33-.32-.36-.63-.02-.22.05-.48.21-.77-.65.55-1.39,1.46-2.23,2.73-.48.78-.94,1.73-1.39,2.86-.17.42-.4.64-.7.67-.32.03-.5-.11-.52-.42-.03-.3.16-1.12.56-2.46.59-1.99,1.25-3.55,1.99-4.68.45-.7.85-1.06,1.19-1.09.11,0,.22.02.33.08.12.08.19.18.2.31.01.13-.06.32-.22.57-.03.05-.24.36-.62.94-.35.55-.61,1.09-.78,1.61Z"/><path class="cls-11" d="M149.31,44.13c-.25.53-.49.99-.75,1.36-.49.73-1.01,1.12-1.55,1.16-.47.04-.86-.15-1.16-.58-.19-.27-.3-.61-.34-1-.08-.97.13-2.07.65-3.3.57-1.36,1.31-2.44,2.21-3.22.59-.51,1.18-.79,1.77-.84.37-.03.68.06.95.26.23.18.35.4.37.66.02.19-.04.47-.16.82.15.17.23.33.24.47.02.18-.08.5-.29.94-.22.45-.42,1.04-.62,1.77-.21.78-.29,1.39-.25,1.85.03.37.17.66.41.88.07.06.25.14.56.26.23.09.35.26.38.52.01.17-.04.31-.15.42-.12.13-.27.19-.44.21-.47.04-.9-.14-1.28-.53-.31-.32-.49-.74-.53-1.25-.01-.18-.02-.47-.02-.87ZM150.59,39.67c-.12-.18-.25-.32-.38-.4-.13-.08-.27-.12-.41-.1-.67.06-1.34.7-2.02,1.93-.75,1.36-1.09,2.49-1.01,3.38.02.22.07.38.17.49.09.11.22.15.39.14.42-.04.87-.52,1.36-1.46.27-.52.6-1.27.99-2.27.25-.65.44-1.08.57-1.29.06-.11.18-.25.35-.41Z"/><path class="cls-11" d="M156.43,44.58c.88-.76,1.52-1.44,1.93-2.04.61-.87,1.03-1.57,1.26-2.1.12-.24.25-.37.4-.38.21-.02.32.07.34.27.02.24-.11.65-.4,1.23-.89,1.77-2.32,3.37-4.28,4.79-.79,2.1-1.39,3.52-1.78,4.28-1.05,1.99-2.11,3.04-3.17,3.13-.56.05-.98-.14-1.26-.55-.16-.24-.26-.52-.28-.85-.12-1.38.66-2.77,2.32-4.18.26-.23,1.34-.99,3.24-2.26.32-.85.56-1.51.73-1.99-.84,1.04-1.56,1.59-2.16,1.64-.38.03-.69-.14-.93-.5-.15-.24-.24-.5-.26-.77-.05-.63.14-1.46.57-2.5.61-1.49,1.4-2.69,2.37-3.61.81-.76,1.55-1.18,2.21-1.23.34-.03.65.07.91.31.18.15.29.39.31.71.03.4-.06.91-.28,1.53.22.18.33.31.34.41,0,.06-.03.15-.11.27-.21.34-.54.99-.99,1.92-.4.82-.74,1.65-1.02,2.48ZM154.08,47.5c-1.11.59-2.07,1.42-2.87,2.49-.37.5-.62,1.01-.76,1.55-.04.16-.05.3-.05.4,0,.11.04.21.1.3.11.15.25.22.43.2.54-.05,1.13-.68,1.76-1.91.55-1.06,1.01-2.07,1.38-3.03ZM156.08,41.55c-.13-.12-.2-.21-.21-.26,0-.08.05-.18.17-.32.4-.46.72-.92.95-1.4.19-.38.27-.67.26-.87-.02-.24-.14-.35-.36-.33-.38.03-.88.44-1.52,1.21-.76.92-1.33,1.92-1.7,3.02-.18.54-.26.96-.24,1.24.01.16.06.27.14.35.08.07.18.1.31.09.31-.03.71-.38,1.21-1.06.32-.43.58-.85.79-1.26.14-.27.21-.41.2-.41Z"/><path class="cls-11" d="M162.69,40.78c.67-.83,1.27-1.49,1.79-1.98.79-.73,1.34-1.11,1.62-1.13.14-.01.27.03.38.13.1.09.16.19.17.3.01.17-.12.45-.39.85-.42.64-.71,1.17-.86,1.61,1.88-2.23,3.19-3.38,3.94-3.44.16-.01.3.02.42.11.13.09.2.22.22.38.02.25-.14.58-.48.99-1.51,1.85-2.22,3.32-2.13,4.41.04.45.14.76.32.94l.38.4c.08.07.12.17.13.29.01.14-.03.28-.14.41-.12.15-.26.23-.43.25-.29.02-.57-.14-.85-.48-.33-.41-.53-.92-.58-1.51-.07-.8.09-1.62.48-2.48.13-.3.36-.71.69-1.22-.7.62-1.39,1.46-2.08,2.5-.47.71-.88,1.49-1.23,2.35-.17.41-.39.63-.66.65-.3.02-.46-.13-.49-.46-.03-.36.15-1.12.55-2.28.23-.66.52-1.37.87-2.11-1.4,1.28-2.39,2.95-2.98,4.99-.15.45-.37.69-.68.72-.14.01-.26-.03-.35-.13-.11-.1-.17-.22-.18-.37-.04-.52.17-1.47.63-2.87.48-1.48,1.06-2.82,1.72-4.02.46-.84.83-1.27,1.12-1.3.26-.02.41.11.43.39.01.12-.13.44-.41.96-.49.97-.81,1.68-.96,2.15Z"/><path class="cls-11" d="M171.17,41.93l.02.24c.02.19.08.36.19.49.25.31.62.44,1.12.39,1.1-.09,2.29-1.04,3.58-2.84.23-.31.43-.47.61-.49.1,0,.19.03.27.12.06.07.09.13.1.19.03.34-.34.96-1.11,1.84-.6.69-1.26,1.27-1.97,1.74-.71.47-1.38.73-2.02.78-.66.06-1.19-.13-1.61-.55-.28-.29-.44-.71-.49-1.26-.12-1.48.45-2.99,1.72-4.52,1.03-1.25,1.97-1.91,2.81-1.98.23-.02.44.03.64.16.24.17.38.4.4.69.04.46-.13,1.05-.5,1.76-.77,1.48-2.01,2.56-3.75,3.24ZM171.37,40.88c.6-.26,1.06-.54,1.39-.83.57-.52,1.01-1.1,1.32-1.73.11-.22.16-.42.15-.58-.01-.18-.11-.26-.27-.24-.23.02-.54.22-.93.59-.7.67-1.25,1.6-1.66,2.79Z"/><path class="cls-11" d="M179.79,39.2c.1-.12.21-.23.3-.34,1.68-1.94,2.83-2.94,3.45-2.99.34-.03.53.14.56.52.02.26-.1.59-.38.97-1.51,2.09-2.2,3.89-2.07,5.38.04.48.21.93.51,1.35.14.19.21.34.22.46,0,.1-.04.21-.13.32-.1.13-.23.21-.39.22-.36.03-.68-.17-.96-.61-.27-.41-.43-.92-.49-1.53-.1-1.18.24-2.53,1.01-4.04-1.13.86-2.12,2.31-2.98,4.33-.22.49-.48.74-.78.77-.15.01-.28-.03-.38-.13-.13-.11-.21-.26-.22-.46-.04-.47.39-1.76,1.3-3.85.49-1.13.87-1.96,1.17-2.48.29-.51.56-.77.79-.79.11,0,.23.03.34.13.13.11.21.25.22.4.02.19-.09.48-.31.86-.32.57-.58,1.08-.77,1.53Z"/><path class="cls-11" d="M188.75,34.46c-.5.93-.94,1.97-1.33,3.1-.56,1.62-.81,2.81-.74,3.58.02.22.08.38.18.49.1.11.25.15.43.14.44-.04.93-.49,1.49-1.37.35-.54.66-1.08.92-1.61.14-.3.31-.46.5-.48.11,0,.21.02.3.09.08.07.12.15.12.23.03.32-.34,1.08-1.09,2.28-.9,1.44-1.77,2.19-2.61,2.26-.45.04-.84-.14-1.17-.52-.21-.25-.33-.61-.37-1.09-.09-1.06.11-2.32.61-3.78.12-.36.46-1.24,1.02-2.64-.23.08-.41.13-.53.14-.18.02-.35-.01-.5-.09-.2-.11-.31-.25-.33-.44-.02-.22.09-.4.34-.56.07-.04.39-.12.96-.25.21-.05.51-.16.9-.33.26-.58.7-1.37,1.31-2.37.34-.56.58-.92.71-1.09.19-.24.37-.36.52-.38.11,0,.23.04.36.15.12.1.18.21.19.33.02.23-.19.7-.62,1.42-.29.47-.5.84-.63,1.12.95-.35,1.64-.54,2.06-.57.48-.04.74.14.77.54.02.2-.05.36-.21.47-.08.06-.31.12-.67.19-.15,0-.8.23-1.94.67-.32.12-.63.25-.93.38Z"/><path class="cls-11" d="M203.24,32.96c.54-.05.96.02,1.25.19.29.17.45.45.48.85.04.52-.11,1.03-.45,1.55-.33.49-.85.9-1.56,1.24-.39.18-.72.29-.99.31-.37.03-.57-.11-.59-.44-.02-.22.07-.39.27-.53.05-.03.34-.13.87-.3.32-.1.6-.28.86-.54.22-.22.32-.45.3-.69-.02-.18-.08-.31-.19-.39-.11-.08-.27-.11-.48-.09-.51.04-1.05.3-1.63.76-.67.52-.98,1.11-.92,1.75.04.46.32,1,.84,1.65.58.7.89,1.31.94,1.83.06.77-.23,1.4-.87,1.9-.4.31-.86.48-1.4.53-.84.07-1.5-.18-1.99-.74-.34-.4-.54-.9-.59-1.48-.06-.68.07-1.27.38-1.77.2-.33.42-.5.67-.52.22-.02.33.06.35.24,0,.07-.02.18-.09.33-.17.39-.23.84-.19,1.35.04.43.22.78.55,1.05.29.24.62.34.97.31.34-.03.6-.17.77-.41.14-.21.2-.46.17-.76-.03-.37-.28-.83-.75-1.38-.65-.76-1-1.46-1.05-2.12-.07-.88.34-1.69,1.24-2.45.87-.73,1.83-1.13,2.86-1.22Z"/><path class="cls-11" d="M207.53,35.98c.59-.73,1.19-1.35,1.8-1.86.78-.65,1.35-.99,1.71-1.02.15-.01.3.04.45.15.17.13.26.28.28.47.02.24-.14.62-.47,1.15-.65,1.02-1.12,1.95-1.43,2.77-.28.71-.4,1.19-.38,1.43.02.24.14.35.37.33.47-.04,1.2-.95,2.18-2.72.2-.36.39-.55.57-.56.18-.02.29.08.3.29.03.34-.25,1.02-.83,2.04-.51.89-1.06,1.58-1.65,2.08-.42.34-.81.53-1.17.56-.38.03-.66-.11-.86-.42-.12-.19-.19-.41-.21-.66-.07-.78.13-1.69.6-2.74.11-.25.45-.96,1.01-2.12-1.71,1.05-3.06,3.13-4.04,6.23-.08.35-.25.54-.48.56-.17.01-.31-.03-.42-.14-.12-.11-.18-.26-.2-.43-.02-.29.19-1.13.63-2.53.83-2.59,1.62-4.79,2.38-6.6.75-1.83,1.6-3.73,2.55-5.71.22-.48.4-.8.54-.97s.29-.26.45-.28c.16-.01.3.06.43.21.1.12.15.25.17.41.02.25-.09.59-.34,1.02-.82,1.54-1.63,3.23-2.42,5.06-.85,1.96-1.36,3.29-1.53,3.99Z"/><path class="cls-11" d="M216.88,38.41c-.25.53-.49.99-.74,1.36-.49.73-1.01,1.12-1.56,1.16-.47.04-.86-.15-1.16-.58-.19-.27-.3-.61-.34-1-.08-.97.13-2.07.65-3.3.57-1.36,1.31-2.44,2.21-3.22.59-.51,1.18-.79,1.77-.84.37-.03.68.06.95.26.23.18.35.4.37.66.02.19-.04.47-.16.82.15.17.23.33.24.47.02.18-.08.5-.29.94-.22.45-.42,1.04-.62,1.77-.21.78-.29,1.39-.25,1.85.03.37.17.66.41.88.07.06.25.14.56.26.23.09.35.26.38.52.01.17-.04.31-.15.42-.12.13-.27.19-.44.21-.47.04-.9-.14-1.28-.53-.31-.32-.49-.74-.53-1.25-.01-.18-.02-.47-.02-.87ZM218.16,33.95c-.12-.18-.25-.32-.38-.4-.13-.08-.27-.12-.41-.1-.67.06-1.34.7-2.02,1.93-.75,1.36-1.09,2.49-1.01,3.38.02.22.07.38.17.49.09.11.22.15.39.14.42-.04.87-.52,1.36-1.46.27-.52.6-1.27.99-2.27.25-.65.44-1.08.57-1.29.06-.11.18-.25.35-.41Z"/><path class="cls-11" d="M224.81,32.2c.72-1.9,1.41-3.57,2.08-4.99.64-1.38,1.08-2.25,1.33-2.61.27-.4.53-.61.79-.64.14-.01.27.03.4.14.12.1.18.22.19.35.02.2-.1.55-.36,1.05-1.1,2.16-2.08,4.34-2.97,6.54-1.02,2.56-1.47,4.46-1.37,5.69.04.5.17.88.39,1.16.04.06.21.19.51.38.06.04.09.12.1.26.02.18-.04.34-.16.5-.12.16-.27.24-.44.26-.2.02-.43-.09-.7-.31-.38-.32-.62-.71-.73-1.16-.04-.19-.1-.55-.18-1.07-.78,1.73-1.58,2.64-2.42,2.71-.48.04-.89-.2-1.22-.72-.22-.34-.35-.74-.39-1.2-.12-1.37.27-2.78,1.15-4.25.87-1.45,1.88-2.22,3.02-2.32.32-.03.65.06,1,.25ZM224.46,33.31c-.25-.14-.46-.2-.64-.18-.74.06-1.39.57-1.97,1.53-.77,1.25-1.11,2.42-1.01,3.51.01.13.05.25.11.36.12.21.29.31.5.29.31-.03.65-.36,1.04-.99.52-.84.98-1.82,1.39-2.94.14-.38.28-.77.42-1.15l.1-.26.06-.18Z"/><path class="cls-11" d="M229.97,31.56c.15-.01.28.03.38.14.08.09.12.18.13.28.01.16-.09.43-.31.82-.79,1.49-1.34,2.7-1.65,3.65-.33.97-.61,1.97-.85,2.98-.1.45-.3.69-.6.71-.18.02-.32-.04-.44-.17-.11-.11-.17-.22-.18-.36-.02-.26.18-1.16.62-2.7.34-1.21.94-2.57,1.8-4.07.28-.49.49-.82.63-.99.14-.18.3-.28.46-.29ZM232.05,26.48c.39-.03.61.15.64.55.03.37-.13.79-.47,1.27-.33.46-.67.7-1.01.73-.17.01-.31-.04-.42-.15-.11-.1-.18-.24-.19-.41-.04-.42.16-.89.58-1.4.31-.38.6-.58.88-.6Z"/><path class="cls-11" d="M232.79,34.71c.1-.11.21-.23.3-.34,1.68-1.94,2.83-2.94,3.45-2.99.34-.03.53.14.56.52.02.26-.1.59-.38.97-1.51,2.09-2.2,3.89-2.07,5.38.04.48.21.93.51,1.35.14.19.21.34.22.46,0,.1-.04.21-.13.32-.1.13-.23.21-.39.22-.36.03-.68-.17-.96-.61-.27-.41-.43-.92-.49-1.53-.1-1.18.24-2.53,1.01-4.04-1.13.86-2.12,2.3-2.98,4.33-.22.49-.48.74-.78.77-.15.01-.28-.03-.38-.13-.13-.11-.21-.26-.22-.46-.04-.47.39-1.76,1.3-3.85.49-1.13.87-1.96,1.17-2.48.29-.51.56-.77.79-.79.11,0,.23.03.34.13.13.11.21.25.22.4.02.19-.09.48-.31.86-.32.57-.58,1.08-.77,1.53Z"/><path class="cls-11" d="M241.5,37.37c.88-.76,1.52-1.44,1.93-2.04.61-.87,1.03-1.57,1.26-2.1.12-.24.25-.37.4-.38.21-.02.32.07.34.27.02.24-.11.65-.4,1.22-.89,1.77-2.32,3.37-4.28,4.79-.79,2.1-1.39,3.52-1.78,4.28-1.05,1.99-2.11,3.04-3.17,3.13-.56.05-.98-.14-1.26-.55-.16-.24-.26-.53-.28-.85-.12-1.38.66-2.77,2.32-4.18.26-.23,1.34-.99,3.24-2.26.32-.85.56-1.51.73-1.99-.84,1.04-1.56,1.59-2.16,1.64-.38.03-.69-.14-.93-.5-.15-.24-.24-.5-.26-.77-.05-.63.14-1.46.57-2.5.61-1.49,1.4-2.69,2.37-3.61.81-.77,1.54-1.18,2.21-1.23.34-.03.65.07.91.31.18.15.28.39.31.71.03.4-.06.91-.28,1.53.22.18.33.31.34.41,0,.06-.03.15-.11.27-.21.34-.54.98-.99,1.92-.4.82-.74,1.65-1.02,2.48ZM239.15,40.3c-1.11.59-2.07,1.42-2.87,2.49-.37.5-.62,1.01-.76,1.55-.04.16-.05.3-.05.4,0,.11.04.21.1.3.11.15.25.22.43.2.54-.05,1.13-.68,1.76-1.91.55-1.06,1.01-2.07,1.38-3.03ZM241.15,34.35c-.13-.12-.2-.21-.21-.26,0-.08.05-.18.17-.32.4-.46.72-.92.95-1.4.19-.38.27-.67.26-.87-.02-.24-.14-.35-.36-.33-.38.03-.88.44-1.52,1.21-.76.92-1.33,1.92-1.7,3.02-.18.54-.26.96-.24,1.24.01.16.06.27.14.35.08.07.18.1.31.09.31-.03.71-.38,1.21-1.05.32-.43.58-.85.79-1.26.14-.27.21-.41.2-.41Z"/><path class="cls-11" d="M252.38,20.11c.41-.04.64.21.68.72.07.8-.29,1.88-1.06,3.24-.32.56-.7,1.07-1.15,1.55-.29.32-.53.48-.72.5-.18.02-.34-.06-.47-.21-.09-.1-.14-.22-.15-.36-.02-.19.15-.48.5-.85.98-1.11,1.51-2.37,1.57-3.76.02-.26.12-.46.3-.62.17-.13.33-.2.5-.21ZM255.43,19.85c.41-.03.64.21.68.72.07.8-.29,1.88-1.06,3.24-.31.56-.7,1.07-1.15,1.55-.29.32-.53.48-.73.5-.18.02-.34-.06-.47-.21-.09-.1-.14-.22-.15-.36-.02-.19.15-.48.5-.85.99-1.12,1.52-2.37,1.57-3.76.02-.26.12-.46.3-.62.17-.13.33-.2.5-.21Z"/><line class="cls-8" x1="92.61" y1="314.86" x2="395.75" y2="314.86"/><line class="cls-5" x1="105.21" y1="228.95" x2="105.21" y2="314.86"/><line class="cls-5" x1="159.42" y1="228.95" x2="159.42" y2="314.86"/><line class="cls-5" x1="213.63" y1="228.95" x2="213.63" y2="314.86"/><line class="cls-5" x1="267.84" y1="228.95" x2="267.84" y2="314.86"/><path class="cls-16" d="M395.75,314.88c.28,0,.5-.22.5-.5s-.22-.5-.5-.5H92.61c-.28,0-.5.22-.5.5s.22.5.5.5h303.14"/><path class="cls-16" d="M395.75,286.9c.28,0,.5-.22.5-.5s-.22-.5-.5-.5H92.61c-.28,0-.5.22-.5.5s.22.5.5.5h303.14"/><line class="cls-5" x1="322.08" y1="228.95" x2="322.08" y2="314.86"/><line class="cls-5" x1="376.29" y1="228.95" x2="376.29" y2="314.86"/><line class="cls-5" x1="395.75" y1="228.95" x2="395.75" y2="314.86"/><path class="cls-16" d="M395.75,258.92c.28,0,.5-.22.5-.5s-.22-.5-.5-.5H92.61c-.28,0-.5.22-.5.5s.22.5.5.5h303.14"/><path class="cls-16" d="M395.75,230.94c.28,0,.5-.22.5-.5s-.22-.5-.5-.5H92.61c-.28,0-.5.22-.5.5s.22.5.5.5h303.14"/><line class="cls-1" x1="92.61" y1="228.95" x2="92.61" y2="315.85"/><line class="cls-4" x1="395.75" y1="229.94" x2="92.61" y2="229.94"/><line class="cls-1" x1="395.75" y1="315.85" x2="395.75" y2="228.95"/><path d="M124.05,303.29v-1.3l3.57-7.71h1.54l-3.49,7.62h5.22v1.38h-6.85ZM128.64,304.93v-6.27h1.46v6.27h-1.46Z"/><path d="M132.56,304.93v-1.3l3.71-4.95c.21-.28.38-.58.5-.88.12-.3.18-.59.18-.86h0c0-.44-.12-.77-.37-1s-.6-.35-1.06-.35c-.43,0-.78.13-1.05.38-.27.26-.44.62-.5,1.09h0s-1.54,0-1.54,0h0c.13-.93.47-1.64,1-2.14.54-.51,1.23-.76,2.07-.76.96,0,1.7.24,2.22.73s.78,1.17.78,2.05h0c0,.38-.08.78-.23,1.19s-.37.81-.65,1.18l-3.08,4.19h4.03v1.42h-6.01Z"/><path d="M283.84,303.29v-1.3l3.57-7.71h1.54l-3.49,7.62h5.22v1.38h-6.85ZM288.43,304.93v-6.27h1.46v6.27h-1.46Z"/><path d="M295.49,305.04c-.81,0-1.48-.23-2-.7-.52-.47-.85-1.12-.98-1.97h0s1.49,0,1.49,0h0c.05.4.21.7.47.92s.6.33,1.01.33c.48,0,.85-.16,1.11-.48.26-.32.39-.77.39-1.35v-.89c0-.58-.13-1.03-.39-1.35-.26-.32-.63-.48-1.11-.48-.26,0-.51.07-.75.22s-.45.35-.63.62h-1.36v-5.61h5.43v1.42h-3.93v2.4c.19-.15.39-.27.62-.35s.46-.12.7-.12c.93,0,1.65.28,2.15.85s.76,1.37.76,2.41v.89c0,1.04-.26,1.84-.78,2.41s-1.26.85-2.21.85Z"/><path d="M176.73,276.02v-1.3l3.57-7.71h1.54l-3.49,7.62h5.22v1.38h-6.85ZM181.32,277.66v-6.27h1.46v6.27h-1.46Z"/><path d="M188.16,277.76c-.6,0-1.13-.11-1.58-.33-.45-.22-.81-.53-1.09-.94s-.45-.91-.53-1.49h1.52c.07.46.25.79.54,1.01.29.21.67.32,1.13.32.49,0,.88-.13,1.15-.4s.41-.63.41-1.11v-.32c0-.53-.13-.94-.39-1.23s-.62-.44-1.1-.44h-.75v-1.42h.75c.42,0,.74-.12.97-.37.23-.25.34-.6.34-1.05v-.33c0-.42-.12-.74-.36-.97-.24-.23-.58-.34-1.03-.34-.38,0-.7.11-.96.32-.26.21-.44.55-.54,1.01h-1.52c.15-.88.49-1.56,1.01-2.04.52-.48,1.19-.72,2-.72.92,0,1.63.24,2.13.73s.75,1.16.75,2.04v.18c0,.53-.14,1-.43,1.39s-.7.68-1.22.87c.58.12,1.03.41,1.35.85.32.45.48,1.01.48,1.7v.18c0,.93-.27,1.66-.8,2.17s-1.28.77-2.26.77Z"/><path d="M230.73,248.02v-1.3l3.57-7.71h1.54l-3.49,7.62h5.22v1.38h-6.85ZM235.32,249.66v-6.27h1.46v6.27h-1.46Z"/><path d="M239.26,248.02v-1.3l3.57-7.71h1.54l-3.49,7.62h5.22v1.38h-6.85ZM243.85,249.66v-6.27h1.46v6.27h-1.46Z"/><path class="cls-11" d="M28.06,256.87c-.23.79-.4,1.65-.51,2.57-.17,1.32-.16,2.27.01,2.85.05.16.12.28.22.34.09.06.21.08.35.03.33-.1.63-.53.91-1.28.18-.47.33-.93.44-1.38.06-.25.16-.4.31-.45.08-.03.17-.02.24.02.07.04.11.09.13.15.07.24-.08.88-.46,1.91-.46,1.24-1,1.95-1.63,2.14-.33.1-.66.03-.97-.21-.2-.16-.35-.41-.46-.77-.24-.79-.29-1.78-.15-2.98.03-.3.15-1.02.35-2.17-.16.1-.29.16-.38.19-.14.04-.27.04-.39.01-.17-.05-.28-.14-.32-.28-.05-.16,0-.32.17-.48.04-.04.27-.16.69-.35.15-.07.36-.2.63-.39.1-.48.31-1.15.61-2.02.17-.48.29-.79.37-.95.11-.21.22-.33.34-.37.08-.03.18,0,.3.06.1.06.17.13.19.22.05.17-.03.56-.25,1.18-.14.4-.24.72-.3.96.67-.42,1.16-.67,1.47-.76.36-.11.58-.01.68.29.04.15.02.28-.09.39-.05.06-.21.14-.48.25-.11.03-.57.3-1.37.82-.22.15-.44.29-.65.44Z"/><path class="cls-11" d="M31.48,260.68l.05.18c.04.14.12.26.22.34.24.19.54.23.91.12.82-.25,1.58-1.16,2.27-2.74.12-.27.25-.43.38-.47.07-.02.15,0,.23.05.05.04.09.08.1.13.08.25-.11.78-.55,1.58-.35.63-.75,1.17-1.22,1.64s-.94.78-1.42.92c-.49.15-.93.09-1.31-.16-.26-.18-.45-.47-.57-.88-.33-1.11-.14-2.35.58-3.72.58-1.12,1.19-1.77,1.82-1.96.17-.05.34-.04.51.02.21.09.35.24.42.46.1.35.07.82-.1,1.42-.35,1.25-1.12,2.27-2.33,3.07ZM31.46,259.85c.41-.29.72-.58.92-.86.35-.49.59-1,.73-1.53.05-.19.06-.34.02-.47-.04-.13-.12-.18-.25-.14-.17.05-.37.25-.61.6-.43.62-.7,1.42-.81,2.39Z"/><path class="cls-11" d="M37.5,257.36c.38-.74.73-1.34,1.05-1.79.49-.68.84-1.06,1.05-1.12.1-.03.21-.02.31.03.09.05.15.12.18.2.04.12-.02.36-.16.71-.22.55-.35,1-.39,1.36,1.07-2,1.88-3.08,2.45-3.25.12-.04.23-.03.34.02.12.05.19.13.23.25.06.18-.01.46-.21.83-.85,1.65-1.16,2.88-.91,3.7.1.33.23.55.39.66l.35.25c.07.04.12.11.15.2.03.1.02.22-.04.33-.07.13-.16.22-.29.26-.22.07-.46-.01-.72-.23-.32-.26-.55-.61-.68-1.06-.18-.6-.19-1.25-.03-1.96.05-.25.16-.6.33-1.04-.43.59-.82,1.33-1.18,2.24-.24.62-.43,1.28-.56,1.99-.06.34-.19.54-.4.6-.22.07-.37-.02-.45-.27-.08-.27-.06-.88.05-1.83.07-.54.17-1.12.32-1.75-.86,1.2-1.35,2.63-1.47,4.27-.04.37-.17.59-.4.66-.11.03-.2.02-.29-.04-.1-.06-.16-.14-.19-.25-.12-.39-.11-1.15.02-2.29.13-1.2.35-2.32.67-3.34.21-.71.43-1.1.64-1.17.2-.06.33.02.39.23.03.09-.02.36-.16.8-.22.81-.35,1.41-.38,1.79Z"/><path class="cls-11" d="M45.19,252.92c.22-.25.38-.43.49-.53.23-.21.47-.36.73-.43.29-.09.53-.07.72.05.19.12.34.35.44.69.14.46.14,1.06.02,1.79-.19,1.16-.55,2.14-1.08,2.94-.45.67-.93,1.08-1.46,1.24-.29.09-.61.06-.95-.08-.35,2.08-.6,4.17-.74,6.27-.01.5-.12.78-.33.84-.1.03-.22,0-.35-.11-.1-.07-.17-.16-.2-.27-.11-.35-.02-1.63.26-3.84.43-3.4.95-6.27,1.55-8.62.12-.49.2-.83.24-1.02.1-.49.26-.77.48-.84.22-.07.37.03.46.3.04.15.03.38-.05.68-.09.38-.16.69-.21.92ZM44.21,257.66c.19.11.39.13.61.06.61-.18,1.12-.93,1.53-2.23.16-.48.25-.96.29-1.43.03-.37.02-.64-.03-.81-.04-.12-.09-.2-.16-.24-.07-.04-.17-.05-.29-.01-.31.09-.62.42-.94.98-.3.54-.54,1.24-.7,2.11-.15.8-.26,1.32-.31,1.57Z"/><path class="cls-11" d="M51.12,249.92c.54-.16.9.08,1.1.74.26.87.19,2.09-.21,3.67-.44,1.71-1.07,2.69-1.89,2.94-.38.11-.71.02-.99-.28-.14-.15-.25-.35-.33-.6-.25-.84-.24-1.83.04-2.99.26-1.07.68-1.97,1.26-2.69.34-.42.68-.69,1.03-.79ZM51.22,253.94c-.2-.08-.32-.16-.34-.23-.02-.05.04-.23.18-.53.39-.84.52-1.46.4-1.87-.02-.05-.05-.1-.1-.14-.08-.08-.18-.11-.29-.07-.21.06-.46.36-.74.89-.37.68-.6,1.34-.71,1.98-.13.73-.13,1.31,0,1.73.03.11.09.2.18.27.12.09.25.12.38.08.31-.09.58-.43.8-1.01.1-.24.16-.48.2-.72s.05-.36.04-.37Z"/><path class="cls-11" d="M54.72,252.22c.43-.88.97-1.77,1.61-2.68.23-.33.49-.64.76-.95.14-.15.23-.23.28-.25.1-.03.22.01.36.13.08.06.13.12.15.19.04.12-.04.32-.23.59-.51.73-.72,1.23-.64,1.5.04.15.15.2.32.15.28-.08.7-.46,1.24-1.13.09-.11.18-.18.26-.21.05-.02.11,0,.18.03.08.04.12.09.14.16.06.2-.12.58-.55,1.15-.45.61-.93.99-1.45,1.14-.21.06-.42.07-.63,0-.18-.05-.3-.19-.37-.42-.05-.16-.04-.37.04-.62-.41.52-.83,1.33-1.26,2.43-.24.67-.44,1.47-.6,2.4-.06.35-.2.55-.42.62-.24.07-.4,0-.47-.23-.07-.22-.06-.88.03-1.96.13-1.61.38-2.9.76-3.88.23-.6.48-.95.73-1.02.08-.03.17-.02.26,0,.1.04.17.11.2.21s0,.26-.07.47c-.02.04-.12.31-.32.81-.18.47-.29.93-.33,1.35Z"/><path class="cls-11" d="M62.45,251.65c-.1.44-.22.83-.35,1.15-.26.63-.59,1.01-1,1.13-.35.11-.68.02-.97-.25-.19-.18-.33-.42-.42-.71-.22-.73-.23-1.6-.04-2.61.22-1.13.61-2.06,1.17-2.8.37-.48.77-.79,1.21-.92.27-.08.53-.07.76.05.2.1.33.25.39.44.04.14.05.36.01.65.14.11.22.21.26.32.04.14.02.39-.07.76-.09.38-.16.86-.19,1.45-.03.62,0,1.11.1,1.45.08.28.23.48.45.6.06.03.22.07.47.1.19.03.31.14.37.34.04.12.02.24-.05.35-.07.11-.17.19-.31.23-.35.11-.71.04-1.05-.2-.29-.19-.49-.48-.6-.87-.04-.13-.09-.35-.16-.66ZM62.7,248.05c-.12-.12-.24-.2-.35-.24-.11-.04-.22-.05-.33-.01-.5.15-.91.75-1.23,1.79-.35,1.16-.43,2.07-.23,2.73.05.16.12.28.21.34.09.07.19.08.32.04.31-.09.58-.54.8-1.33.12-.44.25-1.06.39-1.88.09-.53.16-.89.22-1.07.03-.09.09-.22.2-.37Z"/><path class="cls-11" d="M65.88,248.83c-.04.57-.07,1.03-.07,1.37,0,.34.01.58.05.7.05.16.15.22.31.17.24-.07.47-.39.71-.94.11-.27.26-.74.43-1.4.07-.26.18-.42.33-.46.17-.05.28,0,.33.17.08.28-.07.95-.46,2-.4,1.1-.89,1.74-1.47,1.91-.25.07-.48.03-.7-.13-.16-.12-.27-.28-.33-.5-.11-.37-.15-.91-.12-1.62.03-.72.12-1.6.28-2.67.41-2.7.98-5,1.69-6.88.57-1.51,1.16-2.36,1.77-2.55.2-.06.38-.03.55.08.18.11.29.26.35.46.28.92-.08,2.69-1.08,5.31-.45,1.17-1.04,2.38-1.77,3.64-.19.33-.46.77-.8,1.33ZM66.11,247.06c1.01-1.58,1.78-3.41,2.32-5.52.28-1.09.37-1.79.28-2.09-.04-.14-.13-.2-.25-.16-.36.11-.8,1.02-1.32,2.74-.43,1.41-.78,3.09-1.04,5.02Z"/><path class="cls-11" d="M31.36,240.43c.54-.16.9.08,1.1.74.26.87.19,2.09-.21,3.67-.44,1.71-1.07,2.69-1.89,2.94-.38.11-.71.02-.99-.28-.15-.15-.26-.35-.33-.6-.25-.84-.24-1.83.04-2.99.26-1.07.68-1.97,1.26-2.69.34-.42.68-.69,1.03-.79ZM31.46,244.45c-.2-.08-.31-.16-.34-.23-.02-.05.04-.23.18-.53.39-.84.52-1.46.4-1.87-.02-.05-.05-.1-.1-.14-.08-.08-.18-.11-.29-.07-.21.06-.46.36-.74.89-.37.68-.6,1.34-.71,1.98-.13.73-.13,1.31,0,1.73.03.11.09.2.18.27.12.09.25.12.38.08.31-.09.58-.43.8-1.01.1-.24.16-.49.2-.72.04-.24.05-.36.04-.36Z"/><path class="cls-11" d="M36.43,244.17c-.16.48-.32.87-.46,1.17-.25.53-.57.86-.94.97-.32.1-.61.03-.88-.21-.19-.17-.32-.39-.41-.67-.25-.84-.19-1.92.21-3.23.18-.61.39-1.1.64-1.47.19-.29.37-.46.53-.51.09-.03.19-.01.29.04.09.05.14.11.16.19.04.12-.02.36-.18.72-.35.81-.58,1.53-.7,2.16-.14.73-.15,1.28-.04,1.64.03.09.07.16.13.19.06.04.12.04.2.02.33-.1.65-.72.96-1.85.16-.59.26-1.22.3-1.89.02-.36.09-.7.2-1.01.11-.28.26-.45.44-.51.1-.03.2-.01.3.05.11.07.19.15.22.27.07.24,0,.83-.2,1.79-.14.66-.15,1.18-.03,1.56.12.41.33.72.64.94.08.06.3.13.65.21.17.04.28.16.34.35.04.12.01.23-.06.35-.08.12-.19.2-.33.24-.33.1-.66.06-1.01-.12-.31-.16-.57-.46-.77-.88-.03-.06-.1-.22-.2-.5Z"/><path class="cls-11" d="M41.06,237.52c-.23.79-.4,1.65-.51,2.57-.17,1.32-.16,2.27.01,2.84.05.16.12.28.22.34.09.06.21.08.35.03.33-.1.63-.53.91-1.28.18-.47.33-.93.44-1.38.06-.25.16-.4.3-.44.08-.03.17-.02.24.02.07.04.11.09.13.15.07.24-.08.88-.46,1.91-.46,1.24-1,1.95-1.63,2.14-.33.1-.66.03-.97-.21-.2-.16-.35-.41-.46-.77-.24-.79-.29-1.78-.15-2.98.03-.29.15-1.02.35-2.17-.16.1-.29.16-.38.19-.14.04-.27.04-.39.01-.17-.05-.28-.14-.32-.28-.05-.16,0-.32.17-.48.04-.04.27-.16.69-.35.15-.07.36-.2.63-.39.11-.48.31-1.15.61-2.02.17-.48.29-.79.37-.95.11-.21.22-.33.34-.37.09-.03.18,0,.3.06.1.06.17.13.2.22.05.17-.03.56-.25,1.18-.14.4-.24.72-.3.96.67-.42,1.16-.67,1.47-.76.36-.11.59-.01.68.29.04.15.02.28-.09.39-.05.06-.21.14-.48.25-.11.03-.57.3-1.37.82-.22.15-.44.29-.65.44Z"/><path class="cls-11" d="M45.54,237.38c.22-.25.38-.43.49-.53.23-.21.47-.36.73-.43.29-.09.53-.07.72.06.2.12.34.35.44.69.14.46.14,1.06.02,1.79-.19,1.16-.55,2.14-1.08,2.94-.45.67-.93,1.08-1.46,1.24-.29.09-.61.06-.96-.08-.35,2.08-.6,4.17-.74,6.27-.01.5-.12.78-.33.84-.1.03-.22,0-.35-.11-.1-.07-.17-.16-.2-.27-.11-.35-.02-1.63.26-3.84.43-3.4.95-6.27,1.55-8.62.12-.49.2-.83.24-1.01.1-.5.26-.77.48-.84.22-.07.38.03.46.3.04.15.03.38-.05.68-.09.38-.16.69-.21.92ZM44.55,242.12c.19.11.39.13.61.06.61-.18,1.12-.93,1.54-2.23.15-.48.25-.96.29-1.43.03-.37.02-.64-.03-.81-.04-.12-.09-.2-.16-.24-.07-.04-.17-.04-.29,0-.31.09-.62.42-.94.98-.3.54-.54,1.24-.7,2.11-.15.8-.26,1.32-.31,1.57Z"/><path class="cls-11" d="M51.87,239.52c-.16.48-.32.87-.46,1.17-.25.53-.57.86-.94.97-.32.1-.61.03-.88-.21-.19-.17-.32-.39-.41-.67-.25-.84-.19-1.92.21-3.23.18-.61.39-1.1.64-1.47.19-.29.37-.46.53-.51.09-.03.19-.01.29.04.09.05.14.11.16.19.04.12-.02.36-.18.72-.35.81-.58,1.53-.7,2.16-.14.73-.15,1.28-.04,1.64.03.09.07.16.13.19.06.04.12.04.2.02.33-.1.65-.72.96-1.85.16-.59.26-1.22.3-1.89.02-.36.08-.7.2-1.01.11-.28.26-.45.44-.51.1-.03.2-.01.3.05.11.07.19.16.22.27.07.24,0,.83-.2,1.79-.14.66-.15,1.18-.03,1.56.12.41.33.72.64.94.08.06.3.13.65.21.17.04.28.16.34.35.04.12.01.23-.06.35-.08.12-.19.2-.33.24-.33.1-.67.06-1.01-.12-.31-.16-.57-.46-.77-.88-.03-.05-.1-.22-.2-.5Z"/><path class="cls-11" d="M56.49,232.87c-.23.79-.4,1.65-.51,2.57-.17,1.32-.16,2.27.01,2.84.05.16.12.28.22.34.09.06.21.08.35.03.33-.1.63-.53.91-1.28.18-.47.33-.93.44-1.38.06-.25.16-.4.31-.45.08-.03.17-.02.24.02.07.04.11.09.13.15.07.24-.08.88-.46,1.91-.46,1.24-1,1.95-1.63,2.14-.33.1-.66.03-.97-.21-.2-.15-.35-.41-.46-.77-.24-.79-.29-1.78-.15-2.98.03-.29.15-1.02.35-2.17-.16.1-.29.16-.38.19-.14.04-.27.04-.39.01-.17-.05-.28-.14-.32-.28-.05-.16,0-.32.17-.48.04-.04.27-.16.69-.35.15-.07.36-.21.63-.39.1-.48.31-1.15.61-2.02.17-.48.29-.79.37-.95.11-.21.22-.33.34-.37.08-.03.18,0,.3.06.1.06.17.14.19.22.05.17-.03.56-.25,1.18-.14.4-.24.72-.3.96.67-.42,1.16-.67,1.47-.76.36-.11.58-.01.68.29.04.15.02.28-.09.39-.05.06-.21.14-.48.25-.11.03-.57.3-1.37.82-.22.14-.44.29-.65.44Z"/><path class="cls-11" d="M36.02,271.58c.35-2.46.8-4.51,1.35-6.16.37-1.11.71-1.94,1.01-2.49.21-.38.41-.61.62-.67.08-.02.16-.02.23.02.11.04.18.11.22.22.04.14,0,.38-.16.72-.95,2.08-1.66,4.46-2.14,7.11.93-.71,1.6-1.13,2.01-1.26.3-.09.57-.09.81,0,.25.1.41.25.47.45.03.11.02.21-.02.32-.06.15-.17.25-.33.3-.11.03-.36,0-.74-.08-.11-.02-.23,0-.37.04-.65.2-1.35.73-2.09,1.6.45.06.8.22,1.05.48.35.36.62.85.81,1.47.48,1.6.51,3.44.1,5.51-.18.88-.41,1.58-.68,2.09-.29.55-.64.89-1.07,1.02-.33.1-.64.02-.94-.23-.24-.21-.43-.54-.57-1-.29-.97-.36-2.54-.22-4.7.02-.26.1-.95.24-2.05.04-.28.07-.57.09-.87-.05.03-.1.05-.14.06-.18.05-.29-.02-.35-.22-.11-.35.17-.91.82-1.69ZM36.74,272.77c-.16.8-.3,2.07-.44,3.79-.15,1.77-.09,3.08.17,3.95.05.17.14.31.26.41.13.1.26.14.38.1.41-.12.73-.96.99-2.52.29-1.74.24-3.25-.14-4.51-.15-.49-.35-.83-.62-1.02-.1-.08-.3-.14-.61-.2Z"/><path class="cls-11" d="M41.75,271.39c.43-.88.97-1.77,1.61-2.68.23-.33.48-.64.76-.95.14-.15.23-.23.28-.24.1-.03.22.01.36.13.08.06.13.12.15.19.04.12-.04.32-.23.59-.51.73-.72,1.23-.64,1.5.04.15.15.2.32.15.28-.08.7-.46,1.24-1.13.09-.11.18-.18.26-.21.05-.02.11,0,.18.03.08.04.12.09.14.16.06.2-.12.58-.55,1.15-.45.61-.93.99-1.44,1.14-.21.06-.42.07-.63,0-.18-.05-.3-.19-.37-.42-.05-.16-.04-.37.04-.62-.41.52-.83,1.33-1.26,2.44-.24.67-.44,1.47-.6,2.4-.06.35-.2.55-.42.62-.24.07-.4,0-.47-.23-.07-.22-.06-.88.03-1.96.13-1.61.38-2.9.76-3.88.23-.6.48-.95.73-1.02.08-.03.17-.02.26,0,.1.04.17.11.2.21.03.1,0,.25-.07.47-.02.04-.12.31-.32.81-.18.48-.29.93-.33,1.35Z"/><path class="cls-11" d="M49.48,270.82c-.1.44-.22.83-.35,1.15-.26.63-.59,1.01-1,1.14-.35.11-.68.02-.98-.25-.19-.18-.33-.42-.42-.71-.22-.73-.23-1.6-.04-2.61.22-1.13.61-2.06,1.17-2.8.37-.48.77-.79,1.21-.92.28-.08.53-.07.76.05.2.1.33.25.39.44.04.14.05.36.01.65.14.11.23.21.26.32.04.14.02.39-.07.76-.09.38-.16.86-.19,1.45-.03.62,0,1.11.1,1.45.08.27.23.48.45.6.06.03.22.07.47.1.19.03.31.14.37.34.04.12.02.24-.05.35-.07.11-.17.19-.31.23-.35.11-.71.04-1.05-.2-.29-.19-.49-.48-.6-.87-.04-.13-.09-.35-.16-.66ZM49.73,267.22c-.12-.12-.24-.2-.35-.24-.11-.04-.22-.05-.33-.01-.5.15-.91.75-1.23,1.79-.35,1.16-.43,2.07-.23,2.73.05.16.12.28.21.35.09.07.19.08.32.04.31-.09.58-.54.8-1.33.12-.44.25-1.07.39-1.88.09-.53.16-.89.22-1.07.03-.09.09-.22.2-.37Z"/><path class="cls-11" d="M52.99,267.96c.38-.74.72-1.34,1.04-1.79.49-.68.84-1.06,1.05-1.12.1-.03.21-.02.31.04.09.05.15.12.18.2.04.12-.02.36-.16.71-.22.55-.35,1-.39,1.36,1.07-2,1.88-3.08,2.45-3.25.12-.04.23-.03.34.02.12.05.19.13.23.25.05.18-.01.46-.21.83-.85,1.65-1.16,2.88-.91,3.7.1.33.23.56.39.66l.35.25c.07.04.12.11.15.2.03.1.02.22-.04.33-.07.13-.16.22-.29.26-.21.06-.46-.01-.72-.23-.32-.26-.55-.61-.68-1.06-.18-.6-.19-1.25-.03-1.96.05-.25.16-.6.33-1.04-.43.59-.82,1.33-1.18,2.24-.24.62-.43,1.28-.56,1.99-.06.34-.19.54-.4.6-.22.07-.37-.02-.45-.27-.08-.27-.06-.88.05-1.83.07-.54.17-1.12.32-1.75-.86,1.2-1.35,2.63-1.46,4.27-.04.37-.17.59-.4.66-.1.03-.2.02-.29-.04-.1-.06-.16-.14-.19-.25-.12-.39-.11-1.15.02-2.29.13-1.2.35-2.32.67-3.34.21-.71.43-1.1.64-1.17.2-.06.33.02.39.23.03.09-.02.36-.16.8-.22.82-.35,1.41-.38,1.79Z"/><path class="cls-11" d="M59.62,267.47l.05.18c.04.14.12.26.22.34.24.19.54.23.91.12.82-.25,1.58-1.16,2.27-2.74.12-.27.25-.43.38-.47.07-.02.15,0,.23.05.06.04.09.08.1.13.08.25-.11.78-.55,1.58-.35.63-.75,1.17-1.22,1.64-.47.47-.94.77-1.42.92-.49.15-.93.09-1.31-.16-.26-.18-.45-.47-.57-.88-.33-1.11-.14-2.35.58-3.72.58-1.12,1.19-1.77,1.82-1.96.17-.05.34-.05.51.02.21.09.35.24.42.46.1.35.07.82-.1,1.42-.35,1.25-1.12,2.27-2.33,3.07ZM59.6,266.64c.41-.3.72-.58.92-.86.35-.49.59-1,.73-1.53.05-.19.06-.34.02-.47-.04-.13-.12-.18-.25-.14-.17.05-.37.25-.61.6-.43.62-.7,1.42-.81,2.39Z"/><path class="cls-1" d="M48.98,279.34c-1.27,13.44,7.49,23.55,27.46,11.98"/><path class="cls-11" d="M74.22,295.79c-.15-.08-.2-.26-.12-.41l2.21-4.02-4.58-.31c-.17-.01-.29-.15-.28-.32s.16-.29.32-.28l5.05.34c.1,0,.19.07.24.16s.05.2,0,.29l-2.44,4.43c-.03.05-.07.09-.12.12-.09.05-.2.05-.29,0Z"/><g class="cls-14"><use width="173.22" height="24.31" transform="translate(-157.55 328.27)" xlink:href="#Kernel_Execution"/></g></svg>