<?xml version="1.0" encoding="UTF-8"?><svg id="Layer_1" xmlns="http://www.w3.org/2000/svg" xmlns:xlink="http://www.w3.org/1999/xlink" viewBox="0 0 468.09 496.94"><defs><style>.cls-1,.cls-2,.cls-3,.cls-4,.cls-5,.cls-6,.cls-7,.cls-8,.cls-9{stroke-miterlimit:10;}.cls-1,.cls-2,.cls-3,.cls-4,.cls-5,.cls-10,.cls-7,.cls-8{fill:none;}.cls-1,.cls-2,.cls-3,.cls-4,.cls-7,.cls-9{stroke:#4d4d4d;}.cls-1,.cls-5,.cls-8{stroke-linecap:round;}.cls-11{clip-path:url(#clippath-6);}.cls-12{clip-path:url(#clippath-7);}.cls-2{filter:url(#drop-shadow-4);}.cls-2,.cls-3,.cls-4,.cls-7{stroke-width:3px;}.cls-13{clip-path:url(#clippath-4);}.cls-14{fill:#4d4d4d;}.cls-3{filter:url(#drop-shadow-3);}.cls-4{filter:url(#drop-shadow-2);}.cls-15,.cls-6{fill:#fff;}.cls-5{stroke:#666;}.cls-5,.cls-8{stroke-dasharray:5;}.cls-6{stroke:#000;}.cls-7{filter:url(#drop-shadow-1);}.cls-16{clip-path:url(#clippath-1);}.cls-17{clip-path:url(#clippath-5);}.cls-18{clip-path:url(#clippath-3);}.cls-8{stroke:#ccc;}.cls-9{fill:#999;}.cls-19{fill:#ccc;}.cls-20{clip-path:url(#clippath-2);}.cls-21{clip-path:url(#clippath);}.cls-22{fill:#e6e6e6;}</style><filter id="drop-shadow-1" filterUnits="userSpaceOnUse"><feOffset dx="7" dy="7"/><feGaussianBlur result="blur" stdDeviation="5"/><feFlood flood-color="#000" flood-opacity=".07"/><feComposite in2="blur" operator="in"/><feComposite in="SourceGraphic"/></filter><clipPath id="clippath"><rect class="cls-10" x="93.61" y="66.64" width="303.14" height="103.08"/></clipPath><clipPath id="clippath-1"><rect class="cls-10" x="318.07" y="80.13" width="132.85" height="61.46"/></clipPath><clipPath id="clippath-2"><rect class="cls-10" x="332.61" y="106.26" width="133.88" height="19.42"/></clipPath><clipPath id="clippath-3"><rect class="cls-10" x="368.31" y="52.37" width="132.85" height="61.46"/></clipPath><clipPath id="clippath-4"><rect class="cls-10" x="382.85" y="78.49" width="133.88" height="19.42"/></clipPath><filter id="drop-shadow-2" filterUnits="userSpaceOnUse"><feOffset dx="7" dy="7"/><feGaussianBlur result="blur-2" stdDeviation="5"/><feFlood flood-color="#000" flood-opacity=".07"/><feComposite in2="blur-2" operator="in"/><feComposite in="SourceGraphic"/></filter><filter id="drop-shadow-3" filterUnits="userSpaceOnUse"><feOffset dx="7" dy="7"/><feGaussianBlur result="blur-3" stdDeviation="5"/><feFlood flood-color="#000" flood-opacity=".07"/><feComposite in2="blur-3" operator="in"/><feComposite in="SourceGraphic"/></filter><filter id="drop-shadow-4" filterUnits="userSpaceOnUse"><feOffset dx="7" dy="7"/><feGaussianBlur result="blur-4" stdDeviation="5"/><feFlood flood-color="#000" flood-opacity=".07"/><feComposite in2="blur-4" operator="in"/><feComposite in="SourceGraphic"/></filter><clipPath id="clippath-5"><rect class="cls-10" x="93.61" y="373.73" width="303.14" height="103.08"/></clipPath><clipPath id="clippath-6"><rect class="cls-10" x="316.42" y="359.45" width="132.85" height="61.46"/></clipPath><clipPath id="clippath-7"><rect class="cls-10" x="330.96" y="385.58" width="133.88" height="19.42"/></clipPath></defs><path class="cls-14" d="M102.17,201.4c-.05.12-.2.43-.43.92-.39.93-.62,1.54-.7,1.83-.04.16-.1.28-.16.34-.06.06-.15.1-.26.1s-.22-.04-.29-.13c-.07-.08-.1-.17-.1-.27,0-.37.33-1.25.98-2.67-.71.08-1.27.2-1.68.37-.13.05-.24.08-.32.08-.2,0-.29-.15-.29-.46,0-.18.07-.36.21-.53.27-.32.74-.8,1.38-1.44.8-.79,1.53-1.43,2.17-1.92.56-.42.97-.64,1.22-.64.11,0,.21.05.31.14.07.08.11.16.11.26,0,.12-.07.3-.22.54-.02.04-.19.31-.48.78-.38.61-.73,1.25-1.05,1.92.34-.02.57-.03.68-.03.29,0,.43.11.43.32,0,.19-.08.33-.23.41-.07.03-.28.05-.62.05-.1,0-.31,0-.64.02ZM101.61,200.72c.53-1.04,1.04-1.9,1.52-2.6-.51.29-1.13.79-1.85,1.49-.52.52-.94.97-1.26,1.35.71-.15,1.24-.23,1.6-.25Z"/><path class="cls-14" d="M104.21,203.64c.82-.26,1.58-.39,2.26-.39.27,0,.49.06.65.17.15.1.22.22.22.36,0,.09-.03.18-.1.25s-.15.11-.23.11c-.03,0-.07,0-.13-.02-.25-.07-.48-.1-.69-.1-.18,0-.4.02-.67.05-.09.01-.43.1-1.02.26-.53.14-.84.21-.94.21-.14,0-.26-.07-.36-.2-.09-.12-.14-.25-.14-.38,0-.15.13-.34.38-.59.48-.47.94-.89,1.38-1.27.42-.35.94-.76,1.56-1.22.71-.52,1.2-.9,1.46-1.14.4-.35.6-.7.6-1.05,0-.2-.06-.35-.19-.46-.11-.1-.25-.15-.42-.15-.44,0-.96.25-1.55.74-.27.22-.44.34-.51.34-.05,0-.1-.03-.17-.09-.07-.06-.1-.13-.1-.21,0-.18.21-.42.64-.75.68-.52,1.34-.78,1.96-.78.36,0,.65.11.89.34.23.22.34.49.34.8,0,.55-.28,1.09-.83,1.63-.24.23-.68.59-1.32,1.05-1.54,1.12-2.53,1.95-2.97,2.48Z"/><path class="cls-14" d="M156.38,201.4c-.05.12-.2.43-.43.92-.39.93-.62,1.54-.7,1.83-.04.16-.1.28-.16.34-.06.06-.15.1-.26.1s-.22-.04-.29-.13c-.07-.08-.1-.17-.1-.27,0-.37.33-1.25.98-2.67-.71.08-1.27.2-1.68.37-.13.05-.24.08-.32.08-.2,0-.29-.15-.29-.46,0-.18.07-.36.21-.53.27-.32.74-.8,1.38-1.44.8-.79,1.53-1.43,2.17-1.92.56-.42.97-.64,1.22-.64.11,0,.21.05.31.14.07.08.11.16.11.26,0,.12-.07.3-.22.54-.02.04-.19.31-.48.78-.38.61-.73,1.25-1.05,1.92.34-.02.57-.03.68-.03.29,0,.43.11.43.32,0,.19-.08.33-.23.41-.07.03-.28.05-.62.05-.1,0-.31,0-.64.02ZM155.82,200.72c.53-1.04,1.04-1.9,1.52-2.6-.51.29-1.13.79-1.85,1.49-.52.52-.94.97-1.26,1.35.71-.15,1.24-.23,1.6-.25Z"/><path class="cls-14" d="M161.72,200.05c.24.1.42.22.52.34.15.18.23.43.23.75,0,.8-.33,1.56-1,2.29s-1.36,1.1-2.07,1.1c-.43,0-.79-.18-1.06-.54-.2-.26-.29-.55-.29-.86,0-.52.2-.78.6-.78.24,0,.36.09.36.27,0,.04,0,.09-.01.15-.01.08-.02.17-.02.25,0,.23.06.41.17.53.13.13.28.2.45.2.42,0,.86-.29,1.34-.87.45-.56.68-1.09.68-1.59,0-.25-.06-.45-.18-.6-.13-.16-.32-.23-.55-.23-.09,0-.19.01-.28.04-.11.03-.2.05-.26.05-.14,0-.21-.1-.21-.29,0-.17.06-.3.17-.41.06-.06.2-.12.4-.18.41-.1.75-.24,1.03-.42.18-.12.32-.27.43-.47.05-.1.08-.21.08-.32,0-.14-.04-.25-.11-.31-.08-.07-.19-.1-.35-.1-.26,0-.54.07-.82.21-.07.03-.25.13-.52.3-.07.05-.15.07-.24.07-.17,0-.25-.09-.25-.27,0-.16.12-.33.37-.51.57-.41,1.13-.61,1.68-.61.33,0,.6.1.83.3.24.21.36.47.36.77,0,.4-.17.77-.51,1.11-.19.2-.5.4-.95.62Z"/><path class="cls-14" d="M210.6,201.4c-.05.12-.2.43-.43.92-.39.93-.62,1.54-.7,1.83-.04.16-.1.28-.16.34-.06.06-.15.1-.26.1s-.22-.04-.29-.13c-.07-.08-.1-.17-.1-.27,0-.37.33-1.25.98-2.67-.71.08-1.27.2-1.68.37-.13.05-.24.08-.32.08-.2,0-.29-.15-.29-.46,0-.18.07-.36.21-.53.27-.32.74-.8,1.38-1.44.8-.79,1.53-1.43,2.17-1.92.56-.42.97-.64,1.22-.64.11,0,.21.05.31.14.07.08.11.16.11.26,0,.12-.07.3-.22.54-.02.04-.19.31-.48.78-.38.61-.73,1.25-1.05,1.92.34-.02.57-.03.68-.03.29,0,.43.11.43.32,0,.19-.08.33-.23.41-.07.03-.28.05-.62.05-.1,0-.31,0-.64.02ZM210.03,200.72c.53-1.04,1.04-1.9,1.52-2.6-.51.29-1.13.79-1.85,1.49-.52.52-.94.97-1.26,1.35.71-.15,1.24-.23,1.6-.25Z"/><path class="cls-14" d="M215.72,201.4c-.05.12-.2.43-.43.92-.39.93-.62,1.54-.7,1.83-.04.16-.1.28-.16.34-.06.06-.15.1-.26.1s-.22-.04-.29-.13c-.07-.08-.1-.17-.1-.27,0-.37.33-1.25.98-2.67-.71.08-1.27.2-1.68.37-.13.05-.24.08-.32.08-.2,0-.29-.15-.29-.46,0-.18.07-.36.21-.53.27-.32.74-.8,1.38-1.44.8-.79,1.53-1.43,2.17-1.92.56-.42.97-.64,1.22-.64.11,0,.21.05.31.14.07.08.11.16.11.26,0,.12-.07.3-.22.54-.02.04-.19.31-.48.78-.38.61-.73,1.25-1.05,1.92.34-.02.57-.03.68-.03.29,0,.43.11.43.32,0,.19-.08.33-.23.41-.07.03-.28.05-.62.05-.1,0-.31,0-.64.02ZM215.16,200.72c.53-1.04,1.04-1.9,1.52-2.6-.51.29-1.13.79-1.85,1.49-.52.52-.94.97-1.26,1.35.71-.15,1.24-.23,1.6-.25Z"/><path class="cls-14" d="M264.81,201.4c-.05.12-.2.43-.43.92-.39.93-.62,1.54-.7,1.83-.04.16-.1.28-.16.34-.06.06-.15.1-.26.1s-.22-.04-.29-.13c-.07-.08-.1-.17-.1-.27,0-.37.33-1.25.98-2.67-.71.08-1.27.2-1.68.37-.13.05-.24.08-.32.08-.2,0-.29-.15-.29-.46,0-.18.07-.36.21-.53.27-.32.74-.8,1.38-1.44.8-.79,1.53-1.43,2.17-1.92.56-.42.97-.64,1.22-.64.11,0,.21.05.31.14.07.08.11.16.11.26,0,.12-.07.3-.22.54-.02.04-.19.31-.48.78-.38.61-.73,1.25-1.05,1.92.34-.02.57-.03.68-.03.29,0,.43.11.43.32,0,.19-.08.33-.23.41-.07.03-.28.05-.62.05-.1,0-.31,0-.64.02ZM264.24,200.72c.53-1.04,1.04-1.9,1.52-2.6-.51.29-1.13.79-1.85,1.49-.52.52-.94.97-1.26,1.35.71-.15,1.24-.23,1.6-.25Z"/><path class="cls-14" d="M270.13,198.11c-.83.72-1.36,1.33-1.59,1.85.48-.2.9-.29,1.24-.29.4,0,.71.12.93.35.21.22.31.51.31.86,0,.81-.38,1.62-1.15,2.44-.76.82-1.5,1.22-2.23,1.22-.42,0-.75-.2-.98-.59-.15-.26-.23-.56-.23-.89s.07-.61.22-.83c.12-.18.28-.27.47-.27.18,0,.26.07.26.2,0,.03-.01.09-.04.17-.05.14-.07.33-.07.57,0,.21.05.39.15.55.13.22.31.33.53.33.44,0,.9-.28,1.38-.83.53-.61.79-1.21.79-1.81,0-.25-.06-.44-.17-.56-.11-.12-.28-.19-.51-.19s-.5.06-.82.18c-.07.02-.25.11-.54.26-.06.03-.11.05-.16.05-.09,0-.19-.06-.28-.18-.1-.13-.15-.25-.15-.36,0-.21.21-.59.64-1.16.27-.37.6-.74,1-1.11-.11-.15-.16-.26-.16-.34,0-.11.08-.19.23-.24.07-.02.35-.07.83-.13.54-.07.98-.11,1.32-.11s.55.02.7.07c.18.05.26.17.26.35,0,.22-.11.34-.34.34-.05,0-.15,0-.29-.01-.05,0-.1,0-.17,0-.23,0-.46.01-.69.03-.23.02-.45.05-.68.1Z"/><line class="cls-7" x1="93.61" y1="180.27" x2="431.51" y2="180.27"/><line class="cls-8" x1="106.21" y1="66.63" x2="106.21" y2="180.27"/><line class="cls-8" x1="160.42" y1="66.63" x2="160.42" y2="180.27"/><line class="cls-8" x1="214.63" y1="66.63" x2="214.63" y2="180.27"/><line class="cls-8" x1="268.84" y1="66.63" x2="268.84" y2="180.27"/><circle class="cls-9" cx="106.21" cy="180.27" r="7.2"/><circle class="cls-9" cx="160.42" cy="180.27" r="7.2"/><circle class="cls-9" cx="214.63" cy="180.27" r="7.2"/><circle class="cls-9" cx="268.84" cy="180.27" r="7.2"/><path class="cls-19" d="M445.7,158.33c.28,0,.5-.22.5-.5s-.22-.5-.5-.5H87.64c-.28,0-.5.22-.5.5s.22.5.5.5h358.05"/><path class="cls-19" d="M445.7,130.35c.28,0,.5-.22.5-.5s-.22-.5-.5-.5H87.64c-.28,0-.5.22-.5.5s.22.5.5.5h358.05"/><path class="cls-14" d="M319.05,201.4c-.05.12-.2.43-.43.92-.39.93-.62,1.54-.7,1.83-.04.16-.1.28-.16.34-.06.06-.15.1-.26.1s-.22-.04-.29-.13c-.07-.08-.1-.17-.1-.27,0-.37.33-1.25.98-2.67-.71.08-1.27.2-1.68.37-.13.05-.24.08-.32.08-.2,0-.29-.15-.29-.46,0-.18.07-.36.21-.53.27-.32.74-.8,1.38-1.44.8-.79,1.53-1.43,2.17-1.92.56-.42.97-.64,1.22-.64.11,0,.21.05.31.14.07.08.11.16.11.26,0,.12-.07.3-.22.54-.02.04-.19.31-.48.78-.38.61-.73,1.25-1.05,1.92.34-.02.57-.03.68-.03.29,0,.43.11.43.32,0,.19-.08.33-.23.41-.07.03-.28.05-.62.05-.1,0-.31,0-.64.02ZM318.48,200.72c.53-1.04,1.04-1.9,1.52-2.6-.51.29-1.13.79-1.85,1.49-.52.52-.94.97-1.26,1.35.71-.15,1.24-.23,1.6-.25Z"/><path class="cls-14" d="M322.62,200.28c.73-.27,1.26-.4,1.6-.4.4,0,.7.11.89.34.17.2.26.46.26.78,0,.83-.37,1.64-1.11,2.44-.68.74-1.38,1.11-2.09,1.11-.45,0-.81-.2-1.09-.59-.21-.3-.32-.65-.32-1.05,0-.87.34-1.77,1.01-2.69.58-.8,1.41-1.54,2.49-2.21.32-.21.56-.35.72-.42.15-.07.28-.11.4-.11.19,0,.28.08.28.24,0,.15-.1.27-.29.38-1.02.54-1.93,1.27-2.74,2.18ZM322.02,201.18c-.3.49-.45.98-.45,1.46,0,.32.07.59.22.82.15.23.35.35.59.35.34,0,.69-.16,1.05-.48s.65-.76.87-1.3c.14-.34.21-.64.21-.89,0-.19-.06-.33-.17-.45-.12-.13-.28-.19-.48-.19-.33,0-.73.11-1.2.33-.13.05-.27.13-.43.23-.12.07-.19.12-.2.13Z"/><path class="cls-14" d="M373.26,201.4c-.05.12-.2.43-.43.92-.39.93-.62,1.54-.7,1.83-.04.16-.1.28-.16.34-.06.06-.15.1-.26.1s-.22-.04-.29-.13c-.07-.08-.1-.17-.1-.27,0-.37.33-1.25.98-2.67-.71.08-1.27.2-1.68.37-.13.05-.24.08-.32.08-.2,0-.29-.15-.29-.46,0-.18.07-.36.21-.53.27-.32.73-.8,1.38-1.44.8-.79,1.53-1.43,2.17-1.92.56-.42.97-.64,1.22-.64.11,0,.21.05.31.14.07.08.11.16.11.26,0,.12-.07.3-.22.54-.02.04-.19.31-.48.78-.38.61-.73,1.25-1.05,1.92.34-.02.57-.03.68-.03.29,0,.43.11.43.32,0,.19-.08.33-.23.41-.07.03-.28.05-.62.05-.1,0-.31,0-.64.02ZM372.7,200.72c.53-1.04,1.04-1.9,1.52-2.6-.51.29-1.13.79-1.85,1.49-.52.52-.94.97-1.26,1.35.71-.15,1.24-.23,1.6-.25Z"/><path class="cls-14" d="M379.74,198.06c-1.31.29-2.24.43-2.77.43-.36,0-.54-.12-.54-.35,0-.12.04-.22.12-.3s.17-.12.27-.12c.04,0,.11,0,.21.01.06,0,.14.01.22.01.3,0,.7-.04,1.2-.12.63-.1,1.1-.19,1.4-.27.17-.04.31-.07.42-.07.26,0,.4.14.4.42,0,.19-.11.41-.34.64-1.68,1.8-3,3.57-3.95,5.32-.23.42-.38.67-.44.75-.12.14-.24.21-.37.21-.07,0-.14-.03-.19-.08-.07-.06-.1-.13-.1-.21,0-.25.24-.76.71-1.54.62-1.02,1.38-2.06,2.26-3.11.53-.63,1.02-1.18,1.49-1.63Z"/><path class="cls-14" d="M427.47,201.4c-.05.12-.2.43-.43.92-.39.93-.62,1.54-.7,1.83-.04.16-.1.28-.16.34-.06.06-.15.1-.26.1s-.22-.04-.29-.13c-.07-.08-.1-.17-.1-.27,0-.37.33-1.25.98-2.67-.71.08-1.27.2-1.68.37-.13.05-.24.08-.32.08-.2,0-.29-.15-.29-.46,0-.18.07-.36.21-.53.27-.32.73-.8,1.38-1.44.8-.79,1.53-1.43,2.18-1.92.56-.42.97-.64,1.22-.64.11,0,.21.05.31.14.07.08.11.16.11.26,0,.12-.07.3-.22.54-.02.04-.19.31-.48.78-.38.61-.73,1.25-1.05,1.92.34-.02.57-.03.68-.03.29,0,.43.11.43.32,0,.19-.08.33-.23.41-.07.03-.28.05-.62.05-.1,0-.32,0-.64.02ZM426.91,200.72c.53-1.04,1.04-1.9,1.52-2.6-.51.29-1.13.79-1.85,1.49-.52.52-.94.97-1.26,1.35.71-.15,1.24-.23,1.6-.25Z"/><path class="cls-14" d="M431.76,199.92c-.21-.21-.37-.38-.45-.51-.13-.21-.2-.42-.2-.65,0-.51.26-.94.77-1.28.44-.3.92-.45,1.44-.45.38,0,.68.12.9.35.2.21.29.45.29.74,0,.43-.21.83-.63,1.2-.22.2-.54.43-.95.7.25.25.44.5.57.75s.19.49.19.72c0,.46-.15.91-.46,1.36-.33.48-.75.87-1.27,1.17-.52.3-1.05.45-1.57.45-.46,0-.84-.17-1.14-.5-.22-.25-.33-.53-.33-.83,0-.8.49-1.57,1.46-2.31.51-.4.97-.7,1.37-.92ZM432.26,200.42c-.59.3-1.08.63-1.49,1.01-.57.53-.85,1.04-.85,1.52,0,.28.09.49.26.62.18.12.37.18.56.18.27,0,.56-.08.86-.25.3-.17.56-.39.77-.66.31-.4.47-.82.47-1.25,0-.3-.09-.58-.28-.84-.04-.06-.11-.13-.2-.22-.07-.07-.11-.1-.11-.1ZM432.47,199.48c.29-.16.54-.34.75-.54.26-.26.4-.5.4-.73,0-.15-.05-.27-.14-.37-.1-.12-.24-.18-.4-.18-.28,0-.55.1-.79.3-.21.17-.31.37-.31.59,0,.16.09.36.27.61l.23.31Z"/><line class="cls-8" x1="323.08" y1="66.63" x2="323.08" y2="180.27"/><line class="cls-8" x1="377.3" y1="66.63" x2="377.3" y2="180.27"/><line class="cls-8" x1="431.51" y1="66.63" x2="431.51" y2="180.27"/><circle class="cls-9" cx="323.08" cy="180.27" r="7.2"/><circle class="cls-9" cx="377.3" cy="180.27" r="7.2"/><circle class="cls-9" cx="431.51" cy="180.27" r="7.2"/><path class="cls-14" d="M228.23,473.59c-.44.69-.85,1.46-1.23,2.32-.54,1.22-.81,2.12-.81,2.73,0,.17.04.3.11.39.07.09.18.13.32.13.34,0,.76-.32,1.24-.96.31-.4.58-.79.82-1.19.13-.23.27-.34.42-.34.09,0,.16.03.23.09.05.06.08.12.08.18,0,.25-.33.82-.99,1.69-.79,1.05-1.52,1.58-2.17,1.58-.35,0-.64-.16-.87-.48-.14-.21-.22-.5-.22-.87,0-.83.24-1.79.72-2.89.12-.27.44-.93.96-1.98-.18.05-.32.07-.42.07-.14,0-.27-.04-.38-.1-.15-.1-.23-.21-.23-.36,0-.17.1-.31.3-.41.05-.03.31-.07.76-.13.16-.03.4-.09.72-.19.24-.43.63-1.01,1.17-1.75.3-.41.51-.68.62-.8.16-.17.31-.26.43-.26.09,0,.18.05.27.14.08.09.12.18.12.27,0,.18-.19.53-.57,1.06-.25.34-.44.62-.56.83.76-.21,1.3-.31,1.63-.31.38,0,.56.16.56.47,0,.16-.06.27-.2.35-.07.04-.25.08-.53.1-.12,0-.63.12-1.55.39-.25.08-.5.15-.75.24Z"/><path class="cls-14" d="M232.29,474.05c.12,0,.21.04.29.13.05.07.08.15.08.22,0,.12-.1.33-.3.62-.71,1.1-1.22,2.01-1.52,2.72-.32.73-.61,1.48-.85,2.26-.11.34-.28.51-.51.51-.14,0-.25-.05-.33-.16-.08-.09-.11-.18-.11-.29,0-.21.22-.89.66-2.05.34-.92.9-1.93,1.66-3.04.25-.36.43-.61.55-.73.12-.13.25-.19.38-.19ZM234.24,470.25c.31,0,.46.16.46.47,0,.29-.15.61-.45.95-.29.33-.56.5-.83.5-.13,0-.24-.05-.32-.14-.08-.09-.12-.2-.12-.33,0-.33.18-.68.54-1.04.27-.27.51-.41.72-.41Z"/><path class="cls-14" d="M234.13,476.78c.57-.6,1.08-1.07,1.52-1.42.66-.51,1.11-.77,1.33-.77.11,0,.21.04.29.12.07.07.11.16.11.25,0,.13-.12.34-.36.63-.37.46-.63.86-.77,1.19,1.6-1.61,2.69-2.41,3.28-2.41.12,0,.23.04.32.11.1.08.14.19.14.31,0,.19-.15.44-.44.74-1.29,1.33-1.94,2.43-1.94,3.28,0,.35.06.6.19.75l.27.34c.05.06.08.14.08.24,0,.11-.04.21-.13.31-.1.11-.22.16-.35.16-.23,0-.43-.14-.63-.43-.23-.34-.35-.75-.35-1.21,0-.62.18-1.25.53-1.89.12-.23.33-.53.62-.9-.58.44-1.17,1.04-1.77,1.8-.41.52-.78,1.1-1.11,1.74-.16.31-.34.46-.55.46-.23,0-.35-.13-.35-.39,0-.28.19-.86.57-1.73.22-.5.49-1.03.81-1.58-1.17.9-2.05,2.13-2.63,3.67-.14.34-.33.51-.57.51-.11,0-.2-.04-.27-.12-.08-.08-.11-.18-.11-.3,0-.4.22-1.13.68-2.18.47-1.11,1.01-2.12,1.6-3,.41-.62.73-.93.95-.93.21,0,.31.11.31.33,0,.1-.13.33-.38.72-.45.72-.74,1.25-.88,1.6Z"/><path class="cls-14" d="M240.62,478.23v.19c0,.15.04.28.11.39.17.25.45.38.84.38.85,0,1.84-.66,2.96-1.97.2-.23.37-.34.5-.34.08,0,.14.04.21.11.04.05.06.11.06.15,0,.27-.33.72-.98,1.35-.51.5-1.06.91-1.64,1.22-.58.31-1.12.47-1.62.47s-.92-.18-1.21-.53c-.2-.25-.3-.58-.3-1,0-1.16.54-2.29,1.63-3.39.88-.9,1.65-1.35,2.31-1.35.18,0,.34.05.48.16.18.14.27.33.27.56,0,.36-.17.81-.5,1.33-.69,1.09-1.73,1.85-3.12,2.27ZM240.85,477.43c.48-.16.85-.35,1.13-.55.48-.37.86-.79,1.14-1.25.1-.16.15-.31.15-.44,0-.14-.06-.21-.2-.21-.18,0-.43.13-.76.4-.59.47-1.08,1.15-1.47,2.05Z"/><path class="cls-1" d="M254.5,475.18c10.97-1.12,22.95-.62,42.79-2.49"/><path class="cls-14" d="M293.42,475.86c-.1-.13-.07-.32.06-.42l3.67-2.76-4.05-2.16c-.15-.08-.2-.26-.12-.41s.26-.2.41-.12l4.47,2.38c.09.05.15.14.16.24,0,.1-.04.2-.12.26l-4.05,3.04s-.1.05-.16.06c-.1,0-.2-.03-.26-.12Z"/><g class="cls-21"><rect class="cls-15" x="113.41" y="132.44" width="135.21" height="23.31"/><path d="M249.12,156.25H112.91v-24.31h136.21v24.31ZM113.91,155.25h134.21v-22.31H113.91v22.31Z"/><path d="M120,147.16v-1.3l3.57-7.71h1.54l-3.49,7.62h5.22v1.38h-6.85ZM124.59,148.8v-6.27h1.46v6.27h-1.46Z"/><path d="M128.52,148.79v-1.3l3.71-4.95c.21-.28.38-.58.5-.88.12-.3.18-.59.18-.86h0c0-.44-.12-.77-.37-1s-.6-.35-1.06-.35c-.43,0-.78.13-1.05.38-.27.26-.44.62-.49,1.09h0s-1.55,0-1.55,0h0c.13-.93.47-1.64,1-2.14.54-.51,1.23-.76,2.07-.76.96,0,1.7.24,2.22.73s.78,1.17.78,2.05h0c0,.38-.08.78-.23,1.19s-.37.81-.65,1.18l-3.08,4.19h4.03v1.42h-6.01Z"/><rect x="140.83" y="143.21" width="107.78" height="1"/><polygon points="142.83 142.01 141.13 143.71 142.83 145.4 141.39 145.4 139.69 143.71 141.39 142.01 142.83 142.01"/><rect class="cls-15" x="173.36" y="104.46" width="100.18" height="23.31"/><path d="M274.04,128.27h-101.18v-24.31h101.18v24.31ZM173.86,127.27h99.18v-22.31h-99.18v22.31Z"/><path d="M179.86,119.18v-1.3l3.57-7.71h1.54l-3.49,7.62h5.22v1.38h-6.85ZM184.45,120.82v-6.27h1.46v6.27h-1.46Z"/><path d="M191.29,120.92c-.6,0-1.13-.11-1.58-.33-.45-.22-.81-.53-1.09-.94s-.45-.91-.53-1.49h1.52c.07.46.25.79.54,1.01.29.21.67.32,1.13.32.49,0,.88-.13,1.15-.4s.41-.63.41-1.11v-.32c0-.53-.13-.94-.39-1.23s-.62-.44-1.1-.44h-.75v-1.42h.75c.42,0,.74-.12.97-.37.23-.25.34-.6.34-1.05v-.33c0-.42-.12-.74-.36-.97-.24-.23-.58-.34-1.03-.34-.38,0-.69.11-.96.32-.26.21-.44.55-.54,1.01h-1.52c.15-.88.49-1.56,1.01-2.04.52-.48,1.19-.72,2-.72.92,0,1.63.24,2.13.73s.75,1.16.75,2.04v.18c0,.53-.14,1-.43,1.39s-.7.68-1.22.87c.58.12,1.03.41,1.35.85.32.45.48,1.01.48,1.7v.18c0,.93-.27,1.66-.8,2.17s-1.28.77-2.26.77Z"/><rect x="200.79" y="115.23" width="72.54" height="1"/><polygon points="202.78 114.03 201.08 115.73 202.78 117.42 201.34 117.42 199.65 115.73 201.34 114.03 202.78 114.03"/><rect class="cls-15" x="217.73" y="76.34" width="114.72" height="23.31"/><path d="M332.95,100.15h-115.72v-24.31h115.72v24.31ZM218.23,99.15h113.72v-22.31h-113.72v22.31Z"/><path d="M223.93,91.07v-1.3l3.57-7.71h1.54l-3.49,7.62h5.22v1.38h-6.85ZM228.52,92.71v-6.27h1.46v6.27h-1.46Z"/><path d="M232.46,91.07v-1.3l3.57-7.71h1.54l-3.49,7.62h5.22v1.38h-6.85ZM237.05,92.71v-6.27h1.46v6.27h-1.46Z"/><rect x="245.16" y="87.11" width="87.29" height="1"/><polygon points="247.15 85.92 245.45 87.61 247.15 89.31 245.71 89.31 244.02 87.61 245.71 85.92 247.15 85.92"/><rect class="cls-15" x="36.25" y="104.46" width="114.72" height="23.31"/><path d="M151.47,128.27H35.75v-24.31h115.72v24.31ZM36.75,127.27h113.72v-22.31H36.75v22.31Z"/><path d="M42.84,119.18v-1.3l3.57-7.71h1.54l-3.49,7.62h5.22v1.38h-6.85ZM47.44,120.82v-6.27h1.46v6.27h-1.46Z"/><path d="M51.36,120.81v-1.3l3.71-4.95c.21-.28.38-.58.5-.88.12-.3.18-.59.18-.86h0c0-.44-.12-.77-.37-1s-.6-.35-1.06-.35c-.43,0-.78.13-1.05.38-.27.26-.44.62-.49,1.09h0s-1.55,0-1.55,0h0c.13-.93.47-1.64,1-2.14.54-.51,1.23-.76,2.07-.76.96,0,1.7.24,2.22.73s.78,1.17.78,2.05h0c0,.38-.08.78-.23,1.19s-.37.81-.65,1.18l-3.08,4.19h4.03v1.42h-6.01Z"/><rect x="63.68" y="115.23" width="87.29" height="1"/><polygon points="65.67 114.03 63.98 115.73 65.67 117.42 64.23 117.42 62.54 115.73 64.23 114.03 65.67 114.03"/><rect class="cls-15" x="-18.17" y="132.44" width="114.72" height="23.31"/><path d="M97.05,156.25H-18.67v-24.31h115.72v24.31ZM-17.67,155.25h113.72v-22.31H-17.67v22.31Z"/><path d="M-3.06,148.79v-1.3l3.71-4.95c.21-.28.38-.58.5-.88.12-.3.18-.59.18-.86h0c0-.44-.12-.77-.37-1s-.6-.35-1.06-.35c-.43,0-.78.13-1.05.38-.27.26-.44.62-.5,1.09h0s-1.54,0-1.54,0h0c.13-.93.47-1.64,1-2.14.54-.51,1.23-.76,2.07-.76.96,0,1.7.24,2.22.73s.78,1.17.78,2.05h0c0,.38-.08.78-.23,1.19s-.37.81-.65,1.18l-3.08,4.19H2.95v1.42H-3.06Z"/><rect x="9.26" y="143.21" width="87.29" height="1"/><polygon points="11.25 142.01 9.55 143.71 11.25 145.4 9.81 145.4 8.12 143.71 9.81 142.01 11.25 142.01"/><rect class="cls-15" x="78.24" y="76.34" width="114.72" height="23.31"/><path d="M193.46,100.15h-115.72v-24.31h115.72v24.31ZM78.74,99.15h113.72v-22.31h-113.72v22.31Z"/><path d="M86.4,91.07v-1.3l3.57-7.71h1.54l-3.49,7.62h5.22v1.38h-6.85ZM90.99,92.71v-6.27h1.46v6.27h-1.46Z"/><path d="M97.28,82.05v10.65h-1.49v-9.02l-1.52.93v-1.55l1.52-1.01h1.49Z"/><rect x="105.67" y="87.11" width="87.29" height="1"/><polygon points="107.66 85.92 105.97 87.61 107.66 89.31 106.22 89.31 104.53 87.61 106.22 85.92 107.66 85.92"/><g class="cls-16"><path class="cls-15" d="M466.49,106.31v19.31h-133.88v-19.31h133.88M468.49,104.31h-137.88v23.31h137.88v-23.31h0Z"/><rect class="cls-6" x="330.61" y="104.31" width="137.88" height="23.31"/><g class="cls-20"><polygon class="cls-22" points="336.9 106.22 327.44 106.22 308.24 125.67 317.7 125.67 336.9 106.22"/><polygon class="cls-22" points="354.97 106.22 345.51 106.22 326.31 125.67 335.77 125.67 354.97 106.22"/><polygon class="cls-22" points="373.04 106.22 363.59 106.22 344.39 125.67 353.84 125.67 373.04 106.22"/><polygon class="cls-22" points="391.11 106.22 381.66 106.22 362.46 125.67 371.91 125.67 391.11 106.22"/><polygon class="cls-22" points="409.19 106.22 399.73 106.22 380.53 125.67 389.99 125.67 409.19 106.22"/><polygon class="cls-22" points="427.26 106.22 417.8 106.22 398.6 125.67 408.06 125.67 427.26 106.22"/><polygon class="cls-22" points="445.33 106.22 435.87 106.22 416.67 125.67 426.13 125.67 445.33 106.22"/><polygon class="cls-22" points="463.4 106.22 453.94 106.22 434.74 125.67 444.2 125.67 463.4 106.22"/><polygon class="cls-22" points="481.47 106.22 472.01 106.22 452.81 125.67 462.27 125.67 481.47 106.22"/></g></g><g class="cls-18"><path class="cls-15" d="M516.73,78.54v19.31h-133.88v-19.31h133.88M518.73,76.54h-137.88v23.31h137.88v-23.31h0Z"/><rect class="cls-6" x="380.85" y="76.54" width="137.88" height="23.31"/><g class="cls-13"><polygon class="cls-22" points="387.15 78.45 377.69 78.45 358.49 97.9 367.95 97.9 387.15 78.45"/><polygon class="cls-22" points="405.22 78.45 395.76 78.45 376.56 97.9 386.02 97.9 405.22 78.45"/><polygon class="cls-22" points="423.29 78.45 413.83 78.45 394.63 97.9 404.09 97.9 423.29 78.45"/><polygon class="cls-22" points="441.36 78.45 431.9 78.45 412.7 97.9 422.16 97.9 441.36 78.45"/><polygon class="cls-22" points="459.43 78.45 449.97 78.45 430.77 97.9 440.23 97.9 459.43 78.45"/><polygon class="cls-22" points="477.5 78.45 468.04 78.45 448.84 97.9 458.3 97.9 477.5 78.45"/><polygon class="cls-22" points="495.57 78.45 486.11 78.45 466.91 97.9 476.37 97.9 495.57 78.45"/></g></g><rect class="cls-15" x="272.09" y="132.44" width="117.71" height="23.31"/><path d="M390.3,156.25h-118.71v-24.31h118.71v24.31ZM272.59,155.25h116.71v-22.31h-116.71v22.31Z"/><path d="M278.47,147.16v-1.3l3.57-7.71h1.54l-3.49,7.62h5.22v1.38h-6.85ZM283.06,148.8v-6.27h1.46v6.27h-1.46Z"/><path d="M290.12,148.9c-.81,0-1.48-.23-2-.7-.52-.47-.85-1.12-.98-1.97h0s1.49,0,1.49,0h0c.05.4.21.7.47.92s.6.33,1.01.33c.48,0,.85-.16,1.11-.48.26-.32.39-.77.39-1.35v-.89c0-.58-.13-1.03-.39-1.35-.26-.32-.63-.48-1.11-.48-.26,0-.51.07-.75.22s-.45.35-.63.62h-1.36v-5.61h5.43v1.42h-3.93v2.4c.19-.15.39-.27.62-.35s.46-.12.7-.12c.93,0,1.65.28,2.15.85s.76,1.37.76,2.41v.89c0,1.04-.26,1.84-.78,2.41s-1.26.85-2.21.85Z"/><rect x="299.52" y="143.21" width="90.28" height="1"/><polygon points="301.51 142.01 299.81 143.71 301.51 145.4 300.07 145.4 298.37 143.71 300.07 142.01 301.51 142.01"/></g><path class="cls-19" d="M445.7,102.37c.28,0,.5-.22.5-.5s-.22-.5-.5-.5H87.64c-.28,0-.5.22-.5.5s.22.5.5.5h358.05"/><path class="cls-19" d="M445.7,74.39c.28,0,.5-.22.5-.5s-.22-.5-.5-.5H87.64c-.28,0-.5.22-.5.5s.22.5.5.5h358.05"/><line class="cls-1" x1="93.61" y1="66.63" x2="93.61" y2="181.26"/><path class="cls-14" d="M50.88,29.66c.18-.02.34.05.47.21.09.1.14.21.15.34.02.2-.15.49-.5.86-.98,1.11-1.51,2.36-1.57,3.76-.02.26-.12.46-.31.61-.17.14-.33.21-.51.23-.4.03-.63-.2-.67-.71-.07-.81.29-1.89,1.06-3.25.31-.56.7-1.07,1.15-1.55.29-.32.53-.48.73-.5ZM53.93,29.4c.17-.02.33.06.47.21.09.1.14.21.15.35.02.2-.15.49-.5.86-.98,1.11-1.51,2.36-1.57,3.76-.02.26-.12.46-.31.61-.17.14-.33.21-.51.23-.4.03-.63-.2-.67-.71-.07-.81.29-1.89,1.06-3.25.32-.57.71-1.08,1.15-1.55.29-.32.53-.48.73-.5Z"/><path class="cls-14" d="M60.57,37.79c-.49.93-.94,1.97-1.33,3.1-.56,1.62-.81,2.81-.74,3.58.02.22.08.38.18.49.1.11.24.15.43.14.44-.04.93-.49,1.48-1.37.35-.54.66-1.08.92-1.61.14-.3.31-.46.5-.48.11,0,.21.02.3.09.08.07.12.15.12.23.03.32-.34,1.08-1.09,2.28-.9,1.43-1.77,2.19-2.61,2.26-.45.04-.84-.14-1.17-.52-.21-.25-.33-.61-.37-1.09-.09-1.06.11-2.32.61-3.78.12-.36.46-1.24,1.02-2.64-.23.08-.41.13-.53.14-.18.02-.35-.01-.5-.09-.2-.11-.31-.25-.33-.44-.02-.22.09-.4.34-.56.07-.04.39-.13.96-.25.21-.05.51-.16.9-.33.26-.58.7-1.37,1.31-2.37.34-.56.58-.92.71-1.09.19-.24.37-.36.52-.38.11,0,.23.04.36.16.12.1.18.21.19.33.02.23-.19.7-.62,1.42-.29.47-.5.84-.63,1.13.95-.35,1.63-.54,2.05-.57.48-.04.74.14.77.54.02.2-.05.36-.21.47-.08.06-.31.12-.67.19-.15,0-.8.23-1.94.67-.32.12-.63.25-.93.38Z"/><path class="cls-14" d="M63.85,43.5l.02.24c.02.19.08.36.19.49.25.31.62.44,1.12.39,1.1-.09,2.29-1.04,3.58-2.84.23-.31.43-.47.61-.49.1,0,.19.03.28.12.06.07.09.13.09.19.03.34-.34.96-1.11,1.84-.6.69-1.26,1.27-1.97,1.74-.71.47-1.39.73-2.02.78-.66.06-1.19-.13-1.61-.55-.28-.29-.44-.71-.49-1.26-.12-1.48.45-2.99,1.72-4.52,1.03-1.25,1.97-1.91,2.81-1.98.23-.02.44.03.64.16.24.17.38.4.4.69.04.46-.13,1.05-.5,1.76-.77,1.48-2.01,2.56-3.75,3.24ZM64.06,42.45c.59-.26,1.06-.54,1.38-.83.57-.52,1.01-1.1,1.32-1.73.11-.22.16-.42.15-.58-.01-.18-.11-.26-.27-.24-.23.02-.54.22-.93.59-.7.67-1.25,1.6-1.66,2.79Z"/><path class="cls-14" d="M72.31,40.91c.67-.83,1.27-1.49,1.79-1.98.79-.73,1.33-1.11,1.62-1.13.14-.01.27.03.38.13.11.09.16.19.17.3.01.17-.12.45-.39.85-.42.64-.71,1.17-.86,1.61,1.88-2.23,3.19-3.38,3.94-3.44.16-.01.3.02.42.11.13.09.2.22.22.38.02.25-.14.58-.48.99-1.51,1.85-2.22,3.32-2.13,4.41.04.45.14.76.32.94l.38.4c.08.07.12.17.13.29.01.14-.03.28-.14.41-.12.15-.26.23-.43.25-.29.02-.57-.14-.85-.48-.33-.41-.53-.92-.58-1.51-.07-.8.09-1.62.48-2.47.13-.3.36-.71.69-1.22-.7.62-1.39,1.46-2.08,2.5-.47.71-.88,1.49-1.23,2.35-.17.41-.39.63-.66.65-.3.03-.46-.13-.49-.46-.03-.36.15-1.12.55-2.28.23-.66.51-1.37.87-2.11-1.4,1.28-2.39,2.95-2.98,4.99-.15.45-.37.69-.68.72-.14.01-.26-.03-.36-.13-.11-.1-.16-.22-.18-.37-.04-.52.17-1.47.63-2.87.48-1.48,1.06-2.82,1.72-4.02.46-.84.83-1.27,1.12-1.3.26-.02.41.11.43.39,0,.12-.13.44-.41.96-.49.97-.81,1.68-.96,2.15Z"/><path class="cls-14" d="M83.17,37.38c.34-.26.59-.44.76-.54.34-.21.69-.32,1.03-.35.38-.03.68.05.9.26.21.21.34.53.37.98.05.61-.1,1.37-.46,2.26-.55,1.41-1.27,2.55-2.15,3.41-.74.72-1.46,1.12-2.16,1.18-.38.03-.78-.08-1.18-.35-.99,2.53-1.86,5.09-2.59,7.69-.15.62-.36.94-.63.97-.13.01-.27-.07-.42-.23-.11-.12-.17-.25-.18-.4-.04-.47.41-2.06,1.34-4.76,1.45-4.16,2.86-7.64,4.24-10.43.29-.59.48-.99.57-1.21.26-.6.53-.9.82-.93.3-.02.46.14.49.5.02.2-.07.48-.25.84-.22.46-.39.83-.51,1.1ZM80.67,43.08c.21.19.46.27.75.24.81-.07,1.66-.87,2.52-2.4.32-.57.57-1.14.74-1.72.14-.46.2-.81.18-1.03-.01-.16-.06-.27-.14-.34-.08-.07-.2-.1-.36-.09-.41.03-.89.36-1.44.98-.52.6-1,1.42-1.45,2.46-.4.96-.67,1.59-.8,1.89Z"/><path class="cls-14" d="M91.42,35.17c.72-.06,1.11.35,1.19,1.22.1,1.17-.32,2.69-1.24,4.56-1.01,2.03-2.06,3.1-3.16,3.19-.51.04-.9-.16-1.18-.61-.14-.23-.23-.51-.26-.84-.09-1.12.19-2.37.85-3.75.62-1.28,1.38-2.3,2.29-3.05.54-.44,1.04-.68,1.5-.72ZM90.48,40.25c-.23-.16-.36-.28-.36-.38,0-.07.12-.27.37-.61.71-.95,1.05-1.7,1-2.24,0-.07-.03-.14-.08-.2-.08-.12-.2-.18-.34-.17-.28.02-.67.33-1.17.92-.64.76-1.11,1.53-1.42,2.3-.36.89-.51,1.61-.46,2.17.01.15.06.28.15.38.13.15.28.21.45.2.42-.04.84-.39,1.27-1.06.19-.28.33-.57.44-.86.11-.29.16-.44.15-.45Z"/><path class="cls-14" d="M95.33,39.02c.78-.99,1.69-1.97,2.74-2.94.38-.35.78-.68,1.21-.99.22-.15.36-.23.42-.23.13-.01.27.07.42.26.09.1.13.19.14.28.01.16-.13.39-.45.69-.83.79-1.23,1.36-1.2,1.72.02.2.14.29.37.27.38-.03,1-.4,1.87-1.1.15-.12.28-.18.38-.19.07,0,.14.02.22.09.09.07.13.15.14.24.02.26-.31.7-1,1.3-.72.64-1.43.99-2.12,1.05-.28.02-.54-.03-.79-.16-.21-.11-.33-.32-.36-.63-.02-.22.05-.48.21-.77-.65.55-1.39,1.46-2.23,2.73-.48.78-.94,1.73-1.38,2.86-.17.42-.4.64-.7.67-.32.03-.5-.11-.53-.42-.03-.3.16-1.12.56-2.46.59-1.99,1.25-3.55,1.98-4.68.45-.7.85-1.06,1.19-1.09.11,0,.22.02.32.08.12.08.19.18.2.31.01.13-.06.32-.22.57-.03.05-.24.36-.62.94-.35.55-.61,1.09-.78,1.61Z"/><path class="cls-14" d="M105.21,40.35c-.25.53-.49.99-.75,1.36-.49.73-1.01,1.12-1.56,1.16-.47.04-.86-.15-1.16-.58-.19-.27-.3-.61-.34-1-.08-.97.13-2.07.65-3.3.57-1.36,1.31-2.44,2.21-3.22.59-.51,1.18-.79,1.77-.84.37-.03.68.06.95.26.23.18.35.4.37.66.02.19-.04.47-.16.82.15.17.23.33.24.47.02.18-.08.5-.29.94-.22.45-.42,1.04-.62,1.77-.21.78-.29,1.39-.25,1.85.03.37.17.66.41.88.07.06.25.14.56.26.23.09.35.26.38.52.01.17-.04.31-.15.42-.12.13-.27.2-.45.21-.47.04-.9-.14-1.28-.53-.31-.32-.49-.74-.53-1.25-.01-.18-.02-.47-.02-.87ZM106.49,35.89c-.12-.18-.25-.32-.38-.4-.13-.08-.27-.12-.41-.1-.67.06-1.34.7-2.02,1.93-.75,1.36-1.09,2.49-1.01,3.38.02.22.07.38.17.49.09.11.22.15.39.14.42-.04.87-.52,1.36-1.46.27-.52.6-1.27.99-2.27.25-.65.44-1.08.57-1.29.06-.11.18-.25.35-.41Z"/><path class="cls-14" d="M110.28,37.71c-.21.71-.35,1.27-.45,1.71-.1.43-.14.73-.12.9.02.22.13.32.34.3.32-.03.7-.36,1.15-1,.21-.31.52-.86.92-1.65.16-.31.34-.48.54-.5.23-.02.35.08.37.3.03.38-.34,1.17-1.11,2.4-.8,1.28-1.59,1.95-2.36,2.01-.33.03-.62-.09-.85-.35-.17-.19-.26-.43-.29-.72-.04-.49.05-1.18.27-2.07.22-.89.58-1.98,1.06-3.28,1.24-3.29,2.56-6.02,3.95-8.21,1.11-1.75,2.08-2.66,2.9-2.73.26-.02.49.06.67.25.19.19.3.41.32.67.1,1.23-.82,3.36-2.77,6.4-.87,1.35-1.94,2.72-3.2,4.11-.33.36-.78.85-1.36,1.46ZM111.03,35.54c1.69-1.71,3.15-3.82,4.39-6.33.64-1.3.94-2.15.91-2.55-.02-.19-.11-.28-.27-.27-.48.04-1.28,1.07-2.38,3.1-.92,1.67-1.8,3.68-2.64,6.05Z"/><path class="cls-14" d="M122.64,34.81c1.1-3,2.21-5.47,3.33-7.39.76-1.3,1.41-2.25,1.93-2.86.36-.43.68-.65.96-.68.11,0,.2.02.28.08.13.08.2.19.21.34.02.19-.11.48-.39.87-1.75,2.37-3.28,5.16-4.58,8.38,1.36-.65,2.31-1,2.86-1.05.4-.03.74.04,1.02.22.29.19.45.42.47.69.01.14-.03.27-.11.39-.12.18-.28.27-.49.29-.15.01-.45-.09-.91-.29-.13-.05-.29-.07-.48-.05-.88.07-1.89.56-3.05,1.46.55.2.95.49,1.2.88.35.54.55,1.23.62,2.06.18,2.15-.27,4.46-1.34,6.95-.47,1.06-.93,1.88-1.41,2.45-.5.62-1.04.95-1.62,1-.44.04-.81-.14-1.12-.54-.25-.33-.4-.8-.45-1.4-.11-1.3.21-3.29.98-5.97.1-.33.38-1.17.84-2.52.12-.34.24-.69.35-1.08-.07.02-.13.04-.19.04-.24.02-.37-.1-.39-.36-.04-.46.45-1.1,1.48-1.91ZM123.24,36.5c-.41.97-.93,2.52-1.56,4.66-.65,2.18-.93,3.85-.83,5.02.02.23.09.42.22.59.14.17.29.24.46.23.54-.05,1.18-1.02,1.91-2.91.83-2.12,1.17-4.02,1.03-5.71-.06-.66-.22-1.14-.51-1.45-.11-.12-.34-.26-.71-.42Z"/><path class="cls-14" d="M129.9,36.09c.78-.99,1.69-1.97,2.74-2.94.38-.35.78-.68,1.21-.99.22-.15.36-.23.42-.23.13-.01.27.07.42.26.09.1.14.19.14.28.01.16-.13.39-.44.69-.83.79-1.23,1.36-1.2,1.72.02.2.14.29.37.27.38-.03,1-.4,1.87-1.1.15-.12.28-.18.38-.19.07,0,.14.02.22.09.09.07.13.15.14.24.02.26-.31.7-1,1.3-.72.64-1.43.99-2.12,1.05-.28.02-.54-.03-.79-.16-.21-.11-.33-.32-.36-.63-.02-.22.05-.48.21-.77-.65.55-1.39,1.46-2.23,2.73-.48.78-.94,1.73-1.39,2.86-.17.42-.4.64-.7.67-.32.03-.5-.11-.52-.42-.03-.3.16-1.12.56-2.46.59-1.99,1.25-3.55,1.99-4.68.45-.7.85-1.06,1.19-1.09.11,0,.22.02.33.08.12.08.19.18.2.31.01.13-.06.32-.22.57-.03.05-.24.36-.62.94-.35.55-.61,1.09-.78,1.61Z"/><path class="cls-14" d="M139.77,37.42c-.25.53-.49.99-.75,1.36-.49.73-1.01,1.12-1.55,1.16-.47.04-.86-.15-1.16-.58-.19-.27-.3-.61-.34-1-.08-.97.13-2.07.65-3.3.57-1.36,1.31-2.44,2.21-3.22.59-.51,1.18-.79,1.77-.84.37-.03.68.06.95.26.23.18.35.4.37.66.02.19-.04.47-.16.82.15.17.23.33.24.47.02.18-.08.5-.29.94-.22.45-.42,1.04-.62,1.77-.21.78-.29,1.39-.25,1.85.03.37.17.66.41.88.07.06.25.14.56.26.23.09.35.26.38.52.01.17-.04.31-.15.42-.12.13-.27.19-.44.21-.47.04-.9-.14-1.28-.53-.31-.32-.49-.74-.53-1.25-.01-.18-.02-.47-.02-.87ZM141.05,32.96c-.12-.18-.25-.32-.38-.4-.13-.08-.27-.12-.41-.1-.67.06-1.34.7-2.02,1.93-.75,1.36-1.09,2.49-1.01,3.38.02.22.07.38.17.49.09.11.22.15.39.14.42-.04.87-.52,1.36-1.46.27-.52.6-1.27.99-2.27.25-.65.44-1.08.57-1.29.06-.11.18-.25.35-.41Z"/><path class="cls-14" d="M146.89,37.87c.88-.76,1.52-1.44,1.93-2.04.61-.87,1.03-1.57,1.26-2.1.12-.24.25-.37.4-.38.21-.02.32.07.34.27.02.24-.11.65-.4,1.23-.89,1.77-2.32,3.37-4.28,4.79-.79,2.1-1.39,3.52-1.78,4.28-1.05,1.99-2.11,3.04-3.17,3.13-.56.05-.98-.14-1.26-.55-.16-.24-.26-.52-.28-.85-.12-1.38.66-2.77,2.32-4.18.26-.23,1.34-.99,3.24-2.26.32-.85.56-1.51.73-1.99-.84,1.04-1.56,1.59-2.16,1.64-.38.03-.69-.14-.93-.5-.15-.24-.24-.5-.26-.77-.05-.63.14-1.46.57-2.5.61-1.49,1.4-2.69,2.37-3.61.81-.76,1.55-1.18,2.21-1.23.34-.03.65.07.91.31.18.15.29.39.31.71.03.4-.06.91-.28,1.53.22.18.33.31.34.41,0,.06-.03.15-.11.27-.21.34-.54.99-.99,1.92-.4.82-.74,1.65-1.02,2.48ZM144.54,40.79c-1.11.59-2.07,1.42-2.87,2.49-.37.5-.62,1.01-.76,1.55-.04.16-.05.3-.05.4,0,.11.04.21.1.3.11.15.25.22.43.2.54-.05,1.13-.68,1.76-1.91.55-1.06,1.01-2.07,1.38-3.03ZM146.54,34.84c-.13-.12-.2-.21-.21-.26,0-.08.05-.18.17-.32.4-.46.72-.92.95-1.4.19-.38.27-.67.26-.87-.02-.24-.14-.35-.36-.33-.38.03-.88.44-1.52,1.21-.76.92-1.33,1.92-1.7,3.02-.18.54-.26.96-.24,1.24.01.16.06.27.14.35.08.07.18.1.31.09.31-.03.71-.38,1.21-1.06.32-.43.58-.85.79-1.26.14-.27.21-.41.2-.41Z"/><path class="cls-14" d="M153.16,34.07c.67-.83,1.27-1.49,1.79-1.98.79-.73,1.34-1.11,1.62-1.13.14-.01.27.03.38.13.1.09.16.19.17.3.01.17-.12.45-.39.85-.42.64-.71,1.17-.86,1.61,1.88-2.23,3.19-3.38,3.94-3.44.16-.01.3.02.42.11.13.09.2.22.22.38.02.25-.14.58-.48.99-1.51,1.85-2.22,3.32-2.13,4.41.04.45.14.76.32.94l.38.4c.08.07.12.17.13.29.01.14-.03.28-.14.41-.12.15-.26.23-.43.25-.29.02-.57-.14-.85-.48-.33-.41-.53-.92-.58-1.51-.07-.8.09-1.62.48-2.48.13-.3.36-.71.69-1.22-.7.62-1.39,1.46-2.08,2.5-.47.71-.88,1.49-1.23,2.35-.17.41-.39.63-.66.65-.3.02-.46-.13-.49-.46-.03-.36.15-1.12.55-2.28.23-.66.52-1.37.87-2.11-1.4,1.28-2.39,2.95-2.98,4.99-.15.45-.37.69-.68.72-.14.01-.26-.03-.35-.13-.11-.1-.17-.22-.18-.37-.04-.52.17-1.47.63-2.87.48-1.48,1.06-2.82,1.72-4.02.46-.84.83-1.27,1.12-1.3.26-.02.41.11.43.39.01.12-.13.44-.41.96-.49.97-.81,1.68-.96,2.15Z"/><path class="cls-14" d="M161.63,35.22l.02.24c.02.19.08.36.19.49.25.31.62.44,1.12.39,1.1-.09,2.29-1.04,3.58-2.84.23-.31.43-.47.61-.49.1,0,.19.03.27.12.06.07.09.13.1.19.03.34-.34.96-1.11,1.84-.6.69-1.26,1.27-1.97,1.74-.71.47-1.38.73-2.02.78-.66.06-1.19-.13-1.61-.55-.28-.29-.44-.71-.49-1.26-.12-1.48.45-2.99,1.72-4.52,1.03-1.25,1.97-1.91,2.81-1.98.23-.02.44.03.64.16.24.17.38.4.4.69.04.46-.13,1.05-.5,1.76-.77,1.48-2.01,2.56-3.75,3.24ZM161.83,34.17c.6-.26,1.06-.54,1.39-.83.57-.52,1.01-1.1,1.32-1.73.11-.22.16-.42.15-.58-.01-.18-.11-.26-.27-.24-.23.02-.54.22-.93.59-.7.67-1.25,1.6-1.66,2.79Z"/><path class="cls-14" d="M170.25,32.49c.1-.12.21-.23.3-.34,1.68-1.94,2.83-2.94,3.45-2.99.34-.03.53.14.56.52.02.26-.1.59-.38.97-1.51,2.09-2.2,3.89-2.07,5.38.04.48.21.93.51,1.35.14.19.21.34.22.46,0,.1-.04.21-.13.32-.1.13-.23.21-.39.22-.36.03-.68-.17-.96-.61-.27-.41-.43-.92-.49-1.53-.1-1.18.24-2.53,1.01-4.04-1.13.86-2.12,2.31-2.98,4.33-.22.49-.48.74-.78.77-.15.01-.28-.03-.38-.13-.13-.11-.21-.26-.22-.46-.04-.47.39-1.76,1.3-3.85.49-1.13.87-1.96,1.17-2.48.29-.51.56-.77.79-.79.11,0,.23.03.34.13.13.11.21.25.22.4.02.19-.09.48-.31.86-.32.57-.58,1.08-.77,1.53Z"/><path class="cls-14" d="M179.21,27.75c-.5.93-.94,1.97-1.33,3.1-.56,1.62-.81,2.81-.74,3.58.02.22.08.38.18.49.1.11.25.15.43.14.44-.04.93-.49,1.49-1.37.35-.54.66-1.08.92-1.61.14-.3.31-.46.5-.48.11,0,.21.02.3.09.08.07.12.15.12.23.03.32-.34,1.08-1.09,2.28-.9,1.44-1.77,2.19-2.61,2.26-.45.04-.84-.14-1.17-.52-.21-.25-.33-.61-.37-1.09-.09-1.06.11-2.32.61-3.78.12-.36.46-1.24,1.02-2.64-.23.08-.41.13-.53.14-.18.02-.35-.01-.5-.09-.2-.11-.31-.25-.33-.44-.02-.22.09-.4.34-.56.07-.04.39-.12.96-.25.21-.05.51-.16.9-.33.26-.58.7-1.37,1.31-2.37.34-.56.58-.92.71-1.09.19-.24.37-.36.52-.38.11,0,.23.04.36.15.12.1.18.21.19.33.02.23-.19.7-.62,1.42-.29.47-.5.84-.63,1.12.95-.35,1.64-.54,2.06-.57.48-.04.74.14.77.54.02.2-.05.36-.21.47-.08.06-.31.12-.67.19-.15,0-.8.23-1.94.67-.32.12-.63.25-.93.38Z"/><path class="cls-14" d="M193.71,26.26c.54-.05.96.02,1.25.19.29.17.45.45.48.85.04.52-.11,1.03-.45,1.55-.33.49-.85.9-1.56,1.24-.39.18-.72.29-.99.31-.37.03-.57-.11-.59-.44-.02-.22.07-.39.27-.53.05-.03.34-.13.87-.3.32-.1.6-.28.86-.54.22-.22.32-.45.3-.69-.02-.18-.08-.31-.19-.39-.11-.08-.27-.11-.48-.09-.51.04-1.05.3-1.63.76-.67.52-.98,1.11-.92,1.75.04.46.32,1,.84,1.65.58.7.89,1.31.94,1.83.06.77-.23,1.4-.87,1.9-.4.31-.86.48-1.4.53-.84.07-1.5-.18-1.99-.74-.34-.4-.54-.9-.59-1.48-.06-.68.07-1.27.38-1.77.2-.33.42-.5.67-.52.22-.02.33.06.35.24,0,.07-.02.18-.09.33-.17.39-.23.84-.19,1.35.04.43.22.78.55,1.05.29.24.62.34.97.31.34-.03.6-.17.77-.41.14-.21.2-.46.17-.76-.03-.37-.28-.83-.75-1.38-.65-.76-1-1.46-1.05-2.12-.07-.88.34-1.69,1.24-2.45.87-.73,1.83-1.13,2.86-1.22Z"/><path class="cls-14" d="M198,29.27c.59-.73,1.19-1.35,1.8-1.86.78-.65,1.35-.99,1.71-1.02.15-.01.3.04.45.15.17.13.26.28.28.47.02.24-.14.62-.47,1.15-.65,1.02-1.12,1.95-1.43,2.77-.28.71-.4,1.19-.38,1.43.02.24.14.35.37.33.47-.04,1.2-.95,2.18-2.72.2-.36.39-.55.57-.56.18-.02.29.08.3.29.03.34-.25,1.02-.83,2.04-.51.89-1.06,1.58-1.65,2.08-.42.34-.81.53-1.17.56-.38.03-.66-.11-.86-.42-.12-.19-.19-.41-.21-.66-.07-.78.13-1.69.6-2.74.11-.25.45-.96,1.01-2.12-1.71,1.05-3.06,3.13-4.04,6.23-.08.35-.25.54-.48.56-.17.01-.31-.03-.42-.14-.12-.11-.18-.26-.2-.43-.02-.29.19-1.13.63-2.53.83-2.59,1.62-4.79,2.38-6.6.75-1.83,1.6-3.73,2.55-5.71.22-.48.4-.8.54-.97s.29-.26.45-.28c.16-.01.3.06.43.21.1.12.15.25.17.41.02.25-.09.59-.34,1.02-.82,1.54-1.63,3.23-2.42,5.06-.85,1.96-1.36,3.29-1.53,3.99Z"/><path class="cls-14" d="M207.35,31.7c-.25.53-.49.99-.74,1.36-.49.73-1.01,1.12-1.56,1.16-.47.04-.86-.15-1.16-.58-.19-.27-.3-.61-.34-1-.08-.97.13-2.07.65-3.3.57-1.36,1.31-2.44,2.21-3.22.59-.51,1.18-.79,1.77-.84.37-.03.68.06.95.26.23.18.35.4.37.66.02.19-.04.47-.16.82.15.17.23.33.24.47.02.18-.08.5-.29.94-.22.45-.42,1.04-.62,1.77-.21.78-.29,1.39-.25,1.85.03.37.17.66.41.88.07.06.25.14.56.26.23.09.35.26.38.52.01.17-.04.31-.15.42-.12.13-.27.19-.44.21-.47.04-.9-.14-1.28-.53-.31-.32-.49-.74-.53-1.25-.01-.18-.02-.47-.02-.87ZM208.62,27.24c-.12-.18-.25-.32-.38-.4-.13-.08-.27-.12-.41-.1-.67.06-1.34.7-2.02,1.93-.75,1.36-1.09,2.49-1.01,3.38.02.22.07.38.17.49.09.11.22.15.39.14.42-.04.87-.52,1.36-1.46.27-.52.6-1.27.99-2.27.25-.65.44-1.08.57-1.29.06-.11.18-.25.35-.41Z"/><path class="cls-14" d="M215.28,25.49c.72-1.9,1.41-3.57,2.08-4.99.64-1.38,1.08-2.25,1.33-2.61.27-.4.53-.61.79-.64.14-.01.27.03.4.14.12.1.18.22.19.35.02.2-.1.55-.36,1.05-1.1,2.16-2.08,4.34-2.97,6.54-1.02,2.56-1.47,4.46-1.37,5.69.04.5.17.88.39,1.16.04.06.21.19.51.38.06.04.09.12.1.26.02.18-.04.34-.16.5-.12.16-.27.24-.44.26-.2.02-.43-.09-.7-.31-.38-.32-.62-.71-.73-1.16-.04-.19-.1-.55-.18-1.07-.78,1.73-1.58,2.64-2.42,2.71-.48.04-.89-.2-1.22-.72-.22-.34-.35-.74-.39-1.2-.12-1.37.27-2.78,1.15-4.25.87-1.45,1.88-2.22,3.02-2.32.32-.03.65.06,1,.25ZM214.92,26.6c-.25-.14-.46-.2-.64-.18-.74.06-1.39.57-1.97,1.53-.77,1.25-1.11,2.42-1.01,3.51.01.13.05.25.11.36.12.21.29.31.5.29.31-.03.65-.36,1.04-.99.52-.84.98-1.82,1.39-2.94.14-.38.28-.77.42-1.15l.1-.26.06-.18Z"/><path class="cls-14" d="M220.43,24.85c.15-.01.28.03.38.14.08.09.12.18.13.28.01.16-.09.43-.31.82-.79,1.49-1.34,2.7-1.65,3.65-.33.97-.61,1.97-.85,2.98-.1.45-.3.69-.6.71-.18.02-.32-.04-.44-.17-.11-.11-.17-.22-.18-.36-.02-.26.18-1.16.62-2.7.34-1.21.94-2.57,1.8-4.07.28-.49.49-.82.63-.99.14-.18.3-.28.46-.29ZM222.52,19.77c.39-.03.61.15.64.55.03.37-.13.79-.47,1.27-.33.46-.67.7-1.01.73-.17.01-.31-.04-.42-.15-.11-.1-.18-.24-.19-.41-.04-.42.16-.89.58-1.4.31-.38.6-.58.88-.6Z"/><path class="cls-14" d="M223.25,28c.1-.11.21-.23.3-.34,1.68-1.94,2.83-2.94,3.45-2.99.34-.03.53.14.56.52.02.26-.1.59-.38.97-1.51,2.09-2.2,3.89-2.07,5.38.04.48.21.93.51,1.35.14.19.21.34.22.46,0,.1-.04.21-.13.32-.1.13-.23.21-.39.22-.36.03-.68-.17-.96-.61-.27-.41-.43-.92-.49-1.53-.1-1.18.24-2.53,1.01-4.04-1.13.86-2.12,2.3-2.98,4.33-.22.49-.48.74-.78.77-.15.01-.28-.03-.38-.13-.13-.11-.21-.26-.22-.46-.04-.47.39-1.76,1.3-3.85.49-1.13.87-1.96,1.17-2.48.29-.51.56-.77.79-.79.11,0,.23.03.34.13.13.11.21.25.22.4.02.19-.09.48-.31.86-.32.57-.58,1.08-.77,1.53Z"/><path class="cls-14" d="M231.96,30.66c.88-.76,1.52-1.44,1.93-2.04.61-.87,1.03-1.57,1.26-2.1.12-.24.25-.37.4-.38.21-.02.32.07.34.27.02.24-.11.65-.4,1.22-.89,1.77-2.32,3.37-4.28,4.79-.79,2.1-1.39,3.52-1.78,4.28-1.05,1.99-2.11,3.04-3.17,3.13-.56.05-.98-.14-1.26-.55-.16-.24-.26-.53-.28-.85-.12-1.38.66-2.77,2.32-4.18.26-.23,1.34-.99,3.24-2.26.32-.85.56-1.51.73-1.99-.84,1.04-1.56,1.59-2.16,1.64-.38.03-.69-.14-.93-.5-.15-.24-.24-.5-.26-.77-.05-.63.14-1.46.57-2.5.61-1.49,1.4-2.69,2.37-3.61.81-.77,1.54-1.18,2.21-1.23.34-.03.65.07.91.31.18.15.28.39.31.71.03.4-.06.91-.28,1.53.22.18.33.31.34.41,0,.06-.03.15-.11.27-.21.34-.54.98-.99,1.92-.4.82-.74,1.65-1.02,2.48ZM229.61,33.59c-1.11.59-2.07,1.42-2.87,2.49-.37.5-.62,1.01-.76,1.55-.04.16-.05.3-.05.4,0,.11.04.21.1.3.11.15.25.22.43.2.54-.05,1.13-.68,1.76-1.91.55-1.06,1.01-2.07,1.38-3.03ZM231.61,27.64c-.13-.12-.2-.21-.21-.26,0-.08.05-.18.17-.32.4-.46.72-.92.95-1.4.19-.38.27-.67.26-.87-.02-.24-.14-.35-.36-.33-.38.03-.88.44-1.52,1.21-.76.92-1.33,1.92-1.7,3.02-.18.54-.26.96-.24,1.24.01.16.06.27.14.35.08.07.18.1.31.09.31-.03.71-.38,1.21-1.05.32-.43.58-.85.79-1.26.14-.27.21-.41.2-.41Z"/><path class="cls-14" d="M242.84,13.4c.41-.04.64.21.68.72.07.8-.29,1.88-1.06,3.24-.32.56-.7,1.07-1.15,1.55-.29.32-.53.48-.72.5-.18.02-.34-.06-.47-.21-.09-.1-.14-.22-.15-.36-.02-.19.15-.48.5-.85.98-1.11,1.51-2.37,1.57-3.76.02-.26.12-.46.3-.62.17-.13.33-.2.5-.21ZM245.89,13.14c.41-.03.64.21.68.72.07.8-.29,1.88-1.06,3.24-.31.56-.7,1.07-1.15,1.55-.29.32-.53.48-.73.5-.18.02-.34-.06-.47-.21-.09-.1-.14-.22-.15-.36-.02-.19.15-.48.5-.85.99-1.12,1.52-2.37,1.57-3.76.02-.26.12-.46.3-.62.17-.13.33-.2.5-.21Z"/><line class="cls-8" x1="106.21" y1="227.16" x2="106.21" y2="313.08"/><line class="cls-8" x1="160.42" y1="227.16" x2="160.42" y2="313.08"/><line class="cls-8" x1="214.63" y1="227.16" x2="214.63" y2="313.08"/><line class="cls-8" x1="268.84" y1="227.16" x2="268.84" y2="313.08"/><path class="cls-19" d="M396.76,313.1c.28,0,.5-.22.5-.5s-.22-.5-.5-.5H93.61c-.28,0-.5.22-.5.5s.22.5.5.5h303.14"/><path class="cls-19" d="M396.76,285.12c.28,0,.5-.22.5-.5s-.22-.5-.5-.5H93.61c-.28,0-.5.22-.5.5s.22.5.5.5h303.14"/><line class="cls-8" x1="323.08" y1="227.16" x2="323.08" y2="313.08"/><line class="cls-8" x1="377.3" y1="227.16" x2="377.3" y2="313.08"/><line class="cls-8" x1="396.76" y1="227.16" x2="396.76" y2="313.08"/><path class="cls-19" d="M396.76,257.14c.28,0,.5-.22.5-.5s-.22-.5-.5-.5H93.61c-.28,0-.5.22-.5.5s.22.5.5.5h303.14"/><line class="cls-1" x1="93.61" y1="227.16" x2="93.61" y2="314.07"/><line class="cls-4" x1="396.76" y1="228.16" x2="93.61" y2="228.16"/><line class="cls-1" x1="396.76" y1="314.07" x2="396.76" y2="227.16"/><path d="M125.05,301.51v-1.3l3.57-7.71h1.54l-3.49,7.62h5.22v1.38h-6.85ZM129.64,303.15v-6.27h1.46v6.27h-1.46Z"/><path d="M133.57,303.14v-1.3l3.71-4.95c.21-.28.38-.58.5-.88.12-.3.18-.59.18-.86h0c0-.44-.12-.77-.37-1s-.6-.35-1.06-.35c-.43,0-.78.13-1.05.38-.27.26-.44.62-.49,1.09h0s-1.55,0-1.55,0h0c.13-.93.47-1.64,1-2.14.54-.51,1.23-.76,2.07-.76.96,0,1.7.24,2.22.73s.78,1.17.78,2.05h0c0,.38-.08.78-.23,1.19s-.37.81-.65,1.18l-3.08,4.19h4.03v1.42h-6.01Z"/><path d="M284.84,301.51v-1.3l3.57-7.71h1.54l-3.49,7.62h5.22v1.38h-6.85ZM289.43,303.15v-6.27h1.46v6.27h-1.46Z"/><path d="M296.49,303.25c-.81,0-1.48-.23-2-.7-.52-.47-.85-1.12-.98-1.97h0s1.49,0,1.49,0h0c.05.4.21.7.47.92s.6.33,1.01.33c.48,0,.85-.16,1.11-.48.26-.32.39-.77.39-1.35v-.89c0-.58-.13-1.03-.39-1.35-.26-.32-.63-.48-1.11-.48-.26,0-.51.07-.75.22s-.45.35-.63.62h-1.36v-5.61h5.43v1.42h-3.93v2.4c.19-.15.39-.27.62-.35s.46-.12.7-.12c.93,0,1.65.28,2.15.85s.76,1.37.76,2.41v.89c0,1.04-.26,1.84-.78,2.41s-1.26.85-2.21.85Z"/><path d="M177.73,274.24v-1.3l3.57-7.71h1.54l-3.49,7.62h5.22v1.38h-6.85ZM182.32,275.88v-6.27h1.46v6.27h-1.46Z"/><path d="M189.16,275.98c-.6,0-1.13-.11-1.58-.33-.45-.22-.81-.53-1.09-.94s-.45-.91-.53-1.49h1.52c.07.46.25.79.54,1.01.29.21.67.32,1.13.32.49,0,.88-.13,1.15-.4s.41-.63.41-1.11v-.32c0-.53-.13-.94-.39-1.23s-.62-.44-1.1-.44h-.75v-1.42h.75c.42,0,.74-.12.97-.37.23-.25.34-.6.34-1.05v-.33c0-.42-.12-.74-.36-.97-.24-.23-.58-.34-1.03-.34-.38,0-.7.11-.96.32-.26.21-.44.55-.54,1.01h-1.52c.15-.88.49-1.56,1.01-2.04.52-.48,1.19-.72,2-.72.92,0,1.63.24,2.13.73s.75,1.16.75,2.04v.18c0,.53-.14,1-.43,1.39s-.7.68-1.22.87c.58.12,1.03.41,1.35.85.32.45.48,1.01.48,1.7v.18c0,.93-.27,1.66-.8,2.17s-1.28.77-2.26.77Z"/><path d="M231.73,246.24v-1.3l3.57-7.71h1.54l-3.49,7.62h5.22v1.38h-6.85ZM236.32,247.88v-6.27h1.46v6.27h-1.46Z"/><path d="M240.26,246.24v-1.3l3.57-7.71h1.54l-3.49,7.62h5.22v1.38h-6.85ZM244.86,247.88v-6.27h1.46v6.27h-1.46Z"/><path class="cls-14" d="M29.06,255.09c-.23.79-.4,1.65-.51,2.57-.17,1.32-.16,2.27.01,2.85.05.16.12.28.22.34.09.06.21.08.35.03.33-.1.63-.53.91-1.28.18-.47.33-.93.44-1.38.06-.25.16-.4.31-.45.08-.03.17-.02.24.02.07.04.11.09.13.15.07.24-.08.88-.46,1.91-.46,1.24-1,1.95-1.63,2.14-.33.1-.66.03-.97-.21-.2-.16-.35-.41-.46-.77-.24-.79-.29-1.78-.15-2.98.03-.3.15-1.02.35-2.17-.16.1-.29.16-.38.19-.14.04-.27.04-.39.01-.17-.05-.28-.14-.32-.28-.05-.16,0-.32.17-.48.04-.04.27-.16.69-.35.15-.07.36-.2.63-.39.1-.48.31-1.15.61-2.02.17-.48.29-.79.37-.95.11-.21.22-.33.34-.37.08-.03.18,0,.3.06.1.06.17.13.19.22.05.17-.03.56-.25,1.18-.14.4-.24.72-.3.96.67-.42,1.16-.67,1.47-.76.36-.11.58-.01.68.29.04.15.02.28-.09.39-.05.06-.21.14-.48.25-.11.03-.57.3-1.37.82-.22.15-.44.29-.65.44Z"/><path class="cls-14" d="M32.48,258.9l.05.18c.04.14.12.26.22.34.24.19.54.23.91.12.82-.25,1.58-1.16,2.27-2.74.12-.27.25-.43.38-.47.07-.02.15,0,.23.05.05.04.09.08.1.13.08.25-.11.78-.55,1.58-.35.63-.75,1.17-1.22,1.64s-.94.78-1.42.92c-.49.15-.93.09-1.31-.16-.26-.18-.45-.47-.57-.88-.33-1.11-.14-2.35.58-3.72.58-1.12,1.19-1.77,1.82-1.96.17-.05.34-.04.51.02.21.09.35.24.42.46.1.35.07.82-.1,1.42-.35,1.25-1.12,2.27-2.33,3.07ZM32.46,258.07c.41-.29.72-.58.92-.86.35-.49.59-1,.73-1.53.05-.19.06-.34.02-.47-.04-.13-.12-.18-.25-.14-.17.05-.37.25-.61.6-.43.62-.7,1.42-.81,2.39Z"/><path class="cls-14" d="M38.5,255.58c.38-.74.73-1.34,1.05-1.79.49-.68.84-1.06,1.05-1.12.1-.03.21-.02.31.03.09.05.15.12.18.2.04.12-.02.36-.16.71-.22.55-.35,1-.39,1.36,1.07-2,1.88-3.08,2.45-3.25.12-.04.23-.03.34.02.12.05.19.13.23.25.06.18-.01.46-.21.83-.85,1.65-1.16,2.88-.91,3.7.1.33.23.55.39.66l.35.25c.07.04.12.11.15.2.03.1.02.22-.04.33-.07.13-.16.22-.29.26-.22.07-.46-.01-.72-.23-.32-.26-.55-.61-.68-1.06-.18-.6-.19-1.25-.03-1.96.05-.25.16-.6.33-1.04-.43.59-.82,1.33-1.18,2.24-.24.62-.43,1.28-.56,1.99-.06.34-.19.54-.4.6-.22.07-.37-.02-.45-.27-.08-.27-.06-.88.05-1.83.07-.54.17-1.12.32-1.75-.86,1.2-1.35,2.63-1.47,4.27-.04.37-.17.59-.4.66-.11.03-.2.02-.29-.04-.1-.06-.16-.14-.19-.25-.12-.39-.11-1.15.02-2.29.13-1.2.35-2.32.67-3.34.21-.71.43-1.1.64-1.17.2-.06.33.02.39.23.03.09-.02.36-.16.8-.22.81-.35,1.41-.38,1.79Z"/><path class="cls-14" d="M46.2,251.14c.22-.25.38-.43.49-.53.23-.21.47-.36.73-.43.29-.09.53-.07.72.05.19.12.34.35.44.69.14.46.14,1.06.02,1.79-.19,1.16-.55,2.14-1.08,2.94-.45.67-.93,1.08-1.46,1.24-.29.09-.61.06-.95-.08-.35,2.08-.6,4.17-.74,6.27-.01.5-.12.78-.33.84-.1.03-.22,0-.35-.11-.1-.07-.17-.16-.2-.27-.11-.35-.02-1.63.26-3.84.43-3.4.95-6.27,1.55-8.62.12-.49.2-.83.24-1.02.1-.49.26-.77.48-.84.22-.07.37.03.46.3.04.15.03.38-.05.68-.09.38-.16.69-.21.92ZM45.21,255.88c.19.11.39.13.61.06.61-.18,1.12-.93,1.53-2.23.16-.48.25-.96.29-1.43.03-.37.02-.64-.03-.81-.04-.12-.09-.2-.16-.24-.07-.04-.17-.05-.29-.01-.31.09-.62.42-.94.98-.3.54-.54,1.24-.7,2.11-.15.8-.26,1.32-.31,1.57Z"/><path class="cls-14" d="M52.12,248.14c.54-.16.9.08,1.1.74.26.87.19,2.09-.21,3.67-.44,1.71-1.07,2.69-1.89,2.94-.38.11-.71.02-.99-.28-.14-.15-.25-.35-.33-.6-.25-.84-.24-1.83.04-2.99.26-1.07.68-1.97,1.26-2.69.34-.42.68-.69,1.03-.79ZM52.22,252.16c-.2-.08-.32-.16-.34-.23-.02-.05.04-.23.18-.53.39-.84.52-1.46.4-1.87-.02-.05-.05-.1-.1-.14-.08-.08-.18-.11-.29-.07-.21.06-.46.36-.74.89-.37.68-.6,1.34-.71,1.98-.13.73-.13,1.31,0,1.73.03.11.09.2.18.27.12.09.25.12.38.08.31-.09.58-.43.8-1.01.1-.24.16-.48.2-.72s.05-.36.04-.37Z"/><path class="cls-14" d="M55.72,250.44c.43-.88.97-1.77,1.61-2.68.23-.33.49-.64.76-.95.14-.15.23-.23.28-.25.1-.03.22.01.36.13.08.06.13.12.15.19.04.12-.04.32-.23.59-.51.73-.72,1.23-.64,1.5.04.15.15.2.32.15.28-.08.7-.46,1.24-1.13.09-.11.18-.18.26-.21.05-.02.11,0,.18.03.08.04.12.09.14.16.06.2-.12.58-.55,1.15-.45.61-.93.99-1.45,1.14-.21.06-.42.07-.63,0-.18-.05-.3-.19-.37-.42-.05-.16-.04-.37.04-.62-.41.52-.83,1.33-1.26,2.43-.24.67-.44,1.47-.6,2.4-.06.35-.2.55-.42.62-.24.07-.4,0-.47-.23-.07-.22-.06-.88.03-1.96.13-1.61.38-2.9.76-3.88.23-.6.48-.95.73-1.02.08-.03.17-.02.26,0,.1.04.17.11.2.21s0,.26-.07.47c-.02.04-.12.31-.32.81-.18.47-.29.93-.33,1.35Z"/><path class="cls-14" d="M63.45,249.87c-.1.44-.22.83-.35,1.15-.26.63-.59,1.01-1,1.13-.35.11-.68.02-.97-.25-.19-.18-.33-.42-.42-.71-.22-.73-.23-1.6-.04-2.61.22-1.13.61-2.06,1.17-2.8.37-.48.77-.79,1.21-.92.27-.08.53-.07.76.05.2.1.33.25.39.44.04.14.05.36.01.65.14.11.22.21.26.32.04.14.02.39-.07.76-.09.38-.16.86-.19,1.45-.03.62,0,1.11.1,1.45.08.28.23.48.45.6.06.03.22.07.47.1.19.03.31.14.37.34.04.12.02.24-.05.35-.07.11-.17.19-.31.23-.35.11-.71.04-1.05-.2-.29-.19-.49-.48-.6-.87-.04-.13-.09-.35-.16-.66ZM63.7,246.27c-.12-.12-.24-.2-.35-.24-.11-.04-.22-.05-.33-.01-.5.15-.91.75-1.23,1.79-.35,1.16-.43,2.07-.23,2.73.05.16.12.28.21.34.09.07.19.08.32.04.31-.09.58-.54.8-1.33.12-.44.25-1.06.39-1.88.09-.53.16-.89.22-1.07.03-.09.09-.22.2-.37Z"/><path class="cls-14" d="M66.88,247.04c-.04.57-.07,1.03-.07,1.37,0,.34.01.58.05.7.05.16.15.22.31.17.24-.07.47-.39.71-.94.11-.27.26-.74.43-1.4.07-.26.18-.42.33-.46.17-.05.28,0,.33.17.08.28-.07.95-.46,2-.4,1.1-.89,1.74-1.47,1.91-.25.07-.48.03-.7-.13-.16-.12-.27-.28-.33-.5-.11-.37-.15-.91-.12-1.62.03-.72.12-1.6.28-2.67.41-2.7.98-5,1.69-6.88.57-1.51,1.16-2.36,1.77-2.55.2-.06.38-.03.55.08.18.11.29.26.35.46.28.92-.08,2.69-1.08,5.31-.45,1.17-1.04,2.38-1.77,3.64-.19.33-.46.77-.8,1.33ZM67.11,245.27c1.01-1.58,1.78-3.41,2.32-5.52.28-1.09.37-1.79.28-2.09-.04-.14-.13-.2-.25-.16-.36.11-.8,1.02-1.32,2.74-.43,1.41-.78,3.09-1.04,5.02Z"/><path class="cls-14" d="M39.03,268c.24-1.57.5-2.94.78-4.13.27-1.15.46-1.88.59-2.2.14-.35.3-.55.5-.61.1-.03.21-.02.32.04.1.06.17.14.2.24.04.15,0,.44-.11.86-.49,1.82-.89,3.63-1.21,5.45-.36,2.12-.41,3.63-.13,4.55.11.37.27.65.48.82.04.04.19.11.45.21.05.02.09.08.12.18.04.13.03.27-.04.4-.07.14-.17.23-.29.26-.15.04-.34,0-.58-.12-.34-.18-.59-.44-.74-.76-.06-.14-.17-.4-.31-.78-.31,1.44-.78,2.26-1.41,2.45-.36.11-.71,0-1.05-.35-.22-.23-.39-.51-.49-.85-.31-1.02-.24-2.16.19-3.42.43-1.24,1.07-1.99,1.92-2.25.24-.07.5-.06.8.03ZM38.94,268.9c-.21-.06-.38-.08-.51-.04-.55.17-.97.66-1.26,1.48-.38,1.07-.45,2.02-.21,2.84.03.1.08.18.14.26.13.14.27.19.43.14.23-.07.44-.38.63-.92.26-.72.46-1.54.59-2.46.05-.31.09-.63.13-.94l.03-.21.02-.15Z"/><path class="cls-14" d="M44.45,270.85c-.1.44-.22.83-.35,1.15-.26.63-.59,1.01-1,1.13-.35.11-.68.02-.98-.25-.19-.18-.33-.42-.42-.71-.22-.73-.23-1.6-.04-2.61.22-1.13.61-2.06,1.17-2.8.37-.48.77-.79,1.21-.92.27-.08.53-.07.76.05.2.1.33.25.39.44.04.14.05.36.01.65.14.11.22.21.26.32.04.14.02.39-.07.76-.09.38-.16.86-.19,1.45-.03.62,0,1.11.1,1.45.08.28.23.48.45.6.06.03.22.07.47.1.19.03.31.14.37.34.04.12.02.24-.04.35-.07.11-.17.19-.31.23-.35.11-.71.04-1.05-.2-.29-.19-.49-.48-.6-.87-.04-.13-.09-.35-.16-.66ZM44.7,267.25c-.12-.12-.24-.2-.35-.24s-.22-.05-.33-.01c-.5.15-.91.75-1.23,1.79-.35,1.16-.43,2.07-.23,2.73.05.16.12.28.21.34.09.07.19.08.32.04.31-.09.58-.54.8-1.33.12-.44.25-1.06.39-1.88.09-.53.16-.89.22-1.07.03-.09.1-.22.2-.37Z"/><path class="cls-14" d="M48.95,264.37c-.23.79-.4,1.65-.51,2.57-.17,1.32-.16,2.27.01,2.84.05.16.12.28.22.34.09.06.21.08.35.03.33-.1.63-.53.91-1.28.18-.47.33-.93.44-1.38.06-.25.16-.4.3-.44.09-.03.17-.02.24.02.07.04.11.09.13.15.07.24-.08.88-.46,1.91-.46,1.24-1,1.95-1.63,2.14-.33.1-.66.03-.97-.21-.2-.15-.35-.41-.46-.77-.24-.79-.29-1.78-.15-2.98.03-.3.15-1.02.35-2.17-.16.1-.29.16-.38.19-.14.04-.27.05-.39.01-.17-.05-.28-.14-.32-.28-.05-.16,0-.32.17-.48.04-.04.27-.16.69-.35.15-.07.36-.21.63-.39.1-.48.31-1.15.61-2.02.17-.48.29-.79.37-.95.11-.21.22-.33.34-.37.08-.03.18,0,.3.06.1.06.17.14.19.22.05.17-.03.56-.25,1.18-.14.4-.24.72-.3.96.67-.42,1.16-.67,1.47-.76.36-.11.58-.01.68.29.04.15.02.28-.09.39-.05.06-.21.14-.48.25-.11.03-.57.3-1.37.82-.22.15-.44.29-.65.44Z"/><path class="cls-14" d="M54.56,267.81c-.1.44-.22.83-.35,1.15-.26.63-.59,1.01-1,1.13-.35.11-.68.02-.98-.25-.19-.18-.33-.42-.42-.71-.22-.73-.23-1.6-.04-2.61.22-1.13.61-2.06,1.17-2.8.37-.48.77-.79,1.21-.92.27-.08.53-.07.76.05.2.1.33.25.39.44.04.14.05.36.01.65.14.11.22.21.26.32.04.14.02.39-.07.76-.09.38-.16.86-.19,1.45-.03.62,0,1.11.1,1.45.08.27.23.48.45.6.06.03.22.07.47.11.19.03.31.14.37.34.04.12.02.24-.04.35-.07.11-.17.19-.31.23-.35.11-.71.04-1.05-.2-.29-.19-.49-.48-.6-.87-.04-.13-.09-.35-.16-.66ZM54.82,264.2c-.12-.12-.24-.2-.35-.24-.11-.04-.22-.05-.33-.01-.5.15-.91.75-1.23,1.79-.35,1.16-.43,2.07-.23,2.73.05.16.12.28.21.34.09.07.19.08.32.04.31-.09.58-.54.8-1.33.12-.44.25-1.07.39-1.88.09-.53.16-.89.22-1.07.03-.09.1-.22.2-.37Z"/><path class="cls-1" d="M49.98,277.55c-1.27,13.44,7.49,23.55,27.46,11.98"/><path class="cls-14" d="M75.22,294.01c-.15-.08-.2-.26-.12-.41l2.21-4.02-4.58-.31c-.17-.01-.29-.15-.28-.32.01-.17.16-.29.32-.28l5.05.34c.1,0,.19.07.24.16.05.09.05.2,0,.29l-2.44,4.43c-.03.05-.07.09-.12.12-.09.05-.2.05-.29,0Z"/><line class="cls-3" x1="93.61" y1="313.08" x2="396.76" y2="313.08"/><path class="cls-14" d="M102.17,452.85c-.05.12-.2.43-.43.92-.39.93-.62,1.54-.7,1.83-.04.16-.1.28-.16.34-.06.06-.15.09-.26.09s-.22-.04-.29-.13c-.07-.08-.1-.17-.1-.27,0-.37.33-1.25.98-2.67-.71.08-1.27.2-1.68.37-.13.05-.24.08-.32.08-.2,0-.29-.15-.29-.46,0-.18.07-.36.21-.53.27-.32.74-.8,1.38-1.44.8-.79,1.53-1.43,2.17-1.92.56-.42.97-.64,1.22-.64.11,0,.21.05.31.14.07.08.11.16.11.26,0,.12-.07.3-.22.54-.02.04-.19.31-.48.78-.38.61-.73,1.25-1.05,1.92.34-.02.57-.03.68-.03.29,0,.43.11.43.32,0,.19-.08.33-.23.41-.07.03-.28.05-.62.05-.1,0-.31,0-.64.02ZM101.61,452.17c.53-1.04,1.04-1.9,1.52-2.6-.51.29-1.13.79-1.85,1.49-.52.52-.94.97-1.26,1.36.71-.15,1.24-.23,1.6-.25Z"/><path class="cls-14" d="M104.21,455.09c.82-.26,1.58-.39,2.26-.39.27,0,.49.06.65.17.15.1.22.22.22.36,0,.09-.03.18-.1.25s-.15.11-.23.11c-.03,0-.07,0-.13-.02-.25-.07-.48-.1-.69-.1-.18,0-.4.02-.67.05-.09.01-.43.1-1.02.26-.53.14-.84.21-.94.21-.14,0-.26-.07-.36-.2-.09-.12-.14-.25-.14-.38,0-.15.13-.34.38-.59.48-.47.94-.89,1.38-1.27.42-.35.94-.76,1.56-1.22.71-.52,1.2-.9,1.46-1.14.4-.35.6-.7.6-1.05,0-.2-.06-.35-.19-.46-.11-.1-.25-.15-.42-.15-.44,0-.96.25-1.55.74-.27.22-.44.34-.51.34-.05,0-.1-.03-.17-.09-.07-.06-.1-.13-.1-.21,0-.18.21-.42.64-.75.68-.52,1.34-.78,1.96-.78.36,0,.65.12.89.34.23.22.34.49.34.8,0,.55-.28,1.09-.83,1.63-.24.23-.68.59-1.32,1.05-1.54,1.12-2.53,1.95-2.97,2.48Z"/><path class="cls-14" d="M156.38,452.85c-.05.12-.2.43-.43.92-.39.93-.62,1.54-.7,1.83-.04.16-.1.28-.16.34-.06.06-.15.09-.26.09s-.22-.04-.29-.13c-.07-.08-.1-.17-.1-.27,0-.37.33-1.25.98-2.67-.71.08-1.27.2-1.68.37-.13.05-.24.08-.32.08-.2,0-.29-.15-.29-.46,0-.18.07-.36.21-.53.27-.32.74-.8,1.38-1.44.8-.79,1.53-1.43,2.17-1.92.56-.42.97-.64,1.22-.64.11,0,.21.05.31.14.07.08.11.16.11.26,0,.12-.07.3-.22.54-.02.04-.19.31-.48.78-.38.61-.73,1.25-1.05,1.92.34-.02.57-.03.68-.03.29,0,.43.11.43.32,0,.19-.08.33-.23.41-.07.03-.28.05-.62.05-.1,0-.31,0-.64.02ZM155.82,452.17c.53-1.04,1.04-1.9,1.52-2.6-.51.29-1.13.79-1.85,1.49-.52.52-.94.97-1.26,1.36.71-.15,1.24-.23,1.6-.25Z"/><path class="cls-14" d="M161.72,451.5c.24.1.42.22.52.34.15.18.23.43.23.75,0,.8-.33,1.56-1,2.29s-1.36,1.1-2.07,1.1c-.43,0-.79-.18-1.06-.54-.2-.26-.29-.55-.29-.86,0-.52.2-.78.6-.78.24,0,.36.09.36.27,0,.04,0,.09-.01.15-.01.08-.02.17-.02.25,0,.23.06.41.17.53.13.13.28.2.45.2.42,0,.86-.29,1.34-.87.45-.56.68-1.09.68-1.59,0-.25-.06-.45-.18-.6-.13-.16-.32-.23-.55-.23-.09,0-.19.01-.28.04-.11.03-.2.05-.26.05-.14,0-.21-.09-.21-.29,0-.17.06-.3.17-.41.06-.06.2-.12.4-.18.41-.1.75-.24,1.03-.42.18-.12.32-.27.43-.47.05-.1.08-.21.08-.32,0-.14-.04-.25-.11-.32-.08-.07-.19-.1-.35-.1-.26,0-.54.07-.82.21-.07.03-.25.13-.52.3-.07.05-.15.07-.24.07-.17,0-.25-.09-.25-.27,0-.16.12-.33.37-.5.57-.41,1.13-.61,1.68-.61.33,0,.6.1.83.3.24.21.36.47.36.77,0,.4-.17.77-.51,1.11-.19.2-.5.4-.95.62Z"/><path class="cls-14" d="M210.6,452.85c-.05.12-.2.43-.43.92-.39.93-.62,1.54-.7,1.83-.04.16-.1.28-.16.34-.06.06-.15.09-.26.09s-.22-.04-.29-.13c-.07-.08-.1-.17-.1-.27,0-.37.33-1.25.98-2.67-.71.08-1.27.2-1.68.37-.13.05-.24.08-.32.08-.2,0-.29-.15-.29-.46,0-.18.07-.36.21-.53.27-.32.74-.8,1.38-1.44.8-.79,1.53-1.43,2.17-1.92.56-.42.97-.64,1.22-.64.11,0,.21.05.31.14.07.08.11.16.11.26,0,.12-.07.3-.22.54-.02.04-.19.31-.48.78-.38.61-.73,1.25-1.05,1.92.34-.02.57-.03.68-.03.29,0,.43.11.43.32,0,.19-.08.33-.23.41-.07.03-.28.05-.62.05-.1,0-.31,0-.64.02ZM210.03,452.17c.53-1.04,1.04-1.9,1.52-2.6-.51.29-1.13.79-1.85,1.49-.52.52-.94.97-1.26,1.36.71-.15,1.24-.23,1.6-.25Z"/><path class="cls-14" d="M215.72,452.85c-.05.12-.2.43-.43.92-.39.93-.62,1.54-.7,1.83-.04.16-.1.28-.16.34-.06.06-.15.09-.26.09s-.22-.04-.29-.13c-.07-.08-.1-.17-.1-.27,0-.37.33-1.25.98-2.67-.71.08-1.27.2-1.68.37-.13.05-.24.08-.32.08-.2,0-.29-.15-.29-.46,0-.18.07-.36.21-.53.27-.32.74-.8,1.38-1.44.8-.79,1.53-1.43,2.17-1.92.56-.42.97-.64,1.22-.64.11,0,.21.05.31.14.07.08.11.16.11.26,0,.12-.07.3-.22.54-.02.04-.19.31-.48.78-.38.61-.73,1.25-1.05,1.92.34-.02.57-.03.68-.03.29,0,.43.11.43.32,0,.19-.08.33-.23.41-.07.03-.28.05-.62.05-.1,0-.31,0-.64.02ZM215.16,452.17c.53-1.04,1.04-1.9,1.52-2.6-.51.29-1.13.79-1.85,1.49-.52.52-.94.97-1.26,1.36.71-.15,1.24-.23,1.6-.25Z"/><path class="cls-14" d="M264.81,452.85c-.05.12-.2.43-.43.92-.39.93-.62,1.54-.7,1.83-.04.16-.1.28-.16.34-.06.06-.15.09-.26.09s-.22-.04-.29-.13c-.07-.08-.1-.17-.1-.27,0-.37.33-1.25.98-2.67-.71.08-1.27.2-1.68.37-.13.05-.24.08-.32.08-.2,0-.29-.15-.29-.46,0-.18.07-.36.21-.53.27-.32.74-.8,1.38-1.44.8-.79,1.53-1.43,2.17-1.92.56-.42.97-.64,1.22-.64.11,0,.21.05.31.14.07.08.11.16.11.26,0,.12-.07.3-.22.54-.02.04-.19.31-.48.78-.38.61-.73,1.25-1.05,1.92.34-.02.57-.03.68-.03.29,0,.43.11.43.32,0,.19-.08.33-.23.41-.07.03-.28.05-.62.05-.1,0-.31,0-.64.02ZM264.24,452.17c.53-1.04,1.04-1.9,1.52-2.6-.51.29-1.13.79-1.85,1.49-.52.52-.94.97-1.26,1.36.71-.15,1.24-.23,1.6-.25Z"/><path class="cls-14" d="M270.13,449.56c-.83.72-1.36,1.33-1.59,1.85.48-.2.9-.29,1.24-.29.4,0,.71.12.93.35.21.22.31.51.31.86,0,.81-.38,1.62-1.15,2.44-.76.82-1.5,1.22-2.23,1.22-.42,0-.75-.2-.98-.59-.15-.26-.23-.56-.23-.89s.07-.61.22-.83c.12-.18.28-.27.47-.27.18,0,.26.07.26.2,0,.03-.01.09-.04.17-.05.14-.07.33-.07.57,0,.21.05.39.15.55.13.22.31.33.53.33.44,0,.9-.28,1.38-.83.53-.61.79-1.21.79-1.81,0-.25-.06-.44-.17-.56-.11-.12-.28-.19-.51-.19s-.5.06-.82.18c-.07.02-.25.11-.54.26-.06.03-.11.05-.16.05-.09,0-.19-.06-.28-.18-.1-.13-.15-.25-.15-.36,0-.21.21-.59.64-1.17.27-.37.6-.74,1-1.11-.11-.15-.16-.26-.16-.34,0-.11.08-.19.23-.24.07-.02.35-.07.83-.13.54-.07.98-.11,1.32-.11s.55.02.7.07c.18.05.26.17.26.35,0,.22-.11.34-.34.34-.05,0-.15,0-.29-.01-.05,0-.1,0-.17,0-.23,0-.46.01-.69.03-.23.02-.45.05-.68.1Z"/><line class="cls-2" x1="93.61" y1="431.72" x2="431.51" y2="431.72"/><line class="cls-5" x1="106.21" y1="353.75" x2="106.21" y2="431.72"/><line class="cls-8" x1="160.42" y1="375.4" x2="160.42" y2="431.72"/><line class="cls-8" x1="214.63" y1="375.4" x2="214.63" y2="431.72"/><line class="cls-8" x1="268.84" y1="375.4" x2="268.84" y2="431.72"/><circle class="cls-9" cx="106.21" cy="431.72" r="7.2"/><circle class="cls-9" cx="160.42" cy="431.72" r="7.2"/><circle class="cls-9" cx="214.63" cy="431.72" r="7.2"/><circle class="cls-9" cx="268.84" cy="431.72" r="7.2"/><path class="cls-19" d="M445.7,409.78c.28,0,.5-.22.5-.5s-.22-.5-.5-.5H87.64c-.28,0-.5.22-.5.5s.22.5.5.5h358.05"/><path class="cls-19" d="M445.7,381.8c.28,0,.5-.22.5-.5s-.22-.5-.5-.5H87.64c-.28,0-.5.22-.5.5s.22.5.5.5h358.05"/><path class="cls-14" d="M319.05,452.85c-.05.12-.2.43-.43.92-.39.93-.62,1.54-.7,1.83-.04.16-.1.28-.16.34-.06.06-.15.09-.26.09s-.22-.04-.29-.13c-.07-.08-.1-.17-.1-.27,0-.37.33-1.25.98-2.67-.71.08-1.27.2-1.68.37-.13.05-.24.08-.32.08-.2,0-.29-.15-.29-.46,0-.18.07-.36.21-.53.27-.32.74-.8,1.38-1.44.8-.79,1.53-1.43,2.17-1.92.56-.42.97-.64,1.22-.64.11,0,.21.05.31.14.07.08.11.16.11.26,0,.12-.07.3-.22.54-.02.04-.19.31-.48.78-.38.61-.73,1.25-1.05,1.92.34-.02.57-.03.68-.03.29,0,.43.11.43.32,0,.19-.08.33-.23.41-.07.03-.28.05-.62.05-.1,0-.31,0-.64.02ZM318.48,452.17c.53-1.04,1.04-1.9,1.52-2.6-.51.29-1.13.79-1.85,1.49-.52.52-.94.97-1.26,1.36.71-.15,1.24-.23,1.6-.25Z"/><path class="cls-14" d="M322.62,451.72c.73-.27,1.26-.4,1.6-.4.4,0,.7.11.89.34.17.2.26.46.26.78,0,.83-.37,1.64-1.11,2.44-.68.74-1.38,1.11-2.09,1.11-.45,0-.81-.2-1.09-.59-.21-.3-.32-.65-.32-1.05,0-.87.34-1.77,1.01-2.69.58-.8,1.41-1.54,2.49-2.21.32-.21.56-.35.72-.42.15-.07.28-.11.4-.11.19,0,.28.08.28.24,0,.15-.1.27-.29.38-1.02.54-1.93,1.27-2.74,2.18ZM322.02,452.63c-.3.49-.45.98-.45,1.46,0,.32.07.59.22.82.15.23.35.35.59.35.34,0,.69-.16,1.05-.48s.65-.76.87-1.3c.14-.34.21-.64.21-.89,0-.19-.06-.33-.17-.45-.12-.13-.28-.19-.48-.19-.33,0-.73.11-1.2.33-.13.05-.27.13-.43.23-.12.07-.19.12-.2.13Z"/><path class="cls-14" d="M373.26,452.85c-.05.12-.2.43-.43.92-.39.93-.62,1.54-.7,1.83-.04.16-.1.28-.16.34-.06.06-.15.09-.26.09s-.22-.04-.29-.13c-.07-.08-.1-.17-.1-.27,0-.37.33-1.25.98-2.67-.71.08-1.27.2-1.68.37-.13.05-.24.08-.32.08-.2,0-.29-.15-.29-.46,0-.18.07-.36.21-.53.27-.32.73-.8,1.38-1.44.8-.79,1.53-1.43,2.17-1.92.56-.42.97-.64,1.22-.64.11,0,.21.05.31.14.07.08.11.16.11.26,0,.12-.07.3-.22.54-.02.04-.19.31-.48.78-.38.61-.73,1.25-1.05,1.92.34-.02.57-.03.68-.03.29,0,.43.11.43.32,0,.19-.08.33-.23.41-.07.03-.28.05-.62.05-.1,0-.31,0-.64.02ZM372.7,452.17c.53-1.04,1.04-1.9,1.52-2.6-.51.29-1.13.79-1.85,1.49-.52.52-.94.97-1.26,1.36.71-.15,1.24-.23,1.6-.25Z"/><path class="cls-14" d="M379.74,449.51c-1.31.29-2.24.43-2.77.43-.36,0-.54-.12-.54-.35,0-.12.04-.22.12-.3s.17-.12.27-.12c.04,0,.11,0,.21.01.06,0,.14.01.22.01.3,0,.7-.04,1.2-.12.63-.1,1.1-.19,1.4-.27.17-.04.31-.07.42-.07.26,0,.4.14.4.42,0,.19-.11.41-.34.64-1.68,1.8-3,3.57-3.95,5.32-.23.42-.38.67-.44.75-.12.14-.24.21-.37.21-.07,0-.14-.03-.19-.08-.07-.06-.1-.13-.1-.21,0-.25.24-.76.71-1.54.62-1.02,1.38-2.06,2.26-3.11.53-.63,1.02-1.18,1.49-1.63Z"/><path class="cls-14" d="M427.47,452.85c-.05.12-.2.43-.43.92-.39.93-.62,1.54-.7,1.83-.04.16-.1.28-.16.34-.06.06-.15.09-.26.09s-.22-.04-.29-.13c-.07-.08-.1-.17-.1-.27,0-.37.33-1.25.98-2.67-.71.08-1.27.2-1.68.37-.13.05-.24.08-.32.08-.2,0-.29-.15-.29-.46,0-.18.07-.36.21-.53.27-.32.73-.8,1.38-1.44.8-.79,1.53-1.43,2.18-1.92.56-.42.97-.64,1.22-.64.11,0,.21.05.31.14.07.08.11.16.11.26,0,.12-.07.3-.22.54-.02.04-.19.31-.48.78-.38.61-.73,1.25-1.05,1.92.34-.02.57-.03.68-.03.29,0,.43.11.43.32,0,.19-.08.33-.23.41-.07.03-.28.05-.62.05-.1,0-.32,0-.64.02ZM426.91,452.17c.53-1.04,1.04-1.9,1.52-2.6-.51.29-1.13.79-1.85,1.49-.52.52-.94.97-1.26,1.36.71-.15,1.24-.23,1.6-.25Z"/><path class="cls-14" d="M431.76,451.37c-.21-.21-.37-.38-.45-.51-.13-.21-.2-.42-.2-.65,0-.51.26-.93.77-1.28.44-.3.92-.45,1.44-.45.38,0,.68.12.9.35.2.21.29.45.29.74,0,.43-.21.83-.63,1.2-.22.2-.54.43-.95.7.25.25.44.5.57.75.13.25.19.49.19.72,0,.46-.15.91-.46,1.36-.33.48-.75.87-1.27,1.17-.52.3-1.05.45-1.57.45-.46,0-.84-.17-1.14-.5-.22-.25-.33-.53-.33-.83,0-.8.49-1.57,1.46-2.31.51-.4.97-.7,1.37-.92ZM432.26,451.86c-.59.3-1.08.63-1.49,1.01-.57.53-.85,1.04-.85,1.52,0,.28.09.49.26.62.18.12.37.18.56.18.27,0,.56-.08.86-.25.3-.17.56-.39.77-.66.31-.4.47-.82.47-1.25,0-.3-.09-.58-.28-.84-.04-.06-.11-.13-.2-.22-.07-.07-.11-.1-.11-.1ZM432.47,450.93c.29-.16.54-.34.75-.54.26-.26.4-.5.4-.73,0-.15-.05-.27-.14-.37-.1-.12-.24-.18-.4-.18-.28,0-.55.1-.79.3-.21.17-.31.37-.31.59,0,.16.09.36.27.61l.23.32Z"/><line class="cls-5" x1="323.08" y1="353.75" x2="323.08" y2="431.72"/><line class="cls-8" x1="377.3" y1="375.4" x2="377.3" y2="431.72"/><line class="cls-8" x1="431.51" y1="375.4" x2="431.51" y2="431.72"/><circle class="cls-9" cx="323.08" cy="431.72" r="7.2"/><circle class="cls-9" cx="377.3" cy="431.72" r="7.2"/><circle class="cls-9" cx="431.51" cy="431.72" r="7.2"/><g class="cls-17"><rect class="cls-15" x="111.84" y="383.61" width="184.64" height="23.31"/><path d="M296.98,407.42H111.34v-24.31h185.64v24.31ZM112.34,406.42h183.64v-22.31H112.34v22.31Z"/><path d="M184.96,398.26c-.62,0-1.09-.13-1.4-.39-.31-.26-.47-.65-.47-1.18s.14-.88.43-1.13c.28-.25.71-.37,1.28-.37h1.44l.07.8h-1.5c-.26,0-.45.06-.58.17-.13.12-.2.29-.2.53,0,.26.09.45.26.57.17.12.43.19.78.19.38,0,.66-.04.85-.12.19-.08.28-.21.28-.38l.1.71c-.09.14-.2.25-.33.34-.13.09-.28.15-.45.2-.17.04-.36.07-.57.07ZM186.2,398.18v-3.21c0-.33-.09-.59-.27-.77-.18-.18-.43-.28-.75-.28-.2,0-.39.03-.59.09-.19.06-.37.15-.52.26l-.73-.5c.19-.23.45-.41.76-.54.31-.13.66-.19,1.05-.19.63,0,1.13.16,1.47.49.35.33.52.79.52,1.39v3.26h-.95Z"/><path d="M190.71,398.26c-.7,0-1.24-.19-1.62-.58-.38-.38-.57-.93-.57-1.63v-.83c0-.69.19-1.23.57-1.61.38-.38.92-.57,1.62-.57.4,0,.76.07,1.07.21.32.14.57.34.76.6l-.72.64c-.14-.16-.31-.29-.5-.38-.19-.09-.39-.13-.61-.13-.38,0-.68.11-.89.32-.21.21-.32.52-.32.91v.83c0,.4.11.71.32.93.21.22.51.33.89.33.21,0,.41-.05.61-.14.19-.09.36-.23.5-.4l.72.69c-.19.25-.44.45-.76.59-.32.14-.68.21-1.07.21Z"/><path d="M193.26,394.01v-.9h2.29v.9h-2.29ZM194.96,398.21c-.42,0-.72-.12-.91-.35-.19-.23-.28-.56-.28-1v-5.22h1v5.23c0,.12.02.21.07.28s.12.1.21.1h.48v.95h-.58Z"/><path d="M196.91,392.08v-1h1v1h-1ZM196.91,398.18v-5.07h1v5.07h-1Z"/><path d="M201.16,396.73l1.24-3.62h1.04l-1.9,5.07h-.75l-1.9-5.07h1.04l1.24,3.62Z"/><path d="M206.04,398.26c-.62,0-1.09-.13-1.4-.39-.31-.26-.47-.65-.47-1.18s.14-.88.43-1.13c.28-.25.71-.37,1.28-.37h1.44l.07.8h-1.5c-.26,0-.45.06-.58.17-.13.12-.2.29-.2.53,0,.26.09.45.26.57.17.12.43.19.78.19.38,0,.66-.04.85-.12.19-.08.28-.21.28-.38l.1.71c-.09.14-.2.25-.33.34-.13.09-.28.15-.45.2-.17.04-.36.07-.57.07ZM207.28,398.18v-3.21c0-.33-.09-.59-.27-.77-.18-.18-.43-.28-.75-.28-.2,0-.39.03-.59.09-.19.06-.37.15-.52.26l-.73-.5c.19-.23.45-.41.76-.54.31-.13.66-.19,1.05-.19.63,0,1.13.16,1.47.49.35.33.52.79.52,1.39v3.26h-.95Z"/><path d="M209.35,394.01v-.9h2.29v.9h-2.29ZM211.06,398.21c-.42,0-.72-.12-.91-.35-.19-.23-.28-.56-.28-1v-5.22h1v5.23c0,.12.02.21.07.28s.12.1.21.1h.48v.95h-.58Z"/><path d="M213,392.08v-1h1v1h-1ZM213,398.18v-5.07h1v5.07h-1Z"/><path d="M217.45,398.26c-.66,0-1.18-.19-1.54-.58-.36-.39-.55-.93-.55-1.63v-.83c0-.69.18-1.23.55-1.61.37-.38.88-.57,1.54-.57s1.18.19,1.54.57c.37.38.55.92.55,1.61v.84c0,.7-.18,1.24-.55,1.62-.36.38-.88.57-1.54.57ZM217.45,397.31c.35,0,.62-.11.81-.33s.29-.52.29-.92v-.84c0-.39-.09-.7-.29-.91s-.46-.32-.81-.32-.61.11-.81.32c-.19.21-.29.52-.29.91v.84c0,.39.1.7.29.92.19.22.46.33.81.33Z"/><path d="M220.96,398.18v-5.07h1v5.07h-1ZM224.04,398.18v-3.07c0-.36-.09-.63-.28-.83-.18-.2-.45-.29-.78-.29s-.58.09-.75.26c-.18.17-.27.42-.27.73l-.1-.98c.16-.31.36-.54.61-.71.25-.17.53-.25.84-.25.55,0,.98.18,1.28.54.3.36.45.87.45,1.53v3.08h-1Z"/><g class="cls-11"><path class="cls-15" d="M464.84,385.63v19.31h-133.88v-19.31h133.88M466.84,383.63h-137.88v23.31h137.88v-23.31h0Z"/><rect class="cls-6" x="328.96" y="383.63" width="137.88" height="23.31"/><g class="cls-12"><polygon class="cls-22" points="335.26 385.54 325.8 385.54 306.6 404.98 316.06 404.98 335.26 385.54"/><polygon class="cls-22" points="353.33 385.54 343.87 385.54 324.67 404.98 334.13 404.98 353.33 385.54"/><polygon class="cls-22" points="371.4 385.54 361.94 385.54 342.74 404.98 352.2 404.98 371.4 385.54"/><polygon class="cls-22" points="389.47 385.54 380.01 385.54 360.81 404.98 370.27 404.98 389.47 385.54"/><polygon class="cls-22" points="407.54 385.54 398.08 385.54 378.88 404.98 388.34 404.98 407.54 385.54"/><polygon class="cls-22" points="425.61 385.54 416.15 385.54 396.95 404.98 406.41 404.98 425.61 385.54"/><polygon class="cls-22" points="443.68 385.54 434.22 385.54 415.02 404.98 424.48 404.98 443.68 385.54"/><polygon class="cls-22" points="461.75 385.54 452.29 385.54 433.09 404.98 442.55 404.98 461.75 385.54"/><polygon class="cls-22" points="479.82 385.54 470.36 385.54 451.16 404.98 460.62 404.98 479.82 385.54"/></g></g></g><line class="cls-1" x1="93.61" y1="375.4" x2="93.61" y2="432.71"/><path class="cls-1" d="M318.17,366.41c-60.29,8.5-153.18-16.63-208.12-8.93"/><path class="cls-14" d="M313.78,363.97c-.07.15-.01.33.14.4l4.11,2.03-3.58,2.87c-.13.1-.15.29-.05.42.1.13.29.15.42.05l3.95-3.16c.08-.06.12-.16.11-.27-.01-.1-.07-.19-.17-.24l-4.54-2.24c-.05-.03-.11-.04-.16-.03-.1.01-.19.07-.24.17Z"/><path class="cls-14" d="M113.77,354.13c.11.13.09.32-.04.42l-3.54,2.93,4.15,1.97c.15.07.21.25.14.4-.07.15-.25.21-.4.14l-4.57-2.17c-.09-.04-.16-.13-.17-.23s.03-.2.11-.27l3.9-3.23s.1-.06.15-.07c.1-.01.2.02.27.11Z"/><path class="cls-14" d="M206.1,354.38c-.46.87-.81,1.48-1.04,1.82-.29.42-.54.75-.76.99-.25.25-.5.4-.74.43-.24.04-.44-.06-.6-.27-.13-.17-.21-.36-.24-.59-.11-.74.18-1.82.86-3.24.62-1.29,1.12-1.96,1.51-2.02.09-.01.19.02.29.09.09.07.15.16.17.27.02.15-.08.37-.3.68-.48.64-.87,1.34-1.18,2.1-.26.65-.38,1.06-.35,1.25.02.13.09.19.21.17.41-.06,1.15-1.07,2.24-3.03.35-.63.57-1,.65-1.1.15-.19.32-.3.5-.32.12-.02.23,0,.33.05.08.06.13.12.14.2.01.08-.1.45-.33,1.1-.54,1.41-.78,2.34-.71,2.79.03.18.11.25.25.23.24-.04.54-.37.88-.99.33-.59.6-1.31.82-2.18.1-.37.16-.86.19-1.45.04-.68.26-1.04.66-1.11.23-.03.36.08.4.33.13.89-.18,2.18-.93,3.87-.78,1.77-1.53,2.71-2.23,2.81-.52.08-.83-.2-.93-.85-.08-.53,0-1.2.24-2.03Z"/><path class="cls-14" d="M212.59,350.08c.11-.02.22.01.3.09.07.07.1.14.11.21.02.12-.05.34-.2.65-.54,1.19-.9,2.17-1.1,2.91-.21.77-.38,1.56-.51,2.36-.06.35-.2.55-.43.58-.14.02-.25-.02-.35-.11-.09-.08-.14-.17-.15-.27-.03-.2.08-.91.34-2.13.2-.96.6-2.04,1.19-3.25.19-.4.33-.66.44-.8.1-.15.22-.23.35-.25ZM213.95,346.03c.3-.05.48.09.53.4.04.28-.06.62-.3,1.01-.23.37-.48.58-.75.62-.13.02-.24-.01-.34-.09-.09-.08-.15-.18-.17-.31-.05-.32.08-.7.38-1.12.22-.31.44-.48.65-.51Z"/><path class="cls-14" d="M214.94,352.39c.08-.1.15-.19.22-.28,1.21-1.59,2.05-2.42,2.53-2.5.26-.04.42.09.46.38.03.2-.05.46-.25.77-1.06,1.7-1.51,3.13-1.34,4.28.06.37.21.71.46,1.02.12.14.18.26.2.34.01.08-.02.16-.09.25-.07.11-.17.17-.29.19-.28.04-.54-.1-.78-.42-.23-.3-.38-.69-.46-1.17-.14-.91.06-1.98.58-3.19-.83.73-1.53,1.9-2.09,3.51-.15.39-.34.6-.57.64-.12.02-.22,0-.3-.08-.11-.08-.17-.19-.2-.34-.06-.36.22-1.38.81-3.06.32-.91.58-1.57.78-1.98.2-.41.39-.63.58-.66.09-.01.18.01.27.08.11.08.17.18.19.3.02.15-.04.38-.2.68-.22.45-.39.86-.52,1.23Z"/><path class="cls-14" d="M222.12,348.8c.46-1.51.92-2.84,1.36-3.98.43-1.1.73-1.8.9-2.09.19-.33.38-.5.58-.53.11-.02.21.01.31.09.09.08.15.16.16.27.02.16-.05.43-.23.83-.74,1.73-1.4,3.47-1.97,5.22-.66,2.04-.92,3.54-.78,4.48.06.39.18.68.36.88.03.04.17.13.41.27.05.03.08.09.09.19.02.14-.01.27-.1.39-.09.13-.2.2-.32.22-.16.02-.34-.04-.56-.21-.31-.23-.52-.52-.63-.86-.04-.15-.11-.42-.2-.82-.52,1.38-1.1,2.12-1.74,2.22-.37.06-.7-.11-.99-.49-.19-.25-.31-.56-.37-.91-.16-1.05.07-2.17.68-3.36.6-1.17,1.35-1.82,2.23-1.95.24-.04.51.01.79.14ZM221.9,349.69c-.2-.09-.37-.13-.5-.11-.57.09-1.05.51-1.46,1.29-.53,1.01-.74,1.93-.61,2.78.02.1.05.19.1.27.11.16.24.22.4.2.24-.04.49-.31.76-.82.36-.68.67-1.46.93-2.35.09-.3.18-.61.27-.91l.06-.21.04-.14Z"/><path class="cls-14" d="M227.28,347.39c.55-.08.88.21.98.89.13.9-.11,2.1-.73,3.6-.68,1.63-1.44,2.51-2.29,2.64-.39.06-.71-.08-.95-.42-.12-.17-.2-.38-.24-.64-.13-.87.03-1.85.47-2.95.41-1.02.96-1.85,1.63-2.49.39-.37.77-.58,1.13-.64ZM226.81,351.38c-.19-.11-.29-.2-.3-.28,0-.05.08-.22.26-.5.5-.77.73-1.37.66-1.79,0-.05-.03-.1-.08-.15-.07-.09-.16-.13-.28-.11-.22.03-.5.29-.86.77-.46.62-.79,1.24-.98,1.86-.23.71-.32,1.27-.25,1.71.02.12.06.21.14.29.11.11.23.15.36.13.33-.05.64-.34.93-.89.13-.23.23-.46.3-.69.07-.23.1-.35.09-.36Z"/><path class="cls-14" d="M232.27,350.44c-.46.87-.81,1.48-1.04,1.82-.29.42-.54.75-.76.99-.25.25-.5.4-.74.43-.24.04-.44-.06-.6-.27-.13-.17-.21-.36-.24-.59-.11-.74.17-1.82.86-3.24.62-1.29,1.12-1.96,1.51-2.02.09-.01.19.02.29.09.09.07.15.16.17.27.02.15-.08.37-.3.68-.48.64-.87,1.34-1.18,2.1-.26.65-.38,1.06-.35,1.25.02.14.09.19.21.18.41-.06,1.15-1.07,2.24-3.03.35-.63.57-1,.65-1.1.15-.19.32-.3.5-.32.12-.02.23,0,.33.05.08.06.13.12.14.2.01.08-.1.45-.33,1.1-.54,1.41-.78,2.34-.71,2.79.03.18.11.25.25.23.24-.04.54-.37.88-.99.33-.59.6-1.31.82-2.18.1-.37.16-.86.19-1.45.04-.68.26-1.04.66-1.11.23-.03.36.08.4.33.13.89-.18,2.18-.93,3.87-.78,1.77-1.53,2.71-2.23,2.81-.52.08-.83-.2-.93-.85-.08-.53,0-1.2.24-2.03Z"/><path class="cls-14" d="M207.79,341.21c.07-.1.14-.2.2-.29,1.1-1.67,1.89-2.55,2.36-2.65.26-.06.42.06.48.35.04.2-.02.46-.2.79-.95,1.77-1.31,3.22-1.06,4.35.08.37.26.7.53.99.13.13.2.24.22.33.02.08,0,.17-.07.26-.07.11-.16.18-.28.21-.27.06-.54-.06-.8-.37-.25-.29-.43-.67-.53-1.13-.2-.9-.07-1.97.37-3.22-.78.78-1.4,1.99-1.87,3.64-.12.4-.3.62-.53.67-.11.02-.22,0-.31-.06-.11-.07-.19-.18-.22-.33-.08-.36.13-1.4.62-3.1.26-.92.48-1.6.65-2.03.17-.42.35-.65.53-.69.09-.02.18,0,.28.07.11.07.18.17.21.29.03.15-.02.38-.15.69-.19.47-.34.89-.44,1.26Z"/><path class="cls-14" d="M212.33,341.81l.04.18c.03.15.1.27.19.36.22.21.52.28.9.19.83-.18,1.66-1.03,2.48-2.55.15-.26.29-.41.42-.44.07-.02.15,0,.22.07.05.04.08.09.09.14.06.26-.17.77-.68,1.53-.39.6-.84,1.11-1.34,1.54-.5.43-1,.7-1.48.8-.5.11-.93.02-1.29-.27-.25-.2-.41-.5-.5-.92-.24-1.13.05-2.35.88-3.66.67-1.07,1.33-1.67,1.97-1.81.17-.04.34-.02.5.06.2.1.33.27.38.5.08.35,0,.82-.21,1.41-.44,1.21-1.3,2.17-2.57,2.87ZM212.38,340.98c.43-.26.76-.52.98-.78.39-.46.67-.95.85-1.46.07-.18.08-.34.06-.46-.03-.13-.11-.19-.23-.16-.17.04-.39.22-.66.55-.47.59-.81,1.36-1,2.32Z"/><path class="cls-14" d="M218.32,339.45c-.06-.2-.12-.4-.16-.6-.04-.18-.08-.41-.12-.68-.08-.45-.12-.71-.14-.79-.08-.42-.1-.71-.05-.87.06-.2.19-.32.37-.36.12-.03.23,0,.33.07.11.09.18.2.21.33.02.09.04.23.06.41.02.17.05.38.11.64.02.1.06.26.11.47.1-.18.31-.55.63-1.11.5-.89.87-1.36,1.11-1.42.07-.02.14,0,.21.06.07.06.11.14.13.22.04.17-.03.36-.2.59-.68.93-1.23,1.88-1.64,2.85.02.11.03.18.04.22.11.51.2.86.26,1.05.09.26.23.37.43.33.2-.04.42-.31.65-.79.28-.59.48-1.07.59-1.42.11-.33.25-.52.43-.55.14-.03.23.04.26.21.07.31-.13.97-.59,1.98-.26.57-.51,1.02-.74,1.35-.25.34-.51.54-.79.6-.39.09-.69-.11-.89-.58-.11-.24-.23-.6-.37-1.11-.1.18-.3.58-.59,1.18-.45.92-.79,1.4-1.02,1.45-.21.04-.35-.11-.42-.45-.03-.13,0-.25.05-.38.04-.08.15-.25.34-.5.35-.48.65-.95.89-1.42.26-.49.43-.81.52-.96Z"/><path class="cls-14" d="M225,334.32c-.29.77-.53,1.61-.71,2.53-.27,1.3-.34,2.25-.21,2.84.04.17.1.29.19.36.09.07.2.09.34.06.33-.07.67-.47,1.01-1.21.22-.45.4-.9.55-1.34.08-.25.19-.39.34-.42.09-.02.17,0,.24.04.07.05.11.1.12.16.05.25-.15.87-.61,1.86-.55,1.2-1.15,1.87-1.79,2-.34.07-.66-.02-.95-.29-.18-.17-.32-.44-.4-.81-.17-.81-.14-1.8.09-2.98.06-.29.23-1,.52-2.14-.17.09-.3.14-.4.16-.14.03-.27.02-.39-.02-.17-.06-.27-.16-.3-.3-.04-.17.03-.32.2-.46.05-.04.29-.13.71-.29.15-.06.37-.18.66-.34.14-.47.4-1.12.77-1.96.21-.46.36-.77.44-.91.12-.2.25-.32.37-.34.09-.02.18,0,.29.08.1.07.16.15.18.24.04.17-.07.56-.34,1.15-.17.39-.3.7-.38.93.7-.36,1.21-.58,1.53-.65.37-.08.58.03.65.34.03.15,0,.28-.12.38-.06.05-.22.12-.5.21-.12.02-.59.25-1.43.71-.23.13-.46.26-.68.39Z"/><path class="cls-1" d="M245.31,341.83c87.43-14.75,98.96,18.38,99.26,35.58"/><path class="cls-14" d="M341.5,373.42c.14-.09.32-.06.42.07l2.63,3.77,2.3-3.97c.08-.14.27-.19.41-.11.14.08.19.27.11.41l-2.54,4.38c-.05.09-.14.15-.25.15-.1,0-.2-.04-.26-.13l-2.89-4.15s-.05-.1-.05-.16c0-.1.04-.2.13-.26Z"/><path class="cls-14" d="M35.81,136.56c.07-.72.55-1.03,1.42-.94,1.16.12,2.58.8,4.26,2.06,1.81,1.37,2.67,2.6,2.56,3.69-.05.51-.33.85-.82,1.04-.25.1-.54.13-.87.1-1.12-.11-2.3-.62-3.53-1.52-1.14-.84-2-1.78-2.58-2.82-.34-.61-.48-1.14-.43-1.61ZM40.63,138.43c-.2.2-.34.3-.44.29-.07,0-.25-.17-.54-.48-.8-.88-1.48-1.34-2.02-1.4-.07,0-.14,0-.22.04-.14.06-.21.16-.23.31-.03.28.2.72.69,1.31.63.77,1.3,1.38,2,1.82.8.51,1.49.8,2.05.86.15.02.28-.01.41-.08.17-.1.26-.23.28-.41.04-.42-.23-.9-.81-1.45-.24-.24-.49-.43-.76-.59-.27-.16-.41-.24-.42-.23Z"/><path class="cls-14" d="M37.88,131.79c-.55-.81-.8-1.51-.74-2.1.04-.37.22-.65.55-.86.29-.19.62-.27.98-.23.68.07,1.49.38,2.41.92,1.03.61,1.95,1.43,2.79,2.47.69.86,1,1.64.93,2.35-.03.26-.1.5-.22.7-.12.2-.28.38-.49.53.12.08.19.13.22.15.31.18.5.3.56.37.06.06.09.16.08.28-.02.16-.12.3-.32.42-.13.08-.27.12-.41.1-.25-.02-1.43-.65-3.56-1.88-2.97-1.72-5.9-3.67-8.79-5.83-1.18-.88-1.88-1.41-2.08-1.6-.24-.21-.36-.39-.34-.55.02-.19.13-.35.34-.48.13-.08.28-.12.45-.1.18.02.41.12.67.32.06.04.48.36,1.27.96,2.29,1.83,4.19,3.19,5.71,4.07ZM43.33,134.57c.1-.13.16-.26.17-.41.08-.76-.5-1.63-1.74-2.61-.55-.45-1.11-.82-1.68-1.11-.5-.25-.88-.39-1.14-.42-.17-.02-.31,0-.4.08-.09.07-.14.19-.16.35-.04.4.19.92.68,1.54.49.62,1.21,1.26,2.18,1.92.46.31.9.59,1.31.82l.34.21c.19-.11.33-.23.43-.36Z"/><path class="cls-14" d="M37.04,121.87c.05-.54.19-.94.41-1.19.22-.25.53-.36.92-.32.52.05,1,.29,1.44.73.42.41.73,1,.93,1.76.11.42.15.76.12,1.03-.04.37-.22.53-.54.5-.22-.02-.38-.14-.47-.37-.02-.06-.07-.36-.13-.91-.04-.33-.16-.64-.37-.94-.18-.26-.38-.4-.62-.42-.18-.02-.33.02-.42.12s-.16.25-.18.46c-.05.51.1,1.09.45,1.74.39.75.91,1.17,1.55,1.23.46.05,1.05-.13,1.78-.52.79-.44,1.45-.64,1.97-.58.77.08,1.34.48,1.71,1.21.23.45.32.94.26,1.47-.08.84-.45,1.45-1.1,1.82-.46.26-.98.37-1.57.31-.68-.07-1.24-.3-1.67-.7-.28-.26-.41-.51-.39-.75.02-.22.12-.32.3-.3.07,0,.17.06.3.15.36.24.79.38,1.29.44.43.04.81-.07,1.13-.35.29-.24.45-.54.49-.89.03-.34-.05-.62-.26-.83-.18-.18-.41-.28-.71-.31-.37-.04-.86.12-1.49.48-.86.5-1.62.71-2.28.64-.88-.09-1.6-.64-2.18-1.66-.55-.99-.78-2-.67-3.04Z"/><path class="cls-14" d="M43.41,120.66l.24.02c.19.02.36-.01.51-.09.35-.19.54-.53.59-1.03.11-1.09-.6-2.44-2.14-4.05-.26-.28-.39-.51-.37-.69,0-.1.07-.18.17-.25.08-.05.14-.06.2-.06.34.03.88.51,1.6,1.43.57.72,1.02,1.47,1.35,2.26.33.78.46,1.5.39,2.13-.07.66-.35,1.15-.84,1.48-.34.22-.78.31-1.32.25-1.48-.15-2.85-.99-4.13-2.52-1.04-1.24-1.52-2.29-1.43-3.13.02-.23.11-.43.27-.6.21-.21.46-.3.76-.27.46.05,1.01.32,1.64.81,1.31,1.02,2.14,2.45,2.5,4.28ZM42.42,120.27c-.15-.63-.34-1.14-.56-1.51-.41-.66-.9-1.2-1.45-1.62-.2-.15-.38-.24-.54-.25-.17-.02-.27.06-.29.22-.02.23.11.57.41,1.02.53.81,1.34,1.53,2.43,2.14Z"/><path class="cls-14" d="M42.5,111.74c-.83-.95-1.63-2.03-2.39-3.24-.27-.43-.52-.89-.75-1.37-.11-.24-.16-.39-.15-.45.01-.13.12-.25.33-.36.11-.07.21-.1.3-.09.16.02.35.2.59.56.62.96,1.11,1.46,1.47,1.5.2.02.31-.08.34-.31.04-.38-.21-1.05-.74-2.03-.09-.17-.13-.3-.12-.41,0-.07.05-.14.13-.2.09-.07.17-.1.26-.09.26.03.63.43,1.1,1.22.5.83.71,1.59.64,2.28-.03.28-.13.53-.3.75-.14.19-.37.27-.69.24-.22-.02-.46-.14-.72-.35.42.74,1.18,1.64,2.27,2.69.68.62,1.53,1.25,2.55,1.89.38.24.56.51.53.81-.03.32-.2.47-.51.44-.3-.03-1.07-.36-2.31-1-1.85-.95-3.26-1.88-4.23-2.81-.6-.57-.89-1.03-.86-1.37.01-.11.06-.22.14-.3.1-.1.21-.15.35-.14.13.01.31.12.52.32.04.04.31.3.81.78.48.45.96.8,1.44,1.06Z"/><path class="cls-14" d="M44.31,101.15c.86.63,1.5,1.15,1.91,1.58,1.01,1.05,1.48,1.88,1.42,2.5-.04.38-.27.64-.7.8-.29.11-.58.15-.87.12-.58-.06-1.39-.39-2.43-1-.91-.54-1.62-.99-2.14-1.36-.37-.27-.62-.43-.73-.48-.22-.13-.39-.24-.51-.33-.17-.13-.25-.3-.23-.5.01-.1.06-.19.16-.26.11-.08.24-.11.38-.09.39.04,1.24.48,2.53,1.33,1.28.84,2.13,1.29,2.57,1.33.28.03.43-.07.45-.29.04-.38-.4-.96-1.31-1.75-.41-.35-.93-.73-1.57-1.13-.22-.01-.39-.03-.5-.04-.66-.07-1.21-.25-1.67-.54-.59-.38-.86-.83-.8-1.37.03-.31.23-.44.6-.4.58.06,1.42.45,2.49,1.18.05-.17.08-.31.09-.41.03-.29-.12-.68-.44-1.18-.26-.4-.38-.65-.37-.77,0-.1.08-.19.2-.28.1-.07.2-.1.3-.09.31.03.65.29,1,.76.39.55.56,1.15.49,1.8-.03.25-.13.54-.31.86Z"/><path class="cls-14" d="M45.74,97.64l.24.02c.19.02.36-.01.51-.09.35-.19.54-.53.59-1.03.11-1.09-.6-2.44-2.14-4.04-.26-.28-.39-.51-.37-.69,0-.1.07-.18.17-.25.08-.05.14-.06.2-.06.34.03.88.51,1.6,1.43.57.72,1.02,1.47,1.35,2.26s.46,1.5.39,2.13c-.07.66-.35,1.15-.84,1.48-.34.22-.78.31-1.32.25-1.48-.15-2.85-.99-4.13-2.52-1.04-1.24-1.52-2.29-1.43-3.13.02-.23.11-.43.27-.6.21-.21.46-.3.76-.27.46.05,1.01.32,1.64.81,1.31,1.02,2.14,2.45,2.5,4.28ZM44.74,97.25c-.15-.63-.34-1.14-.56-1.51-.41-.66-.9-1.2-1.45-1.62-.2-.15-.38-.24-.54-.25-.17-.02-.27.06-.29.22-.02.23.11.57.41,1.02.53.81,1.34,1.53,2.43,2.14Z"/><path class="cls-14" d="M39.43,415.25c.07-.69.47-1,1.19-.93.64.06,1.26.38,1.85.94.45.43.66.8.63,1.08-.02.25-.18.35-.46.33-.15-.02-.26-.06-.34-.14-.03-.03-.12-.14-.27-.35-.13-.17-.34-.36-.62-.55-.19-.13-.35-.21-.47-.22-.14-.01-.22.06-.23.21-.02.18.1.48.35.88.4.64,1.07,1.31,2,2,.97.71,1.75,1.1,2.35,1.16.19.02.37-.02.53-.12.24-.14.38-.35.41-.63.05-.55-.22-1.24-.83-2.06-.52-.7-1.05-1.29-1.59-1.79-.3-.26-.44-.47-.43-.64,0-.1.06-.18.16-.25.09-.06.19-.09.27-.08.32.03.91.51,1.76,1.44,1.34,1.47,1.95,2.74,1.84,3.82-.06.65-.35,1.12-.84,1.41-.37.21-.78.29-1.24.25-.91-.09-1.92-.57-3.05-1.45-1.07-.84-1.91-1.77-2.51-2.8-.35-.6-.5-1.11-.46-1.53Z"/><path class="cls-14" d="M39.87,407.55c.07-.72.54-1.03,1.42-.94,1.16.12,2.58.8,4.26,2.06,1.81,1.37,2.67,2.6,2.56,3.69-.05.51-.33.86-.82,1.04-.25.1-.54.13-.87.1-1.12-.11-2.3-.62-3.53-1.52-1.14-.84-2-1.78-2.58-2.82-.34-.61-.48-1.14-.43-1.61ZM44.69,409.42c-.2.2-.34.3-.44.29-.07,0-.25-.17-.53-.48-.8-.88-1.48-1.34-2.02-1.4-.07,0-.14,0-.22.04-.14.06-.21.16-.23.31-.03.28.2.72.69,1.32.63.77,1.3,1.38,2,1.82.8.51,1.49.8,2.05.86.15.02.28,0,.41-.08.17-.1.26-.23.28-.41.04-.42-.23-.9-.81-1.45-.24-.24-.5-.43-.76-.59-.27-.16-.4-.23-.41-.23Z"/><path class="cls-14" d="M46.68,403.16c.48.34.88.67,1.2.98.63.62.91,1.2.86,1.74-.05.47-.31.82-.78,1.03-.3.14-.65.19-1.05.15-.97-.1-2.01-.51-3.12-1.24-1.23-.81-2.15-1.74-2.75-2.77-.39-.68-.56-1.31-.5-1.89.04-.37.18-.66.43-.88.22-.19.46-.27.71-.25.19.02.45.12.78.3.2-.11.37-.16.5-.15.18.02.47.17.87.46.4.3.95.61,1.63.93.73.35,1.31.54,1.77.59.37.04.68-.04.94-.24.07-.05.19-.22.36-.51.13-.21.32-.3.58-.27.17.02.3.09.39.22.1.14.14.3.12.48-.05.47-.3.86-.75,1.16-.37.24-.81.34-1.33.29-.17-.02-.46-.06-.86-.14ZM42.53,401.09c-.2.09-.36.18-.46.3-.1.11-.16.24-.18.38-.07.66.44,1.44,1.53,2.34,1.2.99,2.24,1.53,3.14,1.62.22.02.39,0,.51-.07.12-.07.19-.19.21-.36.04-.42-.35-.95-1.19-1.6-.46-.36-1.14-.83-2.05-1.39-.59-.37-.98-.63-1.17-.79-.1-.08-.21-.22-.34-.42Z"/><path class="cls-14" d="M45.02,397.7c.66.33,1.19.58,1.59.76.41.17.69.27.86.29.22.02.34-.07.36-.28.03-.31-.22-.75-.77-1.31-.26-.27-.75-.67-1.46-1.21-.28-.21-.41-.42-.39-.62.02-.23.14-.33.36-.31.38.04,1.09.55,2.15,1.53,1.11,1.02,1.62,1.92,1.54,2.69-.03.33-.2.59-.5.77-.22.13-.47.18-.76.15-.49-.05-1.15-.27-1.99-.65s-1.84-.93-3.03-1.64c-3-1.82-5.45-3.62-7.34-5.39-1.52-1.42-2.24-2.54-2.15-3.36.03-.26.15-.47.37-.61.22-.15.46-.22.72-.19,1.22.12,3.15,1.42,5.78,3.9,1.17,1.11,2.32,2.41,3.45,3.9.3.39.69.93,1.19,1.6ZM43.02,396.55c-1.37-1.98-3.18-3.8-5.41-5.48-1.16-.87-1.94-1.32-2.34-1.36-.19-.02-.3.05-.31.22-.05.48.82,1.45,2.61,2.91,1.47,1.21,3.29,2.44,5.46,3.7Z"/><path class="cls-14" d="M47.32,393.24l.24.02c.19.02.36-.01.51-.09.35-.19.54-.53.59-1.03.11-1.09-.6-2.44-2.14-4.05-.26-.28-.39-.51-.37-.69,0-.1.07-.18.17-.25.08-.05.14-.06.21-.06.34.03.88.51,1.6,1.43.57.72,1.02,1.47,1.35,2.26.33.78.46,1.5.39,2.13-.07.66-.35,1.15-.84,1.48-.34.22-.78.31-1.32.25-1.48-.15-2.86-.99-4.13-2.52-1.04-1.24-1.52-2.29-1.43-3.13.02-.23.11-.43.27-.6.21-.21.46-.3.76-.27.46.05,1.01.32,1.64.81,1.31,1.02,2.14,2.45,2.5,4.28ZM46.33,392.85c-.15-.63-.34-1.14-.56-1.51-.41-.66-.89-1.2-1.45-1.62-.2-.15-.38-.24-.54-.25-.17-.02-.27.06-.29.22-.02.23.12.57.41,1.02.53.81,1.34,1.53,2.43,2.14Z"/><path class="cls-14" d="M42.38,380.24c.05-.54.19-.94.41-1.19.22-.25.53-.36.92-.32.52.05,1,.29,1.44.73.42.41.73,1,.94,1.76.11.42.15.76.12,1.03-.04.37-.22.53-.54.5-.22-.02-.38-.14-.47-.37-.02-.06-.07-.36-.13-.91-.04-.33-.16-.64-.37-.94-.18-.26-.38-.4-.62-.42-.18-.02-.33.02-.42.12s-.16.25-.18.46c-.05.51.1,1.09.45,1.74.39.75.91,1.17,1.55,1.23.46.05,1.05-.13,1.78-.52.79-.44,1.45-.64,1.97-.58.77.08,1.34.48,1.71,1.21.23.45.32.94.26,1.47-.08.84-.45,1.45-1.1,1.82-.46.26-.98.37-1.57.31-.68-.07-1.24-.3-1.67-.7-.28-.26-.41-.51-.39-.75.02-.22.12-.32.3-.3.07,0,.17.06.3.15.36.24.79.38,1.29.44.43.04.81-.07,1.13-.35.29-.24.45-.54.49-.89.03-.34-.05-.62-.26-.83-.18-.18-.41-.28-.71-.31-.37-.04-.86.12-1.49.48-.86.5-1.62.71-2.28.64-.88-.09-1.6-.64-2.18-1.66-.55-.99-.78-2-.67-3.04Z"/><path class="cls-14" d="M43.52,374.74c.07-.69.47-1,1.19-.93.64.06,1.26.38,1.85.94.45.43.66.8.63,1.08-.03.25-.18.35-.46.32-.15-.02-.26-.06-.34-.14-.03-.03-.12-.14-.27-.35-.13-.17-.34-.36-.62-.55-.19-.13-.35-.21-.47-.22-.14-.01-.22.06-.23.21-.02.18.1.48.35.88.4.64,1.07,1.31,2,2,.97.72,1.75,1.1,2.35,1.16.19.02.37-.02.53-.12.24-.14.38-.35.41-.63.06-.55-.22-1.24-.83-2.06-.52-.7-1.05-1.29-1.59-1.79-.3-.26-.44-.47-.43-.64,0-.1.06-.18.16-.25.09-.06.19-.09.27-.08.32.03.91.51,1.76,1.44,1.34,1.47,1.95,2.74,1.84,3.82-.07.65-.35,1.12-.84,1.41-.37.21-.78.29-1.24.25-.91-.09-1.92-.57-3.05-1.45-1.07-.84-1.91-1.77-2.51-2.8-.35-.6-.5-1.11-.46-1.53Z"/><path class="cls-14" d="M49.5,371.69l.24.02c.19.02.36-.01.51-.09.35-.19.54-.53.59-1.03.11-1.09-.6-2.44-2.14-4.04-.26-.28-.38-.51-.37-.69,0-.1.07-.18.17-.25.08-.05.14-.06.21-.06.34.03.88.51,1.6,1.43.57.72,1.02,1.47,1.35,2.26s.46,1.5.39,2.13c-.07.66-.35,1.15-.84,1.48-.34.22-.78.31-1.32.25-1.48-.15-2.86-.99-4.13-2.52-1.04-1.24-1.52-2.29-1.43-3.13.02-.23.11-.43.27-.6.21-.21.46-.3.76-.27.46.05,1.01.32,1.64.81,1.31,1.02,2.14,2.45,2.5,4.28ZM48.5,371.29c-.15-.63-.34-1.14-.56-1.51-.41-.66-.89-1.2-1.45-1.62-.2-.15-.38-.24-.54-.25-.17-.02-.27.06-.29.22-.02.23.12.57.41,1.02.53.81,1.34,1.53,2.43,2.14Z"/><path class="cls-14" d="M405.01,58.98h-16.5l7.75,6.52v397.98c0,.28.22.5.5.5s.5-.22.5-.5V65.5l7.75-6.52Z"/><path class="cls-14" d="M53.95,140.28c.83.66,1.76,1.28,2.8,1.87,1.49.85,2.62,1.31,3.38,1.39.22.02.39,0,.51-.09.12-.08.19-.21.21-.4.04-.44-.31-1.01-1.07-1.71-.47-.44-.94-.85-1.42-1.2-.27-.2-.4-.39-.38-.58.01-.11.06-.21.15-.28.09-.06.17-.09.25-.08.32.03,1,.53,2.04,1.49,1.24,1.15,1.82,2.15,1.74,2.98-.04.45-.29.8-.73,1.05-.28.16-.66.21-1.14.16-1.06-.11-2.26-.54-3.61-1.29-.33-.18-1.14-.68-2.41-1.49.04.24.05.42.04.55-.02.18-.08.34-.18.47-.14.18-.3.26-.49.24-.22-.02-.38-.17-.49-.43-.03-.07-.05-.4-.07-.99-.01-.21-.07-.53-.16-.94-.52-.36-1.22-.94-2.09-1.72-.49-.44-.8-.74-.94-.9-.2-.23-.29-.43-.27-.58.01-.11.08-.22.22-.32.12-.09.24-.13.36-.12.23.02.65.31,1.28.87.4.37.73.64.99.83-.16-1-.23-1.71-.18-2.13.05-.48.27-.7.68-.66.2.02.34.12.42.29.04.09.06.32.06.7-.02.15.08.82.3,2.03.06.33.13.66.21.99Z"/><path class="cls-14" d="M58.5,136.55c-.83-.95-1.63-2.03-2.39-3.24-.27-.43-.52-.89-.75-1.37-.11-.24-.16-.39-.15-.45.01-.13.12-.25.33-.36.11-.07.21-.1.3-.09.16.02.35.2.59.56.62.96,1.11,1.46,1.46,1.5.2.02.31-.08.34-.31.04-.38-.21-1.05-.74-2.04-.09-.17-.13-.3-.12-.41,0-.07.05-.14.13-.2.09-.07.17-.1.26-.09.26.03.63.43,1.1,1.22.5.83.71,1.59.64,2.28-.03.28-.13.53-.3.75-.14.19-.37.27-.69.24-.22-.02-.46-.14-.72-.35.42.74,1.18,1.64,2.27,2.69.68.62,1.53,1.25,2.55,1.89.38.24.56.51.53.81-.03.32-.2.47-.51.44-.3-.03-1.07-.36-2.31-1-1.85-.95-3.26-1.88-4.23-2.81-.6-.57-.89-1.03-.85-1.37.01-.11.06-.22.14-.3.1-.1.21-.15.34-.14s.31.12.52.32c.04.04.31.3.81.78.48.45.96.8,1.44,1.06Z"/><path class="cls-14" d="M61.62,127.09c.48.34.88.67,1.2.98.63.62.91,1.2.86,1.74-.05.47-.31.82-.78,1.03-.31.14-.65.19-1.05.15-.97-.1-2.01-.51-3.12-1.24-1.23-.81-2.15-1.74-2.75-2.77-.39-.68-.56-1.31-.5-1.89.04-.37.18-.66.43-.88.22-.19.46-.27.71-.25.19.02.45.12.78.3.2-.11.37-.16.51-.15.18.02.47.17.87.46.4.3.95.61,1.63.93.72.35,1.31.54,1.77.59.37.04.68-.04.94-.24.07-.05.19-.22.36-.51.13-.21.32-.3.58-.27.17.02.3.09.39.22.1.14.14.3.12.48-.05.47-.3.86-.75,1.16-.37.25-.81.34-1.33.29-.17-.02-.46-.06-.86-.14ZM57.47,125.01c-.2.09-.36.19-.46.3-.1.11-.16.24-.18.38-.07.66.44,1.44,1.53,2.34,1.2.99,2.24,1.53,3.14,1.62.22.02.39,0,.51-.07.12-.07.19-.19.21-.36.04-.42-.35-.96-1.19-1.6-.46-.36-1.14-.83-2.05-1.39-.59-.37-.98-.63-1.17-.79-.1-.08-.21-.22-.34-.42Z"/><path class="cls-14" d="M56.45,118.64c.07-.69.47-1,1.19-.93.64.06,1.26.38,1.85.94.45.43.66.8.63,1.08-.03.25-.18.35-.46.33-.15-.02-.26-.06-.34-.14-.03-.03-.12-.15-.27-.35-.13-.17-.34-.36-.62-.55-.19-.13-.35-.21-.47-.22-.14-.01-.22.06-.23.21-.02.18.1.48.35.88.4.64,1.07,1.31,2,2,.97.72,1.75,1.1,2.35,1.16.19.02.37-.02.53-.12.24-.14.38-.35.41-.63.06-.55-.22-1.24-.83-2.06-.52-.7-1.05-1.29-1.59-1.79-.3-.26-.44-.47-.43-.64,0-.1.06-.18.16-.25.09-.06.19-.09.27-.08.32.03.91.51,1.76,1.44,1.34,1.47,1.95,2.74,1.84,3.82-.07.65-.35,1.12-.84,1.41-.37.21-.78.29-1.24.25-.91-.09-1.92-.57-3.05-1.45-1.07-.84-1.91-1.77-2.51-2.8-.35-.6-.5-1.11-.46-1.53Z"/><path class="cls-14" d="M59.77,110.92c1.35.71,2.39,1.1,3.13,1.18.36.04.66,0,.91-.12.32-.15.49-.36.52-.65.06-.59-.27-1.32-.99-2.18-.46-.57-.93-1.05-1.42-1.45-.33-.26-.48-.49-.46-.7s.13-.29.33-.27c.33.03.97.5,1.92,1.41,1.41,1.34,2.06,2.58,1.95,3.69-.07.67-.44,1.12-1.13,1.33-.5.16-1.02.22-1.55.16-.45-.05-1.1-.22-1.95-.52.41.62,1.48,1.59,3.2,2.93.47.36.69.66.66.92-.01.13-.08.24-.21.32-.13.08-.26.12-.38.11-.35-.04-1.47-.61-3.36-1.73-3.31-1.97-6.05-3.99-8.24-6.08-1.19-1.13-2.05-2.12-2.56-2.97-.47-.77-.68-1.37-.64-1.8.02-.19.12-.35.29-.49.21-.17.46-.25.74-.22.74.07,1.66.56,2.74,1.46,1.12.93,2.42,2.46,3.92,4.58.83,1.19,1.48,2.25,1.93,3.18.22.14.85.52,1.9,1.16-1.07-1.21-1.8-2.16-2.18-2.84-.24-.44-.47-1.02-.71-1.75-.15-.49-.22-.84-.2-1.05.01-.11.07-.21.16-.29.09-.09.2-.13.33-.11.29.03.47.25.54.65.13.68.4,1.4.79,2.15ZM57.4,111.82c-.8-1.53-1.87-2.99-3.2-4.38-.66-.69-1.31-1.26-1.95-1.71-.45-.31-.77-.48-.97-.5-.2-.02-.31.06-.33.24-.05.49.62,1.41,2,2.76,1.15,1.11,2.63,2.31,4.45,3.58Z"/><path class="cls-14" d="M57.7,100.42c.05-.54.19-.94.41-1.19s.53-.36.92-.32c.52.05,1,.29,1.44.73.42.41.73,1,.93,1.76.11.42.15.76.12,1.03-.04.37-.22.54-.54.5-.22-.02-.37-.14-.47-.37-.02-.06-.07-.36-.13-.91-.04-.33-.16-.64-.37-.94-.18-.26-.38-.4-.62-.42-.18-.02-.32.02-.42.12-.1.1-.16.25-.18.46-.05.51.1,1.09.45,1.74.39.76.91,1.17,1.54,1.23.46.05,1.05-.13,1.78-.52.8-.44,1.45-.64,1.97-.58.77.08,1.34.48,1.71,1.21.23.45.32.94.26,1.47-.08.84-.45,1.45-1.1,1.82-.46.26-.98.36-1.57.31-.68-.07-1.24-.3-1.67-.7-.28-.26-.41-.51-.39-.75.02-.22.12-.32.3-.3.07,0,.17.06.3.15.36.24.79.38,1.29.44.43.04.81-.07,1.13-.35.29-.24.45-.54.49-.89.03-.34-.05-.62-.26-.83-.18-.18-.41-.28-.71-.31-.37-.04-.87.12-1.49.49-.86.5-1.62.71-2.28.64-.87-.09-1.6-.64-2.18-1.66-.55-.99-.78-2-.67-3.04Z"/><path class="cls-14" d="M57.49,415.16c.83.66,1.76,1.28,2.8,1.87,1.49.85,2.62,1.31,3.38,1.39.22.02.39,0,.51-.09s.19-.21.21-.39c.04-.44-.31-1.01-1.07-1.71-.47-.44-.94-.85-1.42-1.2-.27-.2-.4-.39-.38-.58.01-.11.06-.21.15-.28.09-.06.17-.09.25-.08.32.03,1,.53,2.04,1.49,1.24,1.15,1.82,2.14,1.74,2.98-.04.45-.29.8-.73,1.05-.28.16-.66.21-1.14.16-1.06-.11-2.26-.54-3.61-1.29-.33-.18-1.14-.68-2.41-1.49.04.24.05.42.04.55-.02.18-.08.34-.18.47-.14.18-.3.26-.49.24-.22-.02-.38-.17-.49-.43-.03-.07-.05-.4-.07-.99-.01-.21-.07-.53-.16-.94-.52-.36-1.22-.94-2.09-1.72-.49-.44-.8-.74-.94-.9-.2-.23-.29-.43-.27-.58.01-.11.08-.22.22-.32.12-.09.24-.13.36-.12.23.02.65.31,1.28.87.4.37.73.64.99.83-.16-1-.23-1.71-.18-2.12.05-.48.27-.7.68-.66.2.02.34.12.42.29.04.09.06.33.06.7-.02.15.08.83.3,2.03.06.33.13.66.21.99Z"/><path class="cls-14" d="M62.04,411.43c-.83-.95-1.63-2.03-2.39-3.24-.27-.43-.52-.89-.75-1.37-.11-.24-.16-.39-.15-.45.01-.13.12-.25.33-.36.11-.07.21-.1.3-.09.16.02.35.2.59.56.62.96,1.11,1.46,1.46,1.5.2.02.31-.08.34-.31.04-.38-.21-1.05-.74-2.04-.09-.17-.13-.3-.12-.41,0-.07.05-.14.13-.2.09-.07.17-.1.26-.09.26.03.63.43,1.1,1.22.5.83.71,1.59.64,2.28-.03.28-.13.53-.3.75-.14.19-.37.27-.69.24-.22-.02-.46-.14-.72-.35.42.74,1.18,1.64,2.27,2.69.68.62,1.53,1.24,2.55,1.89.38.24.56.51.53.81-.03.32-.2.47-.51.44-.3-.03-1.07-.36-2.31-1-1.85-.95-3.26-1.88-4.23-2.81-.6-.57-.89-1.03-.85-1.37.01-.11.06-.22.14-.3.1-.11.21-.15.34-.14s.31.12.52.32c.04.04.31.3.81.79.48.45.96.8,1.44,1.06Z"/><path class="cls-14" d="M65.17,401.97c.48.34.88.67,1.2.98.63.62.91,1.2.86,1.74-.05.47-.31.82-.78,1.03-.31.14-.65.19-1.05.15-.97-.1-2.01-.51-3.12-1.24-1.23-.81-2.15-1.74-2.75-2.77-.39-.68-.56-1.31-.5-1.89.04-.37.18-.66.43-.88.22-.19.46-.27.71-.25.19.02.45.12.78.3.2-.11.37-.16.51-.15.18.02.47.17.87.46.4.3.95.61,1.63.93.72.35,1.31.54,1.77.59.37.04.68-.04.94-.24.07-.05.19-.22.36-.51.13-.21.32-.3.58-.27.17.02.3.09.39.22.1.14.14.3.12.48-.05.47-.3.86-.75,1.16-.37.25-.81.34-1.33.29-.17-.02-.46-.06-.86-.14ZM61.02,399.89c-.2.09-.36.19-.46.3-.1.11-.16.24-.18.38-.07.66.44,1.44,1.53,2.34,1.2.99,2.24,1.53,3.14,1.62.22.02.39,0,.51-.07.12-.07.19-.19.21-.36.04-.42-.35-.96-1.19-1.6-.46-.36-1.14-.83-2.05-1.39-.59-.37-.98-.63-1.17-.79-.1-.08-.21-.22-.34-.42Z"/><path class="cls-14" d="M59.99,393.52c.07-.69.47-1,1.19-.93.64.06,1.26.38,1.85.94.45.43.66.8.63,1.08-.03.25-.18.35-.46.33-.15-.02-.26-.06-.34-.14-.03-.03-.12-.15-.27-.35-.13-.17-.34-.36-.62-.55-.19-.13-.35-.21-.47-.22-.14-.01-.22.06-.23.21-.02.18.1.48.35.88.4.64,1.07,1.31,2,2,.97.72,1.75,1.1,2.35,1.16.19.02.37-.02.53-.12.24-.14.38-.35.41-.63.06-.55-.22-1.24-.83-2.06-.52-.7-1.05-1.29-1.59-1.79-.3-.26-.44-.47-.43-.64,0-.1.06-.18.16-.25.09-.06.19-.09.27-.08.32.03.91.51,1.76,1.44,1.34,1.47,1.95,2.74,1.84,3.82-.07.65-.35,1.12-.84,1.41-.37.21-.78.29-1.24.25-.91-.09-1.92-.57-3.05-1.45-1.07-.84-1.91-1.77-2.51-2.8-.35-.6-.5-1.11-.46-1.53Z"/><path class="cls-14" d="M63.32,385.8c1.35.71,2.39,1.1,3.13,1.18.36.04.66,0,.91-.12.32-.15.49-.36.52-.65.06-.59-.27-1.32-.99-2.18-.46-.57-.93-1.05-1.42-1.45-.33-.26-.48-.49-.46-.7s.13-.29.33-.27c.33.03.97.5,1.92,1.41,1.41,1.34,2.06,2.58,1.95,3.69-.07.67-.44,1.12-1.13,1.33-.5.16-1.02.22-1.55.16-.45-.05-1.1-.22-1.95-.52.41.62,1.48,1.59,3.2,2.93.47.36.69.66.66.92-.01.13-.08.24-.21.32-.13.08-.26.12-.38.11-.35-.04-1.47-.61-3.36-1.73-3.31-1.97-6.05-3.99-8.24-6.08-1.19-1.13-2.05-2.12-2.56-2.97-.47-.77-.68-1.37-.64-1.8.02-.19.12-.35.29-.49.21-.17.46-.25.74-.22.74.07,1.66.56,2.74,1.46,1.12.93,2.42,2.46,3.92,4.58.83,1.19,1.48,2.25,1.93,3.18.22.14.85.52,1.9,1.16-1.07-1.21-1.8-2.16-2.18-2.84-.24-.44-.47-1.02-.71-1.75-.15-.49-.22-.84-.2-1.05.01-.11.07-.21.16-.29.09-.09.2-.13.33-.11.29.03.47.25.54.65.13.68.4,1.4.79,2.15ZM60.95,386.7c-.8-1.53-1.87-2.99-3.2-4.38-.66-.69-1.31-1.26-1.95-1.71-.45-.31-.77-.48-.97-.5-.2-.02-.31.06-.33.24-.05.49.62,1.41,2,2.76,1.15,1.11,2.63,2.31,4.45,3.58Z"/></svg>